<svg xmlns="http://www.w3.org/2000/svg" viewBox="0 0 2000 164.98"><defs><style>.cls-1{fill:#fff;}</style></defs><title>bubble-cover-01</title><g id="Layer_2" data-name="Layer 2"><g id="Layer_1-2" data-name="Layer 1"><path class="cls-1" d="M0,0V36.62A259.25,259.25,0,0,0,218.49,156.09a259.37,259.37,0,0,0,226.59-133A190.89,190.89,0,0,0,553.62,56.74a191.3,191.3,0,0,0,67.75-12.33,191.6,191.6,0,0,0,162,89.11,191.21,191.21,0,0,0,139-59.64A232.7,232.7,0,0,0,1054.77,115a232.89,232.89,0,0,0,152.39-56.48,268,268,0,0,0,214,106.46c104.88,0,195.7-60.18,239.84-147.88A232.83,232.83,0,0,0,1766.17,42a232.78,232.78,0,0,0,114.44-29.89A192.26,192.26,0,0,0,2000,124.26V0Z"/></g></g></svg>