<svg xmlns="http://www.w3.org/2000/svg" viewBox="0 0 188 49.85"><defs><style>.cls-1{fill:#fff;}</style></defs><title>Family Tree Logo - White</title><g id="Layer_2" data-name="Layer 2"><g id="Logo_14-A" data-name="Logo 14-A"><path class="cls-1" d="M31.45,27.14a10.08,10.08,0,0,1,7.41-3,7.18,7.18,0,0,1,2.83.52,5.88,5.88,0,0,1,2.08,1.46A6.2,6.2,0,0,1,45,28.38a9.32,9.32,0,0,1,.43,2.92V43.43H44a1.44,1.44,0,0,1-.75-.16,1.07,1.07,0,0,1-.41-.63l-.37-1.79A18.5,18.5,0,0,1,41,42.07a8.28,8.28,0,0,1-1.5.9,8.5,8.5,0,0,1-1.68.56,9.18,9.18,0,0,1-2,.2,6.71,6.71,0,0,1-2.08-.31,4.76,4.76,0,0,1-1.7-.93,4.32,4.32,0,0,1-1.14-1.56,5.49,5.49,0,0,1-.42-2.24,4.17,4.17,0,0,1,.62-2.16,5.38,5.38,0,0,1,2-1.84,13,13,0,0,1,3.62-1.32,26.94,26.94,0,0,1,5.46-.59V31.3a5.13,5.13,0,0,0-1-3.35,3.47,3.47,0,0,0-2.79-1.13,5.86,5.86,0,0,0-2.07.31,8.07,8.07,0,0,0-1.44.69c-.41.26-.76.49-1.05.7a1.54,1.54,0,0,1-.87.31.93.93,0,0,1-.58-.18,1.72,1.72,0,0,1-.41-.44Zm10.76,7.75a26.82,26.82,0,0,0-3.92.37,10.63,10.63,0,0,0-2.64.76,3.69,3.69,0,0,0-1.48,1.1,2.34,2.34,0,0,0-.46,1.42,3.08,3.08,0,0,0,.25,1.3,2.35,2.35,0,0,0,.66.88,2.59,2.59,0,0,0,1,.51,4.41,4.41,0,0,0,1.23.16,6.72,6.72,0,0,0,1.61-.18,6.32,6.32,0,0,0,1.38-.51,8.16,8.16,0,0,0,1.23-.81,10.35,10.35,0,0,0,1.15-1.07Z"/><path class="cls-1" d="M51.29,43.43v-19h2a.82.82,0,0,1,.88.7l.24,1.94A9.76,9.76,0,0,1,56.78,25a5.58,5.58,0,0,1,3-.83,4.46,4.46,0,0,1,3.1,1.07,6,6,0,0,1,1.72,2.88,6.25,6.25,0,0,1,1.05-1.78,6.08,6.08,0,0,1,1.46-1.23,5.84,5.84,0,0,1,1.71-.71,7.6,7.6,0,0,1,1.84-.23,7,7,0,0,1,2.67.48,5.3,5.3,0,0,1,2,1.4,6.27,6.27,0,0,1,1.24,2.25A9.88,9.88,0,0,1,77,31.35V43.43H73.67V31.35a5.18,5.18,0,0,0-1-3.38,3.5,3.5,0,0,0-2.81-1.15,4.37,4.37,0,0,0-1.57.29A4,4,0,0,0,67,28a4.14,4.14,0,0,0-.89,1.42,5.43,5.43,0,0,0-.32,2V43.43H62.45V31.35a5.29,5.29,0,0,0-.91-3.4,3.28,3.28,0,0,0-2.68-1.13,4.14,4.14,0,0,0-2.29.67,7.53,7.53,0,0,0-1.92,1.8V43.43Z"/><path class="cls-1" d="M87.08,18.51a2.16,2.16,0,0,1-.2.91,2.8,2.8,0,0,1-.52.75,2.52,2.52,0,0,1-.77.51,2.45,2.45,0,0,1-.93.19,2.32,2.32,0,0,1-.91-.19,2.39,2.39,0,0,1-.74-.51,2.52,2.52,0,0,1-.5-.75,2.15,2.15,0,0,1-.19-.91,2.24,2.24,0,0,1,.19-.93,2.49,2.49,0,0,1,.5-.77,2.39,2.39,0,0,1,.74-.51,2.15,2.15,0,0,1,.91-.19,2.28,2.28,0,0,1,.93.19,2.52,2.52,0,0,1,.77.51,2.75,2.75,0,0,1,.52.77A2.25,2.25,0,0,1,87.08,18.51Zm-.72,5.95v19H83v-19Z"/><path class="cls-1" d="M96,15.85V43.43H92.69V15.85Z"/><path class="cls-1" d="M118.53,24.46,108,49a1.69,1.69,0,0,1-.42.6,1.15,1.15,0,0,1-.78.22h-2.47l3.47-7.52L99.92,24.46h2.88a1,1,0,0,1,.69.22,1,1,0,0,1,.34.48l5.08,11.94a12.62,12.62,0,0,1,.5,1.65c.18-.59.37-1.14.57-1.67l4.92-11.92a1.07,1.07,0,0,1,1-.7Z"/><path class="cls-1" d="M57.17,19.5A1.52,1.52,0,0,1,56,19.06a1.61,1.61,0,0,1-.41-1.19V14.59H55a.27.27,0,0,1-.19-.08.29.29,0,0,1-.08-.22v-.56l.94-.16L56,12a.33.33,0,0,1,.11-.18.35.35,0,0,1,.21-.06H57v1.85h1.57v1H57v3.18a.63.63,0,0,0,.14.43.47.47,0,0,0,.37.16.51.51,0,0,0,.22,0l.15-.06.12-.07a.19.19,0,0,1,.1,0,.15.15,0,0,1,.1,0,.3.3,0,0,1,.09.1l.42.68a1.83,1.83,0,0,1-.71.39A2.54,2.54,0,0,1,57.17,19.5Z"/><path class="cls-1" d="M61.12,14.16a3.05,3.05,0,0,1,.76-.53,2.24,2.24,0,0,1,1-.2,2.08,2.08,0,0,1,.85.17,1.6,1.6,0,0,1,.62.46,2,2,0,0,1,.38.7,2.84,2.84,0,0,1,.13.9V19.4H63.41V15.66a1.28,1.28,0,0,0-.24-.83.93.93,0,0,0-.75-.3,1.47,1.47,0,0,0-.69.17,2.34,2.34,0,0,0-.61.45V19.4H59.71V10.89h1.41Z"/><path class="cls-1" d="M67.49,16.64a2.5,2.5,0,0,0,.16.78A1.5,1.5,0,0,0,68,18a1.34,1.34,0,0,0,.49.32,1.81,1.81,0,0,0,.63.11,2.05,2.05,0,0,0,.59-.08l.44-.18.32-.18a.63.63,0,0,1,.28-.08A.29.29,0,0,1,71,18l.41.52a2.87,2.87,0,0,1-.53.46,3.83,3.83,0,0,1-.61.3,3.61,3.61,0,0,1-.65.15,4.72,4.72,0,0,1-.64,0,3.25,3.25,0,0,1-1.14-.2,2.71,2.71,0,0,1-.92-.6,2.91,2.91,0,0,1-.61-1,3.8,3.8,0,0,1-.22-1.36,3.23,3.23,0,0,1,.19-1.13,2.82,2.82,0,0,1,.56-.93,2.73,2.73,0,0,1,.89-.62,3,3,0,0,1,1.18-.23,2.86,2.86,0,0,1,1,.18,2.3,2.3,0,0,1,.81.52,2.56,2.56,0,0,1,.53.84,3.26,3.26,0,0,1,.19,1.13.85.85,0,0,1-.07.43.27.27,0,0,1-.26.11Zm2.7-.85a1.77,1.77,0,0,0-.08-.52,1.37,1.37,0,0,0-.23-.43,1.18,1.18,0,0,0-.4-.29,1.32,1.32,0,0,0-.55-.1,1.26,1.26,0,0,0-1,.35,1.64,1.64,0,0,0-.45,1Z"/><path class="cls-1" d="M143,24.85a8.24,8.24,0,0,0-2.13,2.7l-.28-2.17a1.52,1.52,0,0,0-.38-.91,1.49,1.49,0,0,0-1-.25h-2.72V43.43h4.63V31.6a9.71,9.71,0,0,1,.68-1.37,4.52,4.52,0,0,1,.85-1,3.34,3.34,0,0,1,1.07-.65,3.9,3.9,0,0,1,1.37-.22,6.74,6.74,0,0,1,1.08.09,5.8,5.8,0,0,0,.83.1.78.78,0,0,0,.48-.14,1,1,0,0,0,.27-.48l.3-3.47a3.64,3.64,0,0,0-2.14-.58A4.55,4.55,0,0,0,143,24.85Z"/><path class="cls-1" d="M167,34a3,3,0,0,0,.22-1.41,10.36,10.36,0,0,0-.62-3.7,7.93,7.93,0,0,0-1.74-2.74,7.26,7.26,0,0,0-2.64-1.69,9.32,9.32,0,0,0-3.35-.58,9.61,9.61,0,0,0-3.87.75,8.66,8.66,0,0,0-2.9,2,8.92,8.92,0,0,0-1.82,3,10.54,10.54,0,0,0-.64,3.7,12.39,12.39,0,0,0,.73,4.45,9.41,9.41,0,0,0,2,3.22,8.42,8.42,0,0,0,3,2,10.34,10.34,0,0,0,3.73.66,15,15,0,0,0,2.08-.15,11.1,11.1,0,0,0,2.12-.51,9.68,9.68,0,0,0,2-1,7.91,7.91,0,0,0,1.73-1.5l-1.33-1.69a1,1,0,0,0-.86-.43,1.81,1.81,0,0,0-.89.26c-.31.18-.67.37-1.07.58a9.09,9.09,0,0,1-1.42.58,6.24,6.24,0,0,1-1.94.26,5.84,5.84,0,0,1-2-.34,4.21,4.21,0,0,1-1.6-1A5.16,5.16,0,0,1,154.8,37a9.12,9.12,0,0,1-.52-2.56h11.89A.94.94,0,0,0,167,34Zm-12.66-2.43a5.56,5.56,0,0,1,1.47-3.23A4.25,4.25,0,0,1,159,27.23a4.43,4.43,0,0,1,1.81.35,3.44,3.44,0,0,1,1.28,1,4,4,0,0,1,.76,1.39,5.53,5.53,0,0,1,.26,1.69Z"/><path class="cls-1" d="M185.6,38.45a1.84,1.84,0,0,0-.89.26c-.3.18-.66.37-1.06.58a8.84,8.84,0,0,1-1.43.58,6.2,6.2,0,0,1-1.94.26,5.88,5.88,0,0,1-2.05-.34,4.29,4.29,0,0,1-1.6-1A5.14,5.14,0,0,1,175.55,37,9.1,9.1,0,0,1,175,34.4h11.89a.93.93,0,0,0,.86-.36,3,3,0,0,0,.23-1.41,10.14,10.14,0,0,0-.63-3.7,7.91,7.91,0,0,0-1.73-2.74A7.43,7.43,0,0,0,183,24.5a9.32,9.32,0,0,0-3.35-.58,9.54,9.54,0,0,0-3.87.75,8.66,8.66,0,0,0-2.9,2,9.11,9.11,0,0,0-1.83,3,10.77,10.77,0,0,0-.63,3.7,12.39,12.39,0,0,0,.73,4.45,9.12,9.12,0,0,0,2,3.22,8.42,8.42,0,0,0,3,2,10.28,10.28,0,0,0,3.72.66,15.12,15.12,0,0,0,2.09-.15,11.28,11.28,0,0,0,2.12-.51,9.93,9.93,0,0,0,2-1,7.64,7.64,0,0,0,1.72-1.5l-1.33-1.69A.94.94,0,0,0,185.6,38.45Zm-9-10.07a4.24,4.24,0,0,1,3.15-1.15,4.43,4.43,0,0,1,1.81.35,3.52,3.52,0,0,1,1.28,1,4,4,0,0,1,.76,1.39,5.53,5.53,0,0,1,.25,1.69h-8.72A5.56,5.56,0,0,1,176.59,28.38Z"/><path class="cls-1" d="M138.87,6.31A25.5,25.5,0,0,1,139.51,2c.15-.62.33-1.22.54-2a14,14,0,0,0-1.69.15,13.51,13.51,0,0,0-6.69,3.53,15,15,0,0,0-3.53,4.91,9.62,9.62,0,0,0-.8,4.88,13.22,13.22,0,0,0,1.32,4.35,1.32,1.32,0,0,1-.08,1.56c-.14.19-.26.4-.4.59l-.47.65V18.34h-2.4a1,1,0,0,0-.67.21,1,1,0,0,0-.36.58L124,20.61c-3-4.26-6.28-8-11.17-10.08a17,17,0,0,1,5.88,3,34.67,34.67,0,0,1,4.81,4.94c.06-.38.09-.62.15-.86a6.31,6.31,0,0,0-.94-5.2A9.65,9.65,0,0,0,116,8.14a12,12,0,0,0-4.27,0,14.72,14.72,0,0,0-3.12,1,2.9,2.9,0,0,0-.51.33,3.26,3.26,0,0,1,.39.26,25.34,25.34,0,0,1,3,3.49c.81,1.12,1.61,2.23,2.46,3.32a7.86,7.86,0,0,0,4,2.73,13.66,13.66,0,0,0,3.81.5,1.08,1.08,0,0,1,.58.25,3.84,3.84,0,0,1,.5.56c.31.35.61.71.93,1.09l-.51,2.74-3.09.5v1.84a.93.93,0,0,0,.26.73.91.91,0,0,0,.64.24h2V38.41a5.49,5.49,0,0,0,1.34,3.91,5.06,5.06,0,0,0,3.85,1.41A8.54,8.54,0,0,0,131,43.3,7.11,7.11,0,0,0,133.31,42l-1.39-2.25a1.46,1.46,0,0,0-.28-.31.53.53,0,0,0-.34-.1.6.6,0,0,0-.33.1l-.39.22a5,5,0,0,1-.5.21,2.22,2.22,0,0,1-.73.1,1.49,1.49,0,0,1-1.2-.5,2.05,2.05,0,0,1-.44-1.41V27.68h5.13V24.39h-5.13V21.91a1.57,1.57,0,0,0,.21-.24c.48-.69,1-1.36,1.43-2.08a52.23,52.23,0,0,0,3.8-8.34c.71-1.89,1.42-3.77,2.16-5.64A11.86,11.86,0,0,1,136,4.25c-.27.78-.3,1.52-.56,2.29-.66,1.89-1.25,3.8-1.91,5.69-.57,1.63-1.19,3.25-1.82,4.87-.29.74-.67,1.46-1,2.21.11,0,.52,0,.59,0,1.74-.24,2.48-1.15,3.77-2.24a13.7,13.7,0,0,0,1.32-1.52,8.43,8.43,0,0,0,1.91-4.22C138.6,9.67,138.74,8,138.87,6.31Z"/><path class="cls-1" d="M33.1,2.65A12.07,12.07,0,0,0,21,14.71v3.57H20.5a1.56,1.56,0,1,0,0,3.11H21V42.16a1.56,1.56,0,0,0,3.12,0V21.39h6.29a1.56,1.56,0,1,0,0-3.11H24.16V14.71a8.95,8.95,0,1,1,17.89,0,8.86,8.86,0,0,1-1.2,4.47,1.56,1.56,0,1,0,2.7,1.56A12.05,12.05,0,0,0,33.1,2.65Z"/><path class="cls-1" d="M18.29,36.87a19.23,19.23,0,0,0-1.85-3.44,31.77,31.77,0,0,0-2.92-3.69C12.39,28.5,11.16,27.26,9.93,26a35.75,35.75,0,0,1-3.49-4.16A13.5,13.5,0,0,1,4.26,17a10.86,10.86,0,0,1,.13-5.11A10,10,0,0,1,6.74,7.69a11.48,11.48,0,0,1,3.69-2.64,10.71,10.71,0,0,1,3.94-.93,11.11,11.11,0,0,1,1.84.07,11.47,11.47,0,0,1,1.63.32,10.59,10.59,0,0,1,2.5,1c.34.18.6.39.85.55s.44.33.59.47l.46.42s-.11-.19-.33-.54c-.12-.17-.27-.38-.46-.62A8.3,8.3,0,0,0,20.72,5a10.27,10.27,0,0,0-2.41-1.72,12.82,12.82,0,0,0-1.74-.74,13.52,13.52,0,0,0-2.08-.48,12.14,12.14,0,0,0-5,.34A13.36,13.36,0,0,0,4.39,5.21,12.92,12.92,0,0,0,2.23,7.63,12.44,12.44,0,0,0,.69,10.7,13.52,13.52,0,0,0,.3,17.8a14.36,14.36,0,0,0,1.2,3.41,18,18,0,0,0,1.82,2.87,30.26,30.26,0,0,0,4.25,4.34c1.42,1.23,2.8,2.3,4,3.32a39.19,39.19,0,0,1,3.26,2.95,20.41,20.41,0,0,1,2.29,2.78,13.7,13.7,0,0,1,1.31,2.41A11.15,11.15,0,0,1,19,41.56l.13.61,0-.63a10.84,10.84,0,0,0-.09-1.83A13,13,0,0,0,18.29,36.87Z"/></g></g></svg>