<svg xmlns="http://www.w3.org/2000/svg" viewBox="0 0 116.96 136.03"><defs><style>.cls-1{fill:#fff;fill-rule:evenodd;}</style></defs><title>Asset 3</title><g id="Layer_2" data-name="Layer 2"><g id="Layer_1-2" data-name="Layer 1"><path class="cls-1" d="M83.66,36l-10.87-.44.29-1L117,0,65.39,26.14l-4.68,8.92L32.94,33.93l-.75.75-6.06-8.77L0,26.24,30.36,36.51l-6.59,6.58L41.2,41l-4.08,4.61-4.39-2.11L12.65,45.1l18.27,7.55L14.33,71.39,25,72.71l9.73-18.47,13.06,5.39-.26.5,5,3.89L26.78,136,75.85,49.18,69,48.78l3.3-11.44ZM50.06,55.37l-.39-3.69L38.85,46.47,41.76,41l16.91-2Z"/></g></g></svg>