<svg xmlns="http://www.w3.org/2000/svg" viewBox="0 0 116.33 135.91"><defs><style>.cls-1{fill:#fff;fill-rule:evenodd;}</style></defs><title>Asset 1</title><g id="Layer_2" data-name="Layer 2"><g id="Layer_1-2" data-name="Layer 1"><polygon class="cls-1" points="116.33 135.91 79.37 82.48 79.69 82.59 73.88 74.43 82.18 60.27 80.87 43.49 74.74 39.62 87.53 0 64.5 44.34 69.11 57.03 73.56 43.27 72.44 72.42 71.36 70.9 63.35 59.32 63.24 59.5 63.2 59.44 36.86 57.01 0 20.16 29.95 65.08 55.71 74.15 116.33 135.91"/><polygon class="cls-1" points="47.3 37.34 35.07 48.02 53.89 40.53 62.12 44.51 66.58 35.48 53.45 31.98 53.44 31.98 15.17 21.81 47.3 37.34"/></g></g></svg>