<svg xmlns="http://www.w3.org/2000/svg" viewBox="0 0 98.1 145.37"><defs><style>.cls-1{fill:#fff;fill-rule:evenodd;}</style></defs><title>Asset 2</title><g id="Layer_2" data-name="Layer 2"><g id="Layer_1-2" data-name="Layer 1"><polygon class="cls-1" points="85.63 92.39 59.99 71.09 92.35 0 52.67 58.76 53.44 65.65 50.14 62.91 52.2 60.17 48.75 61.76 42.84 56.85 44.66 63.65 31.26 69.83 23.26 83.68 22.83 83.8 18.79 75.72 16.97 85.39 12.3 86.66 14.09 91.93 0 102.03 11.7 100.97 2.73 116.04 12.76 107.67 6.15 142.7 19.58 108.1 31.78 144.06 25.01 94.11 25.54 92.74 26.42 94.58 45.95 68.5 50.56 85.73 76.26 97.57 98.1 145.37 85.63 92.39"/></g></g></svg>