<svg xmlns="http://www.w3.org/2000/svg" viewBox="0 0 225.15 106.02"><defs><style>.cls-1,.cls-8{fill:#ec0e7a;}.cls-2,.cls-4{fill:#844d9e;}.cls-3,.cls-7{fill:#0094da;}.cls-4,.cls-7,.cls-8{opacity:0.9;}.cls-5{fill:#fff;opacity:0.7;}.cls-6{opacity:0.1;}</style></defs><title>Asset 2</title><g id="Layer_2" data-name="Layer 2"><g id="Layer_1-2" data-name="Layer 1"><path class="cls-1" d="M29,21.37h3l.15,1.5.45-.15V21.37h.3l.3.3.61-.3a1.55,1.55,0,0,1,.3,1.05q.25,0,.45-1.05h.3l.15.75h.15l.6-.75.6.3.3-.3h.3l.15.75v8l-.15,1.05.15.15h-.15l.15.15v2q0,.21-.6.45c0,.47.35.88,1.06,1.2l.45-.3.6.3.6-.15c.1.81.25,1.21.45,1.21V34.45l-.15-.15.15-.15V34l-.15-1.5.15-.91-.15-.9.15-2.25-.15-5.57V21.82l.3-.3q.2.9.6.9c0-.7.15-1.05.46-1.05l.3.9-.15.6.15,1.5L41,25.88h-.15l-.31-.3V23.77l-.15-.15.15-.15v-.15l-.3-.3-.15,1.35.15.61-.15,1.35v2.41h.45v-2l.16-.75h.15l.3.3v1.2l.15,1.21-.15.75.3,2.41.3-.31-.15-.9q0-1.05.3-1.05l.45.15.15-.15v-.15l-.3-.45-.15.15h-.15l-.3-.3V26.48l.3-.3h.15v1.35h.3v-.15l-.15-1.8-.45.3h-.15l-.15-.75.15-.15v-.15l-.15-3,.15-.45h5q.15,1.5.45,1.5l.15-1.5h.15l.31.3v3.91l-.16.15.16.15v3.31h-.31L47.17,29H47v1.35l.15-.15h.46l-.16.9.16.45-.16.16.16.75v2.55l-.31.46v1.05c0,.5.13.75.31.75v.3h-.16l.16,8.28v8.27l-.31.3-.45-.15-.15.15v.3l.45.15.15-.15.31.45v3.46l-.46.45H44q-.3,0-.3-.75h-.3a.66.66,0,0,1-.75.75h-1.5L40.25,59l-.45.15-.3-.45v-2.4c0-.51.13-.76.3-.76l.6.3.31-.3h1v-.15L41,53.86l-.15.75-.15-.15H40.4l-.75.15a3.68,3.68,0,0,1-.3-1.65V49.05l.3-.31.3.31.3-.46-.3-.9-.15.15h-.15l.15.15v.15l-.3.3-.15-1.5L40,46v-.15l-.6-.3.15-.76v-1.5c-.38,0-.64-.35-.75-1H38.6q0,.9-.3.9t-.3-.75h-.3c0,.5-.3.75-.91.75V45l.15.61-.15.15.3,3.31-.15.9.15.75-.15,1.5v.61l-.15.15.15.15v2.1h-.45v-2.1l-.3-.3L36,53h-.15l.15.15v1.65h.3v.45H36v.3h.3v.15l.15-.15h.45l.15,1.81-.15.15v.15l-.15-.15h-.3v1.2l-.45.45-.6-.6-.3.6L34.39,59l-.45.15L33.48,59l-.15.15h-.15l-.6-.3.15-.75V55.66h-.3V59l-.75.15H29.42L29,58.67v-1.2l-.15-3.76L29,52.35l.45-.15.15.15V51.9q-.75,0-.75-.9v-.15l.3-1.35-.3-.61q.11-.75.75-.75v-1.2l-.6-.15V45.43q.6,0,.6-.45l-.3-1.2L29,29.19V24.07l-.15-.6.15-.15v-.15l-.15-1.35Zm1.2,2.85v.3h.46v-.6h-.15ZM31.38,23v.3h-.15l.15,1.05.15,9.93.15.15h.15V34.3l-.15-11.13L31.53,23Zm1.8,1.35v.15l.3.31v-.46Zm1.06.76v.6l.3-.3v-.3Zm0,2.25v1.51h.3V27.68Zm0,28.43v2.71h.45v-.9l-.15-1.5.15-.15-.15-.16ZM35,22.57V23h.3v-.15Zm.3,4.36v1.36h.3V27.23Zm.45,16.4v2l.3.31.15-.16-.15-1V43Zm.3,4.36v.45h.15v-.45Zm.45-17v.45l.3-.3-.15-.15Zm.15,8.13v.6l.3-.3Zm.91.15v.3h.15V39Zm.9-3.16v.3l.3.3v-.9ZM39.65,45v.3H40V45Zm.15,4.52v.3h.3v-.3Zm0,1,.15.15h.15v-.45ZM40.4,36v.45h.15V36Zm1.06-3.76-.15.15v.45h.45v-.3Zm.6,23.16.3.3v-.3Zm.9-2.7v.15l-.15,1.95.3.3.45-.15V53.56q0-.78-.45-.9Zm1,1.5v.6h.46v-.6Zm.91-28.58-.3.45.15.15h.45v-.3Zm.15,3.91v.45h.3v-.45Zm.15,1.8v.91l.3-.3v-.61Zm0,2.11V37l.3.3V33.4Zm0,4.51.3.3v-.6Zm0,16.25v.15q.75,0,.75,1,.35,0,.45-.75l-.3-.75ZM46,56v.9h.45v-.15L46.27,56Zm.9-30.24V26h-.15l.15.45h.3v-.75Zm.15,5v.45h.3V31Z"/><path class="cls-2" d="M56.27,18.72l1.06.15,8.57-.15,1.36.15v-.15q.76,0,1,5.72l1.35,9.78-.15,1.05q.6,2.55,2.86,21.06l-.45.3H64.4q-.37,0-.45-.6l-.31-4.21.16-.45c-.08-1-.23-1.51-.46-1.51H60.79l-.15.75c0,3.69-.25,5.69-.76,6h-.15l-1.2-.3-.45.15-.9-.15h-.91l-1.2.3H52.21l-.45-.3,1.35-11H53l3-26.48h.3Zm1.66,11.89-.15,1.05.3.45-.15.75.15.6-.45,2q.3,0,.3.45l-.15.75h.3v.45c-.5,0-.75.36-.75,1.06l-.61.15v1.2l.46.15v-1.2l.15.15h.15v-.9h.75v-.91l.15-.15-.15-.15v-.6l.3-.9-.3-1.81v-.45q.6,0,.6-1.5A.8.8,0,0,0,57.93,30.61Zm-1,19.55v.45h.9v-.45Zm0,1.06v.45h1.35V52l-.15.15v.15l.15.15h.15q0-.75.45-.75l-.45-.45v-.15l-.15.15ZM57,44.45v.45l.45-.15V44.6Zm0,1.95v.45h.75v-.3Zm0,.9v.31h.75V47.3Zm1-9.17-.15.75V39l.3.3h.15v-.15l-.15-1Zm.15,8.57v.75h.15l.3-.75v-.3h-.15Zm0,1.21v.45h.15v-.45Zm0,4.66v.75h.6v-.45Zm0,1.8v.46l.45-.15v-.15Zm0,.76v.3l.3.3v-.3Zm.45-31v2.1a3.7,3.7,0,0,1-.3,1.66L58.53,29h.15a1.16,1.16,0,0,1,.45-.9V24Zm-.3,21.51.15.45h.15v-.45Zm.75.9v.3h.3v-.3ZM62,28.8Q60.94,40.31,60.49,42l.3,1.05h2.55L62.29,28.8Z"/><path class="cls-3" d="M76.48,19.9h2.86l.15.61h.3c0-.41.1-.61.3-.61h1.06l.45.3.45-.3h.15l.45.3.3-.3h.15c.2,0,.3.15.3.46l.15.15h.15c.16-.41.31-.61.46-.61h2c.75,0,1.15.2,1.2.61l-.15.45.31,5h.3V22.61h.45l.3,1.36-.15.9.15,2.25-.15.91h-.15q-.3,0-.3-.45h-.15l-.3.3v.45l.3.3h.15l.15-.15h.15l.3.3-.15.15.15,1.81v1.35l.15.75h.45v-.75L89,31.94l.15-.45L88.82,30l.15-.6-.15-.6.15-.6L88.82,28v-.15l.15-.15L88.82,27v-1.2l-.15-2.26.15-.75-.15-2.1.3-.3h.15l.15.75v1.5l-.15.15.15.9h.15q.3,0,.3-.45l-.15-2.4.45-.15q3.92,1.8,3.91,6.62l-.15.15h.15a.53.53,0,0,1-.6.6q0,.3.45.3l.15.45h-.15l.15.15v.3l-.15.15.3.75-.3,1.06.3,1.35V33q-.37,6.1-1.2,6.77c0,.27-.45.77-1.35,1.51h-.3V38.86l-.3-.3-.31.45v.3l.31,2.26-.16.15h-.3l-.15-.15h-.15l-.45.45-.15-.15v-.6l.15-.76.45.3h.15l.15-.45-.15-.75v-.45L89.87,39v.3h-.15l.15.15v.6h-.15l-.45-1.2V37.5l-.3-.3-.15.91.15,1.2-.15.15h-.15l.15,1.81v.6c0,.4-.6.6-1.81.6H85.66l-.15-.15q-1,.2-1.05.45v.75l-.15,1.36a3.62,3.62,0,0,1,.3,1.65v8l-.15.91.15.75v1.05l-.45.45H83.7l-1.2-.15-1.65.15H76.93l-.15-.15h-.15l.15-.75v-.6l-.3-.45V44.42l-.15-.6.15-.15-.15-1.8v-3c0-1.2.13-1.81.3-1.81l-.15-1v-.45l-.15-13.84h.15l-.15-.15v-.9Zm.76,35.51v.3h.15v-.3ZM77.69,22v.45l.3-.3L77.84,22Zm.15,1v1.36l.3.3.15-.15V23.06Zm1.8,1.21v.45h.15v-.45ZM79.79,28v.6l.3.3.15-.75-.15-.45Zm.15,2.4v.31h.3v-.31Zm.6-8.12v.15h.31v-.15Zm.16,3.61.3.3v-.6Zm.9-2.56v1.06h.3v-.76Zm.6,32.05V56h.15l.15-.15h.15l-.15-.45Zm.3-31.9v.15l.3.31v-.46Zm0,19.41v.45h.15v-.45ZM83,54.05v.45h.3v-.15Zm.9-23.77v.46H84v-.46Zm.76-3.91V35.7l.3.3h.6c1.1,0,1.65-1.15,1.65-3.46L87,31l.15-2.26C87.16,27.18,86.31,26.37,84.61,26.37Zm1-2.25.6.6h.15l.3-.3-.15-.15v-.15l.15-.61-.15-.15Zm.6-3.46L86.11,22l.15.15h.15l.15-.15h.15l-.15-.75v-.6Zm-.15,20.61v.45h.3v-.45Zm2-1.36v.45h.3v-.45Zm1.5-12.63-.3,1,.15.15H90V28l-.15-.75Zm-.15-1.81v1.05l.3-.3v-.75Zm.45,9.93v.45l.3-.3L90,35.4Zm.3-11.89v2.26h.15q.45-.15.45-.9v-.3l-.3-1.06Z"/><path class="cls-1" d="M98.39,19.9h2.86l.15.61h.3c0-.41.1-.61.3-.61h1l.46.3.45-.3h.15l.45.3.3-.3H105c.2,0,.3.15.3.46l.15.15h.15c.16-.41.31-.61.45-.61h2c.74,0,1.14.2,1.2.61l-.15.45.3,5h.3V22.61h.45l.31,1.36-.15.9.15,2.25-.15.91h-.16q-.3,0-.3-.45h-.15l-.3.3v.45l.3.3h.15l.15-.15h.15l.31.3-.15.15.15,1.81v1.35l.15.75H111v-.75l-.15-.15.15-.45-.3-1.51.15-.6-.15-.6.15-.6-.15-.15v-.15l.15-.15-.15-.76v-1.2l-.15-2.26.15-.75-.15-2.1.3-.3H111l.15.75v1.5l-.15.15.15.9h.15q.3,0,.3-.45l-.15-2.4.45-.15q3.91,1.8,3.91,6.62l-.15.15h.15a.53.53,0,0,1-.6.6q0,.3.45.3l.15.45h-.15l.15.15v.3l-.15.15.3.75-.3,1.06.3,1.35V33q-.39,6.1-1.2,6.77c0,.27-.45.77-1.36,1.51h-.3V38.86l-.3-.3-.3.45v.3l.3,2.26-.15.15h-.3l-.15-.15h-.15l-.45.45-.15-.15v-.6l.15-.76.45.3h.15l.15-.45-.15-.75v-.45l-.45-.15v.3h-.15l.15.15v.6h-.15l-.45-1.2V37.5l-.3-.3-.15.91.15,1.2-.15.15h-.15l.15,1.81v.6c0,.4-.61.6-1.81.6h-1.35l-.15-.15c-.71.13-1.06.28-1.06.45v.75l-.15,1.36a3.62,3.62,0,0,1,.3,1.65v8l-.15.91.15.75v1.05l-.45.45h-.45l-1.2-.15-1.66.15H98.84l-.15-.15h-.15l.15-.75v-.6l-.3-.45V44.42l-.15-.6.15-.15-.15-1.8v-3c0-1.2.13-1.81.3-1.81l-.15-1v-.45l-.15-13.84h.15l-.15-.15v-.9Zm.75,35.51v.3h.15v-.3ZM99.59,22v.45l.31-.3L99.74,22Zm.15,1v1.36l.31.3.15-.15V23.06Zm1.81,1.21v.45h.15v-.45ZM101.7,28v.6l.3.3.15-.75-.15-.45Zm.15,2.4v.31h.3v-.31Zm.6-8.12v.15h.3v-.15Zm.15,3.61.3.3v-.6Zm.91-2.56v1.06h.3v-.76Zm.6,32.05V56h.15l.15-.15h.15l-.15-.45Zm.3-31.9v.15l.3.31v-.46Zm0,19.41v.45h.15v-.45Zm.45,11.13v.45h.3v-.15Zm.9-23.77v.46h.15v-.46Zm.75-3.91V35.7l.31.3h.6c1.1,0,1.65-1.15,1.65-3.46l-.15-1.5.15-2.26C109.07,27.18,108.22,26.37,106.51,26.37Zm1.06-2.25.6.6h.15l.3-.3-.15-.15v-.15l.15-.61-.15-.15Zm.6-3.46L108,22l.15.15h.15l.15-.15h.15l-.15-.75v-.6ZM108,41.27v.45h.3v-.45Zm2-1.36v.45h.31v-.45Zm1.51-12.63-.3,1,.15.15h.6V28l-.15-.75Zm-.15-1.81v1.05l.3-.3v-.75Zm.45,9.93v.45l.3-.3-.15-.15Zm.3-11.89v2.26h.15q.45-.15.45-.9v-.3l-.3-1.06Z"/><path class="cls-2" d="M119.55,19.22h.15q2.25,0,2.25.3l1.21-.3h3.76q1.8,11,1.8,13.23l.15.15v.16H129c.08-.61.18-.91.3-.91l-.15-.15v-.15q1.72-12.33,2.26-12.33h7.07v.15q-2.25,9.93-3.31,12.93-.6,0-.6.3l.45.76-2.26,10.08V48.1l-.15,1.35.15,1.51V55c0,1.3-.15,2-.45,2h-6.77l-.45-.46v-2.4l.15-1.21-.15-1.65V46a1.71,1.71,0,0,1,.45-1.05l-2.25-9.33.15-.45-.75-2.1.15-1.06v-.75a.8.8,0,0,0-.76-.9l-1-4.21.15-.15v-.15Q120.95,25.84,119.55,19.22Zm2.7,3.76v.3h.15V23Zm.91,0v.3h.3V23Zm.45,7.52v1.35l.3.3.15-.15v-.75l-.15-.15V31h.15l-.15-.45Zm.3,4.81v.15h.3v-.15Zm1.2-3.91-.45-.15-.15.15.15,1.05h1l.3-.3v-.3l-.15-.75h-.15Zm-.3,3.91-.3,1.06.45.15v.15l-.15.15.15.45h.15V35.76l-.15-.15v-.15l.15-.15Zm.15,5.27v.6h.15l.3-.3-.3-.3Zm1.66-9.18-.15.45.15.45h.45v-.15l-.15-.75Zm0,21.21v.6h.15l.15-.15h.15l-.15-.45Zm.3-16.24v1.2h.3v-1.2Zm0,2.85v.61h.3v-.61Zm.6,13.39v.45l.3.3h.3v-.45l-.3-.3Zm.3-21.21-.15.15v.15l.3.3.15-.15V31.7Zm.75,21.36v.15l.3.3H129v-.45Zm1.21-21.06V32h.3v-.3Zm.15.6v.3h.15v-.3Zm0,2.71v1.51h.3l.15-.76v-.45l-.3-.3Zm0,2.26v.9h.3v-.9Zm1.8-5v.3h.3v-.3Zm.75.15.15.46h.31l.15-.46-.15-.15h-.16l-.15.15Zm.3,2.71v.45h.16v-.45Z"/><path class="cls-3" d="M.9,67h.6l.91.15L3.16,67l.15.15v1.66l.15,1.8h.15l.15-.45-.3-3L3.61,67H8l1.36.15L10.38,67a8.87,8.87,0,0,1,5.72,2.11,6.89,6.89,0,0,1,1.8,3.76l.15.15v.45H17.6v.9h.3v-.75q.45.09.45,1.2v2.11l.15.75h-.15l.15.45a7.57,7.57,0,0,1-1.05,4.21l-.15-.45.15-1-.15-.15H17v1.65c0,.59-.4,1-1.2,1.36l-.31-.3h-.15q0,.75-.6.75v.45q.45,0,.75.6l.16-.15H16c1.8,1.16,2.7,2.52,2.7,4.06l.46,2.71-.16.15.16.75v2c0,5-.81,8-2.41,9a1.71,1.71,0,0,0-1,.45h-.31l-.15-.6H15c0,.8-1,1.2-3,1.2h-.9l-.45-.3-.6.3-.45-.3-.9.3L8,104.56l-1.65.15L5,104.56l-1.5.15h-1L.6,104.56l-.15.15-.3-.45V93.58L0,91.47l.15-.15v-.15L0,89.36a4.56,4.56,0,0,1,.45-2.55L.3,86.66l-.15-.45H0l.45-5-.3-1.8v-.3H.3L.15,77.33v-5L0,71,.15,70,0,68.45l.15-1L0,67.25l.15-.15H.3l.15.15H.6ZM.45,71.16v.3h.3v-.3Zm.3,26v.45h.3v-.45ZM.9,78.83v1.06h.3l-.15-1.06ZM1.65,74v.6H2v-.3Zm0,.9v.15l.31.3v-.45Zm.31,6v.3h.15v-.3Zm.6-7.07v.45l.3-.3v-.15Zm.15,1.2v.61H3v-.31Zm1.2,5.72v1h.3v-1Zm.3-13.24V68l.3-.3v-.15Zm.3,8.58v.15h.3v-.15ZM5,84.55v.15l.31.3v-.45Zm.46-9.48v.3h.15v-.3Zm.15,2.86v.45h.3v-.15Zm1.2,6.17v1.2l.3.3V84.4Zm.45,7.82v.45h.3v-.45Zm.15-16.4v.31h.3v-.31Zm.15,5.87.3.3v-.3ZM8,88.91,8.12,90l.15,8.27.46.3q0-.36,1.35-.45l.45,1.35-.15.46h.3V98.54l-.15-.6a12.14,12.14,0,0,0,.3-3.46v-1l.15-.61-.15-.6v-.3l.15-.15-.15-.15v-.45l.3-1C10.7,88.41,10,87.56,9,87.56v-.15c-.61,0-.91.5-.91,1.5Zm.45-15.64-.15.15v8.12l.3.3h.31L9,81.69h.15l.45.45h.15l.9-1.2.15-1.65v-3c0-1.91-.6-2.86-1.8-2.86Zm1.06,30.39v.45h.15v-.45Zm.9-1.81.3.3v-.6Zm.3-15.49v1.2l.3.3.15-.45L11,87.26v-.15l.15-.6L11,86.06Zm.45-12.79V74h.15v-.45Zm.15,2.56V82l.3.3.15-1.5V79l.3-.3.46.46v-.91h-.15v.3h-.46l-.3-2.1v-.3Zm.15,6.62v.9h.3V83.5l-.15-.75Zm0,19v.3h.15v-.3ZM12,72.82v2.86c.23,0,.38-.36.46-1.06l-.15-1.2.15-.45-.15-.15Zm0,26.47v.61h.31v-.31Zm.31-16.39v.6h.15l.3-.3Zm.45-14.75v.15h.3v-.15Zm.15,1.06v.3h.3v-.3Zm0,.6v1h.3v-1Zm0,2v.46l.3.3v-.46ZM13.09,74v2.11h.3v-.61l-.15-.9.15-.45L13.24,74Zm0,2.41v.3h.3v-.3Zm.3,7.07v.3h.3v-.3Zm.75-4.82v.46h.3v-.46Zm.6-9.92v.3H15v-.3ZM15,101.4l-.15.45.15.45.45-.6ZM15.19,80v1.35l.3.3.16-.9L15.49,80Zm.46-7.22V73H16v-.15ZM16,101.4l-.3.45.45.45q.9-.15.9-.45v-.45h-.15l-.75.15Zm.75-2.56V99l.15,2,.3-.3V99.14l-.3-.3Zm.15-1.5v.3h.3v-.3Zm.15-18v1h.3v-1Zm.75-2.11v.45l.3.3.15-.15-.15-.6Zm0,18.35V96l.3-.3-.15-.15Zm0,1.21V97h.3v-.3Zm0,2,.3.3v-.6Z"/><path class="cls-1" d="M23.37,65.14h2.11l.6.16.6-.16.3.46v1.65l-.45.45-.6-.6v.3h-.15l.15,1.51v2.25h.15l.45-.45v-1.2l-.3-.45V68.3l.3-.3L27,69.21v2.55l.45.15.15-1-.15-.45.3-.9h.15l.3.9v.15h-.3v.6l.45.15.15-1.2L28.33,70v-.15l.15-1.21-.15-2.25.3-.9.61.3c0-.4.1-.61.3-.61h1.2v.31h.15l-.15.15v.9l.3,2.86-.15,1L31,72.67V85.45l-.3,1.21v.15q0,.75.3.75l-.15.15L31,88.76v.3l-.15,3.61L31,93.88l-.15.75.15.9-.15.6L31,98.54v3.91l-.45.45H30c-1,0-1.51-.1-1.51-.3l-.9.3-1.2-.15-.15.15h-.15l-.15-.15-1.81.15h-.9q-.3,0-.45-1.2l.15-.6-.15-3.16V96.13h.15l.45.31.15-.16v-.15l-.15-1-.15.15h-.45v-.15c0-1.8.2-2.86.6-3.16v-.3a1.71,1.71,0,0,1-.45-1.05V90l.15-1.36-.15-1.5v-.3l.15-1.21L22.92,84V79.14l-.15-2.41.15-.15v-.15l-.15-2.11v-1.8l.15-1.81-.15-.15.15-.15h.15q0,.45.3.45h.15l.15-.9-.15-.6.15-.45-.15-.15h-.3L23.07,70h-.15l-.15-.45.15-.75-.15-1.21.3-1.65-.15-.45Zm-.15,35.51v.45h.15v-.45Zm.15-26.78v.3l.3.3v-.6Zm.45,13.69V88h.3v-.45ZM24,65.9v.45h.3l-.15-.45ZM24,68v.45l.3.31.15-.61L24.27,68Zm.15,25.43-.15.75v1.2c0,.75.15,1.15.45,1.21V93.43Zm0-20.91v1.8h.45l.15-1-.15-.75Zm.15,25.72v.45h.15v-.45Zm0,2.41V102q.3,0,.45-1.2l-.15-.15ZM25,66.5v.15l.15.45L25,68h.3V66.5Zm0,6.77v.15h.15l.31-.3V73h-.16Zm0,22.26v1.36l.3-.3v-.76Zm0,2.26v1.35c0,.2.4.35,1.21.45l.15.15v1.06h.3l-.15-.45.15-.76V99l-.3-.3h-.3V99c-.18,0-.43-.4-.76-1.2Zm.15-26.48v.91h.31v-.16l-.16-.75Zm.76-5.71V67h.15V65.6Zm.9,23.16v.76h.3v-.76Zm.3-15.64v.45l.3.3v-.75Zm.15,6q.11,2.1.45,2.1V79Zm.3,3.46v2.1l.3.3.3-.6a2.8,2.8,0,0,1-.3-1.65l-.15-.15Zm.3,5.71.15.15h.15V88ZM28,98.69V99h.45v-.6h-.15Zm.15-27.23v.45h.15v-.45Zm0,7.37v.46l.3.45v2.1l.3.3v-3l-.3-.31Zm.45,5v.45h.15V83.8Zm0,3.91v.45l.31-.3-.16-.15Zm.31,5.11-.16.46.16.15h.3v-.3Zm.15-26.77-.15.75.15.15h.15v-.9Zm-.15,1.5.3.3v-.6Zm.15,2.26v.45h.15v-.45Zm.3,7.07-.15,1.05v1.36c.4,0,.6-.56.6-1.66l-.3-.75Zm.45,10.53v.3H30v-.3Z"/><path class="cls-2" d="M37.05,68.26l.15.15h.15l.45-.15.15.6h.45q.3,0,.3-.45H39v.75h.15l.45-.3h.15l.3,2.41h.15l.16-.9h.3l.3.6v.15l-.15,1.65.45.61.15-1.06L41.26,71h.9L42,70.82v-.45h.3v-.45l-.45-.46c0,.31-.1.46-.3.46l-.6-.46h-.15l-.15.16h-.15l-.31-1.06-.75.15-.15-.15v-.15h.3v-.15l.15.15h.76l1.05-.15.3,1H42l.3-.9h1.2c.06.4.21.6.46.6l.3-.3.6.6H45V69h.3v.45l.3,1.21v1.2h.45q0-.9.3-.9h1.51l.45-.3q.15,1.35.45,1.35l.45-.15a2.86,2.86,0,0,1,.45,1.51c.2,0,.3-.2.3-.61l.15-.15h.15c.2,0,.3.25.3.76H51l.15-.91L51,72.32v-.15l.15-.15v-.15l-.3-1.8H51c.65,0,1.46,1.6,2.4,4.81v.6l-.6.15v.91h.3v-.76h.3l.15.76V78l.15.15-.15.15v.15c-.15,4-.51,6-1.05,6h-.15v-.9h-.15q0,2.1-1.05,2.1l-1.51.6v.15q3.91,1.74,3.91,5l-.3,1.5.15.45-.9.15.15.15c.6,0,.9.91.9,2.71v4.37l.15.6-.15.6v2.1l.15.91c-.12.5-.28.75-.45.75l-.3-.3q0,.45-.3.45l-.15-.15-.75.3-.6-.15-.61.15-.15-.15v-1.2h-.15l-.15.15H50l.15.75v.15l-.15.15V106l-.45-.15-1.05.15v-.15l-.15.15H47q-.9,0-.9-1l.15-.75-.15-1.36v-.6l.3-.3h.45l.46.3.15-.15v-.45c0-.2-.36-.3-1.06-.3a8.31,8.31,0,0,1-.3-2.71V92.33l.15-.15c-.2-2.11-.7-3.16-1.5-3.16v-.15l-.15.15h-.91v12.19q0,.3-.6.3v.3a1.66,1.66,0,0,1,.6,1.35l-.15.75.15.91v.75l-.45.45h-.6l-.75-.15L41,106H40.2l-.6-.45h-.3v.3H39v-.3q0-.3.45-.3l.15-.15V105l-.15-.15-.15.15h-.9v.75l-.3.3-.15-.15-.75.15H36q-.3,0-.45-1.5l.15-.46-.15-.6.3-1.8-.3-2.26q.09-1.65.3-1.65l-.3-3h.15l-.15-.15v-.15l.15-.15-.15-.15V92.33l.15-.15L35.54,92V89.77l-.15-1.5a14.12,14.12,0,0,1,.9-5l-.15-.15V83h.45c0,.3.1.46.31.46l.15-.76.75.15L38,82.7v-.3l-.3-.3-.45.15v-.6q0-.3.45-.3V80.9c-.43,0-.68-.5-.75-1.51l-.16-.15h-.15l-.15.15.15.15v.15a1.58,1.58,0,0,0-.3,1.06h-.6l-.15-5.12.15-.45-.15-.9V69.46l.15-.75.6.45C36.54,68.56,36.79,68.26,37.05,68.26ZM35.69,81.5H36l.3.3V82h-.6Zm.15,10.23V92l.3.75.45-.3-.3-.75Zm.3,2.41-.15.6.15.15h.15v-.75Zm0-24.68v.61h.15v-.61Zm0,23.77v.45h.45v-.3Zm.15,3.46.15.76h-.3v.45h.45V96.69Zm0-21.81v.45h.15v-.45Zm.15,26.63v.3h.15v-.3Zm.15.9.31.3h.45v-.3ZM36.9,89v.6h.15l.6-.15.6.3v-.3l-.15-.75h-.6Zm0,3v.15h.6V92l-.3-.3Zm.3-23.17h.3v-.3Zm0,1.81v2h.3V71Zm0,4.06v.15l.15.6-.15.6v.15l.3.31.15-.16h.15l-.3-.9.15-.6-.15-.15Zm.3,3.91v.75h.15v-.75Zm0,5,.15.15H38V83.3H37.8Zm0,21.36v.15l.3.3H38V105ZM38,71l.3.45v2.71l.15,1.65-.15.76.15.15h.15v-.31h.15l-.15-.15v-.3l.15-1.35-.15-1.5v-.46l.15-.9-.3-1h-.15Zm.15,19.41v.45l.3-.3v-.15Zm0,.9v.9h.15v-.9Zm.3-9.78.15.15h.15V81.2Zm.15,2.41v.15h.3v-.15Zm.3,2.55v.46l.3-.31v-.15Zm.3-15-.15.15v.6c0,.8.25,1.21.75,1.21v.45l-.6.15v.45h.3v.15l-.3.45.45.45.3-.3h.15v.9c0,.2.31.3.91.3l.45.46.45-.3H42q.15,1.5.45,1.5h.15v-.9l.15-.15-.45-1.81.15-.9v-.75h-.3v.15L42,75.18h.15l-.3.45.15.15v.45h-.3c-.24,0-.4-.2-.45-.6H41v.3h-.15l-.15-.75H41v.3h.45q0-.6.3-.6a2.41,2.41,0,0,0-.9-1.35l-.76-2a1.09,1.09,0,0,1-.3.9l-.45-.15.15-.15v-.45ZM39,90.83v.45h.15v-.45Zm.15,2.7v.91h.15l.3-.3v-.3l-.3-.31Zm.15-17.3v.31h.15l.15-.16h.15l-.15-.45Zm.3,25-.3.45.15.15h.45v-.3Zm-.3,1.35.15.45h.15l.3-.3v-.3h-.3l-.15.15Zm0,1.2v.76h.3l.3-.3v-.76h-.3Zm1.06-22.71v.45c0,.5-.11.75-.31.75l-.45-.15-.15.15v1l.3.31c0-.41.1-.61.3-.61s.31.2.31.61l.15.15h.3l.3-.3-.3-.61L41,82.4q-.15-1.35-.45-1.35Zm-.76-6.62h.45V75H39.9l-.3-.3Zm0,15.79.3.31.15-.15v-.46H39.9Zm.15-3.61v.46h.15v-.46Zm.45,15,.31.3h.15l.3-.3-.3-.3h-.15Zm.61-12.94.15.45-.45.9.3,1.06h.3l.15-.75.15.15H42v-.61l-.15-.15v-.15a.4.4,0,0,0-.45.45l-.3-.3v-1Zm-.15-4.21v.3h.15v-.3Zm.15-16L41,69h.15v-.45ZM41,92.48v.3h.15v-.3Zm.3-9.18v.16l.3.3V83.3Zm.15-.9v.45h.15V82.4Zm0,18.81v.45h.3v-.45ZM42,71.72v.15h.3v-.45Zm1.05-3.16V69h.15l.15-.45ZM43.51,75v.9h-.3v.76l-.15.15V77l.15.15h.15l.15-.15.15,1.8h-.15l.15.15v.3l-.15.15.15.15v2q0,1.05-.3,1l.15.45h1.66a1.27,1.27,0,0,0,.75-1h.3l-.15.45c.07,1.51.22,2.26.45,2.26l.45-.45a9.4,9.4,0,0,1-.45-2.71l.15-.15h1.21q0,.45.3.45h.15v-.45l-.15-1H48q0,.6-.3.6t-.45-.75l.15-.46L47.12,78h-.3l-.15,1.35h-.15l-.15-.15h-.15l.15-.75v-.75q0-.75-.3-.75l.15-.15c-.23-1.41-.93-2.11-2.1-2.11h-.3Zm-.15,8.12-.15,1.36h.45v-.6l-.15-.76Zm.46-10.68v.15l.3.3h.15v-.45Zm.9-2.7-.15.6.15.15-.15.15H45l-.15-.15.15-.15v-.3Zm-.15,18.5v.3h.3ZM45,83.46v.3l.15.75h.45l.15-.6-.3-.76h-.15Zm.45,3.61v1.65h.3V87.37Zm.9-1.21v.6l.3.3v-.9ZM46.52,92v.6l.3.3H47l.15-.45L47,91.73h-.15Zm.15,3.46.15.75-.3.3.3,1.06.15-.15h.15L47,96.39v-.9ZM47,82l.15,1.51H47c.13.7.28,1.05.46,1.05h.15v-.75l-.15-.91.15-.75L47.43,82Zm.31,6.62.3.3v-.6Zm.15-3.31v.45h.15v-.45Zm0,6.92v.45l.3.3h.15l.3-.3L48,92.18Zm.15-2.71h.3v-.3Zm.15,4.82v.3l-.15.75.15.9v.6H48l.15-2.4L48,94.29ZM48,68.71h.3q.3,0,.3.45l-.15.76h-.3l-.3-.3Zm-.15,6.92v.3H48v-.3Zm0,2.41v1.5l.3.3.15-.75v-.75L48,78ZM48,82.1v.6h.3v-.6Zm1,.15q0,1.05-.3,1H48l.15.76-.15.15.3.3.15-.15h.3q.34,0,.45,1h.15q0-1.2.45-1.2t.3.45h.3q0-1.05-.75-1c-.28,0-.44-.46-.45-1.36Zm-1,3v.3h.45l.15-.45L48.48,85h-.15Zm.75,7.37.3.3v-.3Zm.45-23.77c.9.46,1.35.81,1.35,1.06l-.15.15h-.15c-.9-.18-1.35-.53-1.35-1.06l.15-.15Zm-.3,9.63.3.3.15-.15v-.15Zm.15.9v.3h.15v-.3Zm0,25.58v.3l.75-.15V105l-.3-.3h-.15Zm.75-27.23-.3.75.15.75H50l.45-.45Q50.22,77.74,49.83,77.74Zm-.15-4.06V74h.15v-.3ZM49.83,77v.3H50V77Zm.45-6h.15v.3l-.3.3L50,71.42v-.15Zm.46,7.82a.67.67,0,0,1-.76.75l.3.3v-.15c.51,0,.76.31.76.91h.3v-.91q0-.76-.45-.9Zm-.61,2v1h.15v-1Zm0,1.35v1.05h.15V82.1Zm.15,5.27.15,1.5.31-.3v-.3l-.16-.15.16-.15v-.3l-.31-.3Zm.15,1.8-.15,1.36.15.15h.15l.16-.15V89.47Zm-.15,3.46v.15l.3.3h.16v-.45Zm.91,11.28v.46h.15v-.46Zm.3-11.13v.15h.3v-.15Zm.3-20.31v.3h.3v-.3Zm.15,7.07v.76l-.15.15.15.15v.9l-.15.9.45,1.06h.15l.15-1.21-.15-.45.15-1.2-.15-1.06Zm0-2.7v.45l.3-.3v-.15Zm.3,19.85.15.15h.15l.15-.15v-.3h-.15Zm.15-3.91v.3h.3v-.3Zm0,2.56v.15h.15l.3-.3V95h-.15Zm.15-1v.45H53v-.45Zm.3-14.9V80H53v-.61Zm0,.76v.3H53v-.3Z"/><path class="cls-3" d="M57.58,70.15h.15l.3.3v.3h-.45Zm0,.75h.3v.31H58l-.15.75h-.3Zm0,1.36H58a.66.66,0,0,0,.75.75l.15.75v.3l-1,.15-.3-.45Zm.9-5.42.3.3V68.5h.15l.45-.45.6.3c0-1,.1-1.51.31-1.51s.33.45.45,1.36h.15c0-.91.1-1.36.3-1.36h.3l.15.75h.45v-.75h.45v.6c.23,1.21.48,1.81.75,1.81-.25.64-.5,1-.75,1l-.3-.3v-.75h-.3v1.2a1.14,1.14,0,0,1-.45.91c-.4-.1-.6-.31-.6-.61L61,70.3l-.15-.15h-.15l-.15,1.51-.45-.45.15-.16-.15-.45h-.31v.15l.15.46-.15.9.31.3.6-.15v.15l-.15.9.15.6h-.3l-.3-.75.15-.6h-.46v1.5h-.45V72h-.45v.45h-.3l-.3-1,.15-.46h.15c.2,0,.3.26.3.76h.45l.3-1.06-.6-.45h-.45q0,.45-.3.45h-.15v-.15l.45-.6c-.21,0-.42-.4-.6-1.2l.15-.6H58C58.13,67.24,58.28,66.84,58.48,66.84Zm.9.15h.15v.6h-.15Zm2.26,6.17.3.45v.15l-.3.3h-.3l-.15-.6Zm4.66-6.47.15.15-.15.45L66.6,69h.46l.15-.75-.31-1.36.16-.15h.6l.6.15,1-.15h5.87l.15.75v6l-.15.75a17.16,17.16,0,0,1-3.61-.3l-.6.15-.15-.15c-.3.35-.46,1.35-.46,3h.16a.4.4,0,0,1-.46.45v.45h.3v.31l.16.9-.61,1.2h-.3q-.15-1.2-.45-1.2H69v.3h-.15l.15.15v1.35l-.3.3q0-.45-.3-.45t-.45.75h-.15l-.3-1.05v-.75h-.3c-.18,0-.33.35-.46,1.05a.4.4,0,0,0-.45.45h-.15l-.9-1-.3,1H64.8l-.15-.45.15-.15v-.45l-.3-.45v-1.2h-.45v1h-.76v.75l.76.3v.15c-.3,0-.56.2-.76.6v2.26c.06.6.21.9.46.9q0-.75.3-.75l-.15-.75v-.6h.15l.3.3v.75h.3l.15-1.2H65q.26,0,.6.9h.15l.15-1.35h.45l-.15.15V82l.3.3h.15l-.15-1.06h.61l-.16.15v.16c.19,0,.34.45.46,1.35l-.15.15v.15l.15,2.41v.75h.15l.3-.3V86l-.15-1.51.15-.9h.3l.15,1v.46h.3v-.76l.45-.45.3.75h.15l.3-1h.3c.18.7.33,1,.46,1l-.31,1.21.31,2.4-.16.15.16,1.81v4.51L70.36,96l.16,1.5V104l-.46.45H62.69l-.45-.3.15-.15-.15-1.81V88.81l.15-1.66-.15-.75.15-.15V86.1l-.15-.45a5.16,5.16,0,0,0,.6-2.71,6.09,6.09,0,0,1-.6-2.11l.15-.45.15-6h.3l.15.46-.15.15v.15l.45,1-.15.45h.3v-.45l.16-.75h.3l.15.9h.3l.15-.75v-.15q0-.3-.9-.3v-.3h-.16l.31-.46-.61-1h.3v-.15l.16.15h.3l.6-.15.9.45,1-.75.61.15v-.45l-.31-.3-.45.3-.6-.3-.15.15H65.4L65,72.26l-.3.3H64.5l-.15-.6.15-.15h-.3V70.9q-.27-1.35-.6-1.35l.3-.6c-.61,0-.91-.7-.91-2.11h.3l.31.3v.76h.3l.15-.91h.3l.3.91h.45v-.61h.15c.2,0,.3.51.3,1.51l.3-.3-.15-1.06q.3,0,.3-.6l.15-.15Zm-3.61,5.57.3.3v.15l-.15.15L63,73v.45l-.15.75h-.15l-.45-.45.3-.9-.15-.45.15-.15Zm.6,6v.45h.46v-.15l-.31-.3Zm.31,6.46v.46h.15v-.46Zm.15,3.46v1.21h.3V88.2Zm.15,5.72v.3h.3v-.3Zm1.2-19.71.15.46h.15v-.46Zm.15.76-.15.45.15.45h.15q0-.6.3-.6l.45.3v-.15Q66.15,75.16,65.25,75Zm.3,12v.6h.3v-.3Zm.9-2.11V86.4h.3v-.75l-.15-.76Zm.15-10.68v.46h.3v.15l-.3.45a2.26,2.26,0,0,1,.3,1.35h.16l.15-1.05-.15-1.51ZM66.75,81h.46v.15h-.46Zm.76,7.22v.46h.3V88.2ZM67.66,75v.45l.45.45.3-.3v-.45Zm.15,7.37H68l.3.3-.15.75h-.3l.15-.15-.15-.15Zm.3-5.12v.6h.15v-.6Zm0,.75v.76l.3-.3v-.15Zm.6-2.55h.45v-.3H69Zm0,7.07h.15v.3h-.15Zm0,11.43v.9l.45.45.15-.45Q69.12,93.92,68.71,93.92Zm.6-9.18-.15.46.15.15h.15l.15-.15-.15-.46ZM69.46,87l-.15.15v.15l.3.3h.15v-.3Zm.45-5.87h.15l.46.46-.46,1.8h-.3q0-.6-.3-.6C69.56,81.69,69.71,81.13,69.91,81.13Zm-.3-8.57V73h.15v-.45Zm1.21.3v.3H71v-.3Z"/><path class="cls-1" d="M79.27,68.07h3l.15,1.5.45-.15V68.07h.3l.3.3.6-.3a1.51,1.51,0,0,1,.31,1.05q.26,0,.45-1.05h.3l.15.75h.15l.6-.75.6.3.3-.3h.3l.15.75v8l-.15,1.06.15.15h-.15l.15.15V80.1q0,.23-.6.45c0,.48.35.88,1.06,1.21l.45-.3.6.3.6-.15q.15,1.2.45,1.2V81.16L89.8,81l.15-.16V80.7l-.15-1.5.15-.9-.15-.91L90,75.14l-.15-5.57v-1l.3-.3q.2.9.6.9c0-.7.15-1.05.46-1.05l.3.9-.15.6.15,1.51-.15,1.5h-.15l-.31-.3V70.47l-.15-.15.15-.15V70l-.3-.3-.15,1.36.15.6L90.4,73v2.41h.45v-2l.15-.75h.16l.3.3v1.21l.15,1.2-.15.75.3,2.41.3-.3-.15-.91q0-1,.3-1l.45.15.15-.15v-.15l-.3-.45-.15.15h-.15l-.3-.3V73.18l.3-.3h.15v1.36h.3v-.15l-.15-1.81-.45.3h-.15l-.15-.75.15-.15v-.15l-.15-3,.15-.45h5q.15,1.5.45,1.5l.15-1.5h.15l.3.3v3.91l-.15.15.15.15v3.31h-.3l-.15-.15h-.15v1.35l.15-.15h.45l-.15.91.15.45-.15.15.15.75v2.56l-.3.45v1.05q0,.75.3.75v.3h-.15l.15,8.28v8.27l-.3.3-.45-.15-.15.15v.3l.45.15.15-.15.3.46v3.46l-.45.45H94.31c-.2,0-.3-.25-.3-.76h-.3a.67.67,0,0,1-.75.76h-1.5l-.91-.15-.45.15-.3-.45V103q0-.75.3-.75l.6.3.3-.3h1.06v-.15l-.75-1.51-.15.75-.16-.15h-.3l-.75.15a3.62,3.62,0,0,1-.3-1.65V95.75l.3-.3.3.3.3-.45-.3-.91-.15.15H90l.15.15v.16l-.3.3-.15-1.51.6-.9v-.15l-.6-.3.15-.75V90q-.58,0-.75-1H88.9q0,.9-.3.9t-.3-.75H88c0,.5-.3.75-.91.75v1.81l.15.6-.15.15.3,3.31-.15.9.15.75-.15,1.51v.6l-.15.15.15.15v2.11h-.45V99.81l-.3-.3-.15.15h-.15l.15.15v1.65h.3v.46h-.3v.3h.3v.15l.15-.15h.45l.15,1.8-.15.15v.15l-.15-.15h-.3v1.21l-.45.45-.6-.6-.3.6-.75-.15-.45.15-.46-.15-.15.15h-.15l-.6-.3.15-.76v-2.4h-.3v3.31l-.75.15H79.72l-.45-.45v-1.21l-.15-3.76.15-1.35.45-.15.15.15v-.45c-.5,0-.75-.3-.75-.91v-.15l.3-1.35-.3-.6q.1-.75.75-.75V93.64l-.6-.15V92.14q.6,0,.6-.45l-.3-1.21-.3-14.59V70.78l-.15-.61.15-.15v-.15l-.15-1.35Zm1.2,2.86v.3h.46v-.6h-.16Zm1.21-1.21V70h-.15l.15,1.06L81.83,81l.15.15h.15V81L82,69.87l-.15-.15Zm1.8,1.36v.15l.3.3v-.45Zm1.06.75v.6l.3-.3v-.3Zm0,2.26v1.5h.3v-1.2Zm0,28.43v2.71H85v-.91l-.15-1.5.15-.15-.15-.15Zm.75-33.25v.45h.3v-.15Zm.3,4.36V75h.3V73.93ZM86,90v2l.3.3.15-.15-.15-1.06V89.73Zm.3,4.36v.46h.15v-.46Zm.45-17v.46l.3-.3-.15-.16Zm.15,8.13v.6l.3-.3Zm.91.15V86H88v-.3Zm.9-3.16v.3l.3.3v-.9ZM90,91.69V92h.3v-.3Zm.15,4.51v.3h.3v-.3Zm0,1,.15.15h.15V97Zm.6-14.59v.45h.15v-.45Zm1.06-3.76-.15.15v.45h.45v-.3Zm.6,23.17.3.3v-.3Zm.9-2.71v.15l-.15,1.95.3.31.45-.16v-1.35q0-.78-.45-.9Zm1,1.5v.6h.46v-.6Zm.91-28.58-.3.45.15.15h.45v-.3Zm.15,3.91v.45h.3v-.45ZM95.52,78v.9l.3-.3V78Zm0,2.1v3.61l.3.3V80.1Zm0,4.52.3.3v-.61Zm0,16.24V101c.5,0,.75.35.75,1.06.23,0,.38-.25.45-.76l-.3-.75Zm.75,1.81v.9h.45v-.15l-.15-.75Zm.9-30.24v.3H97l.15.45h.3v-.75Zm.15,5v.46h.3V77.7Z"/><path class="cls-2" d="M102.6,65.83h2.85l.16.15.15-.15h.75l.15.15.15-.15h3.46l.3.3.9-.3h.15l.75.15v1.51l.31-.3V66h.45l.3.3.45-.3c2.21.25,3.31.7,3.31,1.36l.15,1.35v1l.3.3v-2.7h.15q.3,0,.3.75l.45.15.3-.3a1.71,1.71,0,0,1,.45,1v2.56h.16l.15-.15h.15l-.15-.15V70.8l.15-.15-.15-.15V69.14c.33,0,.63.75.9,2.26q.3,0,.3.9H121l-.15.75v.15l.3,1.36L121,78.32l-.3.3v.15l.45.9-.15.75.15.16-.15.75v.9l.15,1.2-.15.45.15,4.67v3.61l-.15.6.15.6-.15.15v.15l.15.6H121l.15.16V95q-.54,6.92-2.26,6.92,0,.6-2.4,1.35l-.15-.15h-.15l-.76.3-.15-.15h-.15l-.75.3-.15-.15v-.15l-.15.15h-.45l-.3-.3v-1.5l-.3-.3v1.8l-.45.45-.16-.15-1.05.15H111a1.71,1.71,0,0,1-1-.45l-.3.45-.45-.3-.15.15h-.61l-.15-.6H108q0,.75-.45.75h-.3a1.71,1.71,0,0,1-1.05-.45l-.45.45H104.4l-.9-.15-.75.15h-.15l-.45-.45V101l.3-.9-.3-1.2.45-2.86-.3-1.2.3-.3-.3-.46.15-.15v-.75l-.15-.15.15-.15v-.6l-.15-1,.15-.61L102.3,86V83.58h.45V84h.3l.3-.91V83l-.3-.45.3-.45q-.3,0-.45-1l.15-1.51-.45-.15-.15.15v-.9l.3-.45V75.76h-.45v-.3l.15-2-.15-.75.15-.6-.15-2.41V66.13Zm.45,22,.15,1h.15V87.5Zm.15-13.39v1l.15,1.05.15-.15h.15l-.3-1.35.15-.6Zm0,4.06v.15l.15.15v.15l.45-.15v-.6h-.3Zm0,1.2v.45a1.42,1.42,0,0,1,.45.91h.15L104,80v-.45l-.3-.3Zm0,13.54v2.11h.15l.15-.6-.15-1.51Zm.15,3.31v.3h.15v-.3Zm.3-15-.15.15v.15l.15.15h.15l.15-.15v-.15l-.15-.15Zm0,.75-.15.15v.15l.3.3.15-.15v-.15Zm-.15,19.41v.3h.15v-.3Zm.15-18.51v.3h.15v-.3Zm.45,11.29v.45l.3.3v-.75Zm.3-15.35v.45l.15,1.36-.3.75.3,1.5h.15l.15-1.35h-.15L105,81l-.3-.3.15-.46-.15-1.5Zm-.15,18.35v1.66l.3-.3V97.72Zm0,2.56v.45l.3-.3-.15-.15Zm0,1.36v.75h.3v-.45Zm.3-17.91v.3l.3.31v-.31Zm.15.91v.3h.15v-.3ZM105.15,72l-.15.6.3,1.36-.15.9v.45h.3v-1.2l-.15-.91.15-.75V72Zm0,24.37v1.2h.3v-1.2Zm.3-17.6-.15.15v.9l.31.3.3-1.05Zm0,2.41v.75l.31-.3v-.15Zm0,1.65v1.51h.31V83.13Zm.31-14.89v.3h.3v-.3Zm.15,24.52v.3h.3v-.3Zm.15,3.91v.45h.3v-.15Zm0,1.2v1.06h.3V97.57Zm0,2.56.15.45h.15v-.3h.15l-.15-.45ZM106.21,74v.3h.15V74Zm.15,6.77V81h.3v-.3Zm0,.75v1.2l.3.3v-1.5Zm0,2.71.15.45h.15v-.91C106.46,83.73,106.36,83.88,106.36,84.19Zm.45,15.79v.15l.15.75h.15l.3-.3V100l-.3-.3ZM107,72.45v.6l.3-.3Zm0,.9V74h.3v-.3Zm.3,5.57v1.5l.3.31V79.22Zm.15,3v.45l.3-.3-.15-.15Zm.3,9.48V92l.15.75.3-.3v-.3l-.3-.75Zm.15-20.16.3.3v-.3Zm.15,5.26v.91h.3v-.91Zm0,24.22v.3l.3.31.15-.16V101l-.3-.3Zm.15-21.21v.9l.15.76h.15l.15-1.21-.15-.45Zm.15,1.81v.45h.3v-.15Zm0,1.65v.15l.3.3v-.75Zm.3,4.67V89l.3-.3v-1ZM108.76,70v.16l.31.3v-.76Zm0,23.47v.91l.31.3v-.91Zm.15-21.06v.45h.16v-.45Zm0,23.17v1.8l.31-.3v-1.5Zm0,2.56v.6h.31v-.3ZM109.07,77v1.51l.3.3V77Zm0,24.38v.45h.15v-.45Zm.15-22.27v.3h.15v-.3Zm.3,8.12.3.31v-.61Zm2-19.55.15,1v.6l-.15.15.15.15V72.3h-.15l-.6-.15a1.48,1.48,0,0,0-.9.75v1.66l.3,1.2-.3.45.45,10.23-.15.9.15,4.07v2.1l-.3.3-.15-.75V91.71h-.3v4.81q0,.3.75.3l.45.45C112.27,97,113,96,113,94.11v-.3l-.15-1.35.15-2.71V88.1l.15-1.36-.3-1.2.6-1.2-.3-.46.3-.3v-2h-.15v.45h-.45v-.6c0-.7.15-1.06.45-1.06V78a8.27,8.27,0,0,0-.3-2.71l.15-.15V75a4,4,0,0,0-1.21-2.86V69l-.15-1h.15l-.15-.45-.15.15Zm-1.8.6V71l.3.3h.15V68.54l-.3-.3Zm.45,25.87h.15l.15.46h-.3Zm0,.91h.15v.3h-.15Zm.45-26.18v.6l.3-.3Zm.3.9v.46H111v-.46Zm1.2,31.75-.15,1.65h.3v-1.65Zm.3-33.7V70h.46V69C112.83,68.25,112.68,67.85,112.37,67.79Zm.61,32v.3h.15v-.3Zm.45-33.25v.31h.15v-.31Zm0,1.06v1.2l.3.3v-.75l-.15-.75Zm.15,3.61v.45l.3.3v-.75Zm.15,24.82v.3h.15v-.3Zm.15,4.51-.15.76v.3l.45.45v-1.21Zm0-24.67v.6c0,1.81.15,2.71.45,2.71V76.81Q114.33,76,113.88,75.91Zm0,23.62v.3h.3v-.3Zm.3-19.41v.46h.15v-.46Zm0,.76v1.5h.3v-1.2Zm.3,11.28v.15l.3.3v-.45Zm.15,2v.61l.3-.3Zm.15-20.45v.45h.15v-.45Zm0,.9v1.35h.45v-.15Q115.23,74.65,114.78,74.56Zm0,1.8v1.81l.3.3h.15V76.36Zm0,24.52V101l.3.31v-.46Zm.3-20.91-.15.76.15.45h.45v-.3C115.53,80.36,115.38,80.06,115.08,80Zm.3-10.83V70h.3v-.9Zm.15,1.51v2.4l.3.3v-2.7Zm0,22.41v.6h.3v-.6Zm.15-18v1H116v-.75Zm0,2.26c.08,1.1.23,1.65.46,1.65V78l-.15-.75Zm.31,2.85v.3h.15v-.3Zm0,.91v1l.3.3v-1Zm.45-12.64v3.76l.15.75h.15l.15-.9-.15-3.61Zm0,24.22v1.5h.15q.36,0,.45-1.35l-.15-.15Zm.15-19.26v.46h.15v-.46Zm.3,5.12-.15.15.15,1v.91h.3V78.77ZM117,83v.9l.3-.3v-.3Zm0,2.41v.3h.3v-.3Zm.45-13.24v.45h.15v-.45Zm0,.9.15,1.51V75h.3l-.15-.75.15-.91Zm.3,4.22v.45h.15v-.45Zm0,.9V80l.3.3v-2.1Zm.15,2.71v1.05h.3l-.15-1.05Zm0,2.55v1.06l.3.3V83.43Zm0,17.45v.3h.15v-.3Zm.45-31.59v.3l.3.3v-.6Zm.15,4.21v1.81l.3.3v-1.8Zm0,19.41v.3h.15v-.3Zm0,3.16v.3h.3v-.3Zm.15-18.95v.15l.3.3v-.45Zm0,1.5.3.3v-.6Zm.15,1.35v1.21l.3-.3V80Zm.15,3.61v.3l.3.46-.15.15v.15l.15.9h.16V83.28h-.16Zm.15,2.86v.75l.31.31V86.44Zm0,1.66v1.05l.15,3h.16v-.3h.15l-.15-1.06.15-1-.15-.45.15-.15V89l-.15-1.2Zm.15,6.77v.6l.31.3h.15v-.6l-.3-.3Zm.31-22.12-.15.15v.3L119.6,75h.3L119.75,74l.15-1.06-.15-.15Zm.3,8.73v.75l.3-.3v-.15Zm0,2.4v.46h.15v-.46Zm0,1.51v.9l.15,2.26h.3l-.15-.6.15-.15v-.15l-.15-.76.15-1.35-.15-.15Zm.15,4.06-.15.45.15.15V91l.45.15V91l-.15-1.51Zm.3,2.86-.15.6.15,1.81h.15l.3-1.21-.15-.15v-.15l.15-.6v-.15Z"/><path class="cls-3" d="M129.51,65.42l1.05.15,8.58-.15,1.35.15v-.15q.78,0,1.06,5.72l1.35,9.78-.15,1q.6,2.57,2.86,21.06l-.45.3h-7.52c-.25,0-.4-.2-.46-.6l-.3-4.21.15-.45c-.07-1-.22-1.51-.45-1.51H134l-.15.76q0,5.52-.75,6H133l-1.2-.3-.45.15-.91-.15h-.9l-1.2.3h-2.86L125,103l1.35-11h-.15l3-26.48h.3Zm1.66,11.89-.15,1,.3.45-.15.76.15.6-.45,2q.3,0,.3.45l-.15.76h.3v.45c-.5,0-.76.35-.76,1L130,85v1.2l.45.15v-1.2l.15.15h.16v-.9h.75v-.9l.15-.15-.15-.15v-.61l.3-.9-.3-1.8v-.46q.6,0,.6-1.5A.8.8,0,0,0,131.17,77.31Zm-1.06,19.56v.45H131v-.45Zm0,1v.45h1.36v.3l-.15.15V99l.15.15h.15q0-.75.45-.75l-.45-.45v-.15l-.15.15Zm.15-6.77v.45l.46-.15V91.3Zm0,1.95v.46H131v-.31Zm0,.91v.3H131V94Zm1.06-9.18-.15.75v.15l.3.3h.15v-.15l-.15-1Zm.15,8.58v.75h.15l.3-.75V93.1h-.15Zm0,1.2v.45h.15v-.45Zm0,4.66V100h.6v-.45Zm0,1.81v.45l.45-.15v-.15Zm0,.75v.3l.3.3v-.3Zm.45-31V73a3.68,3.68,0,0,1-.3,1.65l.15,1.05h.15a1.16,1.16,0,0,1,.45-.9V70.69Zm-.3,21.51.15.45h.15v-.45Zm.75.9v.31h.3v-.31Zm2.86-17.75q-1,11.5-1.51,13.24l.3,1.05h2.56L135.53,75.5Z"/><path class="cls-1" d="M149,65.92h.15c1.5,0,2.26.13,2.26.3l1.2-.3h3.76q1.8,11,1.81,13.24l.15.15v.15h.15q.11-.9.3-.9l-.15-.16v-.15c1.14-8.22,1.9-12.33,2.25-12.33h7.07v.15Q165.67,76,164.61,79q-.6,0-.6.3l.45.75-2.25,10.08V94.8l-.15,1.36.15,1.5v4.06c0,1.31-.15,2-.45,2H155l-.45-.45v-2.41l.15-1.2L154.54,98V92.7a1.75,1.75,0,0,1,.45-1.06l-2.26-9.32.15-.46-.75-2.1.15-1.05V78a.79.79,0,0,0-.75-.9l-1.06-4.21.15-.15v-.15Q150.36,72.54,149,65.92Zm2.71,3.76V70h.15v-.3Zm.9,0V70h.3v-.3ZM153,77.2v1.36l.3.3.15-.15V78l-.15-.15v-.15h.15l-.15-.45Zm.3,4.82v.15h.3V82Zm1.21-3.92-.46-.15-.15.15.15,1.06h1.06l.3-.3v-.3l-.15-.76h-.15ZM154.23,82l-.3,1,.45.15v.15l-.15.15.15.45h.16v-1.5l-.16-.15v-.15l.16-.15Zm.15,5.26v.6h.16l.3-.3-.3-.3ZM156,78.1l-.15.46L156,79h.45v-.15l-.15-.76Zm0,21.22v.6h.15l.15-.15h.15l-.15-.45Zm.3-16.25v1.2h.3v-1.2Zm0,2.86v.6h.3v-.6Zm.6,13.39v.45l.3.3h.3v-.45l-.3-.3Zm.3-21.22-.15.15v.15l.3.31.15-.15V78.4ZM158,99.47v.15l.3.3h.15v-.45Zm1.2-21.07v.31h.3V78.4Zm.15.61v.3h.15V79Zm0,2.7v1.51h.3l.15-.75V82l-.3-.31Zm0,2.26v.9h.3V84Zm1.8-5v.3h.31V79Zm.76.15.15.45h.3l.15-.45-.15-.15h-.15l-.15.15Zm.3,2.7v.46h.15v-.46Z"/><path class="cls-4" d="M183.92,24.09C180.88,13.56,172.3,9,164,11.35S151,22.18,154,32.72c2.84,9.85,11.55,18,19.43,17.09-.34.56-.47.67-.28,1.34.37,1.28,1.17.14,2.45-.23s2.25.12,1.88-1.16c-.19-.67-.32-.56-.9-.85C183.74,45.51,186.76,33.94,183.92,24.09Z"/><path class="cls-5" d="M156.31,26.44c-.9-.17-1.49-.6-.9-3.68s3.12-6.25,4-6.08-1.12,3.44-1.7,6.52S157.2,26.61,156.31,26.44Z"/><path class="cls-5" d="M155.94,27.09c.9.17,1,.81.86,1.63s.34,2-.56,1.79a2,2,0,0,1-1.42-2.17C155,27.52,155.05,26.92,155.94,27.09Z"/><path class="cls-6" d="M183.92,24.09a19.81,19.81,0,0,0-6-9.76A24.77,24.77,0,0,1,182,22.5c3.21,11.11-1.61,22.25-10.75,24.89a14.38,14.38,0,0,1-6.07.41,13.14,13.14,0,0,0,8.22,2c-.34.56-.47.67-.28,1.34.37,1.28,1.17.14,2.45-.23s2.25.12,1.88-1.16c-.19-.67-.32-.56-.9-.85C183.74,45.51,186.76,33.94,183.92,24.09Z"/><path class="cls-7" d="M223.74,30.18c3.78-10.29-.42-19.06-8.49-22s-16.95,1-20.73,11.3c-3.54,9.62-1.35,21.37,5.55,25.27-.6.25-.77.26-1,.92-.46,1.25.86.8,2.11,1.26s1.75,1.43,2.21.18c.24-.66.06-.65-.23-1.23C210.94,47.35,220.21,39.81,223.74,30.18Z"/><path class="cls-5" d="M197.54,22.23c-1-.46-1.53-1.17.21-5s5.82-7.21,6.81-6.76-2.49,4.13-4.24,7.94S198.53,22.68,197.54,22.23Z"/><path class="cls-5" d="M196.89,23c1,.45.9,1.29.43,2.31s-.27,2.61-1.26,2.15a2.6,2.6,0,0,1-.92-3.16C195.6,23.26,195.9,22.51,196.89,23Z"/><path class="cls-6" d="M223.74,30.18a19.85,19.85,0,0,0,1-11.4,24.71,24.71,0,0,1-1.54,9c-4,10.85-14.46,17-23.38,13.71a14.4,14.4,0,0,1-5.15-3.26,13.2,13.2,0,0,0,5.44,6.48c-.6.25-.77.26-1,.92-.46,1.25.86.8,2.11,1.26s1.75,1.43,2.21.18c.24-.66.06-.65-.23-1.23C210.94,47.35,220.21,39.81,223.74,30.18Z"/><path class="cls-8" d="M206.92,17.75c0-11-7-17.75-15.57-17.75s-15.57,6.79-15.57,17.75c0,10.25,6.1,20.53,13.93,21.81-.48.44-.64.51-.64,1.21,0,1.33,1.08.45,2.42.45s2.13.74,2.13-.59c0-.7-.16-.63-.63-1.07C200.81,38.28,206.92,28,206.92,17.75Z"/><path class="cls-5" d="M179.57,19.32c-1.08-.09-1.83-.57-1.51-4.74s3-8.77,4.07-8.69-.92,4.74-1.25,8.91S180.66,19.4,179.57,19.32Z"/><path class="cls-5" d="M179.22,20.23c1.08.09,1.29.91,1.2,2s.65,2.55-.44,2.46A2.59,2.59,0,0,1,178,22.07C178.11,21,178.13,20.15,179.22,20.23Z"/><path class="cls-6" d="M206.92,17.75a19.78,19.78,0,0,0-3-11,24.56,24.56,0,0,1,1.66,9c0,11.56-7.71,20.94-17.22,20.94a14.58,14.58,0,0,1-6-1.29,13.19,13.19,0,0,0,7.35,4.21c-.48.44-.64.51-.64,1.21,0,1.33,1.08.45,2.42.45s2.13.74,2.13-.59c0-.7-.16-.63-.63-1.07C200.81,38.28,206.92,28,206.92,17.75Z"/><path d="M203.19,45.69a16.16,16.16,0,0,1-3-1.12.18.18,0,0,0-.23.08.17.17,0,0,0,.08.22,15.4,15.4,0,0,0,1.75.73c-.29,10-6.63,16-10.83,20.06a36.12,36.12,0,0,0-2.92,3c0-.21.05-.41.06-.61.29-.86.7-1.89,1.19-3.08,2.27-5.6,6.06-14.94,2.68-25.14l1.07-.06a.17.17,0,0,0,.15-.18.18.18,0,0,0-.18-.16,15.86,15.86,0,0,1-3.24,0,.17.17,0,1,0,0,.34,14.6,14.6,0,0,0,1.53.08h.36c3.4,10.12-.38,19.43-2.64,25-.34.84-.65,1.6-.9,2.28-.24-2.89-2.13-5.07-5.1-8.47a100.61,100.61,0,0,1-7.31-9.19c.32-.11.66-.22,1-.36a.16.16,0,0,0,.09-.21.16.16,0,0,0-.21-.1,17,17,0,0,1-3.12.9.17.17,0,0,0-.14.19.18.18,0,0,0,.17.14h0a13.61,13.61,0,0,0,1.83-.46,102.64,102.64,0,0,0,7.4,9.31c3.21,3.68,5.15,5.91,5,9.13a5.33,5.33,0,0,0-.23,1.41,8.1,8.1,0,0,0-.69,2.28c-.37,1-.81,2.06-1.27,3.16-1.37,3.29-2.8,6.7-2.61,9.34A30.35,30.35,0,0,0,184,90.33c-1.64,3.61-.82,6.79,0,9.88a17.78,17.78,0,0,1,.82,5,.17.17,0,0,0,.16.17h0a.17.17,0,0,0,.17-.16,18.44,18.44,0,0,0-.84-5.12c-.75-2.91-1.53-5.91-.16-9.28a40.11,40.11,0,0,0,5.42,11.08.19.19,0,0,0,.14.07.14.14,0,0,0,.09,0,.17.17,0,0,0,0-.23,39.14,39.14,0,0,1-5.48-11.37,11.83,11.83,0,0,1,.75-1.38c1.29-2,1.42-6.31,1.55-10.44a52.55,52.55,0,0,1,.47-6.82c.15-.39.28-.78.4-1.15a30.83,30.83,0,0,0,1,4.67c.73,2.69,1.49,5.47,1,7.74-1.58,7.3,1.29,16,2.84,20.68l0,.1a.17.17,0,0,0,.16.12h0a.18.18,0,0,0,.11-.21l0-.1c-1.53-4.65-4.38-13.29-2.83-20.51.51-2.35-.25-5.17-1-7.9a22.37,22.37,0,0,1-1.06-5.6.83.83,0,0,0,0-.15,2,2,0,0,1,.24-.37,31.92,31.92,0,0,1,3.05-3.13c4.22-4,10.6-10.11,10.93-20.19l1,.3h.05a.17.17,0,0,0,.16-.12A.18.18,0,0,0,203.19,45.69ZM186.33,78.53c-.12,4.08-.25,8.31-1.49,10.28-.23.36-.43.71-.61,1.06a30.22,30.22,0,0,1-1-5.74c-.18-2.57,1.23-5.94,2.59-9.19l.77-1.86C186.45,74.71,186.39,76.59,186.33,78.53Z"/></g></g></svg>