<svg xmlns="http://www.w3.org/2000/svg" xmlns:xlink="http://www.w3.org/1999/xlink" viewBox="0 0 846.33 423.43"><defs><style>.cls-1{fill:#fff;}.cls-2,.cls-6{fill:#4373b6;}.cls-10,.cls-2,.cls-3,.cls-4,.cls-5,.cls-7,.cls-8,.cls-9{fill-rule:evenodd;}.cls-3{fill:url(#linear-gradient);}.cls-4{fill:#ec037c;}.cls-5{fill:#8dd7f7;}.cls-7{fill:url(#linear-gradient-2);}.cls-8{fill:url(#linear-gradient-3);}.cls-9{fill:url(#linear-gradient-4);}.cls-10{fill:url(#linear-gradient-5);}</style><linearGradient id="linear-gradient" x1="24.52" y1="73.93" x2="130.66" y2="155.72" gradientUnits="userSpaceOnUse"><stop offset="0" stop-color="#a2238d"/><stop offset="0.29" stop-color="#a2238d"/><stop offset="0.34" stop-color="#a2238d"/><stop offset="0.6" stop-color="#a0248e"/><stop offset="0.7" stop-color="#992890"/><stop offset="0.77" stop-color="#8d3095"/><stop offset="0.83" stop-color="#7c3a9b"/><stop offset="0.88" stop-color="#6548a3"/><stop offset="0.92" stop-color="#4a58ae"/><stop offset="0.96" stop-color="#296cba"/><stop offset="1" stop-color="#0482c7"/><stop offset="1" stop-color="#0085c9"/></linearGradient><linearGradient id="linear-gradient-2" x1="514.57" y1="258.91" x2="438.63" y2="143.62" gradientUnits="userSpaceOnUse"><stop offset="0" stop-color="#a2238d"/><stop offset="0.29" stop-color="#a2238d"/><stop offset="0.34" stop-color="#a2238d"/><stop offset="0.63" stop-color="#a0258e"/><stop offset="0.74" stop-color="#992a91"/><stop offset="0.82" stop-color="#8d3596"/><stop offset="0.88" stop-color="#7c439d"/><stop offset="0.94" stop-color="#6656a7"/><stop offset="0.99" stop-color="#4a6db3"/><stop offset="1" stop-color="#4373b6"/></linearGradient><linearGradient id="linear-gradient-3" x1="703.16" y1="104.16" x2="814.13" y2="104.16" gradientUnits="userSpaceOnUse"><stop offset="0" stop-color="#a2238d"/><stop offset="0.29" stop-color="#a2238d"/><stop offset="0.34" stop-color="#a2238d"/></linearGradient><linearGradient id="linear-gradient-4" x1="614.17" y1="94" x2="704.88" y2="137.64" gradientUnits="userSpaceOnUse"><stop offset="0" stop-color="#a2238d"/><stop offset="0.29" stop-color="#a2238d"/><stop offset="0.34" stop-color="#a2238d"/><stop offset="0.46" stop-color="#9b2990"/><stop offset="0.62" stop-color="#893898"/><stop offset="0.81" stop-color="#6a52a5"/><stop offset="1" stop-color="#4373b6"/></linearGradient><linearGradient id="linear-gradient-5" x1="756.6" y1="135.77" x2="727.28" y2="163.55" gradientUnits="userSpaceOnUse"><stop offset="0" stop-color="#a2238d"/><stop offset="0.29" stop-color="#a2238d"/><stop offset="0.34" stop-color="#a2238d"/><stop offset="0.52" stop-color="#71409f"/><stop offset="0.91" stop-color="#0085c9"/></linearGradient></defs><title>Asset 2</title><g id="Layer_2" data-name="Layer 2"><g id="Layer_1-2" data-name="Layer 1"><rect width="846.33" height="423.43"/><path class="cls-1" d="M45.58,299.85H46l.75.78v.79H45.58Zm0,2h.75v.79h.37l-.37,2h-.75Zm0,3.54H46.7c0,1.3.62,2,1.86,2l.37,2v.78l-2.6.4-.75-1.18Zm2.24-14.13.74.78v3.53h.37l1.12-1.17,1.49.78c0-2.61.25-3.92.75-3.92s.83,1.17,1.12,3.53h.37c0-2.36.25-3.53.75-3.53h.74l.38,2h1.11v-2h1.12v1.57q.85,4.71,1.87,4.71c-.64,1.68-1.26,2.59-1.87,2.74l-.74-.78v-2h-.75v3.13A3,3,0,0,1,55.27,303c-1-.26-1.49-.79-1.49-1.57l.37-1.18-.37-.39h-.37L53,303.78l-1.12-1.18.37-.4L51.92,301h-.75v.39l.37,1.18L51.17,305l.75.79,1.49-.39v.39L53,308.09l.37,1.57h-.75l-.74-2,.37-1.57H51.17v3.92H50.05v-5.49H48.93v1.18h-.74L47.44,303l.38-1.18h.37c.5,0,.74.66.74,2h1.12L50.8,301l-1.49-1.18H48.19c0,.78-.25,1.18-.75,1.18h-.37v-.4l1.12-1.57c-.53,0-1-1-1.49-3.13l.37-1.57H46.7C47,292.26,47.32,291.22,47.82,291.22Zm2.23.39h.38v1.57h-.38Zm5.6,16.09.74,1.18v.39l-.74.78H54.9l-.37-1.56Zm11.56-16.88.37.4-.37,1.17.74,4.32h1.12l.37-2-.74-3.53.37-.4h1.49l1.49.4,2.61-.4H89.21l.37,2v15.7l-.37,2a39.88,39.88,0,0,1-8.95-.79l-1.5.39-.37-.39c-.74.9-1.12,3.52-1.12,7.85h.38c0,.79-.38,1.18-1.12,1.18v1.18h.74v.78l.38,2.36-1.5,3.14h-.74c-.25-2.09-.62-3.14-1.12-3.14h-.37v.78h-.38l.38.4v3.53l-.75.78c0-.78-.25-1.17-.74-1.17s-1,.65-1.12,2h-.38l-.74-2.75v-2h-.75c-.42,0-.8.92-1.12,2.75q-1.11,0-1.11,1.17h-.38l-2.23-2.74-.75,2.74h-.37l-.38-1.17.38-.4v-1.17l-.75-1.18v-3.14H61.61v2.75H59.75v2l1.86.78v.4c-.74,0-1.37.52-1.86,1.57v5.88c.14,1.57.51,2.36,1.12,2.36.07-1.31.32-2,.74-2l-.37-2v-1.57h.37l.75.79v2h.74l.38-3.14h.37c.43,0,.92.78,1.49,2.35h.37l.38-3.53h1.12l-.38.4v.39l.75.78H68l-.37-2.74h1.49l-.37.39v.39c.46,0,.83,1.18,1.12,3.53l-.38.39v.4l.38,6.28v2h.37l.74-.78v-.4l-.37-3.92.37-2.36h.75l.37,2.75v1.18h.75v-2l1.12-1.18.74,2H75l.74-2.75h.75c.42,1.83.8,2.75,1.12,2.75l-.75,3.14.75,6.28-.38.39.38,4.71v11.78l-.38,3.53.38,3.93v16.87l-1.12,1.18H58.26l-1.12-.79.37-.39-.37-4.71V348.52l.37-4.32-.37-2,.37-.39v-.39l-.37-1.18a14,14,0,0,0,1.49-7.07,16.34,16.34,0,0,1-1.49-5.49l.37-1.18.37-15.7h.75L59,312l-.37.39v.39l1.12,2.75-.38,1.18h.75v-1.18l.37-2h.75l.37,2.35h.75l.37-2v-.39c0-.52-.74-.79-2.24-.79V312h-.37l.75-1.18-1.5-2.75h.75v-.39l.37.39h.75l1.49-.39L65,308.88l2.61-2,1.49.39v-1.18l-.75-.78-1.11.78-1.5-.78-.37.39H65l-1.12-.39-.75.78h-.37l-.37-1.57.37-.39H62v-2.36c-.43-2.35-.93-3.53-1.5-3.53l.75-1.57q-2.24,0-2.24-5.49h.75l.74.78v2h.75l.37-2.35h.75L63.1,294h1.12v-1.57h.38c.49,0,.74,1.31.74,3.93l.75-.79-.38-2.74c.5,0,.75-.53.75-1.57l.37-.4Zm-8.95,14.53.74.78v.39l-.37.4.37.39v1.18l-.37,2h-.37l-1.12-1.18.74-2.35-.37-1.18.37-.39ZM59.75,321v1.18h1.12v-.39l-.75-.79Zm.74,16.88v1.18h.38v-1.18Zm.38,9v3.14h.74V347Zm.37,14.92v.78H62v-.78Zm3-51.42.38,1.17H65v-1.17Zm.38,2-.38,1.18.38,1.18H65c0-1,.25-1.58.74-1.58l1.12.79v-.39C66.83,313.14,66.09,312.75,64.6,312.41Zm.74,31.4v1.57h.75v-.79Zm2.24-5.49v3.92h.74v-2l-.37-2ZM68,310.45v1.17h.75v.4L68,313.19a6.2,6.2,0,0,1,.75,3.54h.37l.37-2.75-.37-3.93Zm.37,17.66h1.12v.39H68.32ZM70.19,347v1.18h.74V347Zm.37-34.54v1.18l1.12,1.18.75-.79V312.8Zm.37,19.23h.38l.74.79-.37,2h-.75l.38-.39-.38-.4Zm.75-13.34v1.57h.37V318.3Zm0,2v2l.75-.78V321Zm1.49-6.67h1.12v-.79h-.37Zm0,18.44h.37v.79h-.37Zm0,29.84v2.35l1.12,1.18.37-1.18C74.34,362.65,73.85,361.87,73.17,361.87Zm1.49-23.95-.37,1.18.37.39H75l.37-.39L75,337.92Zm.38,5.89-.38.39v.39l.75.79h.37v-.79Zm1.11-15.31h.38l1.12,1.18-1.12,4.71h-.75c0-1.05-.25-1.57-.74-1.57C75.28,329.94,75.66,328.5,76.15,328.5Zm-.74-22.37v1.18h.37v-1.18Zm3,.79v.78h.37v-.78Z"/><path class="cls-1" d="M96.15,294.41h7.46l.37,3.93,1.12-.39v-3.54h.75l.74.79,1.49-.79a4.24,4.24,0,0,1,.75,2.75c.42,0,.8-.92,1.12-2.75h.74l.38,2h.37l1.49-2,1.49.79.75-.79h.74l.38,2v20.81l-.38,2.75.38.39h-.38l.38.39v5.1c0,.38-.5.77-1.5,1.18,0,1.23.87,2.28,2.61,3.14l1.12-.78,1.49.78,1.5-.39c.24,2.09.62,3.14,1.12,3.14v-4.32l-.38-.39.38-.4v-.39l-.38-3.92.38-2.36-.38-2.35.38-5.89-.38-14.52v-2.75l.75-.79c.32,1.57.81,2.36,1.49,2.36,0-1.83.37-2.75,1.12-2.75l.74,2.36-.37,1.57.37,3.92-.37,3.93h-.37l-.75-.79v-4.71l-.37-.39.37-.39v-.4l-.74-.78-.38,3.53.38,1.57-.38,3.53v6.28h1.12v-5.1l.38-2h.37l.74.78v3.14l.38,3.14-.38,2,.75,6.28.75-.79-.38-2.35c0-1.83.25-2.75.75-2.75l1.12.39.37-.39v-.39l-.75-1.18-.37.39h-.37l-.75-.78v-6.28l.75-.79h.37v3.53h.75v-.39L129,305.4l-1.11.79h-.38l-.37-2,.37-.39v-.39l-.37-7.85.37-1.18h12.31c.24,2.62.62,3.93,1.12,3.93l.37-3.93h.37l.75.79v10.2l-.38.39.38.4v8.63h-.75l-.37-.39h-.37V318l.37-.39h1.12l-.38,2.36.38,1.17-.38.39.38,2v6.67l-.75,1.18v2.74c.07,1.31.32,2,.75,2v.78H142l.38,21.59V380l-.75.78-1.12-.39-.37.39v.79l1.12.39.37-.39.75,1.17v9l-1.12,1.18h-7.83c-.5,0-.75-.65-.75-2H132c0,1.31-.62,2-1.87,2h-3.73l-2.23-.39-1.12.39-.75-1.18v-6.28c.07-1.31.32-2,.75-2l1.49.79.75-.79h2.61v-.39L126,379.19l-.37,2-.37-.39h-.75l-1.86.39a9.89,9.89,0,0,1-.75-4.31V366.63l.75-.78.74.78.75-1.18-.75-2.35-.37.39h-.37l.37.4v.39l-.75.78-.37-3.92,1.49-2.36v-.39l-1.49-.79.37-2v-3.92c-1,0-1.58-.92-1.86-2.75H120c0,1.57-.24,2.36-.74,2.36s-.75-.66-.75-2h-.74c0,1.31-.75,2-2.24,2V356l.37,1.57-.37.4.75,8.63-.38,2.36.38,2-.38,3.93v1.56l-.37.4.37.39v5.49h-1.12v-5.49l-.74-.79-.37.4h-.38l.38.39v4.32h.74v1.17h-.74v.79h.74v.39l.37-.39h1.12l.38,4.71-.38.39V389l-.37-.39h-.75v3.14l-1.11,1.18-1.5-1.57-.74,1.57-1.87-.39-1.11.39-1.12-.39-.38.39h-.37l-1.49-.79.37-2V383.9h-.74v8.64l-1.87.39H97.27l-1.12-1.18v-3.14l-.37-9.81.37-3.53,1.12-.39.37.39v-1.18c-1.24,0-1.86-.78-1.86-2.36v-.39l.74-3.53-.74-1.57c.18-1.31.8-2,1.86-2v-3.14l-1.49-.4v-3.53c1,0,1.49-.39,1.49-1.18l-.74-3.13-.75-38.08V301.48l-.37-1.57.37-.4v-.39l-.37-3.53Zm3,7.46v.78h1.12v-1.57h-.37Zm3-3.14v.78h-.38l.38,2.75.37,25.91.37.39h.38v-.39l-.38-29.05-.37-.39Zm4.47,3.53v.39l.75.79v-1.18Zm2.61,2v1.57L110,305v-.79Zm0,5.89V314H110V310.9Zm0,74.19v7.06h1.12V389l-.37-3.92.37-.39-.37-.39Zm1.87-86.75v1.18h.74v-.39Zm.74,11.39v3.53h.75v-2.75Zm1.12,42.78v5.1l.75.78.37-.39-.37-2.75v-3.53Zm.75,11.38v1.18h.37V363.1Zm1.11-44.35v1.18l.75-.79-.37-.39Zm.38,21.19v1.57l.74-.78Zm2.23.4v.78h.38v-.78Zm2.24-8.25v.79l.75.78v-2.35Zm3,23.94v.79h.74V356Zm.37,11.78v.78h.74v-.78Zm0,2.75.37.39h.37v-1.18Zm1.49-38.08v1.18h.37v-1.18Zm2.61-9.81-.37.39v1.18h1.12v-.78Zm1.49,60.45.75.78v-.78Zm2.24-7.07v.39l-.37,5.11.74.78,1.12-.39v-3.53c0-1.35-.37-2.13-1.12-2.36Zm2.61,3.93v1.57h1.12V380Zm2.23-74.58-.74,1.18.37.39h1.12v-.78Zm.38,10.21v1.17h.74v-1.17Zm.37,4.71v2.35l.75-.78v-1.57Zm0,5.49v9.42l.75.79V325.81Zm0,11.78.75.78V336.8Zm0,42.39v.39c1.24,0,1.87.92,1.87,2.75.56,0,.94-.66,1.11-2l-.74-2Zm1.87,4.71V387h1.11v-.39l-.37-2Zm2.23-78.9v.79h-.37l.37,1.18h.75v-2Zm.38,13v1.18h.74v-.4Z"/><path class="cls-1" d="M150,289h4.85l.37.39.38-.39H156l1.49.39,2.61-.39h16.41l-.37,2,1.11.39V289h1.12l.75.79,1.49-.79.37.39h1.12l1.12-.39v.39l.37,1.57v16.49l-1.12,1.17h-3.72l-1.12-.78-1.12.78h-2.24c-.5,0-.74-.39-.74-1.17l-.38-.4h-.37l-.37,1.57h-2.24v14.92l-.37.39.37.39v2.75l1.86.39.38-.39.37.39h1.49l.37-.39.38.39h1.49l.37-.39.37.39h.38l3.73-.39c1,.26,1.49,1,1.49,2.36v10.2c0,.53-.5.79-1.49.79v2.35l1.49,2L181,346.33l-.37-.39h-1.49l-.37.39-1.5-.78-1.49.39-.74-.78v-.39l.37-1.58-.75-2.74h-.74l.37,3.92v.79c0,.52-.37.78-1.12.78l-.37-.39h-.37q-3,.9-3,3.53l.38,2-.38,1.18.38,4.71v3.93l.37,11.38-.75,1.57.38.39v2H169l-.74-3.53c-.61,0-1,.53-1.12,1.57.6,1.83,1.1,2.75,1.49,2.75l1.12-.39V377l.74,1.57,1.87-.78,1.12,1.17.74-2c-.5-.52-.74-2.22-.74-5.1l-.38-.4h-.37v3.14l-.37,2H172q-.8,0-1.49-8.25l1.12-.39.37.39h.38l3-.39.37,1.57h.38v-1.18q1.11,0,1.11,3.54l1.12-.4v-2.74l.75-.79.74.79-.37.39v.39l.75,5.5-.75,2.35.75,3.14-.38,3.93h-1.11v-2H178l.37,2c-.74,0-1.12.52-1.12,1.57-.49,0-.74.39-.74,1.17l-1.87.4H160.82c-1.25,0-1.87-.27-1.87-.79l-2.23.79h-5.6L150,386.37V373l-.37-1.57.75-3.92-.38-.39v-1.57h.38c.49,0,.74.78.74,2.35h.38v-7.85h-.38l-.37.39h-.37c0-1.3-.25-2-.75-2,.25-2.88.62-4.32,1.12-4.32h.75v-1.57H150v-3.53l1.12-1.57-.74-3.92.37-.4-.75-4.71v-.78h.38L150,333V318.47l.75-2.36-.75-2.35v-9l.38-2.75H150l.38-.39-.75-8.24L150,291l-.37-.39v-.39Zm.38,71.83h.37V362h-.37Zm0,2.35h.37V364h-.37Zm.74-66.33-.37,4.71h.37l-.37,1.18.37,1.17h.38l.37-2h-.37l.37-.39v-.39l-.37-4.32Zm0,10.6v1.57l.75-.79Zm0,2.35v2.36l.38,2h.74V313l-.74-1.17.37-1.58-.37-.39Zm.38,62v.78h.37v-.78Zm.74-41.22-.37,2,.74.78H153v-2.75Zm0,7.85v.79H153v-.79Zm3-48.27c0,.78-.24,1.17-.74,1.17l-1.12-.78L153,291v.39l.37.4v.39l.37-.39h.38l1.86.39v-2ZM153,351v.4h.74v-1.18Zm0,2v1.17l.37,2.36-.37.39v.39l.74,4.71-.37,2.36v2.36h.75v-13l-.75-.78Zm.37-16.1h2.24l-.38-2.74v-2.75Q154.22,331.42,153.36,336.91Zm.37-36.89v.79h.38V300Zm0,69.86v1.18h.38l.37-1.18Zm0,8.64v4.71h.75v-4.71Zm.38-65.55v3.53h.74V313Zm.37,7.07v1.17h.37V320Zm0,6.67v.78h.74v-.78Zm.37,11.77v.79h.37v-.79Zm0,3.54v.78h.75Zm.37,6.27-.37,1.18.75,9.42v3.54l.74.78v-6.28l-.37-2.35.37-1.57-.74-4.72Zm2.61,17.28v2.35l-.37,2h-.74l-.38-.39H156v1.18l.37-.4h1.12l.37,2.36h.38a2.53,2.53,0,0,1,1.12-2.36l-.75-2.35v-2.35ZM156,379.7v1.17h.37V379.7Zm0,2.35v3.53h.75v-.39l-.38-1.57.38-1.18-.38-.39Zm.75-54.16v.39h.74v-.39Zm0,5.89v.39l.37,2.74h.74v-.78l-.37-.39.37-.4V335l-.37-1.17Zm.74,9v.79h.37v-.79Zm0,4.32v2l.75-.79v-.39Zm.37-50.63.38,3.92v2.75H159l-.37-5.89v-1.18l-.37.4Zm0,77.71v1.18c0,4.19.38,6.28,1.12,6.28l.38-5.5c-.32-1.31-.7-2-1.12-2Zm.75-67.51v.79H159v-.79Zm.75,21.2-.38.39v.78h1.12v-.39Zm0,7.06v.39l.37,2h.37l.37-1.17-.37-2Zm.37,6.67-.37,1.18.37,1.18h.37l.37-1.18-.37-1.18Zm0,3.93v2h.37l.75-.78v-.79Zm0,23.16,1.12.78h.37l-.37-1.18.37-2h-.37C160.07,366.61,159.7,367.4,159.7,368.71Zm.74-16.49v2.36c.5,0,.75-.4.75-1.18l-.37-1.18Zm0,3.14v2.36h.38l.37-2-.37-.4Zm0,3.14v6.28h.75v-.39l.37-3.53C161.24,359.28,160.87,358.5,160.44,358.5Zm.38-51.81v1.18l.74.78v-2Zm.37,5.5v6.28l.75.78V313Zm.37,17.27-.37,4.32.37,1.17,1.12-1.17C162.43,330.89,162.06,329.46,161.56,329.46Zm0,6.28v1.17l.75-.78-.37-.39Zm0,2.35v.79h.75Zm.38,4.32v.78h.74v-.78Zm.37-51V293l.37,2h.37l.38-3.14-.38-.4Zm.74,65.94v.4l-.37,4.31.37,1.18h.75v-5.89Zm.38,16.1v2.74h.74v-2ZM163.8,331l.37,2.35-.37,1.18.37.39h.75l-.37-4.71Zm.37-2.36v.79h.38v-.79Zm0,7.46v4.71l.75,6.67h.37l.38-1.18-.38-2,.38-1.18-.75-7.06Zm.75,12.16-.37,1.18,1.12.79v-1.18Zm.37,11-.37,1.58.75,7.45-.38,2.36.38.39H166v-11Zm0-7.06v1.18h.38v-1.18Zm0,4.32v1.18h.38v-1.18Zm.38,16.09-.38,4.71.38.4H166l.74-4.32Zm.37-59.27v1.18h.74v-.39Zm.74,22.77v.39h.75v-.39Zm.38-43.57v.79h.37v-.79Zm0,3.93v.39l.74.78v-1.17Zm0,55.34.37,3.93v.78h.75v-2l.37-2.75-.37-.39h-.38l-.37.39Zm.37,8.63v4.71l.37,2.75h.38l.37-1.57-.37-2.75v-3.92Zm.37,7.85v1.57h.38v-1.57Zm.38-59.66v1.57h.37v-1.57Zm.37,6.67-.37,2,.37.39H169v-2.36Zm0,13.74v2.75h.74v-2.75Zm.37,9.42v.4h.75v-.4Zm.75-42v1.17h.74v-.39Zm.37,5.1-.37.39v.79l.74.78.38-.39v-.79Zm0,2.74v.79h.37v-.79Zm1.12,33v1.58H172v-.79Zm.37,5.89.37.4h.38v-1.18Zm.37-49.45v3.14h.75v-2.36ZM172,344v.79h.38V344Zm.75,25.12v1.17h.37l.38-1.17Zm2.24,7.06.37,3.54h.37l.75-.79v-2l-.75-.79Zm.74,7.85v1.57h.38l.37-1.17-.37-.4Zm.75-46.31v.78h2.24V337.3h-.38Zm0,4.32v1.17h.37l.75-.78-.38-.39Zm.37-45.53v2.74h.75v-2Zm.37,76.53v5.11l1.12,1.17.75-1.17V377A6.77,6.77,0,0,1,177.6,373Zm6.34-2.75h.75l.37,3.93v.39l-.37.4.37.39v5.89l.38.39-.38.39v5.1l-1.86.4c-1.25,0-1.87-.27-1.87-.79l-1.49.79c-1.24-.34-1.86-.73-1.86-1.18,1.24,0,1.86-.39,1.86-1.18L181,386l.38-.4v-.39L181,379.3l.75-1.56-.75-3.93.38-1.18h.74l1.12.79.37-2Zm-5.22-27.47.75.79h.74V342h-.74Zm3-51.42v1.18h.37v-1.18Zm.74,78.5.37.39v.4l-.74.78-.37-.39v-.39Zm.75,6.68v.78h-.38l.38,1.18h.37l.75-.78v-.4l-.75-.78Zm.37-8.64h.37l.75.79v.39h-.37l-.75-.79Z"/><path class="cls-1" d="M224.23,288.58h7.08l.38.39.37-.39h1.86l.38.39.37-.39h8.58l.74.79,2.24-.79h.37l1.87.39v3.93l.74-.79V289h1.12l.75.79,1.11-.79q8.21,1,8.21,3.53l.37,3.54v2.75l.75.78V292.5h.37c.5,0,.75.66.75,2l1.11.39.75-.79a4.61,4.61,0,0,1,1.12,2.75v6.67H266l.37-.39h.38l-.38-.39v-1.18l.38-.39-.38-.39v-3.53q1.23,0,2.24,5.88c.5,0,.75.79.75,2.36h.37l-.37,2v.39l.74,3.54-.37,9.81-.75.78v.4l1.12,2.35-.37,2,.37.39-.37,2v2.35l.37,3.14-.37,1.18.37,12.17v9.42l-.37,1.57.37,1.57-.37.39v.39l.37,1.57h-.37l.37.4v1.57q-1.32,18-5.59,18c0,1.05-2,2.22-6,3.53l-.38-.39h-.37l-1.87.79-.37-.4h-.37l-1.87.79-.37-.39v-.4l-.37.4h-1.12l-.75-.79V382l-.74-.78v4.71l-1.12,1.18-.37-.39-2.61.39h-.75a4.11,4.11,0,0,1-2.61-1.18l-.74,1.18-1.12-.79-.38.4h-1.49l-.37-1.57h-.75c0,1.3-.37,2-1.12,2h-.74a4.11,4.11,0,0,1-2.61-1.18l-1.12,1.18H228.7l-2.23-.39-1.87.39h-.37l-1.12-1.18v-5.5l.75-2.35-.75-3.14,1.12-7.46-.75-3.14.75-.78-.75-1.18.38-.39v-2l-.38-.39.38-.39v-1.57l-.38-2.75.38-1.57-.38-12.16v-6.29h1.12v1.18h.75l.74-2.35v-.39l-.74-1.18.74-1.18c-.49,0-.87-.92-1.11-2.75l.37-3.92-1.12-.4-.37.4v-2.36l.74-1.17v-6.29h-1.12v-.78l.38-5.1-.38-2,.38-1.58-.38-6.27v-9.42Zm1.12,57.3.37,2.75h.37V345.1Zm.37-34.93v2.75l.37,2.75.38-.4h.37l-.75-3.53.38-1.57Zm0,10.6v.39l.37.4v.39l1.12-.39v-1.57h-.74Zm0,3.14v1.18a3.74,3.74,0,0,1,1.12,2.35h.37l.38-2.75V324.3l-.75-.79Zm0,35.32v5.5h.37l.38-1.57-.38-3.93Zm.37,8.64v.78h.38v-.78Zm.75-39.25-.37.39v.4l.37.39h.37l.38-.39v-.4l-.38-.39Zm0,2-.37.4v.39l.74.78.38-.39v-.39ZM226.47,382v.79h.37V382Zm.37-48.27v.78h.37v-.78ZM228,363.16v1.17l.74.79v-2Zm.74-40v1.18l.38,3.53-.75,2,.75,3.93h.37l.37-3.53h-.37l.75-2-.75-.78.37-1.18-.37-3.92ZM228.33,371v4.32l.75-.78v-2.75Zm0,6.68v1.17l.75-.78-.38-.39Zm0,3.53v2h.75V382Zm.75-46.71v.79l.74.78v-.78Zm.37,2.36v.78h.37v-.78Zm1.12-32.19-.37,1.57.74,3.54-.37,2.35v1.18h.74v-3.14l-.37-2.36.37-2v-1.18Zm0,63.59v3.14h.74v-3.14Zm.74-45.92-.37.39v2.35l.75.79.74-2.75Zm0,6.28v2l.75-.79v-.39Zm0,4.31v3.93h.75v-3.14Zm.75-38.86v.79h.75v-.79Zm.37,64v.79h.75v-.79Zm.38,10.21v1.17h.74V369Zm0,3.14v2.75h.74V371.4Zm0,6.67.37,1.18h.37v-.79h.37l-.37-1.17Zm.37-68.29v.78h.37v-.78Zm.37,17.66v.78h.75v-.78Zm0,2v3.14l.75.79V329.4Zm0,7.06.37,1.18h.38v-2.35Q233.55,335.29,233.55,336.46Zm1.12,41.22v.39l.37,2h.38l.74-.78v-1.57l-.74-.79Zm.37-71.83v1.57l.75-.78Zm0,2.36v1.57h.75V309Zm.75,14.52v3.92l.74.79v-3.93Zm.37,7.85v1.18l.75-.79-.38-.39Zm.75,24.73v1.56l.37,2,.75-.79v-.78l-.75-2Zm.37-52.6.75.78v-.78Zm.37,13.74v2.35h.75v-2.35Zm0,63.19v.78l.75.79.37-.39v-.4l-.74-.78ZM238,324.3v2.35l.37,2h.37l.38-3.15-.38-1.17Zm.37,4.71v1.18h.75v-.4Zm0,4.32v.39l.75.78v-2Zm.75,12.16V349l.74-.78v-2.75Zm.37-45.92V300l.74.79v-2Zm0,61.23v2.36l.74.78v-2.35Zm.37-54.95V307h.37v-1.18Zm0,60.45V371l.75-.78V366.3Zm0,6.67v1.57h.75v-.79Zm.37-55.34v3.92l.75.79v-4.71Zm0,63.58v1.18h.38v-1.18Zm.38-58.09v.78H241v-.78Zm.74,21.2.75.78v-1.57Zm4.85-51,.37,2.75v1.57l-.37.39.37.39v7.07h-.37l-1.49-.4a3.87,3.87,0,0,0-2.24,2v4.32l.75,3.13-.75,1.18,1.12,26.69-.37,2.36.37,10.6v5.49l-.75.79-.37-2v-3.53h-.74v12.56q0,.78,1.86.78l1.12,1.18q5.22-.9,5.22-8.24v-.78l-.37-3.54L250,351v-4.32l.37-3.53-.74-3.14,1.49-3.14-.75-1.18.75-.79v-5.1h-.38V331h-1.11V329.4c0-1.83.37-2.75,1.11-2.75v-6.28c0-3.4-.24-5.75-.74-7.06l.37-.4v-.39a10.86,10.86,0,0,0-3-7.46v-8.24l-.38-2.75h.38L247,292.9l-.37.39Zm-4.47,1.57v7.06l.74.79h.37v-7.06l-.74-.79Zm1.11,67.51h.38l.37,1.18h-.75Zm0,2.36h.38v.78h-.38Zm1.12-68.3V298l.75-.78Zm.75,2.36V300h.37v-1.17Zm3,82.81-.37,4.32h.74V381.6Zm.75-87.92v5.89h1.12v-2.75C249.59,294.88,249.21,293.83,248.47,293.68ZM250,377.29v.78h.37v-.78Zm1.12-86.75v.79h.37v-.79Zm0,2.75v3.14l.74.79v-2l-.37-2Zm.37,9.42v1.18l.74.78v-2Zm.37,64.76v.79h.37v-.79Zm.37,11.78-.37,2V382l1.12,1.18V380Zm0-64.37v1.57c0,4.71.38,7.06,1.12,7.06v-6.28C253.31,315.89,252.94,315.1,252.19,314.88Zm0,61.62v.79h.75v-.79Zm.75-50.63V327h.37v-1.17Zm0,2v3.93h.75v-3.14Zm.75,29.44v.39l.74.78v-1.17Zm.37,5.1v1.57l.75-.78Zm.37-53.38v1.18h.38V309Zm0,2.36v3.53h1.12v-.4C255.55,312.54,255.18,311.5,254.43,311.35Zm0,4.7v4.72l.75.78h.37v-5.5Zm0,64v.39l.75.79V380Zm.75-54.56-.37,2,.37,1.18h1.12v-.79C256.3,326.49,255.92,325.7,255.18,325.47Zm.74-28.25v2.35h.75v-2.35Zm.38,3.92v6.28l.74.79v-7.07Zm0,58.48v1.57H257v-1.57Zm.37-47.1v2.75h.75v-2Zm0,5.89c.18,2.88.55,4.32,1.12,4.32v-2.36l-.37-2Zm.75,7.46v.78h.37v-.78Zm0,2.35V331l.74.79V329Zm1.12-33v9.81l.37,2h.37l.37-2.36-.37-9.42Zm0,63.19v3.93h.37c.6,0,1-1.18,1.12-3.53l-.38-.4Zm.37-50.23v1.17h.37v-1.17Zm.74,13.34-.37.39.37,2.75V327h.75v-4.7Zm.38,11.78v2.35l.74-.79v-.78Zm0,6.28v.78h.74v-.78Zm1.11-34.55v1.18h.38v-1.18Zm0,2.36.38,3.93v1.17h.74l-.37-2,.37-2.35Zm.75,11v1.18h.37v-1.18Zm0,2.36v4.7l.75.79v-5.49Zm.37,7.06v2.75H263l-.37-2.75Zm0,6.67v2.75l.75.78V334.5Zm0,45.53v.79h.38V380Zm1.12-82.42v.78l.75.79v-1.57Zm.37,11v4.71l.75.78v-4.71Zm0,50.63V360h.38v-.78Zm0,8.24v.79h.75v-.79Zm.38-49.45v.39l.74.79V318Zm0,3.92.74.79v-1.57Zm.37,3.53v3.15l.75-.79v-2.36Zm.37,9.42v.79l.75,1.18-.37.39v.39l.37,2.36H266v-5.89h-.37Zm.38,7.46v2l.74.78v-2.75Zm0,4.32v2.75l.37,7.85H266v-.79h.37l-.37-2.74.37-2.75-.37-1.18.37-.39V349l-.37-3.14Zm.37,17.66v1.57l.74.79h.38v-1.57l-.75-.79Zm.74-57.69L266,307v.78l.37,4.71h.75l-.37-2.74.37-2.75-.37-.39Zm.75,22.76v2l.75-.78v-.39Zm0,6.28v1.18h.37v-1.18Zm0,3.93V342l.37,5.89h.75l-.37-1.57.37-.4v-.39l-.37-2,.37-3.53-.37-.39Zm.37,10.59-.37,1.18.37.39v2.36l1.12.39v-.39l-.37-3.93Zm.75,7.46-.37,1.57.37,4.71h.37l.75-3.14-.38-.39V360l.38-1.57v-.39Z"/><path class="cls-1" d="M280.86,294.92l.37.39h.38l1.11-.39.38,1.57h1.12c.49,0,.74-.4.74-1.18h.75v2h.37l1.12-.78h.37l.75,6.28h.37l.37-2.36h.75l.74,1.57v.39l-.37,4.32,1.12,1.57.37-2.75L291.3,302h2.24l-.38-.39v-1.18h.75v-1.18l-1.12-1.17q0,1.17-.75,1.17l-1.49-1.17h-.37l-.37.39h-.37l-.75-2.75-1.86.39-.38-.39v-.39h.75v-.39l.37.39h1.87l2.6-.39.75,2.74h.37l.75-2.35h3c.14,1.05.52,1.57,1.12,1.57l.75-.79,1.49,1.57h.37v-.78h.75v1.18l.74,3.14v3.13h1.12c0-1.56.25-2.35.75-2.35h3.73l1.11-.78c.25,2.35.63,3.53,1.12,3.53l1.12-.4a7.79,7.79,0,0,1,1.12,3.93c.5,0,.75-.52.75-1.57l.37-.39h.37c.5,0,.75.65.75,2h1.12l.37-2.35-.37-.4v-.39l.37-.39v-.4l-.75-4.7h.38q2.44,0,6,12.56v1.57l-1.49.39v2.35h.75v-2h.74l.38,2v3.93l.37.39-.37.39v.4q-.6,15.69-2.61,15.69h-.38V335h-.37q0,5.51-2.61,5.5L312.18,342v.39q9.69,4.54,9.7,12.95l-.75,3.92.37,1.18-2.23.4.37.39q2.24,0,2.24,7.06V379.7l.37,1.57-.37,1.57v5.49l.37,2.36c-.32,1.3-.69,2-1.12,2l-.75-.79c0,.79-.25,1.18-.74,1.18l-.37-.39-1.87.78-1.49-.39-1.49.39-.37-.39V389.9h-.38l-.37.39h-.37l.37,2v.39l-.37.39v.39l-1.12-.39-2.61.39V393l-.38.39h-3.35c-1.49,0-2.24-.91-2.24-2.74l.37-2-.37-3.54v-1.57l.75-.78h1.12l1.11.78.38-.39v-1.18q0-.78-2.61-.78a22.55,22.55,0,0,1-.75-7.07V357.72l.37-.4c-.49-5.49-1.74-8.24-3.72-8.24v-.39l-.38.39h-2.23v31.79c0,.53-.5.79-1.49.79v.78a4.46,4.46,0,0,1,1.49,3.54l-.38,2,.38,2.35v2l-1.12,1.17h-1.49l-1.87-.39-2.24.39h-1.86l-1.49-1.17h-.75V393h-.74v-.78c0-.53.37-.79,1.12-.79l.37-.39v-.39l-.37-.4-.38.4h-2.23v2l-.75.78-.37-.39-1.87.39h-3c-.5,0-.87-1.3-1.12-3.92l.37-1.18-.37-1.57.75-4.71-.75-5.89c.14-2.87.39-4.31.75-4.31l-.75-7.85h.37l-.37-.4v-.39l.37-.39-.37-.39v-4.71l.37-.4-.37-.39V351l-.37-3.92q.63-9.93,2.24-12.95l-.38-.39v-.4h1.12c0,.79.25,1.18.75,1.18l.37-2,1.86.39.38-.39v-.79l-.75-.78-1.12.39v-1.57c0-.52.38-.79,1.12-.79v-1.17c-1.06,0-1.69-1.31-1.86-3.93l-.38-.39h-.37l-.37.39.37.39v.4a4.21,4.21,0,0,0-.74,2.74h-1.5l-.37-13.34.37-1.18-.37-2.35V298.06l.37-2,1.5,1.18C279.6,295.7,280.22,294.92,280.86,294.92Zm-3.36,34.54h.75l.75.78v.39h-1.5Zm.38,26.69v.78l.74,2,1.12-.78-.74-2Zm.74,6.28-.37,1.57.37.39H279v-2Zm0-64.37v1.57H279v-1.57Zm0,62v1.18h1.12v-.79Zm.38,9,.37,2h-.75v1.18h1.12V369.1Zm0-56.91v1.17h.37v-1.17Zm.37,69.47v.78h.37v-.78Zm.37,2.35.75.79h1.12V384Zm.75-34.93v1.57h.37l1.49-.39,1.49.78v-.78l-.37-2H282Zm0,7.85v.39H282v-.39l-.75-.78Zm.74-60.44H282v-.79Zm0,4.71v5.1H282V302Zm0,10.6v.39l.38,1.57-.38,1.56v.4l.75.78.37-.39h.37l-.74-2.35.37-1.57-.37-.39ZM282,322v2h.37v-2ZM282,335l.37.39h.75v-1.17h-.38Zm0,55.74v.39l.74.78h.38v-1.17ZM283.1,302l.74,1.18v7.06l.38,4.32-.38,2,.38.4h.37v-.79H285l-.37-.39v-.79l.37-3.53-.37-3.92V306.3l.37-2.36-.74-2.74h-.38Zm.37,50.63v1.18l.75-.78v-.4Zm0,2.36v2.35h.37V355Zm.75-25.51.37.39H285v-1.18Zm.37,6.28v.39h.74v-.39Zm.74,6.67v1.18l.75-.79v-.39Zm.75-39.25-.37.39v1.57c0,2.1.62,3.14,1.86,3.14v1.18l-1.49.39V311h.75v.39l-.75,1.18,1.12,1.18.74-.79h.38v2.35c0,.53.74.79,2.23.79l1.12,1.18,1.12-.79h.37c.25,2.62.63,3.93,1.12,3.93h.38v-2.36l.37-.39L293.91,313l.37-2.35v-2h-.74v.4l-.38,3.92h.38l-.75,1.18.37.39v1.18h-.74c-.61,0-1-.52-1.12-1.57h-.75v.78h-.37l-.37-2h.74v.79h1.12c.07-1.05.32-1.57.75-1.57-.68-1.91-1.42-3.09-2.24-3.54l-1.86-5.1a3,3,0,0,1-.75,2.36l-1.12-.4.38-.39v-1.18Zm-.37,50.63V355h.37v-1.18Zm.37,7.07v2.35h.37l.75-.78v-.79l-.75-.78Zm.37-45.14v.78h.38l.37-.39h.37l-.37-1.18Zm.75,65.15-.75,1.18.38.39h1.11v-.78Zm-.75,3.54.38,1.17h.37l.74-.78V384h-.74l-.37.4Zm0,3.14v2h.75l.74-.78v-2h-.74Zm2.61-59.27v1.18c0,1.31-.25,2-.74,2L287.2,331l-.37.39v2.75l.74.78c0-1.05.25-1.57.75-1.57s.74.52.74,1.57l.38.39h.74l.75-.78-.75-1.57.37-1.18c-.24-2.35-.62-3.53-1.11-3.53ZM287.2,311h1.12v1.57h-.38l-.74-.78Zm0,41.21.74.79.38-.4v-1.17h-.38Zm.37-9.42V344h.37V342.8Zm1.12,39.25.75.79h.37l.74-.79-.74-.78h-.37Zm1.49-33.76.37,1.18-1.11,2.36.74,2.75h.75l.37-2,.37.4h1.49v-1.57l-.37-.4v-.39c-.75,0-1.12.39-1.12,1.18l-.74-.79v-2.75Zm-.37-11v.79h.37v-.79Zm.37-41.6.37,1.18h.38V295.7Zm.37,62.41v.78h.38v-.78Zm.75-23.94v.39l.74.78v-1.17Zm.37-2.36V333H292v-1.18Zm0,49.06v1.18h.75v-1.18Zm1.49-76.93v.39h.75v-1.17Zm2.62-8.24v1.18h.37l.37-1.18Zm1.11,16.88v2.35h-.74v2l-.37.39v.39l.37.39h.37l.37-.39.38,4.71h-.38l.38.4v.78l-.38.39.38.39v5.11c0,1.83-.25,2.74-.75,2.74l.37,1.18H301a3.3,3.3,0,0,0,1.87-2.75h.74l-.37,1.18q.27,5.9,1.12,5.89l1.12-1.18a25.45,25.45,0,0,1-1.12-7.06l.37-.4h3c0,.79.24,1.18.74,1.18h.37v-1.18l-.37-2.75h-.37c0,1.05-.25,1.58-.75,1.58s-.94-.66-1.12-2l.38-1.17-.75-4.32h-.74l-.38,3.53h-.37l-.37-.39h-.38l.38-2v-2c0-1.3-.25-2-.75-2l.37-.39q-.84-5.49-5.22-5.49h-.74Zm-.37,21.2-.37,3.52h1.12v-1.56l-.38-2Zm1.12-27.87v.39l.74.78h.38v-1.17Zm2.24-7.07-.38,1.57.38.4-.38.39h1.12l-.37-.39.37-.4v-.78Zm-.38,48.28v.78h.75Zm1.12-12.56v.78l.37,2h1.12l.38-1.56-.75-2h-.37Zm1.12,9.42v4.31h.75v-3.52Zm2.24-3.14v1.57l.74.78v-2.35Zm.37,16.09v1.57l.75.78h.37l.37-1.17-.37-2h-.37Zm.37,9,.38,2-.75.79.75,2.74.37-.39h.37l-.37-2.75V366Zm.75-35.33.37,3.93h-.37c.32,1.83.69,2.74,1.12,2.74H307v-2l-.37-2.35.37-2-.37-.4Zm.74,17.27.75.79v-1.57Zm.38-8.63v1.18H307v-1.18Zm0,18.05v1.18l.74.78h.38l.74-.78-.37-1.18Zm.37-7.06h.75v-.79Zm.37,12.56v.78l-.37,2,.37,2.35v1.57h.75l.37-6.28-.37-.39Zm.75-66.73h.74c.5,0,.75.4.75,1.18l-.37,2h-.75l-.74-.78Zm-.37,18.06v.78h.37v-.78Zm0,6.28v3.92l.74.79.37-2v-2l-.74-.78Zm.37,10.6v1.57h.74V331Zm2.61.39c0,1.83-.25,2.75-.75,2.75h-1.86l.37,2-.37.39.74.78.38-.39h.74c.57,0,.94.92,1.12,2.75h.37c0-2.09.38-3.14,1.12-3.14.5,0,.75.39.75,1.18h.75c0-1.83-.63-2.75-1.87-2.75-.71,0-1.08-1.17-1.12-3.53Zm-2.61,7.85v.78h1.12l.37-1.17-.37-.4h-.38Zm1.86,19.23.75.78v-.78Zm1.12-62c2.24,1.19,3.36,2.11,3.36,2.74l-.37.4h-.38c-2.24-.45-3.35-1.37-3.35-2.75l.37-.39Zm-.74,25.12.74.78.37-.39v-.39Zm.37,2.35v.79h.37V324Zm0,66.73v.78l1.86-.39v-.39l-.74-.79h-.38Zm1.86-71.05-.74,2,.37,2h.75l1.12-1.18C313.69,320.56,313.19,319.64,312.55,319.64Zm-.37-10.59v.78h.37v-.78Zm.37,8.63v.79h.38v-.79Zm1.12-15.7h.38v.79l-.75.78-.37-.39v-.39Zm1.12,20.41c0,1.31-.62,2-1.86,2l.74.79v-.39c1.24,0,1.87.78,1.87,2.35h.74v-2.35c0-1.35-.37-2.14-1.12-2.36Zm-1.49,5.1v2.75h.37v-2.75Zm0,3.54v2.75h.37V331Zm.37,13.74.38,3.92.74-.79v-.78l-.37-.39.37-.4v-.78l-.74-.78Zm.38,4.7-.38,3.54.38.39h.37l.37-.39v-2.75Zm-.38,9v.39l.75.79h.37V358.5Zm2.24,29.44v1.18h.37v-1.18Zm.75-29.05v.39h.74v-.39Zm.74-53v.78h.75v-.78Zm.37,18.44v2l-.37.4.37.39v2.36l-.37,2.35,1.12,2.75h.37l.38-3.14-.38-1.18.38-3.14-.38-2.75Zm0-7.06v1.18l.75-.79v-.39Zm.75,51.81.37.39h.38l.37-.39v-.79h-.37Zm.37-10.21v.79h.75v-.79Zm0,6.68V366h.38l.74-.79v-.39h-.37Zm.38-2.75V364h1.11v-1.18ZM320,324v1.57h.37V324Zm0,2v.79h.37v-.79Z"/><path class="cls-1" d="M329.14,289H334l.38.39.37-.39h.37l1.49.39,2.61-.39h16.41l-.37,2,1.12.39V289h1.12l.74.79,1.49-.79.38.39h1.11l1.12-.39v.39l.38,1.57v16.49l-1.12,1.17h-3.73l-1.12-.78-1.12.78h-2.24c-.49,0-.74-.39-.74-1.17l-.37-.4h-.38l-.37,1.57h-2.24v14.92l-.37.39.37.39v2.75l1.87.39.37-.39.37.39h1.49l.38-.39.37.39h1.49l.37-.39.38.39h.37l3.73-.39c1,.26,1.49,1,1.49,2.36v10.2c0,.53-.5.79-1.49.79v2.35l1.49,2-1.86,1.56-.38-.39h-1.49l-.37.39-1.49-.78-1.49.39-.75-.78v-.39l.37-1.58-.74-2.74H353l.37,3.92v.79q0,.78-1.11.78l-.38-.39h-.37q-3,.9-3,3.53l.37,2-.37,1.18.37,4.71v3.93l.37,11.38-.74,1.57.37.39v2h-.75l-.74-3.53c-.61,0-1,.53-1.12,1.57.6,1.83,1.1,2.75,1.49,2.75l1.12-.39V377l.75,1.57,1.86-.78,1.12,1.17.74-2c-.49-.52-.74-2.22-.74-5.1l-.37-.4h-.38v3.14l-.37,2h-.37c-.54,0-1-2.75-1.49-8.25l1.11-.39.38.39h.37l3-.39.38,1.57h.37v-1.18c.74,0,1.12,1.18,1.12,3.54l1.12-.4v-2.74l.74-.79.75.79-.38.39v.39l.75,5.5-.75,2.35.75,3.14-.37,3.93h-1.12v-2h-.75l.38,2c-.75,0-1.12.52-1.12,1.57q-.75,0-.75,1.17l-1.86.4H340c-1.24,0-1.86-.27-1.86-.79l-2.24.79h-5.59l-1.12-1.18V373l-.38-1.57.75-3.92-.37-.39v-1.57h.37c.5,0,.75.78.75,2.35h.37v-7.85h-.37l-.38.39h-.37c0-1.3-.25-2-.75-2,.25-2.88.63-4.32,1.12-4.32h.75v-1.57h-1.49v-3.53l1.12-1.57-.75-3.92.37-.4-.74-4.71v-.78h.37l-.37-4.71V318.47l.74-2.36-.74-2.35v-9l.37-2.75h-.37l.37-.39-.75-8.24.38-2.36-.38-.39v-.39Zm.37,71.83h.37V362h-.37Zm0,2.35h.37V364h-.37Zm.75-66.33-.38,4.71h.38l-.38,1.18.38,1.17h.37l.37-2h-.37l.37-.39v-.39l-.37-4.32Zm0,10.6v1.57l.74-.79Zm0,2.35v2.36l.37,2h.74V313l-.74-1.17.37-1.58-.37-.39Zm.37,62v.78H331v-.78Zm.74-41.22-.37,2,.75.78h.37v-2.75Zm0,7.85v.79h.75v-.79Zm3-48.27q0,1.17-.75,1.17l-1.12-.78-.37.39v.39l.37.4v.39l.38-.39h.37l1.86.39v-2ZM332.12,351v.4h.75v-1.18Zm0,2v1.17l.37,2.36-.37.39v.39l.75,4.71-.38,2.36v2.36h.75v-13l-.75-.78Zm.37-16.1h2.24l-.37-2.74v-2.75Q333.34,331.42,332.49,336.91Zm.38-36.89v.79h.37V300Zm0,69.86v1.18h.37l.37-1.18Zm0,8.64v4.71h.74v-4.71Zm.37-65.55v3.53H334V313Zm.37,7.07v1.17H334V320Zm0,6.67v.78h.75v-.78Zm.37,11.77v.79h.38v-.79Zm0,3.54v.78h.75Zm.38,6.27-.38,1.18.75,9.42v3.54l.75.78v-6.28l-.38-2.35.38-1.57-.75-4.72ZM337,365.57v2.35l-.38,2h-.74l-.37-.39h-.38v1.18l.38-.4h1.11l.38,2.36h.37a2.53,2.53,0,0,1,1.12-2.36l-.75-2.35v-2.35ZM335.1,379.7v1.17h.38V379.7Zm0,2.35v3.53h.75v-.39l-.37-1.57.37-1.18-.37-.39Zm.75-54.16v.39h.74v-.39Zm0,5.89v.39l.37,2.74H337v-.78l-.38-.39.38-.4V335l-.38-1.17Zm.74,9v.79H337v-.79Zm0,4.32v2l.75-.79v-.39Zm.38-50.63.37,3.92v2.75h.75l-.38-5.89v-1.18l-.37.4Zm0,77.71v1.18q0,6.28,1.12,6.28l.37-5.5c-.32-1.31-.69-2-1.12-2Zm.74-67.51v.79h.38v-.79Zm.75,21.2-.37.39v.78h1.11v-.39Zm0,7.06v.39l.37,2h.37l.38-1.17-.38-2Zm.37,6.67-.37,1.18.37,1.18h.37l.38-1.18-.38-1.18Zm0,3.93v2h.37l.75-.78v-.79Zm0,23.16,1.12.78h.37l-.37-1.18.37-2H340C339.2,366.61,338.83,367.4,338.83,368.71Zm.75-16.49v2.36c.49,0,.74-.4.74-1.18l-.37-1.18Zm0,3.14v2.36H340l.37-2-.37-.4Zm0,3.14v6.28h.74v-.39l.38-3.53C340.38,359.28,340,358.5,339.58,358.5Zm.37-51.81v1.18l.75.78v-2Zm.37,5.5v6.28l.75.78V313Zm.38,17.27-.38,4.32.38,1.17,1.11-1.17C341.57,330.89,341.19,329.46,340.7,329.46Zm0,6.28v1.17l.74-.78-.37-.39Zm0,2.35v.79h.74Zm.37,4.32v.78h.74v-.78Zm.37-51V293l.37,2h.38l.37-3.14-.37-.4Zm.75,65.94v.4l-.38,4.31.38,1.18h.74v-5.89Zm.37,16.1v2.74h.75v-2Zm.37-42.39.38,2.35-.38,1.18.38.39h.74l-.37-4.71Zm.38-2.36v.79h.37v-.79Zm0,7.46v4.71l.74,6.67h.37l.38-1.18-.38-2,.38-1.18-.75-7.06Zm.74,12.16-.37,1.18,1.12.79v-1.18Zm.37,11-.37,1.58.75,7.45-.38,2.36.38.39h.37v-11Zm0-7.06v1.18h.38v-1.18Zm0,4.32v1.18h.38v-1.18Zm.38,16.09-.38,4.71.38.4h.37l.75-4.32Zm.37-59.27v1.18h.75v-.39Zm.75,22.77v.39h.74v-.39Zm.37-43.57v.79h.37v-.79Zm0,3.93v.39l.74.78v-1.17Zm0,55.34.37,3.93v.78h.75v-2l.37-2.75-.37-.39H347l-.37.39Zm.37,8.63v4.71l.37,2.75h.38l.37-1.57-.37-2.75v-3.92Zm.37,7.85v1.57h.38v-1.57Zm.38-59.66v1.57h.37v-1.57Zm.37,6.67-.37,2,.37.39h.37v-2.36Zm0,13.74v2.75h.75v-2.75Zm.37,9.42v.4h.75v-.4Zm.75-42v1.17h.75v-.39Zm.37,5.1-.37.39v.79l.75.78.37-.39v-.79Zm0,2.74v.79h.38v-.79Zm1.12,33v1.58h.75v-.79Zm.37,5.89.38.4h.37v-1.18Zm.38-49.45v3.14h.74v-2.36Zm0,50.24v.79h.37V344Zm.74,25.12v1.17h.38l.37-1.17Zm2.24,7.06.37,3.54h.38l.74-.79v-2l-.74-.79Zm.75,7.85v1.57h.37l.37-1.17-.37-.4Zm.74-46.31v.78h2.24V337.3h-.37Zm0,4.32v1.17H356l.75-.78-.37-.39Zm.37-45.53v2.74h.75v-2Zm.38,76.53v5.11l1.12,1.17.74-1.17V377a6.84,6.84,0,0,1-1.49-3.93Zm6.34-2.75h.74l.37,3.93v.39l-.37.4.37.39v5.89l.38.39-.38.39v5.1l-1.86.4c-1.24,0-1.86-.27-1.86-.79l-1.5.79c-1.24-.34-1.86-.73-1.86-1.18,1.24,0,1.86-.39,1.86-1.18l1.5.79.37-.4v-.39l-.37-5.89.74-1.56-.74-3.93.37-1.18h.74l1.12.79.38-2Zm-5.22-27.47.74.79H359V342h-.75Zm3-51.42v1.18h.37v-1.18Zm.74,78.5.38.39v.4l-.75.78-.37-.39v-.39Zm.75,6.68v.78h-.37l.37,1.18h.37l.75-.78v-.4l-.75-.78Zm.37-8.64h.38l.74.79v.39h-.37l-.75-.79Z"/><path class="cls-1" d="M381.64,287.51l2.61.4,21.26-.4,3.35.4v-.4q1.92,0,2.61,14.92l3.36,25.51-.38,2.75q1.5,6.68,7.09,54.95l-1.12.79H401.78c-.61,0-1-.53-1.12-1.58l-.75-11,.38-1.17c-.18-2.62-.56-3.93-1.12-3.93h-6.34l-.37,2q0,14.41-1.87,15.71h-.37l-3-.79-1.12.39-2.24-.39h-2.24l-3,.79h-7.09l-1.11-.79L373.81,357h-.37l7.46-69.08h.74Zm4.1,31-.37,2.75.75,1.18-.38,2,.38,1.57-1.12,5.1c.49,0,.74.39.74,1.18l-.37,2h.75v1.18c-1.25,0-1.87.92-1.87,2.75l-1.49.39v3.14l1.12.39v-3.14l.37.39h.38V337h1.86v-2.35l.37-.4-.37-.39v-1.57l.75-2.36-.75-4.7V324c1,0,1.49-1.31,1.49-3.93A2,2,0,0,0,385.74,318.52Zm-2.61,51v1.17h2.24v-1.17Zm0,2.74v1.18h3.36v.79l-.37.39V375l.37.4h.37c0-1.31.38-2,1.12-2l-1.12-1.18v-.39l-.37.39Zm.38-17.66v1.18l1.12-.39V355Zm0,5.1v1.18h1.86v-.78Zm0,2.36v.78h1.86v-.78Zm2.61-23.94-.38,2v.39l.75.79h.37v-.4l-.37-2.74Zm.37,22.37v2h.37l.75-2v-.79h-.37Zm0,3.14v1.18h.37v-1.18Zm0,12.17v2H388v-1.18Zm0,4.71v1.17l1.12-.39v-.39Zm0,2v.78l.75.79v-.79Zm1.12-80.85v5.49a10,10,0,0,1-.75,4.32l.38,2.75h.37a3.07,3.07,0,0,1,1.12-2.36v-10.6Zm-.75,56.12.38,1.18h.37v-1.18Zm1.87,2.36v.78h.74v-.78Zm7.08-46.32q-2.61,30-3.73,34.54l.75,2.75h6.34l-2.61-37.29Z"/><path class="cls-1" d="M428.29,290.15h5.59l1.12,1.18v5.1h.75v-5.1l1.12-1.18h16.77q1.13,4.32,5.23,44h.74v-.39q0-8,3-29.83l-.37-.4q1.23-12.66,1.87-13.34h.74l3.73.39,5.22-.39h15.29l1.12,1.18v5.89l-.38,2.74.38,4.71v42.39c0,1.31-.38,2-1.12,2v1.18c.74,0,1.12.66,1.12,2v35.32l-1.12,1.18H473.41l-1.12-1.18V369.83q.1-5.9.74-5.89l-.74-3.14V327h-.38l-.74.79v.79q0,9-6,59.66l-.38.39H453.64q-1.32,0-2.23-13.35l-5.59-45.13h-.38v57.3l-1.12,1.18h-4.84l-1.12-1.18v-4.71l.74-3.14v-.39c-.74-.94-1.12-2.5-1.12-4.71v-2.75l-.74-.79v2.36l-.37,6.28.37.39v.39l-.37.4.74,7.06-1.12.79h-.74c-1.24,0-1.87-.79-1.87-2.36h-.74v.4l.37,1.17-1.12.79h-2.23c-1.5,0-2.24-1.05-2.24-3.14V367.86l.37-2.35-.75-7.46.38-2.35-.38-2.75.38-3.14h-.38l.38-1.18-.38-4.71,1.12-2v-1.18l-.74-1.17v-3.93q.63-4.71,1.49-4.71h.37l.38.39h.37v-1.17h-1.12l-.37.39-1.12-.39v-7.85l-.38-5.5,1.12-2v-9l-.37-3.53.37-1.57-.74-7.46v-1.18Zm3,68.69v.78h-.37l.37,2.75v2l-1.11,1.18-1.12-.39v.78h1.12v1.18a8,8,0,0,0,2.23,4.71v-7.85Q432.39,358.84,431.27,358.84Zm-.74-52.2V307l.37,1.57-.74,1.18c.38,1,.76,1.57,1.11,1.57H432V311l-.75-3.14v-1.17ZM430.16,338v1.58h.74v-.79Zm.74,8.25-.74.78v1.18h.74v.39l-.37,2.75.37,1.18,1.12-1.18V350.2c-.5-.48-.75-1.79-.75-3.92Zm0,7.06v.4l.37,3.92h.38l.37-2.75Zm1.86-5.49v.39l.38,2,.74-.78v-1.57Zm.38-49.85V311l.74.79.37-1.57-.37-2.75v-8.63Zm.37,76.54v1.18h1.12l-.38-1.18Zm.74-53.38-.37.39v.39l.37,2.36.75-.79v-1.57Zm0,3.53v5.89a10,10,0,0,0,.75,4.31l-.37,1.57.37,9,.37,1.57h.38l.37-1.18-.37-.39.37-5.88v-.79l.37-.39L435,330.19v-4.72Zm.75,51-.37.39.37,2h.75V376.5Zm.37-28.27v.79l.38,2h.37l.37-2.75Zm3.36,16.88c0,.53-.5.79-1.49.79l-.37.39v.39l2.61.4.37-.4v-.39Zm-1.12-26.69v.79H438v-.79Zm0,14.53V353l.75.79v-1.57Zm1.12,4.31v.79h.37v-.79Zm11.19-19.23V338h.37v-.78Zm15.29-16.09v2.35H466v-.39l-.37-2Zm10.06,43.57v.78H476v-.78Z"/><path class="cls-1" d="M553,285.83l.75,1.18v3.53h.74V287l.75-.78c.5,0,.74.39.74,1.17l.38.4h.37c0-.79.25-1.18.75-1.18h.37l.75.78,1.11-.39q5.81,0,13.43,10.6,3.35,6.61,3.35,23.94v4.71l-.37,4.71h-2.24l-1.49-1.18c0,.79-.25,1.18-.74,1.18l-.75-.78v-3.54h.38a1.83,1.83,0,0,0,1.49,2l.37-2.36-.37-4.71H572c-.18,3.14-.55,4.71-1.12,4.71l-.74-.79h-.38v4.32l.38.4v.39l-.38.39H568.3l-.37-2.75c-.43,0-.8.92-1.12,2.75h-.37l-.38-.39h-.37l-1.12.78-1.49-.78-1.49.39-.75-.78-1.12,1.17-1.86-1.17-.37.39h-.38l-.74-1.18v-4.71q0-21.58-1.49-21.59l-2.61-.39q-3,0-3,7.85l-.37,5.89.37.39v.39c-.35,5.24-.72,7.85-1.11,7.85l.37,1.18.37,23.94v6.67l.37,4.32-.37.4V362q0,10.2,3.36,10.2v1.18H553c0-1.05.75-1.57,2.24-1.57l1.12-13.74.74-.78-.74-8.64,1.12-1.18v-.39l1.86.39h.37l.38-.39,1.12.79,2.23-.79h1.12c1.24.08,1.87.34,1.87.79l.37-.4h1.12l.37.4,1.49-.79a4.24,4.24,0,0,1,.75,2.75h1.12l-.37-2,1.11-.79.75,1.18V351h.74l.75-3.93,1.49.39-.37,2.75v1.57l.74.79-.74,2.35.37,2.36-.37,1.57.37,3.14q0,7-2.24,11l.37.39v.39q-1.65,5.28-3.72,6.28h-.37v-1.18h-1.12V382q-6.3,6.67-14.55,6.68l-1.11-1.18V382l-.75-.78-.37.39v6.68h-.37c-.57,0-.95-.66-1.12-2h-.38l-.74,2.36c-.75,0-1.12-.39-1.12-1.18l-.37.39h-.38q-11.28,0-17.15-14.13-1.86-8.24-1.86-22.76V336.86l.37-3.53-.37-2,.37-3.14-.37-.39v-.39l.37-1.57h-.37l.37-.4V319.2l-.37-.4.37-.39V318l-.37-2q.36-12.94,2.23-12.95l-.37-.39v-.39c.57-2.36,1.06-3.53,1.49-3.53h.38V300h.74v-2.74a3.55,3.55,0,0,1,2.24-3.15c0-.74.74-1.53,2.23-2.35,0-.86,1-1.77,3-2.75h1.12l.37,1.57h.37c0-2.09.87-3.14,2.61-3.14q0-.78,2.61-.78v-.39l.38.39h.37ZM529.89,350.6v.78h.75v-.78Zm.75-39.25v1.17h.75v-.39Zm0,48.27v1.18H531v-1.18Zm.37-43.57v4.72c.5,0,.75-.4.75-1.18l-.37-3.54Zm.38,5.5v1.57h.37v-1.57Zm0,5.1v5.5l.74.78v-7.06Zm1.12-22.76v.39h.74V303.1Zm0,45.53v.78l.74.79v-.79Zm.37-36.9v.79h.37v-.79Zm0,45.92v.4l.75.78.37-.39v-.39l-.37-.4Zm0,7.07v.79h.37v-.79Zm.37-49.06v1.18l.75.78.37-.39v-.79l-.74-.78Zm.38,2.75v2.74H534l.37-2.35-.37-.39Zm0,5.49v3.53l.74.79v-3.54Zm.37,5.1v5.89h.74v-.79h-.37l.37-2.74v-1.57Zm.74-32.18V298l.75.79v-2Zm0,48.27v2.36h.75v-.39l-.38-2Zm.37-46.31v1.18h.38v-1.18Zm0,4.32v1.57l.75-.79Zm0,2.75v1.57l.75-.79Zm.38,6.27v.79h-.38l.38,2v6.28h.74v-7.06l-.37-2Zm0,46.71v1.57l.74-.78v-.79Zm.74-32.18v5.1l.75.79v-.79h.37Q537.08,327.44,536.23,327.44Zm.37-33.37v.79l1.12,1.18v-1.18l-.74-.79Zm.38,50.25v1.17l.74.79V345.1Zm0,3.53v1.57h.74v-2.36Zm.37-43.57.37.39h.38v-1.18Zm.37,60.45v1.17h.38v-1.17Zm.75-43.57v.78h.75v-.78Zm0,3.14v2.35h.37c.5,0,.75-.39.75-1.18l-.37-1.17Zm0,3.53v.39l.37,2.36-.37,1.18q.27,5.1,1.12,5.1v-.79l-.37-8.24Zm1.12-34.54v1.18H540v-1.18Zm.37,65.15V362h.75v-2.75Zm.75-36.5-.37.4c.24,2.09.62,3.13,1.11,3.13v-2.74Zm.37,4.32-.37,2,.74.79.38-.39V327Zm0,4.71v5.1l.75.79.37-5.5-.37-.39Zm.37,7.06v2l.38,2.75h.37v-3.93Zm0,6.29v.39h.75v-1.18Zm.38-52.6v1.57l.74.78v-2.35ZM543,382.39v1.18h.37v-1.18Zm.74-52.2v2.35l.37,2h.38v-1.57l-.38-2.74ZM545.18,311v.79h.75V311Zm.37,9.42V327l.75.79.37-1.18C546.67,322.47,546.3,320.37,545.55,320.37Zm.38,9.42v.4l.37,8.63.37.39h.38v-2l-.38-2,.75-3.53-.75-2Zm.74,10.21v1.18h.38V340Zm1.12,44v2l.75-.78v-.4Zm4.48-9.42v1.18H553v-1.18Zm1.86-82.43v3.54h.75v-3.54Zm.75,87.92v3.14l.74-.78v-1.57Zm2.61-53.38v.79h.37v-.79Zm0,51.81v2.36l1.12-.4v-1.57Zm2.23-4.31v3.92l.75.78v-5.49Zm0,5.88.38,2.75h.37v-3.14l-.37.39Zm1.87-25.9v3.14h.75v-3.14Zm.37-43.57v.79h.38v-.79Zm0,61.62v.4h.75v-.4Zm4.48-17.27v1.57h.74v-.78Zm0,5.5V362h1.12v-.79l-.75-.78Zm.37,17.27v.78l.75.79.37-.4v-.39l-.75-.78Zm4.48-14.52v.78h.37v-.78Zm2.23-8.25v.79h.37v-.79Zm1.12-35.32-.38,4.31.38,3.54.37-.4h.37l-.37-.39v-.39l.37-1.18-.37-5.49Z"/><path class="cls-1" d="M583.71,289h4.85l.37.39.37-.39h.38l1.49.39,2.61-.39h16.41l-.38,2,1.12.39V289h1.12l.75.79,1.49-.79.37.39h1.12l1.12-.39v.39l.37,1.57v16.49l-1.12,1.17h-3.73l-1.11-.78-1.12.78H608c-.5,0-.74-.39-.74-1.17l-.38-.4h-.37l-.37,1.57h-2.24v14.92l-.37.39.37.39v2.75l1.87.39.37-.39.37.39H608l.37-.39.37.39h1.5l.37-.39.37.39h.38l3.73-.39c1,.26,1.49,1,1.49,2.36v10.2c0,.53-.5.79-1.49.79v2.35l1.49,2-1.87,1.56-.37-.39H612.8l-.38.39-1.49-.78-1.49.39-.75-.78v-.39l.38-1.58-.75-2.74h-.74l.37,3.92v.79c0,.52-.37.78-1.12.78l-.37-.39h-.37q-3,.9-3,3.53l.38,2-.38,1.18.38,4.71v3.93l.37,11.38-.75,1.57.38.39v2h-.75l-.74-3.53c-.61,0-1,.53-1.12,1.57.6,1.83,1.09,2.75,1.49,2.75l1.12-.39V377l.74,1.57,1.87-.78,1.12,1.17.74-2c-.5-.52-.74-2.22-.74-5.1l-.38-.4h-.37v3.14l-.37,2h-.37q-.81,0-1.5-8.25l1.12-.39.38.39h.37l3-.39.37,1.57h.37v-1.18c.75,0,1.12,1.18,1.12,3.54l1.12-.4v-2.74l.75-.79.74.79-.37.39v.39l.75,5.5-.75,2.35.75,3.14-.38,3.93h-1.12v-2h-.74l.37,2c-.74,0-1.12.52-1.12,1.57-.49,0-.74.39-.74,1.17l-1.87.4H594.53c-1.25,0-1.87-.27-1.87-.79l-2.24.79h-5.59l-1.12-1.18V373l-.37-1.57.75-3.92-.38-.39v-1.57h.38c.49,0,.74.78.74,2.35h.38v-7.85h-.38l-.37.39h-.37c0-1.3-.25-2-.75-2,.25-2.88.62-4.32,1.12-4.32h.75v-1.57h-1.5v-3.53l1.12-1.57-.74-3.92.37-.4-.75-4.71v-.78h.38l-.38-4.71V318.47l.75-2.36-.75-2.35v-9l.38-2.75h-.38l.38-.39-.75-8.24.37-2.36-.37-.39v-.39Zm.38,71.83h.37V362h-.37Zm0,2.35h.37V364h-.37Zm.74-66.33-.37,4.71h.37l-.37,1.18.37,1.17h.38l.37-2h-.37l.37-.39v-.39l-.37-4.32Zm0,10.6v1.57l.75-.79Zm0,2.35v2.36l.38,2H586V313l-.74-1.17.37-1.58-.37-.39Zm.38,62v.78h.37v-.78Zm.74-41.22-.37,2,.75.78h.37v-2.75Zm0,7.85v.79h.75v-.79Zm3-48.27c0,.78-.24,1.17-.74,1.17l-1.12-.78-.37.39v.39l.37.4v.39l.37-.39h.38l1.86.39v-2ZM586.7,351v.4h.74v-1.18Zm0,2v1.17l.37,2.36-.37.39v.39l.74,4.71-.37,2.36v2.36h.75v-13l-.75-.78Zm.37-16.1h2.23l-.37-2.74v-2.75Q587.92,331.42,587.07,336.91Zm.37-36.89v.79h.38V300Zm0,69.86v1.18h.38l.37-1.18Zm0,8.64v4.71h.75v-4.71Zm.38-65.55v3.53h.74V313Zm.37,7.07v1.17h.37V320Zm0,6.67v.78h.74v-.78Zm.37,11.77v.79h.37v-.79Zm0,3.54v.78h.74Zm.37,6.27-.37,1.18.74,9.42v3.54l.75.78v-6.28l-.37-2.35.37-1.57-.75-4.72Zm2.61,17.28v2.35l-.37,2h-.75l-.37-.39h-.37v1.18l.37-.4h1.12l.37,2.36h.38a2.53,2.53,0,0,1,1.12-2.36l-.75-2.35v-2.35Zm-1.86,14.13v1.17h.37V379.7Zm0,2.35v3.53h.74v-.39l-.37-1.57.37-1.18-.37-.39Zm.74-54.16v.39h.75v-.39Zm0,5.89v.39l.38,2.74h.74v-.78l-.37-.39.37-.4V335l-.37-1.17Zm.75,9v.79h.37v-.79Zm0,4.32v2l.75-.79v-.39Zm.37-50.63.38,3.92v2.75h.74l-.37-5.89v-1.18l-.37.4Zm0,77.71v1.18c0,4.19.38,6.28,1.12,6.28l.38-5.5c-.32-1.31-.7-2-1.12-2Zm.75-67.51v.79h.37v-.79Zm.75,21.2-.38.39v.78h1.12v-.39Zm0,7.06v.39l.37,2h.37l.37-1.17-.37-2Zm.37,6.67L593,342.8l.37,1.18h.37l.37-1.18-.37-1.18Zm0,3.93v2h.37l.75-.78v-.79Zm0,23.16,1.12.78h.37l-.37-1.18.37-2h-.37C593.78,366.61,593.41,367.4,593.41,368.71Zm.74-16.49v2.36c.5,0,.75-.4.75-1.18l-.37-1.18Zm0,3.14v2.36h.38l.37-2-.37-.4Zm0,3.14v6.28h.75v-.39l.37-3.53C595,359.28,594.58,358.5,594.15,358.5Zm.38-51.81v1.18l.74.78v-2Zm.37,5.5v6.28l.75.78V313Zm.37,17.27-.37,4.32.37,1.17,1.12-1.17C596.14,330.89,595.77,329.46,595.27,329.46Zm0,6.28v1.17l.75-.78-.37-.39Zm0,2.35v.79H596Zm.38,4.32v.78h.74v-.78Zm.37-51V293l.37,2h.38l.37-3.14-.37-.4Zm.75,65.94v.4l-.38,4.31.38,1.18h.74v-5.89Zm.37,16.1v2.74h.74v-2Zm.37-42.39.37,2.35-.37,1.18.37.39h.75l-.37-4.71Zm.37-2.36v.79h.38v-.79Zm0,7.46v4.71l.75,6.67H599l.37-1.18-.37-2,.37-1.18-.74-7.06Zm.75,12.16-.37,1.18,1.11.79v-1.18Zm.37,11-.37,1.58.74,7.45-.37,2.36.37.39h.38v-11Zm0-7.06v1.18h.37v-1.18Zm0,4.32v1.18h.37v-1.18Zm.37,16.09-.37,4.71.37.4h.38l.74-4.32Zm.38-59.27v1.18h.74v-.39Zm.74,22.77v.39h.75v-.39Zm.38-43.57v.79h.37v-.79Zm0,3.93v.39l.74.78v-1.17Zm0,55.34.37,3.93v.78H602v-2l.37-2.75-.37-.39h-.38l-.37.39Zm.37,8.63v4.71l.37,2.75H602l.37-1.57L602,363.6v-3.92Zm.37,7.85v1.57H602v-1.57Zm.38-59.66v1.57h.37v-1.57Zm.37,6.67-.37,2,.37.39h.37v-2.36Zm0,13.74v2.75h.74v-2.75Zm.37,9.42v.4h.75v-.4Zm.75-42v1.17h.74v-.39Zm.37,5.1-.37.39v.79l.74.78.38-.39v-.79Zm0,2.74v.79h.37v-.79Zm1.12,33v1.58h.75v-.79Zm.37,5.89.38.4h.37v-1.18Zm.38-49.45v3.14h.74v-2.36Zm0,50.24v.79h.37V344Zm.74,25.12v1.17h.37l.38-1.17Zm2.23,7.06.38,3.54h.37l.75-.79v-2l-.75-.79Zm.75,7.85v1.57h.37l.38-1.17-.38-.4Zm.75-46.31v.78h2.23V337.3h-.37Zm0,4.32v1.17h.37l.75-.78-.38-.39Zm.37-45.53v2.74h.75v-2Zm.37,76.53v5.11l1.12,1.17.75-1.17V377a6.84,6.84,0,0,1-1.49-3.93Zm6.34-2.75H618l.37,3.93v.39l-.37.4.37.39v5.89l.37.39-.37.39v5.1l-1.86.4c-1.25,0-1.87-.27-1.87-.79l-1.49.79c-1.24-.34-1.86-.73-1.86-1.18,1.24,0,1.86-.39,1.86-1.18l1.49.79.38-.4v-.39l-.38-5.89.75-1.56-.75-3.93.38-1.18h.74l1.12.79.37-2Zm-5.22-27.47.75.79h.74V342h-.74Zm3-51.42v1.18h.37v-1.18Zm.74,78.5.37.39v.4l-.74.78-.37-.39v-.39Zm.75,6.68v.78h-.38l.38,1.18h.37l.74-.78v-.4l-.74-.78Zm.37-8.64h.37l.75.79v.39h-.38l-.74-.79Z"/><path class="cls-1" d="M627.55,293.12h3.35l.38.4.37-.4h3.73c.49,0,.74.53.74,1.57.5,0,.75-.52.75-1.57h.37l1.49.4.38-.4h.37l1.12.4,2.24-.4v.4l.37,1.57v2.35c1.24,0,2.11,2.35,2.61,7.07l8.2,33,1.12-.4-.74-1.57.37-1.18-.37-4.71v-9.81l.37-.39-.37-.39v-5.89l.37-7.46-.37-1.57c.53,0,.9-1.18,1.11-3.53l-.74-.79v-3.14l1.12-3.53H657l.38.4.37-.4h.75l1.49.4.37-.4h.37l.38.4h.37l3.36-.4,2.23.4,1.49-.4,1.12.4,1.12-.4.75,1.57-.38,2v.79l.38.39-.38.39V308c-.5,0-.74-.4-.74-1.18h-.75V310c1,0,1.49.26,1.49.78v2.75l-.37.39.37.4v3.14l-.74.78-.37-.39v1.57c1,0,1.49.39,1.49,1.18l-.38,2.35.38.39-1.12,3.15v.78c.74,0,1.12.39,1.12,1.18-.18,1.83-.43,2.74-.75,2.74l.75,1.18-.38.39v12.56l-.37,3.54.37,3.92V372l.38,1.56-.38,1.57v1.18l.38.39-.38.4v.39l.38,12.17v.78l-.75.79-.37-.39-2.24.78-.37-.39-.38.39h-.37l-1.12-.39-4.1.39-3-.39-3,.39h-.38c-1.49,0-2.23-.78-2.23-2.36l.37-1.57-1.12-1.17v-.4h1.12V383.4h-.75c0,1-.25,1.57-.74,1.57l-1.49-6.68.37-2.74q-2,0-3-9.82-.52,0-4.09-15.69l-.38-.4v-.39h-.74l.37,5.89-.37,3.92h.37l-.37.4V361l.37.39-.37.39.37,4.71V385l-.37,3.53.37,2.36-1.12.78-2.24-.39-4.84.39-1.87-.39-2.24.39h-3.35l-1.12-1.18.37-1.18-.37-3.92V371.23l.37-2.35-.37-2v-2l.37-.39-.37-.4V363l.37-.4-.74-4.31h.37l-.37-.39v-1.18c0-.53.49-.79,1.49-.79v-.39l-1.49-.39.74-6.28-.37-.39v-.79h.37l-.37-5.89V318.63l.37-.39-.37-.39V315.1l.37-.39-.37-.39v-2.75l.37-1.18-.37-2v-4.71l.74-2.36-.74-2,.74-.78v-.4c0-1.3-.24-2-.74-2C626.68,294.17,627.05,293.12,627.55,293.12Zm-.38,16.49V310l.75.78.37-.39v-.78Zm.38,8.24-.38.39v.39l.38.4h.37l.37-.4v-.39l-.37-.39Zm0-5.89v.79h.37V312Zm0,65.55v1.18h.74v-1.18Zm.37-47.89v2.75h.74l-.37-1.57.37-1.18ZM629,347.29v1.18l.74-.79-.37-.39Zm0,2.35v.79h.74Zm.37-50.24V301h.37V299.4Zm0,11.38v.79h.37v-.79Zm.75,8.64v.78h.37v-.78Zm.37,15.31-.37.39v.39l.74.79.38-.39v-.4Zm.75-39.25v2l.37,2.75H632l.37-1.57C632.25,296.52,631.88,295.48,631.28,295.48Zm0,59.26v1.18l.74.79.37-.4v-1.57Zm.37-49.84v1.57l.74.78V304.9Zm.37,15.7-.37,2,.37.39h.75V320.6Zm.37,65.54v.79h.38v-.79Zm.38-54.55v.78h.37v-.78Zm.37,15.31v2.35l.75-.78V346.9Zm.75-47.5-.38,2,.38,1.18h.74V299.4Zm-.38,57.31v1.57h.75v-1.57Zm0,4.32.38.39h.37v-1.18Zm.38.78-.38,1.57h1.12V363l-.37-1.18Zm0-57.7V308l.74.78v-5.49Zm.37,9.42-.37,1.57H635v-.39l-.38-1.18Zm-.37,5.89v.39l.74.79.38-.4v-.39l-.38-.39Zm0,47.1v.78h.37v-.78Zm3.72-23.94v3.92c0,.79-.74,1.18-2.23,1.18v.79a3.63,3.63,0,0,1,3,1.17h.37l-.37-.39.37-1.18-.37-4.32v-1.17Zm-2.23,2.74v.79h.37v-.79Zm.74-40.81v2.35l.75.78v-3.13Zm.38,9.41-.38.4v.39l.75.79.37-.4v-.39Zm-.38,40.82v1.18h.75v-1.18ZM636.5,299v1.57h.37V299Zm.37,86.74v.79h.74v-.79Zm1.12-33V354h.74v-.39Zm.37-58.09v2.36h.75v-1.57Zm0,3.93v1.17l.75.79.37-.39v-.79l-.75-.78Zm0,63.19v1.57h1.12v-1.57Zm.75,22.76v.79h.37v-.79Zm1.49-89.09v.78l.74.79v-.79Zm.37,12.95v.78h.37v-.78Zm0,5.89v.78l.75.79.37-.39v-1.18Zm.37,6.28V323h.75v-3.14Zm0,6.28.38,2h.37v-2Zm.38,8.24v.79h.74v-.79Zm1.49-20.41.75.79h.37l.37-1.18-.37-.4H644Zm.75,22v.39l.74.79.37-.39v-.79Zm2.6-12.17v.79h.38v-.79Zm.38,17.27v.79h.37v-.79Zm.74,20v.78h.75v-.78Zm1.12-33v.78l.75.79h.37v-1.57Zm0,11.77.75.79v-1.57Zm1.12,30.23V372l.75.78.37-.39v-.79l-.75-.78ZM651.41,341v.78h.37V341Zm0,2.74v5.5h.75v-2l-.38-2.75.38-.39-.38-.4Zm0,7.07v.78l.37,2h.75v-.79l-.37-2Zm1.12,18.06v1.57h.37v-1.57Zm0,4.31v2.36h.75v-.4l-.38-2ZM654,345.72v1.57h1.12v-1.18Zm0,7.06v.79l.75.78.74-.78-1.11-.79Zm.75,16.1v1.17h.74v-.39Zm0,13.73.37,1.18h1.12V383l-.75-.79-.37.39Zm.74,2v.79h1.12V385Zm.75-39.25v1.18H657v-1.18Zm.74,9.42v1.57l.75-.78v-.79Zm.38,2.36-.38,2h.75v-2Zm-.38,5.1v3.93h.75V362.2Zm0,5.5v2l.38,2.75h.37V367.7Zm.75-50.63-.37,1.56.37.4,1.87-.79.37.39v.4l-.37,2h.74l.37-1.18-.37-.39.37-.39c-.5,0-.74-.66-.74-2h-.37v.78h-.38l-1.12-.78Zm0,2.74v.39h.75v-.39Zm0,2V323h.75v-1.18Zm0,2v2l.37,2.36-.37,1.17h.75l.37-3.14-.37-2.35Zm1.12,29V354h.37v-1.18Zm.37-58.09.38.4H660l.37-.4v-.78H660Zm.38,8.64v.78h.74v-.78Zm0,3.92V308h.74v-.79Zm.37,16.09v2h.74v-2Zm.74,17.67v1.17h.75V341Zm.75,15.3V361l.75.78.37-.39H663a11.39,11.39,0,0,1-1.12-5.11Zm.37,11.39-.37,2.75c.5.63.75,3,.75,7.06h.37l.37-2v-4.32l-.37-2.75.37-.39-.37-.39Zm0-4.32v1.18h.75v-1.18Zm.38,14.91v3.54H663v-3.54Zm.37-45.53v1.18h.75v-1.18Zm0,53v3.93h.75l.37-1.57-.37-2.36Zm1.49-17.66v2h.75v-1.17Zm.75-49.85V319h.74v-.79Zm0,3.93.37.39h.37v-1.18Zm1.48,38.46v.79h.75v-.79ZM666.7,372v.78l.37.39-.37,1.18.37,1.18h.75l.37-2c-.35-1-.73-1.56-1.12-1.56Zm.37-59.67v2.75h.75v-2.75Zm0,4.72v.39l.37,2h.75v-2.35Zm0,63.19V381h.37v-.78Zm.37-58.49v.79h.75v-.79Zm1.5,46.32-.38,1.18c0,2.87.38,4.31,1.12,4.31v-4.7Zm.37,7.06v1.18h.37v-1.18Zm.37-70.25v.78h.38v-.78Zm0,9.42v2l.75.79v-2Zm.75-6.28h.37v.78h-.37Z"/><path class="cls-1" d="M678.83,299.85h.37l.75.78v.79h-1.12Zm0,2h.75v.79H680l-.37,2h-.75Zm0,3.54H680c0,1.3.62,2,1.86,2l.37,2v.78l-2.6.4-.75-1.18Zm2.24-14.13.74.78v3.53h.37l1.12-1.17,1.49.78c0-2.61.25-3.92.75-3.92s.83,1.17,1.12,3.53H687c0-2.36.25-3.53.75-3.53h.74l.38,2H690v-2h1.11v1.57q.86,4.71,1.87,4.71c-.64,1.68-1.26,2.59-1.87,2.74l-.74-.78v-2h-.75v3.13a3,3,0,0,1-1.12,2.36c-1-.26-1.49-.79-1.49-1.57l.37-1.18-.37-.39h-.37l-.37,3.93-1.12-1.18.37-.4-.37-1.17h-.75v.39l.37,1.18-.37,2.35.75.79,1.49-.39v.39l-.37,2.35.37,1.57h-.75l-.74-2,.37-1.57h-1.12v3.92H683.3v-5.49h-1.12v1.18h-.74l-.75-2.75.38-1.18h.37c.5,0,.74.66.74,2h1.12l.75-2.75-1.49-1.18h-1.12c0,.78-.25,1.18-.75,1.18h-.37v-.4l1.12-1.57c-.54,0-1-1-1.49-3.13l.37-1.57H680C680.2,292.26,680.57,291.22,681.07,291.22Zm2.23.39h.37v1.57h-.37Zm5.6,16.09.74,1.18v.39l-.74.78h-.75l-.37-1.56Zm11.56-16.88.37.4-.37,1.17.74,4.32h1.12l.37-2-.74-3.53.37-.4h1.49l1.49.4,2.61-.4h14.54l.38,2v15.7l-.38,2a39.85,39.85,0,0,1-8.94-.79l-1.5.39-.37-.39c-.74.9-1.12,3.52-1.12,7.85h.38c0,.79-.38,1.18-1.12,1.18v1.18h.74v.78l.38,2.36-1.49,3.14h-.75c-.25-2.09-.62-3.14-1.12-3.14h-.37v.78h-.38l.38.4v3.53l-.75.78c0-.78-.25-1.17-.74-1.17s-.95.65-1.12,2h-.38l-.74-2.75v-2h-.75c-.42,0-.8.92-1.12,2.75q-1.11,0-1.11,1.17h-.38l-2.23-2.74-.75,2.74h-.37l-.38-1.17.38-.4v-1.17l-.75-1.18v-3.14h-1.12v2.75H693v2l1.86.78v.4c-.74,0-1.37.52-1.86,1.57v5.88c.14,1.57.51,2.36,1.12,2.36.07-1.31.32-2,.74-2l-.37-2v-1.57h.37l.75.79v2h.74l.38-3.14h.37c.42,0,.92.78,1.49,2.35H699l.37-3.53h1.12l-.38.4v.39l.75.78h.37l-.37-2.74h1.49l-.37.39v.39c.46,0,.83,1.18,1.11,3.53l-.37.39v.4l.37,6.28v2h.38l.74-.78v-.4l-.37-3.92.37-2.36h.75l.37,2.75v1.18h.75v-2l1.12-1.18.74,2h.38l.74-2.75h.75c.42,1.83.8,2.75,1.12,2.75l-.75,3.14.75,6.28-.38.39.38,4.71v11.78l-.38,3.53.38,3.93v16.87l-1.12,1.18H691.51l-1.12-.79.37-.39-.37-4.71V348.52l.37-4.32-.37-2,.37-.39v-.39l-.37-1.18a14,14,0,0,0,1.49-7.07,16.34,16.34,0,0,1-1.49-5.49l.37-1.18.37-15.7h.75l.37,1.18-.37.39v.39l1.12,2.75-.38,1.18h.75v-1.18l.37-2h.75l.37,2.35h.75l.37-2v-.39c0-.52-.74-.79-2.24-.79V312h-.37l.75-1.18-1.5-2.75h.75v-.39l.37.39h.75l1.49-.39,2.24,1.18,2.61-2,1.49.39v-1.18l-.75-.78-1.11.78-1.49-.78-.38.39h-.37l-1.12-.39-.75.78H696l-.37-1.57.37-.39h-.74v-2.36c-.43-2.35-.93-3.53-1.5-3.53l.75-1.57q-2.24,0-2.24-5.49H693l.74.78v2h.75l.37-2.35h.75l.74,2.35h1.12v-1.57h.38c.49,0,.74,1.31.74,3.93l.75-.79-.37-2.74c.49,0,.74-.53.74-1.57l.37-.4Zm-9,14.53.74.78v.39l-.37.4.37.39v1.18l-.37,2h-.37l-1.12-1.18.74-2.35-.37-1.18.37-.39ZM693,321v1.18h1.12v-.39l-.75-.79Zm.74,16.88v1.18h.38v-1.18Zm.38,9v3.14h.74V347Zm.37,14.92v.78h.75v-.78Zm3-51.42.38,1.17h.37v-1.17Zm.38,2-.38,1.18.38,1.18h.37c0-1,.25-1.58.75-1.58l1.11.79v-.39C700.08,313.14,699.34,312.75,697.85,312.41Zm.74,31.4v1.57h.75v-.79Zm2.24-5.49v3.92h.74v-2l-.37-2Zm.37-27.87v1.17H702v.4l-.75,1.17a6.2,6.2,0,0,1,.75,3.54h.37l.37-2.75-.37-3.93Zm.37,17.66h1.12v.39h-1.12ZM703.44,347v1.18h.74V347Zm.37-34.54v1.18l1.12,1.18.75-.79V312.8Zm.37,19.23h.38l.74.79-.37,2h-.75l.38-.39-.38-.4Zm.75-13.34v1.57h.37V318.3Zm0,2v2l.75-.78V321Zm1.49-6.67h1.12v-.79h-.37Zm0,18.44h.37v.79h-.37Zm0,29.84v2.35l1.12,1.18.37-1.18C707.59,362.65,707.1,361.87,706.42,361.87Zm1.49-23.95-.37,1.18.37.39h.38l.37-.39-.37-1.18Zm.38,5.89-.38.39v.39l.75.79H709v-.79Zm1.12-15.31h.37l1.12,1.18-1.12,4.71H709c0-1.05-.25-1.57-.74-1.57C708.53,329.94,708.91,328.5,709.41,328.5Zm-.75-22.37v1.18H709v-1.18Zm3,.79v.78H712v-.78Z"/><path class="cls-1" d="M733,294.92l.38.39h.37l1.12-.39.37,1.57h1.12c.5,0,.75-.4.75-1.18h.74v2h.37l1.12-.78h.38l.74,6.28h.37l.38-2.36H742l.75,1.57v.39l-.37,4.32,1.12,1.57.37-2.75-.37-3.53h2.23l-.37-.39v-1.18h.74v-1.18l-1.11-1.17q0,1.17-.75,1.17l-1.49-1.17h-.37l-.38.39h-.37l-.75-2.75-1.86.39-.37-.39v-.39h.74v-.39l.38.39h1.86l2.61-.39.75,2.74h.37l.74-2.35h3c.14,1.05.51,1.57,1.12,1.57l.74-.79,1.49,1.57h.38v-.78h.74v1.18l.75,3.14v3.13h1.12c0-1.56.25-2.35.74-2.35h3.73l1.12-.78c.25,2.35.62,3.53,1.12,3.53l1.12-.4a7.79,7.79,0,0,1,1.12,3.93c.49,0,.74-.52.74-1.57l.37-.39h.38c.49,0,.74.65.74,2h1.12l.37-2.35-.37-.4v-.39l.37-.39v-.4l-.74-4.7h.37q2.46,0,6,12.56v1.57l-1.49.39v2.35h.74v-2h.75l.37,2v3.93l.37.39-.37.39v.4q-.59,15.69-2.61,15.69H771V335h-.38q0,5.51-2.61,5.5L764.33,342v.39Q774,347,774,355.36l-.74,3.92.37,1.18-2.24.4.37.39c1.5,0,2.24,2.35,2.24,7.06V379.7l.37,1.57-.37,1.57v5.49l.37,2.36c-.32,1.3-.69,2-1.11,2l-.75-.79c0,.79-.25,1.18-.75,1.18l-.37-.39-1.86.78-1.5-.39-1.49.39-.37-.39V389.9h-.37l-.38.39h-.37l.37,2v.39l-.37.39v.39L764,393l-2.61.39V393l-.37.39h-3.36c-1.49,0-2.23-.91-2.23-2.74l.37-2-.37-3.54v-1.57l.74-.78h1.12l1.12.78.37-.39v-1.18q0-.78-2.61-.78a23,23,0,0,1-.74-7.07V357.72l.37-.4q-.75-8.24-3.73-8.24v-.39l-.37.39h-2.24v31.79c0,.53-.5.79-1.49.79v.78a4.46,4.46,0,0,1,1.49,3.54l-.37,2,.37,2.35v2l-1.12,1.17H746.8l-1.86-.39-2.24.39h-1.87l-1.49-1.17h-.74V393h-.75v-.78c0-.53.37-.79,1.12-.79l.37-.39v-.39l-.37-.4-.37.4h-2.24v2l-.74.78-.38-.39-1.86.39h-3c-.49,0-.86-1.3-1.12-3.92l.38-1.18-.38-1.57.75-4.71-.75-5.89c.15-2.87.4-4.31.75-4.31l-.75-7.85h.38l-.38-.4v-.39l.38-.39-.38-.39v-4.71l.38-.4-.38-.39V351l-.37-3.92q.65-9.93,2.24-12.95l-.37-.39v-.4h1.12c0,.79.24,1.18.74,1.18l.37-2,1.87.39.37-.39v-.79l-.74-.78-1.12.39v-1.57c0-.52.37-.79,1.12-.79v-1.17c-1.07,0-1.69-1.31-1.87-3.93l-.37-.39h-.37l-.38.39.38.39v.4a4.21,4.21,0,0,0-.75,2.74h-1.49l-.38-13.34.38-1.18-.38-2.35V298.06l.38-2,1.49,1.18C731.74,295.7,732.37,294.92,733,294.92Zm-3.35,34.54h.74l.75.78v.39h-1.49Zm.37,26.69v.78l.75,2,1.12-.78-.75-2Zm.75,6.28-.38,1.57.38.39h.37v-2Zm0-64.37v1.57h.37v-1.57Zm0,62v1.18h1.12v-.79Zm.37,9,.37,2h-.74v1.18h1.12V369.1Zm0-56.91v1.17h.37v-1.17Zm.37,69.47v.78h.38v-.78Zm.38,2.35.74.79h1.12V384Zm.74-34.93v1.57H733l1.5-.39L736,351v-.78l-.37-2h-1.5Zm0,7.85v.39h1.49v-.39l-.74-.78Zm.75-60.44h.74v-.79Zm0,4.71v5.1h.74V302Zm0,10.6v.39l.37,1.57-.37,1.56v.4l.74.78.38-.39h.37l-.75-2.35.38-1.57-.38-.39Zm.74,10.2v2h.38v-2Zm0,12.95.38.39h.74v-1.17h-.37Zm0,55.74v.39l.75.78h.37v-1.17ZM735.24,302l.75,1.18v7.06l.37,4.32-.37,2,.37.4h.37v-.79h.38l-.38-.39v-.79l.38-3.53-.38-3.92V306.3l.38-2.36-.75-2.74H736Zm.38,50.63v1.18l.74-.78v-.4Zm0,2.36v2.35H736V355Zm.74-25.51.37.39h.38v-1.18Zm.37,6.28v.39h.75v-.39Zm.75,6.67v1.18l.74-.79v-.39Zm.74-39.25-.37.39v1.57c0,2.1.62,3.14,1.87,3.14v1.18l-1.5.39V311H739v.39l-.75,1.18,1.12,1.18.75-.79h.37v2.35c0,.53.75.79,2.24.79l1.12,1.18,1.12-.79h.37c.25,2.62.62,3.93,1.12,3.93h.37v-2.36l.37-.39L746.05,313l.38-2.35v-2h-.75v.4l-.37,3.92h.37l-.74,1.18.37.39v1.18h-.74c-.61,0-1-.52-1.12-1.57h-.75v.78h-.37l-.38-2h.75v.79h1.12c.07-1.05.32-1.57.75-1.57-.68-1.91-1.43-3.09-2.24-3.54l-1.87-5.1a3,3,0,0,1-.74,2.36l-1.12-.4.37-.39v-1.18Zm-.37,50.63V355h.37v-1.18Zm.37,7.07v2.35h.38l.74-.78v-.79l-.74-.78Zm.38-45.14v.78H739l.37-.39h.38l-.38-1.18Zm.74,65.15-.74,1.18.37.39h1.12v-.78Zm-.74,3.54.37,1.17h.37l.75-.78V384h-.75l-.37.4Zm0,3.14v2h.74l.75-.78v-2h-.75Zm2.61-59.27v1.18c0,1.31-.25,2-.75,2l-1.12-.39-.37.39v2.75l.75.78c0-1.05.24-1.57.74-1.57s.75.52.75,1.57l.37.39h.75l.74-.78-.74-1.57.37-1.18c-.25-2.35-.62-3.53-1.12-3.53ZM739.34,311h1.12v1.57h-.37l-.75-.78Zm0,41.21.75.79.37-.4v-1.17h-.37Zm.38-9.42V344h.37V342.8Zm1.11,39.25.75.79H742l.75-.79-.75-.78h-.37Zm1.5-33.76.37,1.18-1.12,2.36.75,2.75h.74l.38-2,.37.4h1.49v-1.57l-.37-.4v-.39c-.75,0-1.12.39-1.12,1.18l-.75-.79v-2.75Zm-.38-11v.79h.38v-.79Zm.38-41.6.37,1.18h.37V295.7Zm.37,62.41v.78h.37v-.78Zm.75-23.94v.39l.74.78v-1.17Zm.37-2.36V333h.37v-1.18Zm0,49.06v1.18h.75v-1.18Zm1.49-76.93v.39h.74v-1.17Zm2.61-8.24v1.18h.37l.37-1.18ZM749,312.58v2.35h-.75v2l-.37.39v.39l.37.39h.37l.38-.39.37,4.71H749l.37.4v.78L749,324l.37.39v5.11c0,1.83-.25,2.74-.75,2.74l.38,1.18h4.1a3.31,3.31,0,0,0,1.86-2.75h.75l-.37,1.18q.27,5.9,1.11,5.89l1.12-1.18a25.83,25.83,0,0,1-1.12-7.06l.38-.4h3c0,.79.25,1.18.75,1.18H761v-1.18l-.37-2.75h-.38c0,1.05-.24,1.58-.74,1.58s-.94-.66-1.12-2l.37-1.17-.74-4.32h-.75l-.37,3.53h-.38l-.37-.39h-.37l.37-2v-2c0-1.3-.25-2-.74-2l.37-.39q-.86-5.49-5.22-5.49h-.75Zm-.38,21.2-.37,3.52h1.12v-1.56l-.37-2Zm1.12-27.87v.39l.75.78h.37v-1.17Zm2.24-7.07-.37,1.57.37.4-.37.39h1.12l-.38-.39.38-.4v-.78Zm-.37,48.28v.78h.74Zm1.12-12.56v.78l.37,2h1.12l.37-1.56-.74-2h-.38Zm1.12,9.42v4.31h.74v-3.52Zm2.23-3.14v1.57l.75.78v-2.35Zm.37,16.09v1.57l.75.78h.37l.38-1.17-.38-2h-.37Zm.38,9,.37,2-.75.79.75,2.74.37-.39H758l-.38-2.75V366Zm.74-35.33.38,3.93h-.38c.32,1.83.7,2.74,1.12,2.74h.38v-2l-.38-2.35.38-2-.38-.4Zm.75,17.27.75.79v-1.57Zm.37-8.63v1.18h.38v-1.18Zm0,18.05v1.18l.75.78h.37l.75-.78-.38-1.18Zm.38-7.06h.74v-.79Zm.37,12.56v.78l-.37,2,.37,2.35v1.57h.74l.38-6.28-.38-.39Zm.74-66.73H761c.5,0,.75.4.75,1.18l-.38,2h-.74l-.75-.78Zm-.37,18.06v.78h.37v-.78Zm0,6.28v3.92l.75.79.37-2v-2l-.75-.78Zm.37,10.6v1.57H761V331Zm2.62.39c0,1.83-.26,2.75-.75,2.75h-1.87l.38,2-.38.39.75.78.37-.39h.75c.57,0,.94.92,1.12,2.75h.37c0-2.09.37-3.14,1.12-3.14.5,0,.74.39.74,1.18h.75c0-1.83-.62-2.75-1.86-2.75-.72,0-1.09-1.17-1.12-3.53Zm-2.62,7.85v.78h1.12l.38-1.17-.38-.4H761Zm1.87,19.23.75.78v-.78Zm1.12-62c2.23,1.19,3.35,2.11,3.35,2.74l-.37.4h-.37q-3.36-.67-3.36-2.75l.38-.39Zm-.75,25.12.75.78.37-.39v-.39Zm.38,2.35v.79h.37V324Zm0,66.73v.78l1.86-.39v-.39l-.75-.79h-.37Zm1.86-71.05-.75,2,.38,2h.74l1.12-1.18C765.83,320.56,765.34,319.64,764.7,319.64Zm-.37-10.59v.78h.37v-.78Zm.37,8.63v.79h.37v-.79Zm1.12-15.7h.37v.79l-.75.78-.37-.39v-.39Zm1.11,20.41c0,1.31-.62,2-1.86,2l.75.79v-.39c1.24,0,1.86.78,1.86,2.35h.75v-2.35c0-1.35-.38-2.14-1.12-2.36Zm-1.49,5.1v2.75h.38v-2.75Zm0,3.54v2.75h.38V331Zm.38,13.74.37,3.92.74-.79v-.78l-.37-.39.37-.4v-.78l-.74-.78Zm.37,4.7-.37,3.54.37.39h.37l.37-.39v-2.75Zm-.37,9v.39l.74.79h.37V358.5Zm2.23,29.44v1.18h.38v-1.18Zm.75-29.05v.39h.75v-.39Zm.75-53v.78h.74v-.78Zm.37,18.44v2l-.37.4.37.39v2.36l-.37,2.35,1.11,2.75H771l.37-3.14-.37-1.18.37-3.14-.37-2.75Zm0-7.06v1.18l.74-.79v-.39Zm.74,51.81.38.39h.37l.37-.39v-.79h-.37Zm.38-10.21v.79h.74v-.79Zm0,6.68V366h.37l.75-.79v-.39h-.38Zm.37-2.75V364h1.12v-1.18Zm.75-38.86v1.57h.37V324Zm0,2v.79h.37v-.79Z"/><path class="cls-1" d="M781.28,289h4.85l.37.39.37-.39h.38l1.49.39,2.61-.39h16.41l-.38,2,1.12.39V289h1.12l.75.79,1.49-.79.37.39h1.12l1.12-.39v.39l.37,1.57v16.49l-1.12,1.17H810l-1.11-.78-1.12.78h-2.24q-.75,0-.75-1.17l-.37-.4H804l-.37,1.57h-2.24v14.92l-.37.39.37.39v2.75l1.86.39.38-.39.37.39h1.49l.37-.39.37.39h1.5l.37-.39.37.39h.38l3.73-.39c1,.26,1.48,1,1.48,2.36v10.2c0,.53-.49.79-1.48.79v2.35l1.48,2-1.86,1.56-.37-.39h-1.49l-.38.39-1.49-.78-1.49.39-.75-.78v-.39l.38-1.58-.75-2.74h-.74l.37,3.92v.79c0,.52-.37.78-1.12.78l-.37-.39h-.37q-3,.9-3,3.53l.38,2-.38,1.18.38,4.71v3.93l.37,11.38-.75,1.57.38.39v2h-.75l-.75-3.53c-.6,0-1,.53-1.11,1.57.6,1.83,1.09,2.75,1.49,2.75l1.12-.39V377l.74,1.57,1.87-.78,1.11,1.17.75-2q-.75-.78-.75-5.1l-.37-.4H804v3.14l-.37,2h-.38q-.79,0-1.49-8.25l1.12-.39.37.39h.38l3-.39.37,1.57h.37v-1.18c.75,0,1.12,1.18,1.12,3.54l1.12-.4v-2.74l.75-.79.74.79-.37.39v.39l.75,5.5-.75,2.35.75,3.14-.38,3.93H810v-2h-.74l.37,2c-.74,0-1.12.52-1.12,1.57-.5,0-.74.39-.74,1.17l-1.87.4H792.1c-1.25,0-1.87-.27-1.87-.79l-2.24.79H782.4l-1.12-1.18V373l-.37-1.57.75-3.92-.38-.39v-1.57h.38c.49,0,.74.78.74,2.35h.38v-7.85h-.38l-.37.39h-.37c0-1.3-.25-2-.75-2,.25-2.88.62-4.32,1.12-4.32h.75v-1.57h-1.5v-3.53l1.12-1.57-.74-3.92.37-.4-.75-4.71v-.78h.38l-.38-4.71V318.47l.75-2.36-.75-2.35v-9l.38-2.75h-.38l.38-.39-.75-8.24.37-2.36-.37-.39v-.39Zm.38,71.83H782V362h-.37Zm0,2.35H782V364h-.37Zm.74-66.33-.37,4.71h.37l-.37,1.18.37,1.17h.38l.37-2h-.37l.37-.39v-.39l-.37-4.32Zm0,10.6v1.57l.75-.79Zm0,2.35v2.36l.38,2h.74V313l-.74-1.17.37-1.58-.37-.39Zm.38,62v.78h.37v-.78Zm.74-41.22-.37,2,.74.78h.38v-2.75Zm0,7.85v.79h.75v-.79Zm3-48.27c0,.78-.24,1.17-.74,1.17l-1.12-.78-.37.39v.39l.37.4v.39l.37-.39h.37l1.87.39v-2ZM784.27,351v.4H785v-1.18Zm0,2v1.17l.37,2.36-.37.39v.39L785,362l-.37,2.36v2.36h.74v-13l-.74-.78Zm.37-16.1h2.23l-.37-2.74v-2.75Q785.5,331.42,784.64,336.91ZM785,300v.79h.37V300Zm0,69.86v1.18h.37l.38-1.18Zm0,8.64v4.71h.75v-4.71Zm.37-65.55v3.53h.75V313Zm.38,7.07v1.17h.37V320Zm0,6.67v.78h.74v-.78Zm.37,11.77v.79h.37v-.79Zm0,3.54v.78h.74Zm.37,6.27-.37,1.18.74,9.42v3.54l.75.78v-6.28l-.37-2.35.37-1.57-.75-4.72Zm2.61,17.28v2.35l-.37,2H788l-.37-.39h-.37v1.18l.37-.4h1.12l.37,2.36h.38a2.54,2.54,0,0,1,1.11-2.36l-.74-2.35v-2.35Zm-1.86,14.13v1.17h.37V379.7Zm0,2.35v3.53H788v-.39l-.37-1.57.37-1.18-.37-.39Zm.74-54.16v.39h.75v-.39Zm0,5.89v.39l.38,2.74h.74v-.78l-.37-.39.37-.4V335l-.37-1.17Zm.75,9v.79h.37v-.79Zm0,4.32v2l.75-.79v-.39Zm.37-50.63.38,3.92v2.75h.74l-.37-5.89v-1.18l-.37.4Zm0,77.71v1.18c0,4.19.38,6.28,1.12,6.28l.37-5.5c-.32-1.31-.69-2-1.11-2Zm.75-67.51v.79h.37v-.79Zm.74,21.2-.37.39v.78h1.12v-.39Zm0,7.06v.39l.38,2h.37l.37-1.17-.37-2Zm.38,6.67-.38,1.18L791,344h.37l.37-1.18-.37-1.18Zm0,3.93v2h.37l.75-.78v-.79Zm0,23.16,1.12.78h.37l-.37-1.18.37-2h-.37C791.35,366.61,791,367.4,791,368.71Zm.74-16.49v2.36c.5,0,.75-.4.75-1.18l-.37-1.18Zm0,3.14v2.36h.38l.37-2-.37-.4Zm0,3.14v6.28h.75v-.39l.37-3.53C792.52,359.28,792.15,358.5,791.72,358.5Zm.38-51.81v1.18l.74.78v-2Zm.37,5.5v6.28l.75.78V313Zm.37,17.27-.37,4.32.37,1.17,1.12-1.17C793.71,330.89,793.34,329.46,792.84,329.46Zm0,6.28v1.17l.75-.78-.37-.39Zm0,2.35v.79h.75Zm.38,4.32v.78H794v-.78Zm.37-51V293l.37,2h.37l.38-3.14-.38-.4Zm.74,65.94v.4L794,362l.37,1.18h.75v-5.89Zm.38,16.1v2.74h.74v-2Zm.37-42.39.37,2.35-.37,1.18.37.39h.75l-.38-4.71Zm.37-2.36v.79h.37v-.79Zm0,7.46v4.71l.75,6.67h.37l.37-1.18-.37-2,.37-1.18-.74-7.06Zm.75,12.16-.38,1.18,1.12.79v-1.18Zm.37,11-.37,1.58.74,7.45-.37,2.36.37.39h.38v-11Zm0-7.06v1.18h.37v-1.18Zm0,4.32v1.18h.37v-1.18Zm.37,16.09-.37,4.71.37.4h.38l.74-4.32Zm.38-59.27v1.18h.74v-.39Zm.74,22.77v.39h.75v-.39Zm.38-43.57v.79h.37v-.79Zm0,3.93v.39l.74.78v-1.17Zm0,55.34.37,3.93v.78h.74v-2l.38-2.75-.38-.39h-.37l-.37.39Zm.37,8.63v4.71l.37,2.75h.37l.38-1.57-.38-2.75v-3.92Zm.37,7.85v1.57h.37v-1.57Zm.37-59.66v1.57h.38v-1.57Zm.38,6.67-.38,2,.38.39h.37v-2.36Zm0,13.74v2.75h.74v-2.75Zm.37,9.42v.4h.75v-.4Zm.75-42v1.17h.74v-.39Zm.37,5.1-.37.39v.79l.74.78.38-.39v-.79Zm0,2.74v.79h.37v-.79Zm1.12,33v1.58h.74v-.79Zm.37,5.89.37.4h.38v-1.18Zm.37-49.45v3.14H804v-2.36Zm0,50.24v.79h.38V344ZM804,369.1v1.17h.37l.37-1.17Zm2.23,7.06.38,3.54H807l.75-.79v-2l-.75-.79ZM807,384v1.57h.37l.38-1.17-.38-.4Zm.75-46.31v.78H810V337.3h-.37Zm0,4.32v1.17h.37l.75-.78-.38-.39Zm.37-45.53v2.74h.75v-2ZM808.5,373v5.11l1.12,1.17.75-1.17V377a6.77,6.77,0,0,1-1.49-3.93Zm6.34-2.75h.75l.37,3.93v.39l-.37.4.37.39v5.89l.37.39-.37.39v5.1l-1.87.4c-1.24,0-1.86-.27-1.86-.79l-1.49.79c-1.24-.34-1.86-.73-1.86-1.18,1.24,0,1.86-.39,1.86-1.18l1.49.79.38-.4v-.39l-.38-5.89.75-1.56-.75-3.93.38-1.18h.74l1.12.79.37-2Zm-5.22-27.47.75.79h.74V342h-.74Zm3-51.42v1.18H813v-1.18Zm.74,78.5.37.39v.4l-.74.78-.37-.39v-.39Zm.74,6.68v.78h-.37l.37,1.18h.38l.74-.78v-.4l-.74-.78Zm.38-8.64h.37l.75.79v.39h-.38l-.74-.79Z"/><polygon class="cls-2" points="131.28 130.83 118.4 153.85 216 253.29 131.28 130.83"/><polygon class="cls-3" points="157.41 168.05 77.88 140.04 30 68.22 88.93 127.15 131.05 131.03 157.41 168.05"/><polygon class="cls-4" points="133.13 106.89 169.96 35.99 140.5 127.18 133.13 106.89"/><polygon class="cls-5" points="136.45 92.71 54.26 70.86 129.33 107.16 136.45 92.71"/><polygon class="cls-5" points="147.88 98.31 159.3 105.53 161.4 132.35 145.54 159.4 147.88 98.31"/><polygon class="cls-4" points="136.45 92.71 115.46 87.12 86.08 112.76 136.45 92.71"/><polygon class="cls-5" points="386.41 163.66 399.52 260.34 368.37 168.55 386.41 163.66"/><polygon class="cls-6" points="496.37 30 432.92 123.95 434.73 140.1 441.67 150.15 496.37 30"/><polygon class="cls-7" points="417.2 120.89 485.62 177.72 505.56 262.43 470.63 186 429.55 167.08 417.2 120.89"/><polygon class="cls-4" points="388.6 178.45 374.66 179.23 353.08 215.54 386.75 187.42 388.6 178.45"/><polygon class="cls-5" points="390.95 181.23 384.12 166.88 398.69 141.65 432.17 126.2 390.95 181.23"/><polygon class="cls-2" points="385.84 179.02 379.04 171.4 348.7 193.14 377.11 190.55 385.84 179.02"/><polygon class="cls-4" points="390.77 175.11 358.54 258.17 378.75 151.07 390.77 175.11"/><polygon class="cls-8" points="703.16 142.97 731.67 88.64 814.13 46.83 743.97 102.02 726.84 161.49 703.16 142.97"/><polygon class="cls-2" points="679.79 101.09 760.89 104.37 665.12 115.74 679.79 101.09"/><polygon class="cls-9" points="708.05 144.03 706.55 129.47 679.45 116.43 647.34 118.94 708.05 144.03"/><polygon class="cls-4" points="682.12 107.39 668.9 88.26 627.12 88.78 682.12 107.39"/><polygon class="cls-10" points="748.4 125.47 720.19 123.8 669.94 264.33 748.4 125.47"/><polygon class="cls-5" points="667.14 163.09 695.05 110.11 650.03 160.97 667.14 163.09"/></g></g></svg>