<?xml version="1.0" encoding="utf-8"?>
<!-- Generator: Adobe Illustrator 26.0.3, SVG Export Plug-In . SVG Version: 6.00 Build 0)  -->
<svg version="1.1" id="Layer_1" xmlns="http://www.w3.org/2000/svg" xmlns:xlink="http://www.w3.org/1999/xlink" x="0px" y="0px"
	 viewBox="0 0 74.8 74.8" style="enable-background:new 0 0 74.8 74.8;" xml:space="preserve">
<style type="text/css">
	.st0{opacity:0;}
	.st1{fill:#FFFFFF;}
	.st2{fill:url(#SVGID_1_);}
	.st3{fill:#FF6E00;}
	.st4{fill:url(#SVGID_00000129199675612064086220000005709166211580070272_);}
	.st5{opacity:0.9;fill-rule:evenodd;clip-rule:evenodd;fill:#FFFFFF;enable-background:new    ;}
	.st6{fill:url(#SVGID_00000045620607666987903860000011948421296691335342_);}
</style>
<g id="Layer_2_00000133493812875496442090000001978690501344283562_">
	<g id="Layer_1-2">
		<g class="st0">
			<path class="st1" d="M37.4,0c20.7,0,37.4,16.7,37.4,37.4"/>
		</g>
		<g class="st0">
			<path class="st1" d="M0,37.4C0,16.8,16.7,0,37.4,0c0,0,0,0,0,0"/>
		</g>
		<g class="st0">
			<path class="st1" d="M74.8,37.4c0,20.7-16.7,37.4-37.4,37.4C16.7,74.8,0,58.1,0,37.4"/>
		</g>
		
			<radialGradient id="SVGID_1_" cx="37.4" cy="-2382.1763" r="19.47" gradientTransform="matrix(1 0 0 -0.13 0 -247.58)" gradientUnits="userSpaceOnUse">
			<stop  offset="0" style="stop-color:#000000"/>
			<stop  offset="0.32" style="stop-color:#231F20;stop-opacity:0.6"/>
			<stop  offset="1" style="stop-color:#000000;stop-opacity:0"/>
		</radialGradient>
		<ellipse class="st2" cx="37.4" cy="62.3" rx="22" ry="3.6"/>
		<circle class="st3" cx="37.4" cy="37.4" r="24.9"/>
		
			<radialGradient id="SVGID_00000147212126656203437190000002118024924654774420_" cx="37.4" cy="38.6" r="24.93" gradientTransform="matrix(1 0 0 -1 0 76)" gradientUnits="userSpaceOnUse">
			<stop  offset="0.64" style="stop-color:#000000;stop-opacity:0"/>
			<stop  offset="0.95" style="stop-color:#231F20;stop-opacity:0.29"/>
			<stop  offset="1" style="stop-color:#000000;stop-opacity:0.5"/>
		</radialGradient>
		<circle style="fill:url(#SVGID_00000147212126656203437190000002118024924654774420_);" cx="37.4" cy="37.4" r="24.9"/>
		<polygon class="st5" points="25.7,46.3 36.6,57.4 30,47.8 30,47.8 29,46.4 30.5,43.8 30.2,40.8 29.1,40.2 31.4,33.1 27.3,41 
			28.1,43.3 28.9,40.8 28.7,46 28.5,45.8 27.1,43.7 27.1,43.7 27.1,43.7 22.4,43.3 15.8,36.7 21.1,44.7 		"/>
		<polygon class="st5" points="22,41.7 25.4,40.3 26.9,41 27.7,39.4 25.3,38.8 25.3,38.8 18.5,37 24.2,39.8 		"/>
		<polygon class="st5" points="41.9,44.4 45.3,39.8 46.2,42.9 50.7,45 54.6,53.4 52.3,44 47.8,40.3 53.5,27.7 46.5,38.1 46.7,39.3 
			46.1,38.8 46.4,38.3 45.8,38.6 44.8,37.8 45.1,39 42.7,40.1 41.3,42.5 41.2,42.5 40.5,41.1 40.2,42.8 39.4,43 39.7,44 37.2,45.8 
			39.3,45.6 37.7,48.2 39.5,46.8 38.3,52.9 40.7,46.8 42.8,53.2 41.6,44.3 41.7,44.1 		"/>
		<path class="st5" d="M45.4,25.1l-2-0.1v-0.2l8.2-6.4L42,23.3L41.1,25L36,24.8l-0.1,0.1l-1.1-1.6l-4.9,0.1l5.7,1.9l-1.2,1.2
			l3.2-0.4L36.8,27L36,26.6l-3.7,0.3l3.4,1.4l-3.1,3.5l2,0.2l1.8-3.4l2.4,1v0.1l0.9,0.7l-4.9,13.4L44,27.6l-1.3-0.1l0.6-2.1
			L45.4,25.1z M39.2,28.8l-0.1-0.7l-2-1l0.5-1l3.2-0.4L39.2,28.8z"/>
		
			<linearGradient id="SVGID_00000040538540331212078300000004867923893857804177_" gradientUnits="userSpaceOnUse" x1="37.4" y1="36.67" x2="37.4" y2="62.53" gradientTransform="matrix(1 0 0 -1 0 76)">
			<stop  offset="0" style="stop-color:#FFFFFF;stop-opacity:0"/>
			<stop  offset="1" style="stop-color:#FFFFFF;stop-opacity:0.7"/>
		</linearGradient>
		
			<ellipse style="fill:url(#SVGID_00000040538540331212078300000004867923893857804177_);" cx="37.4" cy="26.4" rx="18.3" ry="12.9"/>
		<g>
			<path class="st3" d="M2.5,25.3l0.1,0L3,25.3l0,0l-0.1-0.2L3.1,25c-0.3-0.1-0.4-0.2-0.3-0.2c0,0,0.1,0,0.4,0l0,0
				c-0.2-0.1-0.3-0.2-0.3-0.2l0-0.1l0.2,0l0-0.1l-0.2-0.1l0-0.1l0.2,0.1c0.3,0.1,0.5,0.1,0.5,0c0.1,0.1,0.2,0.2,0.2,0.3l-0.1,0
				l-0.2-0.1l0,0.1l0.3,0.1C3.9,24.8,4,24.9,4,25c-0.1,0.1-0.1,0.1-0.2,0.1L3.7,25l-0.1,0l0,0L4,25.2l-0.2,0.1l0-0.1l-0.1,0l0,0.1
				l0,0l0.1,0L4,25.5l0.1,0l0-0.2l0,0l0.2,0.1l0.2,0l0,0.1l-0.2,0l-0.1-0.1l0,0.1l0.4,0.2l0,0.1l-0.5-0.2l0,0.1l0.1,0l0,0.1l-0.3,0
				l-0.1-0.1l0,0c0-0.1,0.1,0,0.2,0l0-0.1l-0.2-0.2l-0.2,0.1l0,0.1c0.1,0,0.1,0.1,0.1,0.1l0,0l0,0l-0.1-0.2c0,0.1-0.1,0.1-0.4,0
				l-0.1-0.1l0,0C2.6,25.4,2.5,25.3,2.5,25.3z M2.7,25L2.7,25l0.2,0l0,0L2.7,25z M3.3,23.3L3.3,23.3l0.2,0.1l0.4,0.1l0-0.1l-0.2-0.1
				l-0.4-0.1l0-0.1l0.1-0.2l0.1-0.1l0.1-0.3L4.2,21l0.2,0L6,21.7l0.2,0.1c-0.2,0.4-0.3,0.7-0.5,0.9l0,0.2l-0.1,0
				c0.1,0.1,0.3,0.3,0.7,0.4l0,0c0.1,0,0.1,0.1,0.1,0.2l0.1,0l0-0.1l0.1,0l0.2,0.1l0.2,0.3l0,0.1c-0.2-0.1-0.3-0.1-0.4,0l0,0l0.1,0
				l0,0l0.1,0l0.3,0.1l0,0.1c-0.1,0-0.1,0-0.1,0c0,0.1,0,0.1,0.1,0.2l0,0l-0.3,0l-0.2-0.1l0,0.1c0,0,0.1,0.1,0.2,0.2
				c0,0.1,0,0.1,0.1,0.2l0,0l-0.4,0.1l0.2,0.2l0,0l-0.1,0l0-0.1l-0.1,0l-0.1,0l-0.3-0.1l0,0.1l0.3,0.1l-0.1,0.2l0.2,0.1l0.2-0.2l0,0
				c0,0.1,0,0.2,0.1,0.3l0.6,0.2c0.2,0,0.2,0,0.3,0c-0.1-0.1-0.2-0.1-0.2-0.2l-0.2,0L7,25.5l0,0l0.1,0l0.2,0.1l0-0.1l-0.3-0.2l0,0
				c0,0,0.1-0.1,0.3-0.1l0,0L7.1,25l0-0.1l0,0.1l0,0l0.1,0l0,0L7,24.8l0.1-0.2l0,0.1l0,0c0,0,0.1,0,0.4,0l0,0.1l0,0L8.2,25l0.2,0.1
				l0,0l0-0.1l0,0l-0.4-0.1l-0.2-0.1l0-0.1L8,24.6l0.1,0l0-0.1L8,24.5l-0.1-0.2l0.2,0l0,0l-0.2-0.2l0-0.1c0.2,0,0.3,0,0.3,0l0.3,0.2
				l0.6,0.2l0,0.1l0.5,0.2l1.1,0.5l0.3,0.2l0.4,0.1l1.6,0.7l0.1,0.2l-0.8,1.9l-0.1,0.1l0-0.1L11.8,28l-3.4-1.4l-0.4-0.2l-0.2,0
				l0-0.1l0,0l-0.1,0C7.5,26.1,7.3,26,7,25.8c-0.1,0-0.3,0-0.6-0.1l-0.1-0.1L4.8,25l0-0.1l0.1,0L5,25l0,0l0.3,0l0.1,0.1l0-0.1
				l-0.1,0l-0.2-0.1l0-0.1l0.2,0.1l0-0.1l-0.2-0.1l0,0c-0.1,0-0.1,0-0.2,0.2l-0.1,0l0,0L5,24.7l-0.3,0l0-0.1l0,0l0.1,0l0-0.1l0-0.2
				L5,24.2l-0.1-0.3L5,23.7l-0.1,0l-0.1,0l0,0.1L4.6,24l0,0.1l0,0l-0.1,0.1l0,0.1l0,0l-0.2,0l0-0.1l0,0.1l-0.2-0.1
				c-0.2-0.1-0.4,0-0.4,0l-0.1-0.1c-0.1,0.2-0.3,0.2-0.6,0L3,24l0.1,0l0.2,0.1l0-0.1l-0.2-0.1l0-0.1l0.3,0l0-0.1l-0.2-0.1l0,0
				c0-0.1,0.2,0,0.4,0.1l0-0.1l-0.3-0.1C3.5,23.4,3.4,23.4,3.3,23.3L3.3,23.3L3.3,23.3z M3.3,25.8L3.3,25.8l0.1-0.1l0.1,0l0,0.1
				L3.3,25.8z M3.5,25.9L3.5,25.9l0.1,0l0,0l0.2,0.1l0,0.1L3.5,25.9z M3.8,26l0-0.1c0.1,0.1,0.2,0,0.3-0.1l0.2,0l0.1,0l-0.1,0.3
				l-0.1,0L3.8,26z M4.3,24.8l0.1,0l0,0l0,0.1l0.1,0l0.1,0l0.2,0.1l0,0L4.7,25l-0.2-0.2L4.3,24.8L4.3,24.8L4.3,24.8z M4.5,25.1
				l0.1,0l0,0l0,0.1l0,0.1l-0.2,0L4.5,25.1z M5.1,24.4l0.1,0l0,0L5.1,24.4L5.1,24.4z M5.1,23l0.1,0l0,0L5.1,23L5.1,23z M5.2,24
				l0.1,0l0-0.1l0,0l0.1,0.1c0.1,0,0.2,0,0.4,0.1l0,0L5.6,24l-0.4-0.1L5.2,24z M5.3,24.4L5.3,24.4l0.2,0.1l0,0
				c-0.1,0-0.1-0.1-0.1-0.1l0.1-0.1l0,0C5.4,24.2,5.4,24.3,5.3,24.4z M5.3,22.8L5.3,22.8L5.3,22.8L5.3,22.8L5.3,22.8z M5.5,23.8
				l0.1,0l0.2-0.1l0-0.1l-0.1,0L5.5,23.8z M5.8,23.6l0-0.1l-0.1,0l0,0L5.8,23.6z M5.9,25.2l0.1,0l0-0.1l0,0L5.9,25.2L5.9,25.2z
				 M6.2,23.9L6.3,24l0,0L6.2,23.9L6.2,23.9z M6.3,24l0.2,0.1l0-0.1l0,0L6.3,24z M7,24.6l0-0.1L7,24.6L7,24.6L7,24.6z M7.3,23.9
				L7.3,23.9l0.2-0.1l0.4,0.3l0,0.1c-0.1,0-0.2,0-0.2,0C7.4,24,7.3,23.9,7.3,23.9z M7.4,24.5L7.4,24.5l0.1-0.1l0.2,0.1l0,0.1l0-0.1
				l-0.1,0L7.4,24.5z M7.5,24.3L7.5,24.3L7.5,24.3L7.5,24.3L7.5,24.3z M7.6,25.8l0.1,0l0,0L7.6,25.8L7.6,25.8z M7.9,25.1l0.4,0.2
				l0-0.1l-0.2-0.1L7.9,25.1L7.9,25.1z M8.2,24.4L8.2,24.4l0.2,0.1l0,0l0-0.1L8.2,24.4L8.2,24.4z M8.3,25.6l0.2,0.1l0-0.1l-0.1,0
				L8.3,25.6z M8.5,26.2l0.3,0.1l0-0.1L8.5,26.2L8.5,26.2z M8.8,24.6L8.8,24.6L8.8,24.6l0.2,0l0,0l-0.1,0L8.8,24.6z M8.9,25.2l0.1,0
				l0-0.1L8.9,25.2L8.9,25.2z M9.9,26.7L9.9,26.7l0.1,0L9.9,26.7L9.9,26.7z M10.4,25.5l0.2,0.1l0.2-0.1l-0.1-0.1
				C10.5,25.4,10.4,25.4,10.4,25.5z"/>
			<path class="st3" d="M5.3,18.6L5.7,18l0.1,0l0-0.1l0.1-0.2l0.1,0l0-0.1l0.5-0.8l0.1,0l0.1-0.2l0,0l0.1-0.1l0.3,0.2l0-0.1
				l-0.3-0.2l0.1-0.1l0.1,0l0-0.1c0.4-0.5,0.7-0.6,0.8-0.5l0.3,0.2l0.2,0.2l0.1,0l-0.6-0.4l0,0c0,0,0.1,0,0.2,0l0.1-0.1l0-0.1
				c0.1,0,0.2,0,0.3,0.1l0.6,0.4l0,0l0-0.1l0,0l-0.1,0L9,15.5l0-0.1l-0.1,0l-0.3-0.2c0.1-0.1,0.3,0,0.6,0.1c0,0,0.1,0,0.2,0.1l0,0
				l0.1,0.1l0,0l0.4,0.1l0.8,0.6l0,0.1l0,0l0.3,0l0.1,0.1l0.1,0l0.1,0.1l0.2,0.1l0.3,0.1l0.1,0.1l1.1,0.7l0.8,0.6l0.1,0.1l0.2,0.1
				l0,0.1l0,0l0.2,0.1l0,0l0.1,0l0.1,0.1c1,0.8,1.4,1.3,1.2,1.6c0.1,0.1,0.1,0.3-0.1,0.8l-0.1,0l0,0l0,0.2l-0.1,0l0,0l0,0.2l-0.1,0
				l0,0l0,0.1l-0.1,0.1l-0.1,0L15,21.7l-0.1,0l0.4,0.3l0,0.2l-0.1,0l-0.1,0.3l0,0.1c-0.1,0.1-0.1,0.1-0.3,0.2l0.1,0.1l-0.1,0.1
				l0,0.1L14.7,23L14.5,23l0,0.1c0.1,0.1,0.1,0.1,0.1,0.2l0,0.1c-0.1,0.1-0.1,0.1-0.3,0.2l0,0.2L14.1,24l-0.2,0.2l-0.1,0.2l0,0
				l-0.2,0l-0.5-0.3L13,23.9l-0.3-0.1l-0.6-0.5l-0.3-0.1l0-0.1l-0.1,0l0-0.1l-0.2-0.1l-0.1,0l0-0.1l-0.1-0.1L11,22.6l-0.1-0.1
				l-1.1-0.7l-0.5-0.4l0.1-0.1l0.1,0.1l0-0.1l-0.2-0.2l0,0l-0.1,0l-0.1-0.1c0,0-0.1,0-0.3-0.1l-0.3-0.3l-0.1,0.1l0,0.1l-0.2-0.1
				l-0.1-0.1l-0.5-0.4l-0.1,0.1l-0.1,0L7,19.8l-0.2-0.1l-0.1-0.1l-0.6-0.3l-0.8-0.6L5.3,18.6z M6.2,18.2L6.2,18.2l0.1,0L6.2,18.2
				L6.2,18.2z M6.9,17.4l0.6,0.4l0.1,0l0,0L7,17.3L6.9,17.4L6.9,17.4z M7,16.9L7.3,17l0.1,0.1l0,0.1l0.1,0l0.6,0.4l0,0L8,17.7
				c0,0.1,0,0.2,0,0.3l0.4,0.3l0.3,0.1l0.1,0.1l2.4,1.5l0.2,0.2l0.9,0.6l0.5,0.3l0,0.1l-0.2-0.1l-0.3-0.2l0,0.1l1.1,0.7
				c0,0,0.1,0,0.2-0.1l0.2,0c0.2-0.4,0-0.7-0.4-1l-0.1,0l-0.3-0.2l-0.6-0.4l-0.4-0.3l-0.3-0.2l-0.3-0.1L11.1,19L11,19l0-0.1
				l-0.4-0.3l0,0l0.1,0.1l-0.1,0.1l-0.1-0.1c-0.2-0.1-0.2-0.2-0.2-0.3l-0.5-0.4c-0.3-0.2-0.5-0.3-0.7-0.3l0-0.1l0,0
				c-0.2-0.2-0.5-0.2-0.8-0.2L7.4,17l-0.3-0.1l0,0L7,16.9L7,16.9L7,16.9z M7.1,19l0.1,0.1l0.4,0.1l0.2,0.2l0.1,0.1l0-0.1l-0.3-0.2
				l-0.2-0.1L7.2,19L7.1,19L7.1,19z M7.1,16.3L7.1,16.3L7.1,16.3L7.1,16.3L7.1,16.3z M7.2,17.9L7.2,17.9l0.1,0l-0.2-0.1L7.2,17.9z
				 M7.2,17.3l0.1,0.1l0-0.1L7.2,17.3z M7.2,16.7l0.5,0.3l0.1-0.1l-0.2-0.2C7.4,16.7,7.3,16.6,7.2,16.7z M7.3,19.8L7.5,20l0.3,0.1
				l0-0.1l0,0l-0.4-0.1L7.3,19.8L7.3,19.8z M7.3,18.3l0.1,0L7.3,18.3L7.3,18.3z M7.3,16.4l0.3,0.2l0.1,0l-0.2-0.1L7.3,16.4L7.3,16.4
				z M7.4,17.3l0.1,0.1l0,0L7.4,17.3L7.4,17.3z M7.4,18.6l0.1,0.1l0-0.1L7.4,18.6z M7.6,18.8l0.1,0.1l0-0.1l-0.1,0L7.6,18.8z
				 M7.7,19L7.7,19L7.7,19L7.7,19L7.7,19z M7.7,18.2l0.1,0.1l0,0L7.7,18.2L7.7,18.2z M8,15.9l0.8,0.6L9,16.5l0,0l-0.2-0.2L8,15.9
				L8,15.9z M8,16.2l0.2,0.1l0-0.1L8,16.2L8,16.2z M8.2,17L8.3,17l0.1,0L8.2,17L8.2,17z M8.2,20.4L8.2,20.4L8.2,20.4l0.1,0l0-0.1
				l-0.1-0.1l0,0.1L8.2,20.4z M8.3,16.4l0.5,0.4l0.1,0L8.3,16.4L8.3,16.4z M8.5,20.6l0.1,0.1c0.1,0,0.2,0,0.3,0l0,0l-0.2-0.2
				l-0.1-0.1l-0.1,0L8.5,20.6z M8.5,15.6L8.5,15.6l0.2,0L8.5,15.6L8.5,15.6z M8.5,19l0.2,0.1l0-0.1L8.5,19L8.5,19z M8.5,20.2
				l0.1,0.1L9,20.5l0.1,0.2l0.4,0.2l0,0l-0.3-0.2l0,0l-0.1-0.2l-0.1,0l-0.1-0.1l-0.4-0.2L8.5,20.2z M8.6,19.9L8.6,19.9l0.2,0.2
				l0.1,0l-0.2-0.2L8.6,19.9z M8.8,18.9l0.3,0.2l0.1,0L8.8,18.9L8.8,18.9z M8.9,17.1L9,17.1l0,0L8.9,17.1L8.9,17.1z M8.9,19.6
				l0.3,0.2l0.1,0l-0.3-0.2L8.9,19.6z M9,20.8L9,20.8L9,20.8l0.1,0.1l0,0l0-0.1L9,20.8L9,20.8L9,20.8z M9,16.2l0.1,0.1l0,0L9,16.2
				L9,16.2z M9.1,17.2l0.3,0.2l0.1-0.1l0,0C9.3,17.2,9.2,17.1,9.1,17.2z M9.1,16.6l0.1,0.1l0,0L9.1,16.6L9.1,16.6z M9.1,20.9
				L9.1,20.9L9.1,20.9l0.2,0.1l0-0.1l0,0L9.1,20.9z M9.2,20.3l0.2,0.1l0-0.1l0,0L9.2,20.3z M9.2,16.4l0.4,0.2l0.1,0.1l0-0.1
				l-0.2-0.1l-0.2-0.2L9.2,16.4z M9.2,20L9.2,20l0.1,0L9.2,20L9.2,20z M9.2,19.5l0.2,0.1l0.2,0.1l0,0l-0.2-0.2L9.2,19.5L9.2,19.5z
				 M9.3,17.6l0.1,0.1C9.8,18,10,18.1,10.1,18l-0.5-0.4C9.4,17.6,9.3,17.6,9.3,17.6z M9.3,19.1L9.3,19.1L9.3,19.1L9.3,19.1L9.3,19.1
				z M9.3,21L9.3,21L9.3,21L9.3,21L9.3,21z M9.3,17.1l0.2,0.2l0-0.1L9.5,17L9.3,17.1z M9.4,20.2l0.3,0.2l0.1,0L9.4,20.2L9.4,20.2z
				 M9.4,15.8L9.4,15.8l0.1,0.1l0.4,0.2l0-0.1L9.7,16L9.4,15.8L9.4,15.8L9.4,15.8z M9.4,16.2l0.4,0.3l0.1,0l-0.4-0.3L9.4,16.2z
				 M9.5,17.5l0.4,0.3l0.1,0l0,0l-0.5-0.3L9.5,17.5z M9.5,20.9L9.5,20.9l0.2,0l-0.1,0L9.5,20.9z M9.5,20.6l0.3,0.2l0-0.1l-0.3-0.2
				L9.5,20.6z M9.6,20l0.1,0.1L9.6,20L9.6,20L9.6,20z M9.6,19.7l0.1,0.1l0-0.1l0,0L9.6,19.7z M9.8,21L9.8,21L9.8,21L9.8,21L9.8,21z
				 M9.9,17.4c0.3,0.2,0.4,0.2,0.4,0.2l-0.2-0.1L9.9,17.4L9.9,17.4z M10,20.6l0.1,0l0,0l-0.2-0.1C9.9,20.5,9.9,20.5,10,20.6z
				 M10,19.9L10,19.9l0.1,0L10,19.8L10,19.9z M10.2,16.9l0.1,0.1l0,0L10.2,16.9L10.2,16.9z M10.3,18.2l0.1,0.1l0,0L10.3,18.2
				L10.3,18.2z M10.3,21.9l0.3,0.1l0,0l-0.3-0.2L10.3,21.9z M10.3,16.7L10.3,16.7l0.1,0L10.3,16.7L10.3,16.7z M10.3,17.3L10.3,17.3
				l0.3,0.2l0.2,0.1l0-0.1l-0.4-0.3L10.3,17.3z M10.4,18l0.1,0.1l0.1,0l0.1-0.1l-0.1,0C10.5,17.9,10.4,17.9,10.4,18z M10.4,17.1
				l0.4,0.3l0.1,0L10.4,17.1L10.4,17.1z M10.4,18.3l0.3,0.2l0-0.1l-0.3-0.2L10.4,18.3z M10.5,17.8L10.5,17.8L10.5,17.8L10.5,17.8
				L10.5,17.8z M10.6,16.9l0.1,0l-0.1-0.1L10.6,16.9z M10.8,17.9l0.2,0.2l0.1,0l-0.2-0.2L10.8,17.9z M10.9,17.1l0.3,0.2l0-0.1
				L10.9,17.1L10.9,17.1z M11,17.5l0.2,0.2l0-0.1L11,17.5L11,17.5z M11.1,20.6l0.3,0.2l0-0.1L11.1,20.6L11.1,20.6z M11.2,20.3l0.1,0
				l-0.1-0.1L11.2,20.3z M11.4,18l0.2,0.1l0-0.1l-0.1,0L11.4,18z M11.5,17.1l0.2,0.1l0-0.1l0,0L11.5,17.1z M11.5,22.7L12,23l0,0
				l-0.1-0.1L11.5,22.7L11.5,22.7z M11.6,17.8l0.2,0.2l0.1,0L11.6,17.8L11.6,17.8z M11.8,17.6L11.8,17.6l0.2,0l0,0.1l0,0l0.2,0.1
				l0,0l-0.5-0.3l0,0L11.8,17.6z M11.8,21.9L11.8,21.9l0.1,0L11.8,21.9L11.8,21.9z M11.8,21.4l0.1,0.1l0.2,0.1l0-0.1l-0.1,0
				L11.8,21.4L11.8,21.4z M11.9,18.3L11.9,18.3l0.1,0L11.9,18.3L11.9,18.3z M12,22.6l0.1,0.1l0.1,0L12,22.6L12,22.6z M12,17.5
				l0.1,0.1l0,0L12,17.5L12,17.5z M12.3,23.1L12.3,23.1L12.3,23.1L12.3,23.1L12.3,23.1z M12.3,17.7l0.2,0.1l0.5,0.3l0-0.1L13,18
				l0-0.1l0,0l-0.2-0.1l-0.3-0.2L12.3,17.7L12.3,17.7z M12.5,18l0.2,0.1l0.1,0L12.5,18L12.5,18z M12.5,21.5l0.2,0.1l0.1,0l-0.2-0.1
				L12.5,21.5z M12.6,22.7l0.3,0.2l0-0.1L12.6,22.7L12.6,22.7z M12.7,23.1l0.4,0.3l0-0.1l-0.2-0.2L12.7,23.1z M12.7,22.5l0.1,0.1
				l0-0.1l0,0L12.7,22.5z M12.8,21.2L12.8,21.2l0.1,0l0,0.1L12.8,21.2z M12.8,18.3l0.2,0.2l0.7,0.4l0,0l-0.1,0l0,0l-0.3-0.1
				l-0.2-0.2l-0.1,0l0-0.1l0,0l-0.3-0.1L12.8,18.3z M13,21.7l0.4,0.3l0-0.1L13,21.7L13,21.7z M13,22.7l0.2,0.2l0-0.1L13,22.7
				L13,22.7z M13,21.4L13,21.4L13,21.4L13,21.4L13,21.4z M13,20L13,20l0.1,0L13,20L13,20z M13.2,23.5l0.1,0.1L13.2,23.5L13.2,23.5
				L13.2,23.5z M13.3,18.3l0.1,0.1l0.1,0l0.2,0.1l0.1-0.1l0,0L13.3,18.3L13.3,18.3z M13.4,19.9l0.1,0.1l0-0.1L13.4,19.9L13.4,19.9z
				 M13.4,19.6l0.3,0.2l0,0c0-0.1,0-0.2-0.2-0.3l-0.1,0L13.4,19.6z M13.5,23.9L13.5,23.9L13.5,23.9L13.5,23.9L13.5,23.9z M13.5,20.2
				l0.1,0.1l0-0.1L13.5,20.2z M13.5,23.1l0.1,0l0,0L13.5,23.1l0.1-0.1l-0.1,0L13.5,23.1z M13.5,23.7l0.2,0.1l0-0.1l-0.1-0.1
				L13.5,23.7z M13.5,22.1l0.1,0.1l0-0.1l-0.1,0L13.5,22.1z M13.6,22.9L13.6,22.9l0.2,0.1l0,0l0-0.1l-0.1-0.1l-0.1,0L13.6,22.9z
				 M13.8,20.7L13.8,20.7L13.8,20.7L13.8,20.7L13.8,20.7z M13.8,19.2L13.8,19.2L13.8,19.2L13.8,19.2L13.8,19.2z M14,18.7l0.1,0.1
				l0.4,0.2l0,0l-0.2-0.3l-0.1,0l0,0l-0.1-0.1l0,0L14,18.7z M14,22.7L14,22.7l0.2,0l0-0.1l0,0L14,22.7L14,22.7z M14.3,22.6l0.1,0.1
				l0,0L14.3,22.6L14.3,22.6z M14.4,19.3l0.1,0.1l0.1,0l0,0l-0.1-0.1L14.4,19.3L14.4,19.3z M14.5,21.5L14.5,21.5L14.5,21.5
				L14.5,21.5L14.5,21.5z M14.5,19.6L14.5,19.6l0.1,0L14.5,19.6L14.5,19.6z M14.6,21.2L14.6,21.2l0.1,0L14.6,21.2L14.6,21.2z
				 M14.8,21.9l0.4,0.3l0-0.1L14.8,21.9L14.8,21.9z M14.8,21.4l0.1,0.1l0.1,0l0.2,0L15,21.4L14.8,21.4z M15,21.2L15,21.2l0.1,0
				L15,21.2L15,21.2z M15.5,20.5L15.5,20.5L15.5,20.5L15.5,20.5L15.5,20.5z"/>
			<path class="st3" d="M11.5,10.4l0.1,0l0.3,0.3l0.1-0.1l-0.3-0.3l0-0.1c0,0,0.1,0,0.1,0l0.1,0l0,0c-0.1-0.1-0.1-0.1,0-0.1l0,0
				l0.1,0l0.1-0.1c0.3-0.3,0.9-0.4,1.8-0.2c0.5,0.2,1.2,0.7,2,1.5l0.3,0.4l0.3,0.4l-0.2,0.2l-0.2,0c0.1,0.1,0.1,0.1,0,0.1l-0.1,0
				l-0.3-0.3l0,0c0.1,0.1,0.2,0.1,0.3,0L16,11.9l-0.4-0.3l-0.1,0.1c0.2,0.2,0.3,0.4,0.3,0.4l-0.1,0l0,0l0.3,0.3l0.1,0l0,0l0,0.1
				l-0.1,0.1l-0.2-0.2c0,0,0,0.1,0.1,0.3l0,0l-0.1,0l0,0l0,0.1L15.5,13l-0.1,0.1l-0.1,0l0,0.2l-0.2,0.1l0,0.1l0,0l-0.1,0l-0.3-0.4
				c-1-1.1-1.6-1.6-1.7-1.5l-0.2,0.2c-0.2,0.2,0,0.4,0.3,0.8l0.4,0.5l0.1,0l0,0c0.4,0.4,0.5,0.6,0.5,0.7l0.1,0.1l1.8,1.8l0.5,0.5
				l0.3,0.3l0,0.1l0,0c0.5,0.5,0.8,0.7,1,0.5l0.1,0.1l0.1-0.1c-0.1-0.1-0.1-0.2,0.1-0.3L17,15.6l0-0.1l-0.7-0.6l0-0.2l0,0l0.2-0.1
				l0,0l0-0.1l0.1,0l0.1-0.2l0.1-0.1c0.1-0.1,0.2-0.1,0.2-0.1l0-0.1l0.1-0.1l0.1,0l0.1-0.2c0.1,0,0.2,0.1,0.3,0.2l0.1-0.1l-0.2-0.1
				l0-0.1l0.1,0l0.2,0.2l0.1-0.1l-0.2-0.4l0.1-0.1l0.2,0.2l0.1,0.1l0.1,0l0.1,0.2l0.2,0.1l0.1,0.1l0.3,0.2c0.3,0.4,0.5,0.7,0.6,1
				l0.1,0l0,0c0.2,0.3,0.2,0.6,0.2,0.8l0,0l-0.1-0.1l-0.1,0.1l0.2,0.2c0,0.7-0.2,1.2-0.7,1.6l-0.2,0l-0.4-0.4l-0.1,0l0,0.1l0.5,0.5
				l0,0c0,0-0.1,0-0.2-0.1l0,0l0.1,0.2c-0.1,0.1-0.1,0.1-0.2,0l0,0.1l0,0c-0.6,0.6-1.4,0.7-2.4,0.2c-0.5-0.3-1.1-0.8-1.8-1.6l-1-1.1
				L13,15.8l-0.2-0.1l-0.2-0.3l-0.1,0l0,0l-0.1-0.1l0,0l0-0.1L12,14.8l-0.1,0l0-0.1l0,0l-0.2-0.1c-0.6-0.7-0.9-1.1-0.8-1.1l-0.1,0
				l0,0c-0.1-0.2-0.2-0.3-0.1-0.4l0,0l0.1,0.1l0.1-0.1l-0.2-0.2c-0.1-0.1-0.1-0.2-0.1-0.4c-0.1-0.1-0.1-0.2,0-0.3
				c-0.1-0.1,0-0.2,0-0.4l0.1-0.1l0.1,0.1l0,0c-0.2-0.2-0.2-0.3,0-0.4c0,0,0-0.1,0.2-0.3l0,0l0.1,0l0,0L11.5,10.4z M10.8,12.3
				L10.8,12.3l0.2,0.1l-0.1-0.1L10.8,12.3L10.8,12.3z M10.9,12.7L10.9,12.7l0.1,0l-0.1-0.1L10.9,12.7z M10.9,12L10.9,12l0.1,0.1
				L10.9,12L10.9,12z M11,11.7l0.1,0.1l0.1,0L11,11.7L11,11.7z M11,12.8L11,12.8l0.1,0.1L11,12.8L11,12.8z M11.1,13.4L11.1,13.4
				L11.1,13.4l0-0.1L11.1,13.4z M11.3,13.2l0.1,0.1l0-0.1L11.3,13.2z M11.5,14.1L11.5,14.1l0.1,0l0,0L11.5,14.1z M11.5,13.4l0.1,0.1
				l0-0.1L11.5,13.4z M11.6,13L11.6,13L11.6,13l0-0.1L11.6,13z M11.8,14L11.8,14L11.8,14L11.8,14L11.8,14z M11.9,14.4l0.3,0.4
				c0,0,0-0.1,0-0.1L11.9,14.4L11.9,14.4z M12,10.8l0.3,0.3l0.1-0.1L12,10.8L12,10.8z M12,13.8L12,13.8L12,13.8l0.2,0.2l0.5,0.5
				l0.1-0.1l-0.5-0.5L12,13.8L12,13.8z M12.1,14.2L12.1,14.2l0.2,0.1l0-0.1l-0.1-0.1L12.1,14.2L12.1,14.2z M12.3,14.8l0.1,0.1l0,0
				L12.3,14.8L12.3,14.8z M12.3,14.4l0.2,0.2l0,0L12.3,14.4L12.3,14.4L12.3,14.4z M12.7,12.9L12.7,12.9l0.1,0L12.7,12.9L12.7,12.9z
				 M12.7,15.2l0.4,0.4l0.1,0L12.7,15L12.7,15.2z M12.7,14.8l0.3,0.3l0.1,0l-0.3-0.3L12.7,14.8z M12.9,14.2L12.9,14.2l0.1,0
				L12.9,14.2L12.9,14.2z M13.1,14.4l0.2,0.2l0,0c0,0,0-0.1,0-0.1L13.1,14.4L13.1,14.4z M13.1,14.1L13.1,14.1
				c0.2,0.2,0.3,0.2,0.3,0.2l-0.2-0.2L13.1,14.1z M13.1,15.2l0.4,0.4l0.1-0.1l-0.1-0.1l0,0l-0.2-0.2l-0.1-0.1L13.1,15.2z M13.1,14.8
				l0.4,0.4l0.1,0l-0.1-0.1l0,0C13.3,14.9,13.2,14.8,13.1,14.8z M13.3,14.7L13.3,14.7l0.2,0.2l0.1,0.1c0.3,0.2,0.4,0.3,0.5,0.3
				L14,15.2L13.3,14.7L13.3,14.7z M13.4,13.6l0.5,0.5l0.1,0L13.9,14C13.6,13.7,13.4,13.5,13.4,13.6z M13.4,14.4l0.1,0.2l0.1,0l0-0.1
				l-0.1-0.1L13.4,14.4z M13.8,14.7l0.4,0.4l0.1,0l-0.4-0.4L13.8,14.7L13.8,14.7z M13.9,14.5l0.2,0.2l0.2,0.1l0,0l-0.1-0.1
				L13.9,14.5L13.9,14.5z M14,11.6L14,11.6L14,11.6L14,11.6L14,11.6z M14.1,14.3L14.1,14.3l0.7,0.7l0.1,0l0,0l-0.1-0.1l-0.2-0.1
				l-0.2-0.3L14.1,14.3L14.1,14.3z M14.3,17.1L14.3,17.1l0.1,0L14.3,17.1L14.3,17.1z M14.3,15.2l0.1,0.1l0.2,0.2l0,0l-0.3-0.3
				L14.3,15.2z M14.4,16.4l0.2,0.2l0.1-0.1l0,0L14.4,16.4L14.4,16.4z M14.4,16.1L14.4,16.1l0.2,0.1l-0.1-0.1L14.4,16.1z M14.4,16.8
				L14.4,16.8l0.2,0.1l-0.1-0.1L14.4,16.8z M14.7,16.3l0.1,0.1l0.1-0.1l-0.2-0.2L14.7,16.3z M14.8,13.2L14.8,13.2L14.8,13.2
				L14.8,13.2L14.8,13.2z M14.8,15.7L14.8,15.7L14.8,15.7l0-0.1L14.8,15.7z M14.9,15L14.9,15l0.1,0.1L14.9,15L14.9,15z M15,17.7
				L15,17.7l0.1,0.1L15,17.7L15,17.7z M15.1,17.4L15.1,17.4l0.1,0l0-0.1l0,0L15.1,17.4L15.1,17.4z M15.4,17.3l0.1,0.1l0-0.1
				L15.4,17.3L15.4,17.3z M15.6,11.3l0.3,0.4l0.3,0.2l0-0.1l0,0l-0.1,0l0,0l-0.1-0.1L15.6,11.3L15.6,11.3z M15.6,18L15.6,18L15.6,18
				L15.6,18L15.6,18z M15.7,16.9l0.3,0.3l0.1-0.1l-0.2-0.2L15.7,16.9z M16,17.5L16,17.5l0.1,0.1L16,17.5L16,17.5z M17.1,14.9
				l0.2,0.2l0.1-0.1L17.1,14.9L17.1,14.9z M17.5,14.6l0.1,0.1l0.1-0.1l-0.1-0.1L17.5,14.6z M17.7,18.5L17.7,18.5l0.1,0.1L17.7,18.5
				L17.7,18.5z M17.8,17.2L17.8,17.2l0.1,0L17.8,17.2L17.8,17.2z M17.9,15l0.1,0.1l0.1-0.1L18.1,15L17.9,15L17.9,15z M18.1,14.1
				L18.1,14.1L18.1,14.1L18.1,14.1L18.1,14.1z M18.2,18.2l0.1,0.1l0-0.1l0,0L18.2,18.2z M18.4,16.6l0.3,0.3l0.1,0l-0.4-0.4
				L18.4,16.6z M18.4,16.3L18.4,16.3L18.4,16.3L18.4,16.3L18.4,16.3z M18.4,17.4l0.2,0.2l0-0.1l-0.1-0.1L18.4,17.4z M18.5,14.9
				L18.5,14.9L18.5,14.9L18.5,14.9L18.5,14.9z M18.5,17.1l0.2,0.2l0.1-0.1L18.6,17L18.5,17.1z M18.8,17l0.2,0.2l0,0L18.8,17L18.8,17
				L18.8,17z M19.2,16.3L19.2,16.3l0.2,0.1l0-0.1l0,0L19.2,16.3L19.2,16.3z"/>
			<path class="st3" d="M19.4,4.9l0.5-0.2l0.1,0l0-0.1l0,0l0.2,0l0.2-0.2L22,3.6l0.1,0.2l0.1,0l-0.1-0.2l0.1-0.1l0.1,0l0.1-0.1
				l0.1,0l0.1-0.1l0.1-0.1l0,0l0.1,0.1L23.6,5l-0.1,0.2l-0.4,0.2l-0.1,0l-0.1,0.1l-0.2,0.1c0,0-0.1,0-0.1-0.1l-0.1,0l0,0l0,0.2
				l-0.2,0.1L23,7.2l0,0.1l0.1,0l0.1,0.3l0.2-0.1l0-0.1l0.1,0l0.1-0.1l0-0.1l0.1,0l0.1-0.1l0-0.1l0.1,0l0,0L24.3,7
				c0.1,0,0.2,0,0.3,0.1l0.5,1c0,0,0,0.1-0.1,0.1L25,8.4l0.2,0.1l-0.1,0.2l-0.1,0l-0.1,0.1l0,0.1l-0.2,0L24.6,9l-0.1,0l0,0l0-0.2
				l-0.2-0.2l-0.1,0l0.2,0.4l0,0.1c0,0,0,0.1-0.1,0.1l-0.1,0l0,0c-0.2,0.2-0.2,0.3-0.1,0.5l0.1,0.2l0,0.1l0.3,0.4l0.2,0.4l0.6,1.1
				l0,0.2l0.1,0l0.1,0.2l-0.1,0l-0.2-0.3c-0.1,0-0.1,0.1,0,0.2c0.1,0.1,0.2,0.2,0.3,0.2l0.1-0.1l0,0l0.1,0.1l0.1-0.2l0.2,0.1l0-0.2
				c-0.1,0-0.2-0.2-0.3-0.4l-0.1,0l0,0l0.1,0.3l0.1,0.2l0,0c-0.1,0-0.2-0.2-0.5-0.7l0.1-0.1l0.1,0l0,0l0.3-0.2l0.1,0.1l0,0l-0.1-0.1
				c0.1,0,0.2,0.1,0.3,0.3l0.1-0.1L25.9,11l0-0.1l0.1,0l0,0.1l0,0l0.3,0.5l0,0.3l0.2,0.3l0.1,0.4l-0.1,0.1l-0.1-0.2l-0.1,0l0.1,0.2
				c-0.1,0-0.1,0.1,0,0.2c0,0-0.1,0.1,0,0.1L26.4,13L25,13.6c-0.1,0.1-0.2,0.1-0.2,0l-0.2,0.2l-0.6,0.3L23.9,14l-0.6-1.3l-0.1-0.1
				l-0.1-0.4l-0.1,0l-0.1-0.1l0,0c0,0,0.1,0,0.2,0.2l0,0l-0.4-0.7l0,0l0,0.1l0,0c-0.1-0.1-0.1-0.2-0.2-0.1c-0.1-0.3-0.1-0.4-0.1-0.5
				l0.1,0l-0.1-0.1l-0.1,0.1l-0.2-0.3l0-0.2L22,10l0-0.1l-0.3-0.4l0-0.1l0,0L21.4,9l-0.7-1.4l0-0.3l-0.2-0.2l-0.4-0.8l-0.1-0.3l0,0
				l0-0.1l-0.5-0.7l-0.1-0.2l-0.1,0l0,0L19.4,4.9z M20,4.8c0,0.1,0,0.1,0,0.1l-0.1,0l0,0.1l0,0l0.1,0l0,0l0-0.1l0,0l0.2-0.1L20,4.8
				L20,4.8z M19.9,5.6L20.1,6l0,0l0,0.1l0.1,0.1l0,0L20.2,6l0,0l0-0.1l0,0L19.9,5.6L19.9,5.6z M20.3,5.8L20.3,5.8L20.3,5.8L20.3,5.8
				L20.3,5.8z M20.4,6.6l0.1,0.1l0-0.1L20.4,6.6z M20.5,6.8L20.6,7l0.1,0.2l0.1,0L20.7,7L20.6,7L20.5,6.8L20.5,6.8L20.5,6.8z
				 M20.5,5.2l0.2,0.4l0.1,0.3l0.1,0l-0.3-0.5L20.5,5.2L20.5,5.2L20.5,5.2z M20.8,4.5l0.1,0.1l0.1,0.2l0,0l-0.1-0.3L20.8,4.5
				L20.8,4.5z M20.9,7l0.2,0.3l0.1,0L20.9,7L20.9,7z M21.1,6.1L21.1,6.1L21.1,6.1L21.1,6.1L21.1,6.1z M21.3,4.4L21.3,4.4L21.3,4.4
				L21.3,4.4L21.3,4.4z M21.3,7.6l0.1,0.1L21.3,7.6L21.3,7.6L21.3,7.6z M21.3,6l0.1,0.1l0.1,0L21.3,6L21.3,6z M21.5,4.8L21.5,4.8
				l0.1,0.1L21.5,4.8L21.5,4.8z M21.6,8.7l0.1,0.2l0.1,0l0,0L21.6,8.7L21.6,8.7z M21.6,6.5l0.3,0.6l0.1,0l-0.3-0.6L21.6,6.5z
				 M21.6,8.2L21.6,8.2l0.1,0L21.6,8.2L21.6,8.2z M21.7,4.6l0.1,0.1l0.1,0l0,0L21.7,4.6z M21.8,4.3L22,4.6l0.1,0l-0.1-0.2L21.8,4.3z
				 M22,9.2l0.2-0.1L22,8.9l-0.1-0.3C21.8,8.7,21.8,8.9,22,9.2z M21.9,8.2L21.9,8.2L21.9,8.2L21.9,8.2L21.9,8.2z M21.9,9.4L21.9,9.4
				l0.1,0L21.9,9.4L21.9,9.4z M22,5.1L22,5.1l0,0.1l0.1,0l0-0.1l0-0.1L22,5.1z M22.1,8.1L22.1,8.1l0,0.1l0.1-0.1l0,0L22.1,8.1z
				 M22.1,5.4L22.1,5.4L22.1,5.4L22.1,5.4L22.1,5.4z M22.1,6.4l0.1,0.1l0.1,0l0,0L22.1,6.4z M22.1,5.9L22.2,6l0,0L22.1,5.9L22.1,5.9
				z M22.1,8.8L22.1,8.8l0.2,0.3l0.1,0l0-0.1l-0.1,0l0-0.1l0,0L22.1,8.8L22.1,8.8z M22.2,9.3L22.2,9.3L22.2,9.3L22.2,9.3L22.2,9.3z
				 M22.3,9.6L22.3,9.6l0.1,0L22.3,9.6z M22.4,4.3l0.1,0.3l0.1,0l-0.1-0.2L22.4,4.3z M22.4,8.1l0.2,0.4l0.1,0.1l0.1-0.2
				C22.6,8.2,22.5,8.1,22.4,8.1z M22.5,8.8L22.5,8.8L22.6,9l0,0l0-0.1l-0.1-0.2L22.5,8.8z M22.5,6.5l0.1,0.2l0.1,0l0,0L22.5,6.5
				L22.5,6.5z M22.6,10.6L22.6,10.6L22.6,10.6l0-0.1L22.6,10.6z M22.6,3.6l0.1,0.1L22.6,3.6L22.6,3.6L22.6,3.6z M22.6,9.6L22.6,9.6
				L22.6,9.6L22.6,9.6L22.6,9.6z M22.6,7.9L22.6,7.9L22.6,7.9L22.6,7.9L22.6,7.9z M22.7,10.8l0.1,0.1l0.1,0.2l0,0.1l0,0l0.3,0.4
				l0.1,0.2l0.1,0.2l0.1,0l-0.6-1.2L22.7,10.8L22.7,10.8z M22.7,10.2l0,0.1l0.5,0.8l0.2,0.3l0.1,0L23.2,11L23,10.8l0-0.2L22.7,10.2
				L22.7,10.2z M22.7,8.7l0.1,0.1L22.7,8.7L22.7,8.7L22.7,8.7z M22.7,8.2l0.1,0.2l0,0.1l0.1,0l0.1,0l-0.3-0.4L22.7,8.2z M22.8,11.6
				L22.8,11.6L22.8,11.6l0.1,0.1L22.8,11.6z M22.8,9.4l0,0.1l0.1,0.1l0,0l0-0.1L22.8,9.4L22.8,9.4z M22.8,8.9L22.8,8.9l0.1,0
				L22.8,8.9z M22.8,10l0.1,0.2l0-0.1l0,0L22.8,10z M22.9,11.8L22.9,11.8L22.9,11.8L22.9,11.8L22.9,11.8z M23,9.7l0.1,0.2l0,0l0-0.1
				l0-0.1L23,9.7z M23,8.6l0.2,0.4l0.4,0.6l0,0l0-0.1l-0.1-0.2l0-0.1L23,8.6L23,8.6z M23.1,9.3L23.1,9.3l0.1,0L23.1,9.3L23.1,9.3z
				 M23.1,7.8L23.2,8l0.1,0L23.1,7.8L23.1,7.8z M23.2,8.5L23.2,8.5L23.2,8.5L23.2,8.5L23.2,8.5z M23.4,10.3l0.1,0.2
				c0,0,0.1-0.1,0-0.1L23.4,10.3L23.4,10.3z M23.4,12.6L23.4,12.6L23.4,12.6L23.4,12.6L23.4,12.6z M23.5,10.6l0.1,0.2l0,0L23.5,10.6
				L23.5,10.6L23.5,10.6z M23.5,12.3l0.1,0.1L23.5,12.3L23.5,12.3L23.5,12.3z M23.6,8.6L23.6,8.6L23.6,8.6L23.6,8.6L23.6,8.6z
				 M23.6,9.7l0,0.1l0.1,0l-0.1-0.1L23.6,9.7z M23.6,10.9l0.3,0.6l0.1,0l0,0l-0.1-0.3C23.8,11,23.7,10.9,23.6,10.9z M23.7,11.7
				l0.1,0.2l0.1,0.2l-0.1,0l-0.1,0l0,0l0.1,0.1l0-0.1l0.1-0.1l0.1,0.2l0,0c-0.1-0.1-0.1-0.2,0-0.3l-0.2-0.2L23.7,11.7L23.7,11.7z
				 M23.7,8.4l0.1,0.1l0.1,0l0-0.1L23.7,8.4z M23.8,10.1l0.1,0.1L23.8,10.1L23.8,10.1L23.8,10.1z M23.9,10.7L23.9,10.7l0.2,0.5
				l0.1,0.1l0.1,0L23.9,10.7L23.9,10.7z M23.9,13.1l0.2,0.4l0.1,0L23.9,13.1L23.9,13.1z M24,11.9l0.1,0l0,0L24,11.9l0-0.3l0,0
				C24,11.7,24,11.8,24,11.9z M24,10l0.2,0.4l0,0.1l0.1,0l-0.1-0.2l-0.1-0.3L24,10L24,10L24,10L24,10z M24,10.5l0.1,0.1L24,10.5
				L24,10.5L24,10.5z M24.1,8.9L24.1,8.9L24.1,8.9l0-0.1L24.1,8.9z M24.1,12.5l0.1,0.1c0.2,0.4,0.3,0.6,0.4,0.5l-0.2-0.5
				C24.3,12.5,24.2,12.5,24.1,12.5L24.1,12.5z M24.1,9L24.1,9L24.1,9L24.1,9L24.1,9z M24.2,10.8l0,0.2l0.4,0.7l0.1,0.2l0.1,0l0,0
				l-0.5-1L24.2,10.8z M24.2,13.1l0.1,0.1L24.2,13.1L24.2,13.1L24.2,13.1z M24.3,8.2L24.3,8.2l0.3,0L24.5,8l0,0L24.3,8.2z
				 M24.3,13.3l0.2,0.3l0.1,0l0,0l-0.1-0.1L24.3,13.3L24.3,13.3L24.3,13.3z M24.4,10.8l0.2,0.4l0.2,0.2l0,0l0-0.2L24.7,11l-0.2-0.4
				L24.4,10.8z M24.5,8.6l0.1,0.1L24.5,8.6l0.1,0L24.5,8.6L24.5,8.6z M24.6,12.2l0.1,0.3l0.1,0l-0.1-0.2L24.6,12.2z M24.7,8.6l0.1,0
				l0.1,0l-0.1-0.1l-0.1,0L24.7,8.6z M24.8,12l0.2,0.5l0.1,0l0,0L25,12L24.8,12z M24.8,11.5l0.1,0.1l0,0L24.8,11.5L24.8,11.5z
				 M25.4,11.3l0.1,0.1L25.4,11.3L25.4,11.3L25.4,11.3z M25.9,11.9l0.2,0.3l0,0l0-0.1l-0.1-0.2L25.9,11.9L25.9,11.9z M26,11.5
				l0.2,0.5l0.2,0.1l0-0.1l-0.1-0.1C26.2,11.7,26.1,11.6,26,11.5L26,11.5z M26.3,10.9L26.3,10.9L26.3,10.9l0,0.2l-0.1,0l0,0
				L26.3,10.9z M26.3,10.7L26.3,10.7l0.1,0l0,0l0,0L26.3,10.7L26.3,10.7z M26.3,12.6l0.1,0.1l0,0L26.3,12.6L26.3,12.6L26.3,12.6z
				 M26.5,10.9L26.5,10.9l0.3,0.3l0,0l0,0.1l0.1,0l0.3,0.6l0.1,0l0,0.1l0.2,0.5l-0.2,0.1c-0.1,0.1-0.2,0.1-0.2,0l-0.1,0.1
				c-0.1,0-0.2,0-0.2,0c0.1-0.1,0.2-0.1,0.1-0.2l0.2,0l0-0.1l0,0l-0.3-0.5l0-0.2l-0.3-0.3l0-0.1l0.1,0l0.1,0L26.5,11L26.5,10.9z
				 M26.7,11.5L26.7,11.5L26.7,11.5l0.1,0.2l0,0l0-0.1l0,0L26.7,11.5L26.7,11.5z"/>
			<path class="st3" d="M25.8,2.7L25.8,2.7l1.4-0.3l0.1,0.1l0.1-0.1c0,0,0.4,0.8,1.1,2.3l0.1,0l0,0L28.4,2l1.7-0.5l0,0.1l0,0
				c0.2,2.6,0.4,4.1,0.5,4.6l2.5,5.1l-0.1,0l-0.1,0l-0.2,0.1l0,0l-0.4,0.1l-1.1,0.3c-0.1,0-0.7-1-1.6-3.1l0,0
				c0.3,2.1,0.5,3.3,0.4,3.4l-1.9,0.5l-0.1,0L27.4,7l-0.5-1.1l0-0.2c0,0-0.1,0-0.2-0.2l0-0.1l0,0C26,4,25.6,3.2,25.5,2.8L25.8,2.7
				L25.8,2.7z M26.5,4.8L26.5,4.8l0.1,0.1L26.5,4.8L26.5,4.8z M27.4,2.5l0.1,0.3l0.1-0.1l0-0.1L27.4,2.5z M32.6,11.1l0,0.2l0.2-0.1
				C32.8,11.1,32.7,11.1,32.6,11.1z M32.7,11.3L32.7,11.3l0.1,0.1L32.7,11.3L32.7,11.3z"/>
			<path class="st3" d="M33.1,0.7l0.8,0l0,0.2l0.1,0c0-0.1,0-0.2,0.1-0.2l0.3,0l0.1,0.1l0.1-0.1l0,0l0.1,0.1l0.1-0.1l0,0
				c0.1,0,0.1,0,0.1,0.1l0,0l0,0c0-0.1,0.1-0.2,0.1-0.2l0.5,0c0.2,0,0.3,0,0.3,0.1l0,0.1l0.2,1.3l0.1,0l0-0.9l0.1,0l0.1,0.4l0,0.2
				l0.1,0.6l0,0.2l0,0c-0.1,0-0.1,0-0.1-0.1l0,0l-0.1,0.1l0,0.1l0.1,0.1l0,0l0,0l0,0l0.1,0.1l0,0l0.1,0.5l0,0.4L36.6,4l0.1,0l0-0.2
				l0,0l0-0.1l-0.1-0.4l0-0.2l0-0.2l0-0.2l0,0l0,0l0,0l-0.1-0.2l0-0.3l-0.1-0.6l0-0.2l-0.1-0.6l0.1-0.1l0,0l0.1,0.2l0,0.4l0,0
				l0.1,0.2l0,0c0.1,0,0.1,0,0.1-0.1l-0.1-0.7l0.1,0C37.5,1,37.9,1.5,38,2.4l0,0l0,0c0,0.1,0,0.2-0.2,0.2c0,0.1,0,0.1,0.1,0.1l0,0.1
				l0,0l0,0l0,0.1l0,0l0.1,0.2L38,3.5l0.1,0.4l0,0.1c0,1.1-0.1,1.7-0.2,1.9c0,0.1-0.1,0.2-0.3,0.4l-0.1,0l0-0.7l-0.1-0.1l-0.1,0.1
				l0,0.1l0.1,0.6l0,0l-0.1,0l0,0l0,0L37,6.5l0,0l0-0.2l0-0.2l0.1,0.1l0,0l0-0.1l-0.1-0.2l0-0.1l-0.1,0l0,0.1l0,0l0,0l0,0.2l0,0
				l-0.1-0.3l0-0.4l-0.1-0.1l0,0.2l0.1,0.3l0,0l0,0l0.1,0.5l0,0.2c0,0.1-0.2,0.2-0.5,0.2l-0.4,0l0,0c-0.2,0-0.3,0.1-0.3,0.1l0,0.2
				l0,0.4c0.1,0.1,0.1,0.3,0.1,0.4l0.1,2.2l0,0.2l0.1,0.2l0,0.3l-0.1,0.1l-0.1,0l-0.3,0l-0.4,0.1l-1.1,0.1l0,0l0,0l0-0.2l0-0.2
				l-0.1-0.1l-0.2-3.1l0-0.2l0,0l-0.1-0.5l0-0.8c0-0.3,0-0.5,0.1-0.5L33.4,5l0-0.1l-0.2-3.8l0,0l0,0l0-0.2L33.1,0.7z M33.5,1.2
				l0,0.1L33.5,1.2L33.5,1.2L33.5,1.2z M33.5,1.5l0,0.4l0.1,0.1l0,0l0-0.4L33.5,1.5z M33.8,10.3L33.8,10.3L33.8,10.3L33.8,10.3
				L33.8,10.3z M34,1.8l0,0.1l0,0L34,1.8L34,1.8z M34.1,2.8l0,0.2l0.1,0.1l0-0.2L34.1,2.8L34.1,2.8z M34.2,3.5L34.2,3.5L34.2,3.5
				L34.2,3.5L34.2,3.5z M34.3,1.3L34.3,1.3L34.3,1.3L34.3,1.3L34.3,1.3z M34.4,2.2L34.4,2.2L34.4,2.2L34.4,2.2z M34.6,1.5l0,0.3
				l0.1,0L34.6,1.5L34.6,1.5z M34.8,1.6L34.8,1.6l0.1,0.1L34.8,1.6L34.8,1.6z M35.1,6.8l0,0.1l0,0L35.1,6.8L35.1,6.8z M35.2,10.2
				l0,0.2l0,0l0,0l0,0L35.2,10.2L35.2,10.2z M35.3,3.4l0,0.1l0,0L35.3,3.4L35.3,3.4z M35.4,9.9l0,0.1l0.1,0L35.4,9.9L35.4,9.9z
				 M35.4,2.3l0.1,2.5l0.1,0.1l0.2,0c0.3,0,0.4-0.3,0.4-1l-0.1-0.4l0-0.6C36.1,2.5,35.9,2.3,35.4,2.3z M35.7,1.7l0.2,0.2l0,0L36,1.7
				l0,0l0,0l0-0.2l0,0L35.7,1.7z M35.8,0.7l0,0.4l0,0l0,0l0,0l0,0l-0.1-0.2L35.8,0.7L35.8,0.7z M36.1,6.3l0,0.1l0.1,0L36.1,6.3
				L36.1,6.3z M36.6,5.9l0,0.1l0.1,0L36.6,5.9L36.6,5.9z M36.7,2l0,0.3l0.1-0.1L36.7,2L36.7,2z M36.8,2.5l-0.1,0.3l0,0l0.2,0l0-0.1
				L36.8,2.5L36.8,2.5z M36.9,1.4l0,0.6l0,0c0.1,0,0.1-0.1,0.1-0.3l0-0.1L36.9,1.4L36.9,1.4z M37,4.7l0,0.1L37,4.7L37,4.7L37,4.7z"
				/>
			<path class="st3" d="M40.2,0.4l0.5,0.1l0,0l0,0l0,0L41,0.5l0.3,0l1.8,0.2L43,0.9L43.1,1l0-0.2l0.1,0l0.1,0.1l0.2-0.1l0,0l0.1,0
				l0.1,0l0,0l0,0.2l-0.2,1.7l-0.1,0.1l-0.4-0.1L43,2.7l-0.1,0.1l-0.2,0c-0.1,0-0.1-0.1-0.1-0.1l0,0l0,0l-0.1,0.2l-0.2,0l-0.2,1.5
				l0,0l0,0l0,0.3l0.2,0.1l0,0l0,0l0.2,0l0,0l0,0l0.2,0l0,0l0,0l0,0l0.4,0c0.1,0,0.1,0.1,0.1,0.3l-0.1,1.1c0,0.1-0.1,0.1-0.2,0.1
				l0,0.2L43,6.6l-0.2,0.1l0,0l-0.2,0l0,0l-0.2-0.1l-0.2,0l-0.1-0.1l0,0l0.1-0.2l0-0.3l-0.1,0l0,0.4l0,0.1c0,0.1-0.1,0.1-0.1,0.1
				l0,0l0,0c-0.2,0-0.3,0.1-0.4,0.3l0,0.2l-0.1,0.1l0,0.5l-0.1,0.4l-0.1,1.2l-0.1,0.2l0,0l0,0.2l-0.1,0l0-0.4c-0.1,0-0.1,0-0.1,0.1
				c0,0.2,0.1,0.3,0.1,0.3l0.1,0l0,0l0.1,0.2l0.2-0.1l0.1,0.1l0.1-0.2c0-0.1-0.1-0.2,0-0.5l0,0l0,0l0,0.3l-0.1,0.2l0,0
				c-0.1,0-0.1-0.3-0.1-0.9l0.1,0l0,0l0,0h0.3l0,0.2l0,0l0-0.1c0.1,0,0.1,0.1,0.1,0.4l0.1,0l0-0.3L42.3,9L42.4,9l0,0l0,0l0,0.6
				l-0.1,0.2l0,0.3l-0.1,0.4l-0.1,0l0-0.2l-0.1,0l0,0.2c-0.1,0-0.1,0-0.1,0.1c-0.1,0-0.1,0-0.1,0.1l-0.2,0l-1.5-0.2
				c-0.1,0-0.2-0.1-0.2-0.1l-0.3,0.1L39,10.6l-0.1-0.1l0.2-1.4l0-0.2l0.1-0.4l0,0l0-0.2l0,0c0.1,0,0.1,0.1,0.1,0.3l0,0l0.1-0.8l0,0
				l0,0l0,0c0-0.1,0-0.2-0.1-0.2c0.1-0.3,0.1-0.4,0.2-0.4l0.1,0l0-0.2l-0.2,0l0-0.4l0.1-0.1l0-0.4l0,0l0-0.5l0-0.1l0,0l0-0.5
				l0.2-1.5l0.1-0.2l-0.1-0.3L40,2l0.1-0.3l0,0l0,0l0-0.9l0.1-0.2l0,0l0,0L40.2,0.4z M39.3,8.1L39.3,8.1L39.3,8.1L39.3,8.1L39.3,8.1
				z M39.3,9L39.3,9L39.3,9L39.3,9L39.3,9z M39.3,7.8L39.3,7.8l0,0.1l0,0L39.3,7.8z M39.4,9.7l-0.1,0.5l0.1,0L39.4,9.7L39.4,9.7z
				 M39.5,8.8l0,0.1l0,0L39.5,8.8L39.5,8.8z M39.7,7l0,0.1l0,0.2l0,0l0,0l0,0.5l-0.1,0.2l0,0.2l0.1,0l0.2-1.3L39.7,7L39.7,7z
				 M39.6,10.1l0,0.4l0.1,0l0,0l0-0.2L39.6,10.1L39.6,10.1L39.6,10.1z M39.7,9.9l0,0.1l0,0L39.7,9.9L39.7,9.9z M39.7,6.8L39.7,6.8
				L39.7,6.8L39.7,6.8L39.7,6.8z M40,8.4l0,0.2l-0.1,0.2l-0.1,0l0,0l0,0l0,0.1l0,0l0.1,0l0,0.2l0,0C40,9,40.1,9,40.1,8.9l-0.1-0.3
				L40,8.4L40,8.4z M39.8,5.5L39.8,5.5L39.8,5.5L39.8,5.5L39.8,5.5z M39.9,4.7l-0.1,0.2L39.9,5l0,0L39.9,4.7L39.9,4.7z M40,6.6
				l-0.1,0.1l0,1l0,0.4l0.1,0.1L40,7.5l0-0.2L40,7.1L40,6.6L40,6.6z M39.9,9.3l0,0.1c-0.1,0.4,0,0.7,0,0.7l0.1-0.6
				C40.1,9.4,40,9.3,39.9,9.3L39.9,9.3z M39.9,5.4l0.2,0l0-0.3l0-0.3C40.1,4.8,40,5,39.9,5.4z M40,2.5l0,0.2L40,3l0.1,0l0-0.1
				l-0.1-0.1L40,2.5L40,2.5L40,2.5z M40,5.9L40,5.9L40,5.9L40,5.9z M40.1,2.3l0,0.2L40.1,2.3L40.1,2.3z M40.1,5.6L40.1,5.6L40.1,5.6
				L40.1,5.6L40.1,5.6z M40.2,1.2l-0.1,0.5l0,0l-0.1,0.1l0,0.1l0,0l0.1-0.2l0,0l0,0l0,0L40.2,1.2L40.2,1.2z M40.2,4.3L40.2,4.3
				L40.2,4.3L40.2,4.3L40.2,4.3z M40.2,8.8l0.1,0.1l0,0l0-0.1l0.1-0.2l0,0C40.3,8.6,40.2,8.6,40.2,8.8z M40.2,6.5l0,0.2l0.1-0.1
				L40.2,6.5L40.2,6.5z M40.3,3.6l0,0.1l0,0L40.3,3.6L40.3,3.6z M40.3,2.9l0,0.4l0.1,0L40.3,2.9L40.3,2.9z M40.3,6L40.3,6L40.3,6
				L40.3,6L40.3,6z M40.3,5.1L40.3,5.1v0.3l0.1,0l0-0.1l0,0l0,0l0,0L40.3,5.1L40.3,5.1z M40.4,7.7l-0.1,0.7l0.1,0l0,0L40.5,8
				C40.5,7.8,40.5,7.7,40.4,7.7z M40.4,4.5L40.4,4.5L40.4,4.5L40.4,4.5L40.4,4.5z M40.5,7.4l0,0.2l0,0L40.5,7.4L40.5,7.4L40.5,7.4z
				 M40.5,1.6L40.5,1.6L40.5,1.6L40.5,1.6L40.5,1.6z M40.5,7.1l0,0.2c0.1,0,0.1,0,0.1-0.1L40.5,7.1L40.5,7.1z M40.7,0.6
				c0,0.1,0,0.1-0.1,0.1l-0.1-0.1l0,0l0,0l0,0l0,0l0,0l0,0l0.2,0.1L40.7,0.6L40.7,0.6z M40.5,6.4l0,0.2l0,0l0.1-0.1l0-0.1L40.5,6.4z
				 M40.6,6l-0.1,0.1l0,0.1l0,0l0.1-0.1L40.6,6L40.6,6z M40.6,9.3l0,0.3l0.1,0L40.6,9.3L40.6,9.3z M40.6,5.3L40.6,5.3l0,0.2l0,0
				l0.1-0.1L40.6,5.3L40.6,5.3z M40.7,7.6L40.7,7.6l-0.1,0.5l0,0.1l0.1,0L40.7,7.6L40.7,7.6z M40.7,4.5L40.7,4.5l-0.1,0.1l0.1,0
				L40.7,4.5L40.7,4.5z M40.8,9.3l-0.1,0.5l0,0l0,0l0.1-0.4L40.8,9.3z M40.8,6.1L40.8,6.1L40.8,6.1L40.8,6.1L40.8,6.1z M40.9,7.9
				L40.9,8l0,0.8L40.8,9l0,0l0,0L40.9,7.9L40.9,7.9z M40.8,5.6L40.8,5.6L40.8,5.6L40.8,5.6z M40.9,4.7l-0.1,0.4l0,0.1L41,5.2
				C41,4.9,41,4.7,40.9,4.7z M40.8,5.4l0,0.1L40.8,5.4L40.8,5.4L40.8,5.4z M40.9,2.3L40.9,2.3L40.9,2.3L40.9,2.3L40.9,2.3z
				 M40.9,1.3l0,0.4l0,0.3L41,2L40.9,1.3L40.9,1.3L40.9,1.3L40.9,1.3z M41,7.6l0,0.1l0,0L41,7.6L41,7.6z M41,6.7L41,6.8l0.1,0.1
				L41,6.7L41,6.7z M41,7.1l0,0.1l0,0L41,7.1L41,7.1z M41.1,2.9L41,3.6l0.1,0.1L41.1,2.9L41.1,2.9z M41.1,5.4l-0.1,0.5l0,0.7l0,0
				l0.1-0.1l0-0.2l0.1-0.1L41.1,5.4L41.1,5.4z M41.1,8.8l0,0.2l0,0L41.1,8.8L41.1,8.8z M41.1,4.9l0,0.2l-0.1,0.1l0,0l0.1,0L41.1,4.9
				L41.1,4.9z M41.2,8l-0.1,0.5l0,0.3l0,0l0.1-0.2l0-0.3L41.2,8L41.2,8z M41.1,2.4l0,0.1l0.1,0.1L41.1,2.4L41.1,2.4z M41.2,4.7
				L41.2,4.7L41.2,4.7L41.2,4.7L41.2,4.7z M41.2,7.1l0,0.4l0,0.1l0.1,0l0-0.2l0.1-0.3l0,0L41.2,7.1L41.2,7.1L41.2,7.1z M41.4,5.5
				L41.4,5.5L41.4,5.5L41.4,5.5L41.4,5.5z M41.5,0.8l0,0.2l0,0.2l0,0l0.1-0.3L41.5,0.8L41.5,0.8z M41.6,3.1l0,0.1l0.1,0L41.6,3.1
				L41.6,3.1z M41.6,9l0,0.1l0,0L41.6,9L41.6,9z M41.6,5.8L41.6,5.8L41.6,5.8L41.6,5.8L41.6,5.8z M41.7,4.8l0,0.3l0.1,0L41.7,4.8
				L41.7,4.8z M41.8,10.6l0,0.2l0,0L41.8,10.6L41.8,10.6L41.8,10.6z M41.8,9.7l0,0.4l0,0l0.1-0.1l0-0.2L41.8,9.7L41.8,9.7z
				 M41.9,3.4l-0.1,0.2l0,0l0,0L41.9,3.4L41.9,3.4z M41.8,6.3L41.8,6.3L41.8,6.3L41.8,6.3L41.8,6.3z M41.9,5.7l0,0.2l0.1,0L41.9,5.7
				L41.9,5.7z M41.9,6.4L41.9,6.4L41.9,6.4L41.9,6.4L41.9,6.4z M41.9,2.7l0,0.2l0,0L41.9,2.7L41.9,2.7z M42.8,9.3L42.8,9.3l0.1,0.4
				l0,0l0,0l0,0l-0.1,0.6l0,0l0,0L42.7,11l-0.2,0c-0.1,0-0.2-0.1-0.2-0.1L42.1,11c-0.1-0.1-0.2-0.1-0.2-0.1c0.1,0,0.2,0,0.2-0.1
				l0.2,0.1l0,0l0,0l0-0.6l0.1-0.2l0-0.4l0.1-0.1l0.1,0l0.1,0.1l0.1-0.2L42.8,9.3z M42,1.4L42,1.4L42,1.5L42,1.4L42,1.4z M42.1,9.5
				L42,10l0.1,0.1l0.1-0.1l0-0.1C42.1,9.7,42.1,9.6,42.1,9.5L42.1,9.5z M42,1L42,1L42,1L42,1L42,1z M42.2,1.9L42.2,1.9l-0.1,0.1
				l0.1,0.1l0,0L42.2,1.9L42.2,1.9z M42.2,2.2L42.2,2.2L42.2,2.2L42.2,2.2L42.2,2.2z M42.2,1.4l0,0.1l0.1,0L42.2,1.4L42.2,1.4z
				 M42.4,6.2l0,0.1l0,0l0.1-0.1L42.4,6.2L42.4,6.2z M42.4,5.8L42.4,5.8l0.2,0.1l0-0.1l0,0L42.4,5.8z M42.5,1.2l0,0.3l0.1,0
				L42.5,1.2L42.5,1.2z M42.6,9.2L42.6,9.2L42.6,9.2l-0.1,0.2l0,0L42.6,9.2L42.6,9.2z M42.6,9.9L42.6,9.9L42.6,9.9l0,0.2l0,0
				l0.1-0.1l0,0L42.6,9.9L42.6,9.9z M42.6,6.3L42.6,6.3l0.2,0.1l0-0.2L42.6,6.3L42.6,6.3z M42.8,9L42.8,9l0.1,0.1l0,0l0,0L42.8,9
				L42.8,9z M43,1.5l0,0.3l0.1,0L43,1.5L43,1.5z M43.6,1l0,0.1l0,0L43.6,1L43.6,1z"/>
			<path class="st3" d="M46.6,2L46.6,2L46.6,2l0.2,0.1l0,0.2l0.1,0c0.1,0,0.1,0,0.1-0.1l0.1,0L47,2.4l0,0l0.1,0l0,0l-0.1,0.6l0,0
				l0.1-0.2l0.1,0l0,0.2l0,0l-0.2,0.4l0.1,0.2l0.1-0.3l0.1-0.4l0.2,0.1l0-0.1l0-0.1l0.1,0l0-0.1l-0.1-0.2c0,0.1-0.1,0.1-0.1,0.1
				l-0.1-0.2l0,0l-0.1,0l0,0l0-0.3l-0.2,0l0-0.1l0,0l0.1,0l0,0l0,0.1l0.2,0.1l0.3,0l0,0.3l0,0l0.2-0.2l0.3,0.1c0,0.1,0,0.2,0.1,0.2
				l0.1-0.1L48.5,3l0,0l0-0.1l0.1,0l0,0.1l0,0.3l-0.1,0.3l0.1,0c0-0.2,0.1-0.2,0.2-0.2l0.4,0.1l0.1,0c0,0.2,0,0.4,0,0.4l0.1,0
				c0,0.1,0,0.2,0,0.4c0.1,0,0.1,0,0.1-0.1l0.1,0l0,0c0.1,0,0.1,0.1,0,0.2l0.1,0l0.1-0.2l0-0.1l0,0l0.1,0l0,0L50,3.7l0,0
				c0.2,0.1,0.2,0.5,0.2,1.5l0,0.2l-0.2,0L50,5.5l0.1,0l0.1-0.2l0.1,0l0,0.2L50.1,6l0,0.1L50,6l0,0c-0.4,1-0.6,1.5-0.8,1.5l0,0
				l0.1-0.2l0,0c-0.1,0.4-0.3,0.5-0.4,0.5l-0.4,0l0,0c0.6,0.5,0.8,1.1,0.6,1.6l-0.2,0.4l0,0.1l-0.2,0l0,0.1c0.2,0,0.2,0.3,0,0.8
				l-0.4,1.1l0,0.2l-0.1,0.1l-0.2,0.5l0,0.2c-0.1,0.1-0.1,0.2-0.2,0.2L47.6,13c0,0.1-0.1,0.1-0.1,0.1l0-0.1l-0.2,0L47.1,13L47,13
				l0-0.1l0.1-0.3l0,0l-0.1,0l0,0l0,0.2l0,0l-0.1,0l0,0l-0.1-0.1l-0.3,0l0,0l-0.1,0L46,12.7c-0.2-0.1-0.2-0.2-0.1-0.3l0.1-0.2
				l0.1-0.4l0-0.2l0.1-0.1l0.1,0l0.1,0.1l0.1,0l0-0.1c0-0.1-0.1-0.1-0.2-0.2c0-0.1,0-0.4,0.1-0.7L46.9,9L47,9
				c0.1-0.6,0.1-0.9-0.1-0.9l0,0l-0.1,0L46.6,8l-1,3.2c0,0.1-0.1,0.1-0.2,0l0,0.1c0.1,0.1,0.1,0.3,0,0.4l-0.1,0.2l0,0.2l-0.1,0.2
				L45,12.4l-0.2-0.1l-0.2-0.1l-0.2,0l-0.2-0.1l-0.1-0.2l-0.1,0l0,0.1L44,12l0-0.1c0-0.1,0.1-0.1,0.1,0l0.1,0l0,0l0-0.1l-0.1,0
				l-0.2-0.1l-0.1,0.2l-0.1,0.1l0-0.1l-0.2,0l-0.3-0.1c-0.1,0,0-0.2,0-0.4l0.1-0.1l0-0.2l0.2-0.4l0.1-0.6c0.1-0.3,0.2-0.4,0.2-0.4
				L44,8.8l0,0l0-0.1l0,0l0.1,0l0-0.1l0.1-0.5l0.1,0l0-0.1l0.2-0.6l0.1-0.4c0.3-0.6,0.5-1,0.6-1.2l0-0.1l0,0l0.1,0
				c0,0.1,0,0.1,0,0.1l0.1-0.2l0.2,0.1l0.1,0l0-0.1l-0.1-0.1l-0.1,0l0-0.2c0-0.1,0.1-0.1,0.1,0l0-0.1c-0.1,0-0.1-0.2-0.1-0.5l0-0.1
				l0,0l-0.1,0l0,0.1l0,0c-0.1,0-0.1,0.1-0.2,0.2l-0.2,0l0.4-1.3l0.1-0.1l0-0.2l0.4-1.3L46.2,2l0.1,0.2C46.4,2.1,46.5,2,46.6,2z
				 M43.6,10.9l0.1,0.1l0.1,0l0-0.1L43.6,10.9z M43.6,11.6L43.6,11.6l0,0.1l0,0l0-0.1L43.6,11.6z M43.7,10.6L43.7,10.6L43.7,10.6
				L43.7,10.6L43.7,10.6z M44,9.4l0,0.2l-0.1,0l0,0.1l0.1,0L44,9.4L44,9.4z M44.2,8.7l-0.1,0.1l0,0.1l0,0L44.2,8.7L44.2,8.7z
				 M44.2,11.4l-0.1,0.2l0.1,0l0.1-0.1l0.1-0.2l-0.1,0L44.2,11.4z M44.3,8.4l0,0.1l0.1,0l0-0.1L44.3,8.4z M44.3,8L44.3,8l0,0.3
				l0.1,0l0-0.2L44.3,8z M44.3,11.1l0,0.1l0,0l0.1-0.1l0-0.1L44.3,11.1L44.3,11.1L44.3,11.1z M44.5,10.8l-0.1,0.1l0,0.1l0.1,0l0-0.1
				L44.5,10.8z M44.6,8.2L44.6,8.2l0.1,0.1l0,0l-0.1-0.1L44.6,8.2z M44.6,11l0.1,0.1l0,0l0.1-0.1l-0.1-0.1l0,0L44.6,11z M44.8,7.4
				l-0.1,0.2l0,0l0.2,0l0.1,0.1l0-0.1l0-0.2L45,7.4L44.8,7.4z M44.9,8.1l-0.1,0.2l0,0L44.9,8.1L44.9,8.1z M45,11l0,0.1l0.1,0L45,11
				L45,11z M45,8.8L45,9l0,0L45.1,9l0-0.1L45,8.8L45,8.8z M45,7.9L45,8L45,7.9L45,7.9L45,7.9z M45.1,5.4L45.1,5.4l0.1,0.1l0,0
				l-0.2,0L45.1,5.4z M45.2,8.1l0,0.1l0,0L45.2,8.1L45.2,8.1z M45.4,8l0.1,0.1l0.1,0l0-0.1l0,0L45.4,8z M45.4,6.1L45.4,6.1l0.1,0.1
				l0-0.1l0,0L45.4,6.1z M45.5,6.9l0,0.1L45.5,6.9L45.5,6.9L45.5,6.9z M45.6,8.7L45.6,8.7L45.6,8.7L45.6,8.7L45.6,8.7z M45.7,6.2
				L45.7,6.2L45.7,6.2L45.7,6.2L45.7,6.2z M45.9,7.7l0,0.1L45.7,8l0,0.3l0.1,0l0.1-0.2l0,0.1L46,8.2l0-0.2L46,8l0,0
				c-0.1,0-0.1,0-0.2,0.1L45.8,8L45.9,7.7L45.9,7.7z M45.8,7l0,0.1l0,0L45.8,7L45.8,7z M45.8,4.8L45.8,5l0,0L45.8,4.8L45.8,4.8z
				 M45.8,3.7l0,0.1l0,0L45.8,3.7L45.8,3.7z M45.8,5.6L45.8,5.6L45.8,5.6l0.1-0.1L45.8,5.6z M46.4,5.6l0,0.1c0,0.1-0.1,0.2-0.1,0.2
				l-0.1-0.1l-0.1,0L46,6.1L46,6.2c0-0.1,0.1-0.1,0.1-0.1s0.1,0.1,0,0.2l0,0.1l0.1,0l0.1-0.1l0-0.2L46.4,6
				C46.5,5.8,46.5,5.7,46.4,5.6L46.4,5.6z M46.1,3.7L46.1,3.7l0,0.2L46,4.1l0,0L46,4.2l0.1,0l0,0l0-0.3l0.1-0.1L46.1,3.7L46.1,3.7z
				 M46.2,6.6L46.2,6.6L46.2,6.6L46.2,6.6L46.2,6.6z M46.2,2.3l0,0.2l0,0L46.2,2.3L46.2,2.3z M46.6,2.8l0,0.1l-0.2,0.7l-0.1,0.4
				l-0.1,0.2l0,0.1l0,0l0-0.1l0,0l0-0.1l0-0.1l0.2-0.3l0.1-0.4l0-0.1l0.1-0.2l0-0.3l0,0L46.6,2.8z M46.4,2.7l-0.2,0.5l0.1,0l0.1-0.4
				L46.4,2.7z M46.4,6.3L46.4,6.3l0,0.1L46.4,6.3L46.4,6.3z M46.5,4.3L46.5,4.3L46.5,4.3L46.5,4.3l0.1,0.1l0-0.1L46.5,4.3z
				 M46.5,6.1l0,0.1l0,0L46.5,6.1L46.5,6.1z M46.9,3L46.9,3l-0.1,0.2c-0.1,0.2,0,0.3,0.1,0.4l0,0.1l-0.2,0l0,0.1l0.1,0l0,0L46.6,4
				l0.1,0.2l0.1-0.1l0,0l-0.1,0.2c0,0.1,0.1,0.1,0.2,0.2L47,4.6l0.1,0l0,0c-0.1,0.3-0.1,0.4,0,0.4l0,0l0.1-0.2l0.1,0l0-0.5l0.1-0.2
				l0.1-0.2l-0.1,0l0,0l-0.2,0.4l0,0l-0.1,0.1l0,0.1l0,0.1l-0.1,0c-0.1,0-0.1-0.1-0.1-0.2l-0.1,0l0,0.1l0,0l0-0.2l0.1,0l0,0.1l0.1,0
				c0-0.1,0.1-0.1,0.1-0.1c0-0.2-0.1-0.4-0.1-0.4l0-0.6c0,0.1-0.1,0.2-0.2,0.2l-0.1-0.1l0.1,0l0-0.1L46.9,3z M46.6,2.2L46.6,2.2
				l0.1-0.1L46.6,2.2z M46.7,12.6L46.7,12.6l0.2,0.1l0,0l-0.1-0.1l0,0L46.7,12.6z M46.8,9.9l0,0.2l-0.1,0.1l0,0.3l0.1,0l0,0l0-0.3
				L46.8,9.9L46.8,9.9z M46.7,3.9l0.1,0L46.8,4l0,0L46.7,3.9L46.7,3.9z M47,6.4l-0.2,0.3l0.1,0L47,6.7L47,6.4L47,6.4z M46.9,7.9
				L46.9,7.9L46.9,8L46.9,7.9z M47.2,9.7L47.2,9.7l-0.1,0.3l0,0.2L47,10.3l0.1,0l0.2-0.6L47.2,9.7L47.2,9.7z M47.1,9l0,0.2l0.1,0.1
				l0,0l0.1-0.1l0-0.2l0,0L47.1,9z M47.7,4.3l-0.1,0.2l-0.1,0l-0.1,0.2l-0.1,0l0,0l0,0.1l0,0l0.1,0l-0.1,0.5l0,0l0,0.1l0,0.1l-0.1,0
				l0,0.1L47.2,6c-0.1,0.2-0.1,0.3-0.2,0.2l0,0.1l0.4,0.1c0.2,0,0.2-0.1,0.3-0.2l0.1,0l-0.1,0.1c-0.1,0.4-0.1,0.6-0.1,0.6L47.8,7
				c0-0.3,0-0.5,0.1-0.7l0.1,0l0.3,0.1c0,0.1,0,0.1,0,0.1l0,0l0-0.1l0-0.3l0,0c0,0.1-0.1,0.1-0.1,0.1c-0.1,0-0.1-0.1-0.1-0.2
				l0.1-0.1l0.1-0.5l-0.1,0l-0.2,0.3l0,0l0-0.1l0,0l0.1-0.2l0.1-0.2c0-0.1,0-0.2,0-0.2l0.1,0c0.1-0.4-0.1-0.6-0.4-0.7l-0.1,0
				L47.7,4.3z M47.2,7.6l-0.1,0.4l0.1,0l0.1-0.4L47.2,7.6z M47.3,9.1l0,0.1l0.1,0.1l0,0l0.1-0.1l0-0.1L47.3,9.1z M47.3,12.5l0,0.1
				l0,0L47.3,12.5L47.3,12.5z M47.4,6.6L47.4,6.6l0,0.3l0.1,0l0.1-0.1l0-0.2l0,0L47.4,6.6z M47.5,7.4l0,0.2l0.1,0.1L47.5,7.4
				L47.5,7.4z M47.5,2.4l0,0.1l0,0L47.5,2.4L47.5,2.4z M47.5,8.2l0.1,0.1l0-0.2L47.5,8.2z M47.5,8.4L47.5,8.4l0.1-0.1L47.5,8.4z
				 M47.6,3.3L47.6,3.3L47.6,3.3l0.1-0.1L47.6,3.3z M47.6,9.3l0.1,0.1L47.6,9.3L47.6,9.3z M47.9,7.3l0,0.1l0,0L47.9,7.3L47.9,7.3z
				 M48,6.4l-0.1,0.4l0,0c0,0.2,0,0.3,0,0.3l0,0L48,6.9l0-0.2l0.1-0.2l0-0.1L48,6.4z M48,3.7L48,3.7l0,0.1l0,0l0-0.1L48,3.7z
				 M48,9.5L48,9.5l0,0.1l0,0l0-0.1L48,9.5z M48,7.4L48,7.4l0.1,0.1l0.1-0.1l0-0.1l0,0L48,7.4z M48.1,2.6l0,0.1l0,0L48.1,2.6
				L48.1,2.6z M48.5,6.7c-0.1,0.2-0.1,0.3-0.2,0.2l-0.2-0.1l0,0.2l-0.1,0l0.1,0.1l0.1,0l0.1,0c0.1,0,0.1,0.1,0,0.3l0,0
				c0.1-0.2,0.1-0.3,0.2-0.3c0.1,0,0.1,0.1,0,0.1l0.1,0c0.1-0.2,0-0.3-0.1-0.3C48.5,7,48.5,6.9,48.5,6.7L48.5,6.7z M48.2,10.7
				L48.2,10.7L48.2,10.7l0.1,0l0-0.1l0,0L48.2,10.7z M48.3,8.6l-0.2,0.3l0,0.1l0,0l0.1,0l0.1-0.3L48.3,8.6z M48.3,6.5l0,0.2l0.1,0
				L48.3,6.5L48.3,6.5z M48.3,9.6L48.3,9.6L48.3,9.6L48.3,9.6L48.3,9.6z M48.3,10.3L48.3,10.3L48.3,10.3l0.1,0l0,0l0,0L48.3,10.3z
				 M48.4,3.1l-0.1,0.1l0,0.1l-0.1,0l0.1,0l0-0.1l0.1,0l0-0.1L48.4,3.1z M48.4,8.1l-0.1,0.4l0.1-0.1l0-0.1l0-0.1l0.1,0l0-0.1
				L48.4,8.1L48.4,8.1z M48.4,10.1l0,0.1l0.1,0l0-0.1L48.4,10.1z M48.6,5.5l-0.1,0.4L48.5,6l0.1-0.2l0.1-0.2L48.6,5.5L48.6,5.5z
				 M48.5,9.7L48.5,9.7l0.1,0.1L48.5,9.7L48.5,9.7z M48.8,6.7L48.7,7l0,0L48.8,6.7L48.8,6.7z M48.8,4.9L48.8,4.9L48.8,4.9L48.8,4.9
				L48.8,4.9z M48.8,5.9L48.8,5.9L48.8,5.9L48.8,5.9L48.8,5.9z M48.8,5.7l0.1,0.1l0.1,0l0,0L48.8,5.7z M48.9,6.4l-0.1,0.3l0,0
				L48.9,6.4L48.9,6.4z M49.1,5.6L49,5.7l0,0.2L49,6l0.2-0.1C49.2,5.7,49.2,5.6,49.1,5.6z M49.3,5.9C49.2,6,49.1,6.1,49,6l0.1,0.1
				l0,0c0.1,0,0.2,0.1,0.1,0.3l0.1,0l0.1-0.2C49.4,6.1,49.4,6,49.3,5.9L49.3,5.9z M49.2,5.4L49.2,5.4L49.2,5.4L49.2,5.4L49.2,5.4z
				 M49.5,6.2l-0.1,0.2l-0.1,0l0,0.1l-0.1,0.2l-0.1,0.2l0,0.3l0,0L49.4,7l0-0.1l0.1-0.3l0-0.3L49.5,6.2z M49.4,3.1L49.4,3.1
				c0.1,0,0.1,0.1,0.1,0.2l-0.1,0.2l-0.1,0l-0.1-0.1L49.4,3.1z M49.4,4.5L49.4,4.5L49.4,4.5L49.4,4.5L49.4,4.5z M49.7,3.2
				C49.9,3.4,50,3.5,50,3.6l-0.1,0l0,0C49.6,3.5,49.6,3.4,49.7,3.2L49.7,3.2L49.7,3.2z M49.7,6.4L49.7,6.4L49.7,6.4L49.7,6.4
				L49.7,6.4z M49.8,3.8L49.8,3.8L49.8,3.8L49.7,4l0-0.1l0,0L49.8,3.8z M49.7,5.5l0,0.1L49.7,5.5L49.7,5.5L49.7,5.5z M49.8,6.2
				l0,0.2l0,0L49.8,6.2L49.8,6.2z M50.1,4.4L50.1,4.4l0.1,0.1L50.1,4.4L50.1,4.4z"/>
			<path class="st3" d="M53.2,3.6l0.5,0.3l0.1,0.1L54,4l0,0.1l-0.2,0.4l-0.2,0.1l-0.1-0.2l0,0.1l0,0l-0.1,0.4l-0.3,0.5l0,0l0.2-0.1
				L53.5,5l0-0.1l0.1-0.2l0.1,0l0,0.3l-0.3,0.6l0.1,0.1l0.2-0.2l0-0.1l0.2-0.2l0,0l0,0.3l0,0l-0.1,0l-0.1,0.1l0.1,0.1l0.2-0.3l0-0.1
				l0,0L54,5l0.2-0.6l0.2-0.2l0.1,0.1c0-0.1,0.1-0.1,0.1-0.1L55,4.5l0,0.1l0,0l-0.1,0l-0.1,0.2l-0.3,0.7l-0.2,0.2l-0.2,0.6l-1.6,3.1
				l-0.2,0.3l0,0c-0.1,0.1-0.1,0.2,0,0.2l-0.1,0l-0.1,0.3l0,0.1l-0.5,0.9l-0.1,0.3l-0.1,0.2l-0.1,0.2l-0.1,0.1L51,12.7l-0.5,1
				l-0.2,0.1l-0.1-0.1c-0.2-0.1-0.4-0.2-0.3-0.3l-0.3,0l-0.3-0.2l-0.1,0l0,0l0-0.1l-0.5-0.2l-0.2-0.1c0,0,0-0.1,0-0.3l0.1-0.1
				l0.3-0.8l0.2-0.4l0,0l0.1,0.1l0.1,0l0,0l0.1-0.3l-0.1,0l-0.1-0.1l0,0c0.2-0.4,0.4-0.7,0.5-0.7l0-0.1c0-0.1,0-0.2,0-0.3l0.1-0.1
				l0.2-0.3l0.1-0.4l0-0.1l0.2-0.3l0.2-0.4l0.6-1.2l0.3-0.6l0.1,0l0,0L52,5.7l0.2-0.4l0.3-0.4l0-0.1l0.1,0l0,0c0,0.1,0,0.1,0,0.1
				l0,0l0.1-0.2l0-0.2l0.1-0.1l0-0.1l-0.1,0l-0.2,0.3l0,0l0-0.1l0.1-0.2l0.1-0.3l0.3-0.4l0-0.1L53.2,3.6z M48.8,12.2l-0.1,0.1l0,0
				L48.8,12.2L48.8,12.2z M49.1,12.3l-0.2,0.3C49,12.7,49.1,12.6,49.1,12.3L49.1,12.3L49.1,12.3z M49.4,11.8l-0.1,0.1l0,0L49.4,11.8
				L49.4,11.8z M49.6,11.7l-0.2,0.3c0,0,0.1,0.1,0.2,0.3l0,0.1l-0.1,0.3l0.1,0l0-0.1l0.1-0.2l0.1-0.1l0-0.1l-0.1,0l0,0.1
				C49.7,12.1,49.7,12,49.6,11.7L49.6,11.7z M49.9,10.6l-0.1,0.2L49.7,11c-0.1,0.2-0.1,0.3,0,0.3L49.9,10.6L49.9,10.6z M49.9,11.2
				l-0.2,0.3l0.1,0l0.1-0.2L49.9,11.2z M50.3,12.3L50.3,12.3l0.1,0.1l0.1-0.1l0,0L50.3,12.3z M50.6,9.1l-0.1,0.1l0.1,0L50.6,9.1
				L50.6,9.1z M51.2,9.8l-0.1,0.2l0.1,0L51.2,9.8L51.2,9.8z M51.2,11L51.2,11l-0.1,0.1l0.1,0l0-0.1L51.2,11z M51.5,9.8L51.5,9.8
				L51.5,9.8l0.1,0L51.5,9.8z M51.7,9.7l-0.1,0.1L51.7,9.7L51.7,9.7L51.7,9.7z M52.1,8.3l-0.3,0.5l0,0.1L52,8.9
				C52,8.8,52.1,8.6,52.1,8.3L52.1,8.3L52.1,8.3z M52.1,9.8L52.1,9.8L52.1,9.8L52.1,9.8L52.1,9.8z M52.2,5.7L52.2,5.7v0.2V5.7
				L52.2,5.7z M52.2,8.8l-0.1,0.1l0,0L52.2,8.8L52.2,8.8z M52.5,5.5l-0.2,0.4L52.4,6l0.2-0.2l0.1-0.2L52.5,5.5z M52.5,7.5
				C52.3,7.8,52.3,8,52.3,8l0.3-0.6L52.5,7.5z M52.7,7.5l-0.1,0.1l0,0.1l-0.3,0.5l0,0.1l0.4-0.7L52.7,7.5L52.7,7.5z M52.6,5.8
				L52.6,5.8L52.6,5.8l0.1,0l0,0l0,0L52.6,5.8z M52.9,5.3l-0.1,0.2l0.1,0l0,0L52.9,5.3L52.9,5.3z M53.3,7.2l-0.2,0.2l-0.2,0.3
				c0.1,0,0.2-0.1,0.3-0.3L53.3,7.2L53.3,7.2z M53,4.3L53,4.5l0,0.1L53,4.3L53,4.3L53,4.3z M53.2,6l-0.1,0.1l0,0.1L53.2,6L53.2,6z
				 M53.3,3.8l-0.1,0.1l0.1,0L53.3,3.8L53.3,3.8z M53.5,4.1L53.5,4.1l0,0.2l-0.1,0.2l0.1,0L53.5,4.1L53.5,4.1z M53.6,5.7l-0.1,0.1
				l0,0L53.6,5.7L53.6,5.7z M53.8,4l-0.2,0.3l0,0L53.8,4L53.8,4z M54,5.4L54,5.5l0,0L54,5.4L54,5.4z M54.3,4.8l0,0.1l0.1-0.1
				L54.3,4.8z M54.5,4.5l-0.1,0.2l0,0.1l0,0L54.5,4.5L54.5,4.5z"/>
			<path class="st3" d="M56.7,5.7L57.2,6l0,0.1l0.1,0l0,0l0.1,0.1l0.3,0.1l1.5,1L59,7.5l0.1,0.1l0.1-0.2l0.1,0.1l0,0.1l0.2,0l0,0.1
				l0.1,0.1l0.1,0l0,0l-0.1,0.2l-1,1.4l-0.2,0l-0.3-0.2L58.1,9L58,9l-0.2-0.1c0,0,0-0.1,0-0.1l0-0.1l0,0l-0.1,0.1l-0.2-0.1l-0.9,1.3
				l-0.1,0l0,0.1l-0.2,0.2l0.1,0.1l0.1,0l0,0.1l0.1,0.1l0.1,0l0,0.1l0.1,0.1l0.1,0l0,0.1l0,0l0.4,0.2c0.1,0.1,0.1,0.2,0,0.3
				l-0.6,0.9c0,0-0.1,0-0.2,0l-0.1,0.2l0,0.3l-0.3,0l0-0.1L56,12.4l-0.1,0l-0.1-0.2l-0.2-0.1l0-0.1l0,0l0.1-0.1l0.1-0.3l-0.1,0
				L55.7,12l0,0.1c0,0-0.1,0-0.1,0l0-0.1l0,0c-0.2-0.1-0.4,0-0.5,0.1l-0.1,0.2l-0.1,0.1l-0.2,0.4l-0.2,0.3l-0.6,1l-0.2,0.1l0,0.1
				l-0.1,0.2l-0.1,0l0.1-0.4c-0.1,0-0.1,0-0.2,0.1c-0.1,0.2-0.1,0.3,0,0.3l0.1,0l0,0l0,0.2l0.2,0l0,0.2l0.2-0.1
				c0-0.1,0.1-0.2,0.2-0.5l0-0.1l0,0l-0.2,0.3l-0.1,0.1l0,0c0,0,0.1-0.3,0.3-0.8l0.1,0l0,0.1l0,0l0.3,0.2l-0.1,0.2l0,0l0.1-0.1
				c0.1,0,0,0.2-0.1,0.4l0.1,0l0.2-0.2l0.1,0l0,0.1l-0.1,0l0,0L54.4,15l-0.2,0.2l-0.1,0.3l-0.3,0.3l-0.1-0.1l0.1-0.2l-0.1,0
				l-0.1,0.2c-0.1,0-0.1,0-0.2,0.1c0,0-0.1,0-0.1,0.1l-0.2-0.1l-1.3-0.9c-0.1-0.1-0.2-0.1-0.1-0.2l-0.2-0.1L51,14.3l0-0.2l0.8-1.2
				l0.1-0.2l0.3-0.3l0-0.1l0.1-0.1l0,0c0,0,0,0.1-0.1,0.2l0,0l0.5-0.7l0,0l-0.1,0l0,0c0.1-0.1,0.1-0.2,0-0.2
				c0.2-0.2,0.3-0.3,0.4-0.3l0.1,0l0.1-0.1L53,11.2l0.2-0.3l0.2-0.1l0.2-0.4l0.1,0l0.2-0.5l0-0.1l0,0l0.2-0.4L55,8.2l0.2-0.2
				l0.1-0.2L55.8,7L56,6.8l0,0l0.1,0L56.4,6l0.2-0.2l0-0.1l0,0L56.7,5.7z M51.8,13.6l-0.3,0.4l0.1,0L51.8,13.6L51.8,13.6z
				 M51.8,14.1l-0.2,0.3l0.1,0l0,0l0.1-0.2L51.8,14.1L51.8,14.1L51.8,14.1z M51.9,13.9L51.9,14l0,0L51.9,13.9L51.9,13.9z M52,12.9
				L52,12.9L52,12.9L52,12.9L52,12.9z M52.4,13.5l-0.1,0.1c-0.2,0.4-0.3,0.6-0.3,0.6l0.4-0.5C52.5,13.7,52.5,13.6,52.4,13.5
				L52.4,13.5z M52.3,12.9L52.2,13l0,0L52.3,12.9L52.3,12.9z M52.4,12.1L52.4,12.1L52.4,12.1L52.4,12.1L52.4,12.1z M53.2,11.4
				l-0.1,0.1l-0.1,0.2l-0.1,0l0,0l-0.2,0.5l-0.2,0.2l-0.1,0.2l0.1,0l0.8-1.1L53.2,11.4L53.2,11.4z M52.5,11.9L52.5,11.9l0,0.1l0,0
				L52.5,11.9z M52.9,12.8L52.8,13l-0.1,0.1l-0.1,0l0-0.1l0,0l-0.1,0.1l0.1,0l0.1,0.1l-0.1,0.2l0,0c0.1-0.1,0.1-0.1,0.2-0.1l0.1-0.2
				L52.9,12.8L52.9,12.8z M53,13.8L52.8,14l0.1,0l0.1-0.2L53,13.8z M53.7,11.1l-0.1,0.1l-0.5,0.9l-0.2,0.3l0,0.1l0.4-0.5l0.1-0.2
				l0.1-0.1L53.7,11.1L53.7,11.1z M52.9,13.2l0.1,0.1l0,0l0-0.1l0.1-0.1l0,0C53.1,13,53,13.1,52.9,13.2z M53.2,13.9l-0.3,0.4l0,0.1
				l0,0l0.3-0.3L53.2,13.9z M53.6,12.3l-0.4,0.5l0.1,0l0,0l0.2-0.3C53.6,12.5,53.6,12.4,53.6,12.3z M54,12.7l-0.1,0.1l-0.4,0.7
				l-0.2,0.2l0,0.1l0,0l0.6-0.9L54,12.7z M53.3,11.2L53.3,11.2L53.3,11.2l0.1,0L53.3,11.2z M53.5,15.5l-0.1,0.1l0,0L53.5,15.5
				L53.5,15.5L53.5,15.5z M55,14.8L55,14.8l-0.1,0.4l0,0l-0.1,0l0,0.1l-0.3,0.5l0,0.1l-0.1,0l-0.3,0.4l-0.2-0.1
				c-0.1-0.1-0.2-0.1-0.1-0.2l-0.2,0c-0.1-0.1-0.1-0.2-0.1-0.2c0.1,0.1,0.2,0.1,0.2,0l0.1,0.2l0.1,0l0,0l0.3-0.5l0.2-0.1l0.2-0.4
				l0.1-0.1l0.1,0l0.1,0.1l0.1-0.1L55,14.8z M53.9,12.4L53.9,12.4l-0.3,0.4l0,0.1l0.1,0L53.9,12.4L53.9,12.4z M53.7,13.6l-0.1,0.1
				l0,0L53.7,13.6L53.7,13.6z M53.8,12.1l-0.1,0.2l0,0L53.8,12.1L53.8,12.1L53.8,12.1z M53.9,14.8l-0.2,0.3l0,0l0.1,0l0.1-0.2
				L53.9,14.8L53.9,14.8z M54.1,12.9l-0.3,0.4l-0.1,0.3l0,0l0.1-0.1l0.1-0.3l0.2-0.3L54.1,12.9z M54,11.8L53.8,12c0,0,0.1,0,0.1-0.1
				L54,11.8L54,11.8z M54,11.2l-0.1,0.2l0.1,0l0,0L54,11.2z M54.3,14.6L54,15.1l0,0.2l0.1-0.1l0.1-0.1
				C54.2,14.9,54.2,14.8,54.3,14.6L54.3,14.6z M54,10.1L54,10.1l0,0.1L54,10.1L54,10.1z M54,10.6L54,10.6l0,0.1L54,10.6z M54.1,14
				L54,14.1l0,0L54.1,14L54.1,14z M54.1,12.5l-0.1,0.1l0,0L54.1,12.5L54.1,12.5z M54.3,11.2l-0.1,0.2l0,0l0.1,0l0-0.1L54.3,11.2z
				 M54.2,10.8L54.2,10.8L54.2,10.8L54.2,10.8L54.2,10.8z M54.3,10.3L54.3,10.3L54.3,10.3L54.3,10.3L54.3,10.3z M54.2,10l0.2,0.1
				l0.1-0.3l0.2-0.2C54.6,9.6,54.5,9.8,54.2,10z M54.4,12.1l-0.1,0.1l0,0L54.4,12.1L54.4,12.1z M54.5,9.4l-0.1,0.1l0,0.1l0,0
				L54.5,9.4L54.5,9.4z M54.6,12.2l-0.2,0.4l0,0.1l0.1,0l0.1-0.2l0.2-0.2l0-0.1L54.6,12.2L54.6,12.2L54.6,12.2z M54.5,10.8l-0.1,0.1
				l0,0.1l0,0l0.1-0.1L54.5,10.8L54.5,10.8z M54.6,15.3L54.6,15.3L54.6,15.3l-0.1,0.2l0,0l0.1,0l0,0L54.6,15.3L54.6,15.3z
				 M54.6,11.7l-0.1,0.1l0.1,0.1l0.1-0.1L54.6,11.7z M54.7,10L54.7,10l-0.2,0.3l0.1,0l0-0.1l0-0.1l0.1,0l0,0L54.7,10L54.7,10z
				 M54.7,11L54.7,11l0,0.1L54.7,11L54.7,11z M55.2,10.6L55,11l-0.3,0.6l0,0l0.1-0.1l0.1-0.2l0.1-0.1L55.2,10.6L55.2,10.6z
				 M54.9,14.7L54.9,14.7L54.9,14.7l-0.1,0.1l0-0.1l0,0L54.9,14.7z M54.9,10.2L54.9,10.2l-0.1,0.2l0,0l0.1-0.1l0.1-0.2L54.9,10.2z
				 M54.9,10.6L54.9,10.6l0,0.1L54.9,10.6z M54.9,9.2L54.9,9.2l0,0.1L54.9,9.2L54.9,9.2z M55,10.4L55,10.5L55,10.4L55,10.4L55,10.4z
				 M55.1,9.5L55.1,9.5L55.1,9.5L55.1,9.5L55.1,9.5z M55.4,9.9l-0.3,0.3l0,0.1l0.2,0C55.4,10.1,55.4,9.9,55.4,9.9z M55.1,14.6
				L55.1,14.6l0.1,0.1l0,0l0,0L55.1,14.6L55.1,14.6z M55.3,9.6L55.3,9.6l-0.1,0.1l0.1,0.1l0,0L55.3,9.6z M55.3,8.6l-0.1,0.1l0,0
				L55.3,8.6L55.3,8.6z M55.5,10.2l-0.1,0.2l-0.1,0.1l0,0.1l0.1,0l0.2-0.4L55.5,10.2z M55.6,7.6l-0.1,0.2L55.4,8l0.1,0l0.1-0.1
				l0-0.1L55.6,7.6L55.6,7.6L55.6,7.6z M55.5,11.8L55.5,11.8L55.5,11.8L55.5,11.8L55.5,11.8z M55.5,10.8L55.5,10.8L55.5,10.8
				L55.5,10.8L55.5,10.8z M55.7,8l-0.2,0.3l0.1,0L55.7,8L55.7,8z M55.5,11.7L55.5,11.7L55.5,11.7l0.1,0L55.5,11.7z M55.5,11.1
				L55.5,11.1L55.5,11.1L55.5,11.1L55.5,11.1z M55.7,10L55.7,10L55.7,10L55.7,10L55.7,10z M55.7,7.4l-0.1,0.1l0.1,0L55.7,7.4z
				 M55.8,11.2l-0.1,0.1l0.1,0l0-0.1L55.8,11.2z M56.1,10.3l-0.2,0.2l0.1,0L56.1,10.3L56.1,10.3z M56,11.9L55.9,12l0,0l0.1,0
				L56,11.9L56,11.9z M56.4,6.4l-0.3,0.4l0,0L56,6.9L56,7l0,0l0.1-0.1l0,0l0.1,0l0,0L56.4,6.4L56.4,6.4z M56.4,8.4L56,8.9L56,9
				l0.4-0.5L56.4,8.4z M56.1,12.1l0,0.1l0.1,0l0.1-0.1l-0.1,0L56.1,12.1z M56.3,11.5L56.3,11.5l0.2,0.2l0.1-0.1l0,0L56.3,11.5z
				 M56.4,6.9L56.4,6.9L56.4,6.9L56.4,6.9L56.4,6.9z M56.5,7.7L56.5,7.7L56.5,7.7L56.5,7.7L56.5,7.7z M56.7,7.9L56.6,8l0,0.1
				L56.7,7.9L56.7,7.9z M57,6.8l-0.2,0.4l-0.2,0.2l0.1,0L57,6.9L57,6.8L57,6.8L57,6.8z M56.8,8.8l-0.1,0.1l0.1,0l0,0L56.8,8.8z
				 M56.9,9.1l-0.1,0.1l0,0.1l0,0L56.9,9.1L56.9,9.1z M57.1,6.1c0,0.1-0.1,0.1-0.1,0.1L56.9,6l-0.1,0l0,0l0,0.1l0,0l0.1,0l0,0
				l0.1,0.1L57.1,6.1L57.1,6.1z M57.2,8.5l-0.1,0.1l0,0L57.2,8.5L57.2,8.5z M57.7,6.7l-0.1,0.1L57.5,7l0,0l0.2-0.2L57.7,6.7
				L57.7,6.7z M57.7,8.3L57.7,8.3L57.7,8.3L57.7,8.3L57.7,8.3z M57.8,8L57.8,8l-0.1,0.1l0,0.1l0.1,0l0-0.1L57.8,8z M57.8,7.4
				L57.8,7.4l0,0.1L57.8,7.4L57.8,7.4z M58.1,7.6L58,7.7l0.1,0l0,0L58.1,7.6z M58.1,7.1L58.1,7.1L58.1,7.1L58.1,7.1L58.1,7.1z
				 M58.5,7.5l-0.2,0.3l0.1,0l0.1-0.2L58.5,7.5z M58.7,8l-0.2,0.2l0.1,0l0.1-0.2L58.7,8z M59.4,7.8l-0.1,0.1l0,0L59.4,7.8L59.4,7.8z
				"/>
			<path class="st3" d="M61.8,9.9l0.3,0.3l0,0.1l0.1,0l0.3,0.3c0,0,0,0.1-0.1,0.2c0,0,0.1,0,0.2-0.1l0,0l0.1,0.1h0.1l0,0l0.1,0.1
				l0.2,0.1l0,0l-0.1,0.1l-0.2,0.2c0.1,0.1,0,0.3-0.3,0.7l-1.8,3.1l0.1,0.1l0.1-0.2l0.1-0.1l0.3-0.4l0.7-0.7l0.1,0v-0.1l0.4-0.4
				L63,13l0.1-0.1c0,0,0.2,0,0.3-0.2v-0.1l0.2-0.2l0.3-0.2l0.1,0.1l0,0.1h0.1l0.1,0.1l0.1,0.1h0.1l0,0l0,0.1l0,0l0.3,0.2l0.1,0.2
				l0.1,0.1l0.1,0.1l0.1,0.1l-0.1,0.2l-0.2,0.1l-0.1,0.1v0.1h-0.1l-0.7,0.7c0,0,0-0.1,0-0.1L64,14.2l-0.2,0.2
				c0.1,0.1,0.1,0.1,0.1,0.2l-0.2,0.2h-0.1v0.1l-0.2,0.2l-0.1,0v-0.1l-0.1,0.1c0.1,0.1,0.1,0.1,0,0.2l-0.2,0.1v0.1l-0.3,0.1
				l-0.1,0.1c0.1,0.1,0.1,0.1,0,0.2c-0.2,0.1-0.2,0.2-0.3,0.1l0,0.1h-0.1l-0.9,0.9L61,17.4l-0.3,0.3l-1.4,1.4l-0.1,0.1l-0.1,0.1
				L59,19.5v0.1h-0.1l0,0L58,20.5L58,20.5l-0.1,0v-0.1l-0.2-0.1v-0.1h-0.1l0,0l-0.1-0.1l-0.3-0.3l-0.2-0.3l-0.3-0.2l0,0
				c-0.1-0.1-0.1-0.2,0-0.3l0.1-0.1l0-0.2l0,0l0.1,0.1l0.2-0.2L57,18.5c-0.1,0.1-0.1,0.1-0.2,0.1l0.4-0.6l0.2-0.2
				c-0.1-0.1,0.1-0.4,0.5-1c0,0,0.3-0.5,0.8-1.5v-0.1l0,0l-0.1-0.1l-0.4,0.5L58.1,16l0,0H58l-0.1,0.1v0.1h-0.1l-0.3,0.4l-1.4,1.4
				l-0.3,0.2l-0.1,0.2l-0.1,0l-0.1-0.2L55,17.8l-0.1-0.2l-0.2-0.1l-0.3-0.3l0-0.2l0.1-0.1l0.3-0.3l1-1l0.2-0.1l0.1-0.2l0.1-0.1h0.1
				v-0.1l0.1-0.1h0.1l0.3-0.4l0,0v-0.1l0.1-0.1c0,0,0.1,0,0.2,0.1l0,0l-0.1-0.1l0.5-0.4v-0.1l0.1-0.1l0,0l0.4-0.5l1.7-1.7l0.1,0
				l0-0.1l0.2-0.2h0.1v-0.1l0.2-0.2l0.1-0.1l0.1-0.2l0.3-0.3l0.2-0.1l0.1-0.2l0.1,0l0,0c0.1-0.1,0.1-0.2,0.1-0.2
				C61.6,9.9,61.7,9.9,61.8,9.9z M55.3,17.2L55.3,17.2L55.3,17.2L55.3,17.2L55.3,17.2z M55.5,16.1L55.5,16.1l0,0.1L55.5,16.1
				L55.5,16.1z M55.6,17.5L55.6,17.5l0,0.1L55.6,17.5L55.6,17.5z M55.9,17.6L55.9,17.6L55.9,17.6L55.9,17.6L55.9,17.6z M56.8,15.8
				L56.8,15.8L56.8,15.8L56.8,15.8L56.8,15.8z M57.2,15.5L57,15.6l0.1,0.1l0,0L57.2,15.5L57.2,15.5z M57.2,18.8L57.2,18.8l0,0.1l0,0
				L57.2,18.8z M57.2,18.6l-0.1,0.1l0.1,0.1l0.1-0.1L57.2,18.6L57.2,18.6L57.2,18.6z M57.2,15.4L57.2,15.4L57.2,15.4l0.1,0
				L57.2,15.4z M57.6,19.5l-0.3,0.3l0.1,0.1l0.1-0.1L57.6,19.5L57.6,19.5z M57.5,15.8l-0.1,0.1l0.1,0.1L57.5,15.8L57.5,15.8z
				 M57.5,15.1l-0.1,0.1l0.1,0.1L57.5,15.1L57.5,15.1z M57.5,14.8L57.5,14.8L57.4,15l0.1,0L57.5,14.8L57.5,14.8z M57.8,17.8
				l-0.2,0.2l0.1,0.1l0,0L57.8,17.8L57.8,17.8z M57.7,14.2L57.7,14.2v0.1V14.2z M57.7,17.4L57.7,17.4l-0.1,0.2l0.1,0l0.1-0.1
				L57.7,17.4L57.7,17.4z M57.9,15.1L57.9,15.1l0,0.1L57.9,15.1L57.9,15.1z M57.9,14L57.9,14L57.9,14L57.9,14L57.9,14z M58.1,18.9
				l-0.3,0.3l0.1,0.1L58.1,18.9L58.1,18.9z M58.1,17.5L58,17.6l0,0L58.1,17.5L58.1,17.5z M58.2,14.3L58,14.5l0.1,0L58.2,14.3
				L58.2,14.3z M58.2,15.1L58.2,15.1l0,0.1l0,0L58.2,15.1z M58.3,17.6L58.3,17.6l0,0.1l0,0L58.3,17.6z M58.2,16.6L58.2,16.6v0.1
				V16.6L58.2,16.6z M58.9,18.1l-0.2,0.2c0,0.1-0.2,0.3-0.5,0.6l0,0l0.2-0.1l0.3-0.3l0.2-0.2l0.1,0L58.9,18.1L58.9,18.1z M58.5,17.7
				l-0.1,0.1l-0.2,0.2l0,0L58.5,17.7L58.5,17.7z M58.9,14.4l-0.3,0.3c-0.1,0.1-0.1,0-0.3-0.1l-0.1,0.1c0.1,0.1,0.2,0.2,0.1,0.3l0,0
				l0-0.1l0.1-0.1l0.3-0.3L58.9,14.4L58.9,14.4z M58.4,19.4L58.4,19.4L58.4,19.4L58.4,19.4L58.4,19.4z M58.5,14.4L58.5,14.4
				L58.5,14.4L58.5,14.4L58.5,14.4z M58.9,17.3l-0.3,0.3l0.1,0.1L58.9,17.3L58.9,17.3z M59,18.8L59,18.8l-0.1,0.1L58.8,19l-0.1,0.1
				l0.1,0.1L59,19C59,18.9,59,18.8,59,18.8L59,18.8z M58.9,13.2L58.9,13.2L58.9,13.2l-0.1,0.1h0.1l0,0V13.2z M58.9,19.2L58.9,19.2
				l-0.1,0.1L58.9,19.2L58.9,19.2z M59.1,12.6l-0.2,0.2l0.1,0.1l0.1-0.1L59.1,12.6L59.1,12.6z M59,18.3l-0.1,0.1l0.1,0.1l0.1-0.1
				V18.3z M59.4,18.7l-0.1,0.1c-0.2,0.2-0.3,0.3-0.2,0.4l0.3-0.3L59.4,18.7z M59.2,17.8L59.2,17.8l0,0.1L59.2,17.8L59.2,17.8z
				 M59.3,17l-0.2,0.1l0.1,0.1L59.3,17L59.3,17z M59.3,16L59.3,16l-0.2,0.2l0.1,0.1l0.1-0.1L59.3,16L59.3,16z M59.3,13.2L59.3,13.2
				L59.3,13.2L59.3,13.2L59.3,13.2z M59.4,16.4L59.4,16.4l-0.1,0.2l0.1,0L59.4,16.4L59.4,16.4z M59.7,17.2l-0.3,0.3l0,0.1h0.1l0,0
				C59.5,17.5,59.6,17.4,59.7,17.2L59.7,17.2z M59.5,16.8l-0.1,0.1l0.1,0L59.5,16.8L59.5,16.8z M59.9,15.5l-0.4,0.4l0.1,0.1l0.1-0.1
				L59.9,15.5L59.9,15.5L59.9,15.5L59.9,15.5z M59.7,15L59.7,15L59.7,15L59.7,15L59.7,15z M59.8,16.8L59.8,16.8l-0.1,0.1L59.8,16.8
				L59.8,16.8z M59.8,14.1L59.8,14.1v0.1V14.1L59.8,14.1z M59.8,17.9L59.8,17.9V18V17.9L59.8,17.9z M59.8,14.4L59.8,14.4l0,0.1
				l0.1,0L59.8,14.4L59.8,14.4z M59.9,15.9L59.8,16l0.1,0.1L60,16L59.9,15.9z M59.9,11.7L59.9,11.7L59.9,11.7L59.9,11.7l-0.1,0.1
				h0.1V11.7L59.9,11.7L59.9,11.7z M59.9,15.1l0,0.1l0.1-0.1L59.9,15.1z M60.1,12.3l-0.2,0.1v0.1l0.1,0.1L60.1,12.3L60.1,12.3z
				 M60,12.1L60,12.1L60,12.1L60,12.1L60,12.1z M60.1,15.3L60.1,15.3L60.1,15.3L60.1,15.3L60.1,15.3z M60.1,16L60.1,16l0,0.1
				L60.1,16L60.1,16z M60.3,13.5l-0.1,0.2l0,0L60.3,13.5L60.3,13.5z M60.3,12.4L60.3,12.4l0,0.1h0.1l0,0L60.3,12.4L60.3,12.4z
				 M60.4,11.3L60.4,11.3L60.4,11.3L60.4,11.3L60.4,11.3z M60.5,11.1L60.5,11.1l0,0.1l0.1,0L60.5,11.1L60.5,11.1z M60.6,11.4
				L60.6,11.4L60.6,11.4L60.6,11.4L60.6,11.4z M60.8,13l-0.2,0.2l0.1,0.1l0.2-0.2L60.8,13z M60.8,12L60.6,12l0.1,0.1l0,0L60.8,12
				L60.8,12z M60.8,16L60.8,16l0,0.1L60.8,16L60.8,16z M60.8,14.2L60.8,14.2l-0.1,0.2l0,0L60.8,14.2L60.8,14.2z M60.9,12.2
				L60.9,12.2L60.9,12.2l-0.1,0.1l0.1,0l0,0L60.9,12.2z M60.9,13.7L60.9,13.7L60.9,13.7L60.9,13.7L60.9,13.7z M61.2,11.1l-0.1,0.1
				v0.1L61.2,11.1L61.2,11.1z M61.5,11.2l-0.3,0.3l0,0.1l0.4-0.4L61.5,11.2z M61.2,12.5L61.2,12.5l-0.1,0.2h0.1L61.2,12.5L61.2,12.5
				z M61.5,10.5l-0.1,0.1l0,0L61.5,10.5L61.5,10.5z M61.4,12.7v0.1l0,0l0.1-0.1v-0.1l0,0L61.4,12.7z M61.6,11.4l-0.2,0.2l0,0.1
				L61.6,11.4L61.6,11.4z M61.8,14.5l-0.1,0.1l-0.1,0.2l-0.1,0.1l0.1,0.1l0.3-0.2L61.8,14.5L61.8,14.5z M61.6,15.6L61.6,15.6l0,0.1
				L61.6,15.6L61.6,15.6z M61.8,10.9L61.6,11l-0.1,0.1l0.1,0.1L61.8,10.9L61.8,10.9z M61.9,10.4l-0.1,0.1l-0.2,0.2l0,0l0.1-0.1
				C61.9,10.5,61.9,10.4,61.9,10.4z M61.7,12.1L61.7,12.1L61.7,12.1L61.7,12.1L61.7,12.1z M62,14.7l-0.1,0.1l0.1,0.1L62,14.7
				L62,14.7z M62,14.4L62,14.4l0,0.1L62,14.4L62,14.4z M62,11.1l-0.1,0.1l0,0L62,11.1L62,11.1z M62.1,14.2L62.1,14.2L62.1,14.2
				L62.1,14.2L62.1,14.2z M62.2,11.2L62.2,11.2l-0.1,0.2l0.1,0l0.1-0.1L62.2,11.2L62.2,11.2z M62.3,14l-0.1,0.1l0,0.1l0.2,0.1v0.1
				l0,0l-0.2,0.1l0.1,0.1l0.1-0.1v-0.1l0.1,0c0,0,0-0.1,0.1-0.2l0,0l-0.1,0.1l0,0L62.3,14L62.3,14z M62.5,10.9l-0.2,0.2l0.1,0.1
				l0.1-0.1V10.9z M62.5,15L62.5,15L62.5,15l0.1,0L62.5,15z M62.6,11.1L62.6,11.1l-0.1,0.2l0.1-0.1V11.1z M62.7,15.1L62.7,15.1v0.1
				V15.1L62.7,15.1z M62.8,14.7L62.8,14.7v0.1V14.7L62.8,14.7z M63.1,14.8L63.1,14.8L62.9,15L63,15L63.1,14.8L63.1,14.8z M63.2,13.5
				L63.2,13.5l0,0.1L63.2,13.5L63.2,13.5z M63.4,14.4l-0.2,0.2l0.1,0.1L63.4,14.4L63.4,14.4z M63.5,14.8l-0.1,0.1l0,0.1l0.1-0.1
				L63.5,14.8z M63.5,13.2L63.5,13.2l0,0.1L63.5,13.2L63.5,13.2z M64,14.4L64,14.4L64,14.4L64,14.4L64,14.4z M64.2,14.1L64.2,14.1
				L64.2,14.1L64.2,14.1L64.2,14.1z M64.1,12.5L64.1,12.5L64.1,12.5L64.1,12.5l0.1,0l0,0L64.1,12.5z"/>
			<path class="st3" d="M69,17.4l-0.1,0.1l-0.3,0.2l0,0.1l0.3-0.2l0.1,0c0,0,0,0.1-0.1,0.1l0,0.1l0,0c0.1,0,0.1,0,0.1,0l0,0l0,0.1
				l0.1,0.1c0.2,0.4,0.2,1-0.1,1.8c-0.3,0.5-0.9,1-1.9,1.7l-0.4,0.3L66.4,22l-0.1-0.2l0-0.2c-0.1,0-0.1,0-0.1,0l0-0.1l0.3-0.2l0,0
				c-0.1,0.1-0.1,0.1-0.1,0.2l0.2-0.1l0.4-0.3l0-0.1c-0.3,0.2-0.4,0.2-0.5,0.2l0-0.1l0,0l-0.4,0.2l0,0.1l0,0l-0.1,0l-0.1-0.1
				l0.2-0.2c0,0-0.1,0-0.3,0l0,0l0-0.1l0,0L65.7,21l0-0.2l-0.1-0.1l0-0.1l-0.2,0l0-0.2l-0.1,0l0,0l0.1-0.1l0.4-0.3
				c1.3-0.8,1.9-1.3,1.8-1.3l-0.1-0.3c-0.1-0.2-0.4-0.1-0.9,0.2l-0.5,0.3l0,0.1l0,0c-0.5,0.3-0.7,0.4-0.8,0.3l-0.1,0.1l-2.1,1.4
				L62.5,21l-0.4,0.3l-0.1,0l0,0c-0.6,0.4-0.8,0.7-0.7,0.9l-0.1,0.1l0,0.1c0.1-0.1,0.2,0,0.3,0.1l1.3-0.7l0.1,0l0.7-0.6l0.2,0l0,0
				l0.1,0.2l0,0l0.1,0l0,0.1l0.2,0.2l0.1,0.1c0.1,0.1,0.1,0.2,0,0.2l0.1,0l0.1,0.1l0,0.1l0.2,0.1c0,0.1-0.1,0.2-0.2,0.2l0.1,0.1
				l0.2-0.1l0.1,0.1l-0.1,0.1l-0.2,0.2l0,0.1l0.4-0.2l0.1,0.2l-0.3,0.1l-0.1,0.1l0,0.1l-0.3,0.1l-0.2,0.2l-0.2,0.1l-0.3,0.2
				c-0.4,0.3-0.8,0.4-1.1,0.4l0,0.1l0,0c-0.4,0.1-0.6,0.1-0.8,0l0,0l0.1-0.1l-0.1-0.1l-0.3,0.2c-0.6-0.1-1.1-0.5-1.4-1l0-0.2
				l0.5-0.3l0-0.1l-0.1,0L59.9,23l0,0c0-0.1,0-0.1,0.1-0.2l0,0l-0.3,0.1c0-0.1,0-0.1,0-0.2l-0.1,0l0,0c-0.4-0.7-0.4-1.5,0.2-2.4
				c0.4-0.4,1-0.9,1.9-1.4l1.2-0.8l0.3-0.2l0.2-0.1l0.3-0.1l0-0.1l0,0l0.2-0.1l0,0l0.1,0l0.6-0.4l0-0.1l0.1,0l0,0l0.2-0.1
				c0.8-0.5,1.2-0.6,1.3-0.5l0-0.1l0,0c0.2-0.1,0.4-0.1,0.4-0.1l0,0l-0.1,0.1l0,0.1l0.2-0.2c0.1-0.1,0.3-0.1,0.4,0
				c0.1,0,0.2,0,0.3,0.1c0.1,0,0.2,0,0.4,0.1l0.1,0.1L68,16.6l0,0c0.2-0.1,0.3-0.1,0.4,0.1c0,0,0.1,0,0.2,0.2l0,0l0,0.1l0,0L69,17.4
				z M59.9,21.8l-0.1,0.1l0,0L59.9,21.8L59.9,21.8z M60,22.4l-0.2,0.1l0.1,0l0,0L60,22.4z M60.8,22.8L60.5,23l0.1,0l0.1-0.1
				L60.8,22.8z M60.8,20L60.8,20L60.8,20L60.8,20L60.8,20z M61.1,23.3l-0.2,0.2l0,0L61.1,23.3L61.1,23.3L61.1,23.3z M61.1,23
				l-0.2,0.1l0.1,0.1l0.1-0.1L61.1,23z M61.1,22.3L61,22.3l0,0.1L61.1,22.3L61.1,22.3z M61.1,20.4L61,20.4l0,0L61.1,20.4L61.1,20.4z
				 M61.2,19.4l-0.1,0.1l0,0L61.2,19.4L61.2,19.4z M61.6,22.9l-0.3,0.2l0,0.1l0.5-0.3L61.6,22.9z M61.5,19.9L61.3,20l0.1,0
				L61.5,19.9L61.5,19.9z M61.4,19.6L61.4,19.6l-0.1,0.1l0.1,0l0,0L61.4,19.6L61.4,19.6z M61.8,20.2l-0.3,0.2l0,0.1l0.2-0.2
				L61.8,20.2z M61.7,23.8L61.7,23.8l-0.1,0.2l0.1,0l0,0L61.7,23.8L61.7,23.8z M61.9,18.8L61.9,18.8l0,0.1L61.9,18.8L61.9,18.8z
				 M61.9,23L61.9,23L61.9,23L61.9,23L61.9,23z M62.2,19L62.2,19l-0.1,0.2l0.1,0L62.2,19z M62.6,19l-0.2,0.1l0,0.1l0,0L62.6,19
				L62.6,19z M62.6,19.3l-0.1,0.1l0,0.1l0.2-0.1L62.6,19.3z M62.9,19.1l-0.1,0.1l0,0.1l0.1-0.1L62.9,19.1z M63.2,22.8l-0.1,0.1
				l0.1,0.1l0.1,0L63.2,22.8L63.2,22.8z M63.2,19.6L63.2,19.6L63.2,19.6l0.1,0L63.2,19.6z M63.3,23.4L63.3,23.4L63.3,23.4L63.3,23.4
				L63.3,23.4z M63.5,22l-0.3,0.2l0,0.1L63.5,22L63.5,22z M63.7,19.2l-0.2,0.1l-0.2,0.2l0,0l0.3-0.2L63.7,19.2z M64,18.1l-0.5,0.3
				l0,0.1l0.1,0l0,0l0.3-0.1l0.1-0.1L64,18.1z M63.7,22.5l-0.1,0.1l0,0.1l0.1,0L63.7,22.5z M64.1,17.6l-0.5,0.3l0,0.1l0.6-0.4
				L64.1,17.6z M64.4,18.4L64.4,18.4l-0.2,0.2l-0.1,0c-0.3,0.2-0.4,0.3-0.4,0.4l0.1,0L64.4,18.4L64.4,18.4z M63.9,19.8l-0.1,0.1l0,0
				L63.9,19.8L63.9,19.8z M64.3,18.8l-0.5,0.3l0,0.1l0.5-0.3L64.3,18.8L64.3,18.8z M64.3,18.1l-0.5,0.3l0,0.1l0.1,0l0,0
				C64.2,18.3,64.4,18.2,64.3,18.1z M64.7,19.2L64.7,19.2l-0.8,0.5l0,0.1l0,0l0.2-0.1l0.2-0.1l0.4-0.1L64.7,19.2L64.7,19.2z
				 M64.1,23.1L64.1,23.1L64.1,23.1L64.1,23.1L64.1,23.1z M64.4,17.7l-0.3,0.2l0,0.1l0.3-0.2L64.4,17.7z M64.5,19l-0.2,0.1l-0.2,0.1
				l0,0l0.1-0.1L64.5,19L64.5,19z M64.6,17.4l-0.1,0.1l0,0L64.6,17.4L64.6,17.4z M64.7,18.5l-0.2,0.1l0,0.1l0.1,0l0.1-0.1L64.7,18.5
				z M64.8,18.2l-0.2,0.1l0,0c0,0,0.1,0,0.1,0L64.8,18.2L64.8,18.2z M65,17l-0.4,0.3c0,0,0.1,0,0.1,0L65,17L65,17z M64.9,17.4
				l-0.2,0.2l0,0L64.9,17.4L64.9,17.4L64.9,17.4z M65.6,17.3L65.6,17.3L65.6,17.3l-0.2,0.2l-0.6,0.4l0,0.1l0.6-0.4L65.6,17.3
				L65.6,17.3z M65.1,18.2L65.1,18.2c-0.2,0.1-0.3,0.2-0.3,0.3l0.2-0.2L65.1,18.2z M65.5,18.6L64.9,19l0,0.1l0.1,0
				C65.4,18.8,65.6,18.7,65.5,18.6z M65,18L65,18l0,0.1L65,18L65,18z M65.1,17.2L65,17.3l0,0.1l0.1,0l0.1,0L65.1,17.2L65.1,17.2z
				 M65.4,16.7l-0.1,0.1l0,0.1l0,0L65.4,16.7z M65.5,17L65.5,17L65.5,17L65.5,17L65.5,17z M65.7,20.1L65.7,20.1L65.7,20.1L65.7,20.1
				L65.7,20.1z M66.1,16.9L66,17l0.1,0L66.1,16.9z M66.2,16.5L66.2,16.5L66.2,16.5l0.1,0L66.2,16.5z M66.4,16.7l-0.1,0.1l0.1,0
				L66.4,16.7z M66.3,18L66.3,18l0,0.1L66.3,18L66.3,18z M66.5,16.9L66.5,16.9L66.5,16.9l0.1,0L66.5,16.9z M67.3,21.3l-0.4,0.2
				l-0.3,0.2l0.1,0l0,0l0-0.1l0,0l0.1,0L67.3,21.3L67.3,21.3z M66.7,16.5l-0.1,0.1l0,0L66.7,16.5L66.7,16.5z M66.9,16.3L66.9,16.3
				l-0.1,0.1l0.2-0.1L66.9,16.3z M67.3,16.3L67.3,16.3l-0.1,0.2l0.1-0.1L67.3,16.3L67.3,16.3z M67.4,19.6L67.4,19.6L67.4,19.6
				L67.4,19.6L67.4,19.6z M67.6,16.5l-0.1,0.1l0,0L67.6,16.5L67.6,16.5z M67.8,16.7l-0.1,0.1l0,0.1L67.8,16.7L67.8,16.7z M68.5,17.8
				L68.2,18l0,0.1L68.5,17.8L68.5,17.8z"/>
			<path class="st3" d="M71.2,22l0.2,0.5l0,0.1l0.1,0l0,0l0,0.2l0.1,0.3l0.7,1.7l-0.2,0l0,0.1l0.2-0.1l0,0.1l0,0.1l0.1,0.1l0,0.1
				l0,0.1l0.1,0.1l0,0l-0.1,0.1l-1.6,0.6l-0.2-0.1l-0.2-0.4l0-0.1l-0.1-0.1l-0.1-0.2c0-0.1,0-0.1,0.1-0.1l0-0.1l0,0l-0.2,0l-0.1-0.2
				l-1.4,0.6l-0.1,0l0,0.1l-0.3,0.1l0,0.2l0.1,0l0,0.1l0.1,0.2l0.1,0l0,0.1l0.1,0.2l0.1,0l0,0.1l0,0l0.2,0.4c0,0.1,0,0.2-0.2,0.2
				l-1,0.4c-0.1,0-0.1,0-0.1-0.1l-0.2,0.1l-0.1,0.2l-0.2-0.1l0-0.1l-0.1-0.2l-0.1,0l0-0.2l-0.1-0.1l0-0.1l0,0l0.2,0l0.2-0.2l0-0.1
				l-0.4,0.2l-0.1,0c-0.1,0-0.1,0-0.1-0.1l0-0.1l0,0c-0.1-0.2-0.3-0.2-0.5-0.2L66,26.4l-0.1,0l-0.4,0.2L65,26.8l-1.1,0.5l-0.2,0
				l0,0.1l-0.2,0.1l0-0.1l0.3-0.2c0-0.1-0.1-0.1-0.2-0.1c-0.2,0.1-0.2,0.2-0.2,0.3l0.1,0.1l0,0l-0.1,0.1l0.2,0.2l-0.1,0.2l0.2,0
				c0-0.1,0.2-0.2,0.5-0.3l0-0.1l0,0l-0.3,0.1l-0.2,0l0,0c0-0.1,0.2-0.2,0.7-0.5l0.1,0.1l0,0.1l0,0l0.2,0.3l-0.1,0.1l0,0l0.1,0
				c0,0.1-0.1,0.2-0.3,0.3l0.1,0.1l0.3-0.1l0.1,0l0,0.1l-0.1,0l0,0l-0.5,0.3l-0.3,0l-0.3,0.2l-0.4,0.1l0-0.1l0.2-0.1l0-0.1l-0.2,0.1
				c0-0.1-0.1-0.1-0.2-0.1c0-0.1-0.1-0.1-0.1,0l-0.1-0.2l-0.6-1.4c-0.1-0.1,0-0.2,0-0.2l-0.2-0.2l-0.2-0.6l0.1-0.2l1.3-0.5l0.1-0.1
				l0.4-0.1l0-0.1l0.2-0.1l0,0c0,0.1,0,0.1-0.2,0.2l0,0l0.8-0.3l0,0l-0.1,0l0,0c0.1-0.1,0.2-0.1,0.2-0.2c0.3-0.1,0.4-0.1,0.5-0.1
				l0,0.1l0.2-0.1L65,24.4l0.3-0.1l0.2,0.1l0.4-0.2l0.1,0l0.4-0.3l0.1,0l0,0l0.4-0.2l1.4-0.6l0.3,0l0.2-0.2l0.9-0.3l0.3-0.1l0,0
				l0.1,0l0.8-0.4l0.2-0.1l0-0.1l0,0L71.2,22z M62.4,26.2l-0.3,0.1l0,0.1l0,0l0.1-0.1L62.4,26.2L62.4,26.2L62.4,26.2z M62.7,25.8
				L62.2,26l0,0.1L62.7,25.8L62.7,25.8z M62.6,26.1l-0.1,0L62.6,26.1L62.6,26.1L62.6,26.1z M63.2,26.1l-0.1,0
				c-0.4,0.2-0.6,0.3-0.6,0.4l0.5-0.2C63.2,26.2,63.3,26.2,63.2,26.1L63.2,26.1z M64.7,28.6L64.7,28.6l-0.3,0.3l0,0l-0.1,0l0,0.1
				l-0.6,0.2l0,0.1l-0.1,0l-0.5,0.2L63,29.1c0-0.1,0-0.2,0-0.2l-0.1-0.1c0-0.1,0-0.2,0-0.2c0.1,0.1,0.1,0.2,0.2,0.1l0,0.2l0.1,0l0,0
				l0.6-0.3l0.2,0l0.4-0.2l0.1,0l0,0.1l0,0.1l0.2,0L64.7,28.6z M63,28.3l-0.2,0.1l0,0L63,28.3L63,28.3L63,28.3z M63.2,25.3
				L63.2,25.3L63.2,25.3L63.2,25.3L63.2,25.3z M63.7,26.8L63.2,27l0,0.1l0,0l0.4-0.1L63.7,26.8z M63.5,26.6l-0.3,0.1l0,0.1l0.2-0.1
				L63.5,26.6z M63.5,25.5l-0.1,0L63.5,25.5L63.5,25.5L63.5,25.5z M64.1,25.7l-0.2,0.1l-0.2,0l0-0.1l0-0.1l0,0l-0.1,0l0.1,0l0,0.1
				L63.4,26l0,0c0.1,0,0.2,0,0.3,0l0.2-0.2L64.1,25.7L64.1,25.7z M63.7,27.9l-0.3,0.2l0,0l0.1,0l0.2-0.1L63.7,27.9L63.7,27.9z
				 M64.1,28l-0.5,0.2l-0.1,0.2l0.1,0l0.1,0C63.9,28.2,64,28.1,64.1,28L64.1,28z M65.1,24.8l-0.1,0l-0.2,0.1l-0.1,0l0,0l-0.4,0.3
				L64,25.2l-0.2,0.1l0,0.1l1.3-0.5L65.1,24.8L65.1,24.8z M63.8,26.1l0,0.1l0,0L63.8,26.1l0.3,0.1l0,0C64.1,26,64,26,63.8,26.1z
				 M64,28.7L64,28.7L64,28.7l-0.2,0.1l0,0l0.1,0l0,0L64,28.7L64,28.7z M65,26.3l-0.2,0l-0.7,0.4l-0.2,0.1l0,0.1l0,0l1.1-0.4
				L65,26.3z M64,24.9L64,24.9L64,24.9L64,24.9L64,24.9z M64.2,26.9l-0.2,0.1l0,0L64.2,26.9L64.2,26.9z M64.2,24.8L64.2,24.8
				L64.2,24.8l-0.1,0L64.2,24.8z M64.3,27.4l-0.1,0L64.3,27.4L64.3,27.4L64.3,27.4z M65.6,24.8l-0.1,0l-0.9,0.4l-0.3,0.1l0,0.1
				l0.6-0.2l0.2-0.1l0.2,0L65.6,24.8L65.6,24.8z M65,26.5l-0.5,0.2l-0.3,0.1l0,0l0.2,0l0.3-0.1l0.4-0.2L65,26.5z M64.9,25.7L64.3,26
				l0,0.1l0,0l0.4-0.1C64.8,25.9,64.9,25.8,64.9,25.7z M64.6,28.4L64.6,28.4L64.6,28.4l-0.2,0l0-0.1l0,0L64.6,28.4z M65.1,26
				L65.1,26l-0.5,0.1l-0.1,0.1l0,0.1L65.1,26L65.1,26z M64.9,28.4L64.9,28.4l0,0.1l0,0l0,0L64.9,28.4L64.9,28.4z M65.2,25.6
				l-0.2,0.1l0,0L65.2,25.6L65.2,25.6L65.2,25.6z M65.3,26.2l-0.1,0L65.3,26.2L65.3,26.2L65.3,26.2z M65.5,25.5l-0.2,0.1
				c0,0.1,0.1,0.1,0.1,0L65.5,25.5L65.5,25.5z M65.3,24.7L65.3,24.7L65.3,24.7l0.1,0L65.3,24.7z M65.8,26.2l-0.4,0.2l-0.1,0l0,0.1
				l0.2-0.1l0.3-0.1L65.8,26.2L65.8,26.2L65.8,26.2L65.8,26.2z M65.7,26l-0.1,0L65.7,26L65.7,26L65.7,26z M65.9,25l-0.2,0.1l0.1,0
				l0,0L65.9,25z M66,25.8l-0.1,0l0,0.1l0.1,0L66,25.8z M66.1,25.2l-0.2,0.1l0,0l0.1,0l0.1,0L66.1,25.2z M67.2,25.3l-0.5,0.2
				l-0.6,0.3l0,0l0.1,0l0.2-0.1l0.1,0L67.2,25.3L67.2,25.3z M66.2,24.5L66.2,24.5l0,0.1L66.2,24.5z M66.3,24.8L66.3,24.8L66.3,24.8
				L66.3,24.8L66.3,24.8z M66.5,25l-0.1,0l-0.1,0.1l0,0l0.1,0L66.5,25L66.5,25z M66.5,24.1L66.5,24.1l0,0.1L66.5,24.1L66.5,24.1z
				 M66.5,25.3L66.5,25.3l0,0.1L66.5,25.3L66.5,25.3z M66.6,24.4L66.6,24.4L66.6,24.4L66.6,24.4L66.6,24.4z M66.7,26.4L66.7,26.4
				L66.7,26.4L66.7,26.4L66.7,26.4z M66.7,24.2l0.1,0.2l0.3-0.1l0.3-0.1C67.3,24.1,67.1,24.1,66.7,24.2z M66.8,26.3L66.8,26.3
				L66.8,26.3l0.1,0L66.8,26.3z M66.9,25.1L66.9,25.1l0,0.1L66.9,25.1z M67.1,24.4L67.1,24.4l-0.3,0.2l0,0.1l0.1,0l0-0.1l0.1,0l0,0
				L67.1,24.4L67.1,24.4z M67.1,24.7L67.1,24.7l-0.2,0.1l0,0l0.1,0l0.2-0.1L67.1,24.7z M67.2,23.8l-0.2,0l0,0.1l0,0L67.2,23.8
				L67.2,23.8z M67.1,26.7l-0.1,0L67.1,26.7l0,0.1L67.1,26.7L67.1,26.7z M67.1,25L67,25L67.1,25L67.1,25L67.1,25z M67.1,27l0,0.1
				l0,0.1l0.2-0.1l0-0.1L67.1,27z M67.2,25.8L67.2,25.8L67.2,25.8L67.2,25.8L67.2,25.8z M67.7,24.7l-0.4,0.1L67.2,25l0.2,0.1
				C67.6,24.9,67.8,24.8,67.7,24.7z M67.4,26l-0.2,0.1l0,0.1l0.1,0L67.4,26z M67.3,25.5L67.3,25.5L67.3,25.5L67.3,25.5L67.3,25.5z
				 M67.7,25l-0.2,0.1l-0.1,0l0,0.1l0,0.1l0.4-0.2L67.7,25z M67.5,26.6L67.5,26.6l0,0.3l0.1,0l0,0L67.5,26.6z M67.7,23.9L67.7,23.9
				l0,0.1L67.7,23.9L67.7,23.9z M67.7,24.2L67.7,24.2L67.7,24.2L67.7,24.2L67.7,24.2z M67.8,24.4L67.8,24.4l-0.1,0l0,0.1l0,0
				L67.8,24.4z M68.1,25.4l-0.3,0.1l0,0.1L68.1,25.4L68.1,25.4z M67.9,25L67.9,25L67.9,25L67.9,25L67.9,25z M68.4,23.7l-0.1,0
				L68.4,23.7L68.4,23.7L68.4,23.7z M69,23.3l-0.3,0.1l0,0.1L69,23.3L69,23.3z M69.4,24l-0.6,0.2l0,0.1l0.6-0.2L69.4,24z M69.2,22.9
				L69,23l-0.2,0.1l0,0.1l0.1,0L69,23L69.2,22.9L69.2,22.9L69.2,22.9z M69.4,24.9l-0.2,0l0,0.1l0,0L69.4,24.9L69.4,24.9z M69.4,22.8
				l-0.2,0.1l0.1,0L69.4,22.8z M69.5,24.6l-0.1,0l0,0.1l0,0L69.5,24.6z M69.8,23.6L69.8,23.6L69.8,23.6L69.8,23.6L69.8,23.6z
				 M69.9,23.8l-0.1,0l0,0.1L69.9,23.8L69.9,23.8z M70.5,22.4L70,22.6l0,0l-0.1,0l-0.1,0.1l0,0l0.2,0l0,0l0.1,0l0,0L70.5,22.4
				L70.5,22.4z M70,24.6l-0.2,0.1l0,0L70,24.6L70,24.6z M70.8,23.1l-0.4,0.2l-0.3,0.1l0,0.1l0.6-0.3L70.8,23.1L70.8,23.1L70.8,23.1z
				 M70.3,22.8L70.3,22.8L70.3,22.8L70.3,22.8L70.3,22.8z M70.5,24.6L70.5,24.6L70.5,24.6L70.5,24.6L70.5,24.6z M70.8,24.5
				L70.8,24.5l-0.1,0l0,0.1l0.1,0l0.1,0L70.8,24.5z M71.3,22.6c-0.1,0-0.1,0-0.1,0l0-0.1l-0.1,0l0,0l0,0.1l0,0l0.1,0l0,0l0,0.2
				L71.3,22.6L71.3,22.6z M71.2,24L71.2,24l-0.1,0.1L71.2,24L71.2,24z M71.5,23.4l-0.2,0.1l-0.2,0.1l0,0l0.3-0.1L71.5,23.4
				L71.5,23.4z M71.3,24.3l-0.1,0l0,0.1l0,0L71.3,24.3z M71.6,25l-0.3,0.1l0,0.1l0.2-0.1L71.6,25z M71.6,24.4l-0.3,0.1l0,0.1
				l0.2-0.1L71.6,24.4z M71.5,23.9L71.5,23.9L71.5,23.9L71.5,23.9L71.5,23.9z M72.2,25.3l-0.1,0L72.2,25.3L72.2,25.3L72.2,25.3z"/>
		</g>
	</g>
</g>
</svg>
