<svg xmlns="http://www.w3.org/2000/svg" xmlns:xlink="http://www.w3.org/1999/xlink" viewBox="0 0 345.41 159.65"><defs><style>.cls-1{fill:#fff;}.cls-2,.cls-6{fill:#4373b6;}.cls-10,.cls-2,.cls-3,.cls-4,.cls-5,.cls-7,.cls-8,.cls-9{fill-rule:evenodd;}.cls-3{fill:url(#linear-gradient);}.cls-4{fill:#ec037c;}.cls-5{fill:#8dd7f7;}.cls-7{fill:url(#linear-gradient-2);}.cls-8{fill:url(#linear-gradient-3);}.cls-9{fill:url(#linear-gradient-4);}.cls-10{fill:url(#linear-gradient-5);}</style><linearGradient id="linear-gradient" x1="-2.41" y1="19.3" x2="44.22" y2="55.22" gradientUnits="userSpaceOnUse"><stop offset="0" stop-color="#a2238d"/><stop offset="0.29" stop-color="#a2238d"/><stop offset="0.34" stop-color="#a2238d"/><stop offset="0.6" stop-color="#a0248e"/><stop offset="0.7" stop-color="#992890"/><stop offset="0.77" stop-color="#8d3095"/><stop offset="0.83" stop-color="#7c3a9b"/><stop offset="0.88" stop-color="#6548a3"/><stop offset="0.92" stop-color="#4a58ae"/><stop offset="0.96" stop-color="#296cba"/><stop offset="1" stop-color="#0482c7"/><stop offset="1" stop-color="#0085c9"/></linearGradient><linearGradient id="linear-gradient-2" x1="212.86" y1="100.55" x2="179.5" y2="49.91" gradientUnits="userSpaceOnUse"><stop offset="0" stop-color="#a2238d"/><stop offset="0.29" stop-color="#a2238d"/><stop offset="0.34" stop-color="#a2238d"/><stop offset="0.63" stop-color="#a0258e"/><stop offset="0.74" stop-color="#992a91"/><stop offset="0.82" stop-color="#8d3596"/><stop offset="0.88" stop-color="#7c439d"/><stop offset="0.94" stop-color="#6656a7"/><stop offset="0.99" stop-color="#4a6db3"/><stop offset="1" stop-color="#4373b6"/></linearGradient><linearGradient id="linear-gradient-3" x1="295.7" y1="32.58" x2="344.45" y2="32.58" gradientUnits="userSpaceOnUse"><stop offset="0" stop-color="#a2238d"/><stop offset="0.29" stop-color="#a2238d"/><stop offset="0.34" stop-color="#a2238d"/></linearGradient><linearGradient id="linear-gradient-4" x1="256.61" y1="28.12" x2="296.46" y2="47.28" gradientUnits="userSpaceOnUse"><stop offset="0" stop-color="#a2238d"/><stop offset="0.29" stop-color="#a2238d"/><stop offset="0.34" stop-color="#a2238d"/><stop offset="0.46" stop-color="#9b2990"/><stop offset="0.62" stop-color="#893898"/><stop offset="0.81" stop-color="#6a52a5"/><stop offset="1" stop-color="#4373b6"/></linearGradient><linearGradient id="linear-gradient-5" x1="319.18" y1="46.46" x2="306.3" y2="58.67" gradientUnits="userSpaceOnUse"><stop offset="0" stop-color="#a2238d"/><stop offset="0.29" stop-color="#a2238d"/><stop offset="0.34" stop-color="#a2238d"/><stop offset="0.52" stop-color="#71409f"/><stop offset="0.91" stop-color="#0085c9"/></linearGradient></defs><title>Asset 4</title><g id="Layer_2" data-name="Layer 2"><g id="Layer_1-2" data-name="Layer 1"><path class="cls-1" d="M6.84,118.54H7l.32.34v.35H6.84Zm0,.86h.33v.34h.16l-.16.87H6.84Zm0,1.55h.49c0,.58.28.86.82.86l.17.87V123l-1.15.17-.33-.51Zm1-6.21.32.35v1.55h.17l.49-.52.65.35c0-1.15.11-1.73.33-1.73s.37.52.49,1.56h.17c0-1,.11-1.56.32-1.56h.33l.17.87h.49v-.87h.49v.69c.25,1.38.52,2.07.82,2.07-.28.74-.56,1.14-.82,1.21l-.33-.34v-.87h-.33v1.38a1.31,1.31,0,0,1-.49,1c-.43-.12-.65-.35-.65-.69l.16-.52-.16-.17h-.17l-.16,1.72-.49-.52.16-.17-.16-.51H9.3v.17l.16.51-.16,1,.33.34.65-.17v.17l-.16,1,.16.69H10L9.63,122l.16-.69H9.3V123H8.81v-2.41H8.32v.51H8l-.33-1.2.17-.52H8c.22,0,.33.29.33.86h.49l.33-1.2-.66-.52H8c0,.34-.11.52-.33.52H7.5v-.18l.49-.69q-.35,0-.66-1.38l.17-.69H7.33C7.44,115.2,7.61,114.74,7.83,114.74Zm1,.18H9v.69H8.81ZM11.27,122l.32.51v.18l-.32.34h-.33l-.17-.69Zm5.07-7.42.17.17-.17.52.33,1.9h.49l.17-.86L17,114.74l.16-.17h.66l.65.17,1.15-.17H26l.16.86v6.9l-.16.86a17.68,17.68,0,0,1-3.93-.34l-.66.17-.16-.17c-.33.39-.49,1.54-.49,3.45h.16c0,.34-.16.51-.49.51v.52h.33v.35l.16,1-.66,1.38H20c-.11-.92-.28-1.38-.49-1.38h-.17v.34h-.16l.16.18v1.55l-.33.34c0-.34-.11-.51-.32-.51s-.42.28-.5.86H18l-.33-1.21v-.86h-.32c-.19,0-.35.4-.5,1.21a.44.44,0,0,0-.49.51h-.16l-1-1.2-.33,1.2h-.16l-.17-.51.17-.18v-.51l-.33-.52V128h-.49v1.21h-.82v.86l.82.34v.18c-.33,0-.6.23-.82.69v2.58c.06.69.22,1,.49,1q0-.87.33-.87l-.17-.86v-.69h.17l.32.35v.86h.33l.17-1.38h.16c.19,0,.4.34.65,1h.17l.16-1.55h.49l-.16.18v.17l.33.34h.16l-.16-1.2h.65l-.16.17v.17c.2,0,.37.52.49,1.55l-.16.17v.18l.16,2.76v.86h.16l.33-.35v-.17l-.16-1.72.16-1h.33l.16,1.21v.52h.33v-.87l.49-.51.33.86h.16l.33-1.21h.33c.19.81.35,1.21.49,1.21l-.33,1.38.33,2.76-.16.17.16,2.07v5.17l-.16,1.55.16,1.73v7.41l-.49.52h-8l-.49-.35.16-.17-.16-2.07V139.92l.16-1.9-.16-.86.16-.17v-.18l-.16-.51a6.12,6.12,0,0,0,.66-3.11,7,7,0,0,1-.66-2.41l.16-.52.17-6.89h.33l.16.51-.16.18v.17l.49,1.2-.17.52h.33v-.52l.16-.86h.33l.17,1h.32l.17-.86v-.18c0-.23-.33-.34-1-.34v-.35h-.16l.33-.51-.66-1.21h.33V122l.16.17h.33l.66-.17,1,.51,1.15-.86.65.17v-.51l-.33-.35-.49.35-.65-.35-.17.17h-.16l-.49-.17-.33.35h-.16l-.17-.69.17-.18h-.33v-1c-.19-1-.41-1.55-.66-1.55l.33-.69c-.65,0-1-.81-1-2.42h.33l.32.35V116h.33l.17-1h.32l.33,1H15v-.69h.17c.22,0,.32.58.32,1.73l.33-.35-.16-1.21q.33,0,.33-.69l.16-.17ZM12.41,121l.33.35v.17l-.16.17.16.17v.52l-.16.86h-.17l-.49-.51.33-1-.17-.52.17-.17Zm.66,6.9v.52h.49v-.18l-.33-.34Zm.32,7.41v.52h.17v-.52Zm.17,4v1.38h.33v-1.38Zm.16,6.55v.34h.33v-.34ZM15,123.19l.17.52h.16v-.52Zm.17.87-.17.51.17.52h.16q0-.69.33-.69l.49.35v-.18C16.18,124.37,15.85,124.2,15.2,124.06Zm.32,13.79v.69h.33v-.35Zm1-2.42v1.73h.32v-.86l-.16-.87Zm.16-12.24v.52H17v.17l-.33.52A2.7,2.7,0,0,1,17,126h.16l.17-1.2L17.16,123Zm.16,7.76h.5v.17h-.5Zm.82,8.28v.51H18v-.51Zm.17-15.17v.51l.49.52.33-.34v-.52ZM18,132.5h.16l.33.35-.16.86H18l.16-.17-.16-.18Zm.33-5.86v.69h.16v-.69Zm0,.86v.87l.33-.35v-.17Zm.65-2.93h.5v-.34h-.17Zm0,8.1h.17V133H19Zm0,13.11v1l.5.52.16-.52C19.48,146.12,19.26,145.78,19,145.78Zm.66-10.52-.16.52.16.17h.16l.17-.17-.17-.52Zm.16,2.59-.16.17v.17l.33.35h.16v-.35Zm.49-6.73h.17l.49.52-.49,2.07h-.33q0-.69-.33-.69C19.89,131.76,20.06,131.12,20.27,131.12ZM20,121.3v.51h.16v-.51Zm1.31.34V122h.16v-.35Z"/><path class="cls-1" d="M29.06,116.15h3.27l.17,1.72.49-.17v-1.55h.33l.32.34.66-.34a1.84,1.84,0,0,1,.33,1.21c.18,0,.35-.41.49-1.21h.33l.16.86h.16l.66-.86.65.34.33-.34h.33l.16.86v9.14l-.16,1.21.16.17h-.16l.16.17v2.24c0,.17-.22.34-.65.52q0,.81,1.14,1.38l.5-.35.65.35.66-.17c.1.92.27,1.38.49,1.38v-1.9l-.17-.17.17-.18v-.17l-.17-1.72.17-1-.17-1,.17-2.59-.17-6.38v-1.2l.33-.35c.14.69.36,1,.66,1,0-.81.16-1.21.49-1.21l.33,1-.17.69.17,1.73-.17,1.72H42l-.33-.34v-2.07l-.16-.18.16-.17v-.17l-.33-.34-.16,1.55.16.69-.16,1.55v2.76h.49v-2.25l.16-.86H42l.33.35v1.38l.16,1.38-.16.86.32,2.76.33-.35-.16-1c0-.81.11-1.21.32-1.21l.5.17.16-.17v-.17l-.33-.52-.16.17h-.17l-.32-.34V122l.32-.34h.17v1.55h.33V123L43.47,121l-.49.34h-.16l-.17-.86.17-.17v-.18l-.17-3.44.17-.52h5.4c.11,1.15.27,1.72.49,1.72l.17-1.72H49l.33.34V121l-.17.17.17.17v3.79H49l-.16-.17h-.17v1.55l.17-.17h.49l-.17,1,.17.51-.17.17.17.87v2.93l-.33.52v1.2c0,.58.14.86.33.86v.35H49.2l.17,9.48v9.48l-.33.35-.49-.17-.16.17v.34l.49.18.16-.18.33.52v4l-.49.51H45.44c-.22,0-.33-.28-.33-.86h-.33c0,.58-.27.86-.82.86H42.33l-1-.17-.49.17-.33-.51v-2.76c0-.58.14-.86.33-.86l.66.34.32-.34H43v-.18l-.82-1.72-.16.86-.17-.17h-.32l-.82.17a4.33,4.33,0,0,1-.33-1.89v-4.49l.33-.34.32.34.33-.52-.33-1-.16.17h-.16l.16.18v.17l-.33.34-.16-1.72.65-1v-.17l-.65-.34.16-.86v-1.73c-.42,0-.69-.4-.82-1.21h-.16c0,.69-.11,1-.33,1s-.32-.29-.32-.86h-.33c0,.57-.33.86-1,.86v2.07l.16.69-.16.17.32,3.79-.16,1,.16.86-.16,1.72v.69l-.16.18.16.17v2.41h-.49v-2.41l-.33-.35-.16.18h-.17l.17.17v1.89h.32v.52h-.32v.35h.32v.17l.17-.17h.49l.16,2.07-.16.17v.17l-.16-.17h-.33v1.38l-.49.51-.66-.68-.33.68-.82-.17-.49.17-.49-.17-.16.17h-.17l-.65-.34.16-.86v-2.76h-.32v3.79l-.82.17H29.55l-.49-.51v-1.38l-.17-4.31.17-1.55.49-.18.16.18v-.52c-.54,0-.82-.35-.82-1v-.17l.33-1.55-.33-.69c.08-.57.36-.86.82-.86v-1.38l-.65-.17v-1.56c.43,0,.65-.17.65-.51l-.32-1.38-.33-16.73v-5.86l-.17-.69.17-.17v-.17l-.17-1.55Zm1.31,3.27v.35h.49v-.69H30.7Zm1.31-1.37v.34h-.17l.17,1.21L31.84,131l.17.17h.16V131L32,118.22l-.17-.17Zm2,1.55v.17l.33.34v-.51Zm1.15.86v.69l.33-.35v-.34Zm0,2.58v1.73h.33v-1.38Zm0,32.59v3.11h.49v-1L35.12,156l.16-.18-.16-.17Zm.82-38.1v.52h.33v-.18Zm.33,5v1.55h.32v-1.21Zm.49,18.79v2.24l.33.35.16-.18-.16-1.2V141Zm.33,5v.52h.16v-.52Zm.49-19.48v.52l.33-.35-.17-.17Zm.16,9.31v.69l.33-.35Zm1,.17v.35h.17v-.35Zm1-3.62v.35l.32.34v-1Zm1.31,10.52v.34H41v-.34Zm.16,5.17v.34h.33v-.34Zm0,1.21.16.17h.17v-.52Zm.66-16.73v.52h.16v-.52Zm1.14-4.31-.16.17v.52H43v-.34Zm.66,26.55.33.35v-.35Zm1-3.1v.17l-.16,2.24.32.35.5-.17V153c0-.59-.17-.93-.5-1Zm1.15,1.72v.69h.49v-.69Zm1-32.75-.33.51.17.18h.49v-.35Zm.16,4.48V126h.33v-.52Zm.17,2.07v1l.32-.34v-.69Zm0,2.41v4.14l.32.34v-4.48Zm0,5.17.32.35v-.69Zm0,18.62v.18c.54,0,.82.4.82,1.2.25,0,.41-.28.49-.86l-.33-.86Zm.82,2.07v1h.49v-.17l-.17-.87Zm1-34.65v.34h-.16l.16.52h.33v-.86Zm.16,5.69v.52H49v-.18Z"/><path class="cls-1" d="M52.71,113.78h2.13L55,114l.16-.18h.17L56,114l1.15-.18h7.2l-.16.87.49.17v-1h.49l.33.35.66-.35.16.18h.49l.49-.18V114l.17.69v7.24l-.5.51H65.33l-.5-.34-.49.34h-1q-.33,0-.33-.51l-.16-.18h-.16l-.17.69h-1V129l-.16.17.16.17v1.21l.82.17.16-.17.17.17h.65l.16-.17.17.17h.65l.17-.17.16.17h.16l1.64-.17c.44.11.66.46.66,1V136c0,.23-.22.34-.66.34v1l.66.87-.82.69-.16-.18h-.66l-.16.18-.66-.35-.65.17-.33-.34v-.17l.16-.69-.33-1.21H63.2l.16,1.72v.35c0,.23-.16.34-.49.34l-.16-.17h-.17a1.56,1.56,0,0,0-1.31,1.55l.17.87-.17.51.17,2.07v1.73l.16,5-.33.68.17.18v.86h-.33l-.33-1.55c-.26,0-.43.23-.49.69.26.8.48,1.2.65,1.2l.5-.17v.17l.32.69.82-.34.49.52.33-.87a4.21,4.21,0,0,1-.33-2.24l-.16-.17h-.16v1.38l-.17.86h-.16c-.24,0-.45-1.21-.66-3.62l.49-.17.17.17h.16l1.31-.17.17.69h.16v-.52c.33,0,.49.52.49,1.55l.49-.17v-1.21l.33-.34.33.34-.17.18v.17l.33,2.41-.33,1L66,154l-.16,1.72h-.49v-.86H65l.16.86c-.33,0-.49.23-.49.69-.22,0-.33.17-.33.52l-.82.17H57.46c-.54,0-.81-.12-.81-.35l-1,.35H53.21l-.5-.52v-5.86l-.16-.69.33-1.72-.17-.18v-.69h.17c.22,0,.33.35.33,1h.16V145h-.16l-.17.17h-.16c0-.57-.11-.86-.33-.86.11-1.26.27-1.89.49-1.89h.33v-.69h-.66v-1.56l.5-.69-.33-1.72.16-.17-.33-2.07v-.35h.17l-.17-2.07v-6.38l.33-1-.33-1v-4l.17-1.21h-.17l.17-.17-.33-3.62.16-1-.16-.18v-.17Zm.17,31.56H53v.51h-.16Zm0,1H53v.34h-.16Zm.33-29.14L53,119.3h.17l-.17.52.17.52h.16l.16-.87h-.16l.16-.17v-.17l-.16-1.9Zm0,4.66v.69l.32-.35Zm0,1v1l.16.86h.33v-.52l-.33-.52.16-.69-.16-.17Zm.16,27.24v.35h.16v-.35Zm.33-18.1-.17.86.33.35H54v-1.21Zm0,3.45v.34H54v-.34ZM55,114.3c0,.35-.11.52-.33.52l-.49-.35-.17.18v.17l.17.17v.17l.16-.17h.17l.82.17v-.86ZM54,141v.17h.33v-.52Zm0,.86v.52l.17,1-.17.17v.17l.33,2.07-.16,1v1h.33v-5.69l-.33-.34Zm.17-7.07h1L55,133.61V132.4C54.71,132.4,54.44,133.21,54.19,134.82Zm.16-16.21V119h.17v-.35Zm0,30.69v.52h.17l.16-.52Zm0,3.79v2.07h.33v-2.07Zm.17-28.79v1.55h.32V124.3Zm.16,3.1v.52h.16v-.52Zm0,2.94v.34H55v-.34Zm.16,5.17v.34H55v-.34Zm0,1.55v.34h.33Zm.17,2.76-.17.52.33,4.13V146l.33.34v-2.76l-.16-1,.16-.69-.33-2.07Zm1.14,7.58v1l-.16.86h-.33l-.16-.17h-.16v.52l.16-.18H56l.16,1h.17a1.12,1.12,0,0,1,.49-1l-.33-1v-1Zm-.81,6.21v.52h.16v-.52Zm0,1v1.55h.32V156l-.16-.69.16-.52-.16-.17Zm.32-23.8V131H56v-.18Zm0,2.59v.17l.17,1.21h.32v-.35L56,134.3l.16-.17V134l-.16-.52Zm.33,4v.35h.16v-.35Zm0,1.9v.86l.33-.34v-.17Zm.16-22.24.17,1.72V120h.33l-.17-2.58v-.52l-.16.17Zm0,34.14v.51c0,1.84.17,2.76.5,2.76l.16-2.41c-.14-.58-.31-.86-.49-.86Zm.33-29.66v.35h.17v-.35Zm.33,9.31-.16.18v.34h.49v-.17Zm0,3.11v.17L57,135h.17l.16-.52-.16-.86Zm.16,2.93-.16.51.16.52h.17l.16-.52-.16-.51Zm0,1.72v.86h.17l.32-.34v-.35Zm0,10.17.49.35h.17l-.17-.52.17-.86h-.17C57.14,147.86,57,148.21,57,148.78Zm.33-7.24v1c.22,0,.33-.17.33-.52l-.17-.52Zm0,1.38v1h.16l.17-.87-.17-.17Zm0,1.38v2.76h.33v-.17l.16-1.55C57.65,144.65,57.49,144.3,57.3,144.3Zm.16-22.76v.52l.33.34v-.86Zm.17,2.42v2.75l.33.35V124.3Zm.16,7.58-.16,1.9.16.52.49-.52C58.17,132.17,58,131.54,57.79,131.54Zm0,2.76v.52l.33-.35L58,134.3Zm0,1v.34h.33Zm.17,1.89v.35h.32v-.35Zm.16-22.41v.69l.16.86h.17l.16-1.38-.16-.17Zm.33,29V144l-.17,1.89.17.52h.32v-2.59Zm.16,7.07v1.21h.33v-.86Zm.16-18.62.17,1-.17.51.17.18h.33l-.17-2.07Zm.17-1v.34h.16v-.34Zm0,3.27v2.07l.33,2.93h.16l.16-.51-.16-.87.16-.51-.32-3.11Zm.33,5.35-.17.52.49.34v-.52Zm.16,4.83-.16.69.32,3.27-.16,1,.16.17h.17V145Zm0-3.11v.52h.16v-.52Zm0,1.9V144h.16v-.52Zm.16,7.07-.16,2.07.16.17h.17l.32-1.9Zm.17-26V125h.32v-.17Zm.32,10v.18h.33v-.18Zm.17-19.13v.34h.16v-.34Zm0,1.72v.17l.33.35v-.52Zm0,24.31.16,1.72v.35h.33v-.86l.16-1.21-.16-.17h-.16l-.17.17Zm.16,3.79v2.07l.17,1.21h.16l.16-.69-.16-1.21v-1.72Zm.17,3.45v.69h.16v-.69Zm.16-26.21v.69h.16v-.69Zm.16,2.93-.16.87.16.17h.17v-1Zm0,6v1.21h.33v-1.21Zm.17,4.14v.17h.33v-.17Zm.33-18.45v.52h.32v-.17Zm.16,2.24-.16.17v.35l.32.34.17-.17v-.34Zm0,1.21v.34h.16v-.34ZM62.05,135v.69h.33v-.34Zm.16,2.59.17.17h.16v-.52Zm.17-21.73v1.38h.33v-1Zm0,22.07v.35h.16v-.35Zm.33,11v.51h.16L63,149Zm1,3.1.16,1.55H64l.32-.34v-.87l-.32-.34Zm.33,3.45v.69h.16l.16-.52-.16-.17Zm.32-20.35v.35h1V135h-.17Zm0,1.9v.52h.17l.32-.35-.16-.17Zm.17-20v1.21h.32v-.86Zm.16,33.62v2.24l.49.52.33-.52v-.52a3,3,0,0,1-.66-1.72Zm2.79-1.21h.32L68,151.2v.17l-.17.17.17.17v2.59l.16.17-.16.18v2.24l-.82.17c-.55,0-.82-.12-.82-.35l-.66.35c-.54-.15-.82-.32-.82-.52.55,0,.82-.17.82-.51l.66.34.16-.17V156l-.16-2.59.33-.69L66.31,151l.16-.51h.33l.49.34.17-.86Zm-2.3-12.07.33.35h.33v-.69h-.33Zm1.31-22.58v.52h.17v-.52Zm.33,34.48.16.17v.18l-.32.34-.17-.17v-.17Zm.33,2.93v.35H67l.17.51h.16l.33-.34v-.17l-.33-.35Zm.16-3.79h.17l.32.34V149h-.16l-.33-.35Z"/><path class="cls-1" d="M85.32,113.59h3.11l.17.17.16-.17h.82l.16.17.17-.17h3.76l.33.34,1-.34h.17l.82.17v1.72l.32-.34v-1.38h.5l.32.34.49-.34c2.41.28,3.61.8,3.61,1.55l.16,1.55v1.21l.33.34v-3.1h.16c.22,0,.33.29.33.86l.49.18L103,116a2,2,0,0,1,.49,1.21v2.93h.16l.17-.17H104l-.16-.18v-.51l.16-.18-.16-.17v-1.55c.36,0,.68.86,1,2.59.22,0,.33.34.33,1h.16l-.16.86V122l.33,1.55-.17,4.31-.33.34v.17l.5,1-.17.86.17.17-.17.87v1l.17,1.38-.17.52.17,5.34v4.14l-.17.69.17.69-.17.17v.17l.17.69h-.17l.17.18V147c-.39,5.28-1.21,7.93-2.46,7.93,0,.46-.87,1-2.62,1.55l-.17-.17h-.16l-.82.34-.16-.17h-.17l-.81.34-.17-.17v-.17l-.16.17h-.49l-.33-.34v-1.73l-.33-.34v2.07l-.49.51-.16-.17-1.15.17h-.33a1.8,1.8,0,0,1-1.14-.51l-.33.51-.49-.34-.17.17h-.65l-.17-.69h-.32c0,.58-.17.86-.5.86H90.4a1.85,1.85,0,0,1-1.15-.51l-.49.51H87.29l-1-.17-.82.17h-.16l-.49-.51v-2.42l.33-1-.33-1.38.49-3.28L85,146.86l.33-.34L85,146l.17-.17V145l-.17-.18.17-.17v-.69L85,142.72l.17-.68L85,136.69v-2.76h.49v.52h.33l.33-1v-.17l-.33-.52.33-.51c-.22,0-.38-.4-.49-1.21l.16-1.72-.49-.18-.16.18v-1l.32-.51V125H85v-.35l.17-2.24-.17-.86.17-.69L85,118.07v-4.14Zm.49,25.17L86,140h.16v-1.56ZM86,123.41v1.21l.16,1.21.16-.17h.17l-.33-1.56.16-.69Zm0,4.66v.17l.16.17v.18l.49-.18v-.68H86.3Zm0,1.38V130a1.67,1.67,0,0,1,.49,1h.16l.16-1.21v-.51l-.32-.35ZM86,145v2.41h.16l.16-.69L86.14,145Zm.16,3.79v.34h.16v-.34Zm.33-17.24-.17.17v.17l.17.17h.16l.16-.17v-.17l-.16-.17Zm0,.86-.17.17v.17l.33.35.16-.17v-.18Zm-.17,22.24V155h.17v-.35Zm.17-21.21v.35h.16v-.35ZM87,146.35v.51l.33.35v-.86Zm.33-17.59v.52l.16,1.55-.33.86.33,1.72h.16l.17-1.55h-.17l.33-.86-.33-.34.17-.52-.17-1.73Zm-.17,21v1.9l.33-.34v-1.21Zm0,2.94v.51l.33-.34-.16-.17Zm0,1.55v.86h.33v-.52Zm.33-20.52v.34l.33.35v-.35Zm.16,1v.35h.17v-.35Zm.49-14.13-.16.69.33,1.55-.17,1v.52h.33v-1.38l-.16-1,.16-.87v-.51Zm0,27.93V150h.33v-1.38Zm.33-20.18-.16.18v1l.33.35.32-1.21Zm0,2.76V132l.33-.34v-.17Zm0,1.9v1.72h.33v-1.38ZM88.76,116v.35h.33V116Zm.16,28.1v.35h.33v-.35Zm.17,4.49v.51h.32v-.17Zm0,1.38v1.2h.32V150Zm0,2.93.16.51h.16v-.34h.17l-.17-.52Zm.16-30v.34h.16v-.34Zm.16,7.76V131h.33v-.34Zm0,.86v1.38l.33.34v-1.72Zm0,3.1.17.52h.16v-1C89.52,134.1,89.41,134.28,89.41,134.62Zm.5,18.11v.17l.16.86h.16l.33-.35v-.68l-.33-.35Zm.16-31.56v.69l.33-.34Zm0,1v.69h.33v-.35Zm.33,6.38v1.72l.32.35v-1.73Zm.16,3.44v.52l.33-.34-.17-.18Zm.33,10.87v.69l.16.86.33-.35v-.34l-.33-.86Zm.16-23.11.33.35v-.35Zm.17,6v1h.32v-1Zm0,27.76v.34l.32.35.17-.18v-.17l-.33-.34Zm.16-24.31v1l.16.86h.17l.16-1.38-.16-.51Zm.16,2.07v.51h.33v-.17Zm0,1.89v.17l.33.35v-.86Zm.33,5.35v1.55l.33-.35v-1.2ZM92,118.41v.18l.32.34v-.86Zm0,26.9v1l.32.34v-1Zm.16-24.14v.52h.16v-.52Zm0,26.56v2.06l.33-.34v-1.72Zm0,2.93v.69h.33V151Zm.16-24.31v1.72l.33.34v-2.06Zm0,27.93v.51h.17v-.51Zm.17-25.52v.34h.16v-.34Zm.32,9.31.33.34v-.69ZM95,115.66l.17,1.2v.69l-.17.17.17.18V121H95l-.65-.17a1.67,1.67,0,0,0-1,.86v1.9l.32,1.38-.32.51.49,11.73-.17,1,.17,4.66v2.41l-.33.35-.16-.87v-1.55H93v5.52c0,.23.27.34.82.34l.49.52c1.53-.26,2.29-1.47,2.29-3.62v-.34l-.16-1.56.16-3.1v-1.9l.17-1.55-.33-1.38.65-1.38-.32-.51.32-.35v-2.24H97v.52h-.49v-.69c0-.81.16-1.21.49-1.21v-2.76a9.84,9.84,0,0,0-.33-3.1l.17-.17v-.18a4.74,4.74,0,0,0-1.32-3.27v-3.62L95.31,116h.16l-.16-.52-.16.18Zm-2,.69v3.1l.33.34h.16v-3.1l-.33-.34ZM93.51,146h.16l.17.52h-.33Zm0,1h.16v.34h-.16ZM94,117v.69l.33-.34Zm.33,1v.52h.16v-.52Zm1.31,36.38-.17,1.9h.33v-1.9ZM96,115.83v2.58h.49v-1.2C96.46,116.35,96.29,115.89,96,115.83Zm.65,36.72v.35h.17v-.35Zm.49-38.1v.34h.17v-.34Zm0,1.21V117l.33.35v-.86l-.16-.86Zm.17,4.13v.52l.32.35v-.87Zm.16,28.45v.35h.16v-.35Zm.16,5.17-.16.87v.34l.49.52v-1.38Zm0-28.27v.69c0,2.07.17,3.1.5,3.1v-2.76C98.1,125.58,97.93,125.24,97.6,125.14Zm0,27.07v.34h.33v-.34ZM97.93,130v.51h.17V130Zm0,.86v1.72h.33v-1.38Zm.33,12.93v.17l.33.35v-.52Zm.16,2.24v.69l.33-.34Zm.17-23.45v.52h.16v-.52Zm0,1v1.55h.49V125C99.08,124.11,98.91,123.65,98.59,123.59Zm0,2.07v2.07l.32.34h.17v-2.41Zm0,28.1v.17l.32.35v-.52Zm.32-24-.16.87.16.51h.5v-.34C99.41,130.24,99.24,129.89,98.91,129.79Zm.33-12.41v1h.33v-1Zm.17,1.72v2.76l.32.35V119.1Zm0,25.69v.69h.32v-.69Zm.16-20.69v1.21h.33v-.86Zm0,2.59c.08,1.27.24,1.9.49,1.9v-1l-.16-.86ZM99.9,130v.34h.16V130Zm0,1v1.21l.32.34v-1.2Zm.49-14.48v4.31l.16.86h.17l.16-1-.16-4.14Zm0,27.76V146h.16c.27,0,.43-.52.49-1.55l-.16-.17Zm.16-22.07v.52h.17v-.52Zm.33,5.86-.16.17.16,1.21v1h.33v-2.07Zm.16,5.17v1l.33-.35v-.34Zm0,2.76v.34h.33V136Zm.5-15.17v.52h.16v-.52Zm0,1,.16,1.73v.51H102l-.17-.86.17-1Zm.32,4.83v.52H102v-.52Zm0,1v2.06l.33.35v-2.41Zm.17,3.1V132h.32l-.16-1.2Zm0,2.93V135l.32.34v-1.55Zm0,20v.34h.16v-.34Zm.49-36.21v.35l.33.34v-.69Zm.16,4.83v2.07l.33.34v-2.06Zm0,22.24V145h.17v-.35Zm0,3.62v.35H103v-.35Zm.17-21.72v.17l.32.35v-.52Zm0,1.72.32.35v-.69Zm.16,1.55v1.38l.33-.34v-1Zm.16,4.14v.35l.33.51-.16.18v.17l.16,1h.16v-2.58h-.16Zm.17,3.28v.86l.32.34v-1.2Zm0,1.89v1.21l.16,3.45h.16v-.35h.17l-.17-1.2.17-1.21-.17-.52.17-.17v-.17l-.17-1.38Zm.16,7.76v.69l.33.35H104v-.69l-.33-.35Zm.33-25.34-.17.17V122l.17,2.06h.33l-.17-1.2.17-1.21-.17-.17Zm.33,10v.86l.32-.35v-.17Zm0,2.76v.51h.16v-.51Zm0,1.72v1l.16,2.59h.33l-.17-.69.17-.17v-.17l-.17-.87.17-1.55-.17-.17Zm.16,4.66-.16.51.16.18v1l.49.17v-.17l-.16-1.72Zm.33,3.27-.17.69.17,2.07h.16l.33-1.38-.17-.17V145l.17-.69v-.18Z"/><path class="cls-1" d="M110.2,116.37l.16.17h.16l.49-.17.17.69h.49c.22,0,.33-.17.33-.52h.32v.87h.17l.49-.35h.16l.33,2.76h.17l.16-1h.33l.32.69v.18l-.16,1.89.49.69L115,121l-.17-1.56h1l-.16-.17v-.52h.33v-.51l-.49-.52c0,.34-.11.52-.33.52l-.66-.52h-.16l-.16.17H114l-.32-1.2-.82.17-.17-.17v-.18H113v-.17l.16.17H114l1.15-.17.33,1.21h.16l.33-1h1.31c.06.46.22.69.49.69l.33-.34.65.69h.17v-.35h.32v.52l.33,1.38v1.38H120c0-.69.11-1,.33-1H122l.49-.34c.11,1,.27,1.55.49,1.55l.49-.17a3.29,3.29,0,0,1,.49,1.72q.33,0,.33-.69l.17-.17h.16c.22,0,.33.29.33.86h.49l.16-1-.16-.17v-.18l.16-.17v-.17l-.33-2.07h.17q1.08,0,2.62,5.52v.69l-.66.17v1h.33V125h.33l.16.86v1.73l.17.17-.17.17v.17q-.26,6.9-1.14,6.9h-.17v-1h-.16c0,1.61-.38,2.41-1.15,2.41l-1.64.69v.17q4.26,2,4.26,5.69l-.33,1.73.17.51-1,.18.16.17c.65,0,1,1,1,3.1v5l.17.69-.17.69v2.41l.17,1c-.14.57-.31.86-.5.86l-.32-.34q0,.51-.33.51l-.16-.17-.82.35-.66-.18-.65.18-.17-.18v-1.38h-.16l-.16.18h-.17l.17.86v.17l-.17.17v.18l-.49-.18-1.15.18v-.18l-.16.18H121c-.66,0-1-.41-1-1.21l.17-.86L120,156v-.69l.33-.35h.49l.49.35.17-.18v-.51c0-.23-.39-.35-1.15-.35a9.84,9.84,0,0,1-.33-3.1V144l.17-.18c-.22-2.41-.77-3.62-1.64-3.62V140l-.16.17h-1v14c0,.23-.22.34-.65.34v.35a2,2,0,0,1,.65,1.55l-.16.86.16,1v.86l-.49.52h-.65l-.82-.18-1,.18h-.81l-.66-.52h-.33v.34h-.33v-.34c0-.23.17-.35.5-.35l.16-.17v-.17l-.16-.17-.17.17h-1v.86l-.33.35-.16-.18-.82.18h-1.31c-.22,0-.38-.58-.49-1.73l.16-.52-.16-.69.33-2.06-.33-2.59c.06-1.26.17-1.9.33-1.9l-.33-3.45h.16l-.16-.17v-.17l.16-.17-.16-.17V144l.16-.18-.16-.17V141l-.17-1.73c.19-2.91.52-4.8,1-5.69l-.17-.17v-.17h.49q0,.51.33.51l.17-.86.81.17.17-.17v-.34l-.33-.35-.49.17v-.69c0-.22.16-.34.49-.34v-.52c-.47,0-.74-.57-.82-1.72l-.16-.17h-.17l-.16.17.16.17v.17a1.94,1.94,0,0,0-.32,1.21h-.66l-.16-5.86.16-.52-.16-1v-5.52l.16-.86.66.52C109.64,116.72,109.91,116.37,110.2,116.37Zm-1.48,15.17h.33l.33.35v.17h-.66Zm.17,11.73v.34l.32.86.49-.34-.32-.86Zm.32,2.76-.16.68.16.18h.17V146Zm0-28.28v.69h.17v-.69Zm0,27.24v.52h.49v-.35Zm.17,4,.16.86h-.33v.52h.49V149Zm0-25v.51h.16V124Zm.16,30.51v.35h.16v-.35Zm.16,1,.33.34h.49v-.34Zm.33-15.35v.69h.17l.65-.17.66.35v-.35l-.17-.86h-.65Zm0,3.45v.17h.66v-.17l-.33-.34Zm.33-26.55h.33v-.34Zm0,2.07v2.24h.33v-1.9Zm0,4.65V124l.16.69-.16.68v.18l.33.34.16-.17H111l-.32-1,.16-.69-.16-.18Zm.33,4.49v.86h.16v-.86Zm0,5.69.16.17h.33v-.52H111Zm0,24.48v.17l.32.35h.17v-.52Zm.49-39,.33.52v3.1l.16,1.9-.16.86.16.17h.16v-.34H112l-.17-.17v-.35l.17-1.55-.17-1.72v-.52l.17-1-.33-1.21h-.16Zm.16,22.25v.51l.33-.34v-.17Zm0,1v1h.17v-1Zm.33-11.21.16.17H112v-.51Zm.16,2.76v.17h.33v-.17Zm.33,2.93v.52l.33-.35v-.17Zm.33-17.24-.17.17v.69c0,.92.28,1.38.82,1.38v.52l-.65.17v.52h.33v.17l-.33.52.49.52.33-.35h.16v1c0,.24.33.35,1,.35l.5.52.49-.35h.16c.11,1.15.27,1.73.49,1.73h.17v-1l.16-.17-.49-2.07.16-1v-.87h-.33v.18l-.16,1.72h.16l-.32.52.16.17v.52h-.33c-.26,0-.43-.23-.49-.69h-.33v.34h-.16l-.16-.86h.32v.35h.5c0-.46.14-.69.32-.69a2.79,2.79,0,0,0-1-1.56l-.82-2.24a1.31,1.31,0,0,1-.33,1l-.49-.17.17-.18v-.51Zm-.17,22.24v.52h.17v-.52Zm.17,3.11v1h.16L113,146v-.35l-.33-.34Zm.16-19.83v.34h.17l.16-.17h.16l-.16-.52Zm.33,28.62-.33.52.17.17h.49v-.35Zm-.33,1.55.17.52H113l.33-.35v-.34H113l-.16.17Zm0,1.38v.86H113l.33-.34v-.87H113Zm1.15-26v.51c0,.58-.11.86-.33.86l-.49-.17-.16.17v1.21l.32.35q0-.69.33-.69t.33.69l.16.17h.33l.33-.35-.33-.69.16-.51c-.11-1-.27-1.55-.49-1.55Zm-.82-7.59h.49v.69h-.16l-.33-.35Zm0,18.1.33.35.16-.17v-.52h-.16Zm.16-4.14v.52h.17v-.52Zm.5,17.25.32.34h.17l.32-.34-.32-.35H114Zm.65-14.83.16.52-.49,1,.33,1.21h.33l.16-.86.17.17h.65v-.69l-.16-.17v-.18c-.33,0-.49.18-.49.52l-.33-.34v-1.21Zm-.16-4.83v.35h.16V135Zm.16-18.27.16.51h.17v-.51Zm.16,27.41v.34h.17v-.34Zm.33-10.52v.17l.33.35v-.52Zm.17-1v.51h.16v-.51Zm0,21.55v.52h.32v-.52Zm.65-33.79v.17h.33V120Zm1.15-3.62v.51h.16l.16-.51Zm.49,7.41v1h-.33V126l-.16.18v.17l.16.17h.16l.17-.17.16,2.07h-.16l.16.17V129l-.16.17.16.17v2.24c0,.81-.11,1.21-.33,1.21l.17.52H119a1.46,1.46,0,0,0,.82-1.21h.33l-.17.52c.08,1.72.24,2.58.49,2.58l.5-.51a11.26,11.26,0,0,1-.5-3.11l.17-.17H122c0,.34.11.52.33.52h.16v-.52l-.16-1.21h-.17q0,.69-.33.69c-.25,0-.41-.28-.49-.86l.17-.52-.33-1.89h-.33l-.16,1.55h-.17l-.16-.17h-.16l.16-.87v-.86c0-.57-.11-.86-.33-.86l.17-.17c-.25-1.61-1-2.42-2.3-2.42h-.32Zm-.17,9.31-.16,1.55h.49v-.69l-.16-.86Zm.5-12.24v.17l.32.34h.17v-.51Zm1-3.11-.16.69.16.18-.16.17h.49l-.17-.17.17-.18v-.34Zm-.16,21.21v.35h.32Zm.49-5.52v.35l.16.86h.49l.17-.69-.33-.86h-.17Zm.49,4.14v1.9h.33v-1.55Zm1-1.38v.69l.33.35v-1Zm.16,7.07v.69l.33.35H121l.16-.52-.16-.86h-.17Zm.17,4,.16.86-.33.34.33,1.21.17-.17h.16l-.16-1.21v-1Zm.33-15.52.16,1.72H121c.14.81.3,1.21.49,1.21h.16v-.86l-.16-1,.16-.86-.16-.17Zm.32,7.59.33.34v-.69Zm.17-3.8v.52h.16v-.52Zm0,7.93v.52l.32.35H122l.33-.35-.17-.52Zm.16-3.1H122v-.34Zm.16,5.52v.34l-.16.86.16,1v.69h.33l.17-2.76-.17-.17Zm.33-29.31h.33c.22,0,.33.17.33.52l-.17.86h-.32l-.33-.35Zm-.16,7.93v.34h.16v-.34Zm0,2.76v1.72l.33.35.16-.87v-.86l-.33-.34Zm.16,4.65v.69h.33v-.69Zm1.15.17c0,.81-.11,1.21-.33,1.21h-.82l.17.86-.17.18.33.34.16-.17H123c.25,0,.41.4.49,1.21h.17c0-.92.16-1.38.49-1.38s.33.17.33.51h.32c0-.8-.27-1.2-.82-1.2-.31,0-.47-.52-.49-1.56Zm-1.15,3.45v.35h.49l.17-.52-.17-.17h-.16Zm.82,8.45.33.35v-.35Zm.49-27.24c1,.53,1.48.93,1.48,1.21l-.17.17h-.16c-1-.2-1.47-.6-1.47-1.21l.16-.17Zm-.32,11,.32.35.17-.17v-.18Zm.16,1v.34h.16v-.34Zm0,29.31v.34l.82-.17v-.17l-.33-.35h-.16Zm.82-31.21-.33.86.16.87h.33l.49-.52C124.62,127.63,124.4,127.23,124.12,127.23Zm-.17-4.65v.34h.17v-.34Zm.17,3.79v.34h.16v-.34Zm.49-6.9h.16v.35l-.32.34-.17-.17v-.17Zm.49,9c0,.57-.27.86-.82.86l.33.35v-.18c.54,0,.82.35.82,1h.33v-1c0-.59-.17-.93-.5-1Zm-.65,2.24v1.21h.16v-1.21Zm0,1.55v1.21h.16v-1.21Zm.16,6,.16,1.72.33-.34v-.35l-.16-.17.16-.17v-.35l-.33-.34Zm.16,2.07-.16,1.55.16.17h.17l.16-.17v-1.21Zm-.16,4v.17l.33.35h.16v-.52Zm1,12.93v.52h.17v-.52Zm.33-12.76v.18h.33v-.18Zm.33-23.27v.34h.32v-.34Zm.16,8.1v.86l-.16.18.16.17v1l-.16,1,.49,1.2h.16l.17-1.38-.17-.51.17-1.38-.17-1.21Zm0-3.1v.51l.33-.34v-.17Zm.33,22.76.16.17h.17l.16-.17v-.35h-.16Zm.16-4.49v.35h.33v-.35Zm0,2.93v.18h.17l.32-.35v-.17h-.16Zm.17-1.2v.51h.49v-.51Zm.32-17.07v.69h.17v-.69Zm0,.86v.35h.17V130Z"/><path class="cls-1" d="M131.4,113.78h2.13l.17.18.16-.18H134l.66.18,1.14-.18H143l-.16.87.49.17v-1h.49l.33.35.65-.35.17.18h.49l.49-.18V114l.16.69v7.24l-.49.51H144l-.49-.34-.49.34h-1q-.33,0-.33-.51l-.16-.18h-.17l-.16.69h-1V129l-.17.17.17.17v1.21l.82.17.16-.17.16.17h.66l.16-.17.17.17H143l.17-.17.16.17h.16l1.64-.17c.44.11.66.46.66,1V136c0,.23-.22.34-.66.34v1l.66.87L145,139l-.17-.18h-.65L144,139l-.65-.35-.66.17-.32-.34v-.17l.16-.69-.33-1.21h-.33l.17,1.72v.35c0,.23-.17.34-.49.34l-.17-.17h-.16a1.56,1.56,0,0,0-1.31,1.55l.16.87-.16.51.16,2.07v1.73l.17,5-.33.68.16.18v.86h-.32l-.33-1.55c-.27,0-.43.23-.49.69.26.8.48,1.2.65,1.2l.49-.17v.17l.33.69.82-.34.49.52.33-.87a4.21,4.21,0,0,1-.33-2.24l-.16-.17h-.17v1.38l-.16.86h-.16c-.24,0-.46-1.21-.66-3.62l.49-.17.17.17h.16l1.31-.17.16.69h.17v-.52c.33,0,.49.52.49,1.55l.49-.17v-1.21l.33-.34.33.34-.17.18v.17l.33,2.41-.33,1,.33,1.38-.16,1.72H144v-.86h-.32l.16.86c-.33,0-.49.23-.49.69-.22,0-.33.17-.33.52l-.82.17h-6.06c-.54,0-.82-.12-.82-.35l-1,.35h-2.46l-.49-.52v-5.86l-.16-.69.33-1.72-.17-.18v-.69h.17c.21,0,.32.35.32,1h.17V145h-.17l-.16.17h-.16c0-.57-.11-.86-.33-.86.11-1.26.27-1.89.49-1.89h.33v-.69h-.66v-1.56l.49-.69-.32-1.72.16-.17-.33-2.07v-.35h.17l-.17-2.07v-6.38l.33-1-.33-1v-4l.17-1.21h-.17l.17-.17-.33-3.62.16-1-.16-.18v-.17Zm.17,31.56h.16v.51h-.16Zm0,1h.16v.34h-.16Zm.32-29.14-.16,2.07h.16l-.16.52.16.52h.17l.16-.87h-.16l.16-.17v-.17l-.16-1.9Zm0,4.66v.69l.33-.35Zm0,1v1l.17.86h.33v-.52l-.33-.52.16-.69-.16-.17Zm.17,27.24v.35h.16v-.35Zm.33-18.1-.17.86.33.35h.16v-1.21Zm0,3.45v.34h.32v-.34Zm1.31-21.21c0,.35-.11.52-.33.52l-.49-.35-.17.18v.17l.17.17v.17L133,115h.16l.82.17v-.86Zm-1,26.73v.17H133v-.52Zm0,.86v.52l.17,1-.17.17v.17l.33,2.07-.16,1v1h.32v-5.69l-.32-.34Zm.17-7.07h1l-.16-1.21V132.4C133.4,132.4,133.13,133.21,132.88,134.82Zm.16-16.21V119h.16v-.35Zm0,30.69v.52h.16l.17-.52Zm0,3.79v2.07h.33v-2.07Zm.16-28.79v1.55h.33V124.3Zm.17,3.1v.52h.16v-.52Zm0,2.94v.34h.33v-.34Zm.16,5.17v.34h.17v-.34Zm0,1.55v.34h.33Zm.17,2.76-.17.52.33,4.13V146l.33.34v-2.76l-.17-1,.17-.69-.33-2.07Zm1.14,7.58v1l-.16.86h-.33l-.16-.17H134v.52l.17-.18h.49l.16,1H135a1.12,1.12,0,0,1,.49-1l-.33-1v-1Zm-.82,6.21v.52h.17v-.52Zm0,1v1.55h.33V156l-.16-.69.16-.52-.16-.17Zm.33-23.8V131h.33v-.18Zm0,2.59v.17l.16,1.21h.33v-.35l-.16-.17.16-.17V134l-.16-.52Zm.33,4v.35h.16v-.35Zm0,1.9v.86l.33-.34v-.17Zm.16-22.24.17,1.72V120h.32l-.16-2.58v-.52l-.16.17Zm0,34.14v.51c0,1.84.17,2.76.49,2.76l.17-2.41c-.14-.58-.31-.86-.49-.86Zm.33-29.66v.35h.16v-.35Zm.33,9.31-.17.18v.34h.49v-.17Zm0,3.11v.17l.16.86h.16l.17-.52-.17-.86Zm.16,2.93-.16.51.16.52h.16l.17-.52-.17-.51Zm0,1.72v.86h.16l.33-.34v-.35Zm0,10.17.49.35h.17l-.17-.52.17-.86h-.17C135.82,147.86,135.66,148.21,135.66,148.78Zm.33-7.24v1c.22,0,.33-.17.33-.52l-.17-.52Zm0,1.38v1h.16l.17-.87-.17-.17Zm0,1.38v2.76h.33v-.17l.16-1.55C136.34,144.65,136.18,144.3,136,144.3Zm.16-22.76v.52l.33.34v-.86Zm.17,2.42v2.75l.32.35V124.3Zm.16,7.58-.16,1.9.16.52.49-.52C136.86,132.17,136.7,131.54,136.48,131.54Zm0,2.76v.52l.33-.35-.17-.17Zm0,1v.34h.33Zm.16,1.89v.35H137v-.35Zm.17-22.41v.69l.16.86h.16l.17-1.38-.17-.17Zm.32,29V144l-.16,1.89.16.52h.33v-2.59Zm.17,7.07v1.21h.33v-.86Zm.16-18.62.17,1-.17.51.17.18H138l-.16-2.07Zm.17-1v.34h.16v-.34Zm0,3.27v2.07l.32,2.93h.17l.16-.51-.16-.87.16-.51-.33-3.11Zm.32,5.35-.16.52.49.34v-.52Zm.17,4.83-.17.69.33,3.27-.16,1,.16.17h.17V145Zm0-3.11v.52h.16v-.52Zm0,1.9V144h.16v-.52Zm.16,7.07-.16,2.07.16.17h.17l.32-1.9Zm.17-26V125h.32v-.17Zm.32,10v.18h.33v-.18Zm.17-19.13v.34h.16v-.34Zm0,1.72v.17l.32.35v-.52Zm0,24.31.16,1.72v.35h.33v-.86l.16-1.21-.16-.17h-.17l-.16.17Zm.16,3.79v2.07l.16,1.21h.17l.16-.69-.16-1.21v-1.72Zm.16,3.45v.69h.17v-.69Zm.17-26.21v.69h.16v-.69Zm.16,2.93-.16.87.16.17h.17v-1Zm0,6v1.21h.33v-1.21Zm.17,4.14v.17h.32v-.17Zm.32-18.45v.52h.33v-.17Zm.17,2.24-.17.17v.35l.33.34.16-.17v-.34Zm0,1.21v.34h.16v-.34Zm.49,14.48v.69h.33v-.34Zm.16,2.59.17.17h.16v-.52Zm.17-21.73v1.38h.32v-1Zm0,22.07v.35h.16v-.35Zm.32,11v.51h.17l.16-.51Zm1,3.1.16,1.55h.16l.33-.34v-.87l-.33-.34Zm.32,3.45v.69h.17l.16-.52-.16-.17Zm.33-20.35v.35h1V135h-.16Zm0,1.9v.52h.17l.32-.35-.16-.17Zm.17-20v1.21h.32v-.86Zm.16,33.62v2.24l.49.52.33-.52v-.52a3,3,0,0,1-.66-1.72Zm2.78-1.21h.33l.16,1.73v.17l-.16.17.16.17v2.59l.17.17-.17.18v2.24l-.81.17c-.55,0-.82-.12-.82-.35l-.66.35c-.54-.15-.82-.32-.82-.52.55,0,.82-.17.82-.51l.66.34.16-.17V156l-.16-2.59.32-.69L145,151l.16-.51h.33l.49.34.16-.86Zm-2.29-12.07.33.35h.33v-.69h-.33Zm1.31-22.58v.52h.16v-.52Zm.33,34.48.16.17v.18l-.33.34-.16-.17v-.17Zm.33,2.93v.35h-.17l.17.51H146l.33-.34v-.17l-.33-.35Zm.16-3.79h.16l.33.34V149h-.16l-.33-.35Z"/><path class="cls-1" d="M154.47,113.12l1.14.17,9.34-.17,1.47.17v-.17c.56,0,1,2.18,1.15,6.55L169,130.88l-.16,1.2q.66,2.94,3.11,24.14l-.49.35h-8.19c-.26,0-.43-.23-.49-.69l-.33-4.83.17-.52c-.08-1.15-.25-1.72-.5-1.72h-2.78l-.16.86c0,4.22-.28,6.52-.82,6.9h-.17l-1.31-.35-.49.18-1-.18h-1l-1.31.35H150l-.49-.35L151,143.64h-.17l3.28-30.35h.33Zm1.8,13.62L156.1,128l.33.51-.16.87.16.69-.49,2.24q.33,0,.33.51l-.17.87h.33v.51c-.54,0-.82.41-.82,1.21l-.65.17v1.38l.49.17v-1.37l.16.17h.17v-1h.82v-1l.16-.17-.16-.18v-.69l.32-1-.32-2.07v-.52c.43,0,.65-.57.65-1.72A.88.88,0,0,0,156.27,126.74Zm-1.15,22.41v.52h1v-.52Zm0,1.21v.52h1.48v.34l-.17.18v.17l.17.17h.16c0-.57.16-.86.49-.86l-.49-.52v-.17l-.16.17Zm.17-7.76v.52l.49-.17v-.18Zm0,2.24v.52h.81V145Zm0,1v.34h.81v-.34Zm1.14-10.52-.16.86v.17l.33.35h.16v-.17l-.16-1.21Zm.17,9.83v.86h.16l.33-.86v-.35h-.17Zm0,1.38v.51h.16v-.51Zm0,5.34v.86h.65v-.51Zm0,2.07v.52l.49-.17v-.18Zm0,.86v.35l.32.34v-.34Zm.49-35.51v2.41a4.41,4.41,0,0,1-.33,1.9l.16,1.2h.17a1.33,1.33,0,0,1,.49-1v-4.66ZM156.76,144l.16.52h.17V144Zm.82,1v.34h.33V145Zm3.11-20.35q-1.14,13.19-1.64,15.17l.33,1.21h2.78L161,124.67Z"/><path class="cls-1" d="M175,114.28h2.45l.5.51V117h.32v-2.24l.5-.51h7.36q.49,1.89,2.3,19.31h.33v-.18a116,116,0,0,1,1.31-13.1l-.17-.17c.36-3.71.63-5.67.82-5.86H191l1.64.17,2.29-.17h6.71l.5.51v2.59l-.17,1.21.17,2.07v18.62c0,.57-.17.86-.5.86v.52c.33,0,.5.28.5.86V157l-.5.52h-6.87l-.49-.52v-7.75c0-1.73.14-2.59.32-2.59l-.32-1.38V130.48h-.17l-.33.35v.34q0,4-2.62,26.21l-.16.17h-4.92q-.57,0-1-5.86l-2.45-19.83h-.17V157l-.49.52h-2.13l-.49-.52V155l.33-1.38v-.18a3.31,3.31,0,0,1-.49-2.06v-1.21l-.33-.35v1l-.16,2.76.16.17v.17l-.16.17.32,3.11-.49.34h-.33c-.54,0-.82-.34-.82-1h-.32v.17l.16.52-.49.34h-1q-1,0-1-1.38v-7.76l.17-1-.33-3.28.16-1-.16-1.21.16-1.38h-.16l.16-.51-.16-2.07.49-.87v-.51l-.33-.52v-1.72q.28-2.07.66-2.07h.16l.17.17h.16v-.52h-.49l-.16.17-.5-.17v-3.45l-.16-2.41.49-.86v-4l-.16-1.55.16-.69-.33-3.27v-.52Zm1.31,30.17v.34h-.17l.17,1.21v.86l-.49.52-.49-.17v.34h.49v.52a3.55,3.55,0,0,0,1,2.07v-3.45C176.76,145.2,176.6,144.45,176.27,144.45Zm-.33-22.93v.17l.16.69-.32.52c.17.46.33.69.49.69h.33v-.18l-.33-1.37v-.52Zm-.16,13.79V136h.32v-.34Zm.32,3.62-.32.35v.51h.32V140l-.16,1.2.16.52.5-.52v-.51a2.79,2.79,0,0,1-.33-1.73Zm0,3.11v.17l.17,1.72h.16l.17-1.21Zm.82-2.42v.17l.17.87.32-.35v-.69Zm.17-21.9v5.69l.32.35.17-.69-.17-1.21v-3.79Zm.16,33.63v.51h.49l-.16-.51Zm.33-23.45-.17.17v.17l.17,1,.33-.35v-.69Zm0,1.55V132a4.35,4.35,0,0,0,.33,1.9l-.17.69.17,4,.16.69h.16l.17-.52-.17-.17.17-2.59v-.34l.16-.18-.65-3.62v-2.07Zm.33,22.41-.17.18.17.86h.32v-.69Zm.16-12.41v.34l.16.87h.17l.16-1.21Zm1.47,7.41c0,.23-.22.35-.65.35l-.16.17v.17l1.14.18.16-.18v-.17Zm-.49-11.72v.34h.17v-.34Zm0,6.38v.34l.33.35v-.69Zm.49,1.89v.35h.17v-.35Zm4.92-8.44v.34h.16V135Zm6.71-7.07v1h.33v-.17l-.16-.86ZM195.59,147v.34h.33V147Z"/><path class="cls-1" d="M229.75,112.38l.32.52v1.55h.33V112.9l.33-.35c.22,0,.32.17.32.52l.17.17h.16c0-.34.11-.52.33-.52h.16l.33.35.49-.17q2.55,0,5.9,4.65,1.47,2.91,1.47,10.52v2.07l-.16,2.07h-1l-.66-.52c0,.34-.11.52-.33.52l-.32-.35v-1.55h.16a.8.8,0,0,0,.66.86l.16-1-.16-2.07h-.33c-.08,1.38-.24,2.07-.49,2.07l-.33-.35h-.16v1.9l.16.17V132l-.16.18h-.66L236.3,131c-.19,0-.36.4-.49,1.21h-.17l-.16-.18h-.17l-.49.35-.65-.35-.66.18-.33-.35-.49.52-.82-.52-.16.17h-.16l-.33-.51v-2.07q0-9.48-.66-9.48l-1.14-.18c-.88,0-1.31,1.15-1.31,3.45l-.17,2.59.17.17v.17c-.16,2.3-.32,3.45-.49,3.45l.16.52.16,10.52v2.93l.17,1.89-.17.18v.17c0,3,.49,4.48,1.48,4.48v.52h.33c0-.46.32-.69,1-.69l.49-6,.33-.34-.33-3.79.49-.52v-.17l.82.17h.16l.17-.17.49.34,1-.34h.49c.55,0,.82.14.82.34l.17-.17h.49l.16.17.66-.34a1.89,1.89,0,0,1,.32,1.2h.49l-.16-.86.49-.34.33.51V141h.33l.33-1.72.65.17-.16,1.21v.69l.32.34-.32,1,.16,1-.16.69.16,1.38a10,10,0,0,1-1,4.83l.16.17V151c-.48,1.54-1,2.46-1.64,2.76h-.16v-.52h-.49v1.38a8.51,8.51,0,0,1-6.39,2.93l-.49-.52v-2.41l-.33-.34-.16.17v2.93h-.17c-.25,0-.41-.29-.49-.86h-.16l-.33,1c-.33,0-.49-.17-.49-.52l-.16.18h-.17q-5,0-7.53-6.21a47.32,47.32,0,0,1-.82-10v-6.21l.16-1.55-.16-.86.16-1.38-.16-.17v-.17l.16-.69h-.16l.16-.18V127l-.16-.18.16-.17v-.17l-.16-.86c.11-3.8.43-5.69,1-5.69l-.16-.18v-.17c.25-1,.46-1.55.65-1.55h.17v.52h.32v-1.21a1.56,1.56,0,0,1,1-1.38c0-.33.32-.67,1-1,0-.38.44-.78,1.31-1.21h.49l.16.69h.17c0-.92.38-1.38,1.15-1.38,0-.23.38-.35,1.14-.35v-.17l.17.17h.16Zm-10.16,28.45v.34h.33v-.34Zm.33-17.24v.51h.33v-.17Zm0,21.2v.52h.16v-.52Zm.16-19.13v2.07c.22,0,.33-.18.33-.52l-.16-1.55Zm.17,2.41v.69h.16v-.69Zm0,2.24v2.41l.32.35V130Zm.49-10v.17h.32V120Zm0,20v.35l.32.34v-.34Zm.16-16.21v.35h.16v-.35Zm0,20.18v.17l.33.34.16-.17v-.17l-.16-.17Zm0,3.1v.35h.16v-.35Zm.16-21.55v.52l.33.34.17-.17v-.35l-.33-.34Zm.17,1.21v1.2h.16l.17-1-.17-.17Zm0,2.41V131l.33.35v-1.56Zm.16,2.24v2.59h.33v-.35h-.16l.16-1.21V132Zm.33-14.14v.17l.33.35v-.86Zm0,21.21v1h.33v-.17l-.17-.86Zm.16-20.35v.52h.17v-.52Zm0,1.9V121l.33-.34Zm0,1.21v.69l.33-.35Zm.17,2.76v.34h-.17l.17.86v2.76h.32v-3.1l-.16-.86Zm0,20.51v.69l.32-.34v-.35Zm.32-14.13v2.24l.33.34v-.34h.17C222.79,131.4,222.62,130.66,222.37,130.66Zm.17-14.66v.35l.49.51v-.51l-.33-.35Zm.16,22.07v.52l.33.34v-.52Zm0,1.55v.69H223v-1Zm.17-19.14.16.18h.16v-.52ZM223,147v.51h.16V147Zm.33-19.14v.34h.33v-.34Zm0,1.38v1h.16c.22,0,.33-.17.33-.52l-.16-.51Zm0,1.55V131l.16,1-.16.52c.08,1.5.24,2.24.49,2.24v-.34l-.16-3.62Zm.49-15.17v.51H224v-.51Zm.16,28.62v1.55h.33v-1.21Zm.33-16-.16.17c.1.92.27,1.38.49,1.38v-1.2Zm.16,1.9-.16.86.33.35.16-.18v-.69Zm0,2.07v2.24l.33.34.16-2.41-.16-.17Zm.17,3.1v.86l.16,1.21H225v-1.72Zm0,2.76v.17H225v-.52Zm.16-23.1v.69l.33.34v-1Zm.49,39.82v.52h.17v-.52Zm.33-22.93v1l.16.86H226v-.69l-.17-1.21Zm.66-8.45v.35h.32v-.35Zm.16,4.14v2.93l.33.35.16-.52C227,128.47,226.8,127.55,226.47,127.55Zm.16,4.14v.17l.17,3.8.16.17h.16V135l-.16-.87.33-1.55-.33-.86Zm.33,4.48v.52h.16v-.52Zm.49,19.31v.87l.33-.35v-.17Zm2-4.13v.51h.33v-.51Zm.82-36.21v1.55h.32v-1.55Zm.32,38.62v1.38l.33-.35v-.69Zm1.15-23.45v.35h.16v-.35Zm0,22.76v1l.49-.17v-.69Zm1-1.9v1.73l.33.34v-2.41Zm0,2.59.17,1.21H233v-1.38l-.16.17Zm.82-11.38v1.38h.33v-1.38Zm.17-19.14v.35h.16v-.35Zm0,27.07v.17H234v-.17Zm2-7.59v.69H236v-.34Zm0,2.42v.69h.49v-.35l-.32-.34Zm.17,7.59v.34l.32.34.17-.17v-.17l-.33-.34Zm2-6.38v.34h.16v-.34Zm1-3.63v.35h.17v-.35Zm.5-15.51-.17,1.89.17,1.56.16-.18h.16l-.16-.17v-.17l.16-.52-.16-2.41Z"/><path class="cls-1" d="M243.23,113.78h2.13l.16.18.17-.18h.16l.66.18,1.14-.18h7.21l-.16.87.49.17v-1h.49l.33.35.65-.35.17.18h.49l.49-.18V114l.16.69v7.24l-.49.51h-1.64l-.49-.34-.49.34h-1q-.33,0-.33-.51l-.16-.18h-.17l-.16.69h-1V129l-.17.17.17.17v1.21l.82.17.16-.17.16.17h.66l.16-.17.16.17h.66l.16-.17.17.17h.16l1.64-.17c.44.11.65.46.65,1V136c0,.23-.21.34-.65.34v1l.65.87-.81.69-.17-.18H256l-.17.18-.65-.35-.66.17-.33-.34v-.17l.17-.69-.33-1.21h-.33l.17,1.72v.35c0,.23-.17.34-.49.34l-.17-.17h-.16a1.55,1.55,0,0,0-1.31,1.55l.16.87-.16.51.16,2.07v1.73l.17,5-.33.68.16.18v.86h-.33l-.32-1.55c-.27,0-.43.23-.49.69.26.8.48,1.2.65,1.2l.49-.17v.17l.33.69.82-.34.49.52.33-.87a4.21,4.21,0,0,1-.33-2.24l-.16-.17h-.17v1.38l-.16.86h-.16c-.24,0-.46-1.21-.66-3.62l.49-.17.17.17h.16l1.31-.17.16.69h.17v-.52c.32,0,.49.52.49,1.55l.49-.17v-1.21l.33-.34.32.34-.16.18v.17l.33,2.41-.33,1,.33,1.38-.17,1.72h-.49v-.86h-.32l.16.86c-.33,0-.49.23-.49.69-.22,0-.33.17-.33.52l-.82.17H248c-.55,0-.82-.12-.82-.35l-1,.35h-2.46l-.49-.52v-5.86l-.16-.69.32-1.72-.16-.18v-.69h.16c.22,0,.33.35.33,1h.17V145h-.17l-.16.17h-.17c0-.57-.11-.86-.32-.86.11-1.26.27-1.89.49-1.89h.33v-.69h-.66v-1.56l.49-.69-.33-1.72.17-.17-.33-2.07v-.35h.16l-.16-2.07v-6.38l.33-1-.33-1v-4l.16-1.21h-.16l.16-.17-.32-3.62.16-1-.16-.18v-.17Zm.16,31.56h.17v.51h-.17Zm0,1h.17v.34h-.17Zm.33-29.14-.16,2.07h.16l-.16.52.16.52h.17l.16-.87h-.16l.16-.17v-.17l-.16-1.9Zm0,4.66v.69l.33-.35Zm0,1v1l.17.86h.32v-.52l-.32-.52.16-.69-.16-.17Zm.17,27.24v.35h.16v-.35Zm.32-18.1-.16.86.33.35h.16v-1.21Zm0,3.45v.34h.33v-.34Zm1.31-21.21c0,.35-.11.52-.32.52l-.5-.35-.16.18v.17l.16.17v.17l.17-.17H245l.82.17v-.86Zm-1,26.73v.17h.33v-.52Zm0,.86v.52l.16,1-.16.17v.17l.33,2.07-.17,1v1H245v-5.69l-.33-.34Zm.16-7.07h1l-.17-1.21V132.4C245.23,132.4,245,133.21,244.7,134.82Zm.17-16.21V119H245v-.35Zm0,30.69v.52H245l.17-.52Zm0,3.79v2.07h.33v-2.07ZM245,124.3v1.55h.33V124.3Zm.17,3.1v.52h.16v-.52Zm0,2.94v.34h.32v-.34Zm.16,5.17v.34h.16v-.34Zm0,1.55v.34h.33Zm.16,2.76-.16.52.33,4.13V146l.33.34v-2.76l-.17-1,.17-.69-.33-2.07Zm1.15,7.58v1l-.16.86h-.33l-.16-.17h-.17v.52l.17-.18h.49l.16,1h.16a1.12,1.12,0,0,1,.5-1l-.33-1v-1Zm-.82,6.21v.52H246v-.52Zm0,1v1.55h.33V156l-.16-.69.16-.52-.16-.17Zm.33-23.8V131h.33v-.18Zm0,2.59v.17l.16,1.21h.33v-.35l-.16-.17.16-.17V134l-.16-.52Zm.33,4v.35h.16v-.35Zm0,1.9v.86l.32-.34v-.17Zm.16-22.24.16,1.72V120h.33l-.16-2.58v-.52l-.17.17Zm0,34.14v.51c0,1.84.16,2.76.49,2.76l.17-2.41c-.15-.58-.31-.86-.5-.86Zm.33-29.66v.35h.16v-.35Zm.33,9.31-.17.18v.34h.49v-.17Zm0,3.11v.17l.16.86h.16l.17-.52-.17-.86Zm.16,2.93-.16.51.16.52h.16l.17-.52-.17-.51Zm0,1.72v.86h.16l.33-.34v-.35Zm0,10.17.49.35h.16l-.16-.52.16-.86H248C247.65,147.86,247.49,148.21,247.49,148.78Zm.33-7.24v1c.21,0,.32-.17.32-.52l-.16-.52Zm0,1.38v1H248l.16-.87-.16-.17Zm0,1.38v2.76h.32v-.17l.17-1.55C248.17,144.65,248,144.3,247.82,144.3Zm.16-22.76v.52l.33.34v-.86Zm.16,2.42v2.75l.33.35V124.3Zm.17,7.58-.17,1.9.17.52.49-.52C248.69,132.17,248.53,131.54,248.31,131.54Zm0,2.76v.52l.33-.35-.17-.17Zm0,1v.34h.33Zm.16,1.89v.35h.33v-.35Zm.17-22.41v.69l.16.86H249l.17-1.38-.17-.17Zm.32,29V144l-.16,1.89.16.52h.33v-2.59Zm.17,7.07v1.21h.33v-.86Zm.16-18.62.17,1-.17.51.17.18h.32l-.16-2.07Zm.17-1v.34h.16v-.34Zm0,3.27v2.07l.32,2.93H250l.16-.51-.16-.87.16-.51-.33-3.11Zm.32,5.35-.16.52.49.34v-.52Zm.17,4.83-.17.69.33,3.27-.16,1,.16.17h.16V145Zm0-3.11v.52h.16v-.52Zm0,1.9V144h.16v-.52Zm.16,7.07-.16,2.07.16.17h.16l.33-1.9Zm.16-26V125h.33v-.17Zm.33,10v.18h.33v-.18Zm.17-19.13v.34h.16v-.34Zm0,1.72v.17l.32.35v-.52Zm0,24.31.16,1.72v.35h.33v-.86l.16-1.21-.16-.17h-.17l-.16.17Zm.16,3.79v2.07l.16,1.21h.17l.16-.69-.16-1.21v-1.72Zm.16,3.45v.69h.17v-.69Zm.17-26.21v.69h.16v-.69Zm.16,2.93-.16.87.16.17h.16v-1Zm0,6v1.21h.33v-1.21Zm.16,4.14v.17h.33v-.17Zm.33-18.45v.52h.33v-.17Zm.17,2.24-.17.17v.35l.33.34.16-.17v-.34Zm0,1.21v.34h.16v-.34Zm.49,14.48v.69h.33v-.34Zm.16,2.59.17.17h.16v-.52Zm.17-21.73v1.38h.32v-1Zm0,22.07v.35h.16v-.35Zm.32,11v.51h.17l.16-.51Zm1,3.1.17,1.55h.16l.33-.34v-.87l-.33-.34Zm.33,3.45v.69h.17l.16-.52-.16-.17Zm.33-20.35v.35h1V135h-.16Zm0,1.9v.52H255l.33-.35-.16-.17Zm.16-20v1.21h.33v-.86Zm.17,33.62v2.24l.49.52.33-.52v-.52a3,3,0,0,1-.66-1.72Zm2.78-1.21h.33l.16,1.73v.17l-.16.17.16.17v2.59l.17.17-.17.18v2.24l-.82.17c-.54,0-.81-.12-.81-.35l-.66.35c-.55-.15-.82-.32-.82-.52.55,0,.82-.17.82-.51l.66.34.16-.17V156l-.16-2.59.32-.69-.32-1.73.16-.51h.33l.49.34L258,150Zm-2.29-12.07.33.35h.32v-.69H256ZM257,114.82v.52h.16v-.52Zm.33,34.48.16.17v.18l-.33.34-.16-.17v-.17Zm.32,2.93v.35h-.16l.16.51h.17l.33-.34v-.17l-.33-.35Zm.17-3.79H258l.33.34V149h-.16l-.33-.35Z"/><path class="cls-1" d="M262.48,115.58H264l.16.17.17-.17h1.63q.33,0,.33.69.33,0,.33-.69h.16l.66.17.16-.17h.17l.49.17,1-.17v.17l.16.69v1c.55,0,.93,1,1.15,3.1l3.6,14.49.5-.18-.33-.69.16-.51-.16-2.07v-4.31l.16-.18-.16-.17v-2.59l.16-3.27-.16-.69c.23,0,.4-.52.49-1.55l-.33-.35v-1.38l.49-1.55h.49l.17.17.16-.17h.33l.66.17.16-.17h.16l.17.17h.16l1.47-.17,1,.17.65-.17.49.17.49-.17.33.69-.16.86v.35l.16.17-.16.17v4.31q-.33,0-.33-.51H281V123c.44,0,.66.11.66.34v1.21l-.17.17.17.17v1.38l-.33.35-.16-.18v.69c.44,0,.65.18.65.52l-.16,1,.16.17-.49,1.38v.34c.33,0,.49.17.49.52-.08.8-.18,1.21-.33,1.21l.33.51-.16.18v5.51l-.17,1.55.17,1.73v8.45l.16.69-.16.69v.51l.16.18-.16.17v.17l.16,5.35v.34l-.33.35-.16-.18-1,.35-.17-.17-.16.17h-.16l-.49-.17-1.81.17-1.31-.17-1.31.17h-.16c-.66,0-1-.35-1-1l.16-.69-.49-.51v-.18H274v-1.2h-.33c0,.46-.11.69-.32.69l-.66-2.93.16-1.21c-.57,0-1-1.44-1.31-4.31q-.23,0-1.8-6.9l-.16-.17v-.17h-.33l.16,2.58-.16,1.73h.16l-.16.17v.69l.16.17-.16.17.16,2.07v8.11l-.16,1.55.16,1-.49.35-1-.17-2.13.17-.82-.17-1,.17h-1.48l-.49-.52.17-.52L262,156.1v-6.21l.17-1L262,148v-.87l.17-.17-.17-.17v-.52l.17-.17-.33-1.9H262l-.16-.17v-.52c0-.23.22-.34.65-.34V143l-.65-.18.33-2.76-.17-.17v-.34h.17L262,137V126.79l.17-.17-.17-.18v-1.2l.17-.18-.17-.17v-1.2l.17-.52-.17-.86v-2.07l.33-1-.33-.86.33-.34v-.18c0-.57-.11-.86-.33-.86C262.1,116,262.27,115.58,262.48,115.58Zm-.16,7.24V123l.33.34.16-.17v-.35Zm.16,3.62-.16.18v.17l.16.17h.17l.16-.17v-.17l-.16-.18Zm0-2.58v.34h.17v-.34Zm0,28.79v.52h.33v-.52Zm.17-21v1.2H263l-.17-.69.17-.51Zm.49,7.75v.52l.33-.34-.17-.18Zm0,1v.34h.33Zm.16-22.07V119h.17v-.69Zm0,5v.35h.17v-.35Zm.33,3.79v.35h.17v-.35Zm.17,6.73-.17.17v.17l.33.35.16-.17v-.18Zm.32-17.24v.86l.17,1.2h.16l.16-.68C264.55,117.08,264.39,116.62,264.12,116.62Zm0,26v.52l.33.34.16-.17v-.69Zm.17-21.9v.69l.32.35v-1Zm.16,6.9-.16.86.16.18h.33v-1Zm.16,28.79v.35h.17v-.35Zm.17-24v.34h.16v-.34Zm.16,6.72v1l.33-.35v-.69Zm.33-20.86-.16.86.16.52h.33v-1.38Zm-.16,25.17v.69h.32v-.69Zm0,1.9.16.17h.16v-.52Zm.16.34-.16.69h.49v-.17l-.17-.52Zm0-25.34v1.72l.33.35v-2.42Zm.16,4.14-.16.69h.49v-.18l-.16-.51Zm-.16,2.58v.18l.33.34.16-.17v-.17l-.16-.18Zm0,20.69v.35h.16v-.35Zm1.64-10.51V139c0,.34-.33.52-1,.52v.34a1.6,1.6,0,0,1,1.32.52h.16l-.16-.17.16-.52-.16-1.9v-.51Zm-1,1.2v.35h.17v-.35Zm.33-17.93v1l.33.34v-1.38Zm.17,4.14-.17.17v.17l.33.35.16-.17v-.18Zm-.17,17.93v.52h.33v-.52Zm.17-24.48v.69h.16v-.69Zm.16,38.1v.35h.33v-.35Zm.49-14.48v.52h.33v-.18Zm.17-25.52v1h.32v-.69Zm0,1.73v.51l.32.35.17-.18v-.34l-.33-.34Zm0,27.75v.69h.49v-.69Zm.32,10v.35h.17v-.35Zm.66-39.13V117l.33.35V117Zm.16,5.69v.34h.17v-.34Zm0,2.58v.35l.33.34.16-.17v-.52Zm.17,2.76v1h.32v-1.38Zm0,2.76.16.86h.16v-.86Zm.16,3.62v.35H269V134Zm.65-9,.33.35h.17l.16-.52-.16-.17h-.17Zm.33,9.66v.17l.33.35.16-.17v-.35Zm1.15-5.34v.34H271v-.34ZM271,137v.35h.17V137Zm.33,8.79v.35h.33v-.35Zm.49-14.48v.35l.33.34h.16v-.69Zm0,5.17.33.35v-.69Zm.49,13.28v.52l.33.34.16-.17v-.35l-.32-.34Zm.66-13.1V137h.16v-.34Zm0,1.2v2.42h.33v-.87l-.17-1.2.17-.17-.17-.18Zm0,3.11v.34l.16.86h.33v-.34l-.16-.86Zm.49,7.93v.69h.16v-.69Zm0,1.89v1h.33v-.17l-.17-.87Zm.65-12.06v.68h.5v-.51Zm0,3.1v.34l.33.35.33-.35-.49-.34Zm.33,7.07v.51h.33v-.17Zm0,6,.17.52h.49v-.34l-.33-.35-.16.17Zm.33.86v.35h.49v-.17Zm.33-17.24V139h.32v-.52Zm.32,4.14v.69l.33-.34v-.35Zm.17,1-.17.87h.33v-.87Zm-.17,2.25v1.72h.33v-1.72Zm0,2.41v.86l.17,1.21h.16v-2.07Zm.33-22.24-.16.69.16.17.82-.34.17.17V127l-.17.86h.33l.16-.51-.16-.18.16-.17c-.22,0-.32-.29-.32-.86h-.17v.34h-.16l-.49-.34Zm0,1.21v.17h.33v-.17Zm0,.86v.52h.33v-.52Zm0,.86v.86l.17,1-.17.51h.33l.16-1.37-.16-1Zm.49,12.76v.52h.17v-.52Zm.17-25.52.16.17h.17l.16-.17v-.34h-.16Zm.16,3.79v.35h.33v-.35Zm0,1.73v.34h.33v-.34Zm.17,7.07v.86h.32v-.86Zm.32,7.76v.51h.33v-.51Zm.33,6.72v2.07l.33.34.16-.17H278a5,5,0,0,1-.49-2.24Zm.16,5-.16,1.21a7.57,7.57,0,0,1,.33,3.1h.16l.16-.86v-1.9l-.16-1.2.16-.18-.16-.17Zm0-1.9V147h.33v-.52Zm.17,6.56v1.55H278V153Zm.16-20v.51h.33V133Zm0,23.27V158h.33l.16-.69-.16-1Zm.66-7.76v.86h.32v-.51Zm.32-21.89V127h.33v-.34Zm0,1.72.17.17h.16V128Zm.66,16.9v.34h.33v-.34Zm.16,5v.34l.17.17-.17.52.17.52h.32l.17-.86c-.16-.46-.32-.69-.49-.69Zm.17-26.21v1.21h.32V124Zm0,2.07v.17l.16.86h.33v-1Zm0,27.76v.34H280v-.34Zm.16-25.69v.34h.33v-.34Zm.66,20.34-.17.52c0,1.26.17,1.9.49,1.9v-2.07Zm.16,3.11v.51H281v-.51Zm.16-30.87v.35h.17v-.35Zm0,4.14v.86l.33.35v-.86Zm.33-2.76h.16v.35h-.16Z"/><path class="cls-1" d="M285,118.54h.16l.33.34v.35H285Zm0,.86h.33v.34h.16l-.16.87H285Zm0,1.55h.49c0,.58.28.86.82.86l.17.87V123l-1.15.17-.33-.51Zm1-6.21.33.35v1.55h.17l.49-.52.65.35c0-1.15.11-1.73.33-1.73s.37.52.49,1.56h.16q0-1.56.33-1.56h.33l.16.87h.5v-.87h.49v.69c.25,1.38.52,2.07.82,2.07-.29.74-.56,1.14-.82,1.21l-.33-.34v-.87h-.33v1.38a1.31,1.31,0,0,1-.49,1q-.66-.18-.66-.69l.17-.52-.17-.17h-.16l-.16,1.72-.49-.52.16-.17-.16-.51h-.33v.17l.16.51-.16,1,.33.34.65-.17v.17l-.16,1,.16.69h-.33l-.32-.86.16-.69h-.49V123H287v-2.41h-.49v.51h-.33l-.33-1.2.16-.52h.17c.22,0,.33.29.33.86H287l.32-1.2-.65-.52h-.49c0,.34-.11.52-.33.52h-.16v-.18l.49-.69c-.24,0-.45-.46-.66-1.38l.17-.69h-.17C285.61,115.2,285.78,114.74,286,114.74Zm1,.18h.16v.69H287Zm2.45,7.07.33.51v.18l-.33.34h-.32l-.17-.69Zm5.08-7.42.16.17-.16.52.33,1.9h.49l.16-.86-.32-1.56.16-.17H296l.65.17,1.15-.17h6.38l.17.86v6.9l-.17.86a17.8,17.8,0,0,1-3.93-.34l-.65.17-.16-.17c-.33.39-.5,1.54-.5,3.45h.17a.44.44,0,0,1-.49.51v.52h.32v.35l.17,1-.66,1.38h-.33c-.1-.92-.27-1.38-.49-1.38h-.16v.34h-.16l.16.18v1.55l-.33.34q0-.51-.33-.51c-.24,0-.41.28-.49.86h-.16l-.33-1.21v-.86h-.33c-.18,0-.35.4-.49,1.21-.33,0-.49.17-.49.51h-.16l-1-1.2-.33,1.2h-.17l-.16-.51.16-.18v-.51l-.32-.52V128h-.5v1.21h-.81v.86l.81.34v.18c-.32,0-.6.23-.81.69v2.58c.06.69.22,1,.49,1,0-.58.14-.87.32-.87l-.16-.86v-.69h.16l.33.35v.86h.33l.16-1.38H293c.18,0,.4.34.65,1h.17l.16-1.55h.49l-.16.18v.17l.32.34h.17l-.17-1.2h.66l-.16.17v.17c.2,0,.36.52.49,1.55l-.17.17v.18l.17,2.76v.86h.16l.33-.35v-.17l-.16-1.72.16-1h.33l.16,1.21v.52H297v-.87l.49-.51.33.86H298l.33-1.21h.33c.18.81.35,1.21.49,1.21l-.33,1.38.33,2.76-.17.17.17,2.07v5.17l-.17,1.55.17,1.73v7.41l-.49.52h-8l-.49-.35.16-.17-.16-2.07V139.92l.16-1.9-.16-.86.16-.17v-.18l-.16-.51a6.13,6.13,0,0,0,.65-3.11,7.25,7.25,0,0,1-.65-2.41l.16-.52.17-6.89h.32l.17.51-.17.18v.17l.5,1.2-.17.52h.33v-.52l.16-.86h.33l.16,1h.33l.17-.86v-.18c0-.23-.33-.34-1-.34v-.35h-.16l.33-.51-.66-1.21h.33V122l.16.17h.33l.66-.17,1,.51,1.14-.86.66.17v-.51L295,121l-.49.35-.65-.35-.17.17h-.16L293,121l-.33.35h-.16l-.17-.69.17-.18h-.33v-1c-.19-1-.41-1.55-.66-1.55l.33-.69c-.65,0-1-.81-1-2.42h.33l.32.35V116h.33l.16-1h.33l.33,1h.49v-.69h.17c.21,0,.32.58.32,1.73l.33-.35-.16-1.21c.22,0,.32-.23.32-.69l.17-.17ZM290.58,121l.33.35v.17l-.17.17.17.17v.52l-.17.86h-.16l-.49-.51.33-1-.17-.52.17-.17Zm.66,6.9v.52h.49v-.18l-.33-.34Zm.32,7.41v.52h.17v-.52Zm.17,4v1.38h.32v-1.38Zm.16,6.55v.34h.33v-.34Zm1.31-22.59.17.52h.16v-.52Zm.17.87-.17.51.17.52h.16q0-.69.33-.69l.49.35v-.18C294.35,124.37,294,124.2,293.37,124.06Zm.32,13.79v.69H294v-.35Zm1-2.42v1.73H295v-.86l-.16-.87Zm.17-12.24v.52h.33v.17l-.33.52a2.7,2.7,0,0,1,.33,1.55h.16l.16-1.2-.16-1.73ZM295,131h.49v.17H295Zm.82,8.28v.51h.33v-.51Zm.17-15.17v.51l.49.52.32-.34v-.52Zm.16,8.44h.16l.33.35-.16.86h-.33l.16-.17-.16-.18Zm.33-5.86v.69h.16v-.69Zm0,.86v.87l.32-.35v-.17Zm.65-2.93h.49v-.34h-.16Zm0,8.1h.17V133h-.17Zm0,13.11v1l.49.52.17-.52C297.65,146.12,297.43,145.78,297.13,145.78Zm.66-10.52-.17.52.17.17H298l.16-.17-.16-.52Zm.16,2.59-.16.17v.17l.32.35h.17v-.35Zm.49-6.73h.17l.49.52-.49,2.07h-.33q0-.69-.33-.69C298.06,131.76,298.23,131.12,298.44,131.12Zm-.33-9.82v.51h.17v-.51Zm1.32.34V122h.16v-.35Z"/><path class="cls-1" d="M308.81,116.37l.16.17h.17l.49-.17.16.69h.49c.22,0,.33-.17.33-.52h.33v.87h.16l.49-.35h.17l.33,2.76h.16l.16-1h.33l.33.69v.18l-.17,1.89.5.69.16-1.2-.16-1.56h1l-.17-.17v-.52h.33v-.51l-.49-.52c0,.34-.11.52-.33.52l-.65-.52h-.17l-.16.17h-.16l-.33-1.2-.82.17-.16-.17v-.18h.32v-.17l.17.17h.82l1.14-.17.33,1.21h.16l.33-1h1.31c.06.46.23.69.49.69l.33-.34.66.69h.16v-.35h.33v.52l.33,1.38v1.38h.49c0-.69.11-1,.33-1h1.63l.49-.34c.11,1,.28,1.55.5,1.55l.49-.17a3.39,3.39,0,0,1,.49,1.72q.33,0,.33-.69l.16-.17h.16c.22,0,.33.29.33.86H324l.17-1L324,121v-.18l.17-.17v-.17l-.33-2.07H324q1.08,0,2.62,5.52v.69l-.65.17v1h.33V125h.32l.17.86v1.73l.16.17-.16.17v.17q-.27,6.9-1.15,6.9h-.16v-1h-.17c0,1.61-.38,2.41-1.14,2.41l-1.64.69v.17q4.26,2,4.26,5.69l-.33,1.73.16.51-1,.18.16.17c.66,0,1,1,1,3.1v5l.16.69-.16.69v2.41l.16,1c-.14.57-.3.86-.49.86l-.33-.34q0,.51-.33.51l-.16-.17-.82.35-.65-.18-.66.18-.16-.18v-1.38h-.17l-.16.18h-.16l.16.86v.17l-.16.17v.18l-.49-.18-1.15.18v-.18l-.17.18h-1.47c-.65,0-1-.41-1-1.21l.16-.86-.16-1.55v-.69L319,155h.49l.49.35.16-.18v-.51c0-.23-.38-.35-1.14-.35a9.84,9.84,0,0,1-.33-3.1V144l.16-.18c-.22-2.41-.76-3.62-1.64-3.62V140l-.16.17h-1v14c0,.23-.22.34-.66.34v.35a1.93,1.93,0,0,1,.66,1.55l-.17.86.17,1v.86l-.49.52h-.66l-.82-.18-1,.18h-.82l-.66-.52h-.32v.34h-.33v-.34c0-.23.16-.35.49-.35l.16-.17v-.17l-.16-.17-.16.17h-1v.86l-.32.35-.17-.18-.82.18h-1.31c-.22,0-.38-.58-.49-1.73l.17-.52-.17-.69.33-2.06-.33-2.59c.06-1.26.17-1.9.33-1.9l-.33-3.45h.17l-.17-.17v-.17l.17-.17-.17-.17V144l.17-.18-.17-.17V141L307,139.3c.18-2.91.51-4.8,1-5.69l-.16-.17v-.17h.49q0,.51.33.51l.16-.86.82.17.16-.17v-.34l-.32-.35-.5.17v-.69c0-.22.17-.34.5-.34v-.52c-.47,0-.75-.57-.82-1.72l-.17-.17h-.16l-.17.17.17.17v.17a1.88,1.88,0,0,0-.33,1.21h-.65l-.17-5.86.17-.52-.17-1v-5.52l.17-.86.65.52C308.26,116.72,308.53,116.37,308.81,116.37Zm-1.47,15.17h.32l.33.35v.17h-.65Zm.16,11.73v.34l.33.86.49-.34-.33-.86Zm.33,2.76-.17.68.17.18H308V146Zm0-28.28v.69H308v-.69Zm0,27.24v.52h.49v-.35Zm.16,4,.16.86h-.32v.52h.49V149Zm0-25v.51h.16V124Zm.16,30.51v.35h.17v-.35Zm.17,1,.33.34h.49v-.34Zm.33-15.35v.69h.16l.66-.17.65.35v-.35l-.16-.86h-.66Zm0,3.45v.17h.65v-.17l-.33-.34Zm.32-26.55h.33v-.34Zm0,2.07v2.24h.33v-1.9Zm0,4.65V124l.17.69-.17.68v.18l.33.34.17-.17h.16l-.33-1,.17-.69-.17-.18Zm.33,4.49v.86h.17v-.86Zm0,5.69.17.17h.32v-.52h-.16Zm0,24.48v.17l.33.35h.16v-.52Zm.49-39,.33.52v3.1l.16,1.9-.16.86.16.17h.17v-.34h.16l-.16-.17v-.35l.16-1.55-.16-1.72v-.52l.16-1-.33-1.21h-.16Zm.17,22.25v.51l.32-.34v-.17Zm0,1v1h.16v-1Zm.32-11.21.17.17h.16v-.51Zm.17,2.76v.17h.33v-.17Zm.33,2.93v.52l.32-.35v-.17ZM311.1,120l-.16.17v.69c0,.92.27,1.38.82,1.38v.52l-.66.17v.52h.33v.17l-.33.52.49.52.33-.35h.17v1c0,.24.32.35,1,.35l.49.52.49-.35h.16c.11,1.15.28,1.73.5,1.73h.16v-1l.16-.17-.49-2.07.17-1v-.87h-.33v.18l-.17,1.72h.17l-.33.52.16.17v.52h-.32c-.27,0-.43-.23-.49-.69h-.33v.34h-.17l-.16-.86h.33v.35h.49q0-.69.33-.69a2.85,2.85,0,0,0-1-1.56l-.81-2.24a1.31,1.31,0,0,1-.33,1l-.49-.17.16-.18v-.51Zm-.16,22.24v.52h.16v-.52Zm.16,3.11v1h.17l.32-.34v-.35l-.32-.34Zm.17-19.83v.34h.16l.16-.17h.17l-.17-.52Zm.32,28.62-.32.52.16.17h.49v-.35Zm-.32,1.55.16.52h.16l.33-.35v-.34h-.33l-.16.17Zm0,1.38v.86h.32l.33-.34v-.87h-.33Zm1.14-26v.51c0,.58-.11.86-.32.86l-.5-.17-.16.17v1.21l.33.35q0-.69.33-.69c.21,0,.32.23.32.69l.17.17h.32l.33-.35-.33-.69.17-.51c-.11-1-.28-1.55-.49-1.55Zm-.82-7.59h.5v.69h-.17l-.33-.35Zm0,18.1.33.35.17-.17v-.52h-.17Zm.17-4.14v.52h.16v-.52Zm.49,17.25.33.34h.16l.33-.34-.33-.35h-.16Zm.65-14.83.17.52-.49,1,.32,1.21h.33l.17-.86.16.17h.65v-.69l-.16-.17v-.18c-.33,0-.49.18-.49.52l-.33-.34v-1.21Zm-.16-4.83v.35h.16V135Zm.16-18.27.17.51h.16v-.51Zm.17,27.41v.34h.16v-.34Zm.33-10.52v.17l.32.35v-.52Zm.16-1v.51h.16v-.51Zm0,21.55v.52h.33v-.52Zm.65-33.79v.17h.33V120Zm1.15-3.62v.51h.17l.16-.51Zm.49,7.41v1h-.32V126l-.17.18v.17l.17.17h.16l.16-.17.17,2.07h-.17l.17.17V129l-.17.17.17.17v2.24c0,.81-.11,1.21-.33,1.21l.16.52h1.8a1.46,1.46,0,0,0,.82-1.21h.33l-.16.52c.08,1.72.24,2.58.49,2.58l.49-.51a11.22,11.22,0,0,1-.49-3.11l.16-.17h1.31c0,.34.11.52.33.52h.16v-.52l-.16-1.21h-.16q0,.69-.33.69c-.25,0-.41-.28-.49-.86l.16-.52-.33-1.89h-.32l-.17,1.55h-.16L319,129h-.17l.17-.87v-.86c0-.57-.12-.86-.33-.86l.16-.17c-.25-1.61-1-2.42-2.29-2.42h-.33Zm-.16,9.31-.16,1.55H316v-.69l-.17-.86Zm.49-12.24v.17l.33.34h.16v-.51Zm1-3.11-.16.69.16.18-.16.17h.49l-.16-.17.16-.18v-.34ZM317,139.3v.35h.33Zm.49-5.52v.35l.16.86h.5l.16-.69-.33-.86h-.16Zm.49,4.14v1.9h.33v-1.55Zm1-1.38v.69l.32.35v-1Zm.16,7.07v.69l.33.35h.16l.16-.52-.16-.86h-.16Zm.16,4,.17.86-.33.34.33,1.21.16-.17h.16l-.16-1.21v-1Zm.33-15.52.16,1.72h-.16c.14.81.3,1.21.49,1.21h.17v-.86l-.17-1,.17-.86-.17-.17Zm.33,7.59.33.34v-.69Zm.16-3.8v.52h.17v-.52Zm0,7.93v.52l.33.35h.16l.33-.35-.16-.52Zm.17-3.1h.32v-.34Zm.16,5.52v.34l-.16.86.16,1v.69h.33l.16-2.76-.16-.17Zm.33-29.31h.32c.22,0,.33.17.33.52l-.16.86h-.33l-.33-.35Zm-.17,7.93v.34h.17v-.34Zm0,2.76v1.72l.33.35.16-.87v-.86l-.32-.34Zm.17,4.65v.69h.32v-.69Zm1.14.17c0,.81-.11,1.21-.32,1.21h-.82l.16.86-.16.18.32.34.17-.17h.33c.24,0,.41.4.49,1.21h.16c0-.92.17-1.38.49-1.38s.33.17.33.51h.33c0-.8-.28-1.2-.82-1.2-.31,0-.48-.52-.49-1.56Zm-1.14,3.45v.35h.49l.16-.52-.16-.17h-.17Zm.82,8.45.32.35v-.35Zm.49-27.24c1,.53,1.47.93,1.47,1.21l-.16.17h-.17c-1-.2-1.47-.6-1.47-1.21l.16-.17Zm-.33,11,.33.35.16-.17v-.18Zm.16,1v.34h.17v-.34Zm0,29.31v.34l.82-.17v-.17l-.32-.35h-.17Zm.82-31.21-.32.86.16.87h.33l.49-.52C323.23,127.63,323,127.23,322.73,127.23Zm-.16-4.65v.34h.16v-.34Zm.16,3.79v.34h.17v-.34Zm.49-6.9h.17v.35l-.33.34-.16-.17v-.17Zm.49,9c0,.57-.27.86-.81.86l.32.35v-.18c.55,0,.82.35.82,1h.33v-1c0-.59-.16-.93-.49-1Zm-.65,2.24v1.21h.16v-1.21Zm0,1.55v1.21h.16v-1.21Zm.16,6,.17,1.72.32-.34v-.35l-.16-.17.16-.17v-.35l-.32-.34Zm.17,2.07-.17,1.55.17.17h.16l.16-.17v-1.21Zm-.17,4v.17l.33.35h.16v-.52Zm1,12.93v.52h.16v-.52Zm.32-12.76v.18h.33v-.18Zm.33-23.27v.34h.33v-.34Zm.17,8.1v.86l-.17.18.17.17v1l-.17,1,.49,1.2h.17l.16-1.38-.16-.51.16-1.38-.16-1.21Zm0-3.1v.51l.32-.34v-.17Zm.32,22.76.17.17h.16l.16-.17v-.35h-.16Zm.17-4.49v.35h.32v-.35Zm0,2.93v.18h.16l.33-.35v-.17h-.17Zm.16-1.2v.51h.49v-.51Zm.33-17.07v.69h.16v-.69Zm0,.86v.35h.16V130Z"/><path class="cls-1" d="M330,113.78h2.13l.16.18.16-.18h.17l.65.18,1.15-.18h7.21l-.17.87.49.17v-1h.49l.33.35.66-.35.16.18h.49l.49-.18V114l.17.69v7.24l-.49.51h-1.64l-.49-.34-.49.34h-1c-.22,0-.32-.17-.32-.51l-.17-.18H340l-.17.69h-1V129l-.16.17.16.17v1.21l.82.17.16-.17.17.17h.65l.17-.17.16.17h.66l.16-.17.16.17h.17l1.64-.17c.43.11.65.46.65,1V136c0,.23-.22.34-.65.34v1l.65.87-.82.69-.16-.18h-.66l-.16.18-.66-.35-.65.17-.33-.34v-.17l.17-.69-.33-1.21h-.33l.16,1.72v.35c0,.23-.16.34-.49.34l-.16-.17h-.17a1.56,1.56,0,0,0-1.31,1.55l.17.87-.17.51.17,2.07v1.73l.16,5-.33.68.17.18v.86h-.33l-.33-1.55c-.26,0-.43.23-.49.69.27.8.48,1.2.66,1.2l.49-.17v.17l.33.69.81-.34.5.52.32-.87a4.25,4.25,0,0,1-.32-2.24l-.17-.17H340v1.38l-.17.86h-.16c-.23,0-.45-1.21-.65-3.62l.49-.17.16.17h.16l1.32-.17.16.69h.16v-.52c.33,0,.49.52.49,1.55l.49-.17v-1.21l.33-.34.33.34L343,149v.17l.32,2.41-.32,1,.32,1.38-.16,1.72h-.49v-.86h-.33l.16.86c-.32,0-.49.23-.49.69-.22,0-.32.17-.32.52l-.82.17h-6.06c-.55,0-.82-.12-.82-.35l-1,.35h-2.45l-.49-.52v-5.86l-.17-.69.33-1.72-.16-.18v-.69h.16c.22,0,.33.35.33,1h.16V145h-.16l-.17.17h-.16c0-.57-.11-.86-.33-.86.11-1.26.28-1.89.49-1.89h.33v-.69H330v-1.56l.49-.69-.33-1.72.16-.17-.32-2.07v-.35h.16l-.16-2.07v-6.38l.32-1-.32-1v-4l.16-1.21H330l.16-.17-.33-3.62.17-1-.17-.18v-.17Zm.16,31.56h.16v.51h-.16Zm0,1h.16v.34h-.16Zm.33-29.14-.17,2.07h.17l-.17.52.17.52h.16l.17-.87h-.17l.17-.17v-.17l-.17-1.9Zm0,4.66v.69l.33-.35Zm0,1v1l.16.86H331v-.52l-.33-.52.17-.69-.17-.17Zm.16,27.24v.35h.17v-.35Zm.33-18.1-.16.86.32.35h.17v-1.21Zm0,3.45v.34h.33v-.34Zm1.31-21.21c0,.35-.11.52-.33.52l-.49-.35-.16.18v.17l.16.17v.17l.17-.17h.16l.82.17v-.86Zm-1,26.73v.17h.33v-.52Zm0,.86v.52l.16,1-.16.17v.17l.33,2.07-.17,1v1h.33v-5.69l-.33-.34Zm.16-7.07h1l-.16-1.21V132.4C332,132.4,331.74,133.21,331.49,134.82Zm.17-16.21V119h.16v-.35Zm0,30.69v.52h.16l.16-.52Zm0,3.79v2.07H332v-2.07Zm.16-28.79v1.55h.33V124.3Zm.16,3.1v.52h.17v-.52Zm0,2.94v.34h.33v-.34Zm.17,5.17v.34h.16v-.34Zm0,1.55v.34h.32Zm.16,2.76-.16.52.32,4.13V146l.33.34v-2.76l-.16-1,.16-.69-.33-2.07Zm1.15,7.58v1l-.17.86H333l-.16-.17h-.16v.52l.16-.18h.49l.17,1h.16a1.12,1.12,0,0,1,.49-1l-.33-1v-1Zm-.82,6.21v.52h.16v-.52Zm0,1v1.55H333V156l-.16-.69.16-.52-.16-.17Zm.32-23.8V131h.33v-.18Zm0,2.59v.17l.17,1.21h.33v-.35l-.17-.17.17-.17V134l-.17-.52Zm.33,4v.35h.17v-.35Zm0,1.9v.86l.33-.34v-.17Zm.17-22.24.16,1.72V120H334l-.17-2.58v-.52l-.16.17Zm0,34.14v.51c0,1.84.16,2.76.49,2.76l.16-2.41c-.14-.58-.3-.86-.49-.86Zm.32-29.66v.35H334v-.35Zm.33,9.31L334,131v.34h.49v-.17Zm0,3.11v.17l.17.86h.16l.16-.52-.16-.86Zm.17,2.93-.17.51.17.52h.16l.16-.52-.16-.51Zm0,1.72v.86h.16l.33-.34v-.35Zm0,10.17.49.35h.16l-.16-.52.16-.86h-.16C334.44,147.86,334.28,148.21,334.28,148.78Zm.32-7.24v1c.22,0,.33-.17.33-.52l-.16-.52Zm0,1.38v1h.17l.16-.87-.16-.17Zm0,1.38v2.76h.33v-.17l.16-1.55C335,144.65,334.79,144.3,334.6,144.3Zm.17-22.76v.52l.32.34v-.86Zm.16,2.42v2.75l.33.35V124.3Zm.16,7.58-.16,1.9.16.52.5-.52C335.48,132.17,335.31,131.54,335.09,131.54Zm0,2.76v.52l.33-.35-.16-.17Zm0,1v.34h.33Zm.17,1.89v.35h.33v-.35Zm.16-22.41v.69l.17.86h.16l.16-1.38-.16-.17Zm.33,29V144l-.16,1.89.16.52h.33v-2.59Zm.16,7.07v1.21h.33v-.86Zm.17-18.62.16,1-.16.51.16.18h.33l-.17-2.07Zm.16-1v.34h.16v-.34Zm0,3.27v2.07l.33,2.93h.16l.17-.51-.17-.87.17-.51-.33-3.11Zm.33,5.35-.17.52.5.34v-.52Zm.16,4.83-.16.69.33,3.27-.17,1,.17.17h.16V145Zm0-3.11v.52h.17v-.52Zm0,1.9V144h.17v-.52Zm.17,7.07-.17,2.07.17.17h.16l.33-1.9Zm.16-26V125h.33v-.17Zm.33,10v.18h.33v-.18Zm.16-19.13v.34h.17v-.34Zm0,1.72v.17l.33.35v-.52Zm0,24.31.17,1.72v.35H338v-.86l.17-1.21-.17-.17h-.16l-.16.17Zm.17,3.79v2.07l.16,1.21H338l.17-.69-.17-1.21v-1.72Zm.16,3.45v.69H338v-.69ZM338,122.4v.69h.17v-.69Zm.17,2.93-.17.87.17.17h.16v-1Zm0,6v1.21h.32v-1.21Zm.16,4.14v.17h.33v-.17Zm.33-18.45v.52H339v-.17Zm.16,2.24-.16.17v.35l.33.34.16-.17v-.34Zm0,1.21v.34H339v-.34Zm.49,14.48v.69h.33v-.34Zm.17,2.59.16.17h.16v-.52Zm.16-21.73v1.38H340v-1Zm0,22.07v.35h.16v-.35Zm.33,11v.51h.16l.17-.51Zm1,3.1.17,1.55h.16l.33-.34v-.87l-.33-.34Zm.33,3.45v.69h.16l.17-.52-.17-.17Zm.33-20.35v.35h1V135h-.17Zm0,1.9v.52h.16l.33-.35-.17-.17Zm.16-20v1.21h.33v-.86Zm.16,33.62v2.24l.49.52.33-.52v-.52a3,3,0,0,1-.65-1.72Zm2.79-1.21h.33l.16,1.73v.17l-.16.17.16.17v2.59l.16.17-.16.18v2.24l-.82.17c-.55,0-.82-.12-.82-.35l-.65.35c-.55-.15-.82-.32-.82-.52.54,0,.82-.17.82-.51l.65.34.17-.17V156l-.17-2.59.33-.69-.33-1.73.17-.51h.32l.49.34.17-.86Zm-2.3-12.07.33.35h.33v-.69h-.33Zm1.32-22.58v.52h.16v-.52Zm.32,34.48.17.17v.18l-.33.34-.16-.17v-.17Zm.33,2.93v.35h-.16l.16.51h.16l.33-.34v-.17l-.33-.35Zm.16-3.79h.17l.33.34V149h-.17l-.33-.35Z"/><polygon class="cls-2" points="44.49 44.29 38.83 54.4 81.7 98.09 44.49 44.29"/><polygon class="cls-3" points="55.97 60.64 21.03 48.34 0 16.79 25.89 42.67 44.39 44.38 55.97 60.64"/><polygon class="cls-4" points="45.3 33.78 61.48 2.63 48.54 42.69 45.3 33.78"/><polygon class="cls-5" points="46.76 27.55 10.66 17.95 43.63 33.89 46.76 27.55"/><polygon class="cls-5" points="51.78 30.01 56.8 33.18 57.72 44.96 50.75 56.84 51.78 30.01"/><polygon class="cls-4" points="46.76 27.55 37.54 25.09 24.64 36.36 46.76 27.55"/><polygon class="cls-5" points="156.56 58.71 162.32 101.18 148.64 60.86 156.56 58.71"/><polygon class="cls-6" points="204.86 0 176.99 41.27 177.78 48.36 180.83 52.78 204.86 0"/><polygon class="cls-7" points="170.09 39.93 200.14 64.89 208.9 102.1 193.56 68.53 175.51 60.22 170.09 39.93"/><polygon class="cls-4" points="157.52 65.21 151.4 65.55 141.92 81.5 156.71 69.15 157.52 65.21"/><polygon class="cls-5" points="158.55 66.43 155.55 60.13 161.95 49.05 176.66 42.26 158.55 66.43"/><polygon class="cls-2" points="156.31 65.46 153.32 62.11 140 71.66 152.47 70.53 156.31 65.46"/><polygon class="cls-4" points="158.48 63.74 144.32 100.23 153.2 53.18 158.48 63.74"/><polygon class="cls-8" points="295.7 49.63 308.22 25.76 344.45 7.39 313.63 31.64 306.1 57.76 295.7 49.63"/><polygon class="cls-2" points="285.43 31.23 321.06 32.67 278.99 37.66 285.43 31.23"/><polygon class="cls-9" points="297.85 50.09 297.19 43.69 285.29 37.97 271.18 39.07 297.85 50.09"/><polygon class="cls-4" points="286.46 34 280.65 25.59 262.3 25.82 286.46 34"/><polygon class="cls-10" points="315.57 41.94 303.18 41.21 281.11 102.94 315.57 41.94"/><polygon class="cls-5" points="279.88 58.46 292.14 35.19 272.36 57.53 279.88 58.46"/></g></g></svg>