<?xml version="1.0" encoding="utf-8"?>
<!-- Generator: Adobe Illustrator 23.0.1, SVG Export Plug-In . SVG Version: 6.00 Build 0)  -->
<svg version="1.1" id="Layer_1" xmlns="http://www.w3.org/2000/svg" xmlns:xlink="http://www.w3.org/1999/xlink" x="0px" y="0px"
	 viewBox="0 0 166.9 57.2" style="enable-background:new 0 0 166.9 57.2;" xml:space="preserve">
<title>Asset 10</title>
<g>
	<g id="Layer_1-2">
		<path d="M101.4,35.2c0.2,0,0.5,0.5,1.3,0.4c1.1-0.5,2.7-0.6,3.8-1.3c1.9-1.1,3.7-2.3,5.4-3.6c2.1-1.5,3.1-2.7,3.8-2.6
			c0.3,0,0.6,0.1,0.8,0.3c0.2,0.2,0.3,0.5,0.3,0.9c0,0.5-0.1,1-0.1,1.5c-0.5,1.9-1.6,3.3-2.3,5.1c-0.6,1.3-1,2.4-1.4,3.7
			c-0.2,0.6-0.4,1.3-0.7,2c0,0-2.3,8-1.4,8c1.6-1,2.9-3.4,3.9-5c1.5-2.5,3-5.2,4.6-7.7c0.2-0.4,0.5-0.8,0.8-1.2
			c0.5-0.8,1.2-1.5,2-2.2c0.5-0.3,0.8,0.1,1,0.6c0.1,0.3,0.1,0.7,0.1,1c0,0.8-0.2,1.5-0.4,2.2c-0.1,0.7-0.3,1.5-0.4,2.2
			c-0.2,1.3-0.4,1.8-0.6,3.2c-0.2,1.5-0.4,3-0.4,4.5c-0.1,0.5,0,0.9-0.1,1.3c0,0.9,0,1.7,0.1,2.6c0.1,1.2,0.5,2.6,1.1,2.6
			c1.3,0,2.8-2.4,3.5-3.5s2.1-3.2,3.4-5.3c1.5-2.4,3-5,3.9-6.3c1.2-2,2.6-3.9,4.2-5.6c2.2-2.4,2.5-2.9,4.4-4.1
			c1-0.6,1.8-0.1,1.8,0.7c0,0.5-0.6,0.3-0.9,0.3s-0.5,0-0.9,0.1c-0.3,0.1-0.5,0.2-0.7,0.3c-0.5,0.3-1,0.6-1.4,1.1
			c-1.2,1.2-2.3,2.6-3.3,4c-2,2.8-3.9,6.3-5.8,9.3c-0.8,1.4-1.6,2.6-2.4,3.7c-1.1,1.7-2.2,3.3-3.5,4.8c-0.5,0.6-1.1,1.1-1.7,1.5
			c-0.7,0.4-1.4,0.4-2.1,0c-0.6-0.4-0.9-1-1.1-1.7c-0.1-0.7-0.2-1.3-0.2-2c0-1,0.1-1.8,0.1-2.3c0.2-2.2,0.6-4.4,1.1-6.6
			c0.3-1.3,0.5-2.8,0.7-4c0.2-0.9,0.1-0.5,0.2-1.3c0.1-0.5,0.1-1.2-0.2-1.2c-0.1,0-0.3-0.1-0.7,0.3c-0.4,0.4-0.8,0.8-1.1,1.3
			c-0.9,1.6-1.5,2.5-2.2,3.8c-1.2,2.1-3,5.8-4.3,7.8c-0.6,1-1.3,1.9-2,2.7c-0.4,0.4-0.8,0.9-1.2,0.9c-0.7,0-1.4-0.6-1.2-2.2
			c0.2-1.2,0.9-4,1.4-5.9c0.8-2.4,1.6-4.8,2.6-7.1c0.5-1.3,1-2.6,1.6-3.9c0.7-2.2,0.4-2.2,0.4-2.8s-0.5-0.2-0.8,0
			c-1,0.6-3.4,2.1-4.2,2.6c-2.1,1.4-4.3,2.8-6.6,4c-1.2,0.6-2.6,1.4-3.9,0.9c-0.6-0.3-0.1-1.5,0.5-2
			C100.5,35.6,100.9,35.3,101.4,35.2z"/>
		<path d="M136.9,43c0.4-0.4,0.8-0.7,1.3-1c0-0.3,0.4-0.9,0.7-1c0.1,0,0.9-0.2,1-0.2s0.1,0,0.2,0c0.1,0,0.3-0.1,0.4-0.1
			c1.9-0.1,3.7,0,5.6,0.4c0.7,0.1,1.3,0.3,1.9,0.7c0.4,0.2,0.7,0.9,0.1,1.1c-0.3,0.1-0.3-0.1-0.5-0.1S147,42.3,147,42l0,0
			c-0.3-0.1-0.5-0.2-0.8-0.3c-0.4,0-0.8,0-1.2,0c-0.6,0-1.2-0.1-1.8-0.1c0.3,0.2,0.5,0.6,0.5,1c0,1.2-1.1,2.3-2,2.9
			c-0.3,0.2-0.6,0.5-0.9,0.7s-0.6,0.3-0.8,0.4c-0.6,0.3-1.2,0.6-1.8,0.8c-0.6,0.3-1.3,0.4-2,0.5c-0.3,0-0.7,0-0.9-0.2
			c-0.4-0.3-0.5-0.8-0.4-1.2s0.3-0.9,0.5-1.2C135.7,44.4,136.2,43.7,136.9,43z M141.4,41.9c-0.7,0.3-1.5,0.9-1.8,1
			c-0.3,0-0.5,0-0.8-0.1c-0.2,0.2-0.5,0.4-0.8,0.7c-0.2,0.2-0.4,0.5-0.6,0.7c-0.1,0.2-0.3,0.5-0.4,0.7c-0.2,0.3-0.3,0.7-0.4,1.1
			c0,0.1,0,0.3,0,0.4c0.1,0.2,0.5,0.2,1,0.1c0.4-0.1,0.7-0.1,1.1-0.2c0.4-0.2,0.8-0.4,1.2-0.6c0.5-0.2,1-0.5,1.5-0.8
			c0.4-0.2,0.7-0.5,1-0.8c0.4-0.4,0.7-0.9,0.8-1.4C143.1,41.9,142.1,41.8,141.4,41.9L141.4,41.9z"/>
		<path d="M148.1,44.9c0.1,0.4,0.1,0.9,0,1.3c-0.4,0.7-0.8,1.4-1.4,2c-0.5,0.4-0.9,0.1-0.9-0.6c0.1-0.6,0.3-1.2,0.6-1.7
			c1.1-2.1,2.9-3.9,5-5c0.9-0.4,2.1-0.9,2.8-0.6h0.1c0.2,0.1,0.4,0.3,0.5,0.5s0.2,0.3,0.2,0.5c-0.1,0.6-0.5,1.2-1,1.5
			c-0.2,0.1-0.4,0-0.5-0.2c-0.1-0.1,0-0.6-0.2-0.6s-0.6-0.3-0.9-0.3c-0.2,0-0.3,0.1-0.5,0.1c-0.2,0.1-0.5,0.1-0.6,0.1
			c-0.5,0.3-0.9,0.6-1.3,1c-0.5,0.4-0.9,0.8-1.2,1.3C148.4,44.4,148.2,44.6,148.1,44.9z"/>
		<path d="M161.4,31.8c0.4-0.4,0.8-0.1,0.9,0.7c0,0.2-0.1,0.4-0.2,0.6c-0.1,0.6-0.4,1.2-0.8,1.6c-0.2,0.3-0.2,0.6-0.5,1
			s-0.3,0.7-0.5,1.1c-0.9,2-2,4.1-2.8,5.7l-0.5,1.7l-0.1,0.2c0.9-0.9,1.9-1.7,2.9-2.4c0.6-0.4,1.3-0.7,1.9-1
			c0.6-0.3,1.2-0.5,1.9-0.7c0.4-0.1,0.8,0,1.1,0.2c0.6,0.3,0.6,0.8,0.3,1.4c-0.2,0.3-0.5,0.6-0.8,0.8c-0.4,0.3-0.8,0.6-1.3,0.8
			l-1.1,0.7c-0.3,0.1-0.5,0.5-0.8,0.7s-0.3,0.2-0.4,0.6c0,0.2,0.1,0.3,0.2,0.5c0.1,0.2,0.2,0.3,0.3,0.5c0.2,0.3,0.5,0.5,0.8,0.7
			c1,0.6,2,1.3,2.9,2c0.6,0.4,1.2,0.9,1.7,1.5c0.1,0.1,0.1,0.3,0,0.5l-0.1,0.2c-0.2,0.3-0.9-0.4-1.1-1l-0.6-0.7
			c-0.4-0.3-0.8-0.5-1.2-0.7c-0.6-0.3-1.2-0.6-1.7-0.9c-0.4-0.3-1.4-0.7-1.7-1.1s-0.7-0.5-0.8-0.9c-0.1-0.1-0.1-0.3-0.1-0.5
			c0-1,1.5-1.7,2-2c0.4-0.3,0.8-0.6,1.2-0.9c0.3-0.2,0.6-0.5,0.7-0.9c-0.5-0.1-0.9,0-1.4,0.2c-0.4,0.2-0.9,0.4-1.3,0.6
			c-1.2,0.8-2.3,1.8-3.1,3c-0.2,0.3-0.7,0.8-0.9,1.1s-0.2,0.4-0.4,0.8c0,0.1-0.1,0.2-0.2,0.3c-0.1,0.1-0.2,0.2-0.4,0.3
			c-0.3,0.2-0.7,0-0.9-0.3l0,0c-0.3-0.7,0.1-1.4,0.5-2.2c0.2-0.3,0.4-0.7,0.6-1c0-0.1,0.1-0.2,0.1-0.2c0-0.5,0.6-0.8,0.7-1.3V43
			c0.4-1,1-2.2,1.5-3.5c0.7-1.6,1.1-2.8,1.6-4c0.2-0.5,0.3-0.6,0.5-1.2c0.1-0.5,0.2-0.9,0.3-1.4C160.7,32.3,161,31.8,161.4,31.8z"/>
		<path d="M31.5,50.5c-0.1-0.3-0.2-0.7-0.1-1c0.1-0.4,0.4-0.9,0.6-1.4c0.3-0.6,0.5-1.2,0.9-1.8c1-2.6,2.8-6.7,3.9-9.1l1.3-2.5
			c0.1-0.7,0.3-1.3,0.6-2c0.1-0.5,0.3-1,0.5-1.4c-1.8-0.3-3.6-0.3-5.3,0.1c-1,0.2-1.9,1.5-3,2.1c-0.8,0.3-1.5-1.8-0.7-2.3
			c1.1-0.7,1.4-0.3,2.5-0.9c1.1-0.6,4.2-0.4,6.8,0.1c0.4-0.8,0.8-1.3,1.3-1.2c0.2,0.2,0.3,0.4,0.3,0.6c0,0.3,0,0.6,0,0.9
			c0.9,0.2,1.8,0.4,2.7,0.7c3.8,1.4,4.5,1.8,6.4,3.3s3.4,3.2,3.4,6.3c0,0.5-0.1,1-0.2,1.5c-0.8,1.8-2.1,3.3-3.8,4.4
			c-3,1.7-5.8,3.9-8.8,5.1c-1,0.3-2,0.7-3,1.1c-2.5,0.8-5,1.9-7.4,2.6c-1.8,0.5-3.6,0.9-5.4,1.2C24.8,57,24.6,57,24.5,57h-0.3
			c-0.2,0.1-0.4,0.1-0.6,0.1c-0.6,0.1-1.3,0-1.8-0.2c-0.3,0-0.5,0-0.8-0.1c-0.2-0.1-0.2-0.4-0.2-0.6c-0.2-0.7,0.6-1.7,1-1.2
			c0.1,0.1,0.2,0.8,0.7,1s1,0.3,1.5,0.3c0.4,0,0.8,0,1.1,0c1.8-0.4,3.5-0.9,5.2-1.6c3.2-1,6.3-2.6,9.5-3.8c0.7-0.3,1.3-0.6,1.9-0.9
			c2.5-1.3,4.9-2.9,7.1-4.6c1.2-0.9,3-2.4,3.4-4.1c0.4-1.3,0.3-2.6-0.3-3.8c-0.6-1-1.3-1.8-2.2-2.5c-2.3-1.2-4.7-2.2-7.2-3
			c-0.4-0.2-0.9-0.3-1.3-0.4v0.1c-0.4,1.1-1.2,1.4-1.6,2.6c-0.7,1.7-2.8,5.1-3.9,7.2c-0.7,1.3-1.2,2.6-1.6,4l-0.3,1
			c-0.1,0.5-0.5,1.3-0.7,1.8s-0.3,1.1-0.3,1.6c0.1,0.4-0.2,0.7-0.5,0.8C31.9,50.8,31.6,50.7,31.5,50.5z"/>
		<path d="M56.4,44.6c0.1,0.4,0.1,0.8,0,1.3c-0.4,0.7-0.8,1.4-1.4,2c-0.5,0.4-0.9,0.1-0.9-0.6c0.1-0.6,0.3-1.2,0.6-1.7
			c1.1-2.1,2.9-3.9,5-5c0.8-0.4,2.1-0.9,2.8-0.6h0.1c0.2,0.1,0.4,0.3,0.5,0.5s0.2,0.3,0.2,0.5c-0.1,0.6-0.5,1.2-1,1.5
			c-0.2,0.1-0.4,0-0.5-0.2c-0.1-0.1,0-0.6-0.2-0.6s-0.6-0.3-0.9-0.3c-0.2,0-0.3,0.1-0.5,0.1s-0.5,0-0.7,0.1c-0.5,0.3-0.9,0.6-1.3,1
			c-0.5,0.4-0.9,0.8-1.2,1.3C56.6,44.1,56.5,44.4,56.4,44.6z"/>
		<path d="M65.3,45.1c-0.1,0-0.2-0.1-0.2-0.2l-0.2,0.2c-0.1,0.2-0.3,0.4-0.3,0.6c-0.1,0.1-0.1,0.3-0.1,0.4c0,0.2,0.2,0.3,0.3,0.4
			s0.6,0.3,1.9,0.2c0.7,0,1.4-0.1,2.1-0.3c0.9-0.3,1.8-0.6,2.6-1l1.2-0.5c0.4-0.1,0.7-0.3,1-0.6c0.2-0.2,0.5-0.2,0.4,0.2
			s-0.5,0.4-0.9,0.7c-0.5,0.3-1.1,0.6-1.6,0.9c-0.7,0.4-1.4,0.7-2.3,1s-1.4,0.6-2.2,0.7c-0.3,0.1-0.7,0.2-1,0.2
			c-0.7,0.1-1.3,0.1-2,0.1c-0.2,0-0.4-0.1-0.6-0.2c-0.2-0.1-0.2-0.2-0.4-0.3c-0.3-0.3-0.4-0.6-0.4-1c0-0.3,0-0.7,0.1-1
			c0.2-0.3,0.4-0.7,0.6-1c0.3-0.4,0.6-0.8,1-1.1c0.6-0.5,0.7-0.6,1-0.8s0.6-0.3,1.3-0.8c0.8-0.5,1.6-0.9,2.6-1.2l0.6-0.2
			c0.3-0.1,1.6-0.1,1.7,0.7c0,0.3-0.1,0.6-0.4,0.8c-0.2,0.3-0.5,0.5-0.8,0.8c-0.9,0.6-1.8,1.1-2.8,1.5c-0.2,0.1-0.4,0.2-0.7,0.3
			c-0.2,0.1-0.4,0.2-0.6,0.3C66.3,45.1,65.7,45.4,65.3,45.1z M65.9,44L65.9,44h0.7c0.2,0,0.2,0,0.3,0l0.3-0.1l0.3-0.1
			c0.2-0.1,0.3-0.1,0.5-0.2c0.7-0.4,1.4-0.8,2-1.4c0.2-0.2,0-0.3,0-0.3c-0.1-0.1-0.2-0.1-0.3-0.1c-0.4,0-0.8,0.2-1.2,0.4L68,42.5
			l-0.6,0.3c-0.4,0.3-0.9,0.6-1.2,0.9C66.1,43.9,66,43.9,65.9,44z"/>
		<path d="M81.1,42.3c-0.3-0.4-0.8-0.5-1.2-0.4c-0.3,0.1-0.7,0.3-1,0.5c-0.7,0.5-1.6,1.4-2.2,1.8c-0.7,0.5-1.3,1.2-1.5,2
			c0.2,0.2,0.5,0.1,0.7,0c0.8-0.4,1.7-0.8,2.4-1.3c0.4-0.2,0.9-0.5,1.4-0.8c1-0.7,2-1.2,3.1-1.7c0.3,0.1,0.5,0.3,0.6,0.6
			c0,1-1.1,2.4-1.1,3.1c0,0.3,0.2,0.5,0.6,0.5c0.2,0,0.4,0,0.6-0.1c1.2-0.3,2.3-0.9,3.3-1.7c0.4-0.1,0.4,0.3,0.1,0.5
			C86,46.2,83,49,81.6,47.7c-0.3-0.4-0.5-0.9-0.4-1.4c0.1-0.7,0.2-1.3,0.5-1.9c0.1-0.5-0.4-0.4-0.6-0.2s-0.7,0.3-1.2,0.6
			c-0.3,0.2-0.5,0.5-0.8,0.6c-0.8,0.5-1.9,1.2-2.7,1.7c-0.6,0.4-1.3,0.6-1.9,0.8c-0.2,0-0.4-0.1-0.6-0.1c-0.2-0.2-0.4-0.4-0.4-0.7
			s0-0.5,0.1-0.8c0.2-0.6,0.5-1.1,0.9-1.6c0.5-0.6,1.1-1.2,1.7-1.7c0.8-0.6,1.6-1.1,2.4-1.6c0.8-0.4,1.2-0.4,1.5-0.6
			c0.4-0.1,0.7-0.2,1.1-0.2c0.3-0.1,0.6,0.1,0.7,0.3l0.2,0.3C82.3,42.2,81.6,43,81.1,42.3z"/>
		<path d="M94.4,46.1c0.7-0.8,4.2-5,5.2-4.8s0.9,1,0.6,2.2c-0.1,0.7-0.3,1.4-0.3,2.1c0,1.2,0.8,1.3,1.4,1.3c0.8-0.1,1.6-0.4,2.2-0.9
			l0,0h0.1c0.4,0,0.4,0.3,0.1,0.5c-1.1,0.8-2.3,1.9-3.3,1.7c-1.2-0.2-1.3-1.2-1.3-2.7c0-0.4,0-1.1,0-1.5c0-0.6-0.1-1-0.5-0.9
			c-0.6,0.4-1.2,0.8-1.7,1.4c-1.2,1.3-2.9,3.3-3.3,3.5c-0.2,0.1-0.1,0.1-0.3,0.2c-0.2,0-0.4-0.1-0.6-0.2c-0.1-0.2-0.1-0.3-0.2-0.5
			c-0.1-1,1.5-3.8,1.3-4.4c0,0,0-0.2-0.1-0.2c-1,0.3-1.9,0.9-2.6,1.8l-1.6,1.7l-0.8,0.9c-0.4,0.4-1.6,1.7-2.2,1
			c-0.2-0.3-0.2-0.7-0.1-1c0.6-1.4,1.3-2.8,2.1-4.2c0.2-0.4,0.1-0.6,0.3-1c0-0.1,0.1-0.3,0.1-0.4l0.1-0.2c0.3-0.2,0.7-0.3,1-0.1
			s0.5,0.5,0.5,0.9c-0.5,1.4-1.3,1.8-2,3.1c-0.1,0.3-0.3,0.6-0.5,0.9l0.1-0.1l0,0c0.5-0.5,0.9-0.8,1.4-1.2c1-1,2.1-1.8,3.3-2.8
			c0.5-0.4,1.6-1.5,2.3-1.2c0.1,0.1,0.2,0.2,0.2,0.4c0.2,0.4-0.4,2.2-0.8,3.1c-0.2,0.5-0.6,1.8-0.4,1.8L94.4,46.1z"/>
		<path d="M61.9,32.5h-0.7l-1.1-4.1v4.1h-0.6V26h0.7l1.4,5.5L63,26h0.6v6.5H63v-4.1L61.9,32.5z"/>
		<path d="M68.4,32.5L68,30.8h-1.4l-0.4,1.7h-0.6L67,26h0.7l1.4,6.5H68.4z M68,30.2l-0.6-2.9c-0.2,0.9-0.4,1.8-0.6,2.9H68z"/>
		<path d="M71.8,32.5h-0.6V26h0.6v2.6c0.6-0.9,1.3-1.8,2-2.6h0.8l-1.9,2.5l1.7,4h-0.7L72.3,29l-0.4,0.5L71.8,32.5L71.8,32.5z"/>
		<path d="M79.3,26v0.6h-1.9V29h1.7v0.6h-1.7v2.3h1.9v0.6h-2.5V26H79.3z"/>
		<path d="M82.1,28.3c0,0.4,0.4,0.6,0.9,0.7c0.7,0.1,1.4,0.5,1.4,1.2v0.9c-0.1,0.8-0.8,1.4-1.6,1.3c-0.7-0.1-1.3-0.6-1.3-1.3v-0.6
			h0.6v0.6c0,0.4,0.4,0.8,0.9,0.8c0.4,0,0.8-0.3,0.8-0.8l0,0v-0.9c0-0.4-0.4-0.6-0.9-0.6c-0.7,0-1.4-0.5-1.4-1.3v-1
			c0.1-0.8,0.8-1.4,1.6-1.3c0.7,0.1,1.3,0.6,1.3,1.3V28h-0.6v-0.7c0-0.5-0.4-0.8-0.9-0.8s-0.8,0.4-0.8,0.8V28.3z"/>
		<path d="M91.6,32.5H91v-5.9h-1.1V26h2.8v0.6h-1.1C91.6,26.6,91.6,32.5,91.6,32.5z"/>
		<path d="M97.8,32.5h-0.6v-2.9h-1.6v2.9H95V26h0.6v3h1.6v-3h0.6L97.8,32.5z"/>
		<path d="M102.7,26v0.6h-1.9V29h1.7v0.6h-1.7v2.3h1.9v0.6h-2.5V26H102.7z"/>
		<path d="M21.7,0.7c-1.3,0-2.6,0.1-3.8,0.3c-1.6,0.2-3.2,0.4-4.9,0.7c-1,0.2-4.3,0.9-5.3,1L6.5,3C5.6,3.2,4.7,4,4.2,3.8
			C3.8,3.9,3.5,4,3.2,4.1C2.6,4.4,2.1,4.4,1.5,4.4l0,0c-0.3,0-0.6-0.1-0.9-0.2c-0.4-0.1-1-1.1-0.3-1.5c1-0.4,2.1-1,3.1-0.6
			c0.7,0.3,1.9-0.2,2.7-0.2l1.2-0.2c2.1-0.2,6.5-1.1,8.4-1.3C18.8,0,22-0.1,25.1,0.2c1.9,0,3.7,0.5,5.4,1.3c0.3,0.2,0.5,0.6,0.3,1
			C30.5,2.8,30.1,3,29.7,3c-0.7-0.2-0.5-0.9-0.9-1.1c-1.1-0.7-2.4-1-3.6-1C23.9,0.8,22.8,0.7,21.7,0.7z M10.6,19.1
			c1.9-3.9,3.9-7.9,5.6-11.9l0.3-0.6c0-1.2,0.3-2.4,0.8-3.4c0.2-0.3,0.5-0.6,0.8-0.8c0.4-0.2,0.8,0,0.9,0.6c0.1,0.9-1.5,4.1-1.8,4.9
			c-1.1,2.5-2.7,5.2-4,7.8c-0.8,1.6-1.2,2.5-1.9,4c-0.2,0.4-1,2.9-1.6,4.4c0,0.2-0.1,0.3-0.1,0.5c-0.1,0.4-0.2,0.8-0.2,1.1
			c0.1,0.5,0.1,1,0,1.5c-0.2,0.9-1.2,1.6-1.5,0.7c-0.1-0.3-0.1-0.6,0-1c-0.1-0.1-0.1-0.2-0.2-0.3c0.1-0.7,0.2-1.4,0.5-2.1
			c0.2-0.5,0.4-1,0.5-1.4s1-1.9,1.2-2.5s0.3-0.7,0.6-1.2l0.1-0.1L10.6,19.1L10.6,19.1z"/>
		<path d="M21.7,18.3c-0.1,0-0.2-0.1-0.2-0.2l-0.2,0.2c-0.1,0.2-0.2,0.4-0.3,0.6c-0.1,0.1-0.1,0.3-0.1,0.4c0,0.2,0.2,0.3,0.3,0.4
			s0.5,0.4,1.9,0.2c0.7,0,1.4-0.1,2.1-0.3c0.9-0.3,1.8-0.6,2.6-1c0.4-0.2,0.8-0.3,1.2-0.5c0.4-0.1,0.7-0.3,1-0.6
			c0.1-0.2,0.5-0.2,0.4,0.2s-0.5,0.4-0.9,0.7c-0.5,0.3-1.1,0.6-1.6,0.9c-0.7,0.4-1.4,0.7-2.3,1s-1.4,0.6-2.1,0.7
			c-0.2,0.1-0.7,0.2-1,0.2c-0.7,0.1-1.3,0.1-2,0.1c-0.2,0-0.4-0.1-0.6-0.2s-0.2-0.2-0.4-0.3c-0.3-0.3-0.4-0.7-0.4-1s0-0.7,0.1-1
			c0.2-0.3,0.4-0.7,0.6-1c0.3-0.4,0.6-0.8,1-1.1c0.6-0.5,0.7-0.6,1-0.8s0.6-0.4,1.3-0.8c0.8-0.5,1.6-0.9,2.6-1.2l0.6-0.2
			c0.3,0,1.6-0.1,1.6,0.7c0,0.3-0.1,0.6-0.4,0.8c-0.2,0.3-0.4,0.6-0.7,0.8c-0.9,0.6-1.8,1.1-2.8,1.5c-0.2,0.1-0.4,0.2-0.6,0.3
			c-0.2,0.1-0.4,0.2-0.6,0.3C22.6,18.2,22,18.6,21.7,18.3z M22.2,17.2L22.2,17.2h0.6c0.2,0,0.2,0,0.3,0l0.3-0.1l0.3-0.1
			c0.2-0.1,0.3-0.1,0.5-0.2c0.7-0.4,1.4-0.8,2-1.4c0.2-0.2,0-0.3,0-0.3C26.3,15,26.1,15,26,15c-0.4,0-0.8,0.2-1.2,0.4
			c-0.1,0.1-0.4,0.3-0.5,0.4l-0.5,0.3c-0.4,0.3-0.9,0.6-1.2,0.9C22.5,17,22.3,17.1,22.2,17.2z"/>
		<path d="M37.4,15.5c-0.3-0.4-0.8-0.5-1.2-0.4c-0.3,0.1-0.7,0.3-1,0.5c-0.7,0.5-1.7,1.4-2.2,1.8c-0.7,0.5-1.2,1.2-1.5,2
			c0.2,0.2,0.5,0.1,0.7,0c0.8-0.5,1.6-0.9,2.3-1.3c0.5-0.2,0.9-0.5,1.4-0.8c1-0.7,2-1.2,3.1-1.7c0.3,0.1,0.5,0.3,0.6,0.6
			c0,1-1.1,2.4-1.1,3.1c0,0.3,0.2,0.5,0.6,0.5c0.2,0,0.4,0,0.6-0.1c1.2-0.3,2.3-0.9,3.3-1.7c0.4-0.1,0.4,0.3,0.1,0.5
			c-0.9,0.8-3.9,3.5-5.3,2.3c-0.3-0.4-0.5-0.9-0.4-1.4c0.1-0.7,0.2-1.3,0.4-1.9c0.1-0.5-0.4-0.4-0.6-0.3s-0.7,0.3-1.2,0.6
			c-0.3,0.2-0.5,0.5-0.8,0.6c-0.8,0.5-1.9,1.2-2.7,1.7c-0.6,0.4-1.3,0.6-2,0.8c-0.2,0-0.4-0.1-0.6-0.1c-0.3-0.1-0.4-0.4-0.4-0.7
			c0-0.3,0-0.5,0.1-0.8c0.2-0.6,0.5-1.1,0.9-1.6c0.5-0.6,1.1-1.2,1.7-1.8c0.8-0.6,1.6-1.1,2.4-1.6c0.8-0.4,1.2-0.4,1.5-0.6
			c0.4-0.1,0.7-0.2,1.1-0.2c0.3-0.1,0.6,0.1,0.7,0.4l0.2,0.3C38.6,15.3,38,16.2,37.4,15.5z"/>
		<path d="M50.8,19.2c0.7-0.8,4.2-5,5.2-4.9s0.9,1,0.6,2.2c-0.2,0.7-0.3,1.4-0.3,2.1c0,1.2,0.8,1.3,1.4,1.3c0.8-0.1,1.6-0.4,2.2-0.9
			l0,0H60c0.4,0,0.4,0.3,0.1,0.5c-1.1,0.8-2.3,1.9-3.3,1.7c-1.1-0.3-1.3-1.3-1.2-2.7c0-0.4,0-1.1,0-1.5c0-0.6-0.1-1-0.5-0.9
			c-0.7,0.4-1.2,0.8-1.7,1.4c-1.2,1.3-2.9,3.4-3.3,3.5c-0.2,0.1-0.1,0.1-0.3,0.1s-0.5-0.1-0.6-0.2c-0.1-0.2-0.1-0.3-0.2-0.5
			c-0.1-1,1.5-3.9,1.3-4.4c0,0,0-0.2-0.1-0.2c-1,0.3-1.9,0.9-2.6,1.7L46,19.3l-0.8,0.9c-0.4,0.4-1.6,1.7-2.2,1
			c-0.2-0.3-0.2-0.7-0.1-1c0.6-1.5,1.3-2.9,2.2-4.3c0.2-0.4,0.1-0.6,0.3-1c0-0.1,0.1-0.3,0.2-0.4l0.1-0.1c0.3-0.3,0.7-0.3,1-0.1
			s0.5,0.5,0.5,0.9c-0.5,1.4-1.3,1.8-2,3.1c-0.2,0.3-0.3,0.6-0.5,0.9l0.1-0.1l0,0c0.5-0.5,0.9-0.8,1.4-1.2c1-1,2.1-1.9,3.3-2.8
			c0.5-0.4,1.6-1.4,2.3-1.2C52,14,52,14.1,52,14.3c0.2,0.4-0.5,2.2-0.8,3.1C50.9,17.9,50.5,19.3,50.8,19.2L50.8,19.2z"/>
		<path d="M63,16.7l-0.5,1.1c-0.1,0.3-0.2,0.9-0.3,1.3c0,0.2,0,0.1,0,0.3s0,0.1,0,0.1s-0.1,0.3,0.3,0c0.9-0.7,1.6-1.4,2.4-2.2
			c1-1.2,1.5-1.6,2.2-2.4c0.1-0.1,0.8-0.7,1.1-0.6c0.4,0.1,0.7,0.5,0.7,0.9c0,0.3-0.3,0.7-0.4,1.1c-0.3,1.1-0.9,2-0.7,3.1
			c0.4,1.7,1.3,0.8,2.2,0.3c0.7-0.5,1.4-1.1,2-1.7c0.8-0.7,1.5-1.5,2.1-2.4c0.2-0.3,1.1-1.7,1.3-2s0.6-0.3,0.5,0.1s-1.2,2.2-1.4,2.6
			c-0.6,1-1.2,1.9-2,2.8c-0.7,0.9-1.6,1.6-2.6,2.1c-0.5,0.2-1,0.3-1.5,0.2c-0.4-0.1-0.8-0.3-1.1-0.6c-1-1-0.6-3.4-0.1-4.7
			c-0.2,0.2-0.3,0.2-0.4,0.4c-0.4,0.5-0.8,1-1.2,1.5c-0.6,0.7-1.5,1.8-2.1,2.4c-0.4,0.5-1,0.8-1.6,0.8c-0.9,0.1-1-1.1-0.8-2
			c0.2-1.4,0.7-2.8,1.3-4.1c0.2-0.4,0.5-0.7,0.8-1c0.2-0.3,0.6-0.3,0.8-0.1c0.1,0.1,0.2,0.3,0.2,0.4c0,0.4,0.1,0.4,0.1,0.6
			c-0.1,0.2-0.1,0.4-0.1,0.5C63.9,15.7,63.5,16.1,63,16.7z"/>
		<path d="M77.5,15.9c0.4-0.4,0.8-0.7,1.3-1c0-0.3,0.4-0.9,0.7-1c0.2-0.1,0.9-0.2,1-0.2s0.1,0,0.2,0l0.4-0.1c1.9-0.1,3.7,0,5.6,0.4
			c0.7,0.1,1.3,0.3,1.9,0.7c0.4,0.2,0.7,0.9,0.1,1.1c-0.3,0.1-0.3-0.1-0.5-0.1s-0.6-0.5-0.6-0.8l0,0c-0.3-0.1-0.5-0.2-0.8-0.3
			c-0.4,0-0.8,0-1.2,0c-0.6,0-1.2-0.1-1.8-0.1c0.3,0.2,0.5,0.6,0.5,1c0,1.2-1.1,2.3-2,2.9c-0.3,0.2-0.6,0.5-0.9,0.7
			s-0.6,0.3-0.8,0.4c-0.6,0.3-1.2,0.6-1.8,0.8c-0.6,0.3-1.3,0.4-2,0.5c-0.3,0-0.7,0-0.9-0.2c-0.4-0.3-0.5-0.8-0.4-1.2
			c0.1-0.4,0.3-0.8,0.5-1.2C76.3,17.3,76.8,16.6,77.5,15.9z M82,14.8c-0.7,0.3-1.5,0.9-1.8,1c-0.3,0-0.5,0-0.8-0.1
			c-0.2,0.2-0.5,0.4-0.8,0.7c-0.2,0.2-0.5,0.4-0.7,0.6s-0.3,0.5-0.5,0.7c-0.2,0.3-0.3,0.7-0.4,1.1c0,0.1,0,0.3,0,0.4
			c0.1,0.2,0.5,0.2,1,0.1c0.4,0,0.7-0.1,1.1-0.2c0.4-0.2,0.8-0.4,1.2-0.6c0.5-0.2,1.1-0.5,1.6-0.8c0.4-0.2,0.7-0.5,1-0.8
			c0.4-0.4,0.7-0.9,0.8-1.4C83.8,14.8,82.7,14.8,82,14.8z"/>
		<path d="M88.7,17.8c0.1,0.4,0.1,0.8,0,1.3c-0.4,0.7-0.8,1.4-1.4,2c-0.5,0.4-0.9,0.1-0.9-0.6c0.1-0.6,0.3-1.2,0.6-1.7
			c1.1-2.1,2.9-3.9,5-4.9c0.8-0.4,2.1-0.9,2.8-0.6h0.1c0.2,0.1,0.4,0.2,0.5,0.4s0.2,0.3,0.2,0.5c-0.1,0.6-0.5,1.2-1,1.5
			c-0.2,0.1-0.4,0-0.5-0.2c-0.1-0.1,0-0.6-0.2-0.6s-0.6-0.3-0.9-0.3c-0.2,0-0.3,0.1-0.5,0.1c-0.2,0.1-0.5,0.1-0.7,0.1
			c-0.5,0.3-0.9,0.6-1.3,0.9c-0.5,0.4-0.9,0.8-1.2,1.2S88.9,17.5,88.7,17.8z"/>
		<path d="M102,4.7c0.4-0.4,0.8-0.1,0.9,0.7c0,0.2-0.1,0.4-0.2,0.6c-0.1,0.6-0.4,1.2-0.8,1.6c-0.2,0.3-0.2,0.6-0.5,1
			s-0.3,0.7-0.5,1.1c-0.9,2-2,4.1-2.8,5.6L97.6,17l-0.1,0.1c0.9-0.9,1.9-1.7,3-2.3c0.6-0.4,1.3-0.7,1.9-1s1.2-0.5,1.9-0.7
			c0.4-0.1,0.8,0,1.1,0.2c0.6,0.3,0.6,0.8,0.3,1.4c-0.2,0.3-0.5,0.6-0.8,0.8c-0.4,0.3-0.8,0.6-1.3,0.9l-1.1,0.6
			c-0.3,0.1-0.5,0.5-0.8,0.7c-0.2,0.1-0.4,0.4-0.4,0.6s0.1,0.3,0.2,0.5s0.2,0.2,0.3,0.5c0.2,0.3,0.5,0.5,0.8,0.7c1,0.6,2,1.3,2.9,2
			c0.6,0.4,1.2,1,1.7,1.5c0.1,0.1,0.1,0.3,0,0.5l-0.1,0.2c-0.2,0.3-0.9-0.5-1.1-1l-0.6-0.7c-0.4-0.3-0.8-0.5-1.2-0.7
			c-0.6-0.3-1.3-0.6-1.7-0.9s-1.4-0.7-1.7-1.1s-0.7-0.5-0.8-0.9c-0.1-0.1-0.1-0.3-0.1-0.5c0-1,1.5-1.7,2-2c0.4-0.3,0.8-0.6,1.2-0.9
			c0.3-0.2,0.6-0.5,0.7-0.9c-0.5-0.1-1,0-1.4,0.2s-0.9,0.4-1.3,0.6c-1.2,0.8-2.3,1.8-3.2,3c-0.2,0.3-0.7,0.8-0.9,1.1
			c-0.3,0.4-0.2,0.5-0.4,0.8c0,0.1-0.1,0.2-0.2,0.3c-0.1,0.1-0.2,0.2-0.4,0.3c-0.3,0.2-0.7,0-0.9-0.3l0,0c-0.3-0.7,0.1-1.4,0.5-2.2
			c0.2-0.3,0.3-0.7,0.6-1c0-0.1,0.1-0.2,0.1-0.3c0-0.5,0.6-0.8,0.7-1.3v-0.1c0.4-1,1-2.2,1.5-3.4c0.7-1.6,1.2-2.8,1.6-4
			c0.2-0.5,0.3-0.6,0.5-1.2c0.1-0.4,0.2-0.9,0.3-1.4C101.4,5.2,101.7,4.7,102,4.7z"/>
	</g>
</g>
</svg>
