<?xml version="1.0" encoding="utf-8"?>
<!-- Generator: Adobe Illustrator 22.1.0, SVG Export Plug-In . SVG Version: 6.00 Build 0)  -->
<svg version="1.1" id="Layer_1" xmlns="http://www.w3.org/2000/svg" xmlns:xlink="http://www.w3.org/1999/xlink" x="0px" y="0px"
	 viewBox="0 0 960 600" style="enable-background:new 0 0 960 600;" xml:space="preserve">
<style type="text/css">
	.st0{fill:#844D9E;}
	.st1{fill:#ED0E7B;}
	.st2{fill:#0095DA;}
</style>
<g transform="translate(480,300)scale(1,1)">
	<g>
		<path class="st0" d="M97.9,34.5l15.8,27.4l-7,4.1L90.8,38.6L97.9,34.5z"/>
		<path class="st0" d="M125.3,40.8l-8.8,5.1l2.8,4.9c0.6,1,1,1.6,1.4,1.8c0.3,0.2,0.7,0.2,1.1,0c0.5-0.3,0.8-0.7,0.7-1.2
			c-0.1-0.5-0.4-1.3-1-2.4l-1.7-3l6.5-3.7l1,1.7c0.8,1.4,1.3,2.5,1.6,3.3c0.3,0.8,0.3,1.9,0.2,3.1c-0.2,1.2-0.6,2.3-1.3,3.3
			c-0.7,1-1.9,1.9-3.3,2.8c-1.4,0.8-2.8,1.4-4.2,1.6c-1.3,0.2-2.5,0.1-3.6-0.2c-1-0.4-1.9-0.9-2.7-1.7c-0.7-0.7-1.6-1.9-2.6-3.6
			l-3.8-6.5c-1.1-2-1.8-3.7-1.9-5.1c-0.1-1.4,0.2-2.8,1.1-4.1c0.9-1.3,2.1-2.4,3.6-3.3c1.9-1.1,3.7-1.7,5.4-1.6s3.1,0.5,4.3,1.4
			c1.2,0.9,2.4,2.5,3.7,4.6L125.3,40.8z M116.4,41.1l-0.9-1.6c-0.7-1.2-1.2-1.9-1.5-2.1c-0.3-0.3-0.7-0.3-1.1-0.1
			c-0.5,0.3-0.7,0.6-0.6,0.9c0.1,0.4,0.4,1.2,1.2,2.4l0.9,1.6L116.4,41.1z"/>
		<path class="st0" d="M132,33l-6.4,3.7l-0.9-1.5c-1-1.7-1.6-3.2-1.7-4.4c-0.1-1.2,0.2-2.5,1-3.9c0.8-1.4,2.1-2.7,4.1-3.8
			c2.3-1.3,4.3-1.9,5.9-1.8c1.6,0.1,2.9,0.7,3.9,1.8s2.5,3.4,4.6,7.1l6.5,11.3l-6.6,3.8l-1.2-2c0,1-0.1,2-0.6,2.7s-1.1,1.4-2,2
			c-1.2,0.7-2.5,1-3.9,0.9c-1.4-0.1-2.7-1.3-4-3.5l-1.1-1.8c-1-1.7-1.4-3-1.2-3.9c0.2-0.9,1.1-2.4,2.7-4.4c1.7-2.2,2.6-3.5,2.6-3.9
			c0-0.4-0.3-1.1-0.8-2c-0.7-1.2-1.2-1.9-1.6-2.1c-0.4-0.3-0.8-0.3-1.2,0c-0.5,0.3-0.7,0.6-0.6,0.9c0.1,0.4,0.5,1.2,1.2,2.4L132,33z
			 M135.9,34.8c-0.6,1.4-0.9,2.5-0.7,3.1c0.1,0.6,0.5,1.5,1.1,2.5c0.7,1.2,1.2,1.9,1.5,2.1c0.3,0.2,0.7,0.2,1.2,0
			c0.4-0.2,0.6-0.5,0.6-0.9c0-0.3-0.4-1.1-1-2.2L135.9,34.8z"/>
		<path class="st0" d="M145.2,13.8l1.4,3.1c-0.2-2.7,0.6-4.6,2.4-5.8l4.6,7.9c-1.3,0.7-2.1,1.4-2.5,2.1c-0.4,0.7-0.5,1.4-0.3,2
			c0.2,0.7,0.9,2.1,2.2,4.3l5.1,8.9l-6.8,3.9l-13-22.4L145.2,13.8z"/>
		<path class="st0" d="M157.7,6.6l1.1,2.1c0-1.1,0.3-2.1,0.7-2.9c0.5-0.8,1.2-1.5,2.1-2c1.2-0.7,2.3-1,3.4-0.8
			c1.1,0.1,1.9,0.5,2.6,1.3c0.7,0.7,1.6,2.1,2.7,4l9.1,15.7l-6.8,3.9l-9-15.5c-0.9-1.5-1.5-2.5-1.8-2.7s-0.7-0.3-1.1,0
			c-0.5,0.3-0.7,0.7-0.6,1.1s0.6,1.5,1.6,3.2l8.8,15.2l-6.8,3.9l-13-22.4L157.7,6.6z"/>
	</g>
	<g>
		<path class="st1" d="M202.4,141.8l17.3,10c2.3,1.3,3.8,2.3,4.4,2.8c0.6,0.5,1.1,1.3,1.5,2.4c0.4,1.1,0.4,2.3,0.2,3.7
			s-0.9,3-1.9,4.8c-1.3,2.2-2.6,3.7-4.1,4.6s-3.3,0.7-5.5-0.5l3.8-6.6c1,0.6,1.7,0.5,2.1-0.2c0.3-0.5,0.3-1,0.1-1.3
			c-0.2-0.3-0.8-0.8-1.8-1.4l-1.7-1c0.2,0.9,0.2,1.7,0.1,2.5c-0.1,0.8-0.4,1.6-0.8,2.3c-0.7,1.2-1.5,2.1-2.5,2.6
			c-1,0.5-1.9,0.7-2.9,0.5c-1-0.2-2.2-0.7-3.7-1.5l-8.2-4.7c-2.1-1.2-3.4-2.5-3.9-3.8c-0.5-1.3-0.3-2.7,0.6-4.3
			c0.5-0.9,1.1-1.5,1.9-2c0.8-0.5,1.6-0.8,2.7-1l-1.4-1.5L202.4,141.8z M204.4,152c-1-0.6-1.7-0.9-2.1-1c-0.3,0-0.6,0.1-0.9,0.5
			c-0.2,0.4-0.2,0.8,0,1.1c0.2,0.3,0.8,0.8,1.8,1.3l7.5,4.4c1,0.6,1.7,0.9,2.1,0.9c0.4,0,0.7-0.1,0.9-0.5c0.3-0.5,0.2-0.8,0-1.2
			s-1.1-0.9-2.3-1.6L204.4,152z"/>
		<path class="st1" d="M220.7,128.4l5.5,3.2c2,1.2,3.4,2.1,4.3,2.9c0.8,0.7,1.5,1.7,1.9,2.8s0.5,2.3,0.3,3.6
			c-0.2,1.3-0.7,2.6-1.5,3.9c-0.9,1.5-1.8,2.7-2.7,3.6c-0.9,0.9-1.9,1.4-2.9,1.6c-1,0.2-2.1,0.1-3.2-0.2c-1.1-0.3-2.6-1-4.5-2.1
			l-5.8-3.3c-2.1-1.2-3.6-2.4-4.5-3.5c-0.9-1.1-1.4-2.5-1.4-4.1c0-1.6,0.5-3.3,1.5-5.1c0.9-1.5,1.9-2.7,3-3.6s2.2-1.3,3.3-1.5
			c1.1-0.2,2.1-0.1,3,0.1C217.8,126.9,219.1,127.5,220.7,128.4z M215,134.3c-1.2-0.7-1.9-1-2.3-1.1c-0.4,0-0.7,0.1-0.9,0.5
			c-0.2,0.4-0.2,0.8,0,1.1c0.2,0.3,0.9,0.8,2.1,1.5l10.1,5.8c1.1,0.6,1.8,0.9,2.2,1c0.4,0,0.7-0.1,0.9-0.5c0.2-0.4,0.2-0.8,0-1.1
			s-0.8-0.7-1.8-1.3L215,134.3z"/>
		<path class="st1" d="M226.3,120.5l-3.7,6.4l-1.5-0.9c-1.7-1-3-2-3.7-2.9c-0.7-0.9-1.1-2.2-1.1-3.9c0-1.6,0.5-3.4,1.6-5.3
			c1.3-2.3,2.7-3.8,4.2-4.5c1.5-0.7,2.9-0.8,4.2-0.4c1.3,0.5,3.8,1.7,7.6,3.9l11.3,6.5l-3.8,6.6l-2-1.2c0.6,0.9,0.9,1.8,0.9,2.7
			c0,0.9-0.2,1.8-0.8,2.7c-0.7,1.2-1.7,2.1-2.9,2.7s-3,0.3-5.3-1l-1.8-1.1c-1.7-1-2.7-1.9-3-2.8c-0.3-0.9-0.3-2.6,0.1-5.2
			c0.4-2.8,0.5-4.3,0.3-4.6s-0.8-0.8-1.7-1.3c-1.2-0.7-2-1-2.4-1.1c-0.5,0-0.8,0.2-1,0.6c-0.3,0.5-0.3,0.8,0,1.1
			c0.2,0.3,1,0.8,2.2,1.5L226.3,120.5z M230.6,120.1c0.2,1.6,0.5,2.6,0.9,3.1c0.4,0.5,1.2,1,2.2,1.6c1.2,0.7,2,1,2.4,1.1
			s0.8-0.2,1-0.6c0.2-0.4,0.3-0.8,0.1-1.1c-0.2-0.3-0.8-0.8-2-1.4L230.6,120.1z"/>
		<path class="st1" d="M223.3,94.3l27.4,15.8l-4.1,7l-27.4-15.8L223.3,94.3z"/>
		<path class="st1" d="M244.9,84.9l-3.5,6.1l-1.2-0.7c-1-0.6-1.7-0.9-2.1-1c-0.3,0-0.7,0.2-0.9,0.6c-0.2,0.4-0.3,0.7-0.1,1.1
			c0.1,0.3,0.5,0.7,1,0.9c0.7,0.4,1.2,0.6,1.6,0.7s0.9,0,1.6-0.3c0.7-0.3,1.8-0.9,3.4-2c2.1-1.4,3.8-2.2,5-2.3s2.6,0.3,4.3,1.2
			c1.8,1.1,3.1,2.1,3.7,3.1c0.7,1,0.9,2.2,0.8,3.6c-0.1,1.4-0.7,2.9-1.6,4.5c-1,1.7-2.1,3.1-3.4,4c-1.3,0.9-2.5,1.3-3.7,1.3
			c-1.2-0.1-2.7-0.6-4.6-1.7l-1.1-0.6l3.5-6.1l1.4,0.8c1.2,0.7,2,1.1,2.5,1.1s0.8-0.1,1.1-0.6c0.3-0.5,0.4-0.9,0.2-1.2
			c-0.1-0.3-0.6-0.7-1.4-1.2c-1.1-0.6-1.8-0.9-2.2-0.8c-0.4,0.1-2,1-4.7,2.6c-2.3,1.4-4,2-5.2,1.9c-1.2-0.1-2.4-0.5-3.7-1.2
			c-1.8-1-3-2-3.6-3c-0.6-1-0.8-2.1-0.6-3.5c0.2-1.4,0.7-2.9,1.6-4.4c0.9-1.5,1.8-2.6,2.8-3.5c1-0.8,1.9-1.3,2.9-1.5s1.7-0.2,2.3,0
			c0.6,0.2,1.5,0.6,2.6,1.3L244.9,84.9z"/>
	</g>
	<g>
		<path d="M-306.1-67.8l-56.8,32.8l-8.2-14.2l3.4-2c-2.2-0.5-4.1-1.4-5.6-2.5c-1.6-1.1-2.8-2.5-3.8-4.1c-1.3-2.2-1.8-4.4-1.6-6.7
			c0.2-2.3,1-4.1,2.2-5.4c1.3-1.3,3.6-3,7-5l21.8-12.6c3.6-2.1,6.2-3.3,8-3.7s3.7-0.1,5.8,0.9c2.1,1,3.8,2.6,5.1,4.9
			c1,1.8,1.6,3.5,1.8,5.4c0.2,1.8,0,3.7-0.5,5.6l13.2-7.6L-306.1-67.8z M-336.2-69.2c1.7-1,2.8-1.8,3.2-2.4c0.4-0.6,0.4-1.4-0.1-2.2
			c-0.5-0.8-1.1-1.3-1.8-1.2s-2,0.5-3.8,1.6l-22.8,13.2c-1.9,1.1-3.1,2-3.5,2.6c-0.4,0.6-0.4,1.3,0,2.1c0.5,0.9,1.2,1.3,2.1,1.2
			s2.6-0.9,5.2-2.4L-336.2-69.2z"/>
		<path d="M-324.1-33.7l-7.7-13.3l3.1-1.8c3.6-2.1,6.6-3.3,9.1-3.6s5.1,0.4,8.1,2c2.9,1.6,5.6,4.5,7.9,8.5c2.8,4.8,4,8.9,3.7,12.3
			c-0.3,3.4-1.5,6.1-3.7,8c-2.2,1.9-7.1,5.1-14.8,9.5l-23.4,13.5l-8-13.8l4.1-2.4c-2.2,0.1-4.1-0.3-5.7-1.2c-1.6-0.9-3-2.3-4.1-4.2
			c-1.4-2.5-2-5.2-1.9-8c0.2-2.9,2.6-5.7,7.3-8.4l3.8-2.2c3.5-2,6.2-2.8,8.1-2.5c1.9,0.4,4.9,2.2,9.1,5.6c4.5,3.6,7.2,5.4,8,5.3
			c0.8,0,2.2-0.6,4.1-1.7c2.4-1.4,3.9-2.5,4.4-3.3c0.5-0.8,0.5-1.6,0.1-2.4c-0.6-1-1.2-1.4-2-1.3c-0.8,0.1-2.4,0.9-5,2.4
			L-324.1-33.7z M-327.9-25.5c-3-1.3-5.1-1.8-6.5-1.5c-1.3,0.3-3.1,1-5.2,2.3c-2.4,1.4-3.9,2.4-4.4,3.2c-0.5,0.7-0.5,1.5,0,2.5
			c0.5,0.9,1.1,1.3,1.8,1.3c0.7,0,2.2-0.7,4.6-2.1L-327.9-25.5z"/>
		<path d="M-284.1-6.1l-4.4,2.2c2.3,0,4.3,0.6,6,1.6c1.7,1,3.1,2.5,4.3,4.4c1.4,2.4,2,4.8,1.7,7c-0.3,2.2-1.1,4-2.6,5.5
			c-1.5,1.5-4.3,3.4-8.3,5.7l-32.6,18.8l-8.2-14.2l32.3-18.6c3.2-1.9,5.1-3.1,5.7-3.7c0.6-0.6,0.6-1.4,0-2.4c-0.6-1-1.3-1.4-2.3-1.2
			c-1,0.2-3.2,1.3-6.7,3.4l-31.5,18.2L-339,6.4l46.6-26.9L-284.1-6.1z"/>
		<path d="M-270.2,58.6l-7.7-13.4l5.4-3.1c1.9-1.1,3.1-2,3.5-2.7c0.5-0.7,0.5-1.4,0-2.3c-0.5-0.8-1.1-1.2-1.8-1.1s-2.1,0.7-4.2,1.8
			l-22,12.7c-1.7,1-2.8,1.9-3.4,2.8c-0.6,0.9-0.6,1.8-0.2,2.6c0.6,1,1.4,1.4,2.4,1.2c1.1-0.2,2.8-0.9,5.2-2.3l5.5-3.2l7.3,12.6
			c-3.7,2.1-6.6,3.6-8.6,4.4c-2,0.8-4.4,1.1-7.1,1c-2.7-0.2-5.2-1.1-7.4-2.6c-2.2-1.6-4.2-3.9-6.1-7c-2.3-4-3.5-7.6-3.4-10.7
			c0-3.1,1-5.9,2.9-8.3c1.9-2.4,5.1-4.9,9.7-7.5l13.2-7.6c4-2.3,7.2-3.6,9.6-4c2.5-0.4,5.2,0.3,8.3,2c3.1,1.7,5.7,4.4,7.8,8.1
			c2.1,3.7,3.2,7.3,3.1,10.8c-0.1,3.5-1,6.4-2.9,8.7C-262.7,53.6-265.9,56-270.2,58.6z"/>
		<path d="M-255.8,98.7l-10.6-18.4l-10.1,5.8c-2.1,1.2-3.4,2.2-3.8,2.8c-0.4,0.7-0.4,1.4,0.1,2.3c0.6,1.1,1.4,1.6,2.5,1.5
			c1-0.1,2.7-0.8,5-2.2l6.1-3.5l7.8,13.4l-3.4,2c-2.9,1.7-5.2,2.8-6.9,3.3s-3.9,0.6-6.4,0.3c-2.5-0.3-4.8-1.3-6.9-2.8
			c-2.1-1.5-4-3.9-5.8-6.9c-1.7-3-2.8-5.9-3.3-8.7c-0.5-2.8-0.3-5.3,0.5-7.4c0.8-2.1,1.9-4,3.5-5.5c1.5-1.5,4-3.3,7.5-5.3l13.6-7.8
			c4.1-2.4,7.6-3.7,10.6-3.9s5.8,0.5,8.5,2.3c2.7,1.8,5,4.3,6.9,7.5c2.3,4,3.4,7.7,3.4,11.2c0,3.5-1,6.4-2.9,8.9
			c-1.9,2.5-5.1,5-9.6,7.6L-255.8,98.7z M-256.4,80.1l3.4-2c2.4-1.4,3.9-2.4,4.4-3.1c0.6-0.7,0.6-1.4,0.1-2.2
			c-0.6-1-1.2-1.4-1.9-1.3c-0.7,0.1-2.4,0.9-5,2.4l-3.4,2L-256.4,80.1z"/>
	</g>
	<g>
		<path d="M-148.6-165.7L-187.7-98l-16.9-9.8l2.3-4c-2.6,0.7-5,1-7.3,0.8c-2.3-0.2-4.4-0.9-6.3-2c-2.6-1.5-4.5-3.5-5.6-6
			c-1.1-2.5-1.4-4.8-0.9-6.9s1.9-5.2,4.3-9.3l15-26c2.5-4.3,4.5-7.1,6.1-8.6c1.6-1.5,3.7-2.3,6.5-2.5c2.7-0.2,5.5,0.4,8.2,2
			c2.1,1.2,3.8,2.7,5.1,4.5c1.3,1.8,2.2,3.8,2.8,6.1l9.1-15.8L-148.6-165.7z M-180.6-149.3c1.2-2,1.8-3.5,1.8-4.4
			c0.1-0.9-0.4-1.6-1.5-2.2c-1-0.6-1.9-0.7-2.6-0.2c-0.7,0.4-1.7,1.7-3,3.9l-15.7,27.2c-1.3,2.3-2,3.8-2.1,4.7
			c-0.1,0.9,0.4,1.6,1.3,2.2c1.1,0.6,2,0.6,2.9,0.1c0.8-0.6,2.1-2.4,3.9-5.5L-180.6-149.3z"/>
		<path d="M-132.6-140.3l-4.9,6.9c5.5-3.8,10.6-4.5,15.5-2.1l-11.3,19.5c-3.1-1.8-5.6-2.7-7.5-2.7c-1.9,0-3.5,0.6-4.7,1.9
			c-1.2,1.3-3.4,4.6-6.5,10l-12.7,21.9l-16.9-9.8l32.1-55.6L-132.6-140.3z"/>
		<path d="M-97.2-81.4l-21.9-12.6l-6.9,12c-1.5,2.5-2.2,4.2-2.3,5.2c-0.1,0.9,0.4,1.7,1.5,2.3c1.3,0.7,2.4,0.8,3.4,0
			c1-0.7,2.3-2.5,3.9-5.2l4.2-7.3l16,9.3l-2.4,4.1c-2,3.4-3.7,5.9-5.2,7.5c-1.5,1.6-3.6,3-6.4,4.2s-5.7,1.6-8.8,1.2
			c-3-0.4-6.4-1.6-10.1-3.7c-3.6-2.1-6.4-4.4-8.6-7c-2.1-2.6-3.4-5.3-3.9-7.9c-0.5-2.7-0.4-5.3,0.3-7.8c0.7-2.5,2.2-5.8,4.6-9.9
			l9.4-16.2c2.8-4.9,5.7-8.3,8.6-10.4c2.9-2,6.3-3,10.2-2.7c3.8,0.2,7.7,1.5,11.6,3.7c4.7,2.7,8.1,5.9,10.2,9.5s2.8,7.2,2.4,10.9
			c-0.5,3.7-2.3,8.2-5.4,13.6L-97.2-81.4z M-108.9-100.3l2.3-4.1c1.7-2.9,2.6-4.8,2.8-5.8c0.2-1-0.2-1.8-1.2-2.3
			c-1.2-0.7-2.1-0.7-2.8-0.2c-0.7,0.5-1.9,2.4-3.7,5.5l-2.3,4.1L-108.9-100.3z"/>
		<path d="M-72.3-76.8l-15.9-9.2l2.2-3.7c2.5-4.3,4.9-7.3,7.2-9.1c2.3-1.8,5.5-2.7,9.5-2.7c4-0.1,8.4,1.3,13.2,4
			c5.7,3.3,9.4,6.8,11.2,10.5c1.7,3.7,2,7.2,0.9,10.5c-1.1,3.3-4.3,9.5-9.6,18.7l-16.1,27.9l-16.5-9.5l2.9-5
			c-2.2,1.4-4.4,2.1-6.6,2.2s-4.4-0.6-6.7-1.9c-3-1.7-5.2-4.1-6.7-7.2c-1.5-3.1-0.6-7.4,2.6-13l2.6-4.6c2.4-4.2,4.7-6.6,6.9-7.4
			c2.2-0.8,6.4-0.6,12.8,0.4c6.8,1,10.6,1.3,11.5,0.8c0.8-0.5,1.9-2,3.2-4.3c1.7-2.9,2.6-4.9,2.6-6c0.1-1.1-0.4-2-1.4-2.6
			c-1.1-0.7-2.1-0.7-2.8-0.1c-0.7,0.6-2,2.4-3.7,5.5L-72.3-76.8z M-71.4-66c-3.9,0.4-6.4,1.2-7.6,2.3c-1.2,1.1-2.5,2.9-4,5.4
			c-1.7,2.9-2.5,4.8-2.6,5.9c-0.1,1.1,0.4,1.9,1.5,2.5c1.1,0.6,1.9,0.7,2.6,0.2c0.7-0.5,1.9-2.1,3.5-4.9L-71.4-66z"/>
		<path d="M-15.1-72.4l-3.3,5.1c2.5-1.3,5-2,7.4-2c2.4,0,4.8,0.7,7.1,2c4.5,2.6,6.9,6.8,7,12.5c2.6-1.3,5.1-1.9,7.5-1.9
			c2.4,0,4.7,0.6,6.9,1.9c2.9,1.7,4.9,3.7,5.9,6.2c1.1,2.5,1.3,4.9,0.7,7.2c-0.6,2.3-2.3,5.8-4.9,10.3L-3.6,8.3L-20-1.2L0.9-37.4
			c2.7-4.7,4.3-7.8,4.6-9.1c0.3-1.3-0.1-2.3-1.3-3C3-50.2,1.9-50,0.9-49.1c-1,0.9-2.9,3.8-5.6,8.5L-25.6-4.4L-42-13.9l20.4-35.3
			c3.1-5.4,4.9-8.8,5.3-10c0.4-1.2-0.1-2.2-1.3-2.9c-0.8-0.4-1.6-0.5-2.4-0.3c-0.9,0.3-1.6,0.8-2.1,1.6c-0.5,0.8-1.6,2.5-3.1,5.2
			L-47.5-17l-16.4-9.5l32.1-55.6L-15.1-72.4z"/>
	</g>
	<g>
		<path class="st1" d="M-432.3-46.7l27.4,15.8l-4.1,7l-27.4-15.8L-432.3-46.7z"/>
		<path class="st1" d="M-405.4-55.1l-5.1,8.8l4.9,2.8c1,0.6,1.7,0.9,2.1,0.9c0.4,0,0.7-0.2,0.9-0.6c0.3-0.5,0.3-1,0-1.4
			c-0.3-0.4-1-0.9-2.1-1.6l-3-1.7l3.7-6.5l1.7,1c1.4,0.8,2.4,1.5,3,2.1c0.6,0.6,1.2,1.5,1.7,2.6c0.5,1.1,0.6,2.3,0.5,3.5
			c-0.1,1.2-0.6,2.6-1.5,4.1c-0.8,1.4-1.8,2.6-2.8,3.5c-1.1,0.9-2.1,1.4-3.2,1.6c-1.1,0.2-2.1,0.2-3.1-0.1s-2.4-0.9-4-1.8l-6.5-3.8
			c-2-1.1-3.4-2.3-4.2-3.5c-0.8-1.2-1.2-2.6-1.1-4.1c0.1-1.6,0.6-3.1,1.5-4.7c1.1-1.9,2.4-3.3,3.8-4.1c1.4-0.8,2.9-1.1,4.4-1
			c1.5,0.2,3.3,0.9,5.5,2.2L-405.4-55.1z M-413-50.4l-1.6-0.9c-1.2-0.7-1.9-1-2.4-1.1c-0.4-0.1-0.7,0.1-0.9,0.5
			c-0.3,0.5-0.3,0.9-0.1,1.1c0.2,0.3,1,0.8,2.2,1.5l1.6,0.9L-413-50.4z"/>
		<path class="st1" d="M-403.5-65.1l-3.7,6.4l-1.5-0.9c-1.7-1-3-2-3.7-2.9c-0.7-0.9-1.1-2.2-1.1-3.9c0-1.6,0.5-3.4,1.6-5.3
			c1.3-2.3,2.7-3.8,4.2-4.5c1.5-0.7,2.9-0.8,4.2-0.4c1.3,0.5,3.8,1.7,7.6,3.9l11.3,6.5l-3.8,6.6l-2-1.2c0.6,0.9,0.9,1.8,0.9,2.7
			c0,0.9-0.2,1.8-0.8,2.7c-0.7,1.2-1.7,2.1-2.9,2.7c-1.2,0.6-3,0.3-5.3-1l-1.8-1.1c-1.7-1-2.7-1.9-3-2.8s-0.3-2.6,0.1-5.2
			c0.4-2.8,0.5-4.3,0.3-4.6c-0.2-0.3-0.8-0.8-1.7-1.3c-1.2-0.7-2-1-2.4-1.1s-0.8,0.2-1,0.6c-0.3,0.5-0.3,0.8,0,1.1
			c0.2,0.3,1,0.8,2.2,1.5L-403.5-65.1z M-399.1-65.5c0.2,1.6,0.5,2.6,0.9,3.1s1.2,1,2.2,1.6c1.2,0.7,2,1,2.4,1.1s0.8-0.2,1-0.6
			c0.2-0.4,0.3-0.8,0.1-1.1c-0.2-0.3-0.8-0.7-2-1.4L-399.1-65.5z"/>
		<path class="st1" d="M-401.6-99.9l27.4,15.8l-3.9,6.8l-1.6-0.9c0.3,1,0.4,2,0.3,2.9c-0.1,0.9-0.3,1.8-0.8,2.6
			c-0.6,1.1-1.4,1.8-2.4,2.3c-1,0.5-1.9,0.6-2.8,0.4c-0.9-0.2-2.1-0.8-3.8-1.7l-10.5-6.1c-1.7-1-2.9-1.8-3.5-2.4s-0.9-1.5-1-2.6
			c-0.1-1.1,0.2-2.2,0.8-3.3c0.5-0.8,1.1-1.5,1.8-2.1c0.7-0.5,1.5-0.9,2.5-1.1l-6.4-3.7L-401.6-99.9z M-394.9-86.9
			c-0.8-0.5-1.4-0.7-1.8-0.7s-0.7,0.2-0.9,0.6c-0.2,0.4-0.3,0.8-0.1,1c0.2,0.3,0.7,0.7,1.6,1.2l11,6.3c0.9,0.5,1.6,0.8,1.9,0.8
			c0.4,0,0.7-0.1,0.9-0.5c0.3-0.4,0.3-0.8,0-1.2c-0.2-0.3-1-0.9-2.2-1.6L-394.9-86.9z"/>
		<path class="st1" d="M-374.7-108.3l-5.1,8.8l4.9,2.8c1,0.6,1.7,0.9,2.1,0.9c0.4,0,0.7-0.2,0.9-0.6c0.3-0.5,0.3-1,0-1.4
			s-1-0.9-2.1-1.6l-3-1.7l3.7-6.5l1.7,1c1.4,0.8,2.4,1.5,3,2.1c0.6,0.6,1.2,1.5,1.7,2.6c0.5,1.1,0.6,2.3,0.5,3.5
			c-0.1,1.2-0.6,2.6-1.5,4.1c-0.8,1.4-1.8,2.6-2.8,3.5c-1.1,0.9-2.1,1.4-3.2,1.6c-1.1,0.2-2.1,0.2-3.1-0.1s-2.4-0.9-4-1.8l-6.5-3.8
			c-2-1.1-3.4-2.3-4.2-3.5c-0.8-1.2-1.2-2.6-1.1-4.1c0.1-1.6,0.6-3.1,1.5-4.7c1.1-1.9,2.4-3.3,3.8-4.1c1.4-0.8,2.9-1.1,4.4-1
			c1.5,0.2,3.3,0.9,5.5,2.2L-374.7-108.3z M-382.3-103.5l-1.6-0.9c-1.2-0.7-1.9-1-2.4-1.1c-0.4-0.1-0.7,0.1-0.9,0.5
			c-0.3,0.5-0.3,0.9-0.1,1.1c0.2,0.3,1,0.8,2.2,1.5l1.6,0.9L-382.3-103.5z"/>
		<path class="st1" d="M-381.1-124l2.8,2c-1.5-2.2-1.8-4.3-0.9-6.3l7.9,4.6c-0.7,1.3-1.1,2.3-1.1,3.1c0,0.8,0.3,1.4,0.8,1.9
			s1.9,1.4,4.1,2.6l8.9,5.1l-3.9,6.8l-22.4-13L-381.1-124z"/>
		<path class="st1" d="M-362.6-139.4l-3.5,6.1l-1.2-0.7c-1-0.6-1.7-0.9-2.1-1s-0.7,0.2-0.9,0.6c-0.2,0.4-0.3,0.7-0.1,1.1
			c0.1,0.3,0.5,0.7,1,0.9c0.7,0.4,1.2,0.6,1.6,0.7s0.9,0,1.6-0.3c0.7-0.3,1.8-0.9,3.4-2c2.1-1.4,3.8-2.2,5-2.3
			c1.2-0.1,2.6,0.3,4.3,1.2c1.8,1.1,3.1,2.1,3.7,3.1s0.9,2.2,0.8,3.6c-0.1,1.4-0.7,2.9-1.6,4.5c-1,1.7-2.1,3.1-3.4,4
			c-1.3,0.9-2.5,1.3-3.7,1.3s-2.7-0.6-4.6-1.7l-1.1-0.6l3.5-6.1l1.4,0.8c1.2,0.7,2,1.1,2.5,1.1c0.4,0.1,0.8-0.1,1.1-0.6
			c0.3-0.5,0.4-0.9,0.2-1.2c-0.1-0.3-0.6-0.7-1.4-1.2c-1.1-0.6-1.8-0.9-2.2-0.8c-0.4,0.1-2,1-4.7,2.6c-2.3,1.4-4,2-5.2,1.9
			c-1.2-0.1-2.4-0.5-3.7-1.2c-1.8-1-3-2-3.6-3s-0.8-2.1-0.6-3.5c0.2-1.4,0.7-2.9,1.6-4.4c0.9-1.5,1.8-2.6,2.8-3.5
			c1-0.8,1.9-1.3,2.9-1.5c0.9-0.2,1.7-0.2,2.3,0c0.6,0.2,1.5,0.6,2.6,1.3L-362.6-139.4z"/>
		<path class="st1" d="M-369.4-155.6l6.2,3.6c-0.2-0.9-0.2-1.8-0.1-2.6c0.1-0.8,0.4-1.6,0.9-2.4c0.7-1.2,1.6-2,2.7-2.5
			c1.1-0.5,2.1-0.6,3-0.3s2.4,1,4.5,2.2l15.5,8.9l-3.9,6.8l-15.8-9.1c-1.3-0.8-2.2-1.2-2.6-1.3c-0.4-0.1-0.8,0.1-1.1,0.5
			c-0.2,0.4-0.2,0.8,0.1,1.2c0.3,0.4,1,0.9,2.2,1.5l16,9.2l-3.9,6.8l-27.4-15.8L-369.4-155.6z"/>
		<path class="st1" d="M-358.8-173.9l3.6,2.1l-4.1,7l-3.6-2.1L-358.8-173.9z M-353.9-171.1l22.4,13l-4.1,7l-22.4-13L-353.9-171.1z"
			/>
		<path class="st1" d="M-348.5-180.5l1.9,1.3c-0.5-1.1-0.7-2.1-0.6-3c0-1,0.3-1.9,0.8-2.7c0.6-1.1,1.4-1.8,2.4-2.3s2-0.5,2.8-0.3
			c0.9,0.2,2.2,0.9,4,1.9l9.5,5.5c2,1.2,3.4,2.1,4.1,2.9c0.7,0.7,1.1,1.6,1.2,2.7c0.1,1-0.2,2.1-0.8,3.2c-0.5,0.8-1.1,1.5-2,2
			c-0.8,0.5-1.8,0.8-2.9,1l5.1,3l-3.9,6.8l-25.6-14.8L-348.5-180.5z M-340.8-178.7c-1.4-0.8-2.3-1.2-2.6-1.3s-0.7,0.1-0.9,0.6
			c-0.3,0.5-0.3,0.8,0,1.2c0.3,0.3,1,0.9,2.3,1.6l9.3,5.4c1.4,0.8,2.2,1.2,2.7,1.3c0.4,0.1,0.8-0.1,1-0.6c0.3-0.4,0.3-0.8,0-1.1
			c-0.2-0.3-1-0.8-2.2-1.5L-340.8-178.7z"/>
	</g>
	<g>
		<path class="st0" d="M154.8-126.6v4c-1.6,0-2.6,0.1-2.9,0.2s-0.4,0.6-0.4,1.3v0.8h3.3v4.1h-1.9V-95H145v-21.2h-1.6v-4.1h1.6
			c0-1.7,0.1-2.8,0.2-3.4s0.4-1.1,0.9-1.5c0.5-0.4,1.1-0.8,1.9-1c0.8-0.2,2.1-0.4,3.9-0.4H154.8z"/>
		<path class="st0" d="M174.3-120.9V-95h-8l0.1-2.2c-0.5,0.9-1.2,1.5-2,2c-0.8,0.4-1.7,0.7-2.8,0.7c-1.2,0-2.2-0.2-2.9-0.6
			s-1.4-1-1.7-1.7s-0.6-1.4-0.7-2.2c-0.1-0.7-0.1-2.2-0.1-4.5v-17.5h7.9v17.6c0,2,0.1,3.2,0.2,3.6c0.1,0.4,0.5,0.6,1,0.6
			c0.6,0,0.9-0.2,1-0.6c0.1-0.4,0.2-1.6,0.2-3.8v-17.4H174.3z"/>
		<path class="st0" d="M185.2-120.9l-0.1,2.4c0.6-1,1.3-1.7,2.1-2.1c0.8-0.5,1.8-0.7,2.9-0.7c1.4,0,2.5,0.3,3.3,1s1.4,1.4,1.7,2.4
			c0.2,1,0.4,2.6,0.4,4.9V-95h-7.9v-17.9c0-1.8-0.1-2.9-0.2-3.3s-0.4-0.6-1-0.6c-0.6,0-0.9,0.2-1.1,0.7c-0.1,0.4-0.2,1.7-0.2,3.6
			V-95h-7.9v-25.9H185.2z"/>
	</g>
	<g>
		<path class="st2" d="M-262.7-150.6l-8.8,5.1l2.6,4.6l-8.8,5.1l-2.6-4.6l-29.7,17.2c-3.7,2.1-5.6,3.5-5.8,4.1
			c-0.2,0.6,0.5,2.3,2.1,5.1l-9,5.2l-3.9-6.8c-2.2-3.9-3.7-6.7-4.3-8.5c-0.6-1.8-0.7-3.7-0.3-5.6c0.4-1.9,1.3-3.5,2.6-4.6
			c1.3-1.2,4.7-3.3,10.3-6.5l28.2-16.3l-2.1-3.6l8.8-5.1l2.1,3.6l8.8-5.1L-262.7-150.6z"/>
		<path class="st2" d="M-271.9-83.1l-12.6-21.9l-12,6.9c-2.5,1.5-4,2.6-4.5,3.3c-0.5,0.8-0.5,1.7,0.1,2.7c0.7,1.3,1.7,1.9,2.9,1.7
			c1.2-0.1,3.2-1,6-2.6l7.3-4.2l9.3,16l-4.1,2.4c-3.4,2-6.2,3.3-8.3,3.9c-2.1,0.6-4.6,0.8-7.7,0.4s-5.7-1.5-8.2-3.3
			c-2.5-1.8-4.7-4.6-6.9-8.3c-2.1-3.6-3.4-7-3.9-10.4c-0.5-3.3-0.4-6.3,0.6-8.8c0.9-2.6,2.3-4.8,4.1-6.6c1.8-1.8,4.8-3.9,8.9-6.3
			l16.2-9.4c4.9-2.8,9.1-4.4,12.6-4.7c3.6-0.3,7,0.6,10.2,2.7c3.2,2.1,5.9,5.1,8.2,9c2.7,4.7,4.1,9.2,4.1,13.3
			c0,4.1-1.2,7.7-3.4,10.6c-2.3,3-6.1,6-11.5,9.1L-271.9-83.1z M-272.7-105.3l4.1-2.3c2.9-1.7,4.6-2.9,5.3-3.7
			c0.7-0.8,0.7-1.7,0.2-2.6c-0.7-1.2-1.5-1.7-2.3-1.6c-0.9,0.1-2.9,1.1-6,2.9l-4.1,2.3L-272.7-105.3z"/>
		<path class="st2" d="M-252.8-66.6l-9.2-15.9l3.7-2.2c4.3-2.5,7.9-3.9,10.8-4.3c2.9-0.4,6.1,0.4,9.6,2.4c3.5,2,6.6,5.3,9.4,10.1
			c3.3,5.7,4.8,10.6,4.4,14.7s-1.8,7.2-4.4,9.5c-2.6,2.3-8.5,6.1-17.7,11.4l-27.9,16.1l-9.5-16.5l5-2.9c-2.6,0.1-4.8-0.4-6.8-1.4
			c-1.9-1.1-3.6-2.7-4.9-5c-1.7-3-2.4-6.2-2.2-9.6c0.2-3.4,3.2-6.8,8.8-10l4.6-2.6c4.2-2.4,7.4-3.4,9.6-2.9
			c2.3,0.4,5.9,2.7,10.9,6.7c5.4,4.3,8.6,6.4,9.5,6.4c1,0,2.6-0.7,4.9-2.1c2.9-1.7,4.7-3,5.3-3.9c0.6-0.9,0.7-1.9,0.1-2.9
			c-0.7-1.1-1.4-1.6-2.3-1.5c-0.9,0.1-2.9,1.1-6,2.9L-252.8-66.6z M-257.3-56.9c-3.5-1.6-6.1-2.2-7.7-1.8c-1.6,0.3-3.6,1.2-6.2,2.7
			c-2.9,1.7-4.6,2.9-5.2,3.8c-0.6,0.9-0.6,1.8,0,3c0.6,1.1,1.3,1.6,2.2,1.5c0.8-0.1,2.7-0.9,5.4-2.5L-257.3-56.9z"/>
		<path class="st2" d="M-205.4-34.3l-5.5,2.8c2.9,0.1,5.3,0.8,7.4,2c2.1,1.2,3.8,3,5.1,5.3c2.6,4.5,2.6,9.3-0.1,14.3
			c2.9,0.2,5.4,0.9,7.5,2.1c2.1,1.2,3.7,2.9,5,5c1.7,2.9,2.3,5.7,2,8.3c-0.3,2.7-1.3,4.9-3,6.6c-1.7,1.7-4.9,3.9-9.4,6.5l-39.5,22.8
			l-9.5-16.4L-209,4.1c4.7-2.7,7.6-4.6,8.5-5.6c0.9-1,1.1-2,0.4-3.2c-0.7-1.2-1.7-1.7-3-1.4c-1.3,0.3-4.4,1.8-9.1,4.6l-36.2,20.9
			L-257.9,3l35.3-20.4c5.4-3.1,8.6-5.2,9.6-6.1c0.9-0.9,1.1-1.9,0.4-3.1c-0.4-0.8-1.1-1.2-2-1.4c-0.9-0.2-1.7-0.1-2.6,0.3
			c-0.9,0.4-2.6,1.4-5.3,2.9l-38.5,22.2l-9.5-16.4L-215-51L-205.4-34.3z"/>
		<path class="st2" d="M-145.3,69.8l-59.4,25.3l-10.6-18.4c6.2-4.9,14.5-11.3,24.8-19c-5.2,2.4-10.4,4.6-15.9,6.6l-13.1,5.1
			l-10.6-18.4l51.4-39.2l8.4,14.6c-1.4,0.9-11.3,8.3-29.7,22.1c2.1-1,13.5-5.8,34-14.6l8.1,14l-29.8,21.8c9.6-4.8,21-9.7,34.1-14.5
			L-145.3,69.8z"/>
		<path class="st2" d="M-141.1,122l-13.6,7.9c-5,2.9-8.8,4.7-11.4,5.6c-2.6,0.8-5.4,1-8.4,0.5c-3-0.5-5.7-1.7-8.1-3.8
			c-2.5-2-4.6-4.7-6.6-8.1c-2.2-3.7-3.6-7.1-4.3-10.2s-0.6-5.8,0.2-8.2c0.8-2.4,2.2-4.6,4.3-6.6c2-2,5.4-4.3,10.1-7l14.2-8.2
			c5.2-3,9.5-4.8,13.1-5.3c3.5-0.6,7,0.1,10.5,2c3.4,1.9,6.5,5.1,9.1,9.6c2.2,3.8,3.5,7.4,3.9,10.8c0.4,3.4,0.2,6.3-0.8,8.9
			c-1,2.5-2.2,4.6-3.9,6.3S-137.2,119.8-141.1,122z M-146.7,102.7c2.8-1.6,4.5-2.8,5.1-3.6c0.6-0.7,0.6-1.6,0-2.6s-1.3-1.5-2.3-1.4
			c-0.9,0.1-2.8,1-5.7,2.6l-25.1,14.5c-2.6,1.5-4.2,2.7-4.8,3.5c-0.6,0.8-0.6,1.7-0.1,2.7c0.6,1,1.3,1.5,2.2,1.4
			c0.9-0.1,2.6-0.8,5-2.2L-146.7,102.7z"/>
		<path class="st2" d="M-108.7,133.3l-7.7,3.5c6.6-0.6,11.5,1.4,14.5,5.9l-19.5,11.3c-1.8-3.1-3.5-5.1-5.2-6.1c-1.7-1-3.4-1.2-5-0.7
			c-1.7,0.5-5.2,2.3-10.6,5.5l-21.9,12.7l-9.8-16.9l55.6-32.1L-108.7,133.3z"/>
		<path class="st2" d="M-79.7,183.5l-26.1,5.9l-28.3,28.2l-9.4-16.3l21.2-19.3l-24.2,14l-9.8-16.9l67.8-39.1l9.8,16.9l-28.4,16.4
			l19.3-4.1L-79.7,183.5z"/>
	</g>
	<g>
		<path class="st2" d="M-79.3,29.7l-6.1,3.5l-0.7-1.2c-0.6-1-1-1.7-1.3-1.9c-0.3-0.2-0.7-0.2-1.1,0.1c-0.4,0.2-0.6,0.5-0.6,0.9
			c0,0.4,0.1,0.8,0.4,1.3c0.4,0.7,0.7,1.2,1,1.4c0.3,0.3,0.8,0.5,1.5,0.6s2,0.1,3.9,0c2.5-0.2,4.4,0,5.5,0.5
			c1.1,0.5,2.1,1.6,3.1,3.2c1.1,1.8,1.6,3.3,1.7,4.5c0.1,1.2-0.3,2.4-1.1,3.5c-0.8,1.1-2,2.2-3.6,3.1c-1.7,1-3.4,1.6-4.9,1.8
			c-1.5,0.2-2.8-0.1-3.8-0.7c-1-0.7-2-1.9-3.1-3.8l-0.6-1.1l6.1-3.5l0.8,1.4c0.7,1.2,1.2,1.9,1.6,2.2c0.4,0.3,0.8,0.3,1.2,0
			c0.5-0.3,0.8-0.6,0.8-1c0.1-0.4-0.1-0.9-0.6-1.7c-0.6-1.1-1.1-1.7-1.5-1.8c-0.4-0.1-2.2-0.2-5.4-0.1c-2.7,0-4.5-0.3-5.4-1
			c-1-0.7-1.8-1.6-2.5-2.9c-1-1.8-1.6-3.3-1.6-4.4s0.4-2.2,1.3-3.4c0.9-1.1,2-2.1,3.5-3c1.5-0.9,2.9-1.4,4.1-1.6
			c1.3-0.2,2.3-0.2,3.3,0.1c0.9,0.3,1.6,0.7,2,1.1c0.4,0.5,1,1.3,1.6,2.4L-79.3,29.7z"/>
		<path class="st2" d="M-66.4,12.6l2.4,10.5l11.4,11.4l-6.6,3.8l-7.8-8.6l5.6,9.8l-6.8,3.9L-84,16.2l6.8-3.9l6.6,11.5l-1.7-7.8
			L-66.4,12.6z"/>
		<path class="st2" d="M-60.4,2.6l2.1,3.6l-7,4.1l-2.1-3.6L-60.4,2.6z M-57.5,7.5l13,22.4l-7,4.1l-13-22.4L-57.5,7.5z"/>
		<path class="st2" d="M-50.9-2.9l15.8,27.4l-7,4.1L-57.9,1.2L-50.9-2.9z"/>
		<path class="st2" d="M-41.4-8.4L-25.6,19l-7,4.1L-48.4-4.3L-41.4-8.4z"/>
	</g>
	<g>
		<path class="st2" d="M-64.9-186.1l-15-8.7l1.7-3c1.5-2.6,2.3-4.3,2.4-5.1c0.1-0.9-0.4-1.6-1.6-2.3c-0.9-0.5-1.8-0.6-2.7-0.3
			c-0.8,0.4-1.6,1.2-2.3,2.4c-1,1.7-1.6,3-1.8,4c-0.2,0.9,0,2.2,0.6,3.8c0.6,1.6,2.3,4.4,4.9,8.4c3.5,5.2,5.4,9.4,5.8,12.4
			c0.3,3-0.7,6.5-3,10.6c-2.6,4.5-5.2,7.6-7.7,9.2c-2.5,1.6-5.5,2.3-9,1.9c-3.5-0.3-7.1-1.6-11-3.9c-4.3-2.5-7.6-5.3-9.9-8.4
			c-2.3-3.1-3.3-6.1-3.2-9.1c0.2-2.9,1.6-6.7,4.3-11.4l1.5-2.7l15,8.7l-2,3.5c-1.7,3-2.7,5-2.8,6.1c-0.1,1.1,0.3,2,1.5,2.6
			c1.2,0.7,2.2,0.9,3,0.5c0.8-0.3,1.8-1.5,2.9-3.4c1.5-2.7,2.2-4.5,2-5.5c-0.3-1-2.4-4.9-6.4-11.6c-3.4-5.7-4.9-9.9-4.7-12.8
			c0.2-2.9,1.2-5.9,3-9c2.6-4.4,5-7.4,7.4-8.8c2.4-1.4,5.3-1.9,8.8-1.4c3.5,0.5,7.1,1.8,10.8,3.9c3.7,2.1,6.5,4.4,8.6,6.8
			c2,2.4,3.3,4.8,3.8,7.1c0.5,2.3,0.5,4.2,0,5.7c-0.5,1.5-1.5,3.6-3.1,6.4L-64.9-186.1z"/>
		<path class="st2" d="M-10.1-178.2l-32.1,55.6l-17.2-9.9l3-4.4c-2.3,1.2-4.5,1.8-6.8,1.7c-2.3-0.1-4.5-0.7-6.7-2
			c-2.5-1.5-4.4-3.1-5.5-5c-1.2-1.9-1.7-3.8-1.6-5.7c0.1-1.9,0.5-3.8,1.2-5.5c0.7-1.7,2.5-5,5.2-9.7l21.6-37.5l16.9,9.8L-54-153.1
			c-2.5,4.3-3.8,7-4,7.9c-0.2,1,0.3,1.8,1.5,2.5c1.3,0.7,2.2,0.7,3,0c0.7-0.7,2.4-3.3,5-7.9l21.6-37.4L-10.1-178.2z"/>
		<path class="st2" d="M21.3-132.1l-15.9-9.2l3.7-6.4c1.3-2.2,2-3.9,2.1-4.9c0.1-1-0.3-1.8-1.3-2.4s-1.8-0.6-2.6-0.1
			c-0.7,0.5-1.8,2-3.2,4.4l-15.1,26.2c-1.1,2-1.8,3.6-1.8,4.9c-0.1,1.3,0.4,2.2,1.4,2.8c1.1,0.7,2.2,0.6,3.2-0.2
			c1-0.8,2.3-2.6,4-5.5l3.8-6.6l15.1,8.7c-2.6,4.4-4.7,7.7-6.2,9.7c-1.6,2-3.8,3.8-6.7,5.2c-2.9,1.4-6,2-9.2,1.7
			c-3.2-0.3-6.7-1.5-10.4-3.7c-4.8-2.8-8.1-5.8-9.9-9c-1.8-3.2-2.5-6.7-2-10.3c0.5-3.6,2.4-8.1,5.5-13.5l9.1-15.8
			c2.7-4.7,5.3-8,7.6-9.9c2.3-1.9,5.6-2.8,9.8-2.9c4.2-0.1,8.5,1.1,12.9,3.7c4.4,2.5,7.6,5.7,9.7,9.3c2,3.7,2.8,7.2,2.2,10.7
			C26.1-141.7,24.3-137.3,21.3-132.1z"/>
		<path class="st2" d="M63.7-107.6l-16-9.2l3.7-6.4c1.3-2.2,2-3.9,2.1-4.9c0.1-1-0.3-1.8-1.3-2.4c-1-0.6-1.8-0.6-2.6-0.1
			c-0.7,0.5-1.8,2-3.2,4.4L31.3-99.9c-1.1,2-1.8,3.6-1.8,4.9c-0.1,1.3,0.4,2.2,1.4,2.8c1.1,0.7,2.2,0.6,3.2-0.2c1-0.8,2.3-2.6,4-5.5
			l3.8-6.6l15.1,8.7c-2.6,4.4-4.7,7.7-6.2,9.7s-3.8,3.8-6.7,5.2c-2.9,1.4-6,2-9.2,1.7c-3.2-0.3-6.7-1.5-10.4-3.7
			c-4.8-2.8-8.1-5.8-9.9-9c-1.8-3.2-2.5-6.7-2-10.3c0.5-3.6,2.4-8.1,5.5-13.5l9.1-15.8c2.7-4.7,5.3-8,7.6-9.9
			c2.3-1.9,5.6-2.8,9.8-2.9c4.2-0.1,8.5,1.1,12.9,3.7c4.4,2.5,7.6,5.7,9.7,9.3c2,3.7,2.8,7.2,2.2,10.7S66.7-112.8,63.7-107.6z"/>
		<path class="st2" d="M102.5-74.8L80.6-87.5l-6.9,12c-1.5,2.5-2.2,4.2-2.3,5.2c-0.1,0.9,0.4,1.7,1.5,2.3c1.3,0.7,2.4,0.8,3.4,0
			c1-0.7,2.3-2.5,3.9-5.2l4.2-7.3l16,9.3l-2.4,4.1c-2,3.4-3.7,5.9-5.2,7.5c-1.5,1.6-3.6,3-6.4,4.1s-5.7,1.6-8.8,1.2
			c-3-0.4-6.4-1.6-10.1-3.7C64-60,61.1-62.4,59-65c-2.1-2.6-3.4-5.3-3.9-7.9c-0.5-2.7-0.4-5.3,0.3-7.8c0.7-2.5,2.2-5.8,4.6-9.9
			l9.4-16.2c2.8-4.9,5.7-8.3,8.6-10.4c2.9-2,6.3-3,10.2-2.7c3.8,0.2,7.7,1.5,11.6,3.7c4.7,2.7,8.1,5.9,10.2,9.5
			c2,3.6,2.8,7.2,2.4,10.9c-0.5,3.7-2.3,8.2-5.4,13.6L102.5-74.8z M90.8-93.7l2.3-4.1c1.7-2.9,2.6-4.8,2.8-5.8
			c0.2-1-0.2-1.8-1.2-2.3c-1.2-0.7-2.1-0.7-2.8-0.2c-0.7,0.6-1.9,2.4-3.7,5.5l-2.3,4.1L90.8-93.7z"/>
		<path class="st2" d="M148.9-62.7l-15-8.7l1.7-3c1.5-2.6,2.3-4.3,2.4-5.1c0.1-0.9-0.4-1.6-1.6-2.3c-0.9-0.5-1.8-0.6-2.7-0.3
			c-0.8,0.4-1.6,1.2-2.3,2.4c-1,1.7-1.6,3-1.8,4c-0.2,0.9,0,2.2,0.6,3.8c0.6,1.6,2.3,4.4,4.9,8.4c3.5,5.2,5.4,9.4,5.8,12.4
			c0.3,3-0.7,6.5-3,10.6c-2.6,4.5-5.2,7.6-7.7,9.2s-5.5,2.3-9,1.9c-3.5-0.3-7.1-1.6-11-3.9c-4.3-2.5-7.6-5.3-9.9-8.4
			c-2.3-3.1-3.3-6.1-3.2-9.1c0.2-2.9,1.6-6.7,4.3-11.4l1.5-2.7l15,8.7l-2,3.5c-1.7,3-2.7,5-2.8,6.1c-0.1,1.1,0.3,2,1.5,2.6
			c1.2,0.7,2.2,0.9,3,0.5c0.8-0.3,1.8-1.5,2.9-3.4c1.5-2.7,2.2-4.5,2-5.5c-0.3-1-2.4-4.9-6.4-11.6c-3.4-5.7-4.9-9.9-4.7-12.8
			c0.2-2.9,1.2-5.9,3-9c2.6-4.4,5-7.4,7.4-8.8s5.3-1.9,8.8-1.4c3.5,0.5,7.1,1.8,10.8,3.9c3.7,2.1,6.5,4.4,8.6,6.8
			c2,2.4,3.3,4.8,3.8,7.1c0.5,2.3,0.5,4.2,0,5.7c-0.5,1.5-1.5,3.6-3.1,6.4L148.9-62.7z"/>
		<path class="st2" d="M189.3-39.4l-15-8.7l1.7-3c1.5-2.6,2.3-4.3,2.4-5.1s-0.4-1.6-1.6-2.3c-0.9-0.5-1.8-0.6-2.7-0.3
			c-0.8,0.4-1.6,1.2-2.3,2.4c-1,1.7-1.6,3-1.8,4c-0.2,0.9,0,2.2,0.6,3.8c0.6,1.6,2.3,4.4,4.9,8.4c3.5,5.2,5.4,9.4,5.8,12.4
			c0.3,3-0.7,6.5-3,10.6c-2.6,4.5-5.2,7.6-7.7,9.2s-5.5,2.3-9,1.9c-3.5-0.3-7.1-1.6-11-3.9c-4.3-2.5-7.6-5.3-9.9-8.4
			c-2.3-3.1-3.3-6.1-3.2-9.1s1.6-6.7,4.3-11.4l1.5-2.7l15,8.7l-2,3.5c-1.7,3-2.7,5-2.8,6.1c-0.1,1.1,0.3,2,1.5,2.6
			c1.2,0.7,2.2,0.9,3,0.5c0.8-0.3,1.8-1.5,2.9-3.4c1.5-2.7,2.2-4.5,2-5.5c-0.3-1-2.4-4.9-6.4-11.6c-3.4-5.7-4.9-9.9-4.7-12.8
			c0.2-2.9,1.2-5.9,3-9c2.6-4.4,5-7.4,7.4-8.8s5.3-1.9,8.8-1.4c3.5,0.5,7.1,1.8,10.8,3.9c3.7,2.1,6.5,4.4,8.6,6.8
			c2,2.4,3.3,4.8,3.8,7.1c0.5,2.3,0.5,4.2,0,5.7c-0.5,1.5-1.5,3.6-3.1,6.4L189.3-39.4z"/>
	</g>
	<g>
		<path class="st2" d="M24,159l-13.4,7.7l-3.1-5.4c-1.1-1.9-2-3.1-2.7-3.5c-0.7-0.5-1.4-0.5-2.3,0c-0.8,0.5-1.2,1.1-1.1,1.8
			s0.7,2.1,1.8,4.2l12.7,22c1,1.7,1.9,2.8,2.8,3.4c0.9,0.6,1.8,0.6,2.6,0.2c1-0.6,1.4-1.4,1.2-2.4c-0.2-1.1-0.9-2.8-2.3-5.2
			l-3.2-5.5l12.6-7.3c2.1,3.7,3.6,6.6,4.4,8.6c0.8,2,1.1,4.4,1,7.1c-0.2,2.7-1.1,5.2-2.6,7.4c-1.6,2.2-3.9,4.2-7,6.1
			c-4,2.3-7.6,3.5-10.7,3.4c-3.1,0-5.9-1-8.3-2.9s-4.9-5.1-7.5-9.7l-7.6-13.2c-2.3-4-3.6-7.2-4-9.6c-0.4-2.5,0.3-5.2,2-8.3
			c1.7-3.1,4.4-5.7,8.1-7.8c3.7-2.1,7.3-3.2,10.8-3.1c3.5,0.1,6.4,1,8.7,2.9C19,151.5,21.4,154.6,24,159z"/>
		<path class="st2" d="M59.5,136.8l6.6,11.4c2.4,4.2,4,7.4,4.7,9.6c0.7,2.2,0.9,4.5,0.5,7c-0.4,2.5-1.5,4.8-3.2,6.8
			c-1.7,2.1-4,3.9-6.8,5.5c-3.1,1.8-6,3-8.6,3.6c-2.6,0.6-4.9,0.5-6.9-0.2c-2-0.7-3.8-1.9-5.5-3.6c-1.7-1.7-3.6-4.5-5.9-8.5
			l-6.9-11.9c-2.5-4.3-4-8-4.5-11c-0.5-3,0.1-5.9,1.7-8.8c1.6-2.9,4.3-5.4,8.1-7.6c3.2-1.8,6.2-2.9,9-3.3c2.8-0.4,5.3-0.2,7.4,0.7
			c2.1,0.8,3.9,1.9,5.3,3.2C56,131.2,57.6,133.5,59.5,136.8z M43.3,141.5c-1.4-2.4-2.4-3.8-3-4.3c-0.6-0.5-1.3-0.5-2.2,0
			s-1.2,1.1-1.1,1.9c0.1,0.8,0.8,2.4,2.2,4.8l12.1,21c1.3,2.2,2.2,3.6,2.9,4.1c0.7,0.5,1.4,0.5,2.2,0c0.8-0.5,1.2-1.1,1.1-1.9
			c-0.1-0.8-0.7-2.2-1.9-4.2L43.3,141.5z"/>
		<path class="st2" d="M69.2,109.4l2.2,4.4c0-2.3,0.6-4.3,1.6-6c1-1.7,2.5-3.1,4.4-4.3c2.4-1.4,4.8-2,7-1.7c2.2,0.3,4,1.1,5.5,2.6
			c1.5,1.5,3.4,4.3,5.7,8.3l18.8,32.6l-14.2,8.2l-18.6-32.3c-1.8-3.2-3.1-5.1-3.7-5.7s-1.4-0.6-2.4,0c-1,0.6-1.4,1.3-1.2,2.3
			c0.2,1,1.3,3.2,3.4,6.7l18.2,31.5l-14.2,8.2l-26.9-46.6L69.2,109.4z"/>
		<path class="st2" d="M104.5,75.4l4.2,7.2c-2.9,1.7-4.6,2.8-4.9,3.4c-0.4,0.6-0.2,1.5,0.5,2.8l0.9,1.5l6-3.4l4.3,7.4L112,96
			l22,38.1l-14.2,8.2l-22-38.1l-2.9,1.7l-4.3-7.4l2.9-1.7c-1.8-3.1-2.8-5.2-3.2-6.3c-0.4-1.2-0.4-2.4,0-3.7c0.4-1.3,1.2-2.6,2.4-3.9
			c1.3-1.3,3.5-2.8,6.6-4.7L104.5,75.4z"/>
		<path class="st2" d="M121.8,65.4l4.3,7.4l-14.6,8.4l-4.3-7.4L121.8,65.4z M127.7,75.6l26.9,46.6l-14.6,8.4L113.1,84L127.7,75.6z"
			/>
		<path class="st2" d="M159.2,43.8l32.8,56.8l-14.2,8.2l-2-3.4c-0.5,2.2-1.4,4.1-2.5,5.6c-1.1,1.6-2.5,2.8-4.1,3.8
			c-2.2,1.3-4.4,1.8-6.7,1.6c-2.3-0.2-4.1-1-5.4-2.2c-1.3-1.3-3-3.6-5-7l-12.6-21.8c-2.1-3.6-3.3-6.2-3.7-8
			c-0.4-1.8-0.1-3.7,0.9-5.8c1-2.1,2.6-3.8,4.9-5.1c1.8-1,3.5-1.6,5.4-1.8s3.7,0,5.6,0.5L145,52L159.2,43.8z M157.7,74
			c-1-1.7-1.8-2.8-2.4-3.2c-0.6-0.4-1.4-0.4-2.2,0.1c-0.8,0.5-1.3,1.1-1.2,1.8c0,0.7,0.5,2,1.6,3.8l13.2,22.8c1.1,1.9,2,3.1,2.6,3.5
			c0.6,0.4,1.3,0.4,2.1,0c0.9-0.5,1.3-1.2,1.2-2.1c-0.1-0.8-0.9-2.6-2.4-5.2L157.7,74z"/>
		<path class="st2" d="M216.2,56.7l-18.4,10.6l5.8,10.1c1.2,2.1,2.2,3.4,2.8,3.8c0.7,0.4,1.4,0.4,2.3-0.1c1.1-0.6,1.6-1.4,1.5-2.5
			c-0.1-1-0.8-2.7-2.2-5l-3.5-6.1l13.4-7.8l2,3.4c1.7,2.9,2.8,5.2,3.3,6.9s0.6,3.9,0.3,6.4c-0.3,2.5-1.3,4.8-2.8,6.9
			c-1.5,2.1-3.9,4-6.9,5.8c-3,1.7-5.9,2.8-8.7,3.3c-2.8,0.5-5.3,0.3-7.4-0.5c-2.1-0.8-4-1.9-5.5-3.5c-1.5-1.5-3.3-4-5.3-7.5
			L179,67.4c-2.4-4.1-3.7-7.6-3.9-10.6c-0.3-3,0.5-5.8,2.3-8.5c1.8-2.7,4.3-5,7.6-6.9c4-2.3,7.7-3.4,11.2-3.4s6.4,1,8.9,2.9
			c2.5,1.9,5,5.1,7.6,9.6L216.2,56.7z M197.6,57.3l-2-3.4c-1.4-2.4-2.4-3.9-3.1-4.4c-0.7-0.6-1.4-0.6-2.2-0.1
			c-1,0.6-1.4,1.2-1.3,1.9c0.1,0.7,0.9,2.4,2.4,5l2,3.4L197.6,57.3z"/>
		<path class="st2" d="M221.3,21.6l2.2,4.4c0-2.3,0.6-4.3,1.6-6c1-1.7,2.5-3.1,4.4-4.3c2.4-1.4,4.8-2,7-1.7c2.2,0.3,4,1.1,5.5,2.6
			c1.5,1.5,3.4,4.3,5.7,8.3l18.8,32.6l-14.2,8.2l-18.6-32.3c-1.8-3.2-3.1-5.1-3.7-5.7s-1.4-0.6-2.4,0c-1,0.6-1.4,1.3-1.2,2.3
			c0.2,1,1.3,3.2,3.4,6.7L248,68.3l-14.2,8.2l-26.9-46.6L221.3,21.6z"/>
		<path class="st2" d="M286,7.7l-13.4,7.7l-3.1-5.4c-1.1-1.9-2-3.1-2.7-3.5c-0.7-0.5-1.4-0.5-2.3,0c-0.8,0.5-1.2,1.1-1.1,1.8
			c0.1,0.7,0.7,2.1,1.8,4.2l12.7,22c1,1.7,1.9,2.8,2.8,3.4c0.9,0.6,1.8,0.6,2.6,0.2c1-0.6,1.4-1.4,1.2-2.4c-0.2-1.1-0.9-2.8-2.3-5.2
			l-3.2-5.5l12.6-7.3c2.1,3.7,3.6,6.6,4.4,8.6s1.1,4.4,1,7.1c-0.2,2.7-1.1,5.2-2.6,7.4c-1.6,2.2-3.9,4.2-7,6.1
			c-4,2.3-7.6,3.5-10.7,3.4c-3.1,0-5.9-1-8.3-2.9c-2.4-1.9-4.9-5.1-7.5-9.7l-7.6-13.2c-2.3-4-3.6-7.2-4-9.6c-0.4-2.5,0.3-5.2,2-8.3
			s4.4-5.7,8.1-7.8c3.7-2.1,7.3-3.2,10.8-3.1c3.5,0.1,6.4,1,8.7,2.9C281.1,0.2,283.5,3.3,286,7.7z"/>
		<path class="st2" d="M326.1-6.8L307.7,3.8l5.8,10.1c1.2,2.1,2.2,3.4,2.8,3.8c0.7,0.4,1.4,0.4,2.3-0.1c1.1-0.6,1.6-1.4,1.5-2.5
			c-0.1-1-0.8-2.7-2.2-5L314.4,4l13.4-7.8l2,3.4c1.7,2.9,2.8,5.2,3.3,6.9s0.6,3.9,0.3,6.4s-1.2,4.8-2.8,6.9c-1.5,2.1-3.9,4-6.9,5.8
			c-3,1.7-5.9,2.8-8.7,3.3s-5.3,0.3-7.4-0.5c-2.1-0.8-4-1.9-5.5-3.5c-1.5-1.5-3.3-4-5.3-7.5L288.9,4c-2.4-4.1-3.7-7.6-3.9-10.6
			c-0.3-3,0.5-5.8,2.3-8.5c1.8-2.7,4.3-5,7.6-6.9c4-2.3,7.7-3.4,11.2-3.4c3.5,0,6.4,1,8.9,2.9c2.5,1.9,5,5.1,7.6,9.6L326.1-6.8z
			 M307.5-6.1l-2-3.4c-1.4-2.4-2.4-3.9-3.1-4.4c-0.7-0.6-1.4-0.6-2.2-0.1c-1,0.6-1.4,1.2-1.3,1.9c0.1,0.7,0.9,2.4,2.4,5l2,3.4
			L307.5-6.1z"/>
	</g>
	<g>
		<path class="st0" d="M84.9-160.6v31.6h-8.1v-31.6H84.9z"/>
		<path class="st0" d="M105.5-145.8v6.3c0,2.3-0.1,4-0.4,5.1s-0.7,2.1-1.5,3c-0.8,0.9-1.8,1.6-3,2.1c-1.2,0.4-2.6,0.7-4.2,0.7
			c-1.7,0-3.2-0.2-4.4-0.6s-2.2-1-2.8-1.7c-0.7-0.8-1.1-1.7-1.4-2.8c-0.3-1.1-0.4-2.8-0.4-5v-6.6c0-2.4,0.3-4.3,0.8-5.6
			c0.5-1.4,1.5-2.4,2.8-3.3c1.4-0.8,3.1-1.2,5.2-1.2c1.8,0,3.3,0.3,4.6,0.8s2.2,1.2,2.9,2.1c0.7,0.8,1.2,1.7,1.4,2.6
			S105.5-147.7,105.5-145.8z M97.7-147.8c0-1.3-0.1-2.2-0.2-2.5c-0.1-0.3-0.4-0.5-0.9-0.5s-0.8,0.2-0.9,0.5s-0.2,1.2-0.2,2.5v11.7
			c0,1.2,0.1,2,0.2,2.4s0.5,0.6,0.9,0.6c0.5,0,0.8-0.2,0.9-0.5c0.1-0.3,0.2-1.1,0.2-2.2V-147.8z"/>
		<path class="st0" d="M124.5-154.9l-3.7,25.9h-10.3l-4-25.9h7l2.2,18.9c0.2-1.4,0.5-4.8,0.9-10.2c0.2-3,0.5-5.9,0.8-8.8H124.5z"/>
		<path class="st0" d="M143.5-141.5h-10.2v5.6c0,1.2,0.1,1.9,0.3,2.3c0.2,0.3,0.5,0.5,1,0.5c0.6,0,1-0.2,1.2-0.7
			c0.2-0.4,0.3-1.3,0.3-2.6v-3.4h7.5v1.9c0,1.6-0.1,2.8-0.3,3.7c-0.2,0.9-0.7,1.8-1.4,2.8s-1.7,1.7-2.8,2.2
			c-1.1,0.5-2.6,0.7-4.3,0.7c-1.7,0-3.1-0.2-4.4-0.7c-1.3-0.5-2.3-1.1-3-2c-0.7-0.8-1.2-1.8-1.5-2.8s-0.4-2.5-0.4-4.4v-7.6
			c0-2.3,0.3-4.1,0.9-5.4c0.6-1.3,1.6-2.3,3-3c1.4-0.7,3-1,4.8-1c2.2,0,4,0.4,5.5,1.3c1.4,0.8,2.4,2,3,3.3c0.6,1.4,0.9,3.3,0.9,5.8
			V-141.5z M135.6-145.7v-1.9c0-1.3-0.1-2.2-0.2-2.6c-0.1-0.4-0.4-0.6-0.9-0.6c-0.5,0-0.9,0.2-1,0.5c-0.1,0.3-0.2,1.2-0.2,2.7v1.9
			H135.6z"/>
	</g>
	<g>
		<path d="M-45,65.6l67.8,39.1l-10.1,17.4L-55.1,83L-45,65.6z"/>
		<path d="M-31.5,42.1l8.8,5.1l-10.1,17.4l-8.8-5.1L-31.5,42.1z M-19.2,49.1l55.6,32.1L26.3,98.6l-55.6-32.1L-19.2,49.1z"/>
		<path d="M4.5,8.1l51,40L42.7,70.2l-60.5-23.6L-9,31.5l43.3,18.7c-2.8-2.1-9.7-6.9-20.7-14.5C7.4,31.5,1.5,27.3-4.2,23.2L4.5,8.1z"
			/>
		<path d="M56.8-16.1L44.1,5.8l12,6.9c2.5,1.5,4.2,2.2,5.2,2.3c0.9,0.1,1.7-0.4,2.3-1.5c0.7-1.3,0.8-2.4,0-3.4
			c-0.7-1-2.5-2.3-5.2-3.9L51.1,2l9.3-16l4.1,2.4c3.4,2,5.9,3.7,7.5,5.2c1.6,1.5,3,3.6,4.2,6.4c1.2,2.8,1.6,5.7,1.2,8.8
			c-0.4,3-1.6,6.4-3.7,10.1c-2.1,3.6-4.4,6.4-7,8.6c-2.6,2.1-5.3,3.5-7.9,3.9c-2.7,0.5-5.3,0.4-7.8-0.3c-2.5-0.7-5.8-2.2-9.9-4.6
			l-16.2-9.4c-4.9-2.8-8.3-5.7-10.4-8.6c-2-2.9-3-6.3-2.7-10.2c0.2-3.8,1.5-7.7,3.7-11.6c2.7-4.7,5.9-8.1,9.5-10.2
			c3.6-2,7.2-2.8,10.9-2.4c3.7,0.5,8.2,2.3,13.6,5.4L56.8-16.1z M38-4.4l-4.1-2.3c-2.9-1.7-4.8-2.6-5.8-2.8c-1-0.2-1.8,0.2-2.3,1.2
			C25-7.1,25-6.2,25.5-5.5c0.6,0.7,2.4,1.9,5.5,3.7l4.1,2.3L38-4.4z"/>
	</g>
	<g>
		<path class="st0" d="M-188.2-86.3l-2.1,1c1.2,0.1,2.1,0.5,3,1c0.8,0.5,1.5,1.2,2,2.1c0.6,1.1,0.9,2.1,0.7,3.2
			c-0.1,1.1-0.5,2-1.1,2.6c-0.6,0.6-1.8,1.4-3.6,2.5l-9.5,5.5c-2,1.2-3.6,1.9-4.6,2.2c-1,0.3-2,0.2-2.9-0.3
			c-0.9-0.5-1.7-1.2-2.3-2.3c-0.5-0.8-0.7-1.7-0.8-2.7c0-1,0.2-1.9,0.6-3l-5.1,3l-3.9-6.8l25.6-14.8L-188.2-86.3z M-193.6-80.5
			c1.4-0.8,2.2-1.3,2.4-1.6c0.2-0.3,0.2-0.6,0-1.1c-0.3-0.5-0.6-0.6-1-0.6c-0.4,0.1-1.3,0.5-2.6,1.2l-9.3,5.4
			c-1.4,0.8-2.2,1.3-2.4,1.7c-0.3,0.3-0.3,0.7,0,1.2c0.3,0.4,0.6,0.6,0.9,0.6c0.4-0.1,1.2-0.5,2.4-1.1L-193.6-80.5z"/>
		<path class="st0" d="M-180.8-55.2l-5.5,3.2c-2,1.2-3.6,1.9-4.6,2.3c-1.1,0.3-2.2,0.4-3.4,0.2c-1.2-0.2-2.3-0.7-3.3-1.5
			c-1-0.8-1.9-1.9-2.7-3.3c-0.9-1.5-1.4-2.9-1.7-4.1c-0.3-1.2-0.2-2.3,0.1-3.3c0.3-1,0.9-1.9,1.7-2.6c0.8-0.8,2.2-1.7,4.1-2.8
			l5.8-3.3c2.1-1.2,3.8-1.9,5.3-2.1c1.4-0.2,2.8,0,4.2,0.8c1.4,0.8,2.6,2.1,3.7,3.9c0.9,1.5,1.4,3,1.6,4.3s0.1,2.6-0.3,3.6
			s-0.9,1.9-1.6,2.5C-178.1-56.9-179.2-56.1-180.8-55.2z M-183.1-63c1.2-0.7,1.8-1.1,2.1-1.4c0.2-0.3,0.2-0.6,0-1.1
			c-0.2-0.4-0.5-0.6-0.9-0.6c-0.4,0-1.1,0.4-2.3,1.1l-10.1,5.8c-1.1,0.6-1.7,1.1-2,1.4c-0.2,0.3-0.3,0.7,0,1.1
			c0.2,0.4,0.5,0.6,0.9,0.5c0.4,0,1-0.3,2-0.9L-183.1-63z"/>
		<path class="st0" d="M-170.7-39.4l-3.5-6.1l1.2-0.7c1-0.6,1.7-1,1.9-1.3c0.2-0.3,0.2-0.7-0.1-1.1c-0.2-0.4-0.5-0.6-0.9-0.6
			c-0.4,0-0.8,0.1-1.3,0.4c-0.7,0.4-1.2,0.7-1.4,1c-0.3,0.3-0.5,0.8-0.6,1.5c-0.1,0.7-0.1,2,0,3.9c0.2,2.5,0,4.4-0.5,5.5
			c-0.5,1.1-1.6,2.1-3.2,3.1c-1.8,1.1-3.3,1.6-4.5,1.7c-1.2,0.1-2.4-0.3-3.5-1.1c-1.1-0.8-2.2-2-3.1-3.6c-1-1.7-1.6-3.4-1.8-4.9
			c-0.2-1.5,0.1-2.8,0.7-3.8c0.7-1,1.9-2,3.8-3.1l1.1-0.6l3.5,6.1l-1.4,0.8c-1.2,0.7-1.9,1.2-2.2,1.6c-0.3,0.4-0.3,0.8,0,1.2
			c0.3,0.5,0.6,0.8,0.9,0.8c0.4,0.1,0.9-0.1,1.7-0.6c1.1-0.6,1.7-1.1,1.8-1.5c0.1-0.4,0.2-2.2,0.1-5.4c0-2.7,0.3-4.5,1-5.4
			c0.7-1,1.6-1.8,2.9-2.5c1.8-1,3.3-1.6,4.4-1.6s2.2,0.4,3.4,1.3c1.1,0.9,2.1,2,3,3.5c0.9,1.5,1.4,2.9,1.6,4.1
			c0.2,1.3,0.2,2.3-0.1,3.3c-0.3,0.9-0.7,1.6-1.1,2c-0.5,0.4-1.3,1-2.4,1.6L-170.7-39.4z"/>
		<path class="st0" d="M-158.1-34.2l-22.4,13l-4.1-7l22.4-13L-158.1-34.2z M-153.2-37l-3.6,2.1l-4.1-7l3.6-2.1L-153.2-37z"/>
		<path class="st0" d="M-149.6-26.2l-3.5,2l1.1,1.8l-3.6,2.1l-1.1-1.8l-12,6.9c-1.5,0.9-2.3,1.4-2.3,1.7c-0.1,0.2,0.2,0.9,0.8,2
			l-3.6,2.1l-1.6-2.8c-0.9-1.6-1.5-2.7-1.7-3.4c-0.3-0.7-0.3-1.5-0.1-2.3c0.2-0.8,0.5-1.4,1.1-1.9c0.5-0.5,1.9-1.4,4.1-2.6l11.4-6.6
			l-0.8-1.5l3.6-2.1l0.8,1.5l3.5-2L-149.6-26.2z"/>
		<path class="st0" d="M-146.6-14.1l-22.4,13l-4.1-7l22.4-13L-146.6-14.1z M-141.6-17l-3.6,2.1l-4.1-7l3.6-2.1L-141.6-17z"/>
		<path class="st0" d="M-137,2.5l-24.3,9.8l-5.2-8.9l20.5-16.4l3.5,6.1l-15.3,11.4c1.3-0.5,4.4-2,9.3-4.3c2.7-1.3,5.4-2.5,8-3.7
			L-137,2.5z"/>
		<path class="st0" d="M-132.4,10.5l-22.4,13l-4.1-7l22.4-13L-132.4,10.5z M-127.4,7.6l-3.6,2.1l-4.1-7l3.6-2.1L-127.4,7.6z"/>
		<path class="st0" d="M-123.8,18.4l-3.5,2l1.1,1.8l-3.6,2.1l-1.1-1.8l-12,6.9c-1.5,0.9-2.3,1.4-2.3,1.7c-0.1,0.2,0.2,0.9,0.8,2
			l-3.6,2.1l-1.6-2.8c-0.9-1.6-1.5-2.7-1.7-3.4c-0.3-0.7-0.3-1.5-0.1-2.3c0.2-0.8,0.5-1.4,1.1-1.9c0.5-0.5,1.9-1.4,4.1-2.6l11.4-6.6
			l-0.8-1.5l3.6-2.1l0.8,1.5l3.5-2L-123.8,18.4z"/>
		<path class="st0" d="M-116.2,38.5l-17.4,7.4c-2.7,1.2-4.7,1.9-5.7,2.3c-1.1,0.3-2,0.4-2.9,0.3c-0.9-0.1-1.7-0.5-2.5-1.2
			c-0.8-0.7-1.7-2-2.8-3.9l-2.4-4.1l3.6-2.1c0.6,1.1,1.1,1.7,1.3,2c0.3,0.2,0.6,0.3,1,0c0.2-0.1,0.9-0.7,2.1-1.8l16.6-14.6l3.6,6.2
			l-13.9,11l15.8-7.7L-116.2,38.5z"/>
	</g>
	<g>
		<path class="st1" d="M-252.9-179.8l2,3.5c-1.4,0.8-2.2,1.4-2.4,1.6c-0.2,0.3-0.1,0.7,0.3,1.3l0.4,0.7l2.9-1.7l2.1,3.6l-1.6,0.9
			l10.6,18.4l-6.8,3.9l-10.6-18.4l-1.4,0.8l-2.1-3.6l1.4-0.8c-0.9-1.5-1.4-2.5-1.6-3c-0.2-0.6-0.2-1.1,0-1.8
			c0.2-0.6,0.6-1.2,1.2-1.9c0.6-0.6,1.7-1.4,3.2-2.2L-252.9-179.8z"/>
		<path class="st1" d="M-241.9-179.5l1.4,3.1c-0.2-2.7,0.6-4.6,2.4-5.8l4.6,7.9c-1.3,0.7-2.1,1.4-2.5,2.1c-0.4,0.7-0.5,1.4-0.3,2
			s0.9,2.1,2.2,4.3l5.1,8.9l-6.8,3.9l-13-22.4L-241.9-179.5z"/>
		<path class="st1" d="M-232.1-191.8l2.1,3.6l-7,4.1l-2.1-3.6L-232.1-191.8z M-229.3-186.8l13,22.4l-7,4.1l-13-22.4L-229.3-186.8z"
			/>
		<path class="st1" d="M-204.6-185.6l-8.8,5.1l2.8,4.9c0.6,1,1,1.6,1.4,1.8c0.3,0.2,0.7,0.2,1.1,0c0.5-0.3,0.8-0.7,0.7-1.2
			c-0.1-0.5-0.4-1.3-1-2.4l-1.7-3l6.5-3.7l1,1.7c0.8,1.4,1.3,2.5,1.6,3.3s0.3,1.9,0.2,3.1s-0.6,2.3-1.3,3.3c-0.7,1-1.9,1.9-3.3,2.8
			c-1.4,0.8-2.8,1.4-4.2,1.6c-1.3,0.2-2.5,0.1-3.6-0.2c-1-0.4-1.9-0.9-2.7-1.7c-0.7-0.7-1.6-1.9-2.6-3.6l-3.8-6.5
			c-1.1-2-1.8-3.7-1.9-5.1c-0.1-1.4,0.2-2.8,1.1-4.1c0.9-1.3,2.1-2.4,3.6-3.3c1.9-1.1,3.7-1.7,5.4-1.6c1.7,0,3.1,0.5,4.3,1.4
			c1.2,0.9,2.4,2.5,3.7,4.6L-204.6-185.6z M-213.6-185.3l-0.9-1.6c-0.7-1.2-1.2-1.9-1.5-2.1c-0.3-0.3-0.7-0.3-1.1-0.1
			c-0.5,0.3-0.7,0.6-0.6,0.9s0.4,1.2,1.2,2.4l0.9,1.6L-213.6-185.3z"/>
		<path class="st1" d="M-202.2-202.5l1.1,2.1c0-1.1,0.3-2.1,0.7-2.9c0.5-0.8,1.2-1.5,2.1-2c1.2-0.7,2.3-1,3.4-0.8
			c1.1,0.1,1.9,0.5,2.6,1.3c0.7,0.7,1.6,2.1,2.7,4l9.1,15.7l-6.8,3.9l-9-15.5c-0.9-1.5-1.5-2.5-1.8-2.7s-0.7-0.3-1.1,0
			c-0.5,0.3-0.7,0.6-0.6,1.1s0.6,1.5,1.6,3.2l8.8,15.2l-6.8,3.9l-13-22.4L-202.2-202.5z"/>
		<path class="st1" d="M-178.3-222.8l15.8,27.4l-6.8,3.9l-0.9-1.6c-0.3,1.1-0.7,2-1.2,2.7c-0.5,0.8-1.2,1.4-2,1.8
			c-1.1,0.6-2.1,0.9-3.2,0.8s-2-0.5-2.6-1.1c-0.6-0.6-1.4-1.7-2.4-3.4l-6.1-10.5c-1-1.7-1.6-3-1.8-3.9c-0.2-0.8-0.1-1.8,0.4-2.8
			c0.5-1,1.3-1.8,2.4-2.5c0.8-0.5,1.7-0.8,2.6-0.9c0.9-0.1,1.8,0,2.7,0.3l-3.7-6.4L-178.3-222.8z M-179-208.3
			c-0.5-0.8-0.9-1.3-1.2-1.5c-0.3-0.2-0.7-0.2-1.1,0.1c-0.4,0.2-0.6,0.5-0.6,0.9c0,0.3,0.3,0.9,0.8,1.8l6.3,11
			c0.5,0.9,0.9,1.5,1.2,1.7c0.3,0.2,0.6,0.2,1,0c0.4-0.3,0.6-0.6,0.6-1s-0.4-1.2-1.1-2.5L-179-208.3z"/>
		<path class="st1" d="M-154.9-220.2l-6.1,3.5l-0.7-1.2c-0.6-1-1-1.7-1.3-1.9c-0.3-0.2-0.7-0.2-1.1,0.1c-0.4,0.2-0.6,0.5-0.6,0.9
			c0,0.4,0.1,0.8,0.4,1.3c0.4,0.7,0.7,1.2,1,1.4s0.8,0.5,1.5,0.6c0.7,0.1,2,0.1,3.9,0c2.5-0.2,4.4,0,5.5,0.5
			c1.1,0.5,2.1,1.6,3.1,3.2c1.1,1.8,1.6,3.3,1.7,4.5c0.1,1.2-0.3,2.4-1.1,3.5c-0.8,1.1-2,2.2-3.6,3.1c-1.7,1-3.4,1.6-4.9,1.8
			c-1.5,0.2-2.8-0.1-3.8-0.7c-1-0.7-2-1.9-3.1-3.8l-0.6-1.1l6.1-3.5l0.8,1.4c0.7,1.2,1.2,1.9,1.6,2.2c0.4,0.3,0.8,0.3,1.2,0
			c0.5-0.3,0.8-0.6,0.8-0.9c0.1-0.4-0.1-0.9-0.6-1.7c-0.6-1.1-1.1-1.7-1.5-1.8c-0.4-0.1-2.2-0.2-5.4-0.1c-2.7,0-4.5-0.3-5.4-1
			c-1-0.7-1.8-1.6-2.5-2.9c-1-1.8-1.6-3.3-1.6-4.4s0.4-2.2,1.3-3.4c0.9-1.1,2-2.1,3.5-3c1.5-0.9,2.9-1.4,4.1-1.6s2.3-0.2,3.3,0.1
			c0.9,0.3,1.6,0.7,2,1.1c0.4,0.5,1,1.3,1.6,2.4L-154.9-220.2z"/>
		<path class="st1" d="M-152.7-237.6l3.6,6.2c0.3-0.9,0.7-1.7,1.2-2.3c0.5-0.7,1.2-1.2,2-1.7c1.2-0.7,2.4-1,3.6-0.8
			c1.2,0.1,2.1,0.5,2.8,1.2c0.6,0.7,1.6,2.1,2.8,4.2l8.9,15.5l-6.8,3.9l-9.1-15.8c-0.8-1.3-1.3-2.1-1.6-2.4
			c-0.3-0.3-0.7-0.3-1.2-0.1c-0.4,0.2-0.6,0.6-0.5,1.1c0.1,0.5,0.4,1.3,1.1,2.4l9.2,16l-6.8,3.9l-15.8-27.4L-152.7-237.6z"/>
		<path class="st1" d="M-134.4-248.2l2.1,3.6l-7,4.1l-2.1-3.6L-134.4-248.2z M-131.5-243.3l13,22.4l-7,4.1l-13-22.4L-131.5-243.3z"
			/>
		<path class="st1" d="M-122.1-248.7l1,2.1c0.1-1.2,0.5-2.1,1-3c0.5-0.8,1.2-1.5,2.1-2c1.1-0.6,2.1-0.9,3.2-0.7
			c1.1,0.1,2,0.5,2.6,1.1c0.6,0.6,1.4,1.8,2.5,3.6l5.5,9.5c1.2,2,1.9,3.6,2.2,4.6c0.3,1,0.2,2-0.3,2.9c-0.5,0.9-1.2,1.7-2.3,2.3
			c-0.8,0.5-1.7,0.7-2.7,0.8c-0.9,0-1.9-0.2-3-0.6l3,5.1l-6.8,3.9l-14.8-25.6L-122.1-248.7z M-116.4-243.3c-0.8-1.4-1.3-2.2-1.6-2.4
			c-0.3-0.2-0.6-0.2-1.1,0c-0.5,0.3-0.6,0.6-0.6,1c0.1,0.4,0.5,1.3,1.2,2.6l5.4,9.3c0.8,1.4,1.3,2.2,1.7,2.4c0.3,0.3,0.7,0.3,1.2,0
			c0.4-0.3,0.6-0.6,0.6-0.9c-0.1-0.4-0.5-1.2-1.1-2.4L-116.4-243.3z"/>
		<path class="st1" d="M-93-255.9l-6.1,3.5l-0.7-1.2c-0.6-1-1-1.7-1.3-1.9c-0.3-0.2-0.7-0.2-1.1,0.1c-0.4,0.2-0.6,0.5-0.6,0.9
			c0,0.4,0.1,0.8,0.4,1.3c0.4,0.7,0.7,1.2,1,1.4s0.8,0.5,1.5,0.6s2,0.1,3.9,0c2.5-0.2,4.4,0,5.5,0.5c1.1,0.5,2.1,1.6,3.1,3.2
			c1.1,1.8,1.6,3.3,1.7,4.5c0.1,1.2-0.3,2.4-1.1,3.5s-2,2.2-3.6,3.1c-1.7,1-3.4,1.6-4.9,1.8c-1.5,0.2-2.8-0.1-3.8-0.7
			c-1-0.7-2-1.9-3.1-3.8l-0.6-1.1l6.1-3.5l0.8,1.4c0.7,1.2,1.2,1.9,1.6,2.2c0.4,0.3,0.8,0.3,1.2,0c0.5-0.3,0.8-0.6,0.8-0.9
			s-0.1-0.9-0.6-1.7c-0.6-1.1-1.1-1.7-1.5-1.8c-0.4-0.1-2.2-0.2-5.4-0.1c-2.7,0-4.5-0.3-5.4-1c-1-0.7-1.8-1.6-2.5-2.9
			c-1-1.8-1.6-3.3-1.6-4.4c0-1.1,0.4-2.2,1.3-3.4c0.9-1.1,2-2.1,3.5-3c1.5-0.9,2.9-1.4,4.1-1.6c1.3-0.2,2.4-0.2,3.3,0.1
			c0.9,0.3,1.6,0.7,2,1.1c0.4,0.5,1,1.3,1.6,2.4L-93-255.9z"/>
	</g>
	<g>
		<path class="st1" d="M201.3-83.7l5.8,4.1c-3.2-4.6-3.8-8.9-1.8-13l16.4,9.5c-1.5,2.6-2.2,4.7-2.3,6.3c0,1.6,0.5,2.9,1.6,3.9
			c1.1,1,3.9,2.8,8.4,5.4l18.4,10.6l-8.2,14.2l-46.6-26.9L201.3-83.7z"/>
		<path class="st1" d="M250.6-113.4L240-95.1l10.1,5.8c2.1,1.2,3.6,1.8,4.3,1.9c0.8,0,1.4-0.4,1.9-1.2c0.6-1.1,0.6-2,0-2.9
			c-0.6-0.8-2.1-1.9-4.4-3.2l-6.1-3.5l7.8-13.4l3.4,2c2.9,1.7,5,3.1,6.3,4.4s2.5,3.1,3.5,5.4c1,2.3,1.3,4.8,1,7.4
			c-0.3,2.6-1.3,5.4-3.1,8.5c-1.7,3-3.7,5.4-5.9,7.2c-2.2,1.8-4.4,2.9-6.7,3.3c-2.2,0.4-4.4,0.3-6.5-0.2c-2.1-0.6-4.9-1.8-8.3-3.8
			l-13.6-7.8c-4.1-2.4-7-4.8-8.7-7.2s-2.5-5.3-2.3-8.5c0.2-3.2,1.2-6.5,3.1-9.7c2.3-4,4.9-6.8,7.9-8.5c3-1.7,6-2.4,9.1-2
			s6.9,1.9,11.4,4.5L250.6-113.4z M234.8-103.6l-3.4-2c-2.4-1.4-4-2.2-4.9-2.3c-0.8-0.1-1.5,0.2-2,1c-0.6,1-0.6,1.8-0.2,2.3
			c0.5,0.6,2,1.6,4.6,3.1l3.4,2L234.8-103.6z"/>
		<path class="st1" d="M260.8-152.3l-7.3,12.6l-2.5-1.5c-2.2-1.2-3.6-1.9-4.3-2c-0.7-0.1-1.4,0.4-1.9,1.3c-0.5,0.8-0.5,1.5-0.2,2.2
			c0.3,0.7,1,1.4,2,2c1.4,0.8,2.5,1.3,3.3,1.5c0.8,0.2,1.9,0,3.2-0.5c1.4-0.5,3.7-1.9,7-4.1c4.4-3,7.8-4.6,10.4-4.8
			c2.5-0.3,5.5,0.6,8.9,2.5c3.8,2.2,6.4,4.3,7.7,6.4c1.4,2.1,1.9,4.6,1.6,7.5c-0.3,2.9-1.4,6-3.2,9.2c-2.1,3.6-4.4,6.4-7,8.3
			c-2.6,1.9-5.1,2.8-7.6,2.6c-2.5-0.1-5.7-1.3-9.5-3.6l-2.2-1.3l7.3-12.6l2.9,1.7c2.5,1.4,4.2,2.2,5.2,2.3c0.9,0.1,1.7-0.3,2.2-1.2
			c0.6-1,0.7-1.9,0.5-2.5c-0.3-0.7-1.2-1.5-2.8-2.4c-2.2-1.3-3.8-1.8-4.6-1.6c-0.9,0.2-4.1,2-9.7,5.4c-4.7,2.8-8.3,4.1-10.8,3.9
			c-2.4-0.2-5-1-7.6-2.6c-3.7-2.1-6.2-4.2-7.4-6.2c-1.2-2-1.6-4.5-1.2-7.4c0.4-2.9,1.5-5.9,3.3-9c1.8-3.1,3.7-5.5,5.7-7.2
			c2-1.7,4-2.8,6-3.2c2-0.4,3.6-0.4,4.8,0c1.2,0.4,3,1.3,5.4,2.6L260.8-152.3z"/>
		<path class="st1" d="M257.1-180.2l4,2.6c-0.9-2.2-1.4-4.3-1.3-6.3c0.1-2,0.6-3.9,1.6-5.7c1.3-2.2,3-3.8,5.1-4.7
			c2.1-0.9,4-1.1,5.8-0.6c1.8,0.5,4.5,1.8,8.2,3.9l19.6,11.3c4.2,2.4,7.1,4.4,8.6,6c1.5,1.5,2.3,3.4,2.5,5.6
			c0.2,2.2-0.4,4.4-1.7,6.6c-1,1.8-2.4,3.1-4,4.2c-1.7,1-3.7,1.7-6,2l10.7,6.2l-8.2,14.2l-53.2-30.7L257.1-180.2z M272.9-176.5
			c-2.9-1.7-4.7-2.6-5.4-2.7s-1.4,0.3-1.9,1.2c-0.5,0.9-0.5,1.7,0,2.4s2.2,1.8,4.9,3.3l19.3,11.1c2.8,1.6,4.6,2.5,5.5,2.6
			c0.9,0.1,1.6-0.3,2.1-1.2c0.5-0.9,0.5-1.7,0-2.3c-0.5-0.6-2-1.6-4.5-3L272.9-176.5z"/>
		<path class="st1" d="M312.9-221.3L302.3-203l10.1,5.8c2.1,1.2,3.6,1.8,4.3,1.9c0.8,0,1.4-0.4,1.9-1.2c0.6-1.1,0.6-2,0-2.9
			c-0.6-0.8-2.1-1.9-4.4-3.2l-6.1-3.5l7.8-13.4l3.4,2c2.9,1.7,5,3.1,6.3,4.4c1.3,1.3,2.5,3.1,3.5,5.4c1,2.3,1.3,4.8,1,7.4
			c-0.3,2.6-1.3,5.4-3.1,8.5c-1.7,3-3.7,5.4-5.9,7.2c-2.2,1.8-4.4,2.9-6.7,3.3c-2.2,0.4-4.4,0.3-6.5-0.2c-2.1-0.6-4.9-1.8-8.3-3.8
			l-13.6-7.8c-4.1-2.4-7-4.8-8.7-7.2c-1.7-2.5-2.5-5.3-2.3-8.5c0.2-3.2,1.2-6.5,3.1-9.7c2.3-4,4.9-6.8,7.9-8.5c3-1.7,6-2.4,9.1-2
			c3.1,0.4,6.9,1.9,11.4,4.5L312.9-221.3z M297.1-211.5l-3.4-2c-2.4-1.4-4-2.2-4.9-2.3c-0.9-0.1-1.5,0.2-2,1c-0.6,1-0.6,1.8-0.2,2.3
			c0.5,0.6,2,1.6,4.6,3.1l3.4,2L297.1-211.5z"/>
		<path class="st1" d="M327.2-261.1l-7.7,13.4l-5.4-3.1c-1.9-1.1-3.2-1.7-4.1-1.7c-0.8-0.1-1.5,0.3-2,1.1c-0.5,0.8-0.5,1.5-0.1,2.2
			c0.4,0.6,1.7,1.5,3.7,2.7l22,12.7c1.7,1,3,1.5,4.1,1.5c1.1,0.1,1.8-0.3,2.3-1.1c0.6-1,0.5-1.9-0.2-2.7c-0.7-0.8-2.2-2-4.6-3.3
			l-5.5-3.2l7.3-12.6c3.7,2.2,6.4,3.9,8.1,5.2c1.7,1.3,3.2,3.2,4.4,5.7c1.2,2.5,1.7,5,1.4,7.7c-0.2,2.7-1.3,5.6-3.1,8.8
			c-2.3,4-4.8,6.8-7.5,8.3c-2.7,1.6-5.6,2.1-8.6,1.6c-3-0.5-6.8-2-11.4-4.6l-13.2-7.6c-4-2.3-6.7-4.4-8.3-6.4
			c-1.6-2-2.4-4.7-2.4-8.2c-0.1-3.5,1-7.1,3.1-10.8c2.1-3.7,4.7-6.4,7.8-8.1c3.1-1.7,6.1-2.3,9-1.8
			C319.2-265.1,322.8-263.6,327.2-261.1z"/>
		<path class="st1" d="M314.4-294l7.3,4.2l2.2-3.8l7.4,4.3l-2.2,3.8l24.9,14.4c3.1,1.8,4.9,2.6,5.4,2.5c0.5-0.1,1.5-1.3,2.8-3.6
			l7.5,4.3l-3.3,5.7c-1.9,3.2-3.3,5.5-4.4,6.7c-1.1,1.2-2.4,2.1-4,2.6c-1.6,0.5-3.1,0.5-4.5,0c-1.4-0.5-4.4-2-9.1-4.7l-23.7-13.7
			l-1.8,3.1l-7.4-4.3l1.8-3.1l-7.3-4.2L314.4-294z"/>
	</g>
	<g>
		<path class="st1" d="M63.8-222.5l-6.4-3.7l1.5-2.6c0.5-0.9,0.8-1.6,0.8-2c0-0.4-0.1-0.7-0.5-1c-0.4-0.2-0.7-0.2-1,0
			c-0.3,0.2-0.7,0.8-1.3,1.8l-6.1,10.6c-0.5,0.8-0.7,1.5-0.7,2c0,0.5,0.2,0.9,0.6,1.1c0.5,0.3,0.9,0.2,1.3-0.1
			c0.4-0.3,0.9-1.1,1.6-2.2l1.5-2.7l6.1,3.5c-1,1.8-1.9,3.1-2.5,3.9s-1.5,1.5-2.7,2.1c-1.2,0.6-2.4,0.8-3.7,0.7
			c-1.3-0.1-2.7-0.6-4.2-1.5c-1.9-1.1-3.3-2.3-4-3.6c-0.7-1.3-1-2.7-0.8-4.2c0.2-1.5,1-3.3,2.2-5.5l3.7-6.4c1.1-1.9,2.1-3.2,3.1-4
			c0.9-0.8,2.3-1.1,4-1.2c1.7,0,3.4,0.5,5.2,1.5c1.8,1,3.1,2.3,3.9,3.8c0.8,1.5,1.1,2.9,0.9,4.3C65.8-226.4,65-224.6,63.8-222.5z"/>
		<path class="st1" d="M81.6-213l-3.2,5.5c-1.2,2-2.1,3.4-2.9,4.3s-1.7,1.5-2.8,1.9s-2.3,0.5-3.6,0.3c-1.3-0.2-2.6-0.7-3.9-1.5
			c-1.5-0.9-2.7-1.8-3.6-2.7c-0.9-0.9-1.4-1.9-1.6-2.9c-0.2-1-0.1-2.1,0.2-3.2c0.3-1.1,1-2.6,2.1-4.5l3.3-5.8
			c1.2-2.1,2.4-3.6,3.5-4.5c1.1-0.9,2.5-1.4,4.1-1.4c1.6,0,3.3,0.5,5.1,1.5c1.5,0.9,2.7,1.9,3.6,3c0.8,1.1,1.3,2.2,1.5,3.3
			s0.1,2.1-0.1,3C83.1-215.9,82.6-214.6,81.6-213z M75.8-218.7c0.7-1.2,1-1.9,1.1-2.3c0-0.4-0.1-0.7-0.5-0.9c-0.4-0.2-0.8-0.2-1.1,0
			c-0.3,0.2-0.8,0.9-1.5,2.1l-5.8,10.1c-0.6,1.1-0.9,1.8-1,2.2c-0.1,0.4,0.1,0.7,0.5,0.9c0.4,0.2,0.8,0.2,1.1,0
			c0.3-0.2,0.7-0.8,1.3-1.8L75.8-218.7z"/>
		<path class="st1" d="M95.2-215.7l-1.4,2.1c1-0.5,2-0.8,3-0.8c1,0,1.9,0.3,2.9,0.8c1.8,1.1,2.8,2.7,2.8,5c1.1-0.5,2.1-0.8,3-0.8
			c1,0,1.9,0.2,2.8,0.8c1.2,0.7,2,1.5,2.4,2.5c0.4,1,0.5,2,0.3,2.9c-0.3,0.9-0.9,2.3-2,4.2l-9.2,16l-6.6-3.8l8.4-14.6
			c1.1-1.9,1.7-3.1,1.9-3.7c0.1-0.5,0-0.9-0.5-1.2c-0.5-0.3-0.9-0.2-1.3,0.1c-0.4,0.4-1.2,1.5-2.3,3.4L91-188.2l-6.6-3.8l8.2-14.3
			c1.3-2.2,2-3.5,2.1-4.1s0-0.9-0.5-1.2c-0.3-0.2-0.6-0.2-1-0.1c-0.3,0.1-0.6,0.3-0.8,0.6c-0.2,0.3-0.6,1-1.3,2.1l-9,15.6l-6.6-3.8
			l13-22.4L95.2-215.7z"/>
		<path class="st1" d="M122.1-200.2l-1.3,1.9c1.1-0.5,2.1-0.7,3.1-0.6c1,0,1.9,0.3,2.7,0.8c1.1,0.6,1.8,1.4,2.3,2.4
			c0.4,1,0.5,2,0.3,2.8c-0.2,0.9-0.9,2.2-1.9,4l-5.5,9.5c-1.2,2-2.1,3.4-2.9,4.1s-1.6,1.1-2.7,1.2c-1,0.1-2.1-0.2-3.2-0.8
			c-0.8-0.5-1.5-1.1-2-2c-0.5-0.8-0.8-1.8-1-2.9l-3,5.1l-6.8-3.9l14.8-25.6L122.1-200.2z M120.3-192.5c0.8-1.4,1.2-2.3,1.3-2.6
			s-0.1-0.7-0.6-0.9c-0.5-0.3-0.8-0.3-1.2,0c-0.3,0.3-0.9,1-1.6,2.3l-5.4,9.3c-0.8,1.4-1.2,2.2-1.3,2.7c-0.1,0.4,0.1,0.8,0.6,1
			c0.4,0.3,0.8,0.3,1.1,0c0.3-0.2,0.8-1,1.5-2.2L120.3-192.5z"/>
		<path class="st1" d="M141.9-173.3l-8.8-5.1l-2.8,4.9c-0.6,1-0.9,1.7-0.9,2.1c0,0.4,0.2,0.7,0.6,0.9c0.5,0.3,1,0.3,1.4,0
			s0.9-1,1.6-2.1l1.7-3l6.5,3.7l-1,1.7c-0.8,1.4-1.5,2.4-2.1,3c-0.6,0.6-1.5,1.2-2.6,1.7c-1.1,0.5-2.3,0.6-3.5,0.5
			c-1.2-0.1-2.6-0.6-4.1-1.5c-1.4-0.8-2.6-1.8-3.5-2.8c-0.9-1.1-1.4-2.1-1.6-3.2c-0.2-1.1-0.2-2.1,0.1-3.1s0.9-2.4,1.8-4l3.8-6.5
			c1.1-2,2.3-3.4,3.5-4.2c1.2-0.8,2.6-1.2,4.1-1.1s3.1,0.6,4.7,1.5c1.9,1.1,3.3,2.4,4.1,3.8c0.8,1.4,1.1,2.9,1,4.4
			c-0.2,1.5-0.9,3.3-2.2,5.5L141.9-173.3z M137.2-180.9l0.9-1.6c0.7-1.2,1-1.9,1.1-2.4c0.1-0.4-0.1-0.7-0.5-0.9
			c-0.5-0.3-0.8-0.3-1.1-0.1c-0.3,0.2-0.8,1-1.5,2.2l-0.9,1.6L137.2-180.9z"/>
		<path class="st1" d="M159.8-182.4l-2,3.5l1.8,1.1l-2.1,3.6l-1.8-1.1l-6.9,12c-0.9,1.5-1.3,2.3-1.2,2.6c0.1,0.3,0.6,0.7,1.8,1.4
			l-2.1,3.6l-2.8-1.6c-1.6-0.9-2.6-1.6-3.2-2.1s-1-1.2-1.2-1.9c-0.2-0.8-0.2-1.5,0-2.2c0.2-0.7,1-2.1,2.3-4.4l6.6-11.4l-1.5-0.8
			l2.1-3.6l1.5,0.8l2-3.5L159.8-182.4z"/>
		<path class="st1" d="M168.4-173.4l-13,22.4l-7-4.1l13-22.4L168.4-173.4z M171.3-178.4l-2.1,3.6l-7-4.1l2.1-3.6L171.3-178.4z"/>
		<path class="st1" d="M179.8-170.8l-2,3.5l1.8,1.1l-2.1,3.6l-1.8-1.1l-6.9,12c-0.9,1.5-1.3,2.3-1.2,2.6c0.1,0.3,0.6,0.7,1.8,1.4
			l-2.1,3.6l-2.8-1.6c-1.6-0.9-2.6-1.6-3.2-2.1s-1-1.2-1.2-1.9c-0.2-0.8-0.2-1.5,0-2.2c0.2-0.7,1-2.1,2.3-4.4l6.6-11.4l-1.5-0.8
			l2.1-3.6l1.5,0.8l2-3.5L179.8-170.8z"/>
		<path class="st1" d="M188.5-161.9l-13,22.4l-7-4.1l13-22.4L188.5-161.9z M191.3-166.8l-2.1,3.6l-7-4.1l2.1-3.6L191.3-166.8z"/>
		<path class="st1" d="M201.8-143.6l-3.2,5.5c-1.2,2-2.1,3.4-2.9,4.3c-0.7,0.8-1.7,1.5-2.8,1.9c-1.1,0.4-2.3,0.5-3.6,0.3
			c-1.3-0.2-2.6-0.7-3.9-1.5c-1.5-0.9-2.7-1.8-3.6-2.7c-0.9-0.9-1.4-1.9-1.6-2.9s-0.1-2.1,0.2-3.2c0.3-1.1,1-2.6,2.1-4.5l3.3-5.8
			c1.2-2.1,2.4-3.6,3.5-4.5s2.5-1.4,4.1-1.4c1.6,0,3.3,0.5,5.1,1.5c1.5,0.9,2.7,1.9,3.6,3s1.3,2.2,1.5,3.3c0.2,1.1,0.1,2.1-0.1,3
			C203.3-146.5,202.8-145.2,201.8-143.6z M196-149.3c0.7-1.2,1-1.9,1.1-2.3s-0.1-0.7-0.5-0.9s-0.8-0.2-1.1,0
			c-0.3,0.2-0.8,0.9-1.5,2.1l-5.8,10.1c-0.6,1.1-0.9,1.8-1,2.2c-0.1,0.4,0.1,0.7,0.5,0.9c0.4,0.2,0.8,0.2,1.1,0
			c0.3-0.2,0.7-0.8,1.3-1.8L196-149.3z"/>
		<path class="st1" d="M215.6-146.2l-1.3,2c1-0.5,1.9-0.8,2.9-0.8c1,0,1.9,0.3,2.8,0.8c1.2,0.7,2,1.5,2.4,2.5c0.4,1,0.5,2,0.2,2.9
			c-0.3,1-1,2.4-2.1,4.4l-9.1,15.7l-6.8-3.9l9-15.5c0.9-1.5,1.4-2.5,1.5-2.9c0.1-0.4-0.1-0.7-0.6-1c-0.5-0.3-0.9-0.3-1.2,0.1
			c-0.3,0.3-1,1.3-2,3l-8.8,15.2l-6.8-3.9l13-22.4L215.6-146.2z"/>
	</g>
	<g>
		<path class="st1" d="M-363.2,192.1l-9.7,5.6l-1.1-1.9c-1-1.7-1.7-2.7-2.1-3s-1-0.3-1.8,0.2c-0.6,0.4-1,0.8-1,1.4
			c-0.1,0.6,0.1,1.3,0.6,2.1c0.6,1.1,1.2,1.9,1.6,2.3c0.4,0.4,1.2,0.7,2.4,0.9c1.1,0.2,3.2,0.2,6.3,0c4.1-0.3,7,0,8.8,0.8
			c1.8,0.8,3.4,2.5,4.9,5.1c1.7,2.9,2.6,5.3,2.7,7.3s-0.5,3.8-1.8,5.6c-1.3,1.8-3.2,3.5-5.7,4.9c-2.8,1.6-5.4,2.5-7.9,2.8
			c-2.5,0.3-4.5-0.1-6.1-1.2c-1.6-1.1-3.3-3.1-5-6.1l-1-1.7l9.7-5.6l1.3,2.3c1.1,1.9,2,3.1,2.5,3.6c0.6,0.4,1.2,0.4,1.9,0
			c0.8-0.4,1.2-1,1.3-1.5c0.1-0.6-0.2-1.5-1-2.7c-1-1.7-1.8-2.7-2.5-2.9c-0.7-0.2-3.5-0.2-8.6-0.2c-4.3,0-7.2-0.5-8.7-1.5
			s-2.9-2.6-4.1-4.6c-1.7-2.9-2.5-5.2-2.5-7s0.6-3.6,2-5.4c1.4-1.8,3.3-3.4,5.7-4.8c2.4-1.4,4.6-2.2,6.6-2.6c2-0.4,3.8-0.3,5.2,0.2
			c1.5,0.5,2.5,1.1,3.2,1.8c0.7,0.7,1.5,2,2.6,3.8L-363.2,192.1z"/>
		<path class="st1" d="M-341,164l20.7,35.9l-11.1,6.4l-1.5-3.1c-0.1,1.6-0.5,3.1-1.2,4.3s-1.9,2.3-3.3,3.1c-1.6,0.9-3.2,1.4-4.6,1.5
			c-1.4,0-2.7-0.3-3.7-0.9c-1.1-0.7-2-1.5-2.7-2.4c-0.7-1-2-3-3.8-6.1l-14-24.2l10.9-6.3l14.1,24.4c1.6,2.8,2.7,4.4,3.1,4.8
			c0.5,0.4,1.1,0.4,1.8,0c0.8-0.5,1.1-1,1-1.6c-0.2-0.6-1.1-2.4-2.8-5.4l-14-24.2L-341,164z"/>
		<path class="st1" d="M-325.9,155.3l1.6,3.3c0.2-1.8,0.8-3.4,1.6-4.7s1.9-2.4,3.3-3.2c1.7-1,3.4-1.4,5.2-1.2s3.1,0.8,4.1,1.8
			s2.3,2.9,4,5.8l8.7,15.1c1.9,3.3,3,5.7,3.4,7.3c0.4,1.6,0.3,3.2-0.5,4.7c-0.7,1.5-1.9,2.8-3.6,3.7c-1.4,0.8-2.8,1.2-4.3,1.2
			c-1.5,0-3.1-0.3-4.8-1l4.8,8.2l-10.9,6.3l-23.7-41L-325.9,155.3z M-316.8,164c-1.3-2.2-2.1-3.5-2.6-3.9c-0.4-0.4-1-0.3-1.8,0.1
			c-0.7,0.4-1,1-0.9,1.6c0.1,0.7,0.8,2,2,4.1l8.6,14.9c1.2,2.2,2.1,3.5,2.7,3.9c0.5,0.4,1.2,0.4,1.9,0c0.7-0.4,1-0.9,0.9-1.5
			c-0.1-0.6-0.7-1.8-1.8-3.8L-316.8,164z"/>
		<path class="st1" d="M-297.2,138.7l1.6,3.3c0.2-1.8,0.8-3.4,1.6-4.7c0.8-1.3,1.9-2.4,3.3-3.2c1.7-1,3.4-1.4,5.2-1.2
			c1.8,0.2,3.1,0.8,4.1,1.8s2.3,2.9,4,5.8l8.7,15.1c1.9,3.3,3,5.7,3.4,7.3c0.4,1.6,0.2,3.2-0.5,4.7c-0.7,1.5-1.9,2.8-3.6,3.7
			c-1.4,0.8-2.8,1.2-4.3,1.2c-1.5,0-3.1-0.3-4.8-1l4.8,8.2l-10.9,6.3l-23.7-41L-297.2,138.7z M-288,147.4c-1.3-2.2-2.1-3.5-2.6-3.9
			c-0.4-0.4-1-0.3-1.8,0.1c-0.7,0.4-1,1-0.9,1.6c0.1,0.7,0.8,2,2,4.1l8.6,14.9c1.2,2.2,2.1,3.5,2.7,3.9c0.5,0.4,1.2,0.4,1.9,0
			c0.7-0.4,1-0.9,0.9-1.5c-0.1-0.6-0.7-1.8-1.8-3.8L-288,147.4z"/>
		<path class="st1" d="M-247.5,126.9l5.1,8.8c1.9,3.2,3.1,5.7,3.6,7.4c0.5,1.7,0.7,3.5,0.4,5.4c-0.3,1.9-1.1,3.7-2.4,5.3
			c-1.3,1.6-3,3-5.2,4.3c-2.4,1.4-4.6,2.3-6.6,2.7c-2,0.4-3.8,0.4-5.3-0.2c-1.5-0.5-3-1.5-4.2-2.7c-1.3-1.3-2.8-3.5-4.6-6.5
			l-5.3-9.2c-1.9-3.3-3.1-6.2-3.4-8.4c-0.4-2.3,0.1-4.5,1.3-6.8c1.2-2.2,3.3-4.2,6.2-5.9c2.5-1.4,4.8-2.3,7-2.6
			c2.2-0.3,4.1-0.1,5.7,0.5c1.6,0.6,3,1.5,4.1,2.5C-250.2,122.5-249,124.3-247.5,126.9z M-260,130.5c-1.1-1.8-1.8-2.9-2.3-3.3
			c-0.5-0.4-1-0.4-1.7,0c-0.7,0.4-0.9,0.9-0.9,1.5c0.1,0.6,0.6,1.8,1.7,3.7l9.4,16.2c1,1.7,1.7,2.7,2.2,3.1c0.5,0.4,1.1,0.4,1.7,0
			c0.6-0.4,0.9-0.9,0.9-1.4c-0.1-0.6-0.5-1.7-1.4-3.2L-260,130.5z"/>
		<path class="st1" d="M-240.3,105.9l2.3,5c-0.4-4.3,0.9-7.4,3.8-9.4l7.3,12.6c-2,1.2-3.3,2.3-3.9,3.4c-0.6,1.1-0.8,2.2-0.4,3.3
			c0.3,1.1,1.5,3.4,3.5,6.9l8.2,14.2l-10.9,6.3l-20.7-35.9L-240.3,105.9z"/>
		<path class="st1" d="M-221.6,88.7l3.3,5.7l2.9-1.7l3.3,5.7l-2.9,1.7l11.1,19.2c1.4,2.4,2.2,3.6,2.6,3.7c0.4,0.1,1.5-0.3,3.3-1.4
			l3.3,5.8l-4.4,2.5c-2.5,1.4-4.3,2.4-5.5,2.8c-1.2,0.4-2.4,0.5-3.6,0.2c-1.2-0.3-2.2-0.8-3-1.7c-0.8-0.9-2.2-3.1-4.2-6.6
			l-10.5-18.2l-2.4,1.4l-3.3-5.7l2.4-1.4l-3.3-5.7L-221.6,88.7z"/>
	</g>
	<g>
		<path class="st2" d="M-420.1-140.5l3.5,2c-0.8,1.4-1.2,2.3-1.2,2.6c0,0.3,0.3,0.7,0.9,1l0.7,0.4l1.7-2.9l3.6,2.1l-0.9,1.6
			l18.4,10.6l-3.9,6.8l-18.4-10.6l-0.8,1.4l-3.6-2.1l0.8-1.4c-1.5-0.9-2.4-1.5-2.9-1.9c-0.4-0.4-0.7-0.9-0.9-1.5
			c-0.2-0.6-0.1-1.4,0.1-2.2c0.2-0.8,0.8-2,1.6-3.5L-420.1-140.5z"/>
		<path class="st2" d="M-415.3-148.8l3.6,2.1l-4.1,7l-3.6-2.1L-415.3-148.8z M-410.3-146l22.4,13l-4.1,7l-22.4-13L-410.3-146z"/>
		<path class="st2" d="M-407.7-157.4l3.5,2l1.1-1.8l3.6,2.1l-1.1,1.8l12,6.9c1.5,0.9,2.3,1.3,2.6,1.2c0.3-0.1,0.7-0.6,1.4-1.8
			l3.6,2.1l-1.6,2.8c-0.9,1.6-1.6,2.6-2.1,3.2c-0.5,0.6-1.2,1-1.9,1.2c-0.8,0.2-1.5,0.2-2.2,0c-0.7-0.2-2.1-1-4.4-2.3l-11.4-6.6
			l-0.8,1.5l-3.6-2.1l0.8-1.5l-3.5-2L-407.7-157.4z"/>
		<path class="st2" d="M-398.8-165.9l2,1.3c-0.5-1-0.8-1.9-0.8-2.9c0-1,0.3-1.9,0.8-2.8c0.7-1.2,1.5-2,2.5-2.4s2-0.5,2.9-0.2
			c1,0.3,2.4,1,4.4,2.1l15.7,9.1l-3.9,6.8l-15.5-9c-1.5-0.9-2.5-1.4-2.9-1.5c-0.4-0.1-0.7,0.1-1,0.6c-0.3,0.5-0.3,0.9,0.1,1.3
			c0.3,0.3,1.3,1,3,2l15.2,8.8l-3.9,6.8l-22.4-13L-398.8-165.9z"/>
		<path class="st2" d="M-371.8-185.9l-5.1,8.8l4.9,2.8c1,0.6,1.7,0.9,2.1,0.9c0.4,0,0.7-0.2,0.9-0.6c0.3-0.5,0.3-1,0-1.4
			c-0.3-0.4-1-0.9-2.1-1.6l-3-1.7l3.7-6.5l1.7,1c1.4,0.8,2.4,1.5,3,2.1c0.6,0.6,1.2,1.5,1.7,2.6c0.5,1.1,0.6,2.3,0.5,3.5
			c-0.1,1.2-0.6,2.6-1.5,4.1c-0.8,1.4-1.8,2.6-2.8,3.5c-1.1,0.9-2.1,1.4-3.2,1.6c-1.1,0.2-2.1,0.2-3.1-0.1s-2.4-0.9-4-1.8l-6.5-3.8
			c-2-1.1-3.4-2.3-4.2-3.5c-0.8-1.2-1.2-2.6-1.1-4.1c0.1-1.6,0.6-3.1,1.5-4.7c1.1-1.9,2.4-3.3,3.8-4.1c1.4-0.8,2.9-1.1,4.4-1
			c1.5,0.2,3.3,0.9,5.5,2.2L-371.8-185.9z M-379.4-181.1l-1.6-0.9c-1.2-0.7-1.9-1-2.4-1.1c-0.4-0.1-0.7,0.1-0.9,0.5
			c-0.3,0.5-0.3,0.9-0.1,1.1c0.2,0.3,1,0.8,2.2,1.5l1.6,0.9L-379.4-181.1z"/>
		<path class="st2" d="M-366.9-204.6l-3.5,6.1l-1.2-0.7c-1-0.6-1.7-0.9-2.1-1c-0.3,0-0.7,0.2-0.9,0.6c-0.2,0.4-0.3,0.7-0.1,1.1
			c0.1,0.3,0.5,0.7,1,0.9c0.7,0.4,1.2,0.6,1.6,0.7c0.4,0.1,0.9,0,1.6-0.3s1.8-0.9,3.4-2c2.1-1.4,3.8-2.2,5-2.3s2.6,0.3,4.3,1.2
			c1.8,1.1,3.1,2.1,3.7,3.1s0.9,2.2,0.8,3.6c-0.1,1.4-0.7,2.9-1.6,4.5c-1,1.7-2.1,3.1-3.4,4c-1.3,0.9-2.5,1.3-3.7,1.3
			c-1.2-0.1-2.7-0.6-4.6-1.7l-1.1-0.6l3.5-6.1l1.4,0.8c1.2,0.7,2,1.1,2.5,1.1s0.8-0.1,1.1-0.6c0.3-0.5,0.4-0.9,0.2-1.2
			c-0.1-0.3-0.6-0.7-1.4-1.2c-1.1-0.6-1.8-0.9-2.2-0.8c-0.4,0.1-2,1-4.7,2.6c-2.3,1.4-4,2-5.2,1.9c-1.2-0.1-2.4-0.5-3.7-1.2
			c-1.8-1-3-2-3.6-3c-0.6-1-0.8-2.1-0.6-3.5c0.2-1.4,0.7-2.9,1.6-4.4c0.9-1.5,1.8-2.6,2.8-3.5c1-0.8,1.9-1.3,2.9-1.5
			c0.9-0.2,1.7-0.2,2.3,0c0.6,0.2,1.5,0.6,2.6,1.3L-366.9-204.6z"/>
		<path class="st2" d="M-357.5-220.9l-3.5,6.1l-1.2-0.7c-1-0.6-1.7-0.9-2.1-1c-0.3,0-0.7,0.2-0.9,0.6c-0.2,0.4-0.3,0.7-0.1,1.1
			c0.1,0.3,0.5,0.7,1,0.9c0.7,0.4,1.2,0.6,1.6,0.7c0.4,0.1,0.9,0,1.6-0.3c0.7-0.3,1.8-0.9,3.4-2c2.1-1.4,3.8-2.2,5-2.3
			s2.6,0.3,4.3,1.2c1.8,1.1,3.1,2.1,3.7,3.1c0.7,1,0.9,2.2,0.8,3.6c-0.1,1.4-0.7,2.9-1.6,4.5c-1,1.7-2.1,3.1-3.4,4
			c-1.3,0.9-2.5,1.3-3.7,1.3c-1.2-0.1-2.7-0.6-4.6-1.7l-1.1-0.6l3.5-6.1l1.4,0.8c1.2,0.7,2,1.1,2.5,1.1c0.4,0.1,0.8-0.1,1.1-0.6
			c0.3-0.5,0.4-0.9,0.2-1.2c-0.1-0.3-0.6-0.7-1.4-1.2c-1.1-0.6-1.8-0.9-2.2-0.8c-0.4,0.1-2,1-4.7,2.6c-2.3,1.4-4,2-5.2,1.9
			c-1.2-0.1-2.4-0.5-3.7-1.2c-1.8-1-3-2-3.6-3s-0.8-2.1-0.6-3.5c0.2-1.4,0.7-2.9,1.6-4.3c0.9-1.5,1.8-2.6,2.8-3.5
			c1-0.8,1.9-1.3,2.9-1.5c0.9-0.2,1.7-0.2,2.3,0c0.6,0.2,1.5,0.6,2.6,1.3L-357.5-220.9z"/>
	</g>
	<g>
		<path class="st2" d="M273.8-81.5l2,3.5c-1.4,0.8-2.2,1.4-2.4,1.6c-0.2,0.3-0.1,0.7,0.3,1.3l0.4,0.7l2.9-1.7l2.1,3.6l-1.6,0.9
			L288-53.2l-6.8,3.9l-10.6-18.4l-1.4,0.8l-2.1-3.6l1.4-0.8c-0.9-1.5-1.4-2.5-1.6-3c-0.2-0.6-0.2-1.1,0-1.8c0.2-0.6,0.6-1.2,1.2-1.9
			c0.6-0.6,1.7-1.4,3.2-2.2L273.8-81.5z"/>
		<path class="st2" d="M289.1-72.2l-6.4,3.7l-0.9-1.5c-1-1.7-1.6-3.2-1.7-4.4c-0.1-1.2,0.2-2.5,1-3.9c0.8-1.4,2.1-2.7,4.1-3.8
			c2.3-1.3,4.3-1.9,5.9-1.8s2.9,0.7,3.9,1.8s2.5,3.4,4.6,7.1l6.5,11.3l-6.6,3.8l-1.2-2c0,1-0.1,2-0.6,2.7c-0.4,0.8-1.1,1.4-2,2
			c-1.2,0.7-2.5,1-3.9,0.9c-1.4-0.1-2.7-1.3-4-3.5l-1.1-1.8c-1-1.7-1.4-3-1.2-3.9c0.2-0.9,1.1-2.4,2.7-4.4c1.7-2.2,2.6-3.5,2.6-3.9
			c0-0.4-0.3-1.1-0.8-2c-0.7-1.2-1.2-1.9-1.6-2.1c-0.4-0.3-0.8-0.3-1.2,0c-0.5,0.3-0.7,0.6-0.6,0.9c0.1,0.4,0.5,1.2,1.2,2.4
			L289.1-72.2z M293-70.3c-0.6,1.4-0.9,2.5-0.7,3.1c0.1,0.6,0.5,1.5,1.1,2.5c0.7,1.2,1.2,1.9,1.5,2.1c0.3,0.2,0.7,0.2,1.2,0
			c0.4-0.2,0.6-0.5,0.6-0.9c0-0.3-0.4-1.1-1-2.2L293-70.3z"/>
		<path class="st2" d="M302.1-91.3l1.1,2.2c0-1.2,0.3-2.2,0.8-3c0.5-0.8,1.2-1.5,2.1-2.1c1.8-1.1,3.8-1,5.8,0.1
			c0.1-1.2,0.4-2.2,0.8-3c0.5-0.8,1.2-1.5,2-2c1.2-0.7,2.3-0.9,3.4-0.8c1.1,0.1,2,0.5,2.7,1.2c0.7,0.7,1.6,2,2.6,3.8l9.2,16
			l-6.6,3.8l-8.4-14.6c-1.1-1.9-1.9-3.1-2.2-3.4s-0.8-0.4-1.3-0.2c-0.5,0.3-0.7,0.7-0.5,1.2c0.1,0.5,0.7,1.8,1.8,3.7l8.4,14.6
			l-6.6,3.8L309-84.3c-1.3-2.2-2.1-3.5-2.4-3.9s-0.8-0.4-1.3-0.1c-0.3,0.2-0.5,0.4-0.6,0.8c-0.1,0.4,0,0.7,0.1,1.1
			c0.2,0.3,0.6,1.1,1.2,2.1l9,15.6l-6.6,3.8l-13-22.4L302.1-91.3z"/>
		<path class="st2" d="M326.3-111.8l2.1,3.6l-7,4.1l-2.1-3.6L326.3-111.8z M329.1-106.9l13,22.4l-7,4.1l-13-22.4L329.1-106.9z"/>
		<path class="st2" d="M335.8-117.3l15.8,27.4l-7,4.1l-15.8-27.4L335.8-117.3z"/>
		<path class="st2" d="M355.4-122l7.4,17.4c1.2,2.7,1.9,4.7,2.3,5.7s0.4,2,0.3,2.9c-0.1,0.9-0.5,1.7-1.2,2.5c-0.7,0.8-2,1.7-3.9,2.8
			l-4.1,2.4l-2.1-3.6c1.1-0.6,1.7-1.1,2-1.3c0.2-0.3,0.3-0.6,0-1c-0.1-0.2-0.7-0.9-1.8-2.1L339.7-113l6.2-3.6l11,13.9l-7.7-15.8
			L355.4-122z"/>
	</g>
</g>
</svg>
