<svg xmlns="http://www.w3.org/2000/svg" viewBox="0 0 423.39 273.2"><defs><style>.cls-1{fill:#844d9e;}.cls-2{fill:#ed0e7b;}.cls-3{fill:#0095da;}</style></defs><title>Asset 3</title><g id="Layer_2" data-name="Layer 2"><g id="Layer_1-2" data-name="Layer 1"><path d="M68.43,118.81,38.58,136.05l-4.3-7.45,1.78-1a8.6,8.6,0,0,1-3-1.29,6.6,6.6,0,0,1-2-2.15,5.82,5.82,0,0,1-.82-3.53,4.7,4.7,0,0,1,1.17-2.85,17.47,17.47,0,0,1,3.7-2.61l11.45-6.61a17.34,17.34,0,0,1,4.21-2,4.51,4.51,0,0,1,3,.45,6.1,6.1,0,0,1,2.68,2.56,7.27,7.27,0,0,1,1,2.83,7.35,7.35,0,0,1-.29,3l6.94-4ZM52.59,118a5.51,5.51,0,0,0,1.67-1.27,1.07,1.07,0,0,0-.06-1.18,1.11,1.11,0,0,0-.94-.66,5.51,5.51,0,0,0-2,.84l-12,6.92A6.24,6.24,0,0,0,37.46,124a1,1,0,0,0,0,1.11,1.11,1.11,0,0,0,1.08.66,9.39,9.39,0,0,0,2.71-1.25Z"/><path d="M59,136.72l-4-7,1.64-.94a13.31,13.31,0,0,1,4.76-1.88A7,7,0,0,1,65.55,128a11.36,11.36,0,0,1,4.14,4.44q2.19,3.78,2,6.47a6,6,0,0,1-2,4.2,58.06,58.06,0,0,1-7.78,5l-12.28,7.09-4.18-7.24,2.18-1.26a5.27,5.27,0,0,1-5.13-2.82,7.3,7.3,0,0,1-1-4.22q.15-2.26,3.86-4.4l2-1.16q2.74-1.59,4.24-1.3c1,.2,2.6,1.18,4.8,3,2.38,1.89,3.78,2.82,4.21,2.81a6,6,0,0,0,2.17-.92,7.72,7.72,0,0,0,2.34-1.73,1.13,1.13,0,0,0,0-1.28c-.29-.5-.64-.72-1-.66a11.44,11.44,0,0,0-2.64,1.28ZM57,141a6.37,6.37,0,0,0-3.39-.81,10,10,0,0,0-2.71,1.18,8.74,8.74,0,0,0-2.31,1.67,1.13,1.13,0,0,0,0,1.3c.27.47.59.69,1,.67a8.32,8.32,0,0,0,2.4-1.11Z"/><path d="M80,151.2l-2.33,1.17a6.41,6.41,0,0,1,3.16.81A6.15,6.15,0,0,1,83,155.49a5.93,5.93,0,0,1,.9,3.66A4.61,4.61,0,0,1,82.55,162a24.32,24.32,0,0,1-4.38,3L61,174.92l-4.3-7.44,16.94-9.78a18,18,0,0,0,3-1.95c.31-.32.31-.73,0-1.24a1.06,1.06,0,0,0-1.21-.63,19,19,0,0,0-3.52,1.76l-16.53,9.55-4.3-7.45,24.46-14.12Z"/><path d="M87.24,185.16l-4.06-7L86,176.51a6.46,6.46,0,0,0,1.87-1.4,1,1,0,0,0,0-1.19,1,1,0,0,0-1-.6,7,7,0,0,0-2.19,1L73.19,181a5,5,0,0,0-1.77,1.46,1.22,1.22,0,0,0-.09,1.36,1.17,1.17,0,0,0,1.27.63,9.64,9.64,0,0,0,2.73-1.23l2.92-1.68,3.83,6.64a44.22,44.22,0,0,1-4.52,2.32,8,8,0,0,1-3.72.5A7.64,7.64,0,0,1,70,189.59a11.28,11.28,0,0,1-3.18-3.7A11.43,11.43,0,0,1,65,180.27a6.88,6.88,0,0,1,1.52-4.35A18,18,0,0,1,71.56,172l7-4a15.41,15.41,0,0,1,5.06-2.08,7,7,0,0,1,4.38,1,10.9,10.9,0,0,1,4.11,4.26,11,11,0,0,1,1.64,5.69,7,7,0,0,1-1.53,4.55A18.75,18.75,0,0,1,87.24,185.16Z"/><path d="M94.83,206.22l-5.57-9.64-5.29,3a6.88,6.88,0,0,0-2,1.47,1.08,1.08,0,0,0,0,1.2,1.3,1.3,0,0,0,1.29.77,7.8,7.8,0,0,0,2.63-1.14l3.22-1.86,4.08,7.06-1.81,1.05a18.61,18.61,0,0,1-3.65,1.72,8.28,8.28,0,0,1-3.37.17,7.54,7.54,0,0,1-3.61-1.47,12,12,0,0,1-3-3.65,13.67,13.67,0,0,1-1.72-4.56,7.66,7.66,0,0,1,.25-3.89,7.8,7.8,0,0,1,1.81-2.9,19.66,19.66,0,0,1,3.94-2.79l7.13-4.12a14,14,0,0,1,5.56-2.05,6.83,6.83,0,0,1,4.48,1.2,11.37,11.37,0,0,1,3.6,4,11.67,11.67,0,0,1,1.8,5.86,7.61,7.61,0,0,1-1.5,4.68,17.24,17.24,0,0,1-5.05,4Zm-.33-9.77,1.79-1a10.36,10.36,0,0,0,2.33-1.62.92.92,0,0,0,.07-1.15c-.29-.51-.63-.74-1-.68A11.11,11.11,0,0,0,95,193.24l-1.79,1Z"/><path d="M151.15,67.34l-20.56,35.6-8.88-5.13,1.22-2.11a10.6,10.6,0,0,1-3.82.43,7.88,7.88,0,0,1-3.33-1,6.87,6.87,0,0,1-3-3.16,5.57,5.57,0,0,1-.49-3.64,20.9,20.9,0,0,1,2.26-4.91l7.89-13.65a20.92,20.92,0,0,1,3.18-4.52,5.44,5.44,0,0,1,3.39-1.34,7.25,7.25,0,0,1,4.29,1.05A8.86,8.86,0,0,1,136,67.26a8.68,8.68,0,0,1,1.47,3.23l4.77-8.27ZM134.32,76a6.61,6.61,0,0,0,1-2.31,1.59,1.59,0,0,0-2.13-1.3,6.27,6.27,0,0,0-1.55,2l-8.25,14.29a7.81,7.81,0,0,0-1.09,2.49,1.17,1.17,0,0,0,.69,1.15,1.31,1.31,0,0,0,1.51,0,11,11,0,0,0,2-2.9Z"/><path d="M159.51,80.73l-2.57,3.64q4.32-3,8.13-1.13l-5.93,10.27a8.57,8.57,0,0,0-4-1.41,3.21,3.21,0,0,0-2.47,1,38.15,38.15,0,0,0-3.39,5.27l-6.65,11.52-8.89-5.13,16.85-29.17Z"/><path d="M178.14,111.63,166.64,105,163,111.3a8.2,8.2,0,0,0-1.19,2.72,1.3,1.3,0,0,0,.77,1.21,1.55,1.55,0,0,0,1.79,0,9.71,9.71,0,0,0,2-2.74l2.22-3.85,8.42,4.86-1.24,2.16a22.82,22.82,0,0,1-2.74,4,10,10,0,0,1-3.39,2.18,9,9,0,0,1-4.6.64,14.13,14.13,0,0,1-5.3-2,16.05,16.05,0,0,1-4.5-3.68,9.09,9.09,0,0,1-2.07-4.17,9.49,9.49,0,0,1,.14-4.08,23.54,23.54,0,0,1,2.4-5.22l4.92-8.51a16.76,16.76,0,0,1,4.52-5.44A8.18,8.18,0,0,1,170.53,88,15.7,15.7,0,0,1,182,94.88a9,9,0,0,1,1.24,5.73,20.41,20.41,0,0,1-2.82,7.15ZM172,101.74l1.23-2.13a12.32,12.32,0,0,0,1.45-3.07,1.11,1.11,0,0,0-.61-1.23c-.62-.35-1.11-.39-1.47-.1a13.88,13.88,0,0,0-2,2.9l-1.23,2.13Z"/><path d="M191.18,114.09l-8.33-4.81,1.13-2a15.75,15.75,0,0,1,3.79-4.77,8.39,8.39,0,0,1,5-1.44,13.67,13.67,0,0,1,6.92,2.12q4.52,2.61,5.88,5.52a7.2,7.2,0,0,1,.49,5.5,70.51,70.51,0,0,1-5.06,9.82l-8.45,14.65-8.64-5,1.5-2.6a6.28,6.28,0,0,1-7,.14,8.67,8.67,0,0,1-3.52-3.77c-.79-1.63-.34-3.91,1.36-6.86l1.39-2.39q1.89-3.28,3.61-3.87t6.72.19c3.58.54,5.58.67,6,.39a7.1,7.1,0,0,0,1.7-2.24,9.35,9.35,0,0,0,1.38-3.18,1.33,1.33,0,0,0-.73-1.34,1.22,1.22,0,0,0-1.46-.07,13.84,13.84,0,0,0-2,2.9Zm.5,5.62c-2,.22-3.35.62-4,1.19a12,12,0,0,0-2.09,2.84,10,10,0,0,0-1.39,3.1,1.31,1.31,0,0,0,.79,1.33,1.26,1.26,0,0,0,1.39.12,10.1,10.1,0,0,0,1.82-2.57Z"/><path d="M221.23,116.37l-1.75,2.69a8.18,8.18,0,0,1,3.89-1.06,7.41,7.41,0,0,1,3.73,1,7.28,7.28,0,0,1,3.7,6.54,9.08,9.08,0,0,1,4-1,7.63,7.63,0,0,1,6.71,4.24,5.59,5.59,0,0,1,.35,3.79,26.48,26.48,0,0,1-2.57,5.42l-12,20.73-8.62-5,11-19a28.36,28.36,0,0,0,2.42-4.78,1.3,1.3,0,0,0-.66-1.57,1.35,1.35,0,0,0-1.73.18,24.84,24.84,0,0,0-3,4.48l-11,19-8.62-5,10.7-18.53a38.56,38.56,0,0,0,2.77-5.27,1.22,1.22,0,0,0-.66-1.52,1.53,1.53,0,0,0-1.27-.14,2,2,0,0,0-1.1.84c-.28.41-.83,1.32-1.64,2.73l-11.68,20.23-8.62-5,16.85-29.18Z"/><path d="M205.54,188.84l35.6,20.56-5.28,9.14L200.26,198Z"/><path d="M212.66,176.51l4.64,2.68L212,188.33l-4.64-2.68Zm6.42,3.7,29.18,16.85L243,206.21,213.8,189.36Z"/><path d="M231.53,158.64l26.78,21-6.7,11.61-31.76-12.39,4.58-7.93,22.75,9.8q-2.18-1.65-10.87-7.61-4.86-3.31-9.36-6.55Z"/><path d="M259,146l-6.63,11.5,6.31,3.64a8.09,8.09,0,0,0,2.71,1.19,1.29,1.29,0,0,0,1.21-.77,1.55,1.55,0,0,0,0-1.79,9.56,9.56,0,0,0-2.74-2L256,155.46,260.9,147l2.15,1.24a23.39,23.39,0,0,1,4,2.74,9.83,9.83,0,0,1,2.18,3.39,8.92,8.92,0,0,1,.64,4.6,14.37,14.37,0,0,1-2,5.31,16.37,16.37,0,0,1-3.69,4.5,9.18,9.18,0,0,1-4.16,2.06,9.32,9.32,0,0,1-4.08-.14,23.37,23.37,0,0,1-5.23-2.4l-8.51-4.92a16.74,16.74,0,0,1-5.44-4.51,8.23,8.23,0,0,1-1.43-5.34,13.67,13.67,0,0,1,1.95-6.09,14,14,0,0,1,5-5.35,9,9,0,0,1,5.72-1.24,20.34,20.34,0,0,1,7.15,2.82Zm-9.89,6.16L247,150.88a12.9,12.9,0,0,0-3.06-1.45,1.1,1.1,0,0,0-1.23.61c-.36.62-.39,1.11-.1,1.47a13.29,13.29,0,0,0,2.89,2l2.14,1.24Z"/><path class="cls-1" d="M280.58,172.55l8.3,14.38-3.69,2.13-8.31-14.38Z"/><path class="cls-1" d="M295,175.81l-4.65,2.68,1.47,2.55a3.44,3.44,0,0,0,.71,1,.53.53,0,0,0,.58,0,.63.63,0,0,0,.37-.62,4,4,0,0,0-.55-1.27l-.89-1.55,3.4-2,.5.87a8.93,8.93,0,0,1,.83,1.76,3.88,3.88,0,0,1,.08,1.63,3.59,3.59,0,0,1-.71,1.74,5.86,5.86,0,0,1-1.75,1.46,6.8,6.8,0,0,1-2.2.83,3.87,3.87,0,0,1-1.88-.12,3.71,3.71,0,0,1-1.39-.88,9.73,9.73,0,0,1-1.35-1.89l-2-3.44a6.63,6.63,0,0,1-1-2.68,3.28,3.28,0,0,1,.57-2.16,5.71,5.71,0,0,1,1.92-1.74,5.54,5.54,0,0,1,2.82-.86,3.59,3.59,0,0,1,2.25.72,8.23,8.23,0,0,1,1.93,2.43Zm-4.71.16-.5-.87A4.79,4.79,0,0,0,289,174a.45.45,0,0,0-.55,0c-.25.15-.36.31-.33.5a5.58,5.58,0,0,0,.61,1.27l.5.86Z"/><path class="cls-1" d="M298.51,171.74l-3.37,1.95-.45-.79a6.56,6.56,0,0,1-.91-2.3,3.47,3.47,0,0,1,.51-2,6.83,6.83,0,0,1,5.26-2.93,2.84,2.84,0,0,1,2,.94,28.07,28.07,0,0,1,2.42,3.75l3.42,5.92-3.5,2-.6-1.05a2.52,2.52,0,0,1-1.36,2.47,3.53,3.53,0,0,1-2,.47q-1.1-.07-2.13-1.86l-.55-1a3.3,3.3,0,0,1-.63-2A6.69,6.69,0,0,1,298,173a6.88,6.88,0,0,0,1.35-2,2.92,2.92,0,0,0-.44-1.05,4,4,0,0,0-.83-1.13.54.54,0,0,0-.62,0c-.25.14-.35.3-.32.49a5.39,5.39,0,0,0,.62,1.28Zm2.07,1a3.13,3.13,0,0,0-.39,1.64,4.74,4.74,0,0,0,.57,1.3,4.09,4.09,0,0,0,.8,1.11.54.54,0,0,0,.63,0,.51.51,0,0,0,.32-.47,3.93,3.93,0,0,0-.53-1.15Z"/><path class="cls-1" d="M305.42,161.66l.76,1.63a3.08,3.08,0,0,1,1.24-3.07l2.4,4.15a3.57,3.57,0,0,0-1.3,1.1,1.32,1.32,0,0,0-.14,1.07,16.59,16.59,0,0,0,1.16,2.26l2.69,4.65-3.59,2.07-6.81-11.79Z"/><path class="cls-1" d="M312,157.87l.56,1.12a3.13,3.13,0,0,1,.39-1.53,3,3,0,0,1,1.12-1.07,2.79,2.79,0,0,1,1.76-.44,2.2,2.2,0,0,1,1.39.66,11.37,11.37,0,0,1,1.44,2.11l4.77,8.26-3.59,2.08-4.71-8.17a8.8,8.8,0,0,0-.94-1.44.46.46,0,0,0-.59,0,.52.52,0,0,0-.31.59,9.83,9.83,0,0,0,.85,1.69l4.6,8-3.59,2.07L308.35,160Z"/><path class="cls-1" d="M310.47,87.89V90a5,5,0,0,0-1.51.12c-.15.07-.23.3-.23.67v.43h1.74v2.15h-1V104.5h-4.15V93.37h-.85V91.22h.85a9.88,9.88,0,0,1,.1-1.8,1.5,1.5,0,0,1,.45-.8,2.25,2.25,0,0,1,1-.54,8.32,8.32,0,0,1,2-.19Z"/><path class="cls-1" d="M320.75,90.89V104.5h-4.21l.07-1.13a2.92,2.92,0,0,1-1.06,1,3.14,3.14,0,0,1-1.46.34,3.26,3.26,0,0,1-1.55-.33,2.1,2.1,0,0,1-.9-.87,3.13,3.13,0,0,1-.37-1.13c0-.4-.07-1.18-.07-2.35V90.89h4.15v9.26a10.5,10.5,0,0,0,.09,1.89c.07.2.24.3.53.3s.49-.1.55-.31a11.35,11.35,0,0,0,.09-2V90.89Z"/><path class="cls-1" d="M326.46,90.89l-.08,1.25A3.06,3.06,0,0,1,327.49,91a2.93,2.93,0,0,1,1.5-.38,2.81,2.81,0,0,1,1.74.51,2.21,2.21,0,0,1,.87,1.26,11.51,11.51,0,0,1,.2,2.55v9.54h-4.14V95.08a8.73,8.73,0,0,0-.1-1.72.47.47,0,0,0-.51-.31.51.51,0,0,0-.55.36,8.35,8.35,0,0,0-.12,1.89v9.2h-4.14V90.89Z"/><path class="cls-1" d="M273.75,70V86.65h-4.27V70Z"/><path class="cls-1" d="M284.62,77.81v3.34a14.22,14.22,0,0,1-.19,2.69,3.81,3.81,0,0,1-.79,1.6,3.55,3.55,0,0,1-1.55,1.1,6.39,6.39,0,0,1-2.18.35,7.81,7.81,0,0,1-2.33-.3,3.17,3.17,0,0,1-1.48-.91,3.54,3.54,0,0,1-.76-1.48,11.24,11.24,0,0,1-.22-2.6V78.11a8.33,8.33,0,0,1,.41-3A3.36,3.36,0,0,1,277,73.43a5.2,5.2,0,0,1,2.73-.64,6.21,6.21,0,0,1,2.4.41,3.93,3.93,0,0,1,1.54,1.08,4.08,4.08,0,0,1,.75,1.38A8.68,8.68,0,0,1,284.62,77.81Zm-4.15-1a4.77,4.77,0,0,0-.11-1.32.47.47,0,0,0-.48-.27.5.5,0,0,0-.5.27,4.26,4.26,0,0,0-.12,1.32v6.14a4.14,4.14,0,0,0,.12,1.26.49.49,0,0,0,.49.29.47.47,0,0,0,.48-.27,3.36,3.36,0,0,0,.12-1.14Z"/><path class="cls-1" d="M294.56,73l-1.94,13.62H287.2L285.12,73h3.7L290,83c.09-.73.24-2.51.46-5.34.12-1.58.25-3.11.41-4.6Z"/><path class="cls-1" d="M304.55,80.08h-5.37V83a3.15,3.15,0,0,0,.14,1.19.51.51,0,0,0,.51.27.63.63,0,0,0,.63-.35,3.82,3.82,0,0,0,.16-1.37V81h3.93v1a9.48,9.48,0,0,1-.16,1.94,4,4,0,0,1-.74,1.44,3.62,3.62,0,0,1-1.49,1.16,5.87,5.87,0,0,1-2.25.38,6.64,6.64,0,0,1-2.32-.38,3.66,3.66,0,0,1-1.56-1,3.91,3.91,0,0,1-.78-1.46A9.62,9.62,0,0,1,295,81.7v-4a6.82,6.82,0,0,1,.48-2.82,3.36,3.36,0,0,1,1.58-1.58,6.39,6.39,0,0,1,5.4.12,3.58,3.58,0,0,1,1.59,1.75,8.09,8.09,0,0,1,.46,3.07Zm-4.16-2.22v-1a4.9,4.9,0,0,0-.11-1.37.44.44,0,0,0-.46-.3c-.29,0-.47.08-.53.26a5.19,5.19,0,0,0-.11,1.41v1Z"/><path class="cls-1" d="M130.32,109.1l-1.07.54a3.69,3.69,0,0,1,1.55.51,2.92,2.92,0,0,1,1,1.08,2.7,2.7,0,0,1,.38,1.7,2.17,2.17,0,0,1-.59,1.36,10.45,10.45,0,0,1-1.91,1.3l-5,2.87a11.08,11.08,0,0,1-2.4,1.13,2.19,2.19,0,0,1-1.53-.16,2.87,2.87,0,0,1-1.23-1.19,2.9,2.9,0,0,1-.4-1.42,3.83,3.83,0,0,1,.32-1.57l-2.7,1.56-2.07-3.59,13.47-7.77Zm-2.84,3a6.3,6.3,0,0,0,1.28-.85c.12-.14.12-.33,0-.57a.52.52,0,0,0-.53-.31,5.76,5.76,0,0,0-1.35.64L122,113.84a5.84,5.84,0,0,0-1.27.87.51.51,0,0,0,0,.62.47.47,0,0,0,.49.29,5.78,5.78,0,0,0,1.24-.6Z"/><path class="cls-1" d="M134.22,125.4l-2.89,1.67a14,14,0,0,1-2.43,1.18,3.78,3.78,0,0,1-1.78.12,3.53,3.53,0,0,1-1.72-.8,6.06,6.06,0,0,1-1.4-1.71,7.6,7.6,0,0,1-.9-2.17,3.08,3.08,0,0,1,.05-1.74,3.47,3.47,0,0,1,.9-1.39,10.64,10.64,0,0,1,2.14-1.49l3-1.75a8.6,8.6,0,0,1,2.77-1.13,3.47,3.47,0,0,1,2.22.43,5.24,5.24,0,0,1,1.93,2,6.38,6.38,0,0,1,.84,2.28,3.94,3.94,0,0,1-.17,1.88,3.84,3.84,0,0,1-.82,1.33A8.54,8.54,0,0,1,134.22,125.4ZM133,121.3a4.37,4.37,0,0,0,1.09-.76.57.57,0,0,0-.49-.84,4,4,0,0,0-1.2.55l-5.32,3.07a3.9,3.9,0,0,0-1,.74.46.46,0,0,0,0,.56.48.48,0,0,0,.47.29,3.47,3.47,0,0,0,1-.47Z"/><path class="cls-1" d="M139.5,133.69l-1.83-3.18.64-.37a3.81,3.81,0,0,0,1-.69c.11-.14.09-.34,0-.59a.64.64,0,0,0-.47-.34,1.18,1.18,0,0,0-.68.2,3.91,3.91,0,0,0-.75.53,1.51,1.51,0,0,0-.3.78,11.78,11.78,0,0,0,0,2.06,6.57,6.57,0,0,1-.26,2.88,3.81,3.81,0,0,1-1.68,1.62,5.69,5.69,0,0,1-2.39.88,2.81,2.81,0,0,1-1.84-.59,6,6,0,0,1-1.62-1.89,6.77,6.77,0,0,1-.92-2.58,2.94,2.94,0,0,1,.38-2,5.93,5.93,0,0,1,2-1.63l.57-.33,1.84,3.18-.75.43a4.58,4.58,0,0,0-1.16.83.52.52,0,0,0,0,.64.69.69,0,0,0,.49.42,1.59,1.59,0,0,0,.9-.31c.56-.32.87-.59.94-.8a20.5,20.5,0,0,0,.06-2.82,5.29,5.29,0,0,1,.5-2.86,4.53,4.53,0,0,1,1.51-1.34,5.24,5.24,0,0,1,2.3-.83,2.84,2.84,0,0,1,1.77.67,6.32,6.32,0,0,1,1.56,1.86,7,7,0,0,1,.86,2.17,3.75,3.75,0,0,1-.06,1.72,2.46,2.46,0,0,1-.6,1,7,7,0,0,1-1.25.85Z"/><path class="cls-1" d="M146.12,136.45l-11.79,6.81-2.14-3.7,11.79-6.8Zm2.59-1.5L146.84,136l-2.14-3.69,1.88-1.08Z"/><path class="cls-1" d="M150.62,140.62l-1.86,1.07.56,1-1.87,1.07-.55-1-6.31,3.65q-1.17.66-1.23.87c0,.13.1.49.44,1.07l-1.9,1.1-.83-1.45a11,11,0,0,1-.91-1.81,2,2,0,0,1-.06-1.19,1.8,1.8,0,0,1,.55-1,17.69,17.69,0,0,1,2.18-1.39l6-3.45-.45-.78,1.87-1.07.44.77,1.86-1.07Z"/><path class="cls-1" d="M152.19,147l-11.78,6.81-2.14-3.7,11.79-6.81Zm2.6-1.5-1.88,1.08-2.13-3.69,1.88-1.09Z"/><path class="cls-1" d="M157.23,155.69l-12.76,5.13-2.71-4.69,10.75-8.61,1.85,3.21-8,6q1-.44,4.86-2.27c1.43-.69,2.82-1.34,4.19-1.95Z"/><path class="cls-1" d="M159.66,159.91l-11.79,6.81-2.13-3.7,11.79-6.8Zm2.6-1.49-1.88,1.08-2.13-3.7,1.87-1.08Z"/><path class="cls-1" d="M164.16,164.08l-1.85,1.07.56,1L161,167.2l-.56-1-6.31,3.64a3.93,3.93,0,0,0-1.22.87c0,.13.1.49.44,1.07l-1.9,1.1-.84-1.45a13,13,0,0,1-.91-1.8,2.22,2.22,0,0,1-.06-1.2,1.81,1.81,0,0,1,.56-1,17.26,17.26,0,0,1,2.18-1.38l6-3.46-.44-.77,1.86-1.08.45.77,1.86-1.07Z"/><path class="cls-1" d="M168.16,174.62l-9.13,3.9c-1.44.62-2.44,1-3,1.19a3.52,3.52,0,0,1-1.54.16,2.58,2.58,0,0,1-1.32-.66,8.64,8.64,0,0,1-1.48-2L150.45,175l1.88-1.08a4.67,4.67,0,0,0,.71,1,.42.42,0,0,0,.51,0c.1-.06.47-.37,1.11-.94l8.73-7.66,1.88,3.26L158,175.4l8.29-4Z"/><path class="cls-2" d="M335.51,228.86l9.08,5.24a21.7,21.7,0,0,1,2.32,1.46,2.76,2.76,0,0,1,.8,1.25,3.69,3.69,0,0,1,.08,2,8.18,8.18,0,0,1-1,2.49,6.52,6.52,0,0,1-2.17,2.42,2.82,2.82,0,0,1-2.91-.25l2-3.48q.78.45,1.11-.12a.64.64,0,0,0,.07-.68,2.61,2.61,0,0,0-.92-.71l-.89-.51a4,4,0,0,1,.07,1.33,3.17,3.17,0,0,1-.41,1.2,3.47,3.47,0,0,1-1.31,1.37,2.35,2.35,0,0,1-1.52.26,6.38,6.38,0,0,1-1.94-.81l-4.28-2.47a4.47,4.47,0,0,1-2.07-2,2.61,2.61,0,0,1,.32-2.27,3.19,3.19,0,0,1,1-1.07,3.45,3.45,0,0,1,1.4-.51l-.74-.77Zm1.05,5.4a3.79,3.79,0,0,0-1.09-.5.46.46,0,0,0-.46.28.53.53,0,0,0,0,.59,3,3,0,0,0,.93.71l4,2.28a4,4,0,0,0,1.08.5.47.47,0,0,0,.47-.27.51.51,0,0,0,0-.63,5.23,5.23,0,0,0-1.22-.85Z"/><path class="cls-2" d="M345.07,221.85l2.89,1.66A14.61,14.61,0,0,1,350.2,225a3.82,3.82,0,0,1,1,1.49,3.44,3.44,0,0,1,.17,1.89,6.23,6.23,0,0,1-.78,2.07,7.92,7.92,0,0,1-1.42,1.86,3.21,3.21,0,0,1-1.54.83,3.59,3.59,0,0,1-1.65-.09,10.9,10.9,0,0,1-2.37-1.1l-3-1.75a8.61,8.61,0,0,1-2.36-1.83,3.45,3.45,0,0,1-.75-2.14,5.34,5.34,0,0,1,.81-2.69,6.11,6.11,0,0,1,1.56-1.86,3.79,3.79,0,0,1,1.71-.8,3.86,3.86,0,0,1,1.56,0A8.69,8.69,0,0,1,345.07,221.85Zm-3,3.07a5,5,0,0,0-1.19-.56.47.47,0,0,0-.48.28.5.5,0,0,0,0,.57,4,4,0,0,0,1.08.76l5.32,3.07a4,4,0,0,0,1.15.53.57.57,0,0,0,.51-.83,3.66,3.66,0,0,0-.94-.68Z"/><path class="cls-2" d="M348,217.71l-1.94,3.36-.79-.45a6.43,6.43,0,0,1-1.93-1.54,3.43,3.43,0,0,1-.58-2,6.83,6.83,0,0,1,3.09-5.17,2.87,2.87,0,0,1,2.22-.2,29.42,29.42,0,0,1,4,2l5.92,3.42-2,3.49-1.05-.61a2.53,2.53,0,0,1,.06,2.82,3.5,3.5,0,0,1-1.53,1.42c-.65.32-1.58.14-2.77-.55l-1-.55a3.3,3.3,0,0,1-1.56-1.46,6.82,6.82,0,0,1,.08-2.72,6.84,6.84,0,0,0,.16-2.43,2.77,2.77,0,0,0-.91-.69,3.76,3.76,0,0,0-1.28-.56.55.55,0,0,0-.54.3.48.48,0,0,0,0,.59,5.42,5.42,0,0,0,1.17.79Zm2.28-.21a3.07,3.07,0,0,0,.48,1.61,4.77,4.77,0,0,0,1.14.85,4.12,4.12,0,0,0,1.25.56.56.56,0,0,0,.55-.32.51.51,0,0,0,0-.56,3.68,3.68,0,0,0-1-.74Z"/><path class="cls-2" d="M346.45,203.91l14.38,8.31-2.13,3.69-14.38-8.3Z"/><path class="cls-2" d="M357.79,199,356,202.15l-.64-.37a4.05,4.05,0,0,0-1.09-.5c-.18,0-.34.09-.49.34a.63.63,0,0,0-.06.56,1.17,1.17,0,0,0,.51.5,4,4,0,0,0,.84.39,1.51,1.51,0,0,0,.82-.14,10.45,10.45,0,0,0,1.77-1,6.6,6.6,0,0,1,2.63-1.22,3.81,3.81,0,0,1,2.24.64,5.75,5.75,0,0,1,2,1.63,2.86,2.86,0,0,1,.41,1.9,6,6,0,0,1-.82,2.34,6.69,6.69,0,0,1-1.78,2.09,2.91,2.91,0,0,1-1.93.67,5.84,5.84,0,0,1-2.41-.9l-.57-.33,1.83-3.18.75.43a4.43,4.43,0,0,0,1.31.59.52.52,0,0,0,.55-.31.73.73,0,0,0,.12-.64,1.65,1.65,0,0,0-.72-.62,2.06,2.06,0,0,0-1.17-.41,17.52,17.52,0,0,0-2.46,1.36,5.31,5.31,0,0,1-2.73,1,4.54,4.54,0,0,1-1.92-.64A5.26,5.26,0,0,1,351,204.7a2.82,2.82,0,0,1-.3-1.86,6.38,6.38,0,0,1,.83-2.29,7,7,0,0,1,1.45-1.82,3.65,3.65,0,0,1,1.52-.81,2.47,2.47,0,0,1,1.21,0,7.56,7.56,0,0,1,1.36.66Z"/><path class="cls-2" d="M2.13,129.86l14.39,8.3-2.14,3.7L0,133.56Z"/><path class="cls-2" d="M16.27,125.46l-2.68,4.65,2.55,1.47a3.13,3.13,0,0,0,1.09.48.52.52,0,0,0,.49-.31.62.62,0,0,0,0-.72,3.68,3.68,0,0,0-1.11-.82l-1.55-.9,2-3.4.87.5a8.86,8.86,0,0,1,1.6,1.11,3.86,3.86,0,0,1,.88,1.36,3.6,3.6,0,0,1,.26,1.86,5.86,5.86,0,0,1-.79,2.15,6.5,6.5,0,0,1-1.49,1.81,3.6,3.6,0,0,1-1.68.84,3.81,3.81,0,0,1-1.65-.06,9.09,9.09,0,0,1-2.11-1l-3.44-2a6.93,6.93,0,0,1-2.2-1.83,3.33,3.33,0,0,1-.58-2.16,5.58,5.58,0,0,1,.79-2.46,5.65,5.65,0,0,1,2-2.16,3.68,3.68,0,0,1,2.32-.5,8.17,8.17,0,0,1,2.88,1.14Zm-4,2.49-.86-.49a4.83,4.83,0,0,0-1.24-.59.47.47,0,0,0-.5.25c-.14.25-.15.44,0,.59a5.71,5.71,0,0,0,1.17.8l.87.49Z"/><path class="cls-2" d="M17.26,120.2l-1.94,3.36-.79-.45a6.3,6.3,0,0,1-1.93-1.54,3.3,3.3,0,0,1-.58-2,5.52,5.52,0,0,1,.86-2.8,5.59,5.59,0,0,1,2.22-2.37,2.94,2.94,0,0,1,2.23-.2,29.52,29.52,0,0,1,4,2l5.92,3.42-2,3.49-1.05-.6a2.53,2.53,0,0,1,.05,2.81,3.5,3.5,0,0,1-1.52,1.43c-.66.32-1.58.13-2.77-.55l-1-.56a3.3,3.3,0,0,1-1.56-1.46,6.75,6.75,0,0,1,.07-2.72,6.58,6.58,0,0,0,.16-2.43,3,3,0,0,0-.9-.69,3.77,3.77,0,0,0-1.29-.55.54.54,0,0,0-.54.29.5.5,0,0,0,0,.59,6.06,6.06,0,0,0,1.17.79Zm2.27-.21A3.07,3.07,0,0,0,20,121.6a4.86,4.86,0,0,0,1.15.85,4.12,4.12,0,0,0,1.25.56.54.54,0,0,0,.54-.32.51.51,0,0,0,.05-.56,4.1,4.1,0,0,0-1-.74Z"/><path class="cls-2" d="M18.26,101.94l14.38,8.3-2.07,3.59-.86-.49a4.23,4.23,0,0,1,.18,1.54,3.19,3.19,0,0,1-.42,1.35,2.81,2.81,0,0,1-1.28,1.19,2.24,2.24,0,0,1-1.47.2,8.57,8.57,0,0,1-2-.91l-5.52-3.19a8.51,8.51,0,0,1-1.83-1.28,2.27,2.27,0,0,1-.54-1.38,2.87,2.87,0,0,1,.43-1.73,3.53,3.53,0,0,1,.94-1.08,3.41,3.41,0,0,1,1.31-.59l-3.35-1.93Zm3.48,6.8a2.52,2.52,0,0,0-.93-.39.5.5,0,0,0-.48.31.51.51,0,0,0,0,.54,2.66,2.66,0,0,0,.83.63l5.78,3.33a2.83,2.83,0,0,0,1,.44.46.46,0,0,0,.46-.27.53.53,0,0,0,0-.61,4.24,4.24,0,0,0-1.17-.83Z"/><path class="cls-2" d="M32.39,97.54l-2.68,4.65,2.55,1.47a3.21,3.21,0,0,0,1.09.48.52.52,0,0,0,.49-.31.62.62,0,0,0,0-.72,3.83,3.83,0,0,0-1.11-.83l-1.55-.89,2-3.41.87.51a9.06,9.06,0,0,1,1.6,1.1A3.86,3.86,0,0,1,36.5,101a3.57,3.57,0,0,1,.26,1.86A5.59,5.59,0,0,1,36,105a6.41,6.41,0,0,1-1.49,1.82,3.7,3.7,0,0,1-1.68.84,3.81,3.81,0,0,1-1.65-.06,9.54,9.54,0,0,1-2.11-1l-3.44-2a6.8,6.8,0,0,1-2.2-1.82,3.33,3.33,0,0,1-.58-2.16,5.63,5.63,0,0,1,.79-2.46,5.58,5.58,0,0,1,2-2.16,3.61,3.61,0,0,1,2.32-.5,8.28,8.28,0,0,1,2.89,1.14Zm-4,2.49-.86-.5A5,5,0,0,0,26.29,99a.43.43,0,0,0-.49.25.49.49,0,0,0,0,.59,5.24,5.24,0,0,0,1.17.79l.86.5Z"/><path class="cls-2" d="M29,89.26l1.46,1A3.06,3.06,0,0,1,30.05,87L34.2,89.4A3.5,3.5,0,0,0,33.63,91,1.26,1.26,0,0,0,34,92a15.34,15.34,0,0,0,2.13,1.37l4.65,2.69-2.07,3.59L27,92.85Z"/><path class="cls-2" d="M38.72,81.18l-1.83,3.18L36.25,84a3.74,3.74,0,0,0-1.09-.5c-.18,0-.35.09-.49.34a.57.57,0,0,0-.06.56,1.07,1.07,0,0,0,.51.5,3.58,3.58,0,0,0,.84.39,1.51,1.51,0,0,0,.82-.14,11.31,11.31,0,0,0,1.77-1,6.58,6.58,0,0,1,2.62-1.22,3.85,3.85,0,0,1,2.25.64,5.85,5.85,0,0,1,2,1.63,2.86,2.86,0,0,1,.4,1.9A5.73,5.73,0,0,1,45,89.39a6.69,6.69,0,0,1-1.78,2.09,2.9,2.9,0,0,1-1.92.67,5.92,5.92,0,0,1-2.42-.9l-.57-.33,1.84-3.18.75.43a4.71,4.71,0,0,0,1.3.59.53.53,0,0,0,.56-.31.73.73,0,0,0,.12-.64,1.65,1.65,0,0,0-.72-.62A2.06,2.06,0,0,0,41,86.78a17.94,17.94,0,0,0-2.47,1.36,5.31,5.31,0,0,1-2.72,1,4.45,4.45,0,0,1-1.92-.64A5.17,5.17,0,0,1,32,86.91a2.82,2.82,0,0,1-.3-1.86,6.38,6.38,0,0,1,.83-2.29A6.63,6.63,0,0,1,34,80.94a3.62,3.62,0,0,1,1.51-.81,2.51,2.51,0,0,1,1.22,0,7.9,7.9,0,0,1,1.36.66Z"/><path class="cls-2" d="M35.15,72.68l3.23,1.87a3.54,3.54,0,0,1-.06-1.37,3.4,3.4,0,0,1,.45-1.27,3.08,3.08,0,0,1,1.4-1.33,2.24,2.24,0,0,1,1.58-.17,13.43,13.43,0,0,1,2.37,1.17l8.13,4.7-2.07,3.59-8.3-4.79a6.16,6.16,0,0,0-1.39-.67.5.5,0,0,0-.55.29.51.51,0,0,0,0,.62,5,5,0,0,0,1.14.81L49.53,81l-2.07,3.59L33.07,76.27Z"/><path class="cls-2" d="M40.71,63l1.88,1.08-2.14,3.7-1.87-1.08Zm2.59,1.5,11.79,6.81L53,75l-11.79-6.8Z"/><path class="cls-2" d="M46.16,59.6l1,.66a3.83,3.83,0,0,1-.33-1.6,2.92,2.92,0,0,1,.42-1.44A2.69,2.69,0,0,1,48.53,56,2.15,2.15,0,0,1,50,55.87a10.87,10.87,0,0,1,2.08,1l5,2.87a10.94,10.94,0,0,1,2.17,1.51,2.25,2.25,0,0,1,.64,1.41,2.88,2.88,0,0,1-.42,1.66,3,3,0,0,1-1,1.05,3.85,3.85,0,0,1-1.52.51l2.7,1.56L57.52,71,44.05,63.25Zm4,1a7.65,7.65,0,0,0-1.37-.69c-.19,0-.35.07-.49.32a.49.49,0,0,0,0,.61,5.55,5.55,0,0,0,1.23.84l4.89,2.82a5.62,5.62,0,0,0,1.39.67.5.5,0,0,0,.53-.31.45.45,0,0,0,0-.57,5.48,5.48,0,0,0-1.14-.77Z"/><path class="cls-2" d="M96.37,60l1,1.82a5,5,0,0,0-1.25.86c-.1.14,0,.38.13.7l.22.37L98,62.85l1.08,1.86-.86.5,5.57,9.64-3.59,2.07-5.56-9.64-.74.42-1.08-1.86.74-.43a11,11,0,0,1-.82-1.6,1.52,1.52,0,0,1,0-.92,2.43,2.43,0,0,1,.62-1,7.69,7.69,0,0,1,1.67-1.18Z"/><path class="cls-2" d="M102.14,60.1l.75,1.63a3.08,3.08,0,0,1,1.25-3.07l2.4,4.15a3.48,3.48,0,0,0-1.3,1.1A1.31,1.31,0,0,0,105.1,65a15,15,0,0,0,1.16,2.25L109,71.89,105.36,74,98.55,62.17Z"/><path class="cls-2" d="M107.26,53.68l1.08,1.88-3.69,2.13-1.09-1.88Zm1.5,2.6,6.8,11.78-3.69,2.14-6.81-11.79Z"/><path class="cls-2" d="M121.7,56.94l-4.65,2.68,1.47,2.55a3.17,3.17,0,0,0,.72,1,.5.5,0,0,0,.57,0,.61.61,0,0,0,.37-.62,3.88,3.88,0,0,0-.54-1.27l-.9-1.55,3.4-2,.5.87a8.64,8.64,0,0,1,.83,1.75,3.89,3.89,0,0,1,.08,1.63,3.59,3.59,0,0,1-.7,1.74,5.77,5.77,0,0,1-1.76,1.46,6.58,6.58,0,0,1-2.2.83,3.59,3.59,0,0,1-1.87-.12,3.86,3.86,0,0,1-1.4-.87,9.55,9.55,0,0,1-1.35-1.9l-2-3.44a6.58,6.58,0,0,1-1-2.68,3.32,3.32,0,0,1,.58-2.16,5.46,5.46,0,0,1,1.91-1.73,5.69,5.69,0,0,1,2.82-.87,3.63,3.63,0,0,1,2.25.73,8.1,8.1,0,0,1,1.94,2.43ZM117,57.1l-.49-.86a5.7,5.7,0,0,0-.78-1.13.45.45,0,0,0-.56,0c-.25.14-.36.31-.33.49a5.16,5.16,0,0,0,.62,1.27l.49.87Z"/><path class="cls-2" d="M123,48.05l.56,1.12a3.09,3.09,0,0,1,.4-1.52,3,3,0,0,1,1.11-1.08,2.84,2.84,0,0,1,1.76-.43,2.2,2.2,0,0,1,1.39.66,11,11,0,0,1,1.44,2.11l4.77,8.26-3.58,2.07-4.72-8.16a8.8,8.8,0,0,0-.94-1.44c-.15-.15-.35-.15-.59,0a.51.51,0,0,0-.31.58,9.42,9.42,0,0,0,.85,1.7l4.6,8L126.15,62l-6.8-11.79Z"/><path class="cls-2" d="M135.53,37.36l8.3,14.38-3.58,2.08-.5-.86a4.33,4.33,0,0,1-.62,1.43,3.26,3.26,0,0,1-1,1,2.77,2.77,0,0,1-1.7.4,2.26,2.26,0,0,1-1.37-.57,8,8,0,0,1-1.26-1.78l-3.19-5.52a9,9,0,0,1-.94-2,2.22,2.22,0,0,1,.22-1.46,2.9,2.9,0,0,1,1.24-1.29,3.33,3.33,0,0,1,1.36-.46,3.49,3.49,0,0,1,1.42.13l-1.93-3.34ZM135.15,45a2.51,2.51,0,0,0-.61-.8.5.5,0,0,0-.57,0,.53.53,0,0,0-.32.45,2.7,2.7,0,0,0,.41.95l3.33,5.78a3,3,0,0,0,.66.88.47.47,0,0,0,.54,0,.52.52,0,0,0,.31-.52,4.55,4.55,0,0,0-.6-1.3Z"/><path class="cls-2" d="M147.82,38.75l-3.18,1.83-.37-.64a3.81,3.81,0,0,0-.69-1c-.15-.11-.34-.09-.59,0a.62.62,0,0,0-.34.46,1.19,1.19,0,0,0,.19.69,3.47,3.47,0,0,0,.54.75,1.47,1.47,0,0,0,.77.3,11.79,11.79,0,0,0,2.06,0,6.57,6.57,0,0,1,2.88.25,3.91,3.91,0,0,1,1.63,1.69,5.85,5.85,0,0,1,.88,2.38,2.88,2.88,0,0,1-.6,1.85A6,6,0,0,1,149.12,49a6.82,6.82,0,0,1-2.59.92,3,3,0,0,1-2-.38,5.93,5.93,0,0,1-1.64-2l-.33-.57,3.18-1.84.43.75A4.52,4.52,0,0,0,147,47a.52.52,0,0,0,.64,0,.74.74,0,0,0,.42-.5,1.68,1.68,0,0,0-.31-.89c-.33-.56-.6-.87-.81-.94a18.8,18.8,0,0,0-2.82-.06,5.27,5.27,0,0,1-2.85-.5,4.47,4.47,0,0,1-1.34-1.52,5,5,0,0,1-.83-2.3,2.76,2.76,0,0,1,.67-1.76A6.07,6.07,0,0,1,141.64,37a6.84,6.84,0,0,1,2.17-.86,3.57,3.57,0,0,1,1.71.06,2.57,2.57,0,0,1,1.06.6,7.68,7.68,0,0,1,.84,1.25Z"/><path class="cls-2" d="M149,29.6l1.87,3.24a3.53,3.53,0,0,1,.63-1.22,3.39,3.39,0,0,1,1-.88,3.11,3.11,0,0,1,1.88-.45,2.22,2.22,0,0,1,1.44.64,13.51,13.51,0,0,1,1.47,2.21L162,41.26l-3.59,2.08L153.6,35a5.92,5.92,0,0,0-.86-1.27.52.52,0,0,0-.63,0,.51.51,0,0,0-.27.56,4.51,4.51,0,0,0,.58,1.27L157.28,44l-3.59,2.07-8.31-14.38Z"/><path class="cls-2" d="M158.61,24l1.08,1.88L156,28l-1.09-1.87Zm1.5,2.6,6.81,11.79-3.7,2.13-6.81-11.79Z"/><path class="cls-2" d="M165.05,23.78l.54,1.07a3.69,3.69,0,0,1,.51-1.55,3,3,0,0,1,1.08-1,2.71,2.71,0,0,1,1.7-.38,2.17,2.17,0,0,1,1.36.59,10.28,10.28,0,0,1,1.3,1.9l2.87,5a11.08,11.08,0,0,1,1.13,2.4,2.19,2.19,0,0,1-.16,1.53,2.81,2.81,0,0,1-1.19,1.23,2.87,2.87,0,0,1-1.42.4,3.87,3.87,0,0,1-1.57-.32l1.56,2.7-3.59,2.07L161.4,25.88Zm3,2.84a7,7,0,0,0-.84-1.28c-.15-.13-.34-.12-.58,0a.52.52,0,0,0-.31.53,5.53,5.53,0,0,0,.65,1.35l2.82,4.89a5.84,5.84,0,0,0,.87,1.27.51.51,0,0,0,.62,0c.23-.13.33-.3.29-.49a5.78,5.78,0,0,0-.6-1.24Z"/><path class="cls-2" d="M180.34,20l-3.18,1.83-.36-.64a4,4,0,0,0-.7-1c-.14-.11-.34-.09-.59.05a.64.64,0,0,0-.34.47,1.18,1.18,0,0,0,.2.68,3.91,3.91,0,0,0,.53.75,1.51,1.51,0,0,0,.78.3,11.78,11.78,0,0,0,2.06,0,6.42,6.42,0,0,1,2.88.26,3.81,3.81,0,0,1,1.62,1.68,5.55,5.55,0,0,1,.88,2.39,2.81,2.81,0,0,1-.59,1.84,6,6,0,0,1-1.89,1.62,6.77,6.77,0,0,1-2.58.92,2.94,2.94,0,0,1-2-.38,5.93,5.93,0,0,1-1.63-2l-.33-.57,3.18-1.84.43.75a4.58,4.58,0,0,0,.83,1.16.52.52,0,0,0,.64,0,.69.69,0,0,0,.42-.49,1.59,1.59,0,0,0-.31-.9c-.32-.56-.59-.87-.8-.94a20.5,20.5,0,0,0-2.82-.06,5.29,5.29,0,0,1-2.86-.5,4.53,4.53,0,0,1-1.34-1.51,5.24,5.24,0,0,1-.83-2.3,2.84,2.84,0,0,1,.67-1.77,6.32,6.32,0,0,1,1.86-1.56,7,7,0,0,1,2.17-.86,3.74,3.74,0,0,1,1.72.06,2.46,2.46,0,0,1,1,.6,7,7,0,0,1,.85,1.25Z"/><path class="cls-2" d="M334.91,110.45l3,2.15q-2.52-3.61-.95-6.82l8.61,5a7.21,7.21,0,0,0-1.18,3.33,2.7,2.7,0,0,0,.86,2.07,32.53,32.53,0,0,0,4.41,2.84l9.66,5.58-4.3,7.45-24.46-14.13Z"/><path class="cls-2" d="M360.82,94.82l-5.57,9.65,5.29,3a7,7,0,0,0,2.28,1,1.08,1.08,0,0,0,1-.65,1.29,1.29,0,0,0,0-1.5,8.16,8.16,0,0,0-2.3-1.71l-3.23-1.86,4.08-7.06,1.81,1a19,19,0,0,1,3.32,2.3,8.05,8.05,0,0,1,1.82,2.84,7.48,7.48,0,0,1,.54,3.86,12,12,0,0,1-1.64,4.44,13.67,13.67,0,0,1-3.09,3.78,7.71,7.71,0,0,1-3.5,1.73,7.87,7.87,0,0,1-3.42-.12,19.13,19.13,0,0,1-4.38-2l-7.13-4.11a14.07,14.07,0,0,1-4.56-3.79,6.89,6.89,0,0,1-1.2-4.48,11.45,11.45,0,0,1,1.63-5.1,11.79,11.79,0,0,1,4.17-4.49,7.63,7.63,0,0,1,4.81-1,17.09,17.09,0,0,1,6,2.37Zm-8.3,5.17-1.78-1a10.28,10.28,0,0,0-2.57-1.21.93.93,0,0,0-1,.51c-.29.51-.32.92-.08,1.23a11.22,11.22,0,0,0,2.43,1.64l1.79,1Z"/><path class="cls-2" d="M366.15,74.38,362.34,81,361,80.22a8.22,8.22,0,0,0-2.26-1c-.38,0-.72.19-1,.71a1.24,1.24,0,0,0-.13,1.18,2.34,2.34,0,0,0,1.06,1,7,7,0,0,0,1.74.79,3,3,0,0,0,1.7-.27,23.71,23.71,0,0,0,3.68-2.16c2.3-1.56,4.12-2.4,5.44-2.54a8,8,0,0,1,4.66,1.34A11.82,11.82,0,0,1,380,82.63a5.92,5.92,0,0,1,.85,3.94,12.12,12.12,0,0,1-1.71,4.85,14,14,0,0,1-3.69,4.35,6.13,6.13,0,0,1-4,1.39,12.33,12.33,0,0,1-5-1.89l-1.18-.68L369,88l1.55.9a9.26,9.26,0,0,0,2.7,1.23,1.12,1.12,0,0,0,1.16-.65,1.5,1.5,0,0,0,.24-1.33,3.43,3.43,0,0,0-1.48-1.28,4.33,4.33,0,0,0-2.43-.86,38.53,38.53,0,0,0-5.12,2.82Q361.93,91,360,90.89a9.54,9.54,0,0,1-4-1.34,10.71,10.71,0,0,1-3.87-3.27,5.86,5.86,0,0,1-.64-3.87,13.25,13.25,0,0,1,1.73-4.74,14.17,14.17,0,0,1,3-3.78,7.41,7.41,0,0,1,3.14-1.68,5.21,5.21,0,0,1,2.52,0,15.87,15.87,0,0,1,2.82,1.37Z"/><path class="cls-2" d="M364.19,59.73l2.09,1.38a8,8,0,0,1-.69-3.33,6.36,6.36,0,0,1,.86-3,5.7,5.7,0,0,1,2.66-2.45,4.47,4.47,0,0,1,3.06-.34,21.7,21.7,0,0,1,4.31,2.07l10.3,6a22.07,22.07,0,0,1,4.52,3.14,4.55,4.55,0,0,1,1.32,2.92,6,6,0,0,1-.87,3.44,6.13,6.13,0,0,1-2.13,2.19,8,8,0,0,1-3.17,1.05L392.06,76l-4.3,7.44L359.82,67.31Zm8.34,2a14.37,14.37,0,0,0-2.84-1.42c-.39-.07-.72.14-1,.65a1,1,0,0,0,0,1.26A11.46,11.46,0,0,0,371.23,64l10.14,5.85a12.05,12.05,0,0,0,2.89,1.38,1.07,1.07,0,0,0,1.11-.64,1,1,0,0,0,0-1.19A11.79,11.79,0,0,0,383,67.78Z"/><path class="cls-2" d="M393.53,38.16,388,47.8l5.29,3.05a6.87,6.87,0,0,0,2.27,1,1.09,1.09,0,0,0,1-.65,1.29,1.29,0,0,0,0-1.5,8.09,8.09,0,0,0-2.29-1.7L391,46.13l4.08-7.06,1.81,1a18.87,18.87,0,0,1,3.31,2.3,8.15,8.15,0,0,1,1.83,2.84,7.48,7.48,0,0,1,.54,3.86A11.94,11.94,0,0,1,401,53.56a13.59,13.59,0,0,1-3.08,3.77,7.71,7.71,0,0,1-3.5,1.73,7.86,7.86,0,0,1-3.42-.12,19.45,19.45,0,0,1-4.38-2l-7.13-4.12A14.07,14.07,0,0,1,374.89,49a6.77,6.77,0,0,1-1.2-4.48,11.49,11.49,0,0,1,1.63-5.1A11.72,11.72,0,0,1,379.49,35a7.54,7.54,0,0,1,4.8-1,16.81,16.81,0,0,1,6,2.36Zm-8.29,5.16-1.79-1a10.33,10.33,0,0,0-2.57-1.21.92.92,0,0,0-1,.51c-.3.51-.32.93-.08,1.23a11.5,11.5,0,0,0,2.43,1.65l1.78,1Z"/><path class="cls-2" d="M401,17.28l-4.05,7-2.82-1.63a6.33,6.33,0,0,0-2.14-.92,1.19,1.19,0,0,0-1.08,1.72,7.14,7.14,0,0,0,1.94,1.41l11.54,6.66a5.07,5.07,0,0,0,2.16.8,1.2,1.2,0,0,0,1.21-.6,1.13,1.13,0,0,0-.09-1.41,9.48,9.48,0,0,0-2.42-1.76l-2.92-1.68,3.84-6.64A45.3,45.3,0,0,1,410.45,23a8.14,8.14,0,0,1,2.29,3,7.51,7.51,0,0,1,.75,4.06,11.21,11.21,0,0,1-1.61,4.6,11.45,11.45,0,0,1-4,4.38,6.88,6.88,0,0,1-4.53.86,18.21,18.21,0,0,1-6-2.42l-6.95-4a15.54,15.54,0,0,1-4.34-3.34,7,7,0,0,1-1.29-4.3,10.85,10.85,0,0,1,1.63-5.7,11,11,0,0,1,4.11-4.26,7,7,0,0,1,4.7-.95A18.59,18.59,0,0,1,401,17.28Z"/><path class="cls-2" d="M394.33,0l3.85,2.22,1.16-2,3.87,2.23-1.16,2L415.14,12c1.61.93,2.55,1.36,2.83,1.3s.78-.7,1.48-1.91l3.94,2.27-1.73,3a24.42,24.42,0,0,1-2.31,3.51,4.49,4.49,0,0,1-2.08,1.35,3.71,3.71,0,0,1-2.35,0,35.75,35.75,0,0,1-4.76-2.47l-12.42-7.17-.93,1.6-3.87-2.24.93-1.6L390,7.47Z"/><path class="cls-2" d="M262.69,37.52l-3.38-2,.78-1.36a2.93,2.93,0,0,0,.45-1,.51.51,0,0,0-.28-.5.48.48,0,0,0-.55,0,3.06,3.06,0,0,0-.68.93l-3.21,5.56a2.5,2.5,0,0,0-.39,1,.6.6,0,0,0,.29.59.56.56,0,0,0,.68-.05,4.35,4.35,0,0,0,.85-1.17l.81-1.4,3.2,1.85a21.87,21.87,0,0,1-1.33,2.06,3.91,3.91,0,0,1-1.43,1.1,3.66,3.66,0,0,1-1.95.36,6.51,6.51,0,0,1-4.33-2.68,3.37,3.37,0,0,1-.42-2.19A9,9,0,0,1,253,35.79l1.94-3.35a7.22,7.22,0,0,1,1.61-2.09,3.38,3.38,0,0,1,2.07-.62,5.22,5.22,0,0,1,2.75.79,5.29,5.29,0,0,1,2.05,2,3.33,3.33,0,0,1,.46,2.26A9.14,9.14,0,0,1,262.69,37.52Z"/><path class="cls-2" d="M272.06,42.51l-1.67,2.89a14,14,0,0,1-1.5,2.24,3.82,3.82,0,0,1-1.49,1,3.54,3.54,0,0,1-1.89.17,6.15,6.15,0,0,1-2.07-.78,7.68,7.68,0,0,1-1.86-1.43,3.14,3.14,0,0,1-.83-1.53,3.63,3.63,0,0,1,.09-1.66,11.09,11.09,0,0,1,1.1-2.36l1.75-3a8.46,8.46,0,0,1,1.83-2.36,3.45,3.45,0,0,1,2.14-.75,5.15,5.15,0,0,1,2.69.81,6.24,6.24,0,0,1,1.86,1.55A3.89,3.89,0,0,1,273,39a3.73,3.73,0,0,1-.05,1.57A8.56,8.56,0,0,1,272.06,42.51Zm-3.08-3a4.64,4.64,0,0,0,.57-1.2.58.58,0,0,0-.85-.48,4.11,4.11,0,0,0-.76,1.07l-3.08,5.33a4,4,0,0,0-.52,1.15.49.49,0,0,0,.27.49.48.48,0,0,0,.56,0,3.37,3.37,0,0,0,.68-.93Z"/><path class="cls-2" d="M279.18,41.1l-.71,1.09a3.26,3.26,0,0,1,1.57-.43,3,3,0,0,1,1.51.42A2.94,2.94,0,0,1,283,44.83a3.69,3.69,0,0,1,1.6-.41,3.06,3.06,0,0,1,2.71,1.71,2.29,2.29,0,0,1,.15,1.53,11,11,0,0,1-1,2.19l-4.84,8.38-3.48-2,4.43-7.69a11,11,0,0,0,1-1.93.51.51,0,0,0-.27-.63.53.53,0,0,0-.69.07,9.87,9.87,0,0,0-1.2,1.81L277,55.54l-3.48-2L277.8,46a15.94,15.94,0,0,0,1.11-2.13.5.5,0,0,0-.26-.62.63.63,0,0,0-.52,0,.82.82,0,0,0-.44.34c-.11.16-.33.53-.66,1.1l-4.72,8.17-3.48-2,6.8-11.79Z"/><path class="cls-2" d="M293.31,49.26l-.66,1a3.84,3.84,0,0,1,1.6-.34,3.08,3.08,0,0,1,1.44.42,2.77,2.77,0,0,1,1.19,1.28,2.24,2.24,0,0,1,.16,1.48,10.86,10.86,0,0,1-1,2.07l-2.87,5a11.09,11.09,0,0,1-1.51,2.18,2.19,2.19,0,0,1-1.41.63,2.88,2.88,0,0,1-1.66-.42,3,3,0,0,1-1-1A4,4,0,0,1,287,60l-1.56,2.7-3.59-2.07,7.78-13.47Zm-1,4a7.65,7.65,0,0,0,.69-1.37c0-.18-.07-.35-.31-.49a.52.52,0,0,0-.61,0,5.14,5.14,0,0,0-.85,1.23l-2.82,4.89a5.61,5.61,0,0,0-.66,1.39.51.51,0,0,0,.3.54.48.48,0,0,0,.58,0,5.93,5.93,0,0,0,.77-1.14Z"/><path class="cls-2" d="M303.71,63.4l-4.65-2.68-1.47,2.55a3.15,3.15,0,0,0-.48,1.1.51.51,0,0,0,.31.48.63.63,0,0,0,.73,0,3.92,3.92,0,0,0,.82-1.1l.9-1.56,3.4,2-.5.87a9.24,9.24,0,0,1-1.11,1.6,4.05,4.05,0,0,1-1.37.88,3.57,3.57,0,0,1-1.86.25,5.59,5.59,0,0,1-2.14-.79,6.41,6.41,0,0,1-1.82-1.49,3.64,3.64,0,0,1-.78-3.33,9.75,9.75,0,0,1,1-2.11l2-3.44a6.8,6.8,0,0,1,1.82-2.2,3.36,3.36,0,0,1,2.16-.57,6.3,6.3,0,0,1,4.62,2.79,3.63,3.63,0,0,1,.5,2.32,8.21,8.21,0,0,1-1.14,2.89Zm-2.49-4,.5-.87a5.22,5.22,0,0,0,.58-1.23.44.44,0,0,0-.24-.5c-.25-.15-.45-.16-.6,0a5.24,5.24,0,0,0-.79,1.17l-.5.86Z"/><path class="cls-2" d="M313.1,58.59,312,60.44l1,.56-1.07,1.87-1-.56-3.64,6.31a3.85,3.85,0,0,0-.63,1.36c0,.14.34.38.92.71l-1.1,1.91-1.44-.84a11.88,11.88,0,0,1-1.7-1.11,2.21,2.21,0,0,1-.65-1,1.82,1.82,0,0,1,0-1.13,18.58,18.58,0,0,1,1.19-2.29l3.46-6-.77-.44,1.08-1.87.77.45,1.07-1.86Z"/><path class="cls-2" d="M317.65,63.31,310.84,75.1,307.14,73,314,61.18Zm1.49-2.59-1.08,1.87-3.69-2.13,1.08-1.88Z"/><path class="cls-2" d="M323.63,64.67l-1.08,1.85,1,.56L322.45,69l-1-.56-3.64,6.31a3.85,3.85,0,0,0-.63,1.36c0,.14.33.37.92.71l-1.1,1.9-1.45-.83a13.25,13.25,0,0,1-1.69-1.11,2.13,2.13,0,0,1-.65-1,1.75,1.75,0,0,1,0-1.13,17.18,17.18,0,0,1,1.19-2.29l3.46-6-.77-.45L318.18,64l.78.45L320,62.59Z"/><path class="cls-2" d="M328.17,69.39l-6.8,11.79L317.67,79l6.81-11.79Zm1.5-2.6-1.08,1.88-3.7-2.14L326,64.66Z"/><path class="cls-2" d="M335.19,79l-1.67,2.89a14.5,14.5,0,0,1-1.5,2.24,3.82,3.82,0,0,1-1.49,1,3.54,3.54,0,0,1-1.89.17,6.23,6.23,0,0,1-2.07-.78A7.94,7.94,0,0,1,324.71,83a3.14,3.14,0,0,1-.83-1.53,3.63,3.63,0,0,1,.09-1.66,11.09,11.09,0,0,1,1.1-2.36l1.75-3a8.31,8.31,0,0,1,1.83-2.36,3.45,3.45,0,0,1,2.14-.75,5.15,5.15,0,0,1,2.69.81,6.24,6.24,0,0,1,1.86,1.55,3.89,3.89,0,0,1,.8,1.71,3.85,3.85,0,0,1,0,1.56A8.72,8.72,0,0,1,335.19,79Zm-3.08-3a4.8,4.8,0,0,0,.57-1.2.48.48,0,0,0-.29-.48.5.5,0,0,0-.56,0,4.45,4.45,0,0,0-.76,1.08L328,80.72a4,4,0,0,0-.52,1.15.49.49,0,0,0,.27.49.48.48,0,0,0,.56,0,3.37,3.37,0,0,0,.68-.93Z"/><path class="cls-2" d="M342.41,77.61l-.68,1a3.11,3.11,0,0,1,1.51-.42,3,3,0,0,1,1.49.42A2.82,2.82,0,0,1,346,80a2.21,2.21,0,0,1,.12,1.53,11.53,11.53,0,0,1-1.1,2.31l-4.77,8.26L336.65,90l4.71-8.17a9.18,9.18,0,0,0,.78-1.52.47.47,0,0,0-.29-.53.51.51,0,0,0-.66,0,9.44,9.44,0,0,0-1,1.58l-4.6,8L332,87.29l6.8-11.79Z"/><path class="cls-2" d="M38.44,255.31l-5.09,2.94-.59-1a6.72,6.72,0,0,0-1.11-1.57c-.23-.17-.55-.15-.95.08a1,1,0,0,0-.54.74,1.79,1.79,0,0,0,.32,1.1,5.21,5.21,0,0,0,.85,1.2,2.29,2.29,0,0,0,1.24.47,17.66,17.66,0,0,0,3.29,0,10.34,10.34,0,0,1,4.61.41,6.09,6.09,0,0,1,2.6,2.69,9,9,0,0,1,1.41,3.82,4.62,4.62,0,0,1-.95,3,9.43,9.43,0,0,1-3,2.58,10.82,10.82,0,0,1-4.14,1.48,4.69,4.69,0,0,1-3.2-.62,9.42,9.42,0,0,1-2.62-3.18l-.52-.91,5.08-2.94.69,1.19a7.11,7.11,0,0,0,1.34,1.87.85.85,0,0,0,1,0,1.19,1.19,0,0,0,.68-.8,2.67,2.67,0,0,0-.51-1.42c-.52-.9-.95-1.41-1.28-1.51a31.22,31.22,0,0,0-4.51-.09c-2.23,0-3.76-.24-4.57-.8a7.36,7.36,0,0,1-2.15-2.43,8.13,8.13,0,0,1-1.32-3.68A4.44,4.44,0,0,1,25.57,255a10,10,0,0,1,3-2.49A10.7,10.7,0,0,1,32,251.16a5.67,5.67,0,0,1,2.75.09,3.9,3.9,0,0,1,1.69,1,11.91,11.91,0,0,1,1.35,2Z"/><path class="cls-2" d="M50.08,240.55,61,259.41l-5.84,3.37-.81-1.62a4.57,4.57,0,0,1-.64,2.28,4.84,4.84,0,0,1-1.74,1.64,5.11,5.11,0,0,1-2.41.78,3.34,3.34,0,0,1-2-.48,5.09,5.09,0,0,1-1.41-1.28c-.38-.5-1-1.57-2-3.19l-7.34-12.72,5.74-3.32L50,257.71a15.75,15.75,0,0,0,1.65,2.54.77.77,0,0,0,1,0q.63-.37.51-.87a18.37,18.37,0,0,0-1.46-2.81l-7.33-12.7Z"/><path class="cls-2" d="M58,236l.87,1.72a6.05,6.05,0,0,1,.82-2.49,4.84,4.84,0,0,1,1.73-1.66,4.42,4.42,0,0,1,2.72-.62,3.5,3.5,0,0,1,2.17,1,16.16,16.16,0,0,1,2.08,3L73,244.89a17.58,17.58,0,0,1,1.81,3.84,3.53,3.53,0,0,1-.25,2.45,4.57,4.57,0,0,1-1.91,2,4.68,4.68,0,0,1-2.26.64,6.25,6.25,0,0,1-2.52-.52l2.5,4.32-5.75,3.32L52.14,239.36Zm4.81,4.54a12.07,12.07,0,0,0-1.35-2.05c-.23-.19-.54-.18-.93,0a.8.8,0,0,0-.48.85,8.41,8.41,0,0,0,1,2.16l4.52,7.82a8.55,8.55,0,0,0,1.4,2,.81.81,0,0,0,1,0c.37-.21.53-.48.47-.79a8.91,8.91,0,0,0-1-2Z"/><path class="cls-2" d="M73.09,227.26,74,229a6.05,6.05,0,0,1,.82-2.49,4.76,4.76,0,0,1,1.73-1.66,4.36,4.36,0,0,1,2.72-.62,3.44,3.44,0,0,1,2.17.95,16.32,16.32,0,0,1,2.08,3.05l4.59,7.94A18,18,0,0,1,89.88,240a3.56,3.56,0,0,1-.25,2.46,4.92,4.92,0,0,1-4.17,2.6,6.09,6.09,0,0,1-2.52-.52l2.5,4.33-5.75,3.31L67.25,230.63Zm4.81,4.54a12.25,12.25,0,0,0-1.35-2c-.23-.2-.54-.18-.93,0a.79.79,0,0,0-.48.85,8.41,8.41,0,0,0,1,2.16l4.52,7.81a8.7,8.7,0,0,0,1.4,2,.81.81,0,0,0,1,0c.37-.22.53-.48.47-.79a9.12,9.12,0,0,0-1-2Z"/><path class="cls-2" d="M99.18,221l2.67,4.62a21.93,21.93,0,0,1,1.89,3.88,6,6,0,0,1,.19,2.85,5.72,5.72,0,0,1-1.28,2.77,10,10,0,0,1-2.73,2.23,12.58,12.58,0,0,1-3.47,1.44,5,5,0,0,1-2.79-.08,5.74,5.74,0,0,1-2.22-1.44,18,18,0,0,1-2.4-3.42l-2.79-4.83a13.8,13.8,0,0,1-1.8-4.44,5.47,5.47,0,0,1,.68-3.56A8.41,8.41,0,0,1,88.39,218,10.09,10.09,0,0,1,92,216.63a6.11,6.11,0,0,1,3,.27,6,6,0,0,1,2.13,1.31A13.9,13.9,0,0,1,99.18,221Zm-6.56,1.9a7.16,7.16,0,0,0-1.22-1.74.73.73,0,0,0-.88,0,.78.78,0,0,0-.47.77,7,7,0,0,0,.89,1.93l4.91,8.51A6.38,6.38,0,0,0,97,234.05a.89.89,0,0,0,1.36-.74,5.36,5.36,0,0,0-.75-1.68Z"/><path class="cls-2" d="M103,210l1.2,2.61q-.28-3.37,2-4.91l3.83,6.64A5.59,5.59,0,0,0,108,216.1a2.05,2.05,0,0,0-.22,1.71,22.81,22.81,0,0,0,1.85,3.61l4.3,7.45-5.74,3.31-10.9-18.86Z"/><path class="cls-2" d="M112.79,201l1.72,3,1.55-.9,1.72,3-1.55.89,5.83,10.1a6.32,6.32,0,0,0,1.39,2c.21.07.78-.17,1.72-.71l1.76,3-2.32,1.34a19.35,19.35,0,0,1-2.89,1.45,3.39,3.39,0,0,1-1.92.1,2.8,2.8,0,0,1-1.57-.89,26.69,26.69,0,0,1-2.22-3.48l-5.54-9.58-1.23.71-1.73-3,1.24-.72-1.71-3Z"/><path class="cls-3" d="M91.22,75.31,86.62,78,88,80.36,83.39,83,82,80.63l-15.61,9c-1.92,1.11-2.94,1.83-3,2.15s.26,1.22,1.1,2.67l-4.71,2.71-2.07-3.58a29.33,29.33,0,0,1-2.25-4.48,5.32,5.32,0,0,1-.15-3,4.47,4.47,0,0,1,1.38-2.44,43.23,43.23,0,0,1,5.39-3.43l14.82-8.56-1.11-1.91,4.62-2.67,1.1,1.92,4.6-2.66Z"/><path class="cls-3" d="M86.35,110.75l-6.64-11.5-6.31,3.64A8.17,8.17,0,0,0,71,104.65a1.29,1.29,0,0,0,.06,1.43,1.54,1.54,0,0,0,1.54.92,9.67,9.67,0,0,0,3.13-1.36l3.85-2.22,4.86,8.42-2.15,1.25A23.08,23.08,0,0,1,78,115.15a9.81,9.81,0,0,1-4,.19,9,9,0,0,1-4.31-1.75A14.12,14.12,0,0,1,66,109.24,16.33,16.33,0,0,1,64,103.8a9.2,9.2,0,0,1,.29-4.64,9.38,9.38,0,0,1,2.17-3.46,23.32,23.32,0,0,1,4.69-3.33l8.51-4.91A16.74,16.74,0,0,1,86.25,85a8.24,8.24,0,0,1,5.34,1.43A15.67,15.67,0,0,1,98,98.16a9,9,0,0,1-1.79,5.58,20.44,20.44,0,0,1-6,4.78ZM86,99.1l2.13-1.23a12.35,12.35,0,0,0,2.79-1.93A1.12,1.12,0,0,0,91,94.57c-.36-.61-.77-.89-1.22-.82a13.45,13.45,0,0,0-3.15,1.53l-2.14,1.23Z"/><path class="cls-3" d="M96.41,119.4l-4.81-8.34,2-1.13a15.9,15.9,0,0,1,5.67-2.23,8.34,8.34,0,0,1,5.06,1.26,13.58,13.58,0,0,1,4.93,5.3c1.74,3,2.51,5.58,2.33,7.71a7.16,7.16,0,0,1-2.33,5,71.46,71.46,0,0,1-9.28,6l-14.65,8.45-5-8.64,2.6-1.5a6.23,6.23,0,0,1-6.11-3.36,8.66,8.66,0,0,1-1.16-5q.18-2.7,4.61-5.26l2.39-1.38c2.19-1.26,3.87-1.77,5.06-1.54s3.1,1.4,5.73,3.52c2.83,2.26,4.5,3.37,5,3.35a6.89,6.89,0,0,0,2.6-1.09,9.33,9.33,0,0,0,2.78-2.06,1.34,1.34,0,0,0,0-1.53q-.52-.9-1.23-.78a13.3,13.3,0,0,0-3.15,1.52ZM94,124.52q-2.79-1.23-4.05-1A12.15,12.15,0,0,0,86.76,125,10.1,10.1,0,0,0,84,127a1.33,1.33,0,0,0,0,1.56c.32.56.7.82,1.14.79A9.82,9.82,0,0,0,88,128Z"/><path class="cls-3" d="M121.3,136.4l-2.86,1.45a8.17,8.17,0,0,1,3.89,1A7.54,7.54,0,0,1,125,149.17a9.2,9.2,0,0,1,3.94,1.1,7.64,7.64,0,0,1,3.69,7,5.57,5.57,0,0,1-1.59,3.45,25.76,25.76,0,0,1-4.94,3.41l-20.73,12-5-8.62,19-11a27.67,27.67,0,0,0,4.48-2.92,1.28,1.28,0,0,0,.21-1.69,1.35,1.35,0,0,0-1.58-.72,26,26,0,0,0-4.8,2.41l-19,11-5-8.62,18.53-10.7a39.1,39.1,0,0,0,5-3.18,1.23,1.23,0,0,0,.19-1.65,1.52,1.52,0,0,0-1-.75,2,2,0,0,0-1.36.17c-.45.22-1.38.74-2.79,1.55L92,153.09l-5-8.62,29.17-16.85Z"/><path class="cls-3" d="M152.86,191.06l-31.23,13.3-5.56-9.64q4.89-3.87,13-10-4.06,1.86-8.34,3.48l-6.9,2.68-5.57-9.66,27-20.61,4.42,7.66q-1.1.74-15.59,11.58,1.68-.76,17.86-7.65l4.25,7.36L130.56,191a176.31,176.31,0,0,1,17.88-7.61Z"/><path class="cls-3" d="M155,218.5l-7.14,4.13a34.93,34.93,0,0,1-6,2.93,9.24,9.24,0,0,1-4.4.29,8.83,8.83,0,0,1-4.28-2,15.4,15.4,0,0,1-3.46-4.24,19.47,19.47,0,0,1-2.23-5.36,8,8,0,0,1,.12-4.31,8.9,8.9,0,0,1,2.24-3.44,27.47,27.47,0,0,1,5.29-3.7l7.48-4.32a20.94,20.94,0,0,1,6.86-2.79,8.41,8.41,0,0,1,5.5,1.05,12.84,12.84,0,0,1,4.76,5,15.39,15.39,0,0,1,2.08,5.64,9.3,9.3,0,0,1-2.44,7.95A20.77,20.77,0,0,1,155,218.5Zm-2.93-10.15a11.34,11.34,0,0,0,2.69-1.87,1.15,1.15,0,0,0,0-1.37,1.19,1.19,0,0,0-1.19-.72,10.4,10.4,0,0,0-3,1.36l-13.17,7.61a9.9,9.9,0,0,0-2.54,1.82,1.17,1.17,0,0,0,0,1.39,1.19,1.19,0,0,0,1.18.72,8.59,8.59,0,0,0,2.6-1.17Z"/><path class="cls-3" d="M172.1,224.39l-4,1.87q5.24-.45,7.6,3.08l-10.27,5.93a8.66,8.66,0,0,0-2.73-3.2,3.22,3.22,0,0,0-2.65-.35,38.22,38.22,0,0,0-5.57,2.87l-11.52,6.65-5.13-8.88L167,215.51Z"/><path class="cls-3" d="M187.33,250.76l-13.71,3.1-14.85,14.82-4.93-8.54L165,250l-12.73,7.33-5.13-8.89,35.6-20.55,5.13,8.88-14.94,8.64L183,243.29Z"/><path class="cls-3" d="M187.52,170l-3.18,1.83-.37-.64a3.81,3.81,0,0,0-.69-1c-.15-.11-.34-.09-.59.05a.62.62,0,0,0-.34.46,1.13,1.13,0,0,0,.2.69,3.19,3.19,0,0,0,.53.75,1.5,1.5,0,0,0,.77.3,11.79,11.79,0,0,0,2.06,0,6.64,6.64,0,0,1,2.89.25,4,4,0,0,1,1.62,1.69,5.7,5.7,0,0,1,.88,2.38,2.88,2.88,0,0,1-.6,1.85,6,6,0,0,1-1.88,1.62,6.76,6.76,0,0,1-2.59.92,3,3,0,0,1-2-.38,6.05,6.05,0,0,1-1.64-2l-.33-.57,3.19-1.84.43.75a4.33,4.33,0,0,0,.83,1.16.52.52,0,0,0,.64,0,.74.74,0,0,0,.42-.5,1.68,1.68,0,0,0-.31-.89c-.33-.56-.6-.88-.81-.94a18.71,18.71,0,0,0-2.81-.06,5.29,5.29,0,0,1-2.86-.5,4.47,4.47,0,0,1-1.34-1.52,5,5,0,0,1-.83-2.3,2.76,2.76,0,0,1,.67-1.76,6.07,6.07,0,0,1,1.86-1.56,6.84,6.84,0,0,1,2.17-.86,3.57,3.57,0,0,1,1.71.06,2.51,2.51,0,0,1,1.06.6,8.27,8.27,0,0,1,.85,1.25Z"/><path class="cls-3" d="M194.31,161l1.25,5.54,6,6-3.45,2L194,170.08l3,5.14-3.59,2.07-8.31-14.38,3.59-2.07,3.49,6-.87-4.09Z"/><path class="cls-3" d="M197.48,155.76l1.08,1.87-3.7,2.13-1.08-1.87Zm1.49,2.59,6.81,11.79-3.69,2.13-6.81-11.79Z"/><path class="cls-3" d="M202.46,152.88l8.31,14.38-3.7,2.14L198.76,155Z"/><path class="cls-3" d="M207.44,150l8.31,14.38-3.7,2.14-8.3-14.39Z"/><path class="cls-3" d="M195.1,56.63l-7.87-4.54.91-1.58a9.61,9.61,0,0,0,1.25-2.7q.09-.68-.84-1.2a1.54,1.54,0,0,0-1.41-.16,2.84,2.84,0,0,0-1.23,1.27A9,9,0,0,0,185,49.8a3.61,3.61,0,0,0,.33,2,28.91,28.91,0,0,0,2.58,4.39c1.85,2.75,2.86,4.92,3,6.49a9.48,9.48,0,0,1-1.59,5.56,14.21,14.21,0,0,1-4,4.85,7,7,0,0,1-4.7,1,14.67,14.67,0,0,1-5.79-2,16.66,16.66,0,0,1-5.18-4.4,7.27,7.27,0,0,1-1.66-4.77,14.7,14.7,0,0,1,2.24-6l.82-1.4,7.87,4.54-1.07,1.85a11.57,11.57,0,0,0-1.47,3.23,1.34,1.34,0,0,0,.77,1.38,1.88,1.88,0,0,0,1.6.29A4,4,0,0,0,180.22,65c.8-1.39,1.15-2.35,1-2.89A48.54,48.54,0,0,0,177.88,56q-2.64-4.45-2.47-6.74a11.39,11.39,0,0,1,1.6-4.75,12.93,12.93,0,0,1,3.9-4.63,7,7,0,0,1,4.62-.75,15.7,15.7,0,0,1,5.65,2.06,16.83,16.83,0,0,1,4.51,3.59,8.79,8.79,0,0,1,2,3.75,6.07,6.07,0,0,1,0,3,19.14,19.14,0,0,1-1.64,3.37Z"/><path class="cls-3" d="M223.88,60.82,207,90l-9-5.22,1.55-2.34a7.1,7.1,0,0,1-3.55.9,7.35,7.35,0,0,1-3.54-1.06,8,8,0,0,1-2.91-2.62,5.26,5.26,0,0,1-.87-3,7.94,7.94,0,0,1,.62-2.88,57.31,57.31,0,0,1,2.75-5.11L203.41,49l8.88,5.13L200.83,74a24.59,24.59,0,0,0-2.13,4.17c-.1.5.15.94.77,1.29s1.18.39,1.55,0a29.26,29.26,0,0,0,2.64-4.14L215,55.69Z"/><path class="cls-3" d="M240.34,85,232,80.17l1.94-3.36A7.49,7.49,0,0,0,235,74.26a1.23,1.23,0,0,0-.69-1.24A1.19,1.19,0,0,0,233,73a8,8,0,0,0-1.69,2.31l-8,13.76a6.1,6.1,0,0,0-.95,2.57,1.46,1.46,0,0,0,.71,1.46,1.4,1.4,0,0,0,1.69-.11,11.21,11.21,0,0,0,2.1-2.9l2-3.47,7.92,4.57a53,53,0,0,1-3.28,5.1A9.88,9.88,0,0,1,230,99a9.14,9.14,0,0,1-4.85.9,16.21,16.21,0,0,1-10.7-6.65,8.22,8.22,0,0,1-1-5.4,21.8,21.8,0,0,1,2.89-7.12l4.79-8.29a18.67,18.67,0,0,1,4-5.17,8.43,8.43,0,0,1,5.14-1.54,12.91,12.91,0,0,1,6.79,2,13.16,13.16,0,0,1,5.09,4.9,8.38,8.38,0,0,1,1.13,5.61A22.2,22.2,0,0,1,240.34,85Z"/><path class="cls-3" d="M262.62,97.87,254.24,93l1.94-3.36a7.49,7.49,0,0,0,1.09-2.55,1.21,1.21,0,0,0-.69-1.24,1.19,1.19,0,0,0-1.35,0,8,8,0,0,0-1.69,2.31l-7.94,13.76a6.29,6.29,0,0,0-1,2.57,1.45,1.45,0,0,0,.72,1.46,1.4,1.4,0,0,0,1.69-.11,11.5,11.5,0,0,0,2.09-2.9l2-3.47,7.91,4.57a53,53,0,0,1-3.28,5.1,9.7,9.7,0,0,1-3.54,2.73,9.2,9.2,0,0,1-4.84.9,16.15,16.15,0,0,1-10.7-6.65,8.1,8.1,0,0,1-1-5.4,21.36,21.36,0,0,1,2.89-7.12l4.78-8.29a18.48,18.48,0,0,1,4-5.17,8.37,8.37,0,0,1,5.13-1.54,12.94,12.94,0,0,1,6.8,2,13.13,13.13,0,0,1,5.08,4.9,8.33,8.33,0,0,1,1.13,5.61A22.49,22.49,0,0,1,262.62,97.87Z"/><path class="cls-3" d="M283,115.1l-11.49-6.64-3.65,6.31a8.2,8.2,0,0,0-1.19,2.72,1.29,1.29,0,0,0,.77,1.2,1.55,1.55,0,0,0,1.79,0,9.71,9.71,0,0,0,2-2.74l2.22-3.85,8.42,4.86-1.24,2.16a22.82,22.82,0,0,1-2.74,4,9.72,9.72,0,0,1-3.39,2.17,8.92,8.92,0,0,1-4.6.64,14.09,14.09,0,0,1-5.3-2,16.05,16.05,0,0,1-4.5-3.68,9.19,9.19,0,0,1-2.07-4.17,9.32,9.32,0,0,1,.15-4.08,22.64,22.64,0,0,1,2.4-5.22l4.91-8.51a16.65,16.65,0,0,1,4.52-5.44,8.12,8.12,0,0,1,5.34-1.43,13.86,13.86,0,0,1,6.09,1.94,14,14,0,0,1,5.35,5,9,9,0,0,1,1.23,5.73,20.41,20.41,0,0,1-2.82,7.15Zm-6.16-9.89,1.23-2.13a12.11,12.11,0,0,0,1.45-3.07,1.11,1.11,0,0,0-.61-1.23c-.61-.35-1.1-.39-1.47-.1a13.88,13.88,0,0,0-2,2.9l-1.23,2.13Z"/><path class="cls-3" d="M307.4,121.47l-7.88-4.55.92-1.58a9.93,9.93,0,0,0,1.25-2.7c.05-.44-.23-.85-.85-1.2a1.49,1.49,0,0,0-1.4-.15,2.76,2.76,0,0,0-1.23,1.26,8.37,8.37,0,0,0-.95,2.08,3.59,3.59,0,0,0,.32,2,28.91,28.91,0,0,0,2.58,4.39c1.86,2.75,2.86,4.92,3,6.5a9.52,9.52,0,0,1-1.6,5.56,14.15,14.15,0,0,1-4,4.84,7.11,7.11,0,0,1-4.7,1,14.54,14.54,0,0,1-5.79-2,16.64,16.64,0,0,1-5.18-4.4,7.32,7.32,0,0,1-1.66-4.77,14.52,14.52,0,0,1,2.25-6l.81-1.41,7.87,4.55-1.06,1.84a11.09,11.09,0,0,0-1.47,3.23,1.33,1.33,0,0,0,.77,1.38,1.82,1.82,0,0,0,1.59.29,4,4,0,0,0,1.52-1.77c.81-1.39,1.15-2.36,1-2.9a48,48,0,0,0-3.36-6.1c-1.77-3-2.59-5.22-2.47-6.75a11.3,11.3,0,0,1,1.6-4.75,12.6,12.6,0,0,1,3.9-4.62,7,7,0,0,1,4.61-.76,15.66,15.66,0,0,1,5.66,2.07,16.94,16.94,0,0,1,4.51,3.58,9,9,0,0,1,2,3.75,6.22,6.22,0,0,1,0,3,18.12,18.12,0,0,1-1.64,3.36Z"/><path class="cls-3" d="M328.59,133.7l-7.87-4.54.92-1.58a9.78,9.78,0,0,0,1.24-2.7q.09-.67-.84-1.2a1.54,1.54,0,0,0-1.41-.16,2.84,2.84,0,0,0-1.23,1.27,9.2,9.2,0,0,0-.95,2.08,3.71,3.71,0,0,0,.33,2,28.91,28.91,0,0,0,2.58,4.39q2.77,4.13,3,6.5a9.46,9.46,0,0,1-1.59,5.55,14.21,14.21,0,0,1-4,4.85,7.11,7.11,0,0,1-4.7,1,14.7,14.7,0,0,1-5.79-2,16.53,16.53,0,0,1-5.18-4.4,7.32,7.32,0,0,1-1.66-4.77,14.52,14.52,0,0,1,2.25-6l.81-1.41,7.87,4.54L311.29,139a11.14,11.14,0,0,0-1.46,3.23,1.32,1.32,0,0,0,.76,1.38,1.88,1.88,0,0,0,1.6.29,4,4,0,0,0,1.52-1.77c.8-1.4,1.15-2.36,1-2.9a48.54,48.54,0,0,0-3.37-6.11q-2.64-4.46-2.47-6.74a11.39,11.39,0,0,1,1.6-4.75,12.79,12.79,0,0,1,3.9-4.62,6.9,6.9,0,0,1,4.62-.76,15.55,15.55,0,0,1,5.65,2.07,16.62,16.62,0,0,1,4.51,3.58,8.85,8.85,0,0,1,2,3.75,6.11,6.11,0,0,1,0,3,19.13,19.13,0,0,1-1.64,3.36Z"/><path class="cls-3" d="M241.76,237.9l-7,4-1.63-2.82a6.54,6.54,0,0,0-1.39-1.86,1,1,0,0,0-1.19,0,1,1,0,0,0-.6,1,6.77,6.77,0,0,0,1,2.19L237.56,252a5.34,5.34,0,0,0,1.47,1.77,1.2,1.2,0,0,0,1.35.09,1.14,1.14,0,0,0,.63-1.27,9.38,9.38,0,0,0-1.22-2.74l-1.68-2.91,6.63-3.83a42.73,42.73,0,0,1,2.33,4.52,8.1,8.1,0,0,1,.5,3.72,7.59,7.59,0,0,1-1.38,3.89,13.51,13.51,0,0,1-9.31,5,6.87,6.87,0,0,1-4.36-1.51,18.5,18.5,0,0,1-4-5.08l-4-7a15.51,15.51,0,0,1-2.09-5.07,7.09,7.09,0,0,1,1-4.37,10.92,10.92,0,0,1,4.26-4.12,11.09,11.09,0,0,1,5.69-1.64A7,7,0,0,1,238,233,19,19,0,0,1,241.76,237.9Z"/><path class="cls-3" d="M260.45,226.25l3.46,6a29.2,29.2,0,0,1,2.46,5,7.76,7.76,0,0,1,.25,3.7,7.54,7.54,0,0,1-1.66,3.58,12.77,12.77,0,0,1-3.55,2.9,16.3,16.3,0,0,1-4.5,1.87,6.62,6.62,0,0,1-3.61-.1,7.51,7.51,0,0,1-2.89-1.88,23.12,23.12,0,0,1-3.1-4.43l-3.62-6.27a17.87,17.87,0,0,1-2.34-5.76,7.13,7.13,0,0,1,.88-4.61,10.79,10.79,0,0,1,4.23-4,13.12,13.12,0,0,1,4.74-1.74,7.88,7.88,0,0,1,6.66,2A17.59,17.59,0,0,1,260.45,226.25Zm-8.51,2.45a9.48,9.48,0,0,0-1.57-2.25,1,1,0,0,0-1.15,0,1,1,0,0,0-.6,1,8.46,8.46,0,0,0,1.15,2.5l6.37,11a8.11,8.11,0,0,0,1.53,2.13,1,1,0,0,0,1.17,0,1,1,0,0,0,.59-1,7.06,7.06,0,0,0-1-2.18Z"/><path class="cls-3" d="M265.52,211.87l1.17,2.33a6.54,6.54,0,0,1,.82-3.17,6.13,6.13,0,0,1,2.31-2.23,5.94,5.94,0,0,1,3.66-.91,4.66,4.66,0,0,1,2.88,1.37,23.88,23.88,0,0,1,3,4.38l9.9,17.14-7.45,4.3L272,218.14a18.75,18.75,0,0,0-1.94-3,1,1,0,0,0-1.24,0,1.06,1.06,0,0,0-.63,1.21,18,18,0,0,0,1.76,3.52l9.55,16.53-7.45,4.3-14.13-24.46Z"/><path class="cls-3" d="M284.07,194l2.19,3.78a10.35,10.35,0,0,0-2.6,1.78c-.2.3-.1.78.28,1.45l.45.77,3.13-1.81,2.24,3.87-1.77,1,11.55,20-7.45,4.3-11.55-20L279,210l-2.23-3.87,1.53-.89a22.5,22.5,0,0,1-1.7-3.32,3.22,3.22,0,0,1,0-1.92,4.87,4.87,0,0,1,1.28-2,17.36,17.36,0,0,1,3.48-2.45Z"/><path class="cls-3" d="M293.16,188.73l2.25,3.89-7.67,4.43-2.25-3.89Zm3.11,5.38,14.12,24.47L302.73,223,288.6,198.54Z"/><path class="cls-3" d="M312.78,177.41,330,207.25l-7.45,4.3-1-1.77a9,9,0,0,1-1.29,3,6.78,6.78,0,0,1-2.15,2,5.78,5.78,0,0,1-3.53.82,4.76,4.76,0,0,1-2.86-1.17,17.2,17.2,0,0,1-2.61-3.7l-6.61-11.45a17.49,17.49,0,0,1-1.95-4.2,4.65,4.65,0,0,1,.45-3,6.1,6.1,0,0,1,2.57-2.67,7.47,7.47,0,0,1,2.82-1,7.34,7.34,0,0,1,2.95.29l-4-6.93ZM312,193.25a5.46,5.46,0,0,0-1.27-1.68,1.09,1.09,0,0,0-1.18.07,1.05,1.05,0,0,0-.65.93,5.2,5.2,0,0,0,.83,2l6.92,12a6.33,6.33,0,0,0,1.36,1.83,1,1,0,0,0,1.12,0,1.08,1.08,0,0,0,.65-1.07,9.3,9.3,0,0,0-1.24-2.71Z"/><path class="cls-3" d="M342.74,184.17l-9.64,5.57,3,5.29a6.88,6.88,0,0,0,1.47,2,1.08,1.08,0,0,0,1.2-.05,1.3,1.3,0,0,0,.77-1.29,7.8,7.8,0,0,0-1.14-2.63l-1.86-3.23,7.06-4.07,1.05,1.8a19.15,19.15,0,0,1,1.72,3.65,8.3,8.3,0,0,1,.17,3.37,7.58,7.58,0,0,1-1.47,3.62,11.88,11.88,0,0,1-3.65,3,13.49,13.49,0,0,1-4.56,1.73,7.45,7.45,0,0,1-6.79-2.07,19.24,19.24,0,0,1-2.79-3.93l-4.12-7.13a14,14,0,0,1-2-5.56,6.83,6.83,0,0,1,1.2-4.48,11.49,11.49,0,0,1,4-3.61,11.74,11.74,0,0,1,5.86-1.79,7.61,7.61,0,0,1,4.68,1.5,17.11,17.11,0,0,1,4,5.05Zm-9.77.33-1-1.79a10.36,10.36,0,0,0-1.62-2.33.93.93,0,0,0-1.15-.08c-.51.3-.74.64-.68,1a11.11,11.11,0,0,0,1.27,2.64l1,1.79Z"/><path class="cls-3" d="M345.44,165.73l1.17,2.33a6.45,6.45,0,0,1,.81-3.17,6.13,6.13,0,0,1,2.31-2.23,5.94,5.94,0,0,1,3.66-.91,4.66,4.66,0,0,1,2.88,1.37,23.88,23.88,0,0,1,3,4.38l9.9,17.15-7.44,4.3L351.93,172a18.75,18.75,0,0,0-1.94-3,1,1,0,0,0-1.24,0,1.07,1.07,0,0,0-.63,1.21,18.7,18.7,0,0,0,1.76,3.52l9.55,16.54-7.45,4.3L337.86,170.1Z"/><path class="cls-3" d="M379.4,158.44l-7,4.05-1.63-2.82a6.36,6.36,0,0,0-1.39-1.86,1,1,0,0,0-1.19,0,1,1,0,0,0-.6,1,6.77,6.77,0,0,0,1,2.19l6.66,11.54a5.34,5.34,0,0,0,1.47,1.77,1.22,1.22,0,0,0,1.36.09,1.15,1.15,0,0,0,.62-1.27,9.38,9.38,0,0,0-1.22-2.74l-1.68-2.91,6.64-3.83a43.2,43.2,0,0,1,2.32,4.52,8.07,8.07,0,0,1,.5,3.71,7.6,7.6,0,0,1-1.38,3.9,11.25,11.25,0,0,1-3.69,3.18,11.44,11.44,0,0,1-5.62,1.8,6.82,6.82,0,0,1-4.35-1.52,18,18,0,0,1-4-5.08l-4-7a15.62,15.62,0,0,1-2.09-5.06,7.08,7.08,0,0,1,1-4.37,12.26,12.26,0,0,1,9.95-5.76,7,7,0,0,1,4.55,1.53A18.83,18.83,0,0,1,379.4,158.44Z"/><path class="cls-3" d="M400.46,150.85l-9.64,5.57,3.05,5.29a7,7,0,0,0,1.47,2,1.08,1.08,0,0,0,1.2-.06,1.28,1.28,0,0,0,.77-1.29,8,8,0,0,0-1.14-2.62l-1.86-3.23,7.06-4.08,1,1.81a18.44,18.44,0,0,1,1.73,3.65,8.12,8.12,0,0,1,.16,3.37,7.39,7.39,0,0,1-1.46,3.61,12,12,0,0,1-3.65,3,13.46,13.46,0,0,1-4.56,1.72,7.42,7.42,0,0,1-6.79-2.06,19.24,19.24,0,0,1-2.79-3.93l-4.12-7.14a14,14,0,0,1-2.06-5.56,6.9,6.9,0,0,1,1.2-4.47,11.62,11.62,0,0,1,4-3.61,11.77,11.77,0,0,1,5.86-1.8,7.51,7.51,0,0,1,4.67,1.51,16.89,16.89,0,0,1,4,5Zm-9.77.33-1-1.79a10.51,10.51,0,0,0-1.62-2.34.93.93,0,0,0-1.15-.07q-.76.45-.69,1a11.39,11.39,0,0,0,1.28,2.64l1,1.79Z"/><path class="cls-3" d="M8.54,80.61l1.82,1A5.22,5.22,0,0,0,9.7,83c0,.17.15.35.47.54l.37.21.87-1.51,1.87,1.08-.49.85,9.64,5.57-2.08,3.59-9.64-5.57-.42.74L8.42,87.45l.43-.74a11.6,11.6,0,0,1-1.51-1,1.54,1.54,0,0,1-.47-.8,2.33,2.33,0,0,1,0-1.16,7.76,7.76,0,0,1,.86-1.86Z"/><path class="cls-3" d="M11.06,76.23l1.88,1.08L10.8,81,8.93,79.92Zm2.6,1.5,11.79,6.8-2.14,3.7L11.52,81.42Z"/><path class="cls-3" d="M15,71.75l1.86,1.07.56-1,1.87,1.08-.56,1L25,77.54a4.17,4.17,0,0,0,1.37.63c.14,0,.37-.34.71-.93l1.9,1.1-.83,1.45a12.35,12.35,0,0,1-1.12,1.69,2.1,2.1,0,0,1-1,.65,1.75,1.75,0,0,1-1.13,0A15.45,15.45,0,0,1,22.65,81l-6-3.46-.45.78-1.86-1.08.44-.77-1.85-1.08Z"/><path class="cls-3" d="M19.71,67.24l1.05.69a3.11,3.11,0,0,1-.42-1.51,3,3,0,0,1,.42-1.49,2.87,2.87,0,0,1,1.31-1.26,2.15,2.15,0,0,1,1.53-.12,11.53,11.53,0,0,1,2.31,1.1l8.26,4.77L32.1,73,23.94,68.3a9.52,9.52,0,0,0-1.53-.78.47.47,0,0,0-.53.29.52.52,0,0,0,0,.66,9.44,9.44,0,0,0,1.58,1l8,4.6L29.39,77.7,17.6,70.9Z"/><path class="cls-3" d="M33.89,56.78l-2.68,4.64,2.55,1.47a3.15,3.15,0,0,0,1.1.48.49.49,0,0,0,.48-.31.62.62,0,0,0,0-.72,3.73,3.73,0,0,0-1.1-.82l-1.56-.9,2-3.4.87.5a8.86,8.86,0,0,1,1.6,1.11A4,4,0,0,1,38,60.19a3.71,3.71,0,0,1,.26,1.86,5.9,5.9,0,0,1-.8,2.15A6.34,6.34,0,0,1,36,66a3.6,3.6,0,0,1-1.68.84,3.81,3.81,0,0,1-1.65-.06,9.28,9.28,0,0,1-2.11-1l-3.44-2A6.77,6.77,0,0,1,24.91,62a3.27,3.27,0,0,1-.58-2.16,5.69,5.69,0,0,1,.78-2.46,5.82,5.82,0,0,1,2-2.16,3.66,3.66,0,0,1,2.31-.5,8.21,8.21,0,0,1,2.89,1.14Zm-4,2.49-.87-.5a5.42,5.42,0,0,0-1.23-.59.46.46,0,0,0-.5.25c-.14.25-.16.45,0,.59a5.71,5.71,0,0,0,1.17.8l.86.49Z"/><path class="cls-3" d="M36.46,46.92,34.63,50.1,34,49.74a3.88,3.88,0,0,0-1.09-.51c-.18,0-.34.09-.49.34a.65.65,0,0,0-.06.57,1.22,1.22,0,0,0,.51.5,3.46,3.46,0,0,0,.84.38,1.48,1.48,0,0,0,.82-.13,11.22,11.22,0,0,0,1.77-1,6.66,6.66,0,0,1,2.63-1.23,3.84,3.84,0,0,1,2.24.65,5.74,5.74,0,0,1,2,1.63,2.85,2.85,0,0,1,.41,1.9,5.92,5.92,0,0,1-.83,2.33,6.48,6.48,0,0,1-1.77,2.1A3,3,0,0,1,39,57.9,5.88,5.88,0,0,1,36.59,57L36,56.66l1.83-3.18.75.43a4.53,4.53,0,0,0,1.3.6.54.54,0,0,0,.56-.31.75.75,0,0,0,.12-.65,1.65,1.65,0,0,0-.72-.61,2,2,0,0,0-1.17-.42,20.33,20.33,0,0,0-2.46,1.36,5.35,5.35,0,0,1-2.73,1,4.47,4.47,0,0,1-1.92-.65,5.25,5.25,0,0,1-1.87-1.57,2.84,2.84,0,0,1-.3-1.87,6.4,6.4,0,0,1,.83-2.28,6.82,6.82,0,0,1,1.45-1.82,3.44,3.44,0,0,1,1.52-.81,2.35,2.35,0,0,1,1.21,0,7.56,7.56,0,0,1,1.36.66Z"/><path class="cls-3" d="M41.41,38.36l-1.84,3.18-.64-.37a3.79,3.79,0,0,0-1.09-.5c-.18,0-.34.09-.48.34a.59.59,0,0,0-.06.57,1.1,1.1,0,0,0,.51.49,3.58,3.58,0,0,0,.84.39,1.47,1.47,0,0,0,.81-.14,10.82,10.82,0,0,0,1.78-1,6.52,6.52,0,0,1,2.62-1.22,3.8,3.8,0,0,1,2.25.65,5.58,5.58,0,0,1,2,1.62,2.81,2.81,0,0,1,.41,1.9,5.88,5.88,0,0,1-.82,2.34,6.86,6.86,0,0,1-1.78,2.1,3,3,0,0,1-1.93.67,6.09,6.09,0,0,1-2.41-.91L41,48.1l1.84-3.18.74.43a4.43,4.43,0,0,0,1.31.59.53.53,0,0,0,.56-.31.72.72,0,0,0,.11-.64,1.61,1.61,0,0,0-.71-.62A2.06,2.06,0,0,0,43.64,44a18.58,18.58,0,0,0-2.47,1.36,5.31,5.31,0,0,1-2.73,1,4.46,4.46,0,0,1-1.91-.64,5.08,5.08,0,0,1-1.87-1.58,2.75,2.75,0,0,1-.31-1.86,6.23,6.23,0,0,1,.84-2.29,6.63,6.63,0,0,1,1.45-1.82,3.62,3.62,0,0,1,1.51-.81,2.64,2.64,0,0,1,1.22,0,8.27,8.27,0,0,1,1.36.66Z"/><path class="cls-3" d="M373,111.59l1,1.82a4.68,4.68,0,0,0-1.25.86c-.1.14,0,.37.13.69l.22.38,1.51-.88,1.08,1.87-.86.49,5.57,9.64-3.59,2.07-5.57-9.64-.73.43-1.08-1.87.74-.42a11.51,11.51,0,0,1-.82-1.6,1.55,1.55,0,0,1,0-.93,2.3,2.3,0,0,1,.62-1,8,8,0,0,1,1.67-1.19Z"/><path class="cls-3" d="M381,116.5l-3.37,1.94-.45-.79a6.22,6.22,0,0,1-.9-2.29,3.35,3.35,0,0,1,.5-2,6.85,6.85,0,0,1,5.26-2.94,3,3,0,0,1,2,.94,29.48,29.48,0,0,1,2.41,3.76L389.9,121l-3.49,2L385.8,122a2.52,2.52,0,0,1-1.36,2.47,3.51,3.51,0,0,1-2,.47c-.73-.05-1.44-.67-2.12-1.86l-.56-1a3.33,3.33,0,0,1-.63-2,6.85,6.85,0,0,1,1.43-2.31,6.72,6.72,0,0,0,1.35-2,2.87,2.87,0,0,0-.44-1.05,3.7,3.7,0,0,0-.83-1.12.56.56,0,0,0-.62,0c-.24.14-.35.31-.32.5a5.4,5.4,0,0,0,.62,1.27Zm2.07,1a3.11,3.11,0,0,0-.39,1.63,5.33,5.33,0,0,0,.57,1.31,4,4,0,0,0,.81,1.11.52.52,0,0,0,.62,0c.23-.13.34-.28.32-.46a3.82,3.82,0,0,0-.53-1.15Z"/><path class="cls-3" d="M387.87,106.44l.59,1.16a3.38,3.38,0,0,1,.41-1.57,3,3,0,0,1,1.13-1.1,2.94,2.94,0,0,1,3,0,3.66,3.66,0,0,1,.45-1.59,2.77,2.77,0,0,1,1.06-1.06,2.85,2.85,0,0,1,1.78-.43,2.23,2.23,0,0,1,1.39.64,10.82,10.82,0,0,1,1.38,2l4.84,8.37-3.49,2L396,107.22a10.48,10.48,0,0,0-1.19-1.81.52.52,0,0,0-.68-.09.55.55,0,0,0-.29.64,10.61,10.61,0,0,0,1,1.94l4.43,7.69-3.48,2-4.32-7.49a15.65,15.65,0,0,0-1.29-2,.49.49,0,0,0-.67-.08.6.6,0,0,0-.3.42.81.81,0,0,0,.07.55c.09.18.3.56.63,1.13l4.72,8.17-3.49,2-6.8-11.79Z"/><path class="cls-3" d="M400.55,95.66l1.08,1.88-3.69,2.13-1.08-1.87Zm1.5,2.6,6.81,11.79-3.7,2.13-6.81-11.79Z"/><path class="cls-3" d="M405.54,92.79l8.3,14.38-3.7,2.13-8.3-14.38Z"/><path class="cls-3" d="M415.84,90.3l3.89,9.12c.62,1.44,1,2.44,1.19,3a3.32,3.32,0,0,1,.16,1.53,2.51,2.51,0,0,1-.66,1.32,8.36,8.36,0,0,1-2,1.48L416.21,108l-1.09-1.89a4.76,4.76,0,0,0,1-.7.42.42,0,0,0,0-.52c-.05-.09-.37-.46-.94-1.11l-7.65-8.72,3.25-1.88,5.78,7.28-4-8.3Z"/></g></g></svg>