<svg xmlns="http://www.w3.org/2000/svg" viewBox="0 0 806.1 520.15"><defs><style>.cls-1{fill:#844d9e;}.cls-2{fill:#ed0e7b;}.cls-3{fill:#0095da;}</style></defs><title>Asset 3</title><g id="Layer_2" data-name="Layer 2"><g id="Layer_1-2" data-name="Layer 1"><path class="cls-1" d="M534.19,328.51,550,355.9,543,360l-15.81-27.38Z"/><path class="cls-1" d="M561.68,334.72l-8.84,5.11,2.8,4.85a6.41,6.41,0,0,0,1.35,1.84,1,1,0,0,0,1.1,0,1.19,1.19,0,0,0,.71-1.18,7.41,7.41,0,0,0-1-2.41l-1.71-3,6.47-3.74,1,1.65a17.07,17.07,0,0,1,1.58,3.35,7.49,7.49,0,0,1,.16,3.09,7,7,0,0,1-1.35,3.32,10.94,10.94,0,0,1-3.35,2.78,12.42,12.42,0,0,1-4.18,1.58,7.09,7.09,0,0,1-3.57-.23,7.27,7.27,0,0,1-2.67-1.66,18.2,18.2,0,0,1-2.55-3.61l-3.78-6.55a13,13,0,0,1-1.89-5.1,6.32,6.32,0,0,1,1.1-4.11,10.66,10.66,0,0,1,3.64-3.31,10.91,10.91,0,0,1,5.38-1.65,7,7,0,0,1,4.29,1.38,15.86,15.86,0,0,1,3.68,4.63Zm-9,.3-.94-1.64a9.56,9.56,0,0,0-1.49-2.14.84.84,0,0,0-1-.07c-.47.27-.69.59-.63.94a10.11,10.11,0,0,0,1.17,2.42l1,1.65Z"/><path class="cls-1" d="M568.33,327l-6.41,3.7-.87-1.5a12.26,12.26,0,0,1-1.71-4.37,6.42,6.42,0,0,1,1-3.88,13,13,0,0,1,10-5.59,5.48,5.48,0,0,1,3.85,1.79,54.23,54.23,0,0,1,4.6,7.14l6.5,11.27-6.65,3.83-1.15-2a4.81,4.81,0,0,1-2.59,4.71A6.68,6.68,0,0,1,571,343q-2.07-.15-4-3.54l-1.06-1.85c-1-1.68-1.37-3-1.19-3.89s1.08-2.38,2.71-4.41,2.59-3.46,2.58-3.85a5.52,5.52,0,0,0-.84-2,7.46,7.46,0,0,0-1.58-2.14,1,1,0,0,0-1.18,0c-.47.27-.67.58-.61.95a10.38,10.38,0,0,0,1.18,2.42Zm3.95,1.83a5.87,5.87,0,0,0-.75,3.11,9.33,9.33,0,0,0,1.09,2.49,7.71,7.71,0,0,0,1.53,2.11,1,1,0,0,0,1.2,0c.42-.25.63-.54.6-.88a7.24,7.24,0,0,0-1-2.2Z"/><path class="cls-1" d="M581.5,307.79l1.43,3.11q-.34-4,2.38-5.85l4.56,7.9a6.51,6.51,0,0,0-2.47,2.1,2.46,2.46,0,0,0-.27,2,29.6,29.6,0,0,0,2.21,4.29l5.12,8.86-6.84,3.95-13-22.45Z"/><path class="cls-1" d="M594,300.56l1.08,2.14a5.93,5.93,0,0,1,.75-2.91,5.58,5.58,0,0,1,2.12-2.05,5.48,5.48,0,0,1,3.35-.83,4.25,4.25,0,0,1,2.64,1.26,22.11,22.11,0,0,1,2.75,4l9.09,15.73L609,321.86l-9-15.54a16,16,0,0,0-1.79-2.74.88.88,0,0,0-1.13,0,1,1,0,0,0-.58,1.12,16.82,16.82,0,0,0,1.62,3.22l8.75,15.18L600,327l-13-22.44Z"/><path class="cls-2" d="M638.77,435.72l17.29,10a41.66,41.66,0,0,1,4.43,2.78,5.22,5.22,0,0,1,1.51,2.39,7,7,0,0,1,.16,3.73,15.85,15.85,0,0,1-1.94,4.76,12.42,12.42,0,0,1-4.14,4.6c-1.5.89-3.34.74-5.53-.47l3.83-6.63c1,.58,1.69.5,2.11-.22a1.26,1.26,0,0,0,.14-1.3,5.48,5.48,0,0,0-1.77-1.35l-1.69-1a7.66,7.66,0,0,1,.13,2.55,6,6,0,0,1-.77,2.27,6.56,6.56,0,0,1-2.49,2.61,4.48,4.48,0,0,1-2.9.5,12.06,12.06,0,0,1-3.7-1.55l-8.15-4.7c-2.13-1.24-3.44-2.5-3.94-3.81a4.94,4.94,0,0,1,.62-4.31,6,6,0,0,1,1.88-2,6.34,6.34,0,0,1,2.66-1l-1.41-1.47Zm2,10.29a7.75,7.75,0,0,0-2.06-1,.88.88,0,0,0-.88.55,1,1,0,0,0,0,1.11,5.6,5.6,0,0,0,1.76,1.35l7.55,4.35a6.86,6.86,0,0,0,2.06.94.85.85,0,0,0,.89-.52,1,1,0,0,0,0-1.19,10.53,10.53,0,0,0-2.33-1.62Z"/><path class="cls-2" d="M657,422.38l5.49,3.17a27.16,27.16,0,0,1,4.27,2.87,7.38,7.38,0,0,1,1.89,2.82,6.88,6.88,0,0,1,.33,3.61,12,12,0,0,1-1.49,3.93,15.11,15.11,0,0,1-2.72,3.56,6.06,6.06,0,0,1-2.92,1.57,6.93,6.93,0,0,1-3.15-.16,21.43,21.43,0,0,1-4.5-2.11l-5.75-3.32a16.05,16.05,0,0,1-4.5-3.5,6.4,6.4,0,0,1-1.42-4.06,10,10,0,0,1,1.53-5.12,11.89,11.89,0,0,1,3-3.55,7.08,7.08,0,0,1,6.22-1.43A16.13,16.13,0,0,1,657,422.38Zm-5.64,5.85a8.33,8.33,0,0,0-2.28-1.06.89.89,0,0,0-.91.53.93.93,0,0,0,0,1.07,7.79,7.79,0,0,0,2.06,1.46l10.13,5.85a7.58,7.58,0,0,0,2.19,1,1.06,1.06,0,0,0,1-1.57,6.42,6.42,0,0,0-1.78-1.29Z"/><path class="cls-2" d="M662.62,414.49l-3.7,6.41-1.5-.87a12.07,12.07,0,0,1-3.67-2.92,6.47,6.47,0,0,1-1.11-3.85,13,13,0,0,1,5.88-9.84,5.47,5.47,0,0,1,4.23-.38,53.38,53.38,0,0,1,7.56,3.89l11.26,6.5-3.84,6.65-2-1.16a5.14,5.14,0,0,1,.87,2.66,5.06,5.06,0,0,1-.76,2.71,6.72,6.72,0,0,1-2.9,2.71q-1.87.92-5.27-1.05l-1.85-1.06c-1.68-1-2.67-1.9-3-2.78s-.26-2.61.14-5.17c.42-2.75.52-4.3.31-4.63a5.43,5.43,0,0,0-1.73-1.31,7.1,7.1,0,0,0-2.44-1.06,1,1,0,0,0-1,.56c-.26.46-.28.84,0,1.12a10.05,10.05,0,0,0,2.22,1.51Zm4.33-.39a5.87,5.87,0,0,0,.92,3.07,9.4,9.4,0,0,0,2.18,1.61,8,8,0,0,0,2.38,1.07,1,1,0,0,0,1-.61,1,1,0,0,0,.09-1.07,7.45,7.45,0,0,0-2-1.4Z"/><path class="cls-2" d="M659.61,388.23,687,404l-4.06,7-27.39-15.81Z"/><path class="cls-2" d="M681.19,378.82l-3.5,6.05-1.21-.7a7.39,7.39,0,0,0-2.08-1c-.34,0-.65.18-.92.65a1.15,1.15,0,0,0-.12,1.08,2.16,2.16,0,0,0,1,.95,7,7,0,0,0,1.6.73,2.81,2.81,0,0,0,1.55-.25,21,21,0,0,0,3.38-2,12.44,12.44,0,0,1,5-2.32,7.32,7.32,0,0,1,4.28,1.22,11,11,0,0,1,3.72,3.1,5.44,5.44,0,0,1,.78,3.62,11.16,11.16,0,0,1-1.57,4.45,12.73,12.73,0,0,1-3.38,4,5.6,5.6,0,0,1-3.67,1.27,11.19,11.19,0,0,1-4.6-1.72l-1.08-.63,3.49-6.05,1.43.82a8.86,8.86,0,0,0,2.48,1.13,1,1,0,0,0,1.06-.6,1.38,1.38,0,0,0,.22-1.22,3.11,3.11,0,0,0-1.36-1.17,3.92,3.92,0,0,0-2.23-.79,36.24,36.24,0,0,0-4.7,2.58q-3.42,2-5.18,1.9a8.64,8.64,0,0,1-3.66-1.23,9.62,9.62,0,0,1-3.55-3,5.24,5.24,0,0,1-.58-3.54,12,12,0,0,1,1.58-4.36,13.17,13.17,0,0,1,2.76-3.47,6.8,6.8,0,0,1,2.89-1.53,4.61,4.61,0,0,1,2.31,0,14.77,14.77,0,0,1,2.59,1.26Z"/><path d="M130.28,226.21,73.46,259l-8.19-14.18,3.38-2A17.1,17.1,0,0,1,63,240.43a12.6,12.6,0,0,1-3.77-4.09,11.07,11.07,0,0,1-1.57-6.72,8.93,8.93,0,0,1,2.23-5.43,33.48,33.48,0,0,1,7.05-5l21.79-12.58a33.93,33.93,0,0,1,8-3.72,8.79,8.79,0,0,1,5.76.86,11.64,11.64,0,0,1,5.09,4.88,13.39,13.39,0,0,1,1.29,11l13.2-7.63Zm-30.16-1.49a10.34,10.34,0,0,0,3.19-2.43,2,2,0,0,0-.13-2.24,2.05,2.05,0,0,0-1.77-1.25,10.21,10.21,0,0,0-3.78,1.6L74.82,233.57a12.4,12.4,0,0,0-3.5,2.58,1.87,1.87,0,0,0,0,2.13,2.08,2.08,0,0,0,2,1.25c.84-.08,2.57-.87,5.16-2.37Z"/><path d="M112.24,260.3,104.56,247l3.13-1.8q5.4-3.12,9-3.57a13.34,13.34,0,0,1,8.07,2q4.41,2.46,7.88,8.46,4.16,7.2,3.71,12.32a11.44,11.44,0,0,1-3.71,8q-3.28,2.88-14.83,9.54l-23.37,13.5-8-13.79,4.15-2.4a10,10,0,0,1-9.76-5.36,13.85,13.85,0,0,1-1.85-8q.3-4.31,7.35-8.38l3.82-2.21q5.24-3,8.08-2.46t9.15,5.62q6.77,5.4,8,5.35a11.38,11.38,0,0,0,4.14-1.74q3.65-2.1,4.44-3.29a2.15,2.15,0,0,0,.06-2.45c-.55-1-1.2-1.37-2-1.25a22.34,22.34,0,0,0-5,2.44Zm-3.79,8.18q-4.45-2-6.46-1.53a18.75,18.75,0,0,0-5.15,2.25,16.35,16.35,0,0,0-4.4,3.17,2.13,2.13,0,0,0,0,2.48q.78,1.33,1.83,1.26c.7,0,2.23-.74,4.57-2.09Z"/><path d="M152.21,287.86l-4.43,2.24a12.21,12.21,0,0,1,6,1.55,11.62,11.62,0,0,1,4.25,4.4,11.24,11.24,0,0,1,1.72,7,8.78,8.78,0,0,1-2.61,5.48,46,46,0,0,1-8.34,5.7L116.19,333,108,318.86l32.25-18.62a34.8,34.8,0,0,0,5.68-3.7,1.84,1.84,0,0,0,0-2.36,2,2,0,0,0-2.31-1.2q-1.42.31-6.69,3.35l-31.49,18.18-8.18-14.18,46.57-26.89Z"/><path d="M166.1,352.52l-7.73-13.37,5.37-3.1a12.24,12.24,0,0,0,3.55-2.65,2,2,0,0,0,0-2.27,1.91,1.91,0,0,0-1.83-1.14,13,13,0,0,0-4.18,1.85l-22,12.68a9.94,9.94,0,0,0-3.37,2.79,2.29,2.29,0,0,0-.17,2.58,2.21,2.21,0,0,0,2.42,1.2,18.12,18.12,0,0,0,5.21-2.33l5.54-3.2,7.3,12.64a85.57,85.57,0,0,1-8.61,4.43,15.63,15.63,0,0,1-7.07.95,14.56,14.56,0,0,1-7.42-2.63,21.51,21.51,0,0,1-6-7q-3.47-6-3.43-10.7a13,13,0,0,1,2.88-8.29q2.87-3.6,9.67-7.52l13.24-7.64q5.93-3.43,9.63-4c2.48-.36,5.25.3,8.33,2a20.73,20.73,0,0,1,7.84,8.11,20.94,20.94,0,0,1,3.12,10.83,13.36,13.36,0,0,1-2.91,8.66Q172.65,348.73,166.1,352.52Z"/><path d="M180.54,392.62l-10.6-18.36-10.07,5.82a12.85,12.85,0,0,0-3.81,2.8,2.07,2.07,0,0,0,.1,2.29,2.47,2.47,0,0,0,2.46,1.46,15.47,15.47,0,0,0,5-2.17l6.14-3.54,7.76,13.44-3.44,2a35.53,35.53,0,0,1-7,3.28,15.38,15.38,0,0,1-6.41.31,14.3,14.3,0,0,1-6.88-2.79,22.56,22.56,0,0,1-5.76-6.94,25.7,25.7,0,0,1-3.28-8.68,14.56,14.56,0,0,1,.47-7.41,14.81,14.81,0,0,1,3.45-5.53,37.21,37.21,0,0,1,7.49-5.31l13.58-7.84q6.11-3.53,10.59-3.91a13,13,0,0,1,8.52,2.28,22,22,0,0,1,6.87,7.55,22.45,22.45,0,0,1,3.42,11.16,14.4,14.4,0,0,1-2.86,8.9q-2.84,3.72-9.61,7.63ZM179.91,374l3.41-2a19.7,19.7,0,0,0,4.44-3.08,1.75,1.75,0,0,0,.14-2.19c-.56-1-1.21-1.42-1.94-1.31a21.56,21.56,0,0,0-5,2.44l-3.41,2Z"/><path d="M287.77,128.22,248.64,196l-16.91-9.76,2.32-4a20.32,20.32,0,0,1-7.29.83,15.24,15.24,0,0,1-6.33-2,13.15,13.15,0,0,1-5.63-6,10.66,10.66,0,0,1-.94-6.93q.76-3.19,4.31-9.34l15-26q3.7-6.4,6.06-8.61a10.35,10.35,0,0,1,6.47-2.55,13.81,13.81,0,0,1,8.16,2,16,16,0,0,1,7.89,10.6l9.1-15.75Zm-32,16.44a12.23,12.23,0,0,0,1.84-4.41,3,3,0,0,0-4-2.47c-.71.43-1.7,1.73-2.95,3.91L234.87,168.9a14.48,14.48,0,0,0-2.08,4.75,2.21,2.21,0,0,0,1.31,2.17,2.5,2.5,0,0,0,2.87.07q1.23-.88,3.92-5.53Z"/><path d="M303.69,153.71l-4.88,6.92q8.2-5.73,15.47-2.15L303,178q-4.64-2.68-7.55-2.68a6.07,6.07,0,0,0-4.69,2q-1.8,1.95-6.46,10l-12.67,21.93-16.91-9.76L286.78,144Z"/><path d="M339.17,212.54l-21.9-12.64-6.93,12c-1.45,2.51-2.21,4.24-2.26,5.17a2.44,2.44,0,0,0,1.46,2.3,2.94,2.94,0,0,0,3.41,0q1.49-1.06,3.88-5.21l4.23-7.33,16,9.26-2.37,4.1a42.16,42.16,0,0,1-5.22,7.54,18.62,18.62,0,0,1-6.44,4.15,17.15,17.15,0,0,1-8.77,1.22,27.11,27.11,0,0,1-10.09-3.74,30.72,30.72,0,0,1-8.57-7,17.46,17.46,0,0,1-3.93-7.94,17.81,17.81,0,0,1,.27-7.77,44.39,44.39,0,0,1,4.57-9.94l9.36-16.21q4.2-7.28,8.6-10.35a15.53,15.53,0,0,1,10.17-2.72,26.21,26.21,0,0,1,11.59,3.7q7.11,4.11,10.18,9.48a17.16,17.16,0,0,1,2.36,10.91q-.72,5.52-5.38,13.61Zm-11.74-18.83,2.35-4.06c1.66-2.88,2.58-4.82,2.75-5.84a2.1,2.1,0,0,0-1.16-2.34c-1.17-.68-2.1-.74-2.79-.19s-1.94,2.39-3.74,5.51l-2.35,4.06Z"/><path d="M364,217.21l-15.87-9.16,2.15-3.73q3.72-6.44,7.23-9.08t9.53-2.73q6-.09,13.19,4,8.58,4.95,11.18,10.5a13.71,13.71,0,0,1,.93,10.48q-1.66,4.92-9.62,18.69l-16.1,27.88-16.45-9.49,2.86-5a11.92,11.92,0,0,1-13.28.28,16.51,16.51,0,0,1-6.7-7.19q-2.28-4.63,2.59-13.05l2.63-4.56q3.6-6.24,6.88-7.36t12.8.36q10.21,1.53,11.45.75t3.24-4.27q2.52-4.35,2.63-6.05a2.59,2.59,0,0,0-1.39-2.56c-1.15-.66-2.07-.7-2.78-.12s-1.95,2.41-3.74,5.51Zm1,10.71q-5.77.63-7.59,2.27a23,23,0,0,0-4,5.4c-1.66,2.87-2.54,4.84-2.65,5.89a2.55,2.55,0,0,0,1.51,2.55,2.36,2.36,0,0,0,2.64.21q1-.7,3.47-4.89Z"/><path d="M421.21,221.56l-3.35,5.11a15.72,15.72,0,0,1,7.41-2,14.06,14.06,0,0,1,7.11,2q6.78,3.92,7,12.45a17.62,17.62,0,0,1,7.54-1.94,13.23,13.23,0,0,1,6.85,1.86,13.47,13.47,0,0,1,5.93,6.21,10.63,10.63,0,0,1,.66,7.22,49.81,49.81,0,0,1-4.9,10.32l-22.79,39.48-16.41-9.48,20.91-36.21q4.11-7.11,4.6-9.09a2.45,2.45,0,0,0-1.25-3,2.56,2.56,0,0,0-3.3.34q-1.49,1.36-5.62,8.53l-20.91,36.21-16.41-9.48,20.38-35.29q4.71-8.16,5.26-10a2.33,2.33,0,0,0-1.26-2.9,2.92,2.92,0,0,0-2.42-.26,3.86,3.86,0,0,0-2.09,1.59q-.79,1.18-3.11,5.2l-22.24,38.52-16.41-9.48,32.07-55.55Z"/><path class="cls-2" d="M4.06,247.24l27.39,15.81-4.07,7L0,254.28Z"/><path class="cls-2" d="M31,238.87l-5.1,8.85,4.85,2.8a6,6,0,0,0,2.09.91,1,1,0,0,0,.93-.59,1.17,1.17,0,0,0,0-1.37,7.18,7.18,0,0,0-2.1-1.57l-3-1.71,3.74-6.48,1.66,1a16.86,16.86,0,0,1,3,2.11,7.59,7.59,0,0,1,1.68,2.6,6.9,6.9,0,0,1,.49,3.54A11,11,0,0,1,37.79,253,12.31,12.31,0,0,1,35,256.46a6.86,6.86,0,0,1-6.35,1.48,18.12,18.12,0,0,1-4-1.84l-6.54-3.78a13,13,0,0,1-4.19-3.48,6.35,6.35,0,0,1-1.1-4.11,10.65,10.65,0,0,1,1.5-4.68,10.77,10.77,0,0,1,3.83-4.12,7,7,0,0,1,4.41-1,15.77,15.77,0,0,1,5.5,2.17Zm-7.61,4.74-1.64-.94a9.62,9.62,0,0,0-2.35-1.12.86.86,0,0,0-.95.47c-.27.48-.3.85-.08,1.13a10.73,10.73,0,0,0,2.23,1.51l1.64,1Z"/><path class="cls-2" d="M32.86,228.84l-3.7,6.41-1.51-.86A12.52,12.52,0,0,1,24,231.47a6.49,6.49,0,0,1-1.1-3.85,10.55,10.55,0,0,1,1.63-5.33c1.34-2.31,2.75-3.82,4.25-4.52a5.52,5.52,0,0,1,4.23-.38,54.62,54.62,0,0,1,7.55,3.89l11.27,6.51L48,234.43l-2-1.15a4.81,4.81,0,0,1,.11,5.36,6.66,6.66,0,0,1-2.9,2.71q-1.87.92-5.28-1l-1.84-1.06c-1.68-1-2.67-1.9-3-2.78s-.26-2.6.14-5.17c.42-2.75.52-4.29.31-4.63a5.59,5.59,0,0,0-1.73-1.31,7.18,7.18,0,0,0-2.44-1.06,1.05,1.05,0,0,0-1,.56c-.27.47-.28.84,0,1.12a10.8,10.8,0,0,0,2.23,1.52Zm4.33-.38a5.88,5.88,0,0,0,.91,3.06,9,9,0,0,0,2.19,1.61,7.72,7.72,0,0,0,2.38,1.07,1,1,0,0,0,1-.61,1,1,0,0,0,.08-1.07,7.52,7.52,0,0,0-2-1.4Z"/><path class="cls-2" d="M34.76,194.08l27.38,15.81-3.94,6.83-1.63-.94a8.14,8.14,0,0,1,.33,2.95,6.09,6.09,0,0,1-.8,2.56,5.26,5.26,0,0,1-2.43,2.27,4.3,4.3,0,0,1-2.8.38,15.72,15.72,0,0,1-3.78-1.74l-10.5-6.07a16.68,16.68,0,0,1-3.48-2.44,4.25,4.25,0,0,1-1-2.62,5.63,5.63,0,0,1,.81-3.3,6.42,6.42,0,0,1,4.28-3.18l-6.36-3.68ZM41.4,207a4.84,4.84,0,0,0-1.78-.75,1.21,1.21,0,0,0-1,1.63,4.86,4.86,0,0,0,1.58,1.2l11,6.34a5.91,5.91,0,0,0,1.92.84.88.88,0,0,0,.88-.53,1,1,0,0,0,0-1.16A8.58,8.58,0,0,0,51.78,213Z"/><path class="cls-2" d="M61.67,185.71l-5.11,8.85,4.85,2.8a6.29,6.29,0,0,0,2.09.91,1,1,0,0,0,.93-.59,1.19,1.19,0,0,0,0-1.38,7.29,7.29,0,0,0-2.11-1.56l-3-1.71,3.74-6.48,1.66,1a17.06,17.06,0,0,1,3,2.1,7.45,7.45,0,0,1,1.68,2.61,6.79,6.79,0,0,1,.49,3.54,10.82,10.82,0,0,1-1.51,4.08,12.29,12.29,0,0,1-2.83,3.46,7,7,0,0,1-3.2,1.59,7.2,7.2,0,0,1-3.14-.11,17.6,17.6,0,0,1-4-1.85l-6.55-3.78a12.81,12.81,0,0,1-4.18-3.47,6.27,6.27,0,0,1-1.1-4.11A10.55,10.55,0,0,1,45,186.89a10.84,10.84,0,0,1,3.83-4.12,7,7,0,0,1,4.41-1,15.58,15.58,0,0,1,5.5,2.17Zm-7.61,4.74-1.64-.95a9.45,9.45,0,0,0-2.36-1.11.86.86,0,0,0-1,.47c-.27.47-.3.85-.07,1.13a10.25,10.25,0,0,0,2.22,1.51l1.65.95Z"/><path class="cls-2" d="M55.28,169.94l2.8,2c-1.54-2.21-1.83-4.3-.87-6.25l7.9,4.56A6.54,6.54,0,0,0,64,173.27a2.5,2.5,0,0,0,.79,1.9,30.69,30.69,0,0,0,4,2.61l8.87,5.11-4,6.84-22.45-13Z"/><path class="cls-2" d="M73.72,154.56l-3.49,6.05-1.22-.7a7.39,7.39,0,0,0-2.08-1c-.34,0-.65.17-.92.65a1.18,1.18,0,0,0-.12,1.08,2.19,2.19,0,0,0,1,.95,6.93,6.93,0,0,0,1.59.73A2.78,2.78,0,0,0,70,162.1a21.66,21.66,0,0,0,3.38-2,12.4,12.4,0,0,1,5-2.33A7.4,7.4,0,0,1,82.67,159a10.91,10.91,0,0,1,3.72,3.1,5.44,5.44,0,0,1,.78,3.62,11.16,11.16,0,0,1-1.57,4.45,12.84,12.84,0,0,1-3.38,4,5.65,5.65,0,0,1-3.67,1.27,11.18,11.18,0,0,1-4.6-1.73l-1.08-.62,3.5-6.06,1.42.82A8.39,8.39,0,0,0,80.27,169a1,1,0,0,0,1.06-.59,1.38,1.38,0,0,0,.23-1.22A3.16,3.16,0,0,0,80.19,166a4,4,0,0,0-2.23-.79,38.07,38.07,0,0,0-4.69,2.59q-3.43,2-5.19,1.9a8.72,8.72,0,0,1-3.66-1.23,9.7,9.7,0,0,1-3.55-3,5.33,5.33,0,0,1-.58-3.55,11.91,11.91,0,0,1,1.59-4.35,13,13,0,0,1,2.76-3.47,6.91,6.91,0,0,1,2.88-1.54,4.6,4.6,0,0,1,2.31,0,13.88,13.88,0,0,1,2.59,1.25Z"/><path class="cls-2" d="M66.91,138.38l6.16,3.56a7.24,7.24,0,0,1-.12-2.61,6.94,6.94,0,0,1,.86-2.43,5.85,5.85,0,0,1,2.68-2.52,4.23,4.23,0,0,1,3-.33A26.49,26.49,0,0,1,84,136.29l15.47,8.94-3.94,6.83-15.8-9.12a11.08,11.08,0,0,0-2.63-1.26.93.93,0,0,0-1.06.55,1,1,0,0,0,.08,1.17,8.84,8.84,0,0,0,2.16,1.54l16,9.25-4,6.83L63,145.21Z"/><path class="cls-2" d="M77.51,120l3.57,2.06-4.06,7-3.57-2.06Zm4.94,2.85,22.44,13-4.06,7-22.44-13Z"/><path class="cls-2" d="M87.88,113.47l1.91,1.27a7.29,7.29,0,0,1-.63-3,5.81,5.81,0,0,1,.79-2.75,5.18,5.18,0,0,1,2.44-2.25,4.1,4.1,0,0,1,2.81-.31,20,20,0,0,1,4,1.9l9.46,5.46a20.82,20.82,0,0,1,4.14,2.88A4.14,4.14,0,0,1,114,119.3a5.45,5.45,0,0,1-.8,3.16,5.58,5.58,0,0,1-2,2,7.31,7.31,0,0,1-2.9,1l5.14,3-3.94,6.83-25.65-14.8Zm7.65,1.83a12.81,12.81,0,0,0-2.61-1.3c-.35-.07-.66.12-.93.59a.94.94,0,0,0,0,1.16,10.18,10.18,0,0,0,2.34,1.61l9.3,5.37A10.86,10.86,0,0,0,106.3,124a1,1,0,0,0,1-.59.87.87,0,0,0,0-1.09,10.45,10.45,0,0,0-2.17-1.47Z"/><path class="cls-1" d="M591.11,167.34v4a9.8,9.8,0,0,0-2.88.22c-.29.15-.44.58-.44,1.28v.82h3.32v4.1h-1.88V199h-7.89V177.77h-1.62v-4.1h1.62a20.62,20.62,0,0,1,.18-3.42,3,3,0,0,1,.87-1.53,4.52,4.52,0,0,1,1.94-1,15.9,15.9,0,0,1,3.89-.35Z"/><path class="cls-1" d="M610.68,173.05V199h-8l.14-2.15a5.51,5.51,0,0,1-2,2,5.75,5.75,0,0,1-2.77.65,6.16,6.16,0,0,1-2.94-.62,4,4,0,0,1-1.73-1.66,6.09,6.09,0,0,1-.7-2.16c-.09-.75-.13-2.24-.13-4.46V173.05h7.89v17.63a19,19,0,0,0,.18,3.6c.13.37.46.56,1,.56s.93-.19,1-.58a22.36,22.36,0,0,0,.17-3.77V173.05Z"/><path class="cls-1" d="M621.54,173.05l-.14,2.38a6.07,6.07,0,0,1,2.1-2.14,5.7,5.7,0,0,1,2.86-.71,5.46,5.46,0,0,1,3.32.95,4.24,4.24,0,0,1,1.66,2.42,21.69,21.69,0,0,1,.38,4.85V199h-7.9V181a16.72,16.72,0,0,0-.17-3.27c-.12-.39-.44-.58-1-.58a1,1,0,0,0-1,.67,16.31,16.31,0,0,0-.22,3.6V199h-7.89V173.05Z"/><path class="cls-3" d="M173.68,143.38l-8.75,5.05,2.63,4.57-8.79,5.07-2.64-4.56-29.72,17.16c-3.66,2.11-5.58,3.48-5.78,4.09s.49,2.31,2.09,5.08l-9,5.17-3.94-6.82a56.21,56.21,0,0,1-4.28-8.53,10.16,10.16,0,0,1-.3-5.63,8.49,8.49,0,0,1,2.63-4.64q2-1.75,10.26-6.54l28.22-16.29-2.11-3.65,8.79-5.07,2.11,3.64,8.75-5Z"/><path class="cls-3" d="M164.41,210.86,151.77,189l-12,6.93c-2.51,1.45-4,2.57-4.54,3.35a2.43,2.43,0,0,0,.12,2.72,2.94,2.94,0,0,0,2.93,1.74q1.81-.18,6-2.58l7.33-4.23,9.26,16-4.11,2.37a42.45,42.45,0,0,1-8.28,3.92,18.69,18.69,0,0,1-7.66.37,17,17,0,0,1-8.2-3.33,27.1,27.1,0,0,1-6.88-8.28,31,31,0,0,1-3.91-10.36,17.48,17.48,0,0,1,.56-8.84,17.93,17.93,0,0,1,4.12-6.59,45,45,0,0,1,8.94-6.33l16.2-9.35q7.28-4.22,12.62-4.67a15.59,15.59,0,0,1,10.17,2.72,26.3,26.3,0,0,1,8.19,9q4.11,7.11,4.08,13.3a17.17,17.17,0,0,1-3.41,10.62q-3.39,4.44-11.47,9.11Zm-.75-22.18,4.06-2.34a23.71,23.71,0,0,0,5.3-3.68,2.09,2.09,0,0,0,.17-2.6c-.68-1.18-1.45-1.7-2.32-1.57s-2.88,1.11-6,2.91l-4.06,2.34Z"/><path class="cls-3" d="M183.56,227.32l-9.16-15.87,3.73-2.15q6.45-3.72,10.8-4.25t9.62,2.4q5.26,2.93,9.4,10.09,5,8.58,4.43,14.69a13.63,13.63,0,0,1-4.43,9.53q-3.91,3.44-17.68,11.38l-27.88,16.1-9.5-16.45,5-2.86a11.92,11.92,0,0,1-11.64-6.4A16.59,16.59,0,0,1,144,234q.36-5.14,8.77-10l4.56-2.64q6.24-3.6,9.64-2.94t10.9,6.71q8.08,6.45,9.55,6.38c1,0,2.62-.73,4.94-2.07q4.35-2.52,5.3-3.93a2.56,2.56,0,0,0,.07-2.91q-1-1.73-2.34-1.5t-6,2.91ZM179,237.07c-3.55-1.56-6.11-2.17-7.7-1.83a22.81,22.81,0,0,0-6.15,2.69q-4.32,2.49-5.25,3.78a2.57,2.57,0,0,0,0,3,2.41,2.41,0,0,0,2.18,1.51q1.26-.09,5.45-2.51Z"/><path class="cls-3" d="M230.94,259.69l-5.45,2.76a15.7,15.7,0,0,1,7.42,2,13.94,13.94,0,0,1,5.15,5.29q3.91,6.78-.12,14.31a17.4,17.4,0,0,1,7.49,2.09,13.37,13.37,0,0,1,5,5,13.54,13.54,0,0,1,2,8.35,10.64,10.64,0,0,1-3,6.58q-2.58,2.55-9.4,6.49l-39.48,22.79-9.47-16.41L227.29,298q7.11-4.11,8.53-5.57a2.44,2.44,0,0,0,.41-3.21,2.56,2.56,0,0,0-3-1.36q-2,.44-9.13,4.58l-36.22,20.9L178.39,297l35.29-20.37c5.44-3.15,8.63-5.16,9.57-6.06a2.33,2.33,0,0,0,.36-3.14,2.94,2.94,0,0,0-2-1.43,3.82,3.82,0,0,0-2.6.33c-.86.42-2.62,1.4-5.3,3l-38.52,22.24-9.47-16.41L221.3,243Z"/><path class="cls-3" d="M291,363.76l-59.45,25.32L221,370.73q9.32-7.38,24.81-19-7.72,3.54-15.87,6.63l-13.13,5.1-10.62-18.4,51.41-39.24L266,320.4q-2.07,1.43-29.68,22.06,3.21-1.47,34-14.57l8.09,14-29.84,21.79a336.4,336.4,0,0,1,34.05-14.49Z"/><path class="cls-3" d="M295.19,416l-13.61,7.85a65.78,65.78,0,0,1-11.43,5.59,17.69,17.69,0,0,1-8.39.55,16.79,16.79,0,0,1-8.14-3.76,29.17,29.17,0,0,1-6.58-8.06A36.74,36.74,0,0,1,242.79,408a14.91,14.91,0,0,1,.23-8.2,17,17,0,0,1,4.25-6.56,52.4,52.4,0,0,1,10.08-7l14.24-8.22q7.74-4.47,13.06-5.31a16.13,16.13,0,0,1,10.48,2q5.14,2.83,9.06,9.62A29.35,29.35,0,0,1,308.14,395a17.71,17.71,0,0,1-4.64,15.13A40.41,40.41,0,0,1,295.19,416Zm-5.58-19.33c2.84-1.65,4.55-2.83,5.11-3.57a2.2,2.2,0,0,0,0-2.61,2.27,2.27,0,0,0-2.27-1.36c-.93.09-2.82.95-5.67,2.6l-25.07,14.48c-2.63,1.51-4.24,2.67-4.84,3.46a2.24,2.24,0,0,0-.06,2.66A2.27,2.27,0,0,0,259,413.7a16.39,16.39,0,0,0,5-2.23Z"/><path class="cls-3" d="M327.67,427.23,320,430.77q10-.84,14.47,5.88L314.9,447.94q-2.68-4.65-5.19-6.1a6.07,6.07,0,0,0-5-.66q-2.54.79-10.61,5.45L272.12,459.3l-9.77-16.91,55.56-32.08Z"/><path class="cls-3" d="M356.65,477.42l-26.09,5.91-28.28,28.21-9.39-16.26L314.06,476l-24.22,14-9.77-16.91,67.78-39.13,9.76,16.91L329.17,467.3l19.28-4.09Z"/><path class="cls-3" d="M357,323.64l-6,3.49-.71-1.22a7.38,7.38,0,0,0-1.31-1.86c-.28-.21-.66-.18-1.13.09a1.18,1.18,0,0,0-.64.88,2.16,2.16,0,0,0,.37,1.31,6.58,6.58,0,0,0,1,1.43,2.75,2.75,0,0,0,1.47.56,21.06,21.06,0,0,0,3.92,0,12.67,12.67,0,0,1,5.49.48,7.38,7.38,0,0,1,3.09,3.21,10.82,10.82,0,0,1,1.67,4.54,5.4,5.4,0,0,1-1.13,3.52,11.12,11.12,0,0,1-3.58,3.07,12.84,12.84,0,0,1-4.93,1.77,5.69,5.69,0,0,1-3.82-.73,11.41,11.41,0,0,1-3.11-3.8l-.63-1.08,6.06-3.5.82,1.42a8.35,8.35,0,0,0,1.59,2.22,1,1,0,0,0,1.21,0,1.39,1.39,0,0,0,.81-.95,3.13,3.13,0,0,0-.6-1.69c-.62-1.08-1.13-1.67-1.53-1.8a36.29,36.29,0,0,0-5.36-.11c-2.66,0-4.48-.28-5.45-.95A8.66,8.66,0,0,1,342,331a9.86,9.86,0,0,1-1.58-4.38,5.37,5.37,0,0,1,1.28-3.36,11.79,11.79,0,0,1,3.55-3,12.75,12.75,0,0,1,4.12-1.63,6.78,6.78,0,0,1,3.27.11,4.75,4.75,0,0,1,2,1.14,14.91,14.91,0,0,1,1.61,2.38Z"/><path class="cls-3" d="M370,306.61l2.39,10.54,11.4,11.43-6.57,3.79-7.78-8.55,5.63,9.79-6.83,3.94-15.81-27.38,6.83-3.95,6.65,11.49-1.65-7.78Z"/><path class="cls-3" d="M376,296.54l2.06,3.57-7,4.07-2.06-3.57Zm2.85,4.94,13,22.45-7,4.06-13-22.44Z"/><path class="cls-3" d="M385.47,291.07l15.81,27.38-7,4.06-15.81-27.38Z"/><path class="cls-3" d="M395,285.59,410.77,313l-7,4.06-15.81-27.38Z"/><path class="cls-3" d="M371.46,107.82l-15-8.65,1.74-3A19,19,0,0,0,360.59,91c.1-.86-.44-1.62-1.61-2.3a2.9,2.9,0,0,0-2.68-.29A5.33,5.33,0,0,0,354,90.85a16.76,16.76,0,0,0-1.81,4,6.94,6.94,0,0,0,.62,3.85,53.87,53.87,0,0,0,4.92,8.36q5.28,7.86,5.75,12.36t-3,10.59q-3.91,6.78-7.66,9.22a13.59,13.59,0,0,1-9,1.92,27.84,27.84,0,0,1-11-3.88,31.59,31.59,0,0,1-9.87-8.38q-3.43-4.65-3.16-9.08T324,108.4l1.55-2.68,15,8.65-2,3.52c-1.73,3-2.66,5-2.8,6.14a2.54,2.54,0,0,0,1.47,2.64,3.53,3.53,0,0,0,3,.55q1.23-.5,2.9-3.38,2.29-4,2-5.51t-6.41-11.63q-5-8.49-4.7-12.84a21.55,21.55,0,0,1,3-9q3.84-6.65,7.42-8.8a13.16,13.16,0,0,1,8.78-1.43A29.49,29.49,0,0,1,364,78.51a31.84,31.84,0,0,1,8.59,6.83,16.71,16.71,0,0,1,3.81,7.13,11.47,11.47,0,0,1,0,5.72,35.51,35.51,0,0,1-3.11,6.41Z"/><path class="cls-3" d="M426.25,115.79l-32.08,55.55L377,161.41l3-4.45a13.64,13.64,0,0,1-6.77,1.72,14.14,14.14,0,0,1-6.74-2,15.32,15.32,0,0,1-5.54-5,10,10,0,0,1-1.65-5.69,14.91,14.91,0,0,1,1.18-5.49q1.09-2.58,5.23-9.73l21.63-37.47,16.92,9.76-21.83,37.81c-2.5,4.32-3.85,7-4.05,7.93s.28,1.78,1.46,2.46,2.24.73,3,0,2.39-3.32,5-7.87L409.33,106Z"/><path class="cls-3" d="M457.59,161.85l-15.95-9.21,3.7-6.4a14.53,14.53,0,0,0,2.08-4.86A2.32,2.32,0,0,0,446.1,139a2.27,2.27,0,0,0-2.57-.09q-1.11.75-3.21,4.4l-15.13,26.2a11.79,11.79,0,0,0-1.82,4.9,2.76,2.76,0,0,0,1.36,2.77,2.63,2.63,0,0,0,3.21-.21,21.63,21.63,0,0,0,4-5.51l3.81-6.62,15.07,8.7a100.84,100.84,0,0,1-6.24,9.71,18.52,18.52,0,0,1-6.75,5.21,17.19,17.19,0,0,1-9.22,1.7,25.74,25.74,0,0,1-10.44-3.65q-7.16-4.14-9.93-9a15.54,15.54,0,0,1-2-10.29q.81-5.42,5.5-13.54l9.11-15.78q4.08-7.08,7.59-9.86t9.78-2.92a24.74,24.74,0,0,1,12.93,3.7,25.08,25.08,0,0,1,9.69,9.33A16,16,0,0,1,463,148.86Q462.12,154,457.59,161.85Z"/><path class="cls-3" d="M500,186.34l-15.95-9.21,3.7-6.41a14.59,14.59,0,0,0,2.08-4.85,2.35,2.35,0,0,0-1.32-2.36,2.3,2.3,0,0,0-2.58-.09c-.73.51-1.8,2-3.2,4.4L467.59,194a11.85,11.85,0,0,0-1.82,4.89,2.77,2.77,0,0,0,1.36,2.77,2.64,2.64,0,0,0,3.22-.21c1-.8,2.33-2.63,4-5.51l3.82-6.61,15.07,8.7a102.15,102.15,0,0,1-6.24,9.71,18.67,18.67,0,0,1-6.75,5.2,17.29,17.29,0,0,1-9.22,1.71A25.57,25.57,0,0,1,460.58,211q-7.17-4.12-9.93-9a15.58,15.58,0,0,1-2-10.29q.82-5.41,5.51-13.54l9.11-15.78q4.08-7.07,7.59-9.85t9.77-2.92a24.57,24.57,0,0,1,12.94,3.7,24.84,24.84,0,0,1,9.68,9.33,15.86,15.86,0,0,1,2.16,10.67Q504.51,178.52,500,186.34Z"/><path class="cls-3" d="M538.83,219.14,516.94,206.5l-6.94,12c-1.45,2.51-2.2,4.24-2.26,5.17a2.45,2.45,0,0,0,1.47,2.3,2.94,2.94,0,0,0,3.41,0c1-.71,2.28-2.45,3.87-5.21l4.23-7.33,16,9.26-2.36,4.1a43.23,43.23,0,0,1-5.22,7.54,18.72,18.72,0,0,1-6.44,4.15,17.17,17.17,0,0,1-8.77,1.22,27.15,27.15,0,0,1-10.1-3.74,30.67,30.67,0,0,1-8.56-7,16.9,16.9,0,0,1-3.66-15.7,43.77,43.77,0,0,1,4.57-10l9.35-16.2q4.2-7.29,8.6-10.36a15.59,15.59,0,0,1,10.17-2.72,26.21,26.21,0,0,1,11.59,3.7q7.13,4.11,10.19,9.48a17.15,17.15,0,0,1,2.35,10.91q-.71,5.53-5.37,13.61ZM527.1,200.31l2.34-4.06a23.87,23.87,0,0,0,2.76-5.84,2.11,2.11,0,0,0-1.16-2.34c-1.17-.68-2.1-.74-2.79-.19s-1.94,2.39-3.75,5.51l-2.34,4.07Z"/><path class="cls-3" d="M585.25,231.26l-15-8.65,1.74-3q2.22-3.85,2.37-5.13c.1-.85-.43-1.62-1.6-2.29a2.87,2.87,0,0,0-2.68-.29,5.33,5.33,0,0,0-2.34,2.41,16.15,16.15,0,0,0-1.81,4,6.83,6.83,0,0,0,.62,3.85,54.35,54.35,0,0,0,4.91,8.37q5.29,7.84,5.76,12.36t-3,10.58q-3.91,6.78-7.67,9.22a13.43,13.43,0,0,1-8.95,1.92,27.85,27.85,0,0,1-11-3.87,31.84,31.84,0,0,1-9.87-8.38q-3.42-4.66-3.16-9.08t4.28-11.38l1.55-2.68,15,8.66-2,3.51q-2.58,4.49-2.79,6.15A2.52,2.52,0,0,0,551,250.1a3.47,3.47,0,0,0,3,.55q1.23-.48,2.9-3.38,2.3-4,2-5.51t-6.4-11.62q-5-8.49-4.7-12.85a21.49,21.49,0,0,1,3-9q3.86-6.66,7.43-8.8A13.16,13.16,0,0,1,567,198a29.71,29.71,0,0,1,10.77,3.92,32.39,32.39,0,0,1,8.59,6.83,16.66,16.66,0,0,1,3.8,7.14,11.49,11.49,0,0,1,.05,5.72,35.71,35.71,0,0,1-3.12,6.41Z"/><path class="cls-3" d="M625.61,254.56l-15-8.65,1.74-3c1.49-2.56,2.28-4.28,2.38-5.13s-.43-1.62-1.61-2.29a2.87,2.87,0,0,0-2.68-.29,5.43,5.43,0,0,0-2.34,2.41,16.43,16.43,0,0,0-1.8,3.95,6.74,6.74,0,0,0,.62,3.85,53.5,53.5,0,0,0,4.91,8.37q5.29,7.85,5.76,12.36t-3,10.58q-3.91,6.78-7.67,9.22a13.45,13.45,0,0,1-8.95,1.92,27.8,27.8,0,0,1-11-3.87,31.72,31.72,0,0,1-9.87-8.38q-3.42-4.66-3.16-9.08t4.28-11.38l1.55-2.68,15,8.66-2,3.51q-2.58,4.49-2.79,6.15a2.53,2.53,0,0,0,1.46,2.63,3.48,3.48,0,0,0,3,.55q1.23-.48,2.89-3.38,2.31-4,2-5.51t-6.41-11.62q-5-8.49-4.69-12.85a21.49,21.49,0,0,1,3-9q3.84-6.66,7.43-8.8a13.2,13.2,0,0,1,8.78-1.44,29.88,29.88,0,0,1,10.76,3.93,32.07,32.07,0,0,1,8.59,6.83,16.8,16.8,0,0,1,3.81,7.14,11.47,11.47,0,0,1,0,5.72,35.51,35.51,0,0,1-3.11,6.41Z"/><path class="cls-3" d="M460.3,452.94l-13.38,7.72-3.1-5.37a12.06,12.06,0,0,0-2.65-3.55,2,2,0,0,0-2.27,0,1.94,1.94,0,0,0-1.14,1.83,13.23,13.23,0,0,0,1.85,4.18l12.69,22a9.82,9.82,0,0,0,2.79,3.37,2.29,2.29,0,0,0,2.58.17,2.2,2.2,0,0,0,1.19-2.42,18,18,0,0,0-2.32-5.21l-3.21-5.54,12.64-7.3a85.57,85.57,0,0,1,4.43,8.61,15.5,15.5,0,0,1,1,7.07,14.55,14.55,0,0,1-2.62,7.42,21.66,21.66,0,0,1-7,6.05q-6,3.46-10.7,3.44a13.12,13.12,0,0,1-8.29-2.89q-3.58-2.86-7.52-9.67l-7.64-13.24q-3.42-5.93-4-9.63c-.37-2.48.29-5.25,2-8.33a20.73,20.73,0,0,1,8.11-7.84,21,21,0,0,1,10.84-3.12,13.33,13.33,0,0,1,8.65,2.91Q456.5,446.38,460.3,452.94Z"/><path class="cls-3" d="M495.88,430.75l6.58,11.41a55.69,55.69,0,0,1,4.69,9.58,14.89,14.89,0,0,1,.46,7,14.07,14.07,0,0,1-3.15,6.83,24.48,24.48,0,0,1-6.76,5.52,30.91,30.91,0,0,1-8.56,3.56,12.48,12.48,0,0,1-6.88-.2,14.19,14.19,0,0,1-5.5-3.56,44.6,44.6,0,0,1-5.91-8.45L464,450.54q-3.73-6.5-4.45-11a13.48,13.48,0,0,1,1.67-8.78,20.53,20.53,0,0,1,8.06-7.6,24.57,24.57,0,0,1,9-3.31,14.8,14.8,0,0,1,12.68,3.89A34.16,34.16,0,0,1,495.88,430.75Zm-16.21,4.68a17.72,17.72,0,0,0-3-4.29,1.84,1.84,0,0,0-2.19,0,1.9,1.9,0,0,0-1.14,1.9c.07.78.8,2.37,2.18,4.75l12.14,21a15.47,15.47,0,0,0,2.9,4,1.87,1.87,0,0,0,2.23.05,1.89,1.89,0,0,0,1.14-1.88,13.78,13.78,0,0,0-1.87-4.16Z"/><path class="cls-3" d="M505.53,403.38l2.23,4.43a12.26,12.26,0,0,1,1.55-6,11.69,11.69,0,0,1,4.4-4.25,11.25,11.25,0,0,1,7-1.73,8.84,8.84,0,0,1,5.48,2.61,45.44,45.44,0,0,1,5.71,8.34l18.84,32.64-14.18,8.19L517.9,415.32a34.29,34.29,0,0,0-3.7-5.67,1.82,1.82,0,0,0-2.36,0,2,2,0,0,0-1.2,2.31q.32,1.44,3.35,6.7l18.18,31.48L518,458.28,491.1,411.7Z"/><path class="cls-3" d="M540.85,369.32l4.15,7.19q-4.38,2.53-4.94,3.39t.54,2.76l.85,1.47,6-3.44,4.25,7.37L548.3,390l22,38.09-14.18,8.18-22-38.08-2.91,1.68L527,392.5l2.92-1.68a42.87,42.87,0,0,1-3.23-6.32,6,6,0,0,1,0-3.66A9.19,9.19,0,0,1,529,377a32,32,0,0,1,6.62-4.66Z"/><path class="cls-3" d="M558.15,359.33l4.28,7.4-14.6,8.43-4.28-7.4Zm5.92,10.25L591,416.15l-14.6,8.43L549.47,378Z"/><path class="cls-3" d="M595.5,337.77l32.8,56.82-14.17,8.19-2-3.38a16.74,16.74,0,0,1-2.45,5.63,12.73,12.73,0,0,1-4.09,3.78,11,11,0,0,1-6.73,1.56,8.92,8.92,0,0,1-5.42-2.22,33.07,33.07,0,0,1-5-7l-12.58-21.8a33.61,33.61,0,0,1-3.71-8,8.73,8.73,0,0,1,.86-5.76,11.63,11.63,0,0,1,4.88-5.09,13.4,13.4,0,0,1,11-1.28L581.32,346ZM594,367.92a10.12,10.12,0,0,0-2.42-3.18,2,2,0,0,0-2.25.12,2.05,2.05,0,0,0-1.24,1.78,10.1,10.1,0,0,0,1.6,3.78l13.17,22.81a11.92,11.92,0,0,0,2.58,3.49,1.85,1.85,0,0,0,2.13,0,2.07,2.07,0,0,0,1.24-2.06q-.12-1.26-2.36-5.16Z"/><path class="cls-3" d="M652.54,350.65l-18.36,10.6L640,371.32a12.93,12.93,0,0,0,2.81,3.81,2,2,0,0,0,2.28-.1,2.49,2.49,0,0,0,1.46-2.46,15.52,15.52,0,0,0-2.16-5l-3.55-6.14,13.44-7.76,2,3.43a35.8,35.8,0,0,1,3.28,6.95,15.59,15.59,0,0,1,.32,6.42,14.31,14.31,0,0,1-2.8,6.88,22.56,22.56,0,0,1-6.94,5.76,25.83,25.83,0,0,1-8.68,3.28,14.25,14.25,0,0,1-12.94-3.92,37.24,37.24,0,0,1-5.3-7.49l-7.85-13.59q-3.52-6.11-3.91-10.58a13.08,13.08,0,0,1,2.28-8.53A25.1,25.1,0,0,1,632.44,332a14.4,14.4,0,0,1,8.9,2.86q3.72,2.83,7.63,9.61Zm-18.59.62-2-3.4a20.11,20.11,0,0,0-3.08-4.45,1.77,1.77,0,0,0-2.19-.14c-1,.57-1.42,1.22-1.31,2a22.22,22.22,0,0,0,2.44,5l2,3.4Z"/><path class="cls-3" d="M657.68,315.53l2.23,4.43a12.25,12.25,0,0,1,1.55-6,11.62,11.62,0,0,1,4.4-4.25,11.19,11.19,0,0,1,7-1.73,8.84,8.84,0,0,1,5.48,2.61,46,46,0,0,1,5.71,8.34l18.84,32.64-14.18,8.19-18.62-32.26a34.1,34.1,0,0,0-3.7-5.68,1.84,1.84,0,0,0-2.36,0,2,2,0,0,0-1.2,2.31c.21.95,1.33,3.19,3.35,6.7l18.18,31.48-14.18,8.19-26.89-46.58Z"/><path class="cls-3" d="M722.33,301.65,709,309.37l-3.1-5.37a12.06,12.06,0,0,0-2.65-3.55,2,2,0,0,0-2.26,0,1.92,1.92,0,0,0-1.15,1.84,13.3,13.3,0,0,0,1.85,4.17l12.68,22a10,10,0,0,0,2.8,3.37,2.29,2.29,0,0,0,2.58.17,2.21,2.21,0,0,0,1.19-2.42,17.84,17.84,0,0,0-2.33-5.21l-3.2-5.54,12.64-7.3a86.67,86.67,0,0,1,4.43,8.61,15.52,15.52,0,0,1,.95,7.08,14.55,14.55,0,0,1-2.62,7.41,21.55,21.55,0,0,1-7,6.05q-6,3.47-10.7,3.44a13.07,13.07,0,0,1-8.29-2.89q-3.59-2.87-7.52-9.67l-7.64-13.23q-3.42-5.94-4-9.64t2-8.33a20.73,20.73,0,0,1,8.11-7.84,21,21,0,0,1,10.84-3.12,13.38,13.38,0,0,1,8.65,2.91Q718.54,295.08,722.33,301.65Z"/><path class="cls-3" d="M762.43,287.2l-18.36,10.6,5.82,10.07a12.81,12.81,0,0,0,2.81,3.81,2,2,0,0,0,2.28-.1,2.47,2.47,0,0,0,1.46-2.46,15.71,15.71,0,0,0-2.16-5L750.73,298l13.44-7.76,2,3.44a35.53,35.53,0,0,1,3.28,6.95,15.53,15.53,0,0,1,.32,6.41A14.3,14.3,0,0,1,767,313.9a22.89,22.89,0,0,1-7,5.77,25.83,25.83,0,0,1-8.68,3.28,14.57,14.57,0,0,1-7.41-.48A14.81,14.81,0,0,1,738.4,319a37.24,37.24,0,0,1-5.3-7.49L725.25,298q-3.53-6.1-3.91-10.59a13,13,0,0,1,2.29-8.52,21.94,21.94,0,0,1,7.55-6.87,22.39,22.39,0,0,1,11.15-3.42,14.4,14.4,0,0,1,8.9,2.86q3.72,2.85,7.63,9.61Zm-18.59.63-2-3.41a19.7,19.7,0,0,0-3.08-4.44,1.75,1.75,0,0,0-2.19-.14c-1,.56-1.41,1.21-1.3,1.94a21.35,21.35,0,0,0,2.43,5l2,3.41Z"/><path class="cls-1" d="M521.2,133.34V165h-8.13V133.34Z"/><path class="cls-1" d="M541.88,148.15v6.35a27.05,27.05,0,0,1-.35,5.12,7.21,7.21,0,0,1-1.5,3,6.87,6.87,0,0,1-3,2.09,11.85,11.85,0,0,1-4.15.67,15,15,0,0,1-4.44-.57,6.12,6.12,0,0,1-2.82-1.74,6.81,6.81,0,0,1-1.43-2.81,21,21,0,0,1-.43-5v-6.64a16.26,16.26,0,0,1,.78-5.64,6.47,6.47,0,0,1,2.81-3.26,9.9,9.9,0,0,1,5.19-1.23,11.87,11.87,0,0,1,4.57.79,7.18,7.18,0,0,1,4.35,4.68A16.38,16.38,0,0,1,541.88,148.15Zm-7.89-2a8.73,8.73,0,0,0-.21-2.5.89.89,0,0,0-.92-.52.93.93,0,0,0-.94.52,7.79,7.79,0,0,0-.23,2.5v11.7a7.53,7.53,0,0,0,.23,2.4.9.9,0,0,0,.92.55.92.92,0,0,0,.93-.5,6.68,6.68,0,0,0,.22-2.19Z"/><path class="cls-1" d="M560.81,139.05,557.12,165H546.8l-4-25.91h7L552.11,158q.25-2.08.89-10.17.33-4.52.76-8.75Z"/><path class="cls-1" d="M579.83,152.46H569.62v5.61a6.28,6.28,0,0,0,.25,2.27,1,1,0,0,0,1,.5,1.19,1.19,0,0,0,1.2-.67,7.45,7.45,0,0,0,.3-2.61v-3.42h7.48v1.92a17.29,17.29,0,0,1-.3,3.69,7.47,7.47,0,0,1-1.42,2.75,6.86,6.86,0,0,1-2.82,2.2,10.91,10.91,0,0,1-4.29.73,12.47,12.47,0,0,1-4.41-.72,7,7,0,0,1-3-2,7.12,7.12,0,0,1-1.47-2.78,17.49,17.49,0,0,1-.41-4.4V148a12.93,12.93,0,0,1,.91-5.36,6.33,6.33,0,0,1,3-3,12.09,12.09,0,0,1,10.28.22,6.92,6.92,0,0,1,3,3.34,15.6,15.6,0,0,1,.87,5.85Zm-7.91-4.21v-1.9a9.79,9.79,0,0,0-.21-2.6.85.85,0,0,0-.88-.58c-.55,0-.89.16-1,.5a10.41,10.41,0,0,0-.19,2.68v1.9Z"/><path d="M391.32,359.54l67.78,39.13-10.05,17.42L381.27,377Z"/><path d="M404.88,336.05l8.84,5.1-10.06,17.42-8.83-5.1Zm12.23,7.06,55.55,32.08L462.61,392.6l-55.56-32.07Z"/><path d="M440.82,302l51,40L479,364.13l-60.46-23.57,8.72-15.11,43.32,18.66q-4.15-3.14-20.71-14.49-9.26-6.3-17.81-12.47Z"/><path d="M493.12,277.87l-12.64,21.9,12,6.93c2.51,1.45,4.24,2.21,5.17,2.26a2.43,2.43,0,0,0,2.3-1.46,2.92,2.92,0,0,0,0-3.41q-1.06-1.48-5.21-3.88L487.46,296l9.26-16,4.1,2.37a41.79,41.79,0,0,1,7.54,5.22,18.48,18.48,0,0,1,4.15,6.44,17,17,0,0,1,1.22,8.77A27.11,27.11,0,0,1,510,312.84a30.72,30.72,0,0,1-7,8.57,17.43,17.43,0,0,1-7.93,3.93,17.8,17.8,0,0,1-7.77-.27,44.42,44.42,0,0,1-9.95-4.57l-16.2-9.36q-7.29-4.2-10.36-8.6a15.65,15.65,0,0,1-2.72-10.17,26.25,26.25,0,0,1,3.7-11.59q4.11-7.11,9.48-10.18a17.16,17.16,0,0,1,10.91-2.36q5.53.72,13.61,5.38Zm-18.83,11.74-4.06-2.35q-4.32-2.49-5.83-2.75a2.1,2.1,0,0,0-2.35,1.16c-.68,1.17-.74,2.1-.19,2.79s2.39,1.94,5.52,3.74l4.06,2.35Z"/><path class="cls-1" d="M248.12,207.71l-2.05,1a7.29,7.29,0,0,1,3,1,5.76,5.76,0,0,1,2,2.06,5.17,5.17,0,0,1,.73,3.24,4.15,4.15,0,0,1-1.13,2.59,20.08,20.08,0,0,1-3.63,2.47l-9.45,5.46a20.36,20.36,0,0,1-4.57,2.15,4.12,4.12,0,0,1-2.92-.3,5.42,5.42,0,0,1-2.34-2.27,5.6,5.6,0,0,1-.76-2.69,7.34,7.34,0,0,1,.62-3l-5.15,3-3.94-6.84,25.64-14.8Zm-5.4,5.71a13.36,13.36,0,0,0,2.43-1.6c.23-.27.22-.64-.05-1.1a1,1,0,0,0-1-.58,10.11,10.11,0,0,0-2.56,1.22l-9.31,5.37a10.64,10.64,0,0,0-2.42,1.67,1,1,0,0,0,0,1.17c.26.44.57.62.94.55a10.46,10.46,0,0,0,2.35-1.14Z"/><path class="cls-1" d="M255.53,238.75,250,241.92a26.43,26.43,0,0,1-4.62,2.26,7.12,7.12,0,0,1-3.39.22,6.76,6.76,0,0,1-3.29-1.52,11.72,11.72,0,0,1-2.66-3.25,15.12,15.12,0,0,1-1.72-4.13,6,6,0,0,1,.1-3.31,6.74,6.74,0,0,1,1.72-2.65,20.88,20.88,0,0,1,4.07-2.85l5.75-3.32a16.3,16.3,0,0,1,5.28-2.15,6.55,6.55,0,0,1,4.23.81,9.86,9.86,0,0,1,3.66,3.88,11.79,11.79,0,0,1,1.6,4.35,7.22,7.22,0,0,1-1.87,6.11A16.68,16.68,0,0,1,255.53,238.75Zm-2.25-7.81a9.15,9.15,0,0,0,2.07-1.44.91.91,0,0,0,0-1.06.93.93,0,0,0-.92-.55,8.06,8.06,0,0,0-2.29,1.05L242,234.79a7.54,7.54,0,0,0-2,1.4.91.91,0,0,0,0,1.08.9.9,0,0,0,.9.54,6.62,6.62,0,0,0,2-.9Z"/><path class="cls-1" d="M265.6,254.54l-3.5-6,1.22-.71a7.24,7.24,0,0,0,1.87-1.31c.21-.28.17-.66-.1-1.13a1.15,1.15,0,0,0-.88-.64,2.13,2.13,0,0,0-1.3.37,7,7,0,0,0-1.44,1,2.75,2.75,0,0,0-.55,1.47,21.7,21.7,0,0,0,0,3.92,12.37,12.37,0,0,1-.48,5.49,7.4,7.4,0,0,1-3.2,3.09,10.86,10.86,0,0,1-4.55,1.67,5.43,5.43,0,0,1-3.52-1.13,11.37,11.37,0,0,1-3.07-3.58,12.81,12.81,0,0,1-1.76-4.93,5.63,5.63,0,0,1,.73-3.82,11.35,11.35,0,0,1,3.79-3.11l1.09-.63,3.49,6.06-1.42.82a8.54,8.54,0,0,0-2.22,1.59,1,1,0,0,0,0,1.21,1.41,1.41,0,0,0,.95.81,3.16,3.16,0,0,0,1.7-.6q1.61-.93,1.8-1.53a37.21,37.21,0,0,0,.1-5.37c0-2.65.29-4.47,1-5.44a8.66,8.66,0,0,1,2.89-2.55,9.87,9.87,0,0,1,4.37-1.58,5.38,5.38,0,0,1,3.37,1.28,12.17,12.17,0,0,1,3,3.54,13.12,13.12,0,0,1,1.63,4.13,6.91,6.91,0,0,1-.11,3.27,4.75,4.75,0,0,1-1.14,2,15.11,15.11,0,0,1-2.39,1.61Z"/><path class="cls-1" d="M278.19,259.79l-22.44,13-4.07-7,22.45-13Zm4.94-2.85L279.56,259l-4.06-7,3.57-2.06Z"/><path class="cls-1" d="M286.76,267.72l-3.53,2,1.06,1.84-3.55,2-1.07-1.84-12,6.93a7.52,7.52,0,0,0-2.34,1.66c-.08.25.2.93.84,2.05l-3.62,2.09L261,281.78a23.39,23.39,0,0,1-1.73-3.44,4.2,4.2,0,0,1-.12-2.28,3.45,3.45,0,0,1,1.06-1.87,32,32,0,0,1,4.15-2.65l11.4-6.58-.85-1.47,3.55-2.05.85,1.47,3.54-2Z"/><path class="cls-1" d="M289.76,279.83l-22.44,13-4.06-7,22.44-13ZM294.7,277,291.13,279l-4.06-7,3.57-2.07Z"/><path class="cls-1" d="M299.34,296.43l-24.29,9.76-5.15-8.93,20.46-16.4,3.52,6.11L278.6,298.35q1.95-.81,9.26-4.31c2.71-1.31,5.37-2.55,8-3.72Z"/><path class="cls-1" d="M304,304.46l-22.44,13-4.07-7,22.45-13Zm4.94-2.85-3.57,2.06-4.06-7,3.57-2.06Z"/><path class="cls-1" d="M312.55,312.39l-3.53,2,1.06,1.84-3.55,2.06-1.06-1.85-12,6.94a7.4,7.4,0,0,0-2.34,1.65c-.08.25.2.93.84,2.05l-3.62,2.09-1.59-2.76A22.9,22.9,0,0,1,285,323a4.2,4.2,0,0,1-.12-2.28,3.45,3.45,0,0,1,1.06-1.87,32,32,0,0,1,4.15-2.65l11.4-6.58-.85-1.47,3.55-2.05.85,1.47,3.54-2Z"/><path class="cls-1" d="M320.15,332.47l-17.36,7.42c-2.75,1.17-4.66,1.93-5.71,2.26a6.59,6.59,0,0,1-2.92.3,4.86,4.86,0,0,1-2.51-1.25,16.13,16.13,0,0,1-2.82-3.88l-2.39-4.15L290,331.1a8.81,8.81,0,0,0,1.35,2,.78.78,0,0,0,1,0,27,27,0,0,0,2.11-1.78l16.61-14.58,3.58,6.2-13.86,11,15.79-7.66Z"/><path class="cls-2" d="M183.48,114.18l2,3.46a9.54,9.54,0,0,0-2.38,1.64c-.18.27-.1.72.25,1.33l.42.71,2.87-1.66,2.05,3.55-1.62.94,10.59,18.35-6.83,3.94-10.6-18.35-1.4.81-2.05-3.55,1.4-.81a20.34,20.34,0,0,1-1.55-3.05,2.93,2.93,0,0,1,0-1.76,4.57,4.57,0,0,1,1.17-1.86,15.86,15.86,0,0,1,3.19-2.25Z"/><path class="cls-2" d="M194.46,114.42l1.44,3.11q-.35-4,2.37-5.85l4.56,7.9a6.54,6.54,0,0,0-2.46,2.1,2.46,2.46,0,0,0-.27,2,28.54,28.54,0,0,0,2.21,4.29l5.11,8.86-6.83,3.95-13-22.45Z"/><path class="cls-2" d="M204.21,102.2l2.06,3.57-7,4.07-2.06-3.57Zm2.85,4.94,13,22.45-7,4.06-13-22.44Z"/><path class="cls-2" d="M231.7,108.41l-8.84,5.11,2.8,4.85a6.41,6.41,0,0,0,1.35,1.84,1,1,0,0,0,1.1,0,1.2,1.2,0,0,0,.71-1.18,7.28,7.28,0,0,0-1-2.41l-1.71-3,6.48-3.74,1,1.65a17.07,17.07,0,0,1,1.58,3.35,7.33,7.33,0,0,1,.15,3.09,6.87,6.87,0,0,1-1.34,3.32,10.94,10.94,0,0,1-3.35,2.78,12.5,12.5,0,0,1-4.18,1.58,7.09,7.09,0,0,1-3.57-.23,7.18,7.18,0,0,1-2.67-1.66,17.9,17.9,0,0,1-2.55-3.61l-3.78-6.55a12.69,12.69,0,0,1-1.89-5.1,6.32,6.32,0,0,1,1.1-4.11,10.66,10.66,0,0,1,3.64-3.31A10.91,10.91,0,0,1,222,99.42a7,7,0,0,1,4.29,1.38,15.69,15.69,0,0,1,3.67,4.63Zm-9,.3-.94-1.64a9.56,9.56,0,0,0-1.49-2.14.84.84,0,0,0-1.05-.07c-.48.28-.69.59-.63.94a10.11,10.11,0,0,0,1.17,2.42l.95,1.65Z"/><path class="cls-2" d="M234.18,91.49l1.07,2.13a5.89,5.89,0,0,1,.75-2.9,5.65,5.65,0,0,1,2.12-2,5.43,5.43,0,0,1,3.36-.83,4.22,4.22,0,0,1,2.64,1.26,21.39,21.39,0,0,1,2.75,4L256,108.85l-6.83,3.94-9-15.54a16.27,16.27,0,0,0-1.78-2.74.88.88,0,0,0-1.14,0,1,1,0,0,0-.58,1.11,16.78,16.78,0,0,0,1.62,3.23L247,114l-6.83,4-13-22.45Z"/><path class="cls-2" d="M258,71.13l15.81,27.38L267,102.46l-.94-1.63a8,8,0,0,1-1.18,2.72,6.23,6.23,0,0,1-2,1.82,5.32,5.32,0,0,1-3.24.75,4.36,4.36,0,0,1-2.62-1.07,16.26,16.26,0,0,1-2.4-3.4l-6.06-10.5a16,16,0,0,1-1.79-3.86,4.21,4.21,0,0,1,.41-2.78,5.64,5.64,0,0,1,2.35-2.45,6.84,6.84,0,0,1,2.59-.89,6.74,6.74,0,0,1,2.72.27l-3.68-6.37Zm-.72,14.53a5.05,5.05,0,0,0-1.17-1.53,1,1,0,0,0-1.08.06,1,1,0,0,0-.61.85,5.09,5.09,0,0,0,.77,1.82l6.35,11a5.73,5.73,0,0,0,1.25,1.68.89.89,0,0,0,1,0,1,1,0,0,0,.6-1,8.6,8.6,0,0,0-1.14-2.49Z"/><path class="cls-2" d="M281.44,73.77l-6.06,3.49-.7-1.21a7.45,7.45,0,0,0-1.32-1.87c-.28-.21-.65-.18-1.13.1a1.18,1.18,0,0,0-.64.87,2.21,2.21,0,0,0,.37,1.31,6.58,6.58,0,0,0,1,1.43,2.67,2.67,0,0,0,1.47.56,21.06,21.06,0,0,0,3.92,0,12.45,12.45,0,0,1,5.49.49,7.24,7.24,0,0,1,3.09,3.2,11.06,11.06,0,0,1,1.68,4.54,5.47,5.47,0,0,1-1.14,3.52,11.16,11.16,0,0,1-3.58,3.08A12.81,12.81,0,0,1,279,95a5.6,5.6,0,0,1-3.81-.73,11.19,11.19,0,0,1-3.12-3.8l-.62-1.08,6.05-3.49.82,1.42a9,9,0,0,0,1.59,2.22,1,1,0,0,0,1.21,0,1.39,1.39,0,0,0,.81-1,3.16,3.16,0,0,0-.6-1.69q-.93-1.61-1.53-1.8a36.21,36.21,0,0,0-5.36-.11c-2.66,0-4.47-.28-5.44-1a8.56,8.56,0,0,1-2.55-2.89,9.61,9.61,0,0,1-1.58-4.38,5.3,5.3,0,0,1,1.27-3.36,11.91,11.91,0,0,1,3.55-3,13.08,13.08,0,0,1,4.12-1.63,6.78,6.78,0,0,1,3.27.11,4.63,4.63,0,0,1,2,1.14,14.64,14.64,0,0,1,1.61,2.39Z"/><path class="cls-2" d="M283.63,56.35l3.56,6.17a7,7,0,0,1,1.19-2.32,6.8,6.8,0,0,1,2-1.68,5.87,5.87,0,0,1,3.58-.85,4.22,4.22,0,0,1,2.75,1.22,25.82,25.82,0,0,1,2.8,4.2l8.93,15.47-6.83,4-9.12-15.8a11.78,11.78,0,0,0-1.65-2.41,1.08,1.08,0,0,0-1.71,1,8.89,8.89,0,0,0,1.1,2.41l9.25,16-6.84,3.94L276.79,60.3Z"/><path class="cls-2" d="M302,45.76,304,49.33l-7,4.06-2.06-3.57Zm2.85,4.94,13,22.44-7,4.07-13-22.45Z"/><path class="cls-2" d="M314.24,45.27l1,2a7.34,7.34,0,0,1,1-3,5.68,5.68,0,0,1,2.06-2,5.23,5.23,0,0,1,3.24-.73,4.12,4.12,0,0,1,2.58,1.13,20,20,0,0,1,2.48,3.63l5.46,9.45a21,21,0,0,1,2.15,4.57,4.23,4.23,0,0,1-.3,2.92,5.37,5.37,0,0,1-2.27,2.34,5.52,5.52,0,0,1-2.69.76,7.34,7.34,0,0,1-3-.62l3,5.15-6.83,3.94L307.28,49.28Zm5.71,5.4a13.58,13.58,0,0,0-1.61-2.43c-.27-.23-.63-.22-1.1,0a1,1,0,0,0-.57,1,10.28,10.28,0,0,0,1.22,2.57l5.37,9.3a10.64,10.64,0,0,0,1.67,2.42,1,1,0,0,0,1.17,0c.44-.26.62-.57.55-.94a10.46,10.46,0,0,0-1.14-2.35Z"/><path class="cls-2" d="M343.36,38l-6.06,3.49-.7-1.22a7.32,7.32,0,0,0-1.32-1.86c-.27-.21-.65-.18-1.12.09a1.16,1.16,0,0,0-.64.88,2.09,2.09,0,0,0,.37,1.31,6.29,6.29,0,0,0,1,1.43,2.82,2.82,0,0,0,1.48.56,21,21,0,0,0,3.92,0,12.42,12.42,0,0,1,5.48.49,7.18,7.18,0,0,1,3.09,3.2,10.73,10.73,0,0,1,1.68,4.54,5.41,5.41,0,0,1-1.14,3.52,11.14,11.14,0,0,1-3.58,3.07,12.8,12.8,0,0,1-4.92,1.77,5.69,5.69,0,0,1-3.82-.73,11.41,11.41,0,0,1-3.11-3.8l-.63-1.08,6.06-3.5.82,1.42a8.4,8.4,0,0,0,1.58,2.22,1,1,0,0,0,1.22,0,1.4,1.4,0,0,0,.8-1,3,3,0,0,0-.59-1.69c-.62-1.08-1.13-1.67-1.54-1.8a36.13,36.13,0,0,0-5.36-.11c-2.66,0-4.47-.28-5.44-.95a8.66,8.66,0,0,1-2.55-2.89A9.77,9.77,0,0,1,326.77,41,5.36,5.36,0,0,1,328,37.68a11.91,11.91,0,0,1,3.55-3,12.89,12.89,0,0,1,4.13-1.63,6.73,6.73,0,0,1,3.26.11,4.63,4.63,0,0,1,2,1.14,14.17,14.17,0,0,1,1.62,2.38Z"/><path class="cls-2" d="M637.64,210.28l5.8,4.09q-4.8-6.88-1.8-13L658,210.87q-2.25,3.88-2.25,6.32a5.09,5.09,0,0,0,1.63,3.94,60.66,60.66,0,0,0,8.41,5.42l18.39,10.62L676,251.35l-46.58-26.89Z"/><path class="cls-2" d="M687,180.54l-10.6,18.35,10.07,5.82c2.11,1.21,3.55,1.85,4.34,1.89a2.05,2.05,0,0,0,1.93-1.22,2.46,2.46,0,0,0,0-2.86,15.1,15.1,0,0,0-4.37-3.25l-6.14-3.55L690,182.28l3.44,2a35.86,35.86,0,0,1,6.32,4.37,15.65,15.65,0,0,1,3.48,5.4,14.41,14.41,0,0,1,1,7.35,22.67,22.67,0,0,1-3.14,8.47,25.67,25.67,0,0,1-5.87,7.18,14.64,14.64,0,0,1-6.66,3.29,14.85,14.85,0,0,1-6.51-.22,37.3,37.3,0,0,1-8.34-3.84l-13.58-7.84q-6.1-3.52-8.68-7.21a13.1,13.1,0,0,1-2.29-8.53,25.07,25.07,0,0,1,11.06-18.25,14.39,14.39,0,0,1,9.14-2q4.64.6,11.41,4.51Zm-15.79,9.83-3.4-2a20,20,0,0,0-4.89-2.31,1.77,1.77,0,0,0-2,1c-.57,1-.62,1.77-.16,2.34a21.41,21.41,0,0,0,4.63,3.14l3.4,2Z"/><path class="cls-2" d="M697.12,141.62l-7.25,12.56-2.53-1.45a15.6,15.6,0,0,0-4.3-2c-.72-.08-1.36.37-1.93,1.35a2.4,2.4,0,0,0-.24,2.24,4.48,4.48,0,0,0,2,2,13.57,13.57,0,0,0,3.31,1.51,5.67,5.67,0,0,0,3.23-.52,44.89,44.89,0,0,0,7-4.12q6.59-4.42,10.36-4.82t8.87,2.55c3.8,2.18,6.37,4.33,7.73,6.42a11.28,11.28,0,0,1,1.61,7.51,23.32,23.32,0,0,1-3.25,9.24,26.49,26.49,0,0,1-7,8.27,11.62,11.62,0,0,1-7.61,2.65c-2.48-.15-5.65-1.34-9.54-3.59l-2.24-1.29,7.25-12.57,2.95,1.7a17.94,17.94,0,0,0,5.15,2.35,2.14,2.14,0,0,0,2.21-1.23,3,3,0,0,0,.46-2.54c-.27-.69-1.22-1.5-2.83-2.43-2.23-1.29-3.77-1.83-4.62-1.64s-4.13,2-9.75,5.37q-7.11,4.21-10.77,3.93a17.8,17.8,0,0,1-7.58-2.55q-5.58-3.23-7.38-6.22a11.06,11.06,0,0,1-1.2-7.37,25.07,25.07,0,0,1,3.29-9,26.8,26.8,0,0,1,5.73-7.2,13.93,13.93,0,0,1,6-3.19,9.58,9.58,0,0,1,4.8,0,30.16,30.16,0,0,1,5.37,2.61Z"/><path class="cls-2" d="M693.39,113.72l4,2.62A15,15,0,0,1,696,110a12,12,0,0,1,1.65-5.7,10.81,10.81,0,0,1,5.06-4.68,8.62,8.62,0,0,1,5.83-.64,41.65,41.65,0,0,1,8.2,3.94l19.62,11.33q6.36,3.67,8.6,6a8.65,8.65,0,0,1,2.5,5.57,11.19,11.19,0,0,1-1.65,6.55,11.65,11.65,0,0,1-4.05,4.17,15.28,15.28,0,0,1-6,2l10.68,6.17-8.19,14.18-53.2-30.72Zm15.87,3.79a27.11,27.11,0,0,0-5.41-2.7c-.73-.14-1.37.26-1.92,1.22a2,2,0,0,0,0,2.42,22,22,0,0,0,4.86,3.34l19.3,11.15q4.21,2.43,5.51,2.61a2,2,0,0,0,2.11-1.21,1.82,1.82,0,0,0,0-2.26,22.1,22.1,0,0,0-4.5-3Z"/><path class="cls-2" d="M749.25,72.65,738.65,91l10.08,5.82a12.82,12.82,0,0,0,4.33,1.89A2,2,0,0,0,755,97.48a2.44,2.44,0,0,0,0-2.85,15.1,15.1,0,0,0-4.37-3.25l-6.14-3.55,7.76-13.44,3.44,2A35.33,35.33,0,0,1,762,80.75a15.65,15.65,0,0,1,3.48,5.4,14.41,14.41,0,0,1,1,7.35A22.81,22.81,0,0,1,763.4,102a26,26,0,0,1-5.88,7.18,14.64,14.64,0,0,1-6.66,3.29,14.85,14.85,0,0,1-6.51-.22,37.3,37.3,0,0,1-8.34-3.84l-13.58-7.84q-6.1-3.53-8.68-7.21a13.1,13.1,0,0,1-2.29-8.53,22,22,0,0,1,3.11-9.71,22.3,22.3,0,0,1,7.95-8.54,14.39,14.39,0,0,1,9.14-2q4.64.6,11.41,4.51Zm-15.79,9.83-3.4-2a20,20,0,0,0-4.89-2.31,1.77,1.77,0,0,0-2,1c-.57,1-.62,1.76-.16,2.34a21.41,21.41,0,0,0,4.63,3.14l3.4,2Z"/><path class="cls-2" d="M763.49,32.9l-7.72,13.37-5.37-3.1a12.14,12.14,0,0,0-4.07-1.74,1.94,1.94,0,0,0-2,1.11,1.9,1.9,0,0,0-.08,2.16A13.32,13.32,0,0,0,748,47.39l22,12.68A9.93,9.93,0,0,0,774,61.6a2.3,2.3,0,0,0,2.32-1.14,2.21,2.21,0,0,0-.17-2.7,18,18,0,0,0-4.62-3.35L766,51.21l7.3-12.63a84.24,84.24,0,0,1,8.14,5.23,15.49,15.49,0,0,1,4.36,5.66,14.45,14.45,0,0,1,1.43,7.73A21.45,21.45,0,0,1,784.19,66q-3.47,6-7.55,8.32A13,13,0,0,1,768,75.92q-4.54-.67-11.35-4.61l-13.24-7.64q-5.92-3.42-8.26-6.36c-1.55-2-2.37-4.69-2.45-8.2a20.66,20.66,0,0,1,3.11-10.84,20.92,20.92,0,0,1,7.82-8.12,13.37,13.37,0,0,1,9-1.81C755.48,28.86,759.12,30.38,763.49,32.9Z"/><path class="cls-2" d="M750.76,0l7.34,4.24L760.3.41l7.37,4.25-2.2,3.83,24.92,14.39q4.59,2.65,5.39,2.48c.54-.11,1.47-1.33,2.81-3.64l7.51,4.33-3.3,5.73a48.14,48.14,0,0,1-4.4,6.68,8.49,8.49,0,0,1-4,2.57,7,7,0,0,1-4.46,0,66.62,66.62,0,0,1-9.06-4.71L757.26,22.71l-1.76,3.05-7.37-4.26,1.76-3.05-7.34-4.24Z"/><path class="cls-2" d="M500.15,71.43l-6.45-3.72,1.5-2.59a5.85,5.85,0,0,0,.84-2,1,1,0,0,0-.54-.95.92.92,0,0,0-1,0A6.26,6.26,0,0,0,493.17,64l-6.12,10.59a4.8,4.8,0,0,0-.73,2,1.09,1.09,0,0,0,.55,1.11,1.07,1.07,0,0,0,1.3-.08,8.62,8.62,0,0,0,1.61-2.23l1.54-2.67,6.09,3.52a41.75,41.75,0,0,1-2.52,3.92,7.46,7.46,0,0,1-2.73,2.1,6.85,6.85,0,0,1-3.72.69,10.21,10.21,0,0,1-4.22-1.48,10.48,10.48,0,0,1-4-3.63,6.34,6.34,0,0,1-.79-4.16,16.52,16.52,0,0,1,2.23-5.47l3.68-6.38a14.41,14.41,0,0,1,3.06-4,6.47,6.47,0,0,1,3.95-1.18,9.9,9.9,0,0,1,5.23,1.5,10,10,0,0,1,3.91,3.77,6.37,6.37,0,0,1,.87,4.31A17.25,17.25,0,0,1,500.15,71.43Z"/><path class="cls-2" d="M518,80.94l-3.18,5.49a27.27,27.27,0,0,1-2.86,4.27,7.21,7.21,0,0,1-2.83,1.88,6.77,6.77,0,0,1-3.61.34,11.77,11.77,0,0,1-3.93-1.5A14.77,14.77,0,0,1,498,88.71a6.08,6.08,0,0,1-1.58-2.92,6.93,6.93,0,0,1,.17-3.15,20.79,20.79,0,0,1,2.1-4.5L502,72.38a16.32,16.32,0,0,1,3.5-4.49,6.43,6.43,0,0,1,4.07-1.42A10,10,0,0,1,514.71,68a11.94,11.94,0,0,1,3.56,3,7.29,7.29,0,0,1,1.51,3.25,7.16,7.16,0,0,1-.08,3A16.13,16.13,0,0,1,518,80.94Zm-5.86-5.64A8.83,8.83,0,0,0,513.19,73a.89.89,0,0,0-.54-.91.93.93,0,0,0-1.07,0,7.85,7.85,0,0,0-1.45,2.06l-5.85,10.13a7.42,7.42,0,0,0-1,2.19.9.9,0,0,0,.52.94.92.92,0,0,0,1.06,0,6.68,6.68,0,0,0,1.28-1.78Z"/><path class="cls-2" d="M531.53,78.25l-1.35,2.07a6.33,6.33,0,0,1,3-.82,5.83,5.83,0,0,1,5.72,5.85,7.09,7.09,0,0,1,3-.79,5.95,5.95,0,0,1,5.17,3.27,4.3,4.3,0,0,1,.26,2.91,19.72,19.72,0,0,1-2,4.17l-9.21,16L529.55,107,538,92.4a20.5,20.5,0,0,0,1.86-3.67,1,1,0,0,0-.51-1.21,1,1,0,0,0-1.32.14,19.51,19.51,0,0,0-2.28,3.44l-8.44,14.64-6.63-3.83,8.23-14.26A29.16,29.16,0,0,0,531,83.6a.94.94,0,0,0-.5-1.18,1.2,1.2,0,0,0-1-.1,1.58,1.58,0,0,0-.85.64c-.21.32-.63,1-1.26,2.11l-9,15.56-6.63-3.83,13-22.45Z"/><path class="cls-2" d="M558.44,93.79l-1.27,1.91a7.33,7.33,0,0,1,3.06-.63,5.78,5.78,0,0,1,2.74.79,5.18,5.18,0,0,1,2.25,2.44,4.1,4.1,0,0,1,.31,2.81,20,20,0,0,1-1.9,4l-5.46,9.46a20.47,20.47,0,0,1-2.87,4.14,4.16,4.16,0,0,1-2.68,1.21,5.43,5.43,0,0,1-3.16-.8,5.53,5.53,0,0,1-2-1.95,7.15,7.15,0,0,1-1-2.9l-3,5.14-6.84-3.94,14.81-25.65Zm-1.83,7.65a13.74,13.74,0,0,0,1.31-2.61c.06-.35-.13-.66-.6-.93a.94.94,0,0,0-1.16,0,10.52,10.52,0,0,0-1.61,2.34l-5.37,9.3a10.51,10.51,0,0,0-1.26,2.66,1,1,0,0,0,.58,1,.88.88,0,0,0,1.09,0,10.45,10.45,0,0,0,1.47-2.17Z"/><path class="cls-2" d="M578.23,120.71l-8.84-5.11-2.81,4.86a6.21,6.21,0,0,0-.91,2.09,1,1,0,0,0,.59.92,1.19,1.19,0,0,0,1.38,0,7.46,7.46,0,0,0,1.57-2.11l1.71-3,6.48,3.75-1,1.65a17.54,17.54,0,0,1-2.11,3.05,7.44,7.44,0,0,1-2.6,1.67,6.94,6.94,0,0,1-3.55.5,11,11,0,0,1-4.08-1.51,12.63,12.63,0,0,1-3.46-2.84,7,7,0,0,1-1.58-3.2,7.21,7.21,0,0,1,.1-3.14,18.25,18.25,0,0,1,1.85-4l3.78-6.55a12.8,12.8,0,0,1,3.48-4.18,6.3,6.3,0,0,1,4.11-1.1,12.07,12.07,0,0,1,8.79,5.33,6.9,6.9,0,0,1,1,4.4,15.75,15.75,0,0,1-2.18,5.5Zm-4.74-7.61,1-1.64a9.45,9.45,0,0,0,1.11-2.36.83.83,0,0,0-.47-.94c-.47-.28-.85-.3-1.12-.08a10.31,10.31,0,0,0-1.52,2.23L571.5,112Z"/><path class="cls-2" d="M596.11,111.55l-2,3.53,1.84,1.07-2,3.55L592,118.63l-6.94,12a7.39,7.39,0,0,0-1.19,2.6c.05.26.64.71,1.75,1.36l-2.09,3.62-2.75-1.6a21.27,21.27,0,0,1-3.22-2.12,4,4,0,0,1-1.24-1.91,3.37,3.37,0,0,1,0-2.15,31.77,31.77,0,0,1,2.27-4.36l6.58-11.4-1.47-.85,2-3.55,1.47.85,2-3.54Z"/><path class="cls-2" d="M604.77,120.54l-13,22.44-7-4.06,13-22.45Zm2.85-4.94-2.06,3.57-7-4.07,2.06-3.57Z"/><path class="cls-2" d="M616.15,123.12l-2,3.53,1.85,1.07-2.05,3.55-1.85-1.06-6.93,12a7.67,7.67,0,0,0-1.2,2.61c.05.25.64.7,1.76,1.35l-2.09,3.62-2.76-1.59a23,23,0,0,1-3.22-2.12,4.15,4.15,0,0,1-1.24-1.91,3.47,3.47,0,0,1,0-2.16,32.38,32.38,0,0,1,2.27-4.36l6.58-11.4-1.47-.85,2-3.55,1.47.85,2-3.54Z"/><path class="cls-2" d="M624.81,132.11l-13,22.44-7-4.06,13-22.45Zm2.85-4.94-2.06,3.57-7-4.07,2.07-3.56Z"/><path class="cls-2" d="M638.17,150.33l-3.17,5.5a26.48,26.48,0,0,1-2.87,4.26,7.16,7.16,0,0,1-2.82,1.89,6.87,6.87,0,0,1-3.61.33,11.74,11.74,0,0,1-3.93-1.49,14.39,14.39,0,0,1-3.55-2.72,6,6,0,0,1-1.58-2.91,7,7,0,0,1,.16-3.16,21.38,21.38,0,0,1,2.11-4.5l3.32-5.75a16.05,16.05,0,0,1,3.5-4.5,6.52,6.52,0,0,1,4.06-1.42,9.93,9.93,0,0,1,5.12,1.54,11.87,11.87,0,0,1,3.55,3,7.09,7.09,0,0,1,1.43,6.23A16.29,16.29,0,0,1,638.17,150.33Zm-5.86-5.64a8.16,8.16,0,0,0,1.07-2.28.87.87,0,0,0-.53-.9.92.92,0,0,0-1.07,0,7.68,7.68,0,0,0-1.46,2l-5.85,10.13a7.58,7.58,0,0,0-1,2.19,1.07,1.07,0,0,0,1.57,1,6.59,6.59,0,0,0,1.29-1.78Z"/><path class="cls-2" d="M651.92,147.76l-1.31,2a5.8,5.8,0,0,1,2.89-.8,5.63,5.63,0,0,1,2.84.81,5.38,5.38,0,0,1,2.39,2.49,4.24,4.24,0,0,1,.24,2.92,23.2,23.2,0,0,1-2.11,4.39l-9.08,15.73-6.84-4,9-15.54a17.44,17.44,0,0,0,1.48-2.92.88.88,0,0,0-.55-1,1,1,0,0,0-1.25,0,16.77,16.77,0,0,0-2,3l-8.76,15.17L632,166.19l13-22.44Z"/><path class="cls-2" d="M73.18,486.08l-9.69,5.6-1.13-1.95a11.87,11.87,0,0,0-2.1-3c-.44-.33-1-.28-1.8.15a1.87,1.87,0,0,0-1,1.41,3.4,3.4,0,0,0,.59,2.09,10.7,10.7,0,0,0,1.63,2.29,4.4,4.4,0,0,0,2.36.9,35,35,0,0,0,6.27-.05q6.1-.42,8.78.77T82,499.43a17.46,17.46,0,0,1,2.69,7.27,8.76,8.76,0,0,1-1.82,5.63,18.11,18.11,0,0,1-5.73,4.92,20.42,20.42,0,0,1-7.89,2.81,9,9,0,0,1-6.1-1.16c-1.59-1-3.26-3.08-5-6.07l-1-1.73,9.68-5.6,1.32,2.27a13.89,13.89,0,0,0,2.53,3.56,1.65,1.65,0,0,0,2,0,2.23,2.23,0,0,0,1.29-1.51,5.12,5.12,0,0,0-1-2.72q-1.48-2.56-2.46-2.88c-.67-.19-3.52-.25-8.58-.17-4.25.05-7.15-.45-8.71-1.52a13.89,13.89,0,0,1-4.08-4.62q-2.47-4.31-2.52-7a8.55,8.55,0,0,1,2-5.38,19.44,19.44,0,0,1,5.68-4.76,20.8,20.8,0,0,1,6.6-2.6,10.74,10.74,0,0,1,5.23.18,7.39,7.39,0,0,1,3.21,1.82A23.43,23.43,0,0,1,72,484Z"/><path class="cls-2" d="M95.35,458l20.73,35.91L105,500.32l-1.53-3.1a8.78,8.78,0,0,1-1.23,4.34,9,9,0,0,1-3.31,3.12,10,10,0,0,1-4.58,1.5,6.5,6.5,0,0,1-3.73-.92,9.64,9.64,0,0,1-2.68-2.44,69.68,69.68,0,0,1-3.76-6.07l-14-24.22,10.94-6.31L95.2,490.65a28.3,28.3,0,0,0,3.13,4.83c.47.43,1.09.42,1.85,0s1.13-1,1-1.64a35.41,35.41,0,0,0-2.78-5.36l-14-24.17Z"/><path class="cls-2" d="M110.4,449.29l1.64,3.29a11.64,11.64,0,0,1,1.56-4.74,9.19,9.19,0,0,1,3.3-3.16,8.35,8.35,0,0,1,5.18-1.18,6.68,6.68,0,0,1,4.14,1.82,32.12,32.12,0,0,1,4,5.8l8.73,15.12a33.4,33.4,0,0,1,3.44,7.31,6.72,6.72,0,0,1-.47,4.68,8.71,8.71,0,0,1-3.64,3.74,9,9,0,0,1-4.3,1.22,12,12,0,0,1-4.8-1l4.75,8.23L123,496.74l-23.69-41Zm9.14,8.65a21.35,21.35,0,0,0-2.57-3.89c-.44-.37-1-.35-1.76.08a1.54,1.54,0,0,0-.93,1.62,17.09,17.09,0,0,0,2,4.1l8.59,14.88a17,17,0,0,0,2.67,3.88,1.57,1.57,0,0,0,1.88,0,1.4,1.4,0,0,0,.88-1.5,17.9,17.9,0,0,0-1.83-3.76Z"/><path class="cls-2" d="M139.16,432.68l1.65,3.29a11.64,11.64,0,0,1,1.56-4.74,9.16,9.16,0,0,1,3.29-3.16,8.39,8.39,0,0,1,5.19-1.18,6.63,6.63,0,0,1,4.13,1.82,31.1,31.1,0,0,1,4,5.8l8.74,15.13a33.65,33.65,0,0,1,3.44,7.3,6.72,6.72,0,0,1-.47,4.68,8.71,8.71,0,0,1-3.64,3.74,8.85,8.85,0,0,1-4.31,1.22,12,12,0,0,1-4.79-1l4.75,8.23-10.93,6.31-23.69-41Zm9.15,8.65a21.35,21.35,0,0,0-2.57-3.89c-.44-.37-1-.35-1.76.08a1.55,1.55,0,0,0-.93,1.62,16.91,16.91,0,0,0,2,4.1l8.59,14.88a17,17,0,0,0,2.67,3.88,1.57,1.57,0,0,0,1.87,0c.71-.41,1-.91.89-1.51a17.9,17.9,0,0,0-1.83-3.76Z"/><path class="cls-2" d="M188.83,420.83l5.07,8.79a42.76,42.76,0,0,1,3.62,7.39,11.55,11.55,0,0,1,.35,5.42,10.88,10.88,0,0,1-2.43,5.27,18.81,18.81,0,0,1-5.21,4.25,23.75,23.75,0,0,1-6.6,2.75,9.6,9.6,0,0,1-5.3-.15,10.92,10.92,0,0,1-4.24-2.75,33.84,33.84,0,0,1-4.56-6.52l-5.31-9.2a25.85,25.85,0,0,1-3.43-8.45,10.35,10.35,0,0,1,1.28-6.77,16,16,0,0,1,6.22-5.86,19.16,19.16,0,0,1,7-2.55,11.41,11.41,0,0,1,9.78,3A25.89,25.89,0,0,1,188.83,420.83Zm-12.5,3.6a13.36,13.36,0,0,0-2.31-3.3,1.4,1.4,0,0,0-1.68,0,1.49,1.49,0,0,0-.89,1.47,12.49,12.49,0,0,0,1.69,3.67l9.36,16.21a12.13,12.13,0,0,0,2.24,3.13,1.71,1.71,0,0,0,2.59-1.41,10.38,10.38,0,0,0-1.44-3.21Z"/><path class="cls-2" d="M196.08,399.82l2.29,5q-.54-6.45,3.8-9.36l7.3,12.64a10.51,10.51,0,0,0-3.94,3.36,3.92,3.92,0,0,0-.43,3.26,46.23,46.23,0,0,0,3.53,6.86l8.18,14.18-10.93,6.31-20.73-35.91Z"/><path class="cls-2" d="M214.75,382.66l3.26,5.66,3-1.71,3.28,5.69-3,1.7,11.1,19.21c1.36,2.37,2.24,3.61,2.64,3.74s1.5-.32,3.28-1.35l3.35,5.79-4.41,2.55a36.27,36.27,0,0,1-5.52,2.77,6.61,6.61,0,0,1-3.64.19,5.54,5.54,0,0,1-3-1.7,54.12,54.12,0,0,1-4.23-6.63l-10.53-18.24L208,401.69,204.7,396l2.35-1.36L203.79,389Z"/><path class="cls-3" d="M16.25,153.47l3.47,2a9.73,9.73,0,0,0-1.25,2.61c0,.33.28.67.89,1l.71.41,1.66-2.87,3.55,2.05-.94,1.62,18.36,10.6-4,6.83L20.4,167.14l-.81,1.41L16,166.5l.81-1.41A20.74,20.74,0,0,1,14,163.23a3,3,0,0,1-.89-1.52,4.36,4.36,0,0,1,.09-2.19A15.66,15.66,0,0,1,14.8,156Z"/><path class="cls-3" d="M21.06,145.13l3.57,2.06-4.06,7L17,152.17ZM26,148l22.45,13-4.06,7L21.94,155Z"/><path class="cls-3" d="M28.59,136.6l3.53,2,1.07-1.84,3.55,2-1.07,1.84,12,6.93a7.3,7.3,0,0,0,2.6,1.2c.26,0,.71-.64,1.36-1.76l3.62,2.09-1.6,2.76a21.27,21.27,0,0,1-2.12,3.22,4,4,0,0,1-1.91,1.24,3.37,3.37,0,0,1-2.15,0,31.77,31.77,0,0,1-4.36-2.27l-11.4-6.58L30.87,149l-3.55-2,.85-1.47-3.54-2Z"/><path class="cls-3" d="M37.53,128l2,1.31a5.92,5.92,0,0,1-.81-2.89,5.63,5.63,0,0,1,.81-2.84A5.42,5.42,0,0,1,42,121.22a4.24,4.24,0,0,1,2.92-.24,22.91,22.91,0,0,1,4.39,2.11l15.73,9.08L61.12,139l-15.55-9a17.51,17.51,0,0,0-2.91-1.48.89.89,0,0,0-1,.55,1,1,0,0,0,.06,1.26,17.31,17.31,0,0,0,3,2L59.9,141.1,56,147.94,33.51,135Z"/><path class="cls-3" d="M64.53,108.09l-5.11,8.85,4.86,2.8a6.38,6.38,0,0,0,2.08.92,1,1,0,0,0,.93-.6,1.17,1.17,0,0,0,0-1.37,7.46,7.46,0,0,0-2.11-1.57l-3-1.71L66,108.93l1.66,1a17,17,0,0,1,3,2.11,7.44,7.44,0,0,1,1.67,2.6,6.82,6.82,0,0,1,.49,3.55,10.72,10.72,0,0,1-1.51,4.07,12.34,12.34,0,0,1-2.83,3.47,6.87,6.87,0,0,1-6.34,1.47,17.67,17.67,0,0,1-4-1.84l-6.55-3.78a12.82,12.82,0,0,1-4.18-3.48,6.24,6.24,0,0,1-1.1-4.11,10.63,10.63,0,0,1,1.49-4.68,10.74,10.74,0,0,1,3.83-4.11,6.94,6.94,0,0,1,4.41-1,15.75,15.75,0,0,1,5.5,2.18Zm-7.61,4.74-1.64-.94a10,10,0,0,0-2.36-1.12.87.87,0,0,0-1,.47c-.27.48-.29.85-.07,1.13a10.14,10.14,0,0,0,2.23,1.51l1.64,1Z"/><path class="cls-3" d="M69.42,89.34l-3.49,6-1.22-.7a7.51,7.51,0,0,0-2.07-1c-.35,0-.66.18-.93.65a1.18,1.18,0,0,0-.12,1.08,2.19,2.19,0,0,0,1,1,6.55,6.55,0,0,0,1.6.73,2.73,2.73,0,0,0,1.55-.25,21.5,21.5,0,0,0,3.38-2,12.38,12.38,0,0,1,5-2.32,7.27,7.27,0,0,1,4.27,1.22,11,11,0,0,1,3.73,3.1,5.5,5.5,0,0,1,.77,3.62A11.29,11.29,0,0,1,81.31,105a12.88,12.88,0,0,1-3.39,4,5.65,5.65,0,0,1-3.67,1.28,11.4,11.4,0,0,1-4.59-1.73l-1.09-.63,3.5-6,1.42.82A9.12,9.12,0,0,0,76,103.78a1,1,0,0,0,1.07-.6,1.41,1.41,0,0,0,.22-1.22,3.17,3.17,0,0,0-1.36-1.17,4,4,0,0,0-2.23-.79,34.93,34.93,0,0,0-4.7,2.59c-2.29,1.35-4,2-5.19,1.89a8.64,8.64,0,0,1-3.65-1.23,9.67,9.67,0,0,1-3.56-3A5.3,5.3,0,0,1,56,96.71a11.89,11.89,0,0,1,1.59-4.36,12.94,12.94,0,0,1,2.76-3.46,6.69,6.69,0,0,1,2.88-1.54,4.61,4.61,0,0,1,2.31,0,14.44,14.44,0,0,1,2.59,1.26Z"/><path class="cls-3" d="M78.84,73l-3.5,6.06-1.22-.7a7.25,7.25,0,0,0-2.07-1c-.34-.05-.65.17-.93.64A1.17,1.17,0,0,0,71,79.16a2.2,2.2,0,0,0,1,.94,6.55,6.55,0,0,0,1.6.73,2.72,2.72,0,0,0,1.55-.25,22,22,0,0,0,3.38-2,12.43,12.43,0,0,1,5-2.33,7.41,7.41,0,0,1,4.28,1.23,10.9,10.9,0,0,1,3.72,3.1,5.41,5.41,0,0,1,.78,3.61,11.36,11.36,0,0,1-1.57,4.46,12.68,12.68,0,0,1-3.39,4,5.57,5.57,0,0,1-3.66,1.28,11.23,11.23,0,0,1-4.6-1.73L78,91.58l3.49-6.06,1.43.82a8.56,8.56,0,0,0,2.48,1.13,1,1,0,0,0,1.06-.59,1.4,1.4,0,0,0,.22-1.23,3.11,3.11,0,0,0-1.36-1.17,3.92,3.92,0,0,0-2.23-.79,38.6,38.6,0,0,0-4.7,2.59q-3.42,2-5.18,1.9A8.64,8.64,0,0,1,69.54,87,9.81,9.81,0,0,1,66,84a5.28,5.28,0,0,1-.58-3.55A12.07,12.07,0,0,1,67,76.05a12.85,12.85,0,0,1,2.76-3.47A6.66,6.66,0,0,1,72.64,71,4.73,4.73,0,0,1,75,71a14.77,14.77,0,0,1,2.59,1.26Z"/><path class="cls-3" d="M710.11,212.45l2,3.47a9.57,9.57,0,0,0-2.38,1.63c-.18.28-.09.72.26,1.33l.41.71,2.87-1.66,2.06,3.55-1.63.94,10.6,18.35-6.84,3.95-10.59-18.36-1.41.81-2.05-3.55,1.41-.81a20.73,20.73,0,0,1-1.56-3.05,2.93,2.93,0,0,1,0-1.76,4.36,4.36,0,0,1,1.17-1.86,15.57,15.57,0,0,1,3.19-2.25Z"/><path class="cls-3" d="M725.39,221.8,719,225.5l-.87-1.5a12.28,12.28,0,0,1-1.72-4.36,6.46,6.46,0,0,1,1-3.89,10.44,10.44,0,0,1,4.08-3.8,10.6,10.6,0,0,1,5.93-1.79,5.55,5.55,0,0,1,3.86,1.79,54.54,54.54,0,0,1,4.59,7.14l6.51,11.27-6.65,3.84-1.15-2a4.83,4.83,0,0,1-2.59,4.7,6.62,6.62,0,0,1-3.87.89q-2.07-.14-4-3.54L723,232.41c-1-1.68-1.36-3-1.18-3.9s1.08-2.38,2.71-4.4c1.73-2.18,2.59-3.46,2.57-3.86a5.26,5.26,0,0,0-.83-2,7.4,7.4,0,0,0-1.59-2.14,1.06,1.06,0,0,0-1.18,0c-.46.27-.66.59-.6.95a10.62,10.62,0,0,0,1.17,2.42Zm3.94,1.83a5.84,5.84,0,0,0-.74,3.11,9.19,9.19,0,0,0,1.09,2.49,8.09,8.09,0,0,0,1.52,2.12,1,1,0,0,0,1.2,0c.43-.25.63-.54.61-.88a7.35,7.35,0,0,0-1-2.2Z"/><path class="cls-3" d="M738.47,202.66l1.11,2.2a6.36,6.36,0,0,1,.8-3,5.71,5.71,0,0,1,2.14-2.08,5.61,5.61,0,0,1,5.77.05,7.13,7.13,0,0,1,.85-3,5.9,5.9,0,0,1,5.41-2.85,4.38,4.38,0,0,1,2.66,1.23,20.57,20.57,0,0,1,2.62,3.8L769,214.94l-6.63,3.83L754,204.14a21.57,21.57,0,0,0-2.25-3.45,1,1,0,0,0-1.3-.16,1,1,0,0,0-.55,1.21,19.66,19.66,0,0,0,1.85,3.7l8.45,14.63-6.63,3.83-8.24-14.26a31,31,0,0,0-2.44-3.87.94.94,0,0,0-1.27-.15,1.19,1.19,0,0,0-.58.8,1.54,1.54,0,0,0,.13,1.05c.17.35.57,1.06,1.2,2.14l9,15.56L744.68,229l-13-22.44Z"/><path class="cls-3" d="M762.61,182.14l2.06,3.56-7,4.07-2.06-3.57Zm2.86,4.93,12.95,22.45-7,4.06-13-22.44Z"/><path class="cls-3" d="M772.1,176.66,787.91,204l-7,4.06-15.81-27.38Z"/><path class="cls-3" d="M791.71,171.92l7.43,17.37q1.75,4.13,2.26,5.7a6.43,6.43,0,0,1,.29,2.92,4.76,4.76,0,0,1-1.24,2.51,16.23,16.23,0,0,1-3.89,2.82l-4.14,2.39-2.07-3.58a9,9,0,0,0,2-1.35.79.79,0,0,0,0-1c-.11-.18-.7-.88-1.78-2.11L776,181l6.2-3.58,11,13.86-7.66-15.79Z"/></g></g></svg>